G04*
G04 #@! TF.GenerationSoftware,Altium Limited,Altium Designer,19.1.5 (86)*
G04*
G04 Layer_Color=255*
%FSLAX25Y25*%
%MOIN*%
G70*
G01*
G75*
%ADD59C,0.23622*%
%ADD60C,0.14764*%
%ADD61R,0.07874X0.07874*%
%ADD62C,0.07874*%
%ADD63R,0.07874X0.07874*%
%ADD64C,0.06000*%
%ADD65R,0.06000X0.06000*%
%ADD66C,0.24410*%
%ADD67R,0.10000X0.10000*%
%ADD68R,0.10000X0.10000*%
%ADD69R,0.06142X0.06142*%
%ADD70C,0.06142*%
%ADD71C,0.05906*%
%ADD72R,0.05906X0.05906*%
%ADD73R,0.09843X0.09843*%
%ADD74C,0.09843*%
D59*
X346787Y414007D02*
D03*
X94488Y26984D02*
D03*
X22638Y676181D02*
D03*
X427165Y157480D02*
D03*
D60*
X416929Y342126D02*
D03*
Y322441D02*
D03*
Y361811D02*
D03*
Y415748D02*
D03*
Y396063D02*
D03*
Y435433D02*
D03*
X415748Y277165D02*
D03*
Y257480D02*
D03*
Y296850D02*
D03*
X35433Y651575D02*
D03*
Y631890D02*
D03*
X33500Y218504D02*
D03*
Y238189D02*
D03*
Y198819D02*
D03*
Y407480D02*
D03*
Y387795D02*
D03*
Y368110D02*
D03*
Y348425D02*
D03*
Y289370D02*
D03*
Y309055D02*
D03*
Y269685D02*
D03*
Y328740D02*
D03*
Y536392D02*
D03*
Y497022D02*
D03*
Y437967D02*
D03*
Y516707D02*
D03*
Y477337D02*
D03*
Y457652D02*
D03*
X372835Y28126D02*
D03*
X431890D02*
D03*
X392520D02*
D03*
X412205D02*
D03*
X353150D02*
D03*
X333465D02*
D03*
X313779D02*
D03*
X294094D02*
D03*
X254724D02*
D03*
X274410D02*
D03*
X35433Y586268D02*
D03*
Y605953D02*
D03*
Y566583D02*
D03*
X166634Y28126D02*
D03*
X225689D02*
D03*
X186319D02*
D03*
X206004D02*
D03*
X21260Y31890D02*
D03*
X40945D02*
D03*
D61*
X155118Y544882D02*
D03*
D62*
X145118D02*
D03*
X135118D02*
D03*
X125118D02*
D03*
X115118D02*
D03*
X105118D02*
D03*
X258563Y205217D02*
D03*
Y195217D02*
D03*
Y185216D02*
D03*
Y175216D02*
D03*
Y165217D02*
D03*
D63*
Y155217D02*
D03*
D64*
X191476Y502118D02*
D03*
X201476D02*
D03*
X191476Y512118D02*
D03*
X201476D02*
D03*
X215492Y478012D02*
D03*
X225492D02*
D03*
X235492D02*
D03*
X245492D02*
D03*
X255492D02*
D03*
X265492D02*
D03*
X215492Y488012D02*
D03*
X225492D02*
D03*
X235492D02*
D03*
X245492D02*
D03*
X255492D02*
D03*
X265492D02*
D03*
X275492Y478012D02*
D03*
Y488012D02*
D03*
X285492Y478012D02*
D03*
X295492D02*
D03*
X305492D02*
D03*
X315492D02*
D03*
X325492D02*
D03*
X335492D02*
D03*
X285492Y488012D02*
D03*
X295492D02*
D03*
X305492D02*
D03*
X315492D02*
D03*
X325492D02*
D03*
X335492D02*
D03*
X345492Y478012D02*
D03*
Y488012D02*
D03*
X355492Y478012D02*
D03*
X365492D02*
D03*
X375492D02*
D03*
X385492D02*
D03*
X395492D02*
D03*
X405492D02*
D03*
X355492Y488012D02*
D03*
X365492D02*
D03*
X375492D02*
D03*
X385492D02*
D03*
X395492D02*
D03*
X182160Y79724D02*
D03*
X192160D02*
D03*
X202160D02*
D03*
X212160D02*
D03*
Y239724D02*
D03*
X202160D02*
D03*
X192160D02*
D03*
X182160D02*
D03*
D65*
X405492Y488012D02*
D03*
D66*
X424665Y483012D02*
D03*
X196319D02*
D03*
Y675925D02*
D03*
X424665D02*
D03*
D67*
X133405Y12300D02*
D03*
X62005Y170400D02*
D03*
D68*
X133405D02*
D03*
X62005Y12300D02*
D03*
D69*
X201240Y285335D02*
D03*
D70*
X211240D02*
D03*
X381240D02*
D03*
X221240D02*
D03*
X231240D02*
D03*
X241240D02*
D03*
X251240D02*
D03*
X261240D02*
D03*
X271240D02*
D03*
X281240D02*
D03*
X291240D02*
D03*
X301240D02*
D03*
X311240D02*
D03*
X321240D02*
D03*
X331240D02*
D03*
X341240D02*
D03*
X351240D02*
D03*
X361240D02*
D03*
X371240D02*
D03*
X201240Y385335D02*
D03*
X211240D02*
D03*
X221240D02*
D03*
X231240D02*
D03*
X241240D02*
D03*
X251240D02*
D03*
X261240D02*
D03*
X271240D02*
D03*
X281240D02*
D03*
X291240D02*
D03*
X301240D02*
D03*
X311240D02*
D03*
X321240D02*
D03*
X331240D02*
D03*
X341240D02*
D03*
X351240D02*
D03*
X361240D02*
D03*
X371240D02*
D03*
X381240D02*
D03*
D71*
X73665Y566583D02*
D03*
Y576583D02*
D03*
D72*
Y556583D02*
D03*
D73*
X115784Y217505D02*
D03*
D74*
X65784Y197820D02*
D03*
X105941D02*
D03*
X65784Y237190D02*
D03*
X105941D02*
D03*
M02*
