G04*
G04 #@! TF.GenerationSoftware,Altium Limited,Altium Designer,19.1.5 (86)*
G04*
G04 Layer_Physical_Order=2*
G04 Layer_Color=16711680*
%FSLAX25Y25*%
%MOIN*%
G70*
G01*
G75*
%ADD54C,0.05000*%
%ADD55C,0.02000*%
%ADD56C,0.10000*%
%ADD59C,0.23622*%
%ADD60C,0.14764*%
%ADD61R,0.07874X0.07874*%
%ADD62C,0.07874*%
%ADD63R,0.07874X0.07874*%
%ADD64C,0.06000*%
%ADD65R,0.06000X0.06000*%
%ADD66C,0.24410*%
%ADD67R,0.10000X0.10000*%
%ADD68R,0.10000X0.10000*%
%ADD69R,0.06142X0.06142*%
%ADD70C,0.06142*%
%ADD71C,0.05906*%
%ADD72R,0.05906X0.05906*%
%ADD73R,0.09843X0.09843*%
%ADD74C,0.09843*%
%ADD75C,0.05000*%
G36*
X443630Y2039D02*
X2039D01*
Y692449D01*
X443630D01*
Y2039D01*
D02*
G37*
%LPC*%
G36*
X22638Y689533D02*
X20549Y689369D01*
X18512Y688880D01*
X16576Y688078D01*
X14790Y686983D01*
X13196Y685623D01*
X11836Y684029D01*
X10741Y682243D01*
X9939Y680307D01*
X9450Y678270D01*
X9286Y676181D01*
X9450Y674092D01*
X9939Y672055D01*
X10741Y670119D01*
X11836Y668333D01*
X13196Y666740D01*
X14790Y665379D01*
X16576Y664284D01*
X18512Y663482D01*
X20549Y662993D01*
X22638Y662829D01*
X24726Y662993D01*
X26764Y663482D01*
X28700Y664284D01*
X30486Y665379D01*
X32079Y666740D01*
X33440Y668333D01*
X34535Y670119D01*
X35337Y672055D01*
X35826Y674092D01*
X35990Y676181D01*
X35826Y678270D01*
X35337Y680307D01*
X34535Y682243D01*
X33440Y684029D01*
X32079Y685623D01*
X30486Y686983D01*
X28700Y688078D01*
X26764Y688880D01*
X24726Y689369D01*
X22638Y689533D01*
D02*
G37*
G36*
X424665Y689672D02*
X422515Y689503D01*
X420417Y689000D01*
X418424Y688174D01*
X416585Y687047D01*
X414945Y685646D01*
X413544Y684006D01*
X412417Y682166D01*
X411591Y680173D01*
X411088Y678076D01*
X410918Y675925D01*
X411088Y673775D01*
X411591Y671677D01*
X412417Y669684D01*
X413544Y667845D01*
X414945Y666205D01*
X416585Y664804D01*
X418424Y663677D01*
X420417Y662851D01*
X422515Y662347D01*
X424665Y662178D01*
X426816Y662347D01*
X428913Y662851D01*
X430906Y663677D01*
X432746Y664804D01*
X434386Y666205D01*
X435787Y667845D01*
X436914Y669684D01*
X437740Y671677D01*
X438243Y673775D01*
X438412Y675925D01*
X438243Y678076D01*
X437740Y680173D01*
X436914Y682166D01*
X435787Y684006D01*
X434386Y685646D01*
X432746Y687047D01*
X430906Y688174D01*
X428913Y689000D01*
X426816Y689503D01*
X424665Y689672D01*
D02*
G37*
G36*
X196319D02*
X194168Y689503D01*
X192071Y689000D01*
X190078Y688174D01*
X188239Y687047D01*
X186598Y685646D01*
X185197Y684006D01*
X184070Y682166D01*
X183245Y680173D01*
X182741Y678076D01*
X182572Y675925D01*
X182741Y673775D01*
X183245Y671677D01*
X184070Y669684D01*
X185197Y667845D01*
X186598Y666205D01*
X188239Y664804D01*
X190078Y663677D01*
X192071Y662851D01*
X194168Y662347D01*
X196319Y662178D01*
X198469Y662347D01*
X200567Y662851D01*
X202560Y663677D01*
X204399Y664804D01*
X206040Y666205D01*
X207440Y667845D01*
X208568Y669684D01*
X209393Y671677D01*
X209897Y673775D01*
X210066Y675925D01*
X209897Y678076D01*
X209393Y680173D01*
X208568Y682166D01*
X207440Y684006D01*
X206040Y685646D01*
X204399Y687047D01*
X202560Y688174D01*
X200567Y689000D01*
X198469Y689503D01*
X196319Y689672D01*
D02*
G37*
G36*
X35433Y660500D02*
X33692Y660328D01*
X32018Y659820D01*
X30475Y658996D01*
X29122Y657886D01*
X28012Y656533D01*
X27188Y654990D01*
X26680Y653316D01*
X26508Y651575D01*
X26680Y649834D01*
X27188Y648159D01*
X28012Y646616D01*
X29122Y645264D01*
X30475Y644154D01*
X32018Y643329D01*
X33692Y642821D01*
X35433Y642650D01*
X37174Y642821D01*
X38849Y643329D01*
X40391Y644154D01*
X41744Y645264D01*
X41824Y645361D01*
X42252Y645770D01*
X42715Y646152D01*
X43185Y646484D01*
X43663Y646767D01*
X44151Y647005D01*
X44649Y647199D01*
X45162Y647349D01*
X45691Y647457D01*
X46239Y647522D01*
X46705Y647540D01*
X69477D01*
X80824Y636193D01*
X80633Y635731D01*
X46774D01*
X46306Y635750D01*
X45760Y635816D01*
X45236Y635925D01*
X44731Y636077D01*
X44241Y636273D01*
X43765Y636513D01*
X43300Y636799D01*
X42844Y637135D01*
X42397Y637521D01*
X41921Y637998D01*
X41898Y638013D01*
X41744Y638201D01*
X40391Y639311D01*
X38849Y640135D01*
X37174Y640643D01*
X35433Y640815D01*
X33692Y640643D01*
X32018Y640135D01*
X30475Y639311D01*
X29122Y638201D01*
X28012Y636848D01*
X27188Y635305D01*
X26680Y633631D01*
X26508Y631890D01*
X26680Y630149D01*
X27188Y628474D01*
X28012Y626931D01*
X29122Y625579D01*
X30475Y624469D01*
X32018Y623644D01*
X33692Y623136D01*
X35433Y622965D01*
X37174Y623136D01*
X38849Y623644D01*
X40391Y624469D01*
X41579Y625444D01*
X41595Y625453D01*
X41636Y625490D01*
X41744Y625579D01*
X41774Y625615D01*
X42103Y625914D01*
X42581Y626291D01*
X43065Y626619D01*
X43556Y626899D01*
X44054Y627135D01*
X44562Y627326D01*
X45082Y627474D01*
X45616Y627580D01*
X46167Y627645D01*
X46630Y627662D01*
X80163D01*
X157044Y550781D01*
X156853Y550319D01*
X149681D01*
Y548644D01*
X149208Y548484D01*
X148996Y548760D01*
X147860Y549631D01*
X146537Y550179D01*
X145118Y550366D01*
X143699Y550179D01*
X142376Y549631D01*
X141240Y548760D01*
X140395Y547657D01*
X140126Y547622D01*
X140110D01*
X139842Y547657D01*
X138996Y548760D01*
X137860Y549631D01*
X136538Y550179D01*
X135118Y550366D01*
X133699Y550179D01*
X132376Y549631D01*
X131240Y548760D01*
X130395Y547657D01*
X130126Y547622D01*
X130110D01*
X129842Y547657D01*
X128996Y548760D01*
X127860Y549631D01*
X126538Y550179D01*
X125118Y550366D01*
X123699Y550179D01*
X122376Y549631D01*
X121240Y548760D01*
X120395Y547657D01*
X120126Y547622D01*
X120110D01*
X119842Y547657D01*
X118996Y548760D01*
X117860Y549631D01*
X116903Y550028D01*
X107495Y559436D01*
X106659Y560077D01*
X105686Y560480D01*
X104642Y560617D01*
X104642Y560617D01*
X78118D01*
Y561035D01*
X70747D01*
Y562644D01*
X71196Y562865D01*
X71420Y562693D01*
X72503Y562245D01*
X73665Y562092D01*
X74828Y562245D01*
X75911Y562693D01*
X76841Y563407D01*
X77555Y564337D01*
X78004Y565420D01*
X78157Y566583D01*
X78004Y567745D01*
X77555Y568828D01*
X76841Y569759D01*
X75911Y570472D01*
X74828Y570921D01*
X74548Y570958D01*
X74387Y571431D01*
X75464Y572508D01*
X75911Y572693D01*
X76841Y573407D01*
X77555Y574337D01*
X78004Y575420D01*
X78157Y576583D01*
X78004Y577745D01*
X77555Y578828D01*
X76841Y579759D01*
X75911Y580472D01*
X74828Y580921D01*
X73665Y581074D01*
X72503Y580921D01*
X71420Y580472D01*
X70490Y579759D01*
X69776Y578828D01*
X69354Y577810D01*
X63860Y572316D01*
X63219Y571480D01*
X62816Y570507D01*
X62678Y569463D01*
X62678Y569463D01*
Y276418D01*
X62678Y276418D01*
X62816Y275374D01*
X63219Y274401D01*
X63860Y273566D01*
X99556Y237870D01*
X99489Y237190D01*
X99613Y235931D01*
X99980Y234721D01*
X100576Y233605D01*
X101379Y232628D01*
X101907Y232194D01*
Y216008D01*
X62799Y176900D01*
X55505D01*
Y163900D01*
X68505D01*
Y171195D01*
X108794Y211484D01*
X108889Y211608D01*
X109362Y211447D01*
Y211084D01*
X122205D01*
Y223926D01*
X109976D01*
Y232194D01*
X110503Y232628D01*
X111306Y233605D01*
X111902Y234721D01*
X112269Y235931D01*
X112393Y237190D01*
X112269Y238449D01*
X111902Y239659D01*
X111306Y240775D01*
X110503Y241753D01*
X109526Y242555D01*
X108410Y243151D01*
X107200Y243518D01*
X105941Y243642D01*
X105261Y243575D01*
X70747Y278089D01*
Y552130D01*
X78118D01*
Y552548D01*
X102971D01*
X105202Y550317D01*
X104970Y549842D01*
X103829Y549692D01*
X102628Y549194D01*
X101597Y548403D01*
X100806Y547372D01*
X100308Y546171D01*
X100204Y545382D01*
X105118D01*
Y544882D01*
X105618D01*
Y539968D01*
X106407Y540072D01*
X107608Y540569D01*
X108639Y541361D01*
X109431Y542392D01*
X109598Y542795D01*
X110098D01*
X110369Y542140D01*
X111240Y541004D01*
X112376Y540133D01*
X113699Y539585D01*
X115118Y539398D01*
X116537Y539585D01*
X117860Y540133D01*
X118996Y541004D01*
X119842Y542106D01*
X120110Y542142D01*
X120126D01*
X120395Y542106D01*
X121240Y541004D01*
X122376Y540133D01*
X123699Y539585D01*
X125118Y539398D01*
X126538Y539585D01*
X127860Y540133D01*
X128996Y541004D01*
X129842Y542106D01*
X130110Y542142D01*
X130126D01*
X130395Y542106D01*
X131240Y541004D01*
X132376Y540133D01*
X133699Y539585D01*
X135118Y539398D01*
X136538Y539585D01*
X137860Y540133D01*
X138996Y541004D01*
X139842Y542106D01*
X140110Y542142D01*
X140126D01*
X140395Y542106D01*
X141240Y541004D01*
X142376Y540133D01*
X143699Y539585D01*
X145118Y539398D01*
X146537Y539585D01*
X147860Y540133D01*
X148996Y541004D01*
X149208Y541280D01*
X149681Y541119D01*
Y539445D01*
X159021D01*
Y474974D01*
X159021Y474974D01*
X159158Y473930D01*
X159561Y472957D01*
X160202Y472121D01*
X230306Y402017D01*
X231142Y401376D01*
X232115Y400973D01*
X233159Y400836D01*
X280034D01*
X290561Y390308D01*
X290401Y389834D01*
X290047Y389788D01*
X288935Y389327D01*
X287980Y388595D01*
X287247Y387640D01*
X286787Y386528D01*
X286630Y385335D01*
X286747Y384446D01*
X286088Y383787D01*
X285664Y384070D01*
X285693Y384141D01*
X285851Y385335D01*
X285693Y386528D01*
X285233Y387640D01*
X284500Y388595D01*
X283545Y389327D01*
X282433Y389788D01*
X281240Y389945D01*
X280047Y389788D01*
X278935Y389327D01*
X277980Y388595D01*
X277248Y387640D01*
X276787Y386528D01*
X276630Y385335D01*
X276787Y384141D01*
X277248Y383030D01*
X277980Y382075D01*
X278428Y381731D01*
X278463Y381112D01*
X274251Y376900D01*
X273789Y377092D01*
Y381529D01*
X274500Y382075D01*
X275233Y383030D01*
X275693Y384141D01*
X275851Y385335D01*
X275693Y386528D01*
X275233Y387640D01*
X274500Y388595D01*
X273545Y389327D01*
X272433Y389788D01*
X271240Y389945D01*
X270047Y389788D01*
X268935Y389327D01*
X267980Y388595D01*
X267248Y387640D01*
X266787Y386528D01*
X266630Y385335D01*
X266787Y384141D01*
X267248Y383030D01*
X267980Y382075D01*
X268691Y381529D01*
Y376290D01*
X254251Y361850D01*
X253789Y362041D01*
Y381529D01*
X254500Y382075D01*
X255233Y383030D01*
X255693Y384141D01*
X255851Y385335D01*
X255693Y386528D01*
X255233Y387640D01*
X254500Y388595D01*
X253545Y389327D01*
X252433Y389788D01*
X251240Y389945D01*
X250047Y389788D01*
X248935Y389327D01*
X247980Y388595D01*
X247248Y387640D01*
X246787Y386528D01*
X246630Y385335D01*
X246787Y384141D01*
X247248Y383030D01*
X247980Y382075D01*
X248691Y381529D01*
Y361240D01*
X164358Y276907D01*
X163805Y276080D01*
X163611Y275104D01*
Y221360D01*
X163805Y220385D01*
X164358Y219558D01*
X261331Y122585D01*
X261048Y122161D01*
X260469Y122401D01*
X259424Y122538D01*
X259045Y122488D01*
X155789Y225744D01*
Y316279D01*
X220352Y380841D01*
X221240Y380724D01*
X222433Y380881D01*
X223545Y381342D01*
X224500Y382075D01*
X225233Y383030D01*
X225693Y384141D01*
X225851Y385335D01*
X225693Y386528D01*
X225233Y387640D01*
X224500Y388595D01*
X223545Y389327D01*
X222433Y389788D01*
X221240Y389945D01*
X220047Y389788D01*
X218935Y389327D01*
X217980Y388595D01*
X217248Y387640D01*
X216787Y386528D01*
X216630Y385335D01*
X216747Y384446D01*
X216088Y383787D01*
X215664Y384070D01*
X215693Y384141D01*
X215850Y385335D01*
X215693Y386528D01*
X215233Y387640D01*
X214500Y388595D01*
X213545Y389327D01*
X212433Y389788D01*
X211240Y389945D01*
X210047Y389788D01*
X208935Y389327D01*
X207980Y388595D01*
X207247Y387640D01*
X206787Y386528D01*
X206630Y385335D01*
X206787Y384141D01*
X207247Y383030D01*
X207980Y382075D01*
X208935Y381342D01*
X210047Y380881D01*
X211240Y380724D01*
X212433Y380881D01*
X212505Y380911D01*
X212788Y380487D01*
X151438Y319137D01*
X150885Y318310D01*
X150691Y317335D01*
Y224688D01*
X150885Y223713D01*
X151438Y222886D01*
X255440Y118884D01*
X255390Y118504D01*
X255527Y117460D01*
X255930Y116487D01*
X256572Y115651D01*
X257407Y115010D01*
X258380Y114607D01*
X259424Y114469D01*
X260469Y114607D01*
X261442Y115010D01*
X262277Y115651D01*
X262918Y116487D01*
X263321Y117460D01*
X263459Y118504D01*
X263321Y119548D01*
X263082Y120127D01*
X263506Y120410D01*
X267414Y116501D01*
X268241Y115949D01*
X269217Y115755D01*
X295509D01*
X295742Y115451D01*
X296577Y114810D01*
X297550Y114407D01*
X298594Y114269D01*
X299639Y114407D01*
X300612Y114810D01*
X301447Y115451D01*
X302088Y116287D01*
X302492Y117260D01*
X302629Y118304D01*
X302492Y119348D01*
X302088Y120321D01*
X301447Y121157D01*
X300612Y121798D01*
X299639Y122201D01*
X298594Y122338D01*
X297550Y122201D01*
X296577Y121798D01*
X295742Y121157D01*
X295509Y120853D01*
X270273D01*
X252357Y138769D01*
X252548Y139231D01*
X313433D01*
X333980Y118684D01*
X333930Y118304D01*
X334068Y117260D01*
X334471Y116287D01*
X335112Y115451D01*
X335947Y114810D01*
X336920Y114407D01*
X337965Y114269D01*
X339009Y114407D01*
X339982Y114810D01*
X340817Y115451D01*
X341459Y116287D01*
X341862Y117260D01*
X341999Y118304D01*
X341862Y119348D01*
X341459Y120321D01*
X340817Y121157D01*
X339982Y121798D01*
X339009Y122201D01*
X337965Y122338D01*
X337585Y122289D01*
X317605Y142269D01*
X317796Y142730D01*
X349303D01*
X373350Y118684D01*
X373300Y118304D01*
X373438Y117260D01*
X373841Y116287D01*
X374482Y115451D01*
X375317Y114810D01*
X376290Y114407D01*
X377335Y114269D01*
X378379Y114407D01*
X379352Y114810D01*
X380188Y115451D01*
X380829Y116287D01*
X381232Y117260D01*
X381369Y118304D01*
X381232Y119348D01*
X380829Y120321D01*
X380188Y121157D01*
X379352Y121798D01*
X378379Y122201D01*
X377335Y122338D01*
X376955Y122289D01*
X353475Y145769D01*
X353666Y146230D01*
X385173D01*
X412720Y118684D01*
X412670Y118304D01*
X412808Y117260D01*
X413211Y116287D01*
X413852Y115451D01*
X414687Y114810D01*
X415660Y114407D01*
X416705Y114269D01*
X417749Y114407D01*
X418722Y114810D01*
X419558Y115451D01*
X420199Y116287D01*
X420602Y117260D01*
X420739Y118304D01*
X420602Y119348D01*
X420199Y120321D01*
X419558Y121157D01*
X418722Y121798D01*
X417749Y122201D01*
X416705Y122338D01*
X416325Y122289D01*
X388032Y150582D01*
X387205Y151135D01*
X386229Y151329D01*
X264000D01*
Y160653D01*
X262325D01*
X262165Y161127D01*
X262441Y161339D01*
X263312Y162475D01*
X263860Y163797D01*
X264047Y165217D01*
X263860Y166636D01*
X263312Y167958D01*
X262441Y169094D01*
X261338Y169940D01*
X261303Y170208D01*
Y170225D01*
X261338Y170493D01*
X262441Y171339D01*
X263312Y172475D01*
X263860Y173797D01*
X264047Y175216D01*
X263860Y176636D01*
X263312Y177959D01*
X262441Y179094D01*
X261338Y179940D01*
X261303Y180208D01*
Y180225D01*
X261338Y180493D01*
X262441Y181339D01*
X263312Y182475D01*
X263860Y183797D01*
X264047Y185216D01*
X263860Y186636D01*
X263312Y187959D01*
X262441Y189094D01*
X261338Y189940D01*
X261303Y190208D01*
Y190225D01*
X261338Y190493D01*
X262236Y191182D01*
X291122D01*
X291122Y191182D01*
X292166Y191320D01*
X293139Y191723D01*
X293975Y192364D01*
X382535Y280923D01*
X383545Y281342D01*
X384500Y282075D01*
X385233Y283030D01*
X385693Y284141D01*
X385851Y285335D01*
X385693Y286528D01*
X385233Y287640D01*
X385016Y287923D01*
X385237Y288371D01*
X395920D01*
X404313Y279978D01*
X404597Y279678D01*
X404967Y279238D01*
X405316Y278774D01*
X405633Y278300D01*
X406245Y277204D01*
X406494Y276666D01*
X406972Y275403D01*
X407176Y274730D01*
X407243Y274605D01*
X407503Y273750D01*
X408327Y272207D01*
X409437Y270854D01*
X410790Y269745D01*
X412333Y268920D01*
X414007Y268412D01*
X415748Y268240D01*
X417489Y268412D01*
X419163Y268920D01*
X420706Y269745D01*
X422059Y270854D01*
X423169Y272207D01*
X423993Y273750D01*
X424501Y275424D01*
X424673Y277165D01*
X424501Y278906D01*
X423993Y280581D01*
X423169Y282124D01*
X422059Y283476D01*
X420706Y284586D01*
X419163Y285411D01*
X417489Y285919D01*
X415748Y286090D01*
X414007Y285919D01*
X413356Y285721D01*
X413243Y285716D01*
X412663Y285571D01*
X412183Y285501D01*
X411730Y285486D01*
X411298Y285522D01*
X410880Y285608D01*
X410468Y285745D01*
X410057Y285938D01*
X409642Y286191D01*
X409221Y286511D01*
X408861Y286841D01*
X400444Y295258D01*
X399608Y295900D01*
X398635Y296303D01*
X397591Y296440D01*
X397591Y296440D01*
X368758D01*
X368551Y296940D01*
X371416Y299804D01*
X404440D01*
X404629Y299604D01*
X404996Y299165D01*
X405340Y298700D01*
X405661Y298210D01*
X405960Y297693D01*
X406235Y297148D01*
X406480Y296592D01*
X406928Y295324D01*
X407114Y294648D01*
X407167Y294542D01*
X407503Y293435D01*
X408327Y291892D01*
X409437Y290540D01*
X410790Y289430D01*
X412333Y288605D01*
X414007Y288097D01*
X415748Y287926D01*
X417489Y288097D01*
X419163Y288605D01*
X420706Y289430D01*
X422059Y290540D01*
X423169Y291892D01*
X423993Y293435D01*
X424501Y295109D01*
X424673Y296850D01*
X424501Y298592D01*
X423993Y300266D01*
X423169Y301809D01*
X422059Y303161D01*
X420706Y304271D01*
X419163Y305096D01*
X417489Y305604D01*
X415748Y305775D01*
X414007Y305604D01*
X413557Y305467D01*
X413475Y305466D01*
X412882Y305333D01*
X412387Y305272D01*
X411921Y305265D01*
X411477Y305308D01*
X411049Y305399D01*
X410631Y305541D01*
X410217Y305736D01*
X409802Y305990D01*
X409385Y306306D01*
X409031Y306631D01*
X408970Y306692D01*
X408937Y306717D01*
X408919Y306734D01*
X408902Y306744D01*
X408135Y307333D01*
X407162Y307736D01*
X406117Y307874D01*
X406117Y307873D01*
X386318D01*
X386127Y308335D01*
X401009Y323217D01*
X401009Y323217D01*
X401650Y324052D01*
X402053Y325025D01*
X402190Y326070D01*
X402190Y326070D01*
Y341093D01*
X412001Y350904D01*
X412341Y351220D01*
X412776Y351563D01*
X413229Y351866D01*
X413701Y352128D01*
X414196Y352352D01*
X414714Y352539D01*
X415260Y352687D01*
X415834Y352798D01*
X416438Y352869D01*
X416882Y352891D01*
X416929Y352886D01*
X417068Y352900D01*
X417123Y352903D01*
X417141Y352907D01*
X418670Y353058D01*
X420344Y353566D01*
X421887Y354390D01*
X423240Y355500D01*
X424350Y356853D01*
X425175Y358396D01*
X425682Y360070D01*
X425854Y361811D01*
X425682Y363552D01*
X425175Y365226D01*
X424350Y366769D01*
X423240Y368122D01*
X421887Y369232D01*
X420344Y370057D01*
X418670Y370564D01*
X416929Y370736D01*
X415188Y370564D01*
X413514Y370057D01*
X411971Y369232D01*
X410618Y368122D01*
X409508Y366769D01*
X408684Y365226D01*
X408176Y363552D01*
X408004Y361811D01*
X408028Y361570D01*
X408023Y361543D01*
X408023Y360869D01*
X407980Y360279D01*
X407895Y359720D01*
X407769Y359188D01*
X407601Y358682D01*
X407394Y358198D01*
X407144Y357733D01*
X406851Y357285D01*
X406512Y356853D01*
X406193Y356508D01*
X395303Y345617D01*
X394662Y344782D01*
X394259Y343809D01*
X394121Y342765D01*
X394121Y342764D01*
Y327741D01*
X389705Y323324D01*
X389571Y323370D01*
X389210Y323537D01*
X388829Y324458D01*
X388188Y325294D01*
X387352Y325935D01*
X386379Y326338D01*
X385335Y326476D01*
X268794D01*
X268587Y326975D01*
X279703Y338091D01*
X385335D01*
X386379Y338229D01*
X387352Y338632D01*
X388188Y339273D01*
X388829Y340109D01*
X389232Y341082D01*
X389369Y342126D01*
X389232Y343170D01*
X388829Y344143D01*
X388188Y344979D01*
X387352Y345620D01*
X386379Y346023D01*
X385335Y346161D01*
X278032D01*
X278031Y346161D01*
X276987Y346023D01*
X276014Y345620D01*
X275179Y344979D01*
X224977Y294777D01*
X224477Y294984D01*
Y303543D01*
X224339Y304588D01*
X223936Y305561D01*
X223295Y306396D01*
X222459Y307037D01*
X221486Y307440D01*
X220442Y307578D01*
X219398Y307440D01*
X218425Y307037D01*
X217589Y306396D01*
X216948Y305561D01*
X216545Y304588D01*
X216408Y303543D01*
Y296208D01*
X209946Y289746D01*
X208935Y289327D01*
X207980Y288595D01*
X207247Y287640D01*
X206787Y286528D01*
X206630Y285335D01*
X206787Y284141D01*
X207247Y283030D01*
X207980Y282075D01*
X208935Y281342D01*
X210047Y280881D01*
X211240Y280724D01*
X212433Y280881D01*
X213545Y281342D01*
X214500Y282075D01*
X215233Y283030D01*
X215651Y284040D01*
X216267Y284656D01*
X216740Y284495D01*
X216787Y284141D01*
X217248Y283030D01*
X217980Y282075D01*
X218935Y281342D01*
X220047Y280881D01*
X221240Y280724D01*
X222433Y280881D01*
X223545Y281342D01*
X224500Y282075D01*
X225233Y283030D01*
X225652Y284040D01*
X226267Y284656D01*
X226740Y284495D01*
X226787Y284141D01*
X227248Y283030D01*
X227980Y282075D01*
X228935Y281342D01*
X230047Y280881D01*
X231240Y280724D01*
X232433Y280881D01*
X233545Y281342D01*
X234500Y282075D01*
X235233Y283030D01*
X235651Y284040D01*
X236267Y284656D01*
X236740Y284495D01*
X236787Y284141D01*
X237247Y283030D01*
X237980Y282075D01*
X238935Y281342D01*
X240047Y280881D01*
X240401Y280835D01*
X240561Y280361D01*
X232453Y272253D01*
X231812Y271417D01*
X231409Y270444D01*
X231271Y269400D01*
X231271Y269400D01*
Y264541D01*
X210735Y244005D01*
X209891Y243655D01*
X208951Y242934D01*
X208230Y241994D01*
X207776Y240899D01*
X207735Y240590D01*
X207262Y240429D01*
X206370Y241321D01*
X206091Y241994D01*
X205370Y242934D01*
X204430Y243655D01*
X203335Y244109D01*
X202160Y244263D01*
X200986Y244109D01*
X199891Y243655D01*
X198951Y242934D01*
X198230Y241994D01*
X197776Y240899D01*
X197622Y239724D01*
X197776Y238550D01*
X198230Y237455D01*
X198951Y236515D01*
X199891Y235794D01*
X200907Y235373D01*
X206408Y229872D01*
X206408Y229872D01*
X207244Y229230D01*
X208217Y228827D01*
X209261Y228690D01*
X248630D01*
X248630Y228690D01*
X249674Y228827D01*
X250647Y229230D01*
X251483Y229872D01*
X302535Y280923D01*
X303545Y281342D01*
X304500Y282075D01*
X305233Y283030D01*
X305693Y284141D01*
X305851Y285335D01*
X305693Y286528D01*
X305233Y287640D01*
X304500Y288595D01*
X303545Y289327D01*
X302433Y289788D01*
X301240Y289945D01*
X300047Y289788D01*
X298935Y289327D01*
X297980Y288595D01*
X297248Y287640D01*
X296829Y286629D01*
X296213Y286014D01*
X295740Y286174D01*
X295693Y286528D01*
X295233Y287640D01*
X294500Y288595D01*
X293545Y289327D01*
X292433Y289788D01*
X291240Y289945D01*
X290047Y289788D01*
X288935Y289327D01*
X287980Y288595D01*
X287247Y287640D01*
X286787Y286528D01*
X286630Y285335D01*
X286787Y284141D01*
X287247Y283030D01*
X287980Y282075D01*
X288935Y281342D01*
X290047Y280881D01*
X290401Y280835D01*
X290561Y280361D01*
X246959Y236759D01*
X216122D01*
X215901Y237207D01*
X216091Y237455D01*
X216441Y238299D01*
X238158Y260017D01*
X238159Y260017D01*
X238800Y260852D01*
X239203Y261825D01*
X239340Y262870D01*
X239340Y262870D01*
Y267729D01*
X252535Y280923D01*
X253545Y281342D01*
X254500Y282075D01*
X255233Y283030D01*
X255693Y284141D01*
X255851Y285335D01*
X255693Y286528D01*
X255233Y287640D01*
X254500Y288595D01*
X253545Y289327D01*
X252433Y289788D01*
X251240Y289945D01*
X250047Y289788D01*
X248935Y289327D01*
X247980Y288595D01*
X247248Y287640D01*
X246829Y286629D01*
X246213Y286014D01*
X245740Y286174D01*
X245693Y286528D01*
X245233Y287640D01*
X244500Y288595D01*
X243545Y289327D01*
X242433Y289788D01*
X242080Y289834D01*
X241919Y290308D01*
X270018Y318406D01*
X384134D01*
X384325Y317945D01*
X380754Y314373D01*
X366245D01*
X366244Y314373D01*
X365200Y314236D01*
X364227Y313833D01*
X363392Y313192D01*
X363392Y313192D01*
X339946Y289746D01*
X338935Y289327D01*
X337980Y288595D01*
X337247Y287640D01*
X336787Y286528D01*
X336630Y285335D01*
X336787Y284141D01*
X337247Y283030D01*
X337980Y282075D01*
X338935Y281342D01*
X340047Y280881D01*
X341240Y280724D01*
X342433Y280881D01*
X343545Y281342D01*
X344500Y282075D01*
X345233Y283030D01*
X345652Y284040D01*
X346267Y284656D01*
X346740Y284495D01*
X346787Y284141D01*
X347248Y283030D01*
X347980Y282075D01*
X348935Y281342D01*
X350047Y280881D01*
X351240Y280724D01*
X352433Y280881D01*
X353545Y281342D01*
X354500Y282075D01*
X355233Y283030D01*
X355651Y284040D01*
X356267Y284656D01*
X356740Y284495D01*
X356787Y284141D01*
X357247Y283030D01*
X357980Y282075D01*
X358935Y281342D01*
X360047Y280881D01*
X361240Y280724D01*
X362433Y280881D01*
X363545Y281342D01*
X364500Y282075D01*
X365233Y283030D01*
X365651Y284040D01*
X366267Y284655D01*
X366740Y284495D01*
X366787Y284141D01*
X367248Y283030D01*
X367980Y282075D01*
X368935Y281342D01*
X370047Y280881D01*
X370401Y280835D01*
X370561Y280361D01*
X289451Y199251D01*
X262236D01*
X261305Y199966D01*
X260650Y200237D01*
Y200737D01*
X261053Y200904D01*
X262084Y201695D01*
X262876Y202727D01*
X263373Y203928D01*
X263477Y204716D01*
X258563D01*
Y205217D01*
D01*
Y204716D01*
X253649D01*
X253753Y203928D01*
X254251Y202727D01*
X255042Y201695D01*
X256073Y200904D01*
X256476Y200737D01*
Y200237D01*
X255821Y199966D01*
X254685Y199094D01*
X253814Y197959D01*
X253266Y196636D01*
X253079Y195217D01*
X253266Y193797D01*
X253814Y192475D01*
X254685Y191339D01*
X255787Y190493D01*
X255823Y190225D01*
Y190208D01*
X255787Y189940D01*
X254685Y189094D01*
X253814Y187959D01*
X253266Y186636D01*
X253079Y185216D01*
X253266Y183797D01*
X253814Y182475D01*
X254685Y181339D01*
X255787Y180493D01*
X255823Y180225D01*
Y180208D01*
X255787Y179940D01*
X254685Y179094D01*
X253814Y177959D01*
X253266Y176636D01*
X253079Y175216D01*
X253266Y173797D01*
X253814Y172475D01*
X254685Y171339D01*
X255787Y170493D01*
X255823Y170225D01*
Y170208D01*
X255787Y169940D01*
X254685Y169094D01*
X253814Y167958D01*
X253266Y166636D01*
X253079Y165217D01*
X253266Y163797D01*
X253814Y162475D01*
X254685Y161339D01*
X254961Y161127D01*
X254801Y160653D01*
X253126D01*
Y153502D01*
X252664Y153311D01*
X179209Y226765D01*
Y235751D01*
X179658Y235973D01*
X179891Y235794D01*
X180986Y235340D01*
X182160Y235186D01*
X183335Y235340D01*
X184430Y235794D01*
X185370Y236515D01*
X186091Y237455D01*
X186545Y238550D01*
X186699Y239724D01*
X186545Y240899D01*
X186091Y241994D01*
X185370Y242934D01*
X184430Y243655D01*
X183335Y244109D01*
X182160Y244263D01*
X180986Y244109D01*
X179891Y243655D01*
X179658Y243476D01*
X179209Y243697D01*
Y269699D01*
X196207Y286697D01*
X196669Y286506D01*
Y280764D01*
X205811D01*
Y289906D01*
X200069D01*
X199878Y290368D01*
X290352Y380841D01*
X291240Y380724D01*
X292433Y380881D01*
X293545Y381342D01*
X294500Y382075D01*
X295233Y383030D01*
X295693Y384141D01*
X295740Y384495D01*
X296213Y384656D01*
X296829Y384040D01*
X297248Y383030D01*
X297980Y382075D01*
X298935Y381342D01*
X300047Y380881D01*
X301240Y380724D01*
X302433Y380881D01*
X303545Y381342D01*
X304500Y382075D01*
X305233Y383030D01*
X305693Y384141D01*
X305740Y384495D01*
X306213Y384656D01*
X306829Y384040D01*
X307247Y383030D01*
X307980Y382075D01*
X308935Y381342D01*
X310047Y380881D01*
X311240Y380724D01*
X312433Y380881D01*
X313545Y381342D01*
X314500Y382075D01*
X315233Y383030D01*
X315693Y384141D01*
X315740Y384495D01*
X316213Y384656D01*
X316829Y384040D01*
X317248Y383030D01*
X317980Y382075D01*
X318935Y381342D01*
X320047Y380881D01*
X321240Y380724D01*
X322433Y380881D01*
X323545Y381342D01*
X324500Y382075D01*
X325233Y383030D01*
X325693Y384141D01*
X325851Y385335D01*
X325693Y386528D01*
X325233Y387640D01*
X324500Y388595D01*
X323545Y389327D01*
X322534Y389746D01*
X291558Y420723D01*
X290722Y421364D01*
X289749Y421767D01*
X288705Y421905D01*
X288705Y421905D01*
X275586D01*
X275395Y422367D01*
X290446Y437418D01*
X392406D01*
X393450Y437555D01*
X394424Y437958D01*
X395259Y438599D01*
X395900Y439435D01*
X396303Y440408D01*
X396441Y441452D01*
X396303Y442496D01*
X395900Y443469D01*
X395259Y444305D01*
X394424Y444946D01*
X393450Y445349D01*
X392406Y445486D01*
X288775D01*
X287731Y445349D01*
X286757Y444946D01*
X285922Y444305D01*
X285922Y444305D01*
X268840Y427223D01*
X268199Y426387D01*
X267796Y425414D01*
X267658Y424370D01*
X267796Y423326D01*
X268178Y422405D01*
X268040Y422031D01*
X267978Y421905D01*
X240215D01*
X192868Y469251D01*
X193113Y469688D01*
X194168Y469434D01*
X196319Y469265D01*
X198469Y469434D01*
X200567Y469938D01*
X202560Y470763D01*
X204399Y471890D01*
X206040Y473291D01*
X207440Y474932D01*
X208568Y476771D01*
X209393Y478764D01*
X209897Y480861D01*
X210066Y483012D01*
X209897Y485162D01*
X209393Y487260D01*
X208568Y489253D01*
X207440Y491092D01*
X206040Y492733D01*
X204399Y494134D01*
X202560Y495261D01*
X200567Y496086D01*
X198469Y496590D01*
X196319Y496759D01*
X194168Y496590D01*
X192071Y496086D01*
X190078Y495261D01*
X188239Y494134D01*
X186598Y492733D01*
X185197Y491092D01*
X184160Y489400D01*
X183660Y489541D01*
Y586268D01*
X183523Y587312D01*
X183120Y588285D01*
X182479Y589121D01*
X181643Y589762D01*
X180670Y590165D01*
X179626Y590302D01*
X178582Y590165D01*
X177609Y589762D01*
X176773Y589121D01*
X176132Y588285D01*
X175729Y587312D01*
X175591Y586268D01*
Y477989D01*
X175129Y477798D01*
X173590Y479338D01*
Y553168D01*
X173590Y553168D01*
X173452Y554212D01*
X173049Y555185D01*
X172408Y556021D01*
X172408Y556021D01*
X74001Y654428D01*
X73166Y655069D01*
X72193Y655472D01*
X71149Y655609D01*
X71148Y655609D01*
X46705D01*
X46239Y655627D01*
X45691Y655693D01*
X45162Y655800D01*
X44649Y655951D01*
X44151Y656144D01*
X43663Y656382D01*
X43185Y656666D01*
X42715Y656998D01*
X42252Y657380D01*
X41824Y657789D01*
X41744Y657886D01*
X40391Y658996D01*
X38849Y659820D01*
X37174Y660328D01*
X35433Y660500D01*
D02*
G37*
G36*
X35933Y614326D02*
Y606453D01*
X43806D01*
X43694Y607596D01*
X43214Y609176D01*
X42436Y610632D01*
X41389Y611908D01*
X40112Y612956D01*
X38656Y613734D01*
X37076Y614213D01*
X35933Y614326D01*
D02*
G37*
G36*
X34933D02*
X33790Y614213D01*
X32210Y613734D01*
X30754Y612956D01*
X29478Y611908D01*
X28430Y610632D01*
X27652Y609176D01*
X27172Y607596D01*
X27060Y606453D01*
X34933D01*
Y614326D01*
D02*
G37*
G36*
Y605453D02*
X27060D01*
X27172Y604310D01*
X27652Y602730D01*
X28430Y601274D01*
X29478Y599997D01*
X30754Y598950D01*
X32210Y598172D01*
X33790Y597692D01*
X34933Y597580D01*
Y605453D01*
D02*
G37*
G36*
X43806D02*
X35933D01*
Y597580D01*
X37076Y597692D01*
X38656Y598172D01*
X40112Y598950D01*
X41389Y599997D01*
X42436Y601274D01*
X43214Y602730D01*
X43694Y604310D01*
X43806Y605453D01*
D02*
G37*
G36*
X35433Y595193D02*
X33692Y595021D01*
X32018Y594513D01*
X30475Y593688D01*
X29122Y592579D01*
X28012Y591226D01*
X27188Y589683D01*
X26680Y588009D01*
X26508Y586268D01*
X26680Y584527D01*
X27188Y582852D01*
X28012Y581309D01*
X29122Y579957D01*
X30475Y578847D01*
X32018Y578022D01*
X33692Y577514D01*
X35433Y577343D01*
X37174Y577514D01*
X38849Y578022D01*
X40391Y578847D01*
X41744Y579957D01*
X42854Y581309D01*
X43679Y582852D01*
X44186Y584527D01*
X44358Y586268D01*
X44186Y588009D01*
X43679Y589683D01*
X42854Y591226D01*
X41744Y592579D01*
X40391Y593688D01*
X38849Y594513D01*
X37174Y595021D01*
X35433Y595193D01*
D02*
G37*
G36*
Y575508D02*
X33692Y575336D01*
X32018Y574828D01*
X30475Y574004D01*
X29122Y572894D01*
X28012Y571541D01*
X27188Y569998D01*
X26680Y568324D01*
X26508Y566583D01*
X26680Y564842D01*
X27188Y563167D01*
X28012Y561624D01*
X29122Y560272D01*
X30475Y559162D01*
X32018Y558337D01*
X33692Y557829D01*
X35433Y557658D01*
X37174Y557829D01*
X38849Y558337D01*
X40391Y559162D01*
X41744Y560272D01*
X42854Y561624D01*
X43679Y563167D01*
X44186Y564842D01*
X44358Y566583D01*
X44186Y568324D01*
X43679Y569998D01*
X42854Y571541D01*
X41744Y572894D01*
X40391Y574004D01*
X38849Y574828D01*
X37174Y575336D01*
X35433Y575508D01*
D02*
G37*
G36*
X104618Y544382D02*
X100204D01*
X100308Y543593D01*
X100806Y542392D01*
X101597Y541361D01*
X102628Y540569D01*
X103829Y540072D01*
X104618Y539968D01*
Y544382D01*
D02*
G37*
G36*
X33500Y545317D02*
X31759Y545145D01*
X30085Y544637D01*
X28542Y543813D01*
X27189Y542703D01*
X26079Y541350D01*
X25254Y539807D01*
X24747Y538133D01*
X24575Y536392D01*
X24747Y534651D01*
X25254Y532976D01*
X26079Y531433D01*
X27189Y530081D01*
X28542Y528971D01*
X30085Y528146D01*
X31759Y527638D01*
X33500Y527467D01*
X35241Y527638D01*
X36915Y528146D01*
X38458Y528971D01*
X39811Y530081D01*
X40921Y531433D01*
X41745Y532976D01*
X42253Y534651D01*
X42425Y536392D01*
X42253Y538133D01*
X41745Y539807D01*
X40921Y541350D01*
X39811Y542703D01*
X38458Y543813D01*
X36915Y544637D01*
X35241Y545145D01*
X33500Y545317D01*
D02*
G37*
G36*
X201476Y516657D02*
X200302Y516502D01*
X199207Y516049D01*
X198267Y515328D01*
X197546Y514388D01*
X197092Y513293D01*
X196938Y512118D01*
X197092Y510944D01*
X197546Y509849D01*
X198267Y508909D01*
X199207Y508187D01*
X200302Y507734D01*
X201476Y507579D01*
X202651Y507734D01*
X203746Y508187D01*
X204686Y508909D01*
X205407Y509849D01*
X205860Y510944D01*
X206015Y512118D01*
X205860Y513293D01*
X205407Y514388D01*
X204686Y515328D01*
X203746Y516049D01*
X202651Y516502D01*
X201476Y516657D01*
D02*
G37*
G36*
X191476D02*
X190302Y516502D01*
X189207Y516049D01*
X188267Y515328D01*
X187546Y514388D01*
X187092Y513293D01*
X186937Y512118D01*
X187092Y510944D01*
X187546Y509849D01*
X188267Y508909D01*
X189207Y508187D01*
X190302Y507734D01*
X191476Y507579D01*
X192651Y507734D01*
X193746Y508187D01*
X194686Y508909D01*
X195407Y509849D01*
X195861Y510944D01*
X196015Y512118D01*
X195861Y513293D01*
X195407Y514388D01*
X194686Y515328D01*
X193746Y516049D01*
X192651Y516502D01*
X191476Y516657D01*
D02*
G37*
G36*
X201476Y506657D02*
X200302Y506502D01*
X199207Y506049D01*
X198267Y505328D01*
X197546Y504388D01*
X197092Y503293D01*
X196938Y502118D01*
X197092Y500944D01*
X197546Y499849D01*
X198267Y498909D01*
X199207Y498187D01*
X200302Y497734D01*
X201476Y497579D01*
X202651Y497734D01*
X203746Y498187D01*
X204686Y498909D01*
X205407Y499849D01*
X205860Y500944D01*
X206015Y502118D01*
X205860Y503293D01*
X205407Y504388D01*
X204686Y505328D01*
X203746Y506049D01*
X202651Y506502D01*
X201476Y506657D01*
D02*
G37*
G36*
X191476D02*
X190302Y506502D01*
X189207Y506049D01*
X188267Y505328D01*
X187546Y504388D01*
X187092Y503293D01*
X186937Y502118D01*
X187092Y500944D01*
X187546Y499849D01*
X188267Y498909D01*
X189207Y498187D01*
X190302Y497734D01*
X191476Y497579D01*
X192651Y497734D01*
X193746Y498187D01*
X194686Y498909D01*
X195407Y499849D01*
X195861Y500944D01*
X196015Y502118D01*
X195861Y503293D01*
X195407Y504388D01*
X194686Y505328D01*
X193746Y506049D01*
X192651Y506502D01*
X191476Y506657D01*
D02*
G37*
G36*
X365992Y491981D02*
Y488512D01*
X369461D01*
X369389Y489056D01*
X368986Y490029D01*
X368345Y490865D01*
X367509Y491506D01*
X366536Y491909D01*
X365992Y491981D01*
D02*
G37*
G36*
X364992D02*
X364448Y491909D01*
X363475Y491506D01*
X362639Y490865D01*
X361998Y490029D01*
X361595Y489056D01*
X361523Y488512D01*
X364992D01*
Y491981D01*
D02*
G37*
G36*
X33500Y525632D02*
X31759Y525460D01*
X30085Y524952D01*
X28542Y524127D01*
X27189Y523018D01*
X26079Y521665D01*
X25254Y520122D01*
X24747Y518448D01*
X24632Y517280D01*
X21930Y514373D01*
X9161Y501605D01*
X8349Y500615D01*
X7745Y499486D01*
X7374Y498260D01*
X7248Y496986D01*
Y477337D01*
Y437967D01*
Y387795D01*
Y348425D01*
Y309055D01*
Y269685D01*
X7248Y75787D01*
X7374Y74513D01*
X7745Y73288D01*
X8349Y72159D01*
X9161Y71169D01*
X34413Y45917D01*
Y41537D01*
X34389Y38933D01*
X34341Y37843D01*
X33524Y36848D01*
X32699Y35305D01*
X32192Y33631D01*
X32020Y31890D01*
X32192Y30149D01*
X32699Y28474D01*
X33524Y26931D01*
X34634Y25579D01*
X35987Y24469D01*
X37530Y23644D01*
X39204Y23136D01*
X40945Y22965D01*
X42686Y23136D01*
X44360Y23644D01*
X45903Y24469D01*
X47256Y25579D01*
X48366Y26931D01*
X49190Y28474D01*
X49698Y30149D01*
X49870Y31890D01*
X49698Y33631D01*
X49190Y35305D01*
X48366Y36848D01*
X47621Y37756D01*
X47476Y41721D01*
Y48622D01*
X47351Y49896D01*
X46979Y51121D01*
X46376Y52251D01*
X45563Y53241D01*
X20311Y78493D01*
X20311Y263154D01*
X27458D01*
X28542Y262264D01*
X30085Y261440D01*
X31759Y260932D01*
X33500Y260760D01*
X35241Y260932D01*
X36915Y261440D01*
X38458Y262264D01*
X39811Y263374D01*
X40921Y264727D01*
X41745Y266270D01*
X42253Y267944D01*
X42425Y269685D01*
X42253Y271426D01*
X41745Y273100D01*
X40921Y274643D01*
X39811Y275996D01*
X38458Y277106D01*
X36915Y277930D01*
X35241Y278438D01*
X33500Y278610D01*
X31759Y278438D01*
X30085Y277930D01*
X28542Y277106D01*
X27458Y276217D01*
X20311D01*
Y302524D01*
X23853D01*
X26457Y302499D01*
X27546Y302451D01*
X28542Y301634D01*
X30085Y300810D01*
X31759Y300302D01*
X33500Y300130D01*
X35241Y300302D01*
X36915Y300810D01*
X38458Y301634D01*
X39811Y302744D01*
X40921Y304097D01*
X41745Y305640D01*
X42253Y307314D01*
X42425Y309055D01*
X42253Y310796D01*
X41745Y312471D01*
X40921Y314014D01*
X39811Y315366D01*
X38458Y316476D01*
X36915Y317301D01*
X35241Y317809D01*
X33500Y317980D01*
X31759Y317809D01*
X30085Y317301D01*
X28542Y316476D01*
X27634Y315731D01*
X23669Y315587D01*
X20311D01*
Y341894D01*
X23853D01*
X26457Y341869D01*
X27546Y341821D01*
X28542Y341004D01*
X30085Y340180D01*
X31759Y339672D01*
X33500Y339500D01*
X35241Y339672D01*
X36915Y340180D01*
X38458Y341004D01*
X39811Y342114D01*
X40921Y343467D01*
X41745Y345010D01*
X42253Y346684D01*
X42425Y348425D01*
X42253Y350166D01*
X41745Y351841D01*
X40921Y353384D01*
X39811Y354736D01*
X38458Y355846D01*
X36915Y356671D01*
X35241Y357179D01*
X33500Y357350D01*
X31759Y357179D01*
X30085Y356671D01*
X28542Y355846D01*
X27634Y355101D01*
X23669Y354957D01*
X20311D01*
Y381264D01*
X23853D01*
X26457Y381239D01*
X27546Y381191D01*
X28542Y380375D01*
X30085Y379550D01*
X31759Y379042D01*
X33500Y378870D01*
X35241Y379042D01*
X36915Y379550D01*
X38458Y380375D01*
X39811Y381485D01*
X40921Y382837D01*
X41745Y384380D01*
X42253Y386054D01*
X42425Y387795D01*
X42253Y389536D01*
X41745Y391211D01*
X40921Y392754D01*
X39811Y394106D01*
X38458Y395216D01*
X36915Y396041D01*
X35241Y396549D01*
X33500Y396720D01*
X31759Y396549D01*
X30085Y396041D01*
X28542Y395216D01*
X27634Y394471D01*
X23669Y394327D01*
X20311D01*
Y431435D01*
X23853D01*
X26457Y431411D01*
X27546Y431362D01*
X28542Y430546D01*
X30085Y429721D01*
X31759Y429213D01*
X33500Y429042D01*
X35241Y429213D01*
X36915Y429721D01*
X38458Y430546D01*
X39811Y431656D01*
X40921Y433008D01*
X41745Y434551D01*
X42253Y436225D01*
X42425Y437967D01*
X42253Y439708D01*
X41745Y441382D01*
X40921Y442925D01*
X39811Y444277D01*
X38458Y445387D01*
X36915Y446212D01*
X35241Y446720D01*
X33500Y446891D01*
X31759Y446720D01*
X30085Y446212D01*
X28542Y445387D01*
X27634Y444643D01*
X23669Y444498D01*
X20311D01*
Y470805D01*
X23853D01*
X26457Y470781D01*
X27546Y470733D01*
X28542Y469916D01*
X30085Y469091D01*
X31759Y468583D01*
X33500Y468412D01*
X35241Y468583D01*
X36915Y469091D01*
X38458Y469916D01*
X39811Y471026D01*
X40921Y472378D01*
X41745Y473921D01*
X42253Y475596D01*
X42425Y477337D01*
X42253Y479078D01*
X41745Y480752D01*
X40921Y482295D01*
X39811Y483647D01*
X38458Y484757D01*
X36915Y485582D01*
X35241Y486090D01*
X33500Y486262D01*
X31759Y486090D01*
X30085Y485582D01*
X28542Y484757D01*
X27634Y484013D01*
X23669Y483868D01*
X20311D01*
Y494281D01*
X24217Y498187D01*
X24669Y497973D01*
X24575Y497022D01*
X24747Y495281D01*
X25254Y493606D01*
X26079Y492063D01*
X27189Y490711D01*
X28542Y489601D01*
X30085Y488776D01*
X31759Y488268D01*
X33500Y488097D01*
X35241Y488268D01*
X36915Y488776D01*
X38458Y489601D01*
X39811Y490711D01*
X40921Y492063D01*
X41745Y493606D01*
X42253Y495281D01*
X42425Y497022D01*
X42253Y498763D01*
X41745Y500437D01*
X40921Y501980D01*
X39811Y503333D01*
X38458Y504442D01*
X36915Y505267D01*
X35241Y505775D01*
X33500Y505947D01*
X32569Y505855D01*
X32358Y506308D01*
X33155Y507091D01*
X33960Y507827D01*
X35241Y507953D01*
X36915Y508461D01*
X38458Y509286D01*
X39811Y510396D01*
X40921Y511748D01*
X41745Y513291D01*
X42253Y514966D01*
X42425Y516707D01*
X42253Y518448D01*
X41745Y520122D01*
X40921Y521665D01*
X39811Y523018D01*
X38458Y524127D01*
X36915Y524952D01*
X35241Y525460D01*
X33500Y525632D01*
D02*
G37*
G36*
X369461Y487512D02*
X365992D01*
Y484043D01*
X366536Y484115D01*
X367509Y484518D01*
X368345Y485159D01*
X368986Y485995D01*
X369389Y486968D01*
X369461Y487512D01*
D02*
G37*
G36*
X364992D02*
X361523D01*
X361595Y486968D01*
X361998Y485995D01*
X362639Y485159D01*
X363475Y484518D01*
X364448Y484115D01*
X364992Y484043D01*
Y487512D01*
D02*
G37*
G36*
X409992Y492512D02*
X400992D01*
Y483512D01*
X409992D01*
Y492512D01*
D02*
G37*
G36*
X395492Y492551D02*
X394317Y492396D01*
X393223Y491943D01*
X392283Y491221D01*
X391561Y490281D01*
X391108Y489187D01*
X390953Y488012D01*
X391108Y486837D01*
X391561Y485743D01*
X392283Y484802D01*
X393223Y484081D01*
X394317Y483628D01*
X395492Y483473D01*
X396667Y483628D01*
X397762Y484081D01*
X398702Y484802D01*
X399423Y485743D01*
X399876Y486837D01*
X400031Y488012D01*
X399876Y489187D01*
X399423Y490281D01*
X398702Y491221D01*
X397762Y491943D01*
X396667Y492396D01*
X395492Y492551D01*
D02*
G37*
G36*
X385492D02*
X384317Y492396D01*
X383223Y491943D01*
X382283Y491221D01*
X381561Y490281D01*
X381108Y489187D01*
X380953Y488012D01*
X381108Y486837D01*
X381561Y485743D01*
X382283Y484802D01*
X383223Y484081D01*
X384317Y483628D01*
X385492Y483473D01*
X386667Y483628D01*
X387761Y484081D01*
X388702Y484802D01*
X389423Y485743D01*
X389876Y486837D01*
X390031Y488012D01*
X389876Y489187D01*
X389423Y490281D01*
X388702Y491221D01*
X387761Y491943D01*
X386667Y492396D01*
X385492Y492551D01*
D02*
G37*
G36*
X375492D02*
X374317Y492396D01*
X373223Y491943D01*
X372283Y491221D01*
X371561Y490281D01*
X371108Y489187D01*
X370953Y488012D01*
X371108Y486837D01*
X371561Y485743D01*
X372283Y484802D01*
X373223Y484081D01*
X374317Y483628D01*
X375492Y483473D01*
X376667Y483628D01*
X377762Y484081D01*
X378702Y484802D01*
X379423Y485743D01*
X379876Y486837D01*
X380031Y488012D01*
X379876Y489187D01*
X379423Y490281D01*
X378702Y491221D01*
X377762Y491943D01*
X376667Y492396D01*
X375492Y492551D01*
D02*
G37*
G36*
X355492D02*
X354317Y492396D01*
X353223Y491943D01*
X352283Y491221D01*
X351561Y490281D01*
X351108Y489187D01*
X350953Y488012D01*
X351108Y486837D01*
X351561Y485743D01*
X352283Y484802D01*
X353223Y484081D01*
X354317Y483628D01*
X355492Y483473D01*
X356667Y483628D01*
X357762Y484081D01*
X358702Y484802D01*
X359423Y485743D01*
X359876Y486837D01*
X360031Y488012D01*
X359876Y489187D01*
X359423Y490281D01*
X358702Y491221D01*
X357762Y491943D01*
X356667Y492396D01*
X355492Y492551D01*
D02*
G37*
G36*
X345492D02*
X344317Y492396D01*
X343223Y491943D01*
X342283Y491221D01*
X341561Y490281D01*
X341108Y489187D01*
X340953Y488012D01*
X341108Y486837D01*
X341561Y485743D01*
X342283Y484802D01*
X343223Y484081D01*
X344317Y483628D01*
X345492Y483473D01*
X346667Y483628D01*
X347762Y484081D01*
X348702Y484802D01*
X349423Y485743D01*
X349876Y486837D01*
X350031Y488012D01*
X349876Y489187D01*
X349423Y490281D01*
X348702Y491221D01*
X347762Y491943D01*
X346667Y492396D01*
X345492Y492551D01*
D02*
G37*
G36*
X335492D02*
X334317Y492396D01*
X333223Y491943D01*
X332283Y491221D01*
X331561Y490281D01*
X331108Y489187D01*
X330953Y488012D01*
X331108Y486837D01*
X331561Y485743D01*
X332283Y484802D01*
X333223Y484081D01*
X334317Y483628D01*
X335492Y483473D01*
X336667Y483628D01*
X337761Y484081D01*
X338702Y484802D01*
X339423Y485743D01*
X339876Y486837D01*
X340031Y488012D01*
X339876Y489187D01*
X339423Y490281D01*
X338702Y491221D01*
X337761Y491943D01*
X336667Y492396D01*
X335492Y492551D01*
D02*
G37*
G36*
X325492D02*
X324317Y492396D01*
X323223Y491943D01*
X322283Y491221D01*
X321561Y490281D01*
X321108Y489187D01*
X320953Y488012D01*
X321108Y486837D01*
X321561Y485743D01*
X322283Y484802D01*
X323223Y484081D01*
X324317Y483628D01*
X325492Y483473D01*
X326667Y483628D01*
X327762Y484081D01*
X328702Y484802D01*
X329423Y485743D01*
X329876Y486837D01*
X330031Y488012D01*
X329876Y489187D01*
X329423Y490281D01*
X328702Y491221D01*
X327762Y491943D01*
X326667Y492396D01*
X325492Y492551D01*
D02*
G37*
G36*
X315492D02*
X314317Y492396D01*
X313223Y491943D01*
X312283Y491221D01*
X311561Y490281D01*
X311108Y489187D01*
X310953Y488012D01*
X311108Y486837D01*
X311561Y485743D01*
X312283Y484802D01*
X313223Y484081D01*
X314317Y483628D01*
X315492Y483473D01*
X316667Y483628D01*
X317761Y484081D01*
X318702Y484802D01*
X319423Y485743D01*
X319876Y486837D01*
X320031Y488012D01*
X319876Y489187D01*
X319423Y490281D01*
X318702Y491221D01*
X317761Y491943D01*
X316667Y492396D01*
X315492Y492551D01*
D02*
G37*
G36*
X305492D02*
X304317Y492396D01*
X303223Y491943D01*
X302283Y491221D01*
X301561Y490281D01*
X301108Y489187D01*
X300953Y488012D01*
X301108Y486837D01*
X301561Y485743D01*
X302283Y484802D01*
X303223Y484081D01*
X304317Y483628D01*
X305492Y483473D01*
X306667Y483628D01*
X307762Y484081D01*
X308702Y484802D01*
X309423Y485743D01*
X309876Y486837D01*
X310031Y488012D01*
X309876Y489187D01*
X309423Y490281D01*
X308702Y491221D01*
X307762Y491943D01*
X306667Y492396D01*
X305492Y492551D01*
D02*
G37*
G36*
X295492D02*
X294317Y492396D01*
X293223Y491943D01*
X292283Y491221D01*
X291561Y490281D01*
X291108Y489187D01*
X290953Y488012D01*
X291108Y486837D01*
X291561Y485743D01*
X292283Y484802D01*
X293223Y484081D01*
X294317Y483628D01*
X295492Y483473D01*
X296667Y483628D01*
X297762Y484081D01*
X298702Y484802D01*
X299423Y485743D01*
X299876Y486837D01*
X300031Y488012D01*
X299876Y489187D01*
X299423Y490281D01*
X298702Y491221D01*
X297762Y491943D01*
X296667Y492396D01*
X295492Y492551D01*
D02*
G37*
G36*
X285492D02*
X284317Y492396D01*
X283223Y491943D01*
X282283Y491221D01*
X281561Y490281D01*
X281108Y489187D01*
X280953Y488012D01*
X281108Y486837D01*
X281561Y485743D01*
X282283Y484802D01*
X283223Y484081D01*
X284317Y483628D01*
X285492Y483473D01*
X286667Y483628D01*
X287761Y484081D01*
X288702Y484802D01*
X289423Y485743D01*
X289876Y486837D01*
X290031Y488012D01*
X289876Y489187D01*
X289423Y490281D01*
X288702Y491221D01*
X287761Y491943D01*
X286667Y492396D01*
X285492Y492551D01*
D02*
G37*
G36*
X275492D02*
X274317Y492396D01*
X273223Y491943D01*
X272283Y491221D01*
X271561Y490281D01*
X271108Y489187D01*
X270953Y488012D01*
X271108Y486837D01*
X271561Y485743D01*
X272283Y484802D01*
X273223Y484081D01*
X274317Y483628D01*
X275492Y483473D01*
X276667Y483628D01*
X277762Y484081D01*
X278702Y484802D01*
X279423Y485743D01*
X279876Y486837D01*
X280031Y488012D01*
X279876Y489187D01*
X279423Y490281D01*
X278702Y491221D01*
X277762Y491943D01*
X276667Y492396D01*
X275492Y492551D01*
D02*
G37*
G36*
X265492D02*
X264317Y492396D01*
X263223Y491943D01*
X262283Y491221D01*
X261561Y490281D01*
X261108Y489187D01*
X260953Y488012D01*
X261108Y486837D01*
X261561Y485743D01*
X262283Y484802D01*
X263223Y484081D01*
X264317Y483628D01*
X265492Y483473D01*
X266667Y483628D01*
X267761Y484081D01*
X268702Y484802D01*
X269423Y485743D01*
X269876Y486837D01*
X270031Y488012D01*
X269876Y489187D01*
X269423Y490281D01*
X268702Y491221D01*
X267761Y491943D01*
X266667Y492396D01*
X265492Y492551D01*
D02*
G37*
G36*
X255492D02*
X254317Y492396D01*
X253223Y491943D01*
X252283Y491221D01*
X251561Y490281D01*
X251108Y489187D01*
X250953Y488012D01*
X251108Y486837D01*
X251561Y485743D01*
X252283Y484802D01*
X253223Y484081D01*
X254317Y483628D01*
X255492Y483473D01*
X256667Y483628D01*
X257762Y484081D01*
X258702Y484802D01*
X259423Y485743D01*
X259876Y486837D01*
X260031Y488012D01*
X259876Y489187D01*
X259423Y490281D01*
X258702Y491221D01*
X257762Y491943D01*
X256667Y492396D01*
X255492Y492551D01*
D02*
G37*
G36*
X245492D02*
X244317Y492396D01*
X243223Y491943D01*
X242283Y491221D01*
X241561Y490281D01*
X241108Y489187D01*
X240953Y488012D01*
X241108Y486837D01*
X241561Y485743D01*
X242283Y484802D01*
X243223Y484081D01*
X244317Y483628D01*
X245492Y483473D01*
X246667Y483628D01*
X247762Y484081D01*
X248702Y484802D01*
X249423Y485743D01*
X249876Y486837D01*
X250031Y488012D01*
X249876Y489187D01*
X249423Y490281D01*
X248702Y491221D01*
X247762Y491943D01*
X246667Y492396D01*
X245492Y492551D01*
D02*
G37*
G36*
X235492D02*
X234317Y492396D01*
X233223Y491943D01*
X232283Y491221D01*
X231561Y490281D01*
X231108Y489187D01*
X230953Y488012D01*
X231108Y486837D01*
X231561Y485743D01*
X232283Y484802D01*
X233223Y484081D01*
X234317Y483628D01*
X235492Y483473D01*
X236667Y483628D01*
X237761Y484081D01*
X238702Y484802D01*
X239423Y485743D01*
X239876Y486837D01*
X240031Y488012D01*
X239876Y489187D01*
X239423Y490281D01*
X238702Y491221D01*
X237761Y491943D01*
X236667Y492396D01*
X235492Y492551D01*
D02*
G37*
G36*
X225492D02*
X224317Y492396D01*
X223223Y491943D01*
X222283Y491221D01*
X221561Y490281D01*
X221108Y489187D01*
X220953Y488012D01*
X221108Y486837D01*
X221561Y485743D01*
X222283Y484802D01*
X223223Y484081D01*
X224317Y483628D01*
X225492Y483473D01*
X226667Y483628D01*
X227762Y484081D01*
X228702Y484802D01*
X229423Y485743D01*
X229876Y486837D01*
X230031Y488012D01*
X229876Y489187D01*
X229423Y490281D01*
X228702Y491221D01*
X227762Y491943D01*
X226667Y492396D01*
X225492Y492551D01*
D02*
G37*
G36*
X215492D02*
X214317Y492396D01*
X213223Y491943D01*
X212283Y491221D01*
X211561Y490281D01*
X211108Y489187D01*
X210953Y488012D01*
X211108Y486837D01*
X211561Y485743D01*
X212283Y484802D01*
X213223Y484081D01*
X214317Y483628D01*
X215492Y483473D01*
X216667Y483628D01*
X217761Y484081D01*
X218702Y484802D01*
X219423Y485743D01*
X219876Y486837D01*
X220031Y488012D01*
X219876Y489187D01*
X219423Y490281D01*
X218702Y491221D01*
X217761Y491943D01*
X216667Y492396D01*
X215492Y492551D01*
D02*
G37*
G36*
X395492Y482551D02*
X394317Y482396D01*
X393223Y481943D01*
X392283Y481221D01*
X391561Y480281D01*
X391108Y479187D01*
X390953Y478012D01*
X391108Y476837D01*
X391561Y475742D01*
X392283Y474802D01*
X393223Y474081D01*
X394317Y473628D01*
X395492Y473473D01*
X396667Y473628D01*
X397762Y474081D01*
X398702Y474802D01*
X399423Y475742D01*
X399876Y476837D01*
X400031Y478012D01*
X399876Y479187D01*
X399423Y480281D01*
X398702Y481221D01*
X397762Y481943D01*
X396667Y482396D01*
X395492Y482551D01*
D02*
G37*
G36*
X385492D02*
X384317Y482396D01*
X383223Y481943D01*
X382283Y481221D01*
X381561Y480281D01*
X381108Y479187D01*
X380953Y478012D01*
X381108Y476837D01*
X381561Y475742D01*
X382283Y474802D01*
X383223Y474081D01*
X384317Y473628D01*
X385492Y473473D01*
X386667Y473628D01*
X387761Y474081D01*
X388702Y474802D01*
X389423Y475742D01*
X389876Y476837D01*
X390031Y478012D01*
X389876Y479187D01*
X389423Y480281D01*
X388702Y481221D01*
X387761Y481943D01*
X386667Y482396D01*
X385492Y482551D01*
D02*
G37*
G36*
X375492D02*
X374317Y482396D01*
X373223Y481943D01*
X372283Y481221D01*
X371561Y480281D01*
X371108Y479187D01*
X370953Y478012D01*
X371108Y476837D01*
X371561Y475742D01*
X372283Y474802D01*
X373223Y474081D01*
X374317Y473628D01*
X375492Y473473D01*
X376667Y473628D01*
X377762Y474081D01*
X378702Y474802D01*
X379423Y475742D01*
X379876Y476837D01*
X380031Y478012D01*
X379876Y479187D01*
X379423Y480281D01*
X378702Y481221D01*
X377762Y481943D01*
X376667Y482396D01*
X375492Y482551D01*
D02*
G37*
G36*
X365492D02*
X364317Y482396D01*
X363223Y481943D01*
X362283Y481221D01*
X361561Y480281D01*
X361108Y479187D01*
X360953Y478012D01*
X361108Y476837D01*
X361561Y475742D01*
X362283Y474802D01*
X363223Y474081D01*
X364317Y473628D01*
X365492Y473473D01*
X366667Y473628D01*
X367761Y474081D01*
X368702Y474802D01*
X369423Y475742D01*
X369876Y476837D01*
X370031Y478012D01*
X369876Y479187D01*
X369423Y480281D01*
X368702Y481221D01*
X367761Y481943D01*
X366667Y482396D01*
X365492Y482551D01*
D02*
G37*
G36*
X355492D02*
X354317Y482396D01*
X353223Y481943D01*
X352283Y481221D01*
X351561Y480281D01*
X351108Y479187D01*
X350953Y478012D01*
X351108Y476837D01*
X351561Y475742D01*
X352283Y474802D01*
X353223Y474081D01*
X354317Y473628D01*
X355492Y473473D01*
X356667Y473628D01*
X357762Y474081D01*
X358702Y474802D01*
X359423Y475742D01*
X359876Y476837D01*
X360031Y478012D01*
X359876Y479187D01*
X359423Y480281D01*
X358702Y481221D01*
X357762Y481943D01*
X356667Y482396D01*
X355492Y482551D01*
D02*
G37*
G36*
X345492D02*
X344317Y482396D01*
X343223Y481943D01*
X342283Y481221D01*
X341561Y480281D01*
X341108Y479187D01*
X340953Y478012D01*
X341108Y476837D01*
X341561Y475742D01*
X342283Y474802D01*
X343223Y474081D01*
X344317Y473628D01*
X345492Y473473D01*
X346667Y473628D01*
X347762Y474081D01*
X348702Y474802D01*
X349423Y475742D01*
X349876Y476837D01*
X350031Y478012D01*
X349876Y479187D01*
X349423Y480281D01*
X348702Y481221D01*
X347762Y481943D01*
X346667Y482396D01*
X345492Y482551D01*
D02*
G37*
G36*
X335492D02*
X334317Y482396D01*
X333223Y481943D01*
X332283Y481221D01*
X331561Y480281D01*
X331108Y479187D01*
X330953Y478012D01*
X331108Y476837D01*
X331561Y475742D01*
X332283Y474802D01*
X333223Y474081D01*
X334317Y473628D01*
X335492Y473473D01*
X336667Y473628D01*
X337761Y474081D01*
X338702Y474802D01*
X339423Y475742D01*
X339876Y476837D01*
X340031Y478012D01*
X339876Y479187D01*
X339423Y480281D01*
X338702Y481221D01*
X337761Y481943D01*
X336667Y482396D01*
X335492Y482551D01*
D02*
G37*
G36*
X325492D02*
X324317Y482396D01*
X323223Y481943D01*
X322283Y481221D01*
X321561Y480281D01*
X321108Y479187D01*
X320953Y478012D01*
X321108Y476837D01*
X321561Y475742D01*
X322283Y474802D01*
X323223Y474081D01*
X324317Y473628D01*
X325492Y473473D01*
X326667Y473628D01*
X327762Y474081D01*
X328702Y474802D01*
X329423Y475742D01*
X329876Y476837D01*
X330031Y478012D01*
X329876Y479187D01*
X329423Y480281D01*
X328702Y481221D01*
X327762Y481943D01*
X326667Y482396D01*
X325492Y482551D01*
D02*
G37*
G36*
X315492D02*
X314317Y482396D01*
X313223Y481943D01*
X312283Y481221D01*
X311561Y480281D01*
X311108Y479187D01*
X310953Y478012D01*
X311108Y476837D01*
X311561Y475742D01*
X312283Y474802D01*
X313223Y474081D01*
X314317Y473628D01*
X315492Y473473D01*
X316667Y473628D01*
X317761Y474081D01*
X318702Y474802D01*
X319423Y475742D01*
X319876Y476837D01*
X320031Y478012D01*
X319876Y479187D01*
X319423Y480281D01*
X318702Y481221D01*
X317761Y481943D01*
X316667Y482396D01*
X315492Y482551D01*
D02*
G37*
G36*
X305492D02*
X304317Y482396D01*
X303223Y481943D01*
X302283Y481221D01*
X301561Y480281D01*
X301108Y479187D01*
X300953Y478012D01*
X301108Y476837D01*
X301561Y475742D01*
X302283Y474802D01*
X303223Y474081D01*
X304317Y473628D01*
X305492Y473473D01*
X306667Y473628D01*
X307762Y474081D01*
X308702Y474802D01*
X309423Y475742D01*
X309876Y476837D01*
X310031Y478012D01*
X309876Y479187D01*
X309423Y480281D01*
X308702Y481221D01*
X307762Y481943D01*
X306667Y482396D01*
X305492Y482551D01*
D02*
G37*
G36*
X295492D02*
X294317Y482396D01*
X293223Y481943D01*
X292283Y481221D01*
X291561Y480281D01*
X291108Y479187D01*
X290953Y478012D01*
X291108Y476837D01*
X291561Y475742D01*
X292283Y474802D01*
X293223Y474081D01*
X294317Y473628D01*
X295492Y473473D01*
X296667Y473628D01*
X297762Y474081D01*
X298702Y474802D01*
X299423Y475742D01*
X299876Y476837D01*
X300031Y478012D01*
X299876Y479187D01*
X299423Y480281D01*
X298702Y481221D01*
X297762Y481943D01*
X296667Y482396D01*
X295492Y482551D01*
D02*
G37*
G36*
X285492D02*
X284317Y482396D01*
X283223Y481943D01*
X282283Y481221D01*
X281561Y480281D01*
X281108Y479187D01*
X280953Y478012D01*
X281108Y476837D01*
X281561Y475742D01*
X282283Y474802D01*
X283223Y474081D01*
X284317Y473628D01*
X285492Y473473D01*
X286667Y473628D01*
X287761Y474081D01*
X288702Y474802D01*
X289423Y475742D01*
X289876Y476837D01*
X290031Y478012D01*
X289876Y479187D01*
X289423Y480281D01*
X288702Y481221D01*
X287761Y481943D01*
X286667Y482396D01*
X285492Y482551D01*
D02*
G37*
G36*
X275492D02*
X274317Y482396D01*
X273223Y481943D01*
X272283Y481221D01*
X271561Y480281D01*
X271108Y479187D01*
X270953Y478012D01*
X271108Y476837D01*
X271561Y475742D01*
X272283Y474802D01*
X273223Y474081D01*
X274317Y473628D01*
X275492Y473473D01*
X276667Y473628D01*
X277762Y474081D01*
X278702Y474802D01*
X279423Y475742D01*
X279876Y476837D01*
X280031Y478012D01*
X279876Y479187D01*
X279423Y480281D01*
X278702Y481221D01*
X277762Y481943D01*
X276667Y482396D01*
X275492Y482551D01*
D02*
G37*
G36*
X265492D02*
X264317Y482396D01*
X263223Y481943D01*
X262283Y481221D01*
X261561Y480281D01*
X261108Y479187D01*
X260953Y478012D01*
X261108Y476837D01*
X261561Y475742D01*
X262283Y474802D01*
X263223Y474081D01*
X264317Y473628D01*
X265492Y473473D01*
X266667Y473628D01*
X267761Y474081D01*
X268702Y474802D01*
X269423Y475742D01*
X269876Y476837D01*
X270031Y478012D01*
X269876Y479187D01*
X269423Y480281D01*
X268702Y481221D01*
X267761Y481943D01*
X266667Y482396D01*
X265492Y482551D01*
D02*
G37*
G36*
X255492D02*
X254317Y482396D01*
X253223Y481943D01*
X252283Y481221D01*
X251561Y480281D01*
X251108Y479187D01*
X250953Y478012D01*
X251108Y476837D01*
X251561Y475742D01*
X252283Y474802D01*
X253223Y474081D01*
X254317Y473628D01*
X255492Y473473D01*
X256667Y473628D01*
X257762Y474081D01*
X258702Y474802D01*
X259423Y475742D01*
X259876Y476837D01*
X260031Y478012D01*
X259876Y479187D01*
X259423Y480281D01*
X258702Y481221D01*
X257762Y481943D01*
X256667Y482396D01*
X255492Y482551D01*
D02*
G37*
G36*
X245492D02*
X244317Y482396D01*
X243223Y481943D01*
X242283Y481221D01*
X241561Y480281D01*
X241108Y479187D01*
X240953Y478012D01*
X241108Y476837D01*
X241561Y475742D01*
X242283Y474802D01*
X243223Y474081D01*
X244317Y473628D01*
X245492Y473473D01*
X246667Y473628D01*
X247762Y474081D01*
X248702Y474802D01*
X249423Y475742D01*
X249876Y476837D01*
X250031Y478012D01*
X249876Y479187D01*
X249423Y480281D01*
X248702Y481221D01*
X247762Y481943D01*
X246667Y482396D01*
X245492Y482551D01*
D02*
G37*
G36*
X235492D02*
X234317Y482396D01*
X233223Y481943D01*
X232283Y481221D01*
X231561Y480281D01*
X231108Y479187D01*
X230953Y478012D01*
X231108Y476837D01*
X231561Y475742D01*
X232283Y474802D01*
X233223Y474081D01*
X234317Y473628D01*
X235492Y473473D01*
X236667Y473628D01*
X237761Y474081D01*
X238702Y474802D01*
X239423Y475742D01*
X239876Y476837D01*
X240031Y478012D01*
X239876Y479187D01*
X239423Y480281D01*
X238702Y481221D01*
X237761Y481943D01*
X236667Y482396D01*
X235492Y482551D01*
D02*
G37*
G36*
X225492D02*
X224317Y482396D01*
X223223Y481943D01*
X222283Y481221D01*
X221561Y480281D01*
X221108Y479187D01*
X220953Y478012D01*
X221108Y476837D01*
X221561Y475742D01*
X222283Y474802D01*
X223223Y474081D01*
X224317Y473628D01*
X225492Y473473D01*
X226667Y473628D01*
X227762Y474081D01*
X228702Y474802D01*
X229423Y475742D01*
X229876Y476837D01*
X230031Y478012D01*
X229876Y479187D01*
X229423Y480281D01*
X228702Y481221D01*
X227762Y481943D01*
X226667Y482396D01*
X225492Y482551D01*
D02*
G37*
G36*
X215492D02*
X214317Y482396D01*
X213223Y481943D01*
X212283Y481221D01*
X211561Y480281D01*
X211108Y479187D01*
X210953Y478012D01*
X211108Y476837D01*
X211561Y475742D01*
X212283Y474802D01*
X213223Y474081D01*
X214317Y473628D01*
X215492Y473473D01*
X216667Y473628D01*
X217761Y474081D01*
X218702Y474802D01*
X219423Y475742D01*
X219876Y476837D01*
X220031Y478012D01*
X219876Y479187D01*
X219423Y480281D01*
X218702Y481221D01*
X217761Y481943D01*
X216667Y482396D01*
X215492Y482551D01*
D02*
G37*
G36*
X424665Y496759D02*
X422515Y496590D01*
X420417Y496086D01*
X418424Y495261D01*
X416585Y494134D01*
X414945Y492733D01*
X413544Y491092D01*
X412417Y489253D01*
X411591Y487260D01*
X411088Y485162D01*
X410918Y483012D01*
X411088Y480861D01*
X411591Y478764D01*
X412417Y476771D01*
X413544Y474932D01*
X414945Y473291D01*
X416585Y471890D01*
X418424Y470763D01*
X420417Y469938D01*
X422515Y469434D01*
X424665Y469265D01*
X426816Y469434D01*
X428913Y469938D01*
X430906Y470763D01*
X432746Y471890D01*
X434386Y473291D01*
X435787Y474932D01*
X436914Y476771D01*
X437740Y478764D01*
X438243Y480861D01*
X438412Y483012D01*
X438243Y485162D01*
X437740Y487260D01*
X436914Y489253D01*
X435787Y491092D01*
X434386Y492733D01*
X432746Y494134D01*
X430906Y495261D01*
X428913Y496086D01*
X426816Y496590D01*
X424665Y496759D01*
D02*
G37*
G36*
X33500Y466576D02*
X31759Y466405D01*
X30085Y465897D01*
X28542Y465072D01*
X27189Y463962D01*
X26079Y462610D01*
X25254Y461067D01*
X24747Y459393D01*
X24575Y457652D01*
X24747Y455910D01*
X25254Y454236D01*
X26079Y452693D01*
X27189Y451341D01*
X28542Y450231D01*
X30085Y449406D01*
X31759Y448898D01*
X33500Y448727D01*
X35241Y448898D01*
X36915Y449406D01*
X38458Y450231D01*
X39811Y451341D01*
X40921Y452693D01*
X41745Y454236D01*
X42253Y455910D01*
X42425Y457652D01*
X42253Y459393D01*
X41745Y461067D01*
X40921Y462610D01*
X39811Y463962D01*
X38458Y465072D01*
X36915Y465897D01*
X35241Y466405D01*
X33500Y466576D01*
D02*
G37*
G36*
X416929Y444358D02*
X415188Y444186D01*
X413514Y443679D01*
X411971Y442854D01*
X410618Y441744D01*
X410464Y441557D01*
X410442Y441541D01*
X409966Y441064D01*
X409518Y440678D01*
X409062Y440343D01*
X408597Y440056D01*
X408121Y439816D01*
X407631Y439621D01*
X407126Y439469D01*
X406602Y439359D01*
X406057Y439293D01*
X405588Y439275D01*
X401569D01*
X401568Y439275D01*
X400524Y439137D01*
X399551Y438734D01*
X398716Y438093D01*
X398715Y438093D01*
X378654Y418031D01*
X378012Y417195D01*
X377609Y416222D01*
X377472Y415178D01*
X377472Y415178D01*
Y407272D01*
X359946Y389746D01*
X358935Y389327D01*
X357980Y388595D01*
X357247Y387640D01*
X356787Y386528D01*
X356630Y385335D01*
X356787Y384141D01*
X357247Y383030D01*
X357980Y382075D01*
X358935Y381342D01*
X360047Y380881D01*
X361240Y380724D01*
X362433Y380881D01*
X363545Y381342D01*
X364500Y382075D01*
X365233Y383030D01*
X365651Y384040D01*
X366267Y384656D01*
X366740Y384495D01*
X366787Y384141D01*
X367248Y383030D01*
X367980Y382075D01*
X368935Y381342D01*
X370047Y380881D01*
X371240Y380724D01*
X372433Y380881D01*
X373545Y381342D01*
X374500Y382075D01*
X375233Y383030D01*
X375652Y384040D01*
X376267Y384656D01*
X376740Y384495D01*
X376787Y384141D01*
X377248Y383030D01*
X377980Y382075D01*
X378935Y381342D01*
X380047Y380881D01*
X381240Y380724D01*
X382433Y380881D01*
X383444Y381300D01*
X406201D01*
X406201Y381300D01*
X407245Y381438D01*
X408218Y381841D01*
X409054Y382482D01*
X411812Y385240D01*
X412154Y385556D01*
X412587Y385898D01*
X413038Y386195D01*
X413507Y386452D01*
X413996Y386668D01*
X414509Y386844D01*
X415048Y386982D01*
X415615Y387079D01*
X416212Y387136D01*
X416804Y387150D01*
X416929Y387138D01*
X418670Y387310D01*
X420344Y387818D01*
X421887Y388642D01*
X423240Y389752D01*
X424350Y391105D01*
X425175Y392648D01*
X425682Y394322D01*
X425854Y396063D01*
X425682Y397804D01*
X425175Y399478D01*
X424350Y401021D01*
X423240Y402374D01*
X421887Y403484D01*
X420344Y404309D01*
X418670Y404816D01*
X416929Y404988D01*
X415188Y404816D01*
X413514Y404309D01*
X411971Y403484D01*
X410618Y402374D01*
X409508Y401021D01*
X408684Y399478D01*
X408176Y397804D01*
X408004Y396063D01*
X408017Y395938D01*
X408002Y395346D01*
X407945Y394749D01*
X407848Y394182D01*
X407710Y393643D01*
X407534Y393130D01*
X407318Y392640D01*
X407062Y392172D01*
X406764Y391721D01*
X406423Y391288D01*
X406106Y390945D01*
X404530Y389369D01*
X383444D01*
X382433Y389788D01*
X382080Y389834D01*
X381919Y390308D01*
X403325Y411714D01*
X405657D01*
X406123Y411695D01*
X406671Y411630D01*
X407200Y411522D01*
X407713Y411372D01*
X408212Y411178D01*
X408699Y410941D01*
X409177Y410657D01*
X409647Y410325D01*
X410110Y409943D01*
X410539Y409534D01*
X410618Y409437D01*
X411971Y408327D01*
X413514Y407503D01*
X415188Y406995D01*
X416929Y406823D01*
X418670Y406995D01*
X420344Y407503D01*
X421887Y408327D01*
X423240Y409437D01*
X424350Y410790D01*
X425175Y412333D01*
X425682Y414007D01*
X425854Y415748D01*
X425682Y417489D01*
X425175Y419163D01*
X424350Y420706D01*
X423240Y422059D01*
X421887Y423169D01*
X420344Y423993D01*
X418670Y424501D01*
X416929Y424673D01*
X415188Y424501D01*
X413514Y423993D01*
X411971Y423169D01*
X410618Y422059D01*
X410539Y421962D01*
X410110Y421553D01*
X409647Y421171D01*
X409177Y420839D01*
X408699Y420555D01*
X408212Y420318D01*
X407713Y420124D01*
X407200Y419974D01*
X406671Y419866D01*
X406123Y419801D01*
X405657Y419782D01*
X401653D01*
X400609Y419645D01*
X399636Y419242D01*
X398801Y418601D01*
X398801Y418601D01*
X386041Y405841D01*
X385541Y406048D01*
Y413507D01*
X403240Y431206D01*
X405733D01*
X406195Y431188D01*
X406746Y431124D01*
X407280Y431017D01*
X407800Y430869D01*
X408308Y430678D01*
X408807Y430443D01*
X409297Y430162D01*
X409781Y429834D01*
X410259Y429457D01*
X410588Y429159D01*
X410618Y429122D01*
X410726Y429033D01*
X410767Y428997D01*
X410783Y428987D01*
X411971Y428012D01*
X413514Y427188D01*
X415188Y426680D01*
X416929Y426508D01*
X418670Y426680D01*
X420344Y427188D01*
X421887Y428012D01*
X423240Y429122D01*
X424350Y430475D01*
X425175Y432018D01*
X425682Y433692D01*
X425854Y435433D01*
X425682Y437174D01*
X425175Y438848D01*
X424350Y440391D01*
X423240Y441744D01*
X421887Y442854D01*
X420344Y443679D01*
X418670Y444186D01*
X416929Y444358D01*
D02*
G37*
G36*
X405492Y482551D02*
X404317Y482396D01*
X403223Y481943D01*
X402283Y481221D01*
X401561Y480281D01*
X401108Y479187D01*
X400953Y478012D01*
X401108Y476837D01*
X401458Y475993D01*
Y467146D01*
X401458Y467146D01*
X401595Y466102D01*
X401998Y465128D01*
X402639Y464293D01*
X430809Y436124D01*
X430809Y436124D01*
X431644Y435482D01*
X432617Y435079D01*
X433661Y434942D01*
X434706Y435079D01*
X435679Y435482D01*
X436514Y436124D01*
X437155Y436959D01*
X437559Y437932D01*
X437696Y438976D01*
X437559Y440021D01*
X437155Y440994D01*
X436514Y441829D01*
X436514Y441829D01*
X409527Y468817D01*
Y475993D01*
X409876Y476837D01*
X410031Y478012D01*
X409876Y479187D01*
X409423Y480281D01*
X408702Y481221D01*
X407761Y481943D01*
X406667Y482396D01*
X405492Y482551D01*
D02*
G37*
G36*
X346787Y427359D02*
X344698Y427195D01*
X342661Y426706D01*
X340725Y425904D01*
X338939Y424809D01*
X337346Y423448D01*
X335985Y421855D01*
X334890Y420069D01*
X334088Y418133D01*
X333599Y416096D01*
X333435Y414007D01*
X333599Y411918D01*
X334088Y409881D01*
X334890Y407945D01*
X335985Y406159D01*
X337346Y404565D01*
X338939Y403205D01*
X340725Y402110D01*
X342661Y401308D01*
X344698Y400819D01*
X346787Y400655D01*
X348876Y400819D01*
X350913Y401308D01*
X352849Y402110D01*
X354635Y403205D01*
X356228Y404565D01*
X357589Y406159D01*
X358684Y407945D01*
X359486Y409881D01*
X359975Y411918D01*
X360139Y414007D01*
X359975Y416096D01*
X359486Y418133D01*
X358684Y420069D01*
X357589Y421855D01*
X356228Y423448D01*
X354635Y424809D01*
X352849Y425904D01*
X350913Y426706D01*
X348876Y427195D01*
X346787Y427359D01*
D02*
G37*
G36*
X33500Y416405D02*
X31759Y416234D01*
X30085Y415726D01*
X28542Y414901D01*
X27189Y413791D01*
X26079Y412439D01*
X25254Y410896D01*
X24747Y409222D01*
X24575Y407480D01*
X24747Y405739D01*
X25254Y404065D01*
X26079Y402522D01*
X27189Y401169D01*
X28542Y400060D01*
X30085Y399235D01*
X31759Y398727D01*
X33500Y398555D01*
X35241Y398727D01*
X36915Y399235D01*
X38458Y400060D01*
X39811Y401169D01*
X40921Y402522D01*
X41745Y404065D01*
X42253Y405739D01*
X42425Y407480D01*
X42253Y409222D01*
X41745Y410896D01*
X40921Y412439D01*
X39811Y413791D01*
X38458Y414901D01*
X36915Y415726D01*
X35241Y416234D01*
X33500Y416405D01*
D02*
G37*
G36*
X261740Y389375D02*
Y385835D01*
X265280D01*
X265206Y386397D01*
X264796Y387388D01*
X264143Y388238D01*
X263293Y388891D01*
X262303Y389301D01*
X261740Y389375D01*
D02*
G37*
G36*
X201740D02*
Y385835D01*
X205280D01*
X205206Y386397D01*
X204796Y387388D01*
X204144Y388238D01*
X203293Y388891D01*
X202303Y389301D01*
X201740Y389375D01*
D02*
G37*
G36*
X260740D02*
X260177Y389301D01*
X259187Y388891D01*
X258337Y388238D01*
X257684Y387388D01*
X257274Y386397D01*
X257200Y385835D01*
X260740D01*
Y389375D01*
D02*
G37*
G36*
X200740D02*
X200177Y389301D01*
X199187Y388891D01*
X198337Y388238D01*
X197684Y387388D01*
X197274Y386397D01*
X197200Y385835D01*
X200740D01*
Y389375D01*
D02*
G37*
G36*
X265280Y384835D02*
X261740D01*
Y381294D01*
X262303Y381369D01*
X263293Y381779D01*
X264143Y382431D01*
X264796Y383282D01*
X265206Y384272D01*
X265280Y384835D01*
D02*
G37*
G36*
X205280D02*
X201740D01*
Y381294D01*
X202303Y381369D01*
X203293Y381779D01*
X204144Y382431D01*
X204796Y383282D01*
X205206Y384272D01*
X205280Y384835D01*
D02*
G37*
G36*
X260740D02*
X257200D01*
X257274Y384272D01*
X257684Y383282D01*
X258337Y382431D01*
X259187Y381779D01*
X260177Y381369D01*
X260740Y381294D01*
Y384835D01*
D02*
G37*
G36*
X200740D02*
X197200D01*
X197274Y384272D01*
X197684Y383282D01*
X198337Y382431D01*
X199187Y381779D01*
X200177Y381369D01*
X200740Y381294D01*
Y384835D01*
D02*
G37*
G36*
X351240Y389945D02*
X350047Y389788D01*
X348935Y389327D01*
X347980Y388595D01*
X347248Y387640D01*
X346787Y386528D01*
X346630Y385335D01*
X346787Y384141D01*
X347248Y383030D01*
X347980Y382075D01*
X348935Y381342D01*
X350047Y380881D01*
X351240Y380724D01*
X352433Y380881D01*
X353545Y381342D01*
X354500Y382075D01*
X355233Y383030D01*
X355693Y384141D01*
X355851Y385335D01*
X355693Y386528D01*
X355233Y387640D01*
X354500Y388595D01*
X353545Y389327D01*
X352433Y389788D01*
X351240Y389945D01*
D02*
G37*
G36*
X341240D02*
X340047Y389788D01*
X338935Y389327D01*
X337980Y388595D01*
X337247Y387640D01*
X336787Y386528D01*
X336630Y385335D01*
X336787Y384141D01*
X337247Y383030D01*
X337980Y382075D01*
X338935Y381342D01*
X340047Y380881D01*
X341240Y380724D01*
X342433Y380881D01*
X343545Y381342D01*
X344500Y382075D01*
X345233Y383030D01*
X345693Y384141D01*
X345850Y385335D01*
X345693Y386528D01*
X345233Y387640D01*
X344500Y388595D01*
X343545Y389327D01*
X342433Y389788D01*
X341240Y389945D01*
D02*
G37*
G36*
X331240D02*
X330047Y389788D01*
X328935Y389327D01*
X327980Y388595D01*
X327248Y387640D01*
X326787Y386528D01*
X326630Y385335D01*
X326787Y384141D01*
X327248Y383030D01*
X327980Y382075D01*
X328935Y381342D01*
X330047Y380881D01*
X331240Y380724D01*
X332433Y380881D01*
X333545Y381342D01*
X334500Y382075D01*
X335233Y383030D01*
X335693Y384141D01*
X335851Y385335D01*
X335693Y386528D01*
X335233Y387640D01*
X334500Y388595D01*
X333545Y389327D01*
X332433Y389788D01*
X331240Y389945D01*
D02*
G37*
G36*
X241240D02*
X240047Y389788D01*
X238935Y389327D01*
X237980Y388595D01*
X237247Y387640D01*
X236787Y386528D01*
X236630Y385335D01*
X236787Y384141D01*
X237247Y383030D01*
X237980Y382075D01*
X238935Y381342D01*
X240047Y380881D01*
X241240Y380724D01*
X242433Y380881D01*
X243545Y381342D01*
X244500Y382075D01*
X245233Y383030D01*
X245693Y384141D01*
X245850Y385335D01*
X245693Y386528D01*
X245233Y387640D01*
X244500Y388595D01*
X243545Y389327D01*
X242433Y389788D01*
X241240Y389945D01*
D02*
G37*
G36*
X231240D02*
X230047Y389788D01*
X228935Y389327D01*
X227980Y388595D01*
X227248Y387640D01*
X226787Y386528D01*
X226630Y385335D01*
X226787Y384141D01*
X227248Y383030D01*
X227980Y382075D01*
X228935Y381342D01*
X230047Y380881D01*
X231240Y380724D01*
X232433Y380881D01*
X233545Y381342D01*
X234500Y382075D01*
X235233Y383030D01*
X235693Y384141D01*
X235851Y385335D01*
X235693Y386528D01*
X235233Y387640D01*
X234500Y388595D01*
X233545Y389327D01*
X232433Y389788D01*
X231240Y389945D01*
D02*
G37*
G36*
X33500Y377035D02*
X31759Y376864D01*
X30085Y376356D01*
X28542Y375531D01*
X27189Y374421D01*
X26079Y373069D01*
X25254Y371526D01*
X24747Y369851D01*
X24575Y368110D01*
X24747Y366369D01*
X25254Y364695D01*
X26079Y363152D01*
X27189Y361799D01*
X28542Y360689D01*
X30085Y359865D01*
X31759Y359357D01*
X33500Y359185D01*
X35241Y359357D01*
X36915Y359865D01*
X38458Y360689D01*
X39811Y361799D01*
X40921Y363152D01*
X41745Y364695D01*
X42253Y366369D01*
X42425Y368110D01*
X42253Y369851D01*
X41745Y371526D01*
X40921Y373069D01*
X39811Y374421D01*
X38458Y375531D01*
X36915Y376356D01*
X35241Y376864D01*
X33500Y377035D01*
D02*
G37*
G36*
X416929Y351051D02*
X415188Y350879D01*
X413514Y350372D01*
X411971Y349547D01*
X410618Y348437D01*
X409508Y347084D01*
X408684Y345541D01*
X408176Y343867D01*
X408004Y342126D01*
X408176Y340385D01*
X408684Y338711D01*
X409508Y337168D01*
X410618Y335815D01*
X411971Y334705D01*
X413514Y333880D01*
X415188Y333373D01*
X416929Y333201D01*
X418670Y333373D01*
X420344Y333880D01*
X421887Y334705D01*
X423240Y335815D01*
X424350Y337168D01*
X425175Y338711D01*
X425682Y340385D01*
X425854Y342126D01*
X425682Y343867D01*
X425175Y345541D01*
X424350Y347084D01*
X423240Y348437D01*
X421887Y349547D01*
X420344Y350372D01*
X418670Y350879D01*
X416929Y351051D01*
D02*
G37*
G36*
X33500Y337665D02*
X31759Y337494D01*
X30085Y336986D01*
X28542Y336161D01*
X27189Y335051D01*
X26079Y333699D01*
X25254Y332156D01*
X24747Y330481D01*
X24575Y328740D01*
X24747Y326999D01*
X25254Y325325D01*
X26079Y323782D01*
X27189Y322429D01*
X28542Y321319D01*
X30085Y320495D01*
X31759Y319987D01*
X33500Y319815D01*
X35241Y319987D01*
X36915Y320495D01*
X38458Y321319D01*
X39811Y322429D01*
X40921Y323782D01*
X41745Y325325D01*
X42253Y326999D01*
X42425Y328740D01*
X42253Y330481D01*
X41745Y332156D01*
X40921Y333699D01*
X39811Y335051D01*
X38458Y336161D01*
X36915Y336986D01*
X35241Y337494D01*
X33500Y337665D01*
D02*
G37*
G36*
X416929Y331366D02*
X415188Y331194D01*
X413514Y330686D01*
X411971Y329862D01*
X410618Y328752D01*
X409508Y327399D01*
X408684Y325856D01*
X408176Y324182D01*
X408004Y322441D01*
X408176Y320700D01*
X408684Y319025D01*
X409508Y317482D01*
X410618Y316130D01*
X411971Y315020D01*
X413514Y314195D01*
X415188Y313688D01*
X416929Y313516D01*
X418670Y313688D01*
X420344Y314195D01*
X421887Y315020D01*
X423240Y316130D01*
X424350Y317482D01*
X425175Y319025D01*
X425682Y320700D01*
X425854Y322441D01*
X425682Y324182D01*
X425175Y325856D01*
X424350Y327399D01*
X423240Y328752D01*
X421887Y329862D01*
X420344Y330686D01*
X418670Y331194D01*
X416929Y331366D01*
D02*
G37*
G36*
X188583Y344192D02*
X187539Y344055D01*
X186565Y343652D01*
X185730Y343010D01*
X185089Y342175D01*
X184686Y341202D01*
X184548Y340158D01*
Y311811D01*
X184686Y310767D01*
X185089Y309794D01*
X185730Y308958D01*
X186565Y308317D01*
X187539Y307914D01*
X188583Y307776D01*
X189627Y307914D01*
X190600Y308317D01*
X191436Y308958D01*
X192077Y309794D01*
X192480Y310767D01*
X192617Y311811D01*
Y340158D01*
X192480Y341202D01*
X192077Y342175D01*
X191436Y343010D01*
X190600Y343652D01*
X189627Y344055D01*
X188583Y344192D01*
D02*
G37*
G36*
X331740Y289375D02*
Y285835D01*
X335280D01*
X335206Y286397D01*
X334796Y287388D01*
X334143Y288238D01*
X333293Y288891D01*
X332303Y289301D01*
X331740Y289375D01*
D02*
G37*
G36*
X330740D02*
X330177Y289301D01*
X329187Y288891D01*
X328337Y288238D01*
X327684Y287388D01*
X327274Y286397D01*
X327200Y285835D01*
X330740D01*
Y289375D01*
D02*
G37*
G36*
X335280Y284835D02*
X331740D01*
Y281294D01*
X332303Y281369D01*
X333293Y281779D01*
X334143Y282431D01*
X334796Y283282D01*
X335206Y284272D01*
X335280Y284835D01*
D02*
G37*
G36*
X330740D02*
X327200D01*
X327274Y284272D01*
X327684Y283282D01*
X328337Y282431D01*
X329187Y281779D01*
X330177Y281369D01*
X330740Y281294D01*
Y284835D01*
D02*
G37*
G36*
X321240Y289945D02*
X320047Y289788D01*
X318935Y289327D01*
X317980Y288595D01*
X317248Y287640D01*
X316787Y286528D01*
X316630Y285335D01*
X316787Y284141D01*
X317248Y283030D01*
X317980Y282075D01*
X318935Y281342D01*
X320047Y280881D01*
X321240Y280724D01*
X322433Y280881D01*
X323545Y281342D01*
X324500Y282075D01*
X325233Y283030D01*
X325693Y284141D01*
X325851Y285335D01*
X325693Y286528D01*
X325233Y287640D01*
X324500Y288595D01*
X323545Y289327D01*
X322433Y289788D01*
X321240Y289945D01*
D02*
G37*
G36*
X311240D02*
X310047Y289788D01*
X308935Y289327D01*
X307980Y288595D01*
X307247Y287640D01*
X306787Y286528D01*
X306630Y285335D01*
X306787Y284141D01*
X307247Y283030D01*
X307980Y282075D01*
X308935Y281342D01*
X310047Y280881D01*
X311240Y280724D01*
X312433Y280881D01*
X313545Y281342D01*
X314500Y282075D01*
X315233Y283030D01*
X315693Y284141D01*
X315850Y285335D01*
X315693Y286528D01*
X315233Y287640D01*
X314500Y288595D01*
X313545Y289327D01*
X312433Y289788D01*
X311240Y289945D01*
D02*
G37*
G36*
X281240D02*
X280047Y289788D01*
X278935Y289327D01*
X277980Y288595D01*
X277248Y287640D01*
X276787Y286528D01*
X276630Y285335D01*
X276787Y284141D01*
X277248Y283030D01*
X277980Y282075D01*
X278935Y281342D01*
X280047Y280881D01*
X281240Y280724D01*
X282433Y280881D01*
X283545Y281342D01*
X284500Y282075D01*
X285233Y283030D01*
X285693Y284141D01*
X285851Y285335D01*
X285693Y286528D01*
X285233Y287640D01*
X284500Y288595D01*
X283545Y289327D01*
X282433Y289788D01*
X281240Y289945D01*
D02*
G37*
G36*
X271240D02*
X270047Y289788D01*
X268935Y289327D01*
X267980Y288595D01*
X267248Y287640D01*
X266787Y286528D01*
X266630Y285335D01*
X266787Y284141D01*
X267248Y283030D01*
X267980Y282075D01*
X268935Y281342D01*
X270047Y280881D01*
X271240Y280724D01*
X272433Y280881D01*
X273545Y281342D01*
X274500Y282075D01*
X275233Y283030D01*
X275693Y284141D01*
X275851Y285335D01*
X275693Y286528D01*
X275233Y287640D01*
X274500Y288595D01*
X273545Y289327D01*
X272433Y289788D01*
X271240Y289945D01*
D02*
G37*
G36*
X261240D02*
X260047Y289788D01*
X258935Y289327D01*
X257980Y288595D01*
X257247Y287640D01*
X256787Y286528D01*
X256630Y285335D01*
X256787Y284141D01*
X257247Y283030D01*
X257980Y282075D01*
X258935Y281342D01*
X260047Y280881D01*
X261240Y280724D01*
X262433Y280881D01*
X263545Y281342D01*
X264500Y282075D01*
X265233Y283030D01*
X265693Y284141D01*
X265850Y285335D01*
X265693Y286528D01*
X265233Y287640D01*
X264500Y288595D01*
X263545Y289327D01*
X262433Y289788D01*
X261240Y289945D01*
D02*
G37*
G36*
X33500Y298295D02*
X31759Y298124D01*
X30085Y297616D01*
X28542Y296791D01*
X27189Y295681D01*
X26079Y294328D01*
X25254Y292786D01*
X24747Y291111D01*
X24575Y289370D01*
X24747Y287629D01*
X25254Y285955D01*
X26079Y284412D01*
X27189Y283059D01*
X28542Y281949D01*
X30085Y281125D01*
X31759Y280617D01*
X33500Y280445D01*
X35241Y280617D01*
X36915Y281125D01*
X38458Y281949D01*
X39811Y283059D01*
X40921Y284412D01*
X41745Y285955D01*
X42253Y287629D01*
X42425Y289370D01*
X42253Y291111D01*
X41745Y292786D01*
X40921Y294328D01*
X39811Y295681D01*
X38458Y296791D01*
X36915Y297616D01*
X35241Y298124D01*
X33500Y298295D01*
D02*
G37*
G36*
X415748Y266405D02*
X414007Y266234D01*
X412333Y265726D01*
X410790Y264901D01*
X409437Y263791D01*
X408327Y262439D01*
X407503Y260896D01*
X406995Y259222D01*
X406823Y257480D01*
X406995Y255739D01*
X407503Y254065D01*
X408327Y252522D01*
X409437Y251169D01*
X410790Y250060D01*
X412333Y249235D01*
X414007Y248727D01*
X415748Y248555D01*
X417489Y248727D01*
X419163Y249235D01*
X420706Y250060D01*
X422059Y251169D01*
X423169Y252522D01*
X423993Y254065D01*
X424501Y255739D01*
X424673Y257480D01*
X424501Y259222D01*
X423993Y260896D01*
X423169Y262439D01*
X422059Y263791D01*
X420706Y264901D01*
X419163Y265726D01*
X417489Y266234D01*
X415748Y266405D01*
D02*
G37*
G36*
X192160Y244263D02*
X190986Y244109D01*
X189891Y243655D01*
X188951Y242934D01*
X188230Y241994D01*
X187776Y240899D01*
X187622Y239724D01*
X187776Y238550D01*
X188230Y237455D01*
X188951Y236515D01*
X189891Y235794D01*
X190986Y235340D01*
X192160Y235186D01*
X193335Y235340D01*
X194430Y235794D01*
X195370Y236515D01*
X196091Y237455D01*
X196545Y238550D01*
X196699Y239724D01*
X196545Y240899D01*
X196091Y241994D01*
X195370Y242934D01*
X194430Y243655D01*
X193335Y244109D01*
X192160Y244263D01*
D02*
G37*
G36*
X65784Y243642D02*
X64525Y243518D01*
X63314Y243151D01*
X62199Y242555D01*
X61221Y241753D01*
X60419Y240775D01*
X59822Y239659D01*
X59455Y238449D01*
X59331Y237190D01*
X59455Y235931D01*
X59822Y234721D01*
X60419Y233605D01*
X61221Y232628D01*
X62199Y231825D01*
X63314Y231229D01*
X64525Y230862D01*
X65784Y230738D01*
X67042Y230862D01*
X68253Y231229D01*
X69368Y231825D01*
X70346Y232628D01*
X71148Y233605D01*
X71745Y234721D01*
X72112Y235931D01*
X72236Y237190D01*
X72112Y238449D01*
X71745Y239659D01*
X71148Y240775D01*
X70346Y241753D01*
X69368Y242555D01*
X68253Y243151D01*
X67042Y243518D01*
X65784Y243642D01*
D02*
G37*
G36*
X33500Y247114D02*
X31759Y246942D01*
X30085Y246434D01*
X28542Y245610D01*
X27189Y244500D01*
X26079Y243147D01*
X25254Y241604D01*
X24747Y239930D01*
X24575Y238189D01*
X24747Y236448D01*
X25254Y234774D01*
X26079Y233231D01*
X27189Y231878D01*
X28542Y230768D01*
X30085Y229943D01*
X31759Y229436D01*
X33500Y229264D01*
X35241Y229436D01*
X36915Y229943D01*
X38458Y230768D01*
X39811Y231878D01*
X40921Y233231D01*
X41745Y234774D01*
X42253Y236448D01*
X42425Y238189D01*
X42253Y239930D01*
X41745Y241604D01*
X40921Y243147D01*
X39811Y244500D01*
X38458Y245610D01*
X36915Y246434D01*
X35241Y246942D01*
X33500Y247114D01*
D02*
G37*
G36*
Y227429D02*
X31759Y227257D01*
X30085Y226749D01*
X28542Y225925D01*
X27189Y224815D01*
X26079Y223462D01*
X25254Y221919D01*
X24747Y220245D01*
X24575Y218504D01*
X24747Y216763D01*
X25254Y215089D01*
X26079Y213546D01*
X27189Y212193D01*
X28542Y211083D01*
X30085Y210258D01*
X31759Y209751D01*
X33500Y209579D01*
X35241Y209751D01*
X36915Y210258D01*
X38458Y211083D01*
X39811Y212193D01*
X40921Y213546D01*
X41745Y215089D01*
X42253Y216763D01*
X42425Y218504D01*
X42253Y220245D01*
X41745Y221919D01*
X40921Y223462D01*
X39811Y224815D01*
X38458Y225925D01*
X36915Y226749D01*
X35241Y227257D01*
X33500Y227429D01*
D02*
G37*
G36*
X259063Y210130D02*
Y205716D01*
X263477D01*
X263373Y206505D01*
X262876Y207706D01*
X262084Y208738D01*
X261053Y209529D01*
X259852Y210027D01*
X259063Y210130D01*
D02*
G37*
G36*
X258063D02*
X257274Y210027D01*
X256073Y209529D01*
X255042Y208738D01*
X254251Y207706D01*
X253753Y206505D01*
X253649Y205716D01*
X258063D01*
Y210130D01*
D02*
G37*
G36*
X105941Y204272D02*
X104682Y204148D01*
X103472Y203781D01*
X102356Y203185D01*
X101379Y202382D01*
X100576Y201405D01*
X99980Y200289D01*
X99613Y199079D01*
X99489Y197820D01*
X99613Y196561D01*
X99980Y195351D01*
X100576Y194235D01*
X101379Y193257D01*
X102356Y192455D01*
X103472Y191859D01*
X104682Y191491D01*
X105941Y191368D01*
X107200Y191491D01*
X108410Y191859D01*
X109526Y192455D01*
X110503Y193257D01*
X111306Y194235D01*
X111902Y195351D01*
X112269Y196561D01*
X112393Y197820D01*
X112269Y199079D01*
X111902Y200289D01*
X111306Y201405D01*
X110503Y202382D01*
X109526Y203185D01*
X108410Y203781D01*
X107200Y204148D01*
X105941Y204272D01*
D02*
G37*
G36*
X65784D02*
X64525Y204148D01*
X63314Y203781D01*
X62199Y203185D01*
X61221Y202382D01*
X60419Y201405D01*
X59822Y200289D01*
X59455Y199079D01*
X59331Y197820D01*
X59455Y196561D01*
X59822Y195351D01*
X60419Y194235D01*
X61221Y193257D01*
X62199Y192455D01*
X63314Y191859D01*
X64525Y191491D01*
X65784Y191368D01*
X67042Y191491D01*
X68253Y191859D01*
X69368Y192455D01*
X70346Y193257D01*
X71148Y194235D01*
X71745Y195351D01*
X72112Y196561D01*
X72236Y197820D01*
X72112Y199079D01*
X71745Y200289D01*
X71148Y201405D01*
X70346Y202382D01*
X69368Y203185D01*
X68253Y203781D01*
X67042Y204148D01*
X65784Y204272D01*
D02*
G37*
G36*
X33500Y207744D02*
X31759Y207572D01*
X30085Y207064D01*
X28542Y206240D01*
X27189Y205130D01*
X26079Y203777D01*
X25254Y202234D01*
X24747Y200560D01*
X24575Y198819D01*
X24747Y197078D01*
X25254Y195404D01*
X26079Y193860D01*
X27189Y192508D01*
X28542Y191398D01*
X30085Y190573D01*
X31759Y190066D01*
X33500Y189894D01*
X35241Y190066D01*
X36915Y190573D01*
X38458Y191398D01*
X39811Y192508D01*
X40921Y193860D01*
X41745Y195404D01*
X42253Y197078D01*
X42425Y198819D01*
X42253Y200560D01*
X41745Y202234D01*
X40921Y203777D01*
X39811Y205130D01*
X38458Y206240D01*
X36915Y207064D01*
X35241Y207572D01*
X33500Y207744D01*
D02*
G37*
G36*
X139405Y176400D02*
X133905D01*
Y170900D01*
X139405D01*
Y176400D01*
D02*
G37*
G36*
X132905D02*
X127405D01*
Y170900D01*
X132905D01*
Y176400D01*
D02*
G37*
G36*
X139405Y169900D02*
X133905D01*
Y164400D01*
X139405D01*
Y169900D01*
D02*
G37*
G36*
X132905D02*
X127405D01*
Y164400D01*
X132905D01*
Y169900D01*
D02*
G37*
G36*
X427165Y170833D02*
X425077Y170668D01*
X423039Y170179D01*
X421104Y169377D01*
X419317Y168282D01*
X417724Y166922D01*
X416363Y165329D01*
X415269Y163542D01*
X414467Y161606D01*
X413978Y159569D01*
X413813Y157480D01*
X413978Y155392D01*
X414467Y153354D01*
X415269Y151419D01*
X416363Y149632D01*
X417724Y148039D01*
X419317Y146678D01*
X421104Y145583D01*
X423039Y144782D01*
X425077Y144292D01*
X427165Y144128D01*
X429254Y144292D01*
X431291Y144782D01*
X433227Y145583D01*
X435014Y146678D01*
X436607Y148039D01*
X437967Y149632D01*
X439062Y151419D01*
X439864Y153354D01*
X440353Y155392D01*
X440518Y157480D01*
X440353Y159569D01*
X439864Y161606D01*
X439062Y163542D01*
X437967Y165329D01*
X436607Y166922D01*
X435014Y168282D01*
X433227Y169377D01*
X431291Y170179D01*
X429254Y170668D01*
X427165Y170833D01*
D02*
G37*
G36*
X182660Y83693D02*
Y80224D01*
X186129D01*
X186057Y80769D01*
X185654Y81742D01*
X185013Y82577D01*
X184178Y83218D01*
X183205Y83622D01*
X182660Y83693D01*
D02*
G37*
G36*
X181660D02*
X181116Y83622D01*
X180143Y83218D01*
X179308Y82577D01*
X178666Y81742D01*
X178263Y80769D01*
X178192Y80224D01*
X181660D01*
Y83693D01*
D02*
G37*
G36*
X186129Y79224D02*
X182660D01*
Y75756D01*
X183205Y75827D01*
X184178Y76230D01*
X185013Y76872D01*
X185654Y77707D01*
X186057Y78680D01*
X186129Y79224D01*
D02*
G37*
G36*
X181660D02*
X178192D01*
X178263Y78680D01*
X178666Y77707D01*
X179308Y76872D01*
X180143Y76230D01*
X181116Y75827D01*
X181660Y75756D01*
Y79224D01*
D02*
G37*
G36*
X212160Y84263D02*
X210986Y84109D01*
X209891Y83655D01*
X208951Y82934D01*
X208230Y81994D01*
X207776Y80899D01*
X207622Y79724D01*
X207776Y78550D01*
X208230Y77455D01*
X208951Y76515D01*
X209891Y75794D01*
X210986Y75340D01*
X212160Y75186D01*
X213335Y75340D01*
X214430Y75794D01*
X215370Y76515D01*
X216091Y77455D01*
X216545Y78550D01*
X216699Y79724D01*
X216545Y80899D01*
X216091Y81994D01*
X215370Y82934D01*
X214430Y83655D01*
X213335Y84109D01*
X212160Y84263D01*
D02*
G37*
G36*
X202160D02*
X200986Y84109D01*
X199891Y83655D01*
X198951Y82934D01*
X198230Y81994D01*
X197776Y80899D01*
X197622Y79724D01*
X197776Y78550D01*
X198230Y77455D01*
X198951Y76515D01*
X199891Y75794D01*
X200986Y75340D01*
X202160Y75186D01*
X203335Y75340D01*
X204430Y75794D01*
X205370Y76515D01*
X206091Y77455D01*
X206545Y78550D01*
X206699Y79724D01*
X206545Y80899D01*
X206091Y81994D01*
X205370Y82934D01*
X204430Y83655D01*
X203335Y84109D01*
X202160Y84263D01*
D02*
G37*
G36*
X192160D02*
X190986Y84109D01*
X189891Y83655D01*
X188951Y82934D01*
X188230Y81994D01*
X187776Y80899D01*
X187622Y79724D01*
X187776Y78550D01*
X188230Y77455D01*
X188951Y76515D01*
X189891Y75794D01*
X190986Y75340D01*
X192160Y75186D01*
X193335Y75340D01*
X194430Y75794D01*
X195370Y76515D01*
X196091Y77455D01*
X196545Y78550D01*
X196699Y79724D01*
X196545Y80899D01*
X196091Y81994D01*
X195370Y82934D01*
X194430Y83655D01*
X193335Y84109D01*
X192160Y84263D01*
D02*
G37*
G36*
X21760Y40263D02*
Y32390D01*
X29633D01*
X29520Y33533D01*
X29041Y35113D01*
X28263Y36569D01*
X27215Y37845D01*
X25939Y38893D01*
X24483Y39671D01*
X22903Y40150D01*
X21760Y40263D01*
D02*
G37*
G36*
X20760D02*
X19617Y40150D01*
X18037Y39671D01*
X16581Y38893D01*
X15304Y37845D01*
X14257Y36569D01*
X13478Y35113D01*
X12999Y33533D01*
X12887Y32390D01*
X20760D01*
Y40263D01*
D02*
G37*
G36*
X226189Y36499D02*
Y28626D01*
X234062D01*
X233950Y29769D01*
X233470Y31349D01*
X232692Y32805D01*
X231645Y34082D01*
X230368Y35129D01*
X228912Y35907D01*
X227332Y36387D01*
X226189Y36499D01*
D02*
G37*
G36*
X225189D02*
X224046Y36387D01*
X222466Y35907D01*
X221010Y35129D01*
X219733Y34082D01*
X218686Y32805D01*
X217908Y31349D01*
X217428Y29769D01*
X217316Y28626D01*
X225189D01*
Y36499D01*
D02*
G37*
G36*
X29633Y31390D02*
X21760D01*
Y23517D01*
X22903Y23629D01*
X24483Y24108D01*
X25939Y24887D01*
X27215Y25934D01*
X28263Y27211D01*
X29041Y28667D01*
X29520Y30247D01*
X29633Y31390D01*
D02*
G37*
G36*
X20760D02*
X12887D01*
X12999Y30247D01*
X13478Y28667D01*
X14257Y27211D01*
X15304Y25934D01*
X16581Y24887D01*
X18037Y24108D01*
X19617Y23629D01*
X20760Y23517D01*
Y31390D01*
D02*
G37*
G36*
X234062Y27626D02*
X226189D01*
Y19753D01*
X227332Y19865D01*
X228912Y20345D01*
X230368Y21123D01*
X231645Y22170D01*
X232692Y23447D01*
X233470Y24903D01*
X233950Y26483D01*
X234062Y27626D01*
D02*
G37*
G36*
X225189D02*
X217316D01*
X217428Y26483D01*
X217908Y24903D01*
X218686Y23447D01*
X219733Y22170D01*
X221010Y21123D01*
X222466Y20345D01*
X224046Y19865D01*
X225189Y19753D01*
Y27626D01*
D02*
G37*
G36*
X431890Y37051D02*
X430149Y36879D01*
X428474Y36371D01*
X426931Y35547D01*
X425579Y34437D01*
X424469Y33084D01*
X423644Y31541D01*
X423136Y29867D01*
X422965Y28126D01*
X423136Y26385D01*
X423644Y24711D01*
X424469Y23168D01*
X425579Y21815D01*
X426931Y20705D01*
X428474Y19881D01*
X430149Y19373D01*
X431890Y19201D01*
X433631Y19373D01*
X435305Y19881D01*
X436848Y20705D01*
X438201Y21815D01*
X439311Y23168D01*
X440135Y24711D01*
X440643Y26385D01*
X440815Y28126D01*
X440643Y29867D01*
X440135Y31541D01*
X439311Y33084D01*
X438201Y34437D01*
X436848Y35547D01*
X435305Y36371D01*
X433631Y36879D01*
X431890Y37051D01*
D02*
G37*
G36*
X412205D02*
X410464Y36879D01*
X408789Y36371D01*
X407246Y35547D01*
X405894Y34437D01*
X404784Y33084D01*
X403959Y31541D01*
X403451Y29867D01*
X403280Y28126D01*
X403451Y26385D01*
X403959Y24711D01*
X404784Y23168D01*
X405894Y21815D01*
X407246Y20705D01*
X408789Y19881D01*
X410464Y19373D01*
X412205Y19201D01*
X413946Y19373D01*
X415620Y19881D01*
X417163Y20705D01*
X418516Y21815D01*
X419626Y23168D01*
X420450Y24711D01*
X420958Y26385D01*
X421130Y28126D01*
X420958Y29867D01*
X420450Y31541D01*
X419626Y33084D01*
X418516Y34437D01*
X417163Y35547D01*
X415620Y36371D01*
X413946Y36879D01*
X412205Y37051D01*
D02*
G37*
G36*
X392520D02*
X390778Y36879D01*
X389104Y36371D01*
X387561Y35547D01*
X386209Y34437D01*
X385099Y33084D01*
X384274Y31541D01*
X383766Y29867D01*
X383595Y28126D01*
X383766Y26385D01*
X384274Y24711D01*
X385099Y23168D01*
X386209Y21815D01*
X387561Y20705D01*
X389104Y19881D01*
X390778Y19373D01*
X392520Y19201D01*
X394261Y19373D01*
X395935Y19881D01*
X397478Y20705D01*
X398831Y21815D01*
X399940Y23168D01*
X400765Y24711D01*
X401273Y26385D01*
X401445Y28126D01*
X401273Y29867D01*
X400765Y31541D01*
X399940Y33084D01*
X398831Y34437D01*
X397478Y35547D01*
X395935Y36371D01*
X394261Y36879D01*
X392520Y37051D01*
D02*
G37*
G36*
X372835D02*
X371094Y36879D01*
X369419Y36371D01*
X367876Y35547D01*
X366524Y34437D01*
X365414Y33084D01*
X364589Y31541D01*
X364081Y29867D01*
X363910Y28126D01*
X364081Y26385D01*
X364589Y24711D01*
X365414Y23168D01*
X366524Y21815D01*
X367876Y20705D01*
X369419Y19881D01*
X371094Y19373D01*
X372835Y19201D01*
X374576Y19373D01*
X376250Y19881D01*
X377793Y20705D01*
X379146Y21815D01*
X380255Y23168D01*
X381080Y24711D01*
X381588Y26385D01*
X381760Y28126D01*
X381588Y29867D01*
X381080Y31541D01*
X380255Y33084D01*
X379146Y34437D01*
X377793Y35547D01*
X376250Y36371D01*
X374576Y36879D01*
X372835Y37051D01*
D02*
G37*
G36*
X353150D02*
X351409Y36879D01*
X349734Y36371D01*
X348191Y35547D01*
X346839Y34437D01*
X345729Y33084D01*
X344904Y31541D01*
X344396Y29867D01*
X344225Y28126D01*
X344396Y26385D01*
X344904Y24711D01*
X345729Y23168D01*
X346839Y21815D01*
X348191Y20705D01*
X349734Y19881D01*
X351409Y19373D01*
X353150Y19201D01*
X354891Y19373D01*
X356565Y19881D01*
X358108Y20705D01*
X359460Y21815D01*
X360570Y23168D01*
X361395Y24711D01*
X361903Y26385D01*
X362074Y28126D01*
X361903Y29867D01*
X361395Y31541D01*
X360570Y33084D01*
X359460Y34437D01*
X358108Y35547D01*
X356565Y36371D01*
X354891Y36879D01*
X353150Y37051D01*
D02*
G37*
G36*
X333465D02*
X331723Y36879D01*
X330049Y36371D01*
X328506Y35547D01*
X327154Y34437D01*
X326044Y33084D01*
X325219Y31541D01*
X324711Y29867D01*
X324540Y28126D01*
X324711Y26385D01*
X325219Y24711D01*
X326044Y23168D01*
X327154Y21815D01*
X328506Y20705D01*
X330049Y19881D01*
X331723Y19373D01*
X333465Y19201D01*
X335206Y19373D01*
X336880Y19881D01*
X338423Y20705D01*
X339775Y21815D01*
X340885Y23168D01*
X341710Y24711D01*
X342218Y26385D01*
X342389Y28126D01*
X342218Y29867D01*
X341710Y31541D01*
X340885Y33084D01*
X339775Y34437D01*
X338423Y35547D01*
X336880Y36371D01*
X335206Y36879D01*
X333465Y37051D01*
D02*
G37*
G36*
X313779D02*
X312038Y36879D01*
X310364Y36371D01*
X308821Y35547D01*
X307469Y34437D01*
X306359Y33084D01*
X305534Y31541D01*
X305026Y29867D01*
X304855Y28126D01*
X305026Y26385D01*
X305534Y24711D01*
X306359Y23168D01*
X307469Y21815D01*
X308821Y20705D01*
X310364Y19881D01*
X312038Y19373D01*
X313779Y19201D01*
X315521Y19373D01*
X317195Y19881D01*
X318738Y20705D01*
X320090Y21815D01*
X321200Y23168D01*
X322025Y24711D01*
X322533Y26385D01*
X322704Y28126D01*
X322533Y29867D01*
X322025Y31541D01*
X321200Y33084D01*
X320090Y34437D01*
X318738Y35547D01*
X317195Y36371D01*
X315521Y36879D01*
X313779Y37051D01*
D02*
G37*
G36*
X294094D02*
X292353Y36879D01*
X290679Y36371D01*
X289136Y35547D01*
X287784Y34437D01*
X286674Y33084D01*
X285849Y31541D01*
X285341Y29867D01*
X285170Y28126D01*
X285341Y26385D01*
X285849Y24711D01*
X286674Y23168D01*
X287784Y21815D01*
X289136Y20705D01*
X290679Y19881D01*
X292353Y19373D01*
X294094Y19201D01*
X295836Y19373D01*
X297510Y19881D01*
X299053Y20705D01*
X300405Y21815D01*
X301515Y23168D01*
X302340Y24711D01*
X302848Y26385D01*
X303019Y28126D01*
X302848Y29867D01*
X302340Y31541D01*
X301515Y33084D01*
X300405Y34437D01*
X299053Y35547D01*
X297510Y36371D01*
X295836Y36879D01*
X294094Y37051D01*
D02*
G37*
G36*
X274410D02*
X272668Y36879D01*
X270994Y36371D01*
X269451Y35547D01*
X268099Y34437D01*
X266989Y33084D01*
X266164Y31541D01*
X265656Y29867D01*
X265485Y28126D01*
X265656Y26385D01*
X266164Y24711D01*
X266989Y23168D01*
X268099Y21815D01*
X269451Y20705D01*
X270994Y19881D01*
X272668Y19373D01*
X274410Y19201D01*
X276151Y19373D01*
X277825Y19881D01*
X279368Y20705D01*
X280720Y21815D01*
X281830Y23168D01*
X282655Y24711D01*
X283163Y26385D01*
X283334Y28126D01*
X283163Y29867D01*
X282655Y31541D01*
X281830Y33084D01*
X280720Y34437D01*
X279368Y35547D01*
X277825Y36371D01*
X276151Y36879D01*
X274410Y37051D01*
D02*
G37*
G36*
X254724D02*
X252983Y36879D01*
X251309Y36371D01*
X249766Y35547D01*
X248414Y34437D01*
X247304Y33084D01*
X246479Y31541D01*
X245971Y29867D01*
X245799Y28126D01*
X245971Y26385D01*
X246479Y24711D01*
X247304Y23168D01*
X248414Y21815D01*
X249766Y20705D01*
X251309Y19881D01*
X252983Y19373D01*
X254724Y19201D01*
X256466Y19373D01*
X258140Y19881D01*
X259683Y20705D01*
X261035Y21815D01*
X262145Y23168D01*
X262970Y24711D01*
X263478Y26385D01*
X263649Y28126D01*
X263478Y29867D01*
X262970Y31541D01*
X262145Y33084D01*
X261035Y34437D01*
X259683Y35547D01*
X258140Y36371D01*
X256466Y36879D01*
X254724Y37051D01*
D02*
G37*
G36*
X206004D02*
X204263Y36879D01*
X202589Y36371D01*
X201046Y35547D01*
X199693Y34437D01*
X198583Y33084D01*
X197758Y31541D01*
X197251Y29867D01*
X197079Y28126D01*
X197251Y26385D01*
X197758Y24711D01*
X198583Y23168D01*
X199693Y21815D01*
X201046Y20705D01*
X202589Y19881D01*
X204263Y19373D01*
X206004Y19201D01*
X207745Y19373D01*
X209419Y19881D01*
X210962Y20705D01*
X212315Y21815D01*
X213425Y23168D01*
X214249Y24711D01*
X214757Y26385D01*
X214929Y28126D01*
X214757Y29867D01*
X214249Y31541D01*
X213425Y33084D01*
X212315Y34437D01*
X210962Y35547D01*
X209419Y36371D01*
X207745Y36879D01*
X206004Y37051D01*
D02*
G37*
G36*
X186319D02*
X184578Y36879D01*
X182904Y36371D01*
X181360Y35547D01*
X180008Y34437D01*
X178898Y33084D01*
X178073Y31541D01*
X177566Y29867D01*
X177394Y28126D01*
X177566Y26385D01*
X178073Y24711D01*
X178898Y23168D01*
X180008Y21815D01*
X181360Y20705D01*
X182904Y19881D01*
X184578Y19373D01*
X186319Y19201D01*
X188060Y19373D01*
X189734Y19881D01*
X191277Y20705D01*
X192630Y21815D01*
X193740Y23168D01*
X194564Y24711D01*
X195072Y26385D01*
X195244Y28126D01*
X195072Y29867D01*
X194564Y31541D01*
X193740Y33084D01*
X192630Y34437D01*
X191277Y35547D01*
X189734Y36371D01*
X188060Y36879D01*
X186319Y37051D01*
D02*
G37*
G36*
X166634D02*
X164893Y36879D01*
X163218Y36371D01*
X161676Y35547D01*
X160323Y34437D01*
X159213Y33084D01*
X158388Y31541D01*
X157880Y29867D01*
X157709Y28126D01*
X157880Y26385D01*
X158388Y24711D01*
X159213Y23168D01*
X160323Y21815D01*
X161676Y20705D01*
X163218Y19881D01*
X164893Y19373D01*
X166634Y19201D01*
X168375Y19373D01*
X170049Y19881D01*
X171592Y20705D01*
X172945Y21815D01*
X174055Y23168D01*
X174879Y24711D01*
X175387Y26385D01*
X175559Y28126D01*
X175387Y29867D01*
X174879Y31541D01*
X174055Y33084D01*
X172945Y34437D01*
X171592Y35547D01*
X170049Y36371D01*
X168375Y36879D01*
X166634Y37051D01*
D02*
G37*
G36*
X94488Y40336D02*
X92400Y40172D01*
X90362Y39682D01*
X88426Y38881D01*
X86640Y37786D01*
X85047Y36425D01*
X83686Y34832D01*
X82591Y33046D01*
X81789Y31110D01*
X81300Y29072D01*
X81136Y26984D01*
X81300Y24895D01*
X81789Y22858D01*
X82591Y20922D01*
X83686Y19136D01*
X85047Y17542D01*
X86640Y16182D01*
X88426Y15087D01*
X90362Y14285D01*
X92400Y13796D01*
X94488Y13632D01*
X96577Y13796D01*
X98614Y14285D01*
X100550Y15087D01*
X102336Y16182D01*
X103930Y17542D01*
X105290Y19136D01*
X106385Y20922D01*
X107187Y22858D01*
X107676Y24895D01*
X107840Y26984D01*
X107676Y29072D01*
X107187Y31110D01*
X106385Y33046D01*
X105290Y34832D01*
X103930Y36425D01*
X102336Y37786D01*
X100550Y38881D01*
X98614Y39682D01*
X96577Y40172D01*
X94488Y40336D01*
D02*
G37*
G36*
X139405Y18300D02*
X133905D01*
Y12800D01*
X139405D01*
Y18300D01*
D02*
G37*
G36*
X132905D02*
X127405D01*
Y12800D01*
X132905D01*
Y18300D01*
D02*
G37*
G36*
X139405Y11800D02*
X133905D01*
Y6300D01*
X139405D01*
Y11800D01*
D02*
G37*
G36*
X132905D02*
X127405D01*
Y6300D01*
X132905D01*
Y11800D01*
D02*
G37*
G36*
X68505Y18800D02*
X55505D01*
Y5800D01*
X68505D01*
Y18800D01*
D02*
G37*
%LPD*%
G36*
X41236Y656235D02*
X41786Y655782D01*
X42352Y655382D01*
X42936Y655035D01*
X43538Y654742D01*
X44157Y654502D01*
X44793Y654315D01*
X45447Y654181D01*
X46119Y654102D01*
X46808Y654075D01*
Y649075D01*
X46119Y649048D01*
X45447Y648968D01*
X44793Y648835D01*
X44157Y648648D01*
X43538Y648408D01*
X42936Y648115D01*
X42352Y647768D01*
X41786Y647368D01*
X41236Y646914D01*
X40705Y646408D01*
Y656742D01*
X41236Y656235D01*
D02*
G37*
G36*
X41354Y636401D02*
X41889Y635938D01*
X42444Y635530D01*
X43019Y635176D01*
X43613Y634877D01*
X44226Y634632D01*
X44859Y634442D01*
X45511Y634306D01*
X46183Y634224D01*
X46874Y634197D01*
X46735Y629197D01*
X46049Y629171D01*
X45378Y629092D01*
X44722Y628962D01*
X44082Y628779D01*
X43458Y628544D01*
X42849Y628257D01*
X42255Y627918D01*
X41677Y627526D01*
X41115Y627082D01*
X40568Y626586D01*
X40838Y636917D01*
X41354Y636401D01*
D02*
G37*
G36*
X417048Y354430D02*
X416311Y354394D01*
X415599Y354310D01*
X414914Y354178D01*
X414254Y353999D01*
X413621Y353771D01*
X413013Y353496D01*
X412431Y353172D01*
X411875Y352801D01*
X411345Y352382D01*
X410842Y351915D01*
X407208Y355352D01*
X407677Y355860D01*
X408095Y356393D01*
X408460Y356950D01*
X408773Y357533D01*
X409033Y358139D01*
X409241Y358771D01*
X409398Y359427D01*
X409501Y360108D01*
X409553Y360814D01*
X409552Y361544D01*
X417048Y354430D01*
D02*
G37*
G36*
X408404Y305131D02*
X408939Y304725D01*
X409490Y304388D01*
X410058Y304120D01*
X410642Y303922D01*
X411242Y303794D01*
X411859Y303734D01*
X412493Y303745D01*
X413142Y303824D01*
X413808Y303973D01*
X408588Y295054D01*
X408388Y295782D01*
X407903Y297156D01*
X407618Y297802D01*
X407305Y298421D01*
X406965Y299012D01*
X406596Y299575D01*
X406198Y300111D01*
X405773Y300620D01*
X405320Y301101D01*
X407885Y305607D01*
X408404Y305131D01*
D02*
G37*
G36*
X408239Y285336D02*
X408778Y284927D01*
X409332Y284589D01*
X409900Y284323D01*
X410483Y284128D01*
X411080Y284006D01*
X411692Y283955D01*
X412318Y283976D01*
X412959Y284068D01*
X413615Y284232D01*
X408640Y275174D01*
X408421Y275896D01*
X407905Y277259D01*
X407609Y277899D01*
X406938Y279099D01*
X406564Y279659D01*
X406164Y280191D01*
X405738Y280697D01*
X405287Y281175D01*
X407715Y285817D01*
X408239Y285336D01*
D02*
G37*
G36*
X33426Y509325D02*
X33350Y509294D01*
X33217Y509201D01*
X33025Y509045D01*
X32103Y508201D01*
X30064Y506199D01*
X22993Y513270D01*
X26118Y516633D01*
X33426Y509325D01*
D02*
G37*
G36*
X28228Y472169D02*
X28153Y472201D01*
X27992Y472230D01*
X27746Y472255D01*
X26498Y472310D01*
X23640Y472337D01*
Y482337D01*
X28228Y482504D01*
Y472169D01*
D02*
G37*
G36*
Y432799D02*
X28153Y432831D01*
X27992Y432860D01*
X27746Y432885D01*
X26498Y432940D01*
X23640Y432967D01*
Y442967D01*
X28228Y443134D01*
Y432799D01*
D02*
G37*
G36*
Y382628D02*
X28153Y382660D01*
X27992Y382688D01*
X27746Y382713D01*
X26498Y382769D01*
X23640Y382795D01*
Y392795D01*
X28228Y392963D01*
Y382628D01*
D02*
G37*
G36*
Y343258D02*
X28153Y343290D01*
X27992Y343318D01*
X27746Y343343D01*
X26498Y343398D01*
X23640Y343425D01*
Y353425D01*
X28228Y353592D01*
Y343258D01*
D02*
G37*
G36*
Y303888D02*
X28153Y303920D01*
X27992Y303948D01*
X27746Y303973D01*
X26498Y304028D01*
X23640Y304055D01*
Y314055D01*
X28228Y314222D01*
Y303888D01*
D02*
G37*
G36*
X46112Y37161D02*
X35778D01*
X35809Y37237D01*
X35838Y37398D01*
X35863Y37643D01*
X35918Y38892D01*
X35945Y41750D01*
X45945D01*
X46112Y37161D01*
D02*
G37*
G36*
X411794Y430130D02*
X411247Y430626D01*
X410685Y431069D01*
X410107Y431461D01*
X409513Y431800D01*
X408904Y432088D01*
X408280Y432322D01*
X407640Y432505D01*
X406984Y432636D01*
X406313Y432714D01*
X405627Y432740D01*
X405488Y437740D01*
X406179Y437767D01*
X406851Y437849D01*
X407503Y437985D01*
X408136Y438175D01*
X408750Y438420D01*
X409343Y438720D01*
X409918Y439073D01*
X410473Y439481D01*
X411008Y439944D01*
X411524Y440461D01*
X411794Y430130D01*
D02*
G37*
G36*
X411657Y410581D02*
X411126Y411088D01*
X410577Y411541D01*
X410010Y411941D01*
X409426Y412288D01*
X408824Y412581D01*
X408205Y412821D01*
X407569Y413008D01*
X406915Y413141D01*
X406243Y413221D01*
X405554Y413248D01*
Y418248D01*
X406243Y418275D01*
X406915Y418355D01*
X407569Y418488D01*
X408205Y418675D01*
X408824Y418915D01*
X409426Y419208D01*
X410010Y419555D01*
X410577Y419955D01*
X411126Y420409D01*
X411657Y420915D01*
Y410581D01*
D02*
G37*
G36*
X416855Y388682D02*
X416121Y388664D01*
X415412Y388596D01*
X414728Y388478D01*
X414070Y388311D01*
X413438Y388093D01*
X412830Y387825D01*
X412248Y387507D01*
X411691Y387139D01*
X411160Y386720D01*
X410654Y386252D01*
X407118Y389788D01*
X407586Y390294D01*
X408005Y390825D01*
X408373Y391382D01*
X408691Y391964D01*
X408959Y392571D01*
X409177Y393204D01*
X409345Y393862D01*
X409462Y394546D01*
X409530Y395255D01*
X409548Y395989D01*
X416855Y388682D01*
D02*
G37*
D54*
X73665Y576415D02*
Y576583D01*
X416736Y435240D02*
X416929Y435433D01*
X401568Y435240D02*
X416736D01*
X416929Y361538D02*
Y361811D01*
X413106Y296850D02*
X415748D01*
X233159Y404870D02*
X281705D01*
X301240Y385335D01*
X35626Y631697D02*
X81834D01*
X163055Y474974D02*
X233159Y404870D01*
X71149Y651575D02*
X169555Y553168D01*
X285205Y411370D02*
X311240Y385335D01*
X235851Y411370D02*
X285205D01*
X169555Y477666D02*
X235851Y411370D01*
X35433Y651575D02*
X71149D01*
X238544Y417870D02*
X288705D01*
X179626Y476788D02*
Y586268D01*
X188583Y311811D02*
Y340158D01*
X220442Y294537D02*
Y303543D01*
X211240Y285335D02*
X220442Y294537D01*
X288775Y441452D02*
X392406D01*
X271693Y424370D02*
X288775Y441452D01*
X288705Y417870D02*
X321240Y385335D01*
X179626Y476788D02*
X238544Y417870D01*
X398156Y342765D02*
X416929Y361538D01*
X382425Y310339D02*
X398156Y326070D01*
Y342765D01*
X366244Y310339D02*
X382425D01*
X341240Y285335D02*
X366244Y310339D01*
X231240Y285335D02*
X268346Y322441D01*
X385335D01*
X278031Y342126D02*
X385335D01*
X221240Y285335D02*
X278031Y342126D01*
X405492Y467146D02*
X433661Y438976D01*
X405492Y467146D02*
Y478012D01*
X66713Y276418D02*
X105941Y237190D01*
X66713Y276418D02*
Y569463D01*
X73665Y576415D01*
X291122Y195217D02*
X381240Y285335D01*
X258563Y195217D02*
X291122D01*
X114568Y545432D02*
X115118Y544882D01*
X114568Y545432D02*
Y546656D01*
X104642Y556583D02*
X114568Y546656D01*
X73665Y556583D02*
X104642D01*
X105941Y214337D02*
Y237190D01*
X62005Y170400D02*
X105941Y214337D01*
X169555Y477666D02*
Y553168D01*
X81834Y631697D02*
X163055Y550476D01*
X35433Y631890D02*
X35626Y631697D01*
X163055Y474974D02*
Y550476D01*
X412831Y277165D02*
X415748D01*
X368311Y292406D02*
X397591D01*
X361240Y285335D02*
X368311Y292406D01*
X397591D02*
X412831Y277165D01*
X361240Y285335D02*
X361240D01*
X369744Y303839D02*
X406117D01*
X413106Y296850D01*
X351240Y285335D02*
X369744Y303839D01*
X406201Y385335D02*
X416929Y396063D01*
X381240Y385335D02*
X406201D01*
X401653Y415748D02*
X416929D01*
X371240Y385335D02*
X401653Y415748D01*
X381506Y405601D02*
Y415178D01*
X401568Y435240D01*
X361240Y385335D02*
X381506Y405601D01*
X235306Y262870D02*
Y269400D01*
X213285Y240849D02*
X235306Y262870D01*
X209261Y232724D02*
X248630D01*
X202261Y239724D02*
X209261Y232724D01*
X202160Y239724D02*
X202261D01*
X248630Y232724D02*
X301240Y285335D01*
X235306Y269400D02*
X251240Y285335D01*
D55*
Y360184D02*
Y385335D01*
X166160Y275104D02*
X251240Y360184D01*
X166160Y221360D02*
Y275104D01*
X271240Y375234D02*
Y385335D01*
X169660Y273654D02*
X271240Y375234D01*
X169660Y222810D02*
Y273654D01*
X281240Y380284D02*
Y385335D01*
X173160Y272205D02*
X281240Y380284D01*
X253590Y148779D02*
X386229D01*
X173160Y224260D02*
Y272205D01*
X250691Y141779D02*
X314489D01*
X269217Y118304D02*
X298594D01*
X166160Y221360D02*
X269217Y118304D01*
X153240Y317335D02*
X221240Y385335D01*
X153240Y224688D02*
X259424Y118504D01*
X350359Y145280D02*
X377335Y118304D01*
X252141Y145280D02*
X350359D01*
X176660Y225710D02*
Y270755D01*
X386229Y148779D02*
X416705Y118304D01*
X176660Y225710D02*
X253590Y148779D01*
X176660Y270755D02*
X291240Y385335D01*
X314489Y141779D02*
X337965Y118304D01*
X173160Y224260D02*
X252141Y145280D01*
X169660Y222810D02*
X250691Y141779D01*
X153240Y224688D02*
Y317335D01*
D56*
X40945Y31890D02*
Y48622D01*
X13780Y75787D02*
X40945Y48622D01*
X13780Y437967D02*
Y477337D01*
Y387795D02*
Y437967D01*
Y348425D02*
Y387795D01*
Y309055D02*
Y348425D01*
Y269685D02*
Y309055D01*
X13780Y75787D02*
X13780Y269685D01*
X33500D01*
X13780Y309055D02*
X33500D01*
X13780Y348425D02*
X33500D01*
X13780Y387795D02*
X33500D01*
X13780Y437967D02*
X33500D01*
X13780Y477337D02*
X33500D01*
X13780D02*
Y496986D01*
X33500Y516707D01*
D59*
X346787Y414007D02*
D03*
X94488Y26984D02*
D03*
X22638Y676181D02*
D03*
X427165Y157480D02*
D03*
D60*
X416929Y342126D02*
D03*
Y322441D02*
D03*
Y361811D02*
D03*
Y415748D02*
D03*
Y396063D02*
D03*
Y435433D02*
D03*
X415748Y277165D02*
D03*
Y257480D02*
D03*
Y296850D02*
D03*
X35433Y651575D02*
D03*
Y631890D02*
D03*
X33500Y218504D02*
D03*
Y238189D02*
D03*
Y198819D02*
D03*
Y407480D02*
D03*
Y387795D02*
D03*
Y368110D02*
D03*
Y348425D02*
D03*
Y289370D02*
D03*
Y309055D02*
D03*
Y269685D02*
D03*
Y328740D02*
D03*
Y536392D02*
D03*
Y497022D02*
D03*
Y437967D02*
D03*
Y516707D02*
D03*
Y477337D02*
D03*
Y457652D02*
D03*
X372835Y28126D02*
D03*
X431890D02*
D03*
X392520D02*
D03*
X412205D02*
D03*
X353150D02*
D03*
X333465D02*
D03*
X313779D02*
D03*
X294094D02*
D03*
X254724D02*
D03*
X274410D02*
D03*
X35433Y586268D02*
D03*
Y605953D02*
D03*
Y566583D02*
D03*
X166634Y28126D02*
D03*
X225689D02*
D03*
X186319D02*
D03*
X206004D02*
D03*
X21260Y31890D02*
D03*
X40945D02*
D03*
D61*
X155118Y544882D02*
D03*
D62*
X145118D02*
D03*
X135118D02*
D03*
X125118D02*
D03*
X115118D02*
D03*
X105118D02*
D03*
X258563Y205217D02*
D03*
Y195217D02*
D03*
Y185216D02*
D03*
Y175216D02*
D03*
Y165217D02*
D03*
D63*
Y155217D02*
D03*
D64*
X191476Y502118D02*
D03*
X201476D02*
D03*
X191476Y512118D02*
D03*
X201476D02*
D03*
X215492Y478012D02*
D03*
X225492D02*
D03*
X235492D02*
D03*
X245492D02*
D03*
X255492D02*
D03*
X265492D02*
D03*
X215492Y488012D02*
D03*
X225492D02*
D03*
X235492D02*
D03*
X245492D02*
D03*
X255492D02*
D03*
X265492D02*
D03*
X275492Y478012D02*
D03*
Y488012D02*
D03*
X285492Y478012D02*
D03*
X295492D02*
D03*
X305492D02*
D03*
X315492D02*
D03*
X325492D02*
D03*
X335492D02*
D03*
X285492Y488012D02*
D03*
X295492D02*
D03*
X305492D02*
D03*
X315492D02*
D03*
X325492D02*
D03*
X335492D02*
D03*
X345492Y478012D02*
D03*
Y488012D02*
D03*
X355492Y478012D02*
D03*
X365492D02*
D03*
X375492D02*
D03*
X385492D02*
D03*
X395492D02*
D03*
X405492D02*
D03*
X355492Y488012D02*
D03*
X365492D02*
D03*
X375492D02*
D03*
X385492D02*
D03*
X395492D02*
D03*
X182160Y79724D02*
D03*
X192160D02*
D03*
X202160D02*
D03*
X212160D02*
D03*
Y239724D02*
D03*
X202160D02*
D03*
X192160D02*
D03*
X182160D02*
D03*
D65*
X405492Y488012D02*
D03*
D66*
X424665Y483012D02*
D03*
X196319D02*
D03*
Y675925D02*
D03*
X424665D02*
D03*
D67*
X133405Y12300D02*
D03*
X62005Y170400D02*
D03*
D68*
X133405D02*
D03*
X62005Y12300D02*
D03*
D69*
X201240Y285335D02*
D03*
D70*
X211240D02*
D03*
X381240D02*
D03*
X221240D02*
D03*
X231240D02*
D03*
X241240D02*
D03*
X251240D02*
D03*
X261240D02*
D03*
X271240D02*
D03*
X281240D02*
D03*
X291240D02*
D03*
X301240D02*
D03*
X311240D02*
D03*
X321240D02*
D03*
X331240D02*
D03*
X341240D02*
D03*
X351240D02*
D03*
X361240D02*
D03*
X371240D02*
D03*
X201240Y385335D02*
D03*
X211240D02*
D03*
X221240D02*
D03*
X231240D02*
D03*
X241240D02*
D03*
X251240D02*
D03*
X261240D02*
D03*
X271240D02*
D03*
X281240D02*
D03*
X291240D02*
D03*
X301240D02*
D03*
X311240D02*
D03*
X321240D02*
D03*
X331240D02*
D03*
X341240D02*
D03*
X351240D02*
D03*
X361240D02*
D03*
X371240D02*
D03*
X381240D02*
D03*
D71*
X73665Y566583D02*
D03*
Y576583D02*
D03*
D72*
Y556583D02*
D03*
D73*
X115784Y217505D02*
D03*
D74*
X65784Y197820D02*
D03*
X105941D02*
D03*
X65784Y237190D02*
D03*
X105941D02*
D03*
D75*
X400000Y650000D02*
D03*
Y600000D02*
D03*
Y550000D02*
D03*
Y200000D02*
D03*
Y150000D02*
D03*
Y50000D02*
D03*
X350000Y650000D02*
D03*
Y600000D02*
D03*
Y500000D02*
D03*
Y200000D02*
D03*
Y100000D02*
D03*
Y50000D02*
D03*
X300000Y650000D02*
D03*
Y600000D02*
D03*
Y500000D02*
D03*
Y350000D02*
D03*
Y300000D02*
D03*
Y250000D02*
D03*
Y50000D02*
D03*
X250000Y650000D02*
D03*
Y600000D02*
D03*
Y500000D02*
D03*
Y250000D02*
D03*
X200000Y650000D02*
D03*
Y600000D02*
D03*
Y400000D02*
D03*
Y350000D02*
D03*
X150000Y650000D02*
D03*
Y600000D02*
D03*
Y500000D02*
D03*
Y400000D02*
D03*
Y350000D02*
D03*
Y150000D02*
D03*
Y100000D02*
D03*
X100000Y650000D02*
D03*
Y600000D02*
D03*
Y500000D02*
D03*
Y300000D02*
D03*
Y150000D02*
D03*
Y100000D02*
D03*
Y50000D02*
D03*
X50000Y600000D02*
D03*
Y550000D02*
D03*
Y450000D02*
D03*
Y400000D02*
D03*
Y300000D02*
D03*
Y250000D02*
D03*
Y150000D02*
D03*
Y100000D02*
D03*
Y50000D02*
D03*
X197160Y248336D02*
D03*
X150179Y419370D02*
D03*
X188010Y439370D02*
D03*
X155521Y468110D02*
D03*
X423565Y462303D02*
D03*
X396419Y452658D02*
D03*
X381240Y252372D02*
D03*
X236614Y173290D02*
D03*
X399391Y64370D02*
D03*
X398632Y103681D02*
D03*
X360021Y64370D02*
D03*
X359261Y103681D02*
D03*
X320651Y64370D02*
D03*
X319891Y103681D02*
D03*
X280521D02*
D03*
X281281Y64370D02*
D03*
X241911D02*
D03*
X241151Y103681D02*
D03*
X139496Y212088D02*
D03*
X123031Y293101D02*
D03*
X84941Y292341D02*
D03*
X123031Y332471D02*
D03*
X84941Y331711D02*
D03*
X123031Y371841D02*
D03*
X84941Y371081D02*
D03*
X124025Y411211D02*
D03*
X84941Y410451D02*
D03*
X124025Y461382D02*
D03*
X84941Y460622D02*
D03*
Y499993D02*
D03*
X124016Y500778D02*
D03*
X392406Y441452D02*
D03*
X188583Y311811D02*
D03*
Y340158D02*
D03*
X220442Y303543D02*
D03*
X271693Y424370D02*
D03*
X342126Y441452D02*
D03*
X362485D02*
D03*
X385335Y322441D02*
D03*
Y342126D02*
D03*
X433661Y438976D02*
D03*
X179626Y586268D02*
D03*
X416705Y118304D02*
D03*
X377335D02*
D03*
X337965D02*
D03*
X298594D02*
D03*
X259424Y118504D02*
D03*
M02*
