G04*
G04 #@! TF.GenerationSoftware,Altium Limited,Altium Designer,19.1.5 (86)*
G04*
G04 Layer_Color=16711935*
%FSLAX25Y25*%
%MOIN*%
G70*
G01*
G75*
%ADD10C,0.01575*%
%ADD12C,0.00500*%
%ADD14C,0.00787*%
%ADD77C,0.00394*%
D10*
X442776Y488917D02*
X442232Y489666D01*
X441351Y489380D01*
Y488455D01*
X442232Y488168D01*
X442776Y488917D01*
D12*
X426634Y469232D02*
X427609Y469273D01*
X428578Y469393D01*
X429533Y469594D01*
X430469Y469872D01*
X431378Y470227D01*
X432255Y470656D01*
X433094Y471156D01*
X433888Y471723D01*
X434633Y472354D01*
X435323Y473044D01*
X435954Y473789D01*
X436522Y474583D01*
X437021Y475422D01*
X437450Y476299D01*
X437805Y477208D01*
X438084Y478144D01*
X438284Y479099D01*
X438405Y480068D01*
X438445Y481043D01*
Y677894D02*
X438405Y678869D01*
X438284Y679838D01*
X438084Y680793D01*
X437805Y681729D01*
X437450Y682638D01*
X437021Y683515D01*
X436522Y684354D01*
X435954Y685148D01*
X435323Y685893D01*
X434633Y686583D01*
X433888Y687214D01*
X433094Y687782D01*
X432255Y688281D01*
X431378Y688710D01*
X430469Y689065D01*
X429533Y689343D01*
X428578Y689544D01*
X427609Y689665D01*
X426634Y689705D01*
X194339D02*
X193363Y689665D01*
X192395Y689544D01*
X191439Y689343D01*
X190504Y689065D01*
X189594Y688710D01*
X188717Y688281D01*
X187879Y687782D01*
X187084Y687214D01*
X186339Y686583D01*
X185649Y685893D01*
X185018Y685148D01*
X184451Y684354D01*
X183951Y683515D01*
X183522Y682638D01*
X183168Y681729D01*
X182889Y680793D01*
X182689Y679838D01*
X182568Y678869D01*
X182528Y677894D01*
Y481043D02*
X182568Y480068D01*
X182689Y479099D01*
X182889Y478144D01*
X183168Y477208D01*
X183522Y476299D01*
X183951Y475422D01*
X184451Y474583D01*
X185018Y473789D01*
X185649Y473044D01*
X186339Y472354D01*
X187084Y471723D01*
X187879Y471156D01*
X188717Y470656D01*
X189594Y470227D01*
X190504Y469872D01*
X191439Y469594D01*
X192395Y469393D01*
X193363Y469273D01*
X194339Y469232D01*
X426634D01*
X438445Y481043D02*
Y677894D01*
X182528Y481043D02*
Y677894D01*
X194339Y689705D02*
X426634D01*
X172146Y280413D02*
Y390256D01*
X386319D01*
Y280413D02*
Y390256D01*
X172146Y280413D02*
X386319D01*
D14*
X201634Y277854D02*
X200847D01*
X201634D01*
D77*
X139862Y198130D02*
Y205217D01*
X152067Y198130D02*
Y205217D01*
X139862Y198130D02*
X152067D01*
X139862Y205217D02*
X152067D01*
X248622Y55807D02*
Y62894D01*
X260827Y55807D02*
Y62894D01*
X248622Y55807D02*
X260827D01*
X248622Y62894D02*
X260827D01*
X76378Y403740D02*
X83465D01*
X76378Y391535D02*
X83465D01*
X76378D02*
Y403740D01*
X83465Y391535D02*
Y403740D01*
X76378Y325000D02*
X83465D01*
X76378Y312795D02*
X83465D01*
X76378D02*
Y325000D01*
X83465Y312795D02*
Y325000D01*
X76378Y364370D02*
X83465D01*
X76378Y352165D02*
X83465D01*
X76378D02*
Y364370D01*
X83465Y352165D02*
Y364370D01*
X76378Y285630D02*
X83465D01*
X76378Y273425D02*
X83465D01*
X76378D02*
Y285630D01*
X83465Y273425D02*
Y285630D01*
X76378Y493282D02*
X83465D01*
X76378Y481077D02*
X83465D01*
X76378D02*
Y493282D01*
X83465Y481077D02*
Y493282D01*
X76378Y532652D02*
X83465D01*
X76378Y520447D02*
X83465D01*
X76378D02*
Y532652D01*
X83465Y520447D02*
Y532652D01*
X76378Y453911D02*
X83465D01*
X76378Y441707D02*
X83465D01*
X76378D02*
Y453911D01*
X83465Y441707D02*
Y453911D01*
X287992Y55807D02*
Y62894D01*
X300197Y55807D02*
Y62894D01*
X287992Y55807D02*
X300197D01*
X287992Y62894D02*
X300197D01*
X366732Y55807D02*
Y62894D01*
X378937Y55807D02*
Y62894D01*
X366732Y55807D02*
X378937D01*
X366732Y62894D02*
X378937D01*
X327362Y55807D02*
Y62894D01*
X339567Y55807D02*
Y62894D01*
X327362Y55807D02*
X339567D01*
X327362Y62894D02*
X339567D01*
X406102Y55807D02*
Y62894D01*
X418307Y55807D02*
Y62894D01*
X406102Y55807D02*
X418307D01*
X406102Y62894D02*
X418307D01*
M02*
