G04*
G04 #@! TF.GenerationSoftware,Altium Limited,Altium Designer,19.1.5 (86)*
G04*
G04 Layer_Color=16711935*
%FSLAX25Y25*%
%MOIN*%
G70*
G01*
G75*
%ADD37C,0.24422*%
%ADD38C,0.15564*%
%ADD39R,0.08674X0.08674*%
%ADD40C,0.08674*%
%ADD41R,0.08674X0.08674*%
%ADD42C,0.06800*%
%ADD43R,0.06800X0.06800*%
%ADD44C,0.25210*%
%ADD45R,0.10800X0.10800*%
%ADD46R,0.10800X0.10800*%
%ADD47R,0.06942X0.06942*%
%ADD48C,0.06942*%
%ADD49C,0.06706*%
%ADD50R,0.06706X0.06706*%
%ADD51R,0.10642X0.10642*%
%ADD52C,0.10642*%
%ADD53C,0.05800*%
D37*
X346787Y414007D02*
D03*
X94488Y26984D02*
D03*
X22638Y676181D02*
D03*
X427165Y157480D02*
D03*
D38*
X416929Y342126D02*
D03*
Y322441D02*
D03*
Y361811D02*
D03*
Y415748D02*
D03*
Y396063D02*
D03*
Y435433D02*
D03*
X415748Y277165D02*
D03*
Y257480D02*
D03*
Y296850D02*
D03*
X35433Y651575D02*
D03*
Y631890D02*
D03*
X33500Y218504D02*
D03*
Y238189D02*
D03*
Y198819D02*
D03*
Y407480D02*
D03*
Y387795D02*
D03*
Y368110D02*
D03*
Y348425D02*
D03*
Y289370D02*
D03*
Y309055D02*
D03*
Y269685D02*
D03*
Y328740D02*
D03*
Y536392D02*
D03*
Y497022D02*
D03*
Y437967D02*
D03*
Y516707D02*
D03*
Y477337D02*
D03*
Y457652D02*
D03*
X372835Y28126D02*
D03*
X431890D02*
D03*
X392520D02*
D03*
X412205D02*
D03*
X353150D02*
D03*
X333465D02*
D03*
X313779D02*
D03*
X294094D02*
D03*
X254724D02*
D03*
X274410D02*
D03*
X35433Y586268D02*
D03*
Y605953D02*
D03*
Y566583D02*
D03*
X166634Y28126D02*
D03*
X225689D02*
D03*
X186319D02*
D03*
X206004D02*
D03*
X21260Y31890D02*
D03*
X40945D02*
D03*
D39*
X155118Y544882D02*
D03*
D40*
X145118D02*
D03*
X135118D02*
D03*
X125118D02*
D03*
X115118D02*
D03*
X105118D02*
D03*
X258563Y205217D02*
D03*
Y195217D02*
D03*
Y185216D02*
D03*
Y175216D02*
D03*
Y165217D02*
D03*
D41*
Y155217D02*
D03*
D42*
X191476Y502118D02*
D03*
X201476D02*
D03*
X191476Y512118D02*
D03*
X201476D02*
D03*
X215492Y478012D02*
D03*
X225492D02*
D03*
X235492D02*
D03*
X245492D02*
D03*
X255492D02*
D03*
X265492D02*
D03*
X215492Y488012D02*
D03*
X225492D02*
D03*
X235492D02*
D03*
X245492D02*
D03*
X255492D02*
D03*
X265492D02*
D03*
X275492Y478012D02*
D03*
Y488012D02*
D03*
X285492Y478012D02*
D03*
X295492D02*
D03*
X305492D02*
D03*
X315492D02*
D03*
X325492D02*
D03*
X335492D02*
D03*
X285492Y488012D02*
D03*
X295492D02*
D03*
X305492D02*
D03*
X315492D02*
D03*
X325492D02*
D03*
X335492D02*
D03*
X345492Y478012D02*
D03*
Y488012D02*
D03*
X355492Y478012D02*
D03*
X365492D02*
D03*
X375492D02*
D03*
X385492D02*
D03*
X395492D02*
D03*
X405492D02*
D03*
X355492Y488012D02*
D03*
X365492D02*
D03*
X375492D02*
D03*
X385492D02*
D03*
X395492D02*
D03*
X182160Y79724D02*
D03*
X192160D02*
D03*
X202160D02*
D03*
X212160D02*
D03*
Y239724D02*
D03*
X202160D02*
D03*
X192160D02*
D03*
X182160D02*
D03*
D43*
X405492Y488012D02*
D03*
D44*
X424665Y483012D02*
D03*
X196319D02*
D03*
Y675925D02*
D03*
X424665D02*
D03*
D45*
X133405Y12300D02*
D03*
X62005Y170400D02*
D03*
D46*
X133405D02*
D03*
X62005Y12300D02*
D03*
D47*
X201240Y285335D02*
D03*
D48*
X211240D02*
D03*
X381240D02*
D03*
X221240D02*
D03*
X231240D02*
D03*
X241240D02*
D03*
X251240D02*
D03*
X261240D02*
D03*
X271240D02*
D03*
X281240D02*
D03*
X291240D02*
D03*
X301240D02*
D03*
X311240D02*
D03*
X321240D02*
D03*
X331240D02*
D03*
X341240D02*
D03*
X351240D02*
D03*
X361240D02*
D03*
X371240D02*
D03*
X201240Y385335D02*
D03*
X211240D02*
D03*
X221240D02*
D03*
X231240D02*
D03*
X241240D02*
D03*
X251240D02*
D03*
X261240D02*
D03*
X271240D02*
D03*
X281240D02*
D03*
X291240D02*
D03*
X301240D02*
D03*
X311240D02*
D03*
X321240D02*
D03*
X331240D02*
D03*
X341240D02*
D03*
X351240D02*
D03*
X361240D02*
D03*
X371240D02*
D03*
X381240D02*
D03*
D49*
X73665Y566583D02*
D03*
Y576583D02*
D03*
D50*
Y556583D02*
D03*
D51*
X115784Y217505D02*
D03*
D52*
X65784Y197820D02*
D03*
X105941D02*
D03*
X65784Y237190D02*
D03*
X105941D02*
D03*
D53*
X197160Y248336D02*
D03*
X150179Y419370D02*
D03*
X188010Y439370D02*
D03*
X155521Y468110D02*
D03*
X423565Y462303D02*
D03*
X396419Y452658D02*
D03*
X381240Y252372D02*
D03*
X236614Y173290D02*
D03*
X399391Y64370D02*
D03*
X398632Y103681D02*
D03*
X360021Y64370D02*
D03*
X359261Y103681D02*
D03*
X320651Y64370D02*
D03*
X319891Y103681D02*
D03*
X280521D02*
D03*
X281281Y64370D02*
D03*
X241911D02*
D03*
X241151Y103681D02*
D03*
X139496Y212088D02*
D03*
X123031Y293101D02*
D03*
X84941Y292341D02*
D03*
X123031Y332471D02*
D03*
X84941Y331711D02*
D03*
X123031Y371841D02*
D03*
X84941Y371081D02*
D03*
X124025Y411211D02*
D03*
X84941Y410451D02*
D03*
X124025Y461382D02*
D03*
X84941Y460622D02*
D03*
Y499993D02*
D03*
X124016Y500778D02*
D03*
X392406Y441452D02*
D03*
X188583Y311811D02*
D03*
Y340158D02*
D03*
X220442Y303543D02*
D03*
X271693Y424370D02*
D03*
X342126Y441452D02*
D03*
X362485D02*
D03*
X385335Y322441D02*
D03*
Y342126D02*
D03*
X433661Y438976D02*
D03*
X179626Y586268D02*
D03*
X416705Y118304D02*
D03*
X377335D02*
D03*
X337965D02*
D03*
X298594D02*
D03*
X259424Y118504D02*
D03*
M02*
