M48
;Layer_Color=9474304
;FILE_FORMAT=2:4
INCH,TZ
;TYPE=PLATED
T1F00S00C0.0280
T2F00S00C0.0400
T3F00S00C0.0402
T4F00S00C0.0409
T5F00S00C0.0500
T6F00S00C0.0512
T7F00S00C0.0591
T8F00S00C0.1083
T9F00S00C0.1181
%
T01
X5000Y5000
X10000
X30000
X35000
X40000
X39939Y6437
X39863Y10368
X41670Y11830
X37733
X40000Y15000
Y20000
X35000
X33796Y11830
X35000Y10000
X35926Y10368
X31989
X29859Y11830
X28052Y10368
X25942Y11850
X24115Y10368
X24191Y6437
X28128
X32065
X36002
X23661Y17329
X15000Y15000
Y10000
X10000
Y15000
X13950Y21209
X5000Y15000
Y10000
Y25000
Y30000
X8494Y29234
X10000Y30000
X12303Y29310
Y33247
X8494Y33171
X15000Y35000
X18858Y34016
X20000Y35000
X18858Y31181
X19716Y24834
X25000Y25000
X30000
Y30000
Y35000
X22044Y30354
X38533Y32244
Y34213
X38124Y25237
X39241Y44145
X39642Y45266
X42357Y46230
X43366Y43898
X36249Y44145
X34213
X35000Y50000
X30000
X25000
X27169Y42437
X20000Y40000
X15000
X15018Y41937
X12403Y41121
X8494Y41045
Y37108
X12303Y37184
X12403Y46138
X15552Y46811
X15000Y50000
X12402Y50078
X10000Y50000
X8494Y49999
Y46062
X18801Y43937
X5000Y45000
Y40000
Y55000
Y60000
X10000
X15000
X17963Y58627
X20000Y60000
Y65000
X15000
X10000
X25000
X30000
X35000
Y60000
X30000
X25000
X40000
Y65000
Y55000
T02
X18216Y7972
X19216
X20216
X21216
Y23972
X20216
X19216
X18216
X37549Y47801
X38549
X39549
X40549
Y48801
X39549
X38549
X37549
X36549
Y47801
X35549
X34549
X33549
X32549
X31549
X30549
X29549
X28549
X27549
X26549
X25549
X24549
X23549
X22549
X21549
Y48801
X22549
X23549
X24549
X25549
X26549
X27549
X28549
X29549
X30549
X31549
X32549
X33549
X34549
X35549
X20148Y50212
X19148
Y51212
X20148
X7367Y55658
Y56658
Y57658
T03
X25856Y15522
Y16522
Y17522
Y18522
Y19522
Y20522
X15512Y54488
X14512
X13512
X12512
X11512
X10512
T04
X20124Y28533
X21124
X22124
X23124
X24124
X25124
X26124
X27124
X28124
X29124
X30124
X31124
X32124
X33124
X34124
X35124
X36124
X37124
X38124
Y38533
X37124
X36124
X35124
X34124
X33124
X32124
X31124
X30124
X29124
X28124
X27124
X26124
X25124
X24124
X23124
X22124
X21124
X20124
T05
X6200Y1230
X13340
Y17040
X6200
T06
X2126Y3189
X4094
X16663Y2813
X18632
X20600
X22569
X25472
X27441
X29409
X31378
X33346
X35315
X37283
X39252
X41220
X43189
X3350Y19882
Y21850
Y23819
Y26969
Y28937
Y30906
Y32874
Y34843
Y36811
X41693Y36181
Y34213
Y32244
X41575Y29685
Y27717
Y25748
X41693Y39606
Y41575
Y43543
X3350Y43797
Y45765
Y47734
Y49702
Y51671
Y40748
Y38780
Y53639
X3543Y56658
Y58627
Y60595
Y63189
Y65157
T07
X6578Y19782
X10594
X11578Y21750
X10594Y23719
X6578
T08
X42467Y48301
X19632
Y67593
X42467
T09
X9449Y2698
X42717Y15748
X34679Y41401
X2264Y67618
M30
