G04*
G04 #@! TF.GenerationSoftware,Altium Limited,Altium Designer,19.1.5 (86)*
G04*
G04 Layer_Color=32896*
%FSLAX25Y25*%
%MOIN*%
G70*
G01*
G75*
G36*
X298025Y638943D02*
X299625D01*
Y638143D01*
X300425D01*
Y637343D01*
X301225D01*
Y636543D01*
X302025D01*
Y635743D01*
X302825D01*
Y634943D01*
Y634143D01*
Y633343D01*
Y632543D01*
Y631743D01*
X303625D01*
Y630943D01*
X302825D01*
Y630143D01*
X303625D01*
Y629343D01*
X302825D01*
Y628543D01*
X303625D01*
Y627743D01*
X302825D01*
Y626943D01*
X303625D01*
Y626143D01*
X302825D01*
Y625343D01*
X303625D01*
Y624543D01*
X302825D01*
Y623743D01*
X303625D01*
Y622943D01*
X302825D01*
Y622143D01*
X303625D01*
Y621343D01*
X302825D01*
Y620543D01*
X303625D01*
Y619743D01*
X302825D01*
Y618943D01*
X303625D01*
Y618143D01*
X302825D01*
Y617343D01*
X303625D01*
Y616543D01*
Y615743D01*
Y614943D01*
X302825D01*
Y614143D01*
X303625D01*
Y613343D01*
X302825D01*
Y612543D01*
X303625D01*
Y611743D01*
X302825D01*
Y610943D01*
X302025D01*
Y611743D01*
X301225D01*
Y612543D01*
X299625D01*
Y613343D01*
X298025D01*
Y614143D01*
X289225D01*
Y613343D01*
X286825D01*
Y612543D01*
X285225D01*
Y611743D01*
X283625D01*
Y610943D01*
X281225D01*
Y610143D01*
X278025D01*
Y609343D01*
X276425D01*
Y610143D01*
X275625D01*
Y609343D01*
X274825D01*
Y610143D01*
X272425D01*
Y610943D01*
X270825D01*
Y611743D01*
X269225D01*
Y612543D01*
X268425D01*
Y613343D01*
Y614143D01*
Y614943D01*
X267625D01*
Y615743D01*
X266825D01*
Y616543D01*
Y617343D01*
Y618143D01*
Y618943D01*
Y619743D01*
Y620543D01*
Y621343D01*
Y622143D01*
Y622943D01*
Y623743D01*
Y624543D01*
Y625343D01*
Y626143D01*
Y626943D01*
Y627743D01*
Y628543D01*
Y629343D01*
Y630143D01*
Y630943D01*
Y631743D01*
Y632543D01*
Y633343D01*
Y634143D01*
Y634943D01*
Y635743D01*
Y636543D01*
Y637343D01*
Y638143D01*
Y638943D01*
X267625D01*
Y638143D01*
X268425D01*
Y637343D01*
X269225D01*
Y636543D01*
X270025D01*
Y635743D01*
X270825D01*
Y634943D01*
X273225D01*
Y634143D01*
X279625D01*
Y634943D01*
X282025D01*
Y635743D01*
X283625D01*
Y636543D01*
X284425D01*
Y637343D01*
X286025D01*
Y638143D01*
X287625D01*
Y638943D01*
X289225D01*
Y639743D01*
X298025D01*
Y638943D01*
D02*
G37*
G36*
X346025D02*
Y638143D01*
Y637343D01*
Y636543D01*
Y635743D01*
Y634943D01*
Y634143D01*
Y633343D01*
Y632543D01*
Y631743D01*
Y630943D01*
Y630143D01*
Y629343D01*
Y628543D01*
Y627743D01*
Y626943D01*
Y626143D01*
Y625343D01*
Y624543D01*
Y623743D01*
Y622943D01*
Y622143D01*
Y621343D01*
Y620543D01*
Y619743D01*
Y618943D01*
Y618143D01*
Y617343D01*
X345225D01*
Y616543D01*
Y615743D01*
Y614943D01*
Y614143D01*
X344425D01*
Y613343D01*
X343625D01*
Y612543D01*
X342825D01*
Y611743D01*
X342025D01*
Y610943D01*
X340425D01*
Y610143D01*
X336425D01*
Y609343D01*
X334825D01*
Y610143D01*
X331625D01*
Y610943D01*
X329225D01*
Y611743D01*
X326825D01*
Y612543D01*
X325225D01*
Y613343D01*
X322825D01*
Y614143D01*
X314025D01*
Y613343D01*
X312425D01*
Y612543D01*
X310825D01*
Y611743D01*
X310025D01*
Y610943D01*
X309225D01*
Y610143D01*
X308425D01*
Y610943D01*
Y611743D01*
Y612543D01*
Y613343D01*
Y614143D01*
Y614943D01*
Y615743D01*
Y616543D01*
Y617343D01*
Y618143D01*
Y618943D01*
Y619743D01*
Y620543D01*
Y621343D01*
Y622143D01*
Y622943D01*
Y623743D01*
Y624543D01*
Y625343D01*
Y626143D01*
Y626943D01*
Y627743D01*
Y628543D01*
Y629343D01*
Y630143D01*
Y630943D01*
Y631743D01*
Y632543D01*
Y633343D01*
Y634143D01*
X309225D01*
Y634943D01*
Y635743D01*
X310025D01*
Y636543D01*
Y637343D01*
X310825D01*
Y638143D01*
X312425D01*
Y638943D01*
X314025D01*
Y639743D01*
X322825D01*
Y638943D01*
X325225D01*
Y638143D01*
X326025D01*
Y637343D01*
X327625D01*
Y636543D01*
X329225D01*
Y635743D01*
X330025D01*
Y634943D01*
X332425D01*
Y634143D01*
X334825D01*
Y633343D01*
X337225D01*
Y634143D01*
X339625D01*
Y634943D01*
X341225D01*
Y635743D01*
X342825D01*
Y636543D01*
X343625D01*
Y637343D01*
X344425D01*
Y638143D01*
X345225D01*
Y638943D01*
Y639743D01*
X346025D01*
Y638943D01*
D02*
G37*
G36*
X427184Y638798D02*
Y637998D01*
Y637198D01*
Y636398D01*
Y635598D01*
Y634798D01*
Y633998D01*
Y633198D01*
X426384D01*
Y632398D01*
Y631598D01*
Y630798D01*
Y629998D01*
Y629198D01*
Y628398D01*
X425584D01*
Y627598D01*
Y626798D01*
Y625998D01*
Y625198D01*
X424784D01*
Y624398D01*
Y623598D01*
X423984D01*
Y622798D01*
Y621998D01*
Y621198D01*
X423184D01*
Y620398D01*
Y619598D01*
X422384D01*
Y618798D01*
Y617998D01*
X421584D01*
Y617198D01*
Y616398D01*
X420784D01*
Y615598D01*
X419984D01*
Y614798D01*
Y613998D01*
X419184D01*
Y613198D01*
X418384D01*
Y612398D01*
X417584D01*
Y611598D01*
Y610798D01*
X416784D01*
Y609998D01*
X415984D01*
Y609198D01*
X415184D01*
Y608398D01*
X414384D01*
Y607598D01*
X412784D01*
Y606798D01*
X411984D01*
Y607598D01*
X411184D01*
Y606798D01*
X411984D01*
Y605998D01*
X411184D01*
Y605198D01*
X409584D01*
Y604398D01*
X408784D01*
Y603598D01*
X427184D01*
Y602798D01*
Y601998D01*
Y601198D01*
Y600398D01*
Y599598D01*
Y598798D01*
Y597998D01*
Y597198D01*
Y596398D01*
Y595598D01*
Y594798D01*
Y593998D01*
Y593198D01*
Y592398D01*
Y591598D01*
Y590798D01*
Y589998D01*
Y589198D01*
Y588398D01*
Y587598D01*
X408784D01*
Y586798D01*
X409584D01*
Y585998D01*
X411184D01*
Y585198D01*
X411984D01*
Y584398D01*
X412784D01*
Y583598D01*
X414384D01*
Y582798D01*
X415184D01*
Y581998D01*
X415984D01*
Y581198D01*
X416784D01*
Y580398D01*
X417584D01*
Y579598D01*
X418384D01*
Y578798D01*
Y577998D01*
X419184D01*
Y577198D01*
X419984D01*
Y576398D01*
Y575598D01*
X420784D01*
Y574798D01*
X421584D01*
Y573998D01*
Y573198D01*
X422384D01*
Y572398D01*
Y571598D01*
X423184D01*
Y570798D01*
Y569998D01*
X423984D01*
Y569198D01*
Y568398D01*
X424784D01*
Y567598D01*
Y566798D01*
Y565998D01*
X425584D01*
Y565198D01*
Y564398D01*
Y563598D01*
Y562798D01*
X426384D01*
Y561998D01*
Y561198D01*
Y560398D01*
Y559598D01*
Y558798D01*
Y557998D01*
X427184D01*
Y557198D01*
Y556398D01*
Y555598D01*
Y554798D01*
Y553998D01*
Y553198D01*
Y552398D01*
Y551598D01*
X412784D01*
Y552398D01*
Y553198D01*
Y553998D01*
Y554798D01*
Y555598D01*
X411984D01*
Y556398D01*
Y557198D01*
Y557998D01*
Y558798D01*
X411184D01*
Y559598D01*
Y560398D01*
Y561198D01*
X410384D01*
Y561998D01*
Y562798D01*
X409584D01*
Y563598D01*
Y564398D01*
X408784D01*
Y565198D01*
Y565998D01*
X407984D01*
Y566798D01*
X407184D01*
Y567598D01*
X406384D01*
Y568398D01*
X405584D01*
Y569198D01*
X404784D01*
Y569998D01*
X403984D01*
Y570798D01*
X403184D01*
Y571598D01*
X402384D01*
Y572398D01*
X399984D01*
Y571598D01*
Y570798D01*
Y569998D01*
Y569198D01*
Y568398D01*
Y567598D01*
Y566798D01*
Y565998D01*
Y565198D01*
Y564398D01*
Y563598D01*
Y562798D01*
Y561998D01*
Y561198D01*
Y560398D01*
Y559598D01*
Y558798D01*
Y557998D01*
Y557198D01*
Y556398D01*
Y555598D01*
Y554798D01*
Y553998D01*
Y553198D01*
Y552398D01*
X400784D01*
Y551598D01*
X384784D01*
Y552398D01*
Y553198D01*
Y553998D01*
Y554798D01*
Y555598D01*
Y556398D01*
Y557198D01*
Y557998D01*
Y558798D01*
Y559598D01*
Y560398D01*
Y561198D01*
Y561998D01*
Y562798D01*
Y563598D01*
Y564398D01*
Y565198D01*
Y565998D01*
Y566798D01*
Y567598D01*
Y568398D01*
Y569198D01*
Y569998D01*
Y570798D01*
Y571598D01*
Y572398D01*
X383184D01*
Y571598D01*
X381584D01*
Y570798D01*
X380784D01*
Y569998D01*
X379984D01*
Y569198D01*
X379184D01*
Y568398D01*
X378384D01*
Y567598D01*
Y566798D01*
X377584D01*
Y565998D01*
X376784D01*
Y565198D01*
Y564398D01*
X375984D01*
Y563598D01*
X375184D01*
Y562798D01*
Y561998D01*
Y561198D01*
X374384D01*
Y560398D01*
Y559598D01*
X373584D01*
Y558798D01*
Y557998D01*
Y557198D01*
Y556398D01*
X372784D01*
Y555598D01*
Y554798D01*
Y553998D01*
Y553198D01*
Y552398D01*
Y551598D01*
X358384D01*
Y552398D01*
Y553198D01*
Y553998D01*
Y554798D01*
Y555598D01*
Y556398D01*
Y557198D01*
Y557998D01*
Y558798D01*
Y559598D01*
X359184D01*
Y560398D01*
Y561198D01*
Y561998D01*
Y562798D01*
Y563598D01*
X359984D01*
Y564398D01*
Y565198D01*
Y565998D01*
Y566798D01*
X360784D01*
Y567598D01*
Y568398D01*
Y569198D01*
X361584D01*
Y569998D01*
Y570798D01*
X362384D01*
Y571598D01*
Y572398D01*
X363184D01*
Y573198D01*
Y573998D01*
X363984D01*
Y574798D01*
X364784D01*
Y575598D01*
Y576398D01*
X365584D01*
Y577198D01*
X366384D01*
Y577998D01*
Y578798D01*
X367184D01*
Y579598D01*
X367984D01*
Y580398D01*
X368784D01*
Y581198D01*
X369584D01*
Y581998D01*
X370384D01*
Y582798D01*
X371184D01*
Y583598D01*
X371984D01*
Y584398D01*
X372784D01*
Y585198D01*
X374384D01*
Y585998D01*
X375984D01*
Y586798D01*
Y587598D01*
X357584D01*
Y588398D01*
Y589198D01*
Y589998D01*
Y590798D01*
Y591598D01*
Y592398D01*
Y593198D01*
Y593998D01*
Y594798D01*
Y595598D01*
Y596398D01*
Y597198D01*
Y597998D01*
Y598798D01*
Y599598D01*
Y600398D01*
Y601198D01*
Y601998D01*
Y602798D01*
Y603598D01*
X376784D01*
Y604398D01*
X375984D01*
Y605198D01*
X374384D01*
Y605998D01*
X372784D01*
Y606798D01*
X371984D01*
Y607598D01*
X371184D01*
Y608398D01*
X370384D01*
Y609198D01*
X369584D01*
Y609998D01*
X368784D01*
Y610798D01*
X367984D01*
Y611598D01*
X367184D01*
Y612398D01*
X366384D01*
Y613198D01*
Y613998D01*
X365584D01*
Y614798D01*
X364784D01*
Y615598D01*
Y616398D01*
X363984D01*
Y617198D01*
X363184D01*
Y617998D01*
Y618798D01*
X362384D01*
Y619598D01*
Y620398D01*
X361584D01*
Y621198D01*
Y621998D01*
Y622798D01*
X360784D01*
Y623598D01*
Y624398D01*
X359984D01*
Y625198D01*
Y625998D01*
Y626798D01*
Y627598D01*
X359184D01*
Y628398D01*
Y629198D01*
Y629998D01*
Y630798D01*
Y631598D01*
X358384D01*
Y632398D01*
Y633198D01*
Y633998D01*
Y634798D01*
Y635598D01*
Y636398D01*
Y637198D01*
Y637998D01*
Y638798D01*
Y639598D01*
X372784D01*
Y638798D01*
Y637998D01*
Y637198D01*
Y636398D01*
Y635598D01*
Y634798D01*
Y633998D01*
X373584D01*
Y633198D01*
Y632398D01*
Y631598D01*
X374384D01*
Y630798D01*
Y629998D01*
Y629198D01*
X375184D01*
Y628398D01*
Y627598D01*
X375984D01*
Y626798D01*
Y625998D01*
X376784D01*
Y625198D01*
X377584D01*
Y624398D01*
X378384D01*
Y623598D01*
Y622798D01*
X379184D01*
Y621998D01*
X379984D01*
Y621198D01*
X380784D01*
Y620398D01*
X382384D01*
Y619598D01*
X383184D01*
Y618798D01*
X384784D01*
Y619598D01*
Y620398D01*
Y621198D01*
Y621998D01*
Y622798D01*
Y623598D01*
Y624398D01*
Y625198D01*
Y625998D01*
Y626798D01*
Y627598D01*
Y628398D01*
Y629198D01*
Y629998D01*
Y630798D01*
Y631598D01*
Y632398D01*
Y633198D01*
Y633998D01*
Y634798D01*
Y635598D01*
Y636398D01*
Y637198D01*
Y637998D01*
Y638798D01*
Y639598D01*
X400784D01*
Y638798D01*
X399984D01*
Y637998D01*
Y637198D01*
Y636398D01*
Y635598D01*
Y634798D01*
Y633998D01*
Y633198D01*
Y632398D01*
Y631598D01*
Y630798D01*
Y629998D01*
Y629198D01*
Y628398D01*
Y627598D01*
Y626798D01*
Y625998D01*
Y625198D01*
Y624398D01*
Y623598D01*
Y622798D01*
Y621998D01*
Y621198D01*
Y620398D01*
Y619598D01*
Y618798D01*
Y617998D01*
X400784D01*
Y618798D01*
X402384D01*
Y619598D01*
X403184D01*
Y620398D01*
X403984D01*
Y621198D01*
X404784D01*
Y621998D01*
X405584D01*
Y622798D01*
X406384D01*
Y623598D01*
X407184D01*
Y624398D01*
X407984D01*
Y625198D01*
Y625998D01*
X408784D01*
Y626798D01*
X409584D01*
Y627598D01*
Y628398D01*
X410384D01*
Y629198D01*
Y629998D01*
X411184D01*
Y630798D01*
Y631598D01*
Y632398D01*
X411984D01*
Y633198D01*
Y633998D01*
Y634798D01*
Y635598D01*
Y636398D01*
X412784D01*
Y637198D01*
Y637998D01*
Y638798D01*
Y639598D01*
X427184D01*
Y638798D01*
D02*
G37*
G36*
X346025Y607743D02*
Y606943D01*
Y606143D01*
Y605343D01*
Y604543D01*
Y603743D01*
Y602943D01*
Y602143D01*
Y601343D01*
Y600543D01*
Y599743D01*
Y598943D01*
Y598143D01*
Y597343D01*
Y596543D01*
Y595743D01*
Y594943D01*
Y594143D01*
Y593343D01*
Y592543D01*
Y591743D01*
Y590943D01*
Y590143D01*
X345225D01*
Y589343D01*
Y588543D01*
Y587743D01*
X344425D01*
Y586943D01*
X343625D01*
Y586143D01*
X342825D01*
Y585343D01*
X342025D01*
Y586143D01*
X341225D01*
Y585343D01*
X342025D01*
Y584543D01*
X339625D01*
Y583743D01*
X333225D01*
Y584543D01*
X330825D01*
Y585343D01*
X329225D01*
Y586143D01*
X327625D01*
Y586943D01*
X326025D01*
Y587743D01*
X323625D01*
Y588543D01*
X315625D01*
Y587743D01*
X313225D01*
Y586943D01*
X311625D01*
Y587743D01*
X310825D01*
Y586943D01*
X311625D01*
Y586143D01*
X310825D01*
Y585343D01*
X310025D01*
Y584543D01*
X309225D01*
Y583743D01*
X308425D01*
Y584543D01*
Y585343D01*
Y586143D01*
Y586943D01*
Y587743D01*
Y588543D01*
Y589343D01*
Y590143D01*
Y590943D01*
Y591743D01*
Y592543D01*
Y593343D01*
Y594143D01*
Y594943D01*
Y595743D01*
Y596543D01*
Y597343D01*
Y598143D01*
Y598943D01*
Y599743D01*
Y600543D01*
Y601343D01*
Y602143D01*
Y602943D01*
X309225D01*
Y603743D01*
Y604543D01*
X310025D01*
Y605343D01*
Y606143D01*
X310825D01*
Y606943D01*
X312425D01*
Y607743D01*
X314025D01*
Y608543D01*
X322025D01*
Y607743D01*
X324425D01*
Y606943D01*
X326825D01*
Y606143D01*
X328425D01*
Y605343D01*
X330025D01*
Y604543D01*
X340425D01*
Y605343D01*
X342025D01*
Y606143D01*
X342825D01*
Y606943D01*
X343625D01*
Y607743D01*
X345225D01*
Y608543D01*
X346025D01*
Y607743D01*
D02*
G37*
G36*
X297225D02*
X299625D01*
Y606943D01*
X300425D01*
Y606143D01*
X301225D01*
Y605343D01*
X302025D01*
Y604543D01*
Y603743D01*
X302825D01*
Y602943D01*
Y602143D01*
Y601343D01*
Y600543D01*
Y599743D01*
X303625D01*
Y598943D01*
X302825D01*
Y598143D01*
X303625D01*
Y597343D01*
X302825D01*
Y598143D01*
X302025D01*
Y598943D01*
X301225D01*
Y598143D01*
X302025D01*
Y597343D01*
X302825D01*
Y596543D01*
X303625D01*
Y595743D01*
X302825D01*
Y594943D01*
X303625D01*
Y594143D01*
X302825D01*
Y593343D01*
X303625D01*
Y592543D01*
X302825D01*
Y591743D01*
X303625D01*
Y590943D01*
X302825D01*
Y590143D01*
X303625D01*
Y589343D01*
X302825D01*
Y588543D01*
X303625D01*
Y587743D01*
X302825D01*
Y586943D01*
X303625D01*
Y586143D01*
X302825D01*
Y585343D01*
X303625D01*
Y584543D01*
Y583743D01*
Y582943D01*
X302825D01*
Y583743D01*
Y584543D01*
X302025D01*
Y585343D01*
X301225D01*
Y586143D01*
X300425D01*
Y586943D01*
X298825D01*
Y587743D01*
X296425D01*
Y588543D01*
X288425D01*
Y587743D01*
X286025D01*
Y586943D01*
X284425D01*
Y587743D01*
X283625D01*
Y586943D01*
X284425D01*
Y586143D01*
X282825D01*
Y585343D01*
X282025D01*
Y584543D01*
X279625D01*
Y583743D01*
X271625D01*
Y584543D01*
X270025D01*
Y585343D01*
X269225D01*
Y586143D01*
X268425D01*
Y586943D01*
Y587743D01*
X267625D01*
Y588543D01*
Y589343D01*
X266825D01*
Y590143D01*
Y590943D01*
Y591743D01*
Y592543D01*
Y593343D01*
Y594143D01*
Y594943D01*
Y595743D01*
Y596543D01*
Y597343D01*
Y598143D01*
Y598943D01*
Y599743D01*
Y600543D01*
Y601343D01*
Y602143D01*
Y602943D01*
Y603743D01*
Y604543D01*
Y605343D01*
Y606143D01*
Y606943D01*
Y607743D01*
Y608543D01*
X267625D01*
Y607743D01*
X268425D01*
Y606943D01*
X269225D01*
Y606143D01*
X270825D01*
Y605343D01*
X272425D01*
Y604543D01*
X282025D01*
Y605343D01*
X283625D01*
Y606143D01*
X285225D01*
Y606943D01*
X286825D01*
Y607743D01*
X290025D01*
Y608543D01*
X297225D01*
Y607743D01*
D02*
G37*
G36*
X322825Y582143D02*
X325225D01*
Y581343D01*
X326825D01*
Y580543D01*
X328425D01*
Y579743D01*
X330025D01*
Y578943D01*
X331625D01*
Y578143D01*
X341225D01*
Y578943D01*
X342825D01*
Y579743D01*
X344425D01*
Y580543D01*
X345225D01*
Y581343D01*
Y582143D01*
X346025D01*
Y581343D01*
Y580543D01*
Y579743D01*
Y578943D01*
Y578143D01*
Y577343D01*
Y576543D01*
Y575743D01*
Y574943D01*
Y574143D01*
Y573343D01*
Y572543D01*
Y571743D01*
Y570943D01*
Y570143D01*
Y569343D01*
Y568543D01*
X314025D01*
Y569343D01*
X313225D01*
Y570143D01*
X312425D01*
Y570943D01*
Y571743D01*
X310825D01*
Y572543D01*
X310025D01*
Y573343D01*
X308425D01*
Y574143D01*
Y574943D01*
X309225D01*
Y575743D01*
Y576543D01*
X310025D01*
Y577343D01*
Y578143D01*
X310825D01*
Y578943D01*
X311625D01*
Y579743D01*
X312425D01*
Y578943D01*
X313225D01*
Y579743D01*
X312425D01*
Y580543D01*
X313225D01*
Y581343D01*
X314825D01*
Y582143D01*
X317225D01*
Y582943D01*
X322825D01*
Y582143D01*
D02*
G37*
G36*
X294825D02*
X297225D01*
Y581343D01*
X298825D01*
Y580543D01*
X300425D01*
Y579743D01*
X301225D01*
Y578943D01*
X302025D01*
Y578143D01*
Y577343D01*
X302825D01*
Y576543D01*
Y575743D01*
Y574943D01*
X303625D01*
Y574143D01*
Y573343D01*
X302025D01*
Y572543D01*
X300425D01*
Y571743D01*
X299625D01*
Y570943D01*
X298825D01*
Y570143D01*
X298025D01*
Y569343D01*
X297225D01*
Y568543D01*
X266825D01*
Y569343D01*
Y570143D01*
Y570943D01*
Y571743D01*
Y572543D01*
Y573343D01*
Y574143D01*
Y574943D01*
Y575743D01*
Y576543D01*
Y577343D01*
Y578143D01*
Y578943D01*
Y579743D01*
Y580543D01*
Y581343D01*
Y582143D01*
X267625D01*
Y581343D01*
Y580543D01*
X269225D01*
Y579743D01*
X270025D01*
Y578943D01*
X271625D01*
Y578143D01*
X280425D01*
Y578943D01*
X282825D01*
Y579743D01*
X283625D01*
Y580543D01*
X286025D01*
Y581343D01*
X287625D01*
Y582143D01*
X290025D01*
Y582943D01*
X294825D01*
Y582143D01*
D02*
G37*
G36*
X308425Y566943D02*
X309225D01*
Y566143D01*
X310025D01*
Y565343D01*
Y564543D01*
Y563743D01*
X346025D01*
Y562943D01*
Y562143D01*
Y561343D01*
Y560543D01*
Y559743D01*
Y558943D01*
X266025D01*
Y559743D01*
Y560543D01*
Y561343D01*
Y562143D01*
Y562943D01*
Y563743D01*
X302025D01*
Y564543D01*
Y565343D01*
Y566143D01*
X302825D01*
Y566943D01*
X303625D01*
Y567743D01*
X308425D01*
Y566943D01*
D02*
G37*
G36*
X295625Y548543D02*
Y547743D01*
Y546943D01*
Y546143D01*
Y545343D01*
Y544543D01*
Y543743D01*
Y542943D01*
Y542143D01*
Y541343D01*
Y540543D01*
Y539743D01*
Y538943D01*
Y538143D01*
Y537343D01*
Y536543D01*
Y535743D01*
Y534943D01*
Y534143D01*
Y533343D01*
Y532543D01*
Y531743D01*
Y530943D01*
Y530143D01*
Y529343D01*
X289225D01*
Y530143D01*
X286825D01*
Y530943D01*
X286025D01*
Y531743D01*
X285225D01*
Y532543D01*
Y533343D01*
X284425D01*
Y534143D01*
Y534943D01*
Y535743D01*
Y536543D01*
X285225D01*
Y537343D01*
Y538143D01*
X286025D01*
Y538943D01*
X288425D01*
Y538143D01*
Y537343D01*
X287625D01*
Y536543D01*
Y535743D01*
Y534943D01*
Y534143D01*
Y533343D01*
Y532543D01*
X288425D01*
Y531743D01*
X289225D01*
Y530943D01*
X290825D01*
Y530143D01*
X292425D01*
Y530943D01*
X293225D01*
Y531743D01*
Y532543D01*
Y533343D01*
Y534143D01*
Y534943D01*
Y535743D01*
Y536543D01*
Y537343D01*
Y538143D01*
Y538943D01*
Y539743D01*
X290025D01*
Y538943D01*
X288425D01*
Y539743D01*
X289225D01*
Y540543D01*
Y541343D01*
X290025D01*
Y540543D01*
X293225D01*
Y541343D01*
Y542143D01*
Y542943D01*
Y543743D01*
Y544543D01*
Y545343D01*
Y546143D01*
Y546943D01*
Y547743D01*
Y548543D01*
X289225D01*
Y547743D01*
X288425D01*
Y546943D01*
X287625D01*
Y546143D01*
Y545343D01*
Y544543D01*
Y543743D01*
Y542943D01*
X288425D01*
Y542143D01*
Y541343D01*
X286825D01*
Y542143D01*
X286025D01*
Y542943D01*
X285225D01*
Y543743D01*
Y544543D01*
Y545343D01*
Y546143D01*
Y546943D01*
Y547743D01*
X286025D01*
Y548543D01*
X287625D01*
Y549343D01*
X295625D01*
Y548543D01*
D02*
G37*
G36*
X381584Y548398D02*
Y547598D01*
Y546798D01*
Y545998D01*
Y545198D01*
Y544398D01*
Y543598D01*
Y542798D01*
Y541998D01*
Y541198D01*
Y540398D01*
Y539598D01*
Y538798D01*
Y537998D01*
Y537198D01*
Y536398D01*
Y535598D01*
Y534798D01*
Y533998D01*
Y533198D01*
Y532398D01*
X377584D01*
Y533198D01*
Y533998D01*
Y534798D01*
Y535598D01*
Y536398D01*
Y537198D01*
Y537998D01*
Y538798D01*
Y539598D01*
Y540398D01*
Y541198D01*
X375984D01*
Y540398D01*
X375184D01*
Y539598D01*
Y538798D01*
X374384D01*
Y537998D01*
X373584D01*
Y537198D01*
Y536398D01*
X372784D01*
Y535598D01*
X371984D01*
Y534798D01*
Y533998D01*
X371184D01*
Y533198D01*
X370384D01*
Y532398D01*
X365584D01*
Y533198D01*
Y533998D01*
Y534798D01*
Y535598D01*
Y536398D01*
Y537198D01*
Y537998D01*
Y538798D01*
Y539598D01*
Y540398D01*
Y541198D01*
Y541998D01*
Y542798D01*
Y543598D01*
Y544398D01*
Y545198D01*
Y545998D01*
Y546798D01*
Y547598D01*
Y548398D01*
Y549198D01*
X370384D01*
Y548398D01*
Y547598D01*
Y546798D01*
Y545998D01*
Y545198D01*
Y544398D01*
Y543598D01*
Y542798D01*
Y541998D01*
Y541198D01*
Y540398D01*
X369584D01*
Y539598D01*
X371184D01*
Y540398D01*
X371984D01*
Y541198D01*
X372784D01*
Y541998D01*
Y542798D01*
X373584D01*
Y543598D01*
X374384D01*
Y544398D01*
Y545198D01*
X375184D01*
Y545998D01*
X375984D01*
Y546798D01*
Y547598D01*
X376784D01*
Y548398D01*
X377584D01*
Y549198D01*
X381584D01*
Y548398D01*
D02*
G37*
G36*
X419184D02*
Y547598D01*
Y546798D01*
Y545998D01*
Y545198D01*
Y544398D01*
Y543598D01*
Y542798D01*
Y541998D01*
Y541198D01*
Y540398D01*
Y539598D01*
Y538798D01*
Y537998D01*
Y537198D01*
X418384D01*
Y536398D01*
Y535598D01*
Y534798D01*
X417584D01*
Y533998D01*
X416784D01*
Y533198D01*
X415984D01*
Y532398D01*
X411184D01*
Y531598D01*
X410384D01*
Y532398D01*
X406384D01*
Y533198D01*
X405584D01*
Y533998D01*
X404784D01*
Y534798D01*
X403984D01*
Y535598D01*
Y536398D01*
X403184D01*
Y537198D01*
Y537998D01*
Y538798D01*
Y539598D01*
Y540398D01*
Y541198D01*
Y541998D01*
Y542798D01*
Y543598D01*
Y544398D01*
Y545198D01*
Y545998D01*
Y546798D01*
Y547598D01*
Y548398D01*
Y549198D01*
X407984D01*
Y548398D01*
Y547598D01*
Y546798D01*
Y545998D01*
Y545198D01*
Y544398D01*
Y543598D01*
Y542798D01*
Y541998D01*
Y541198D01*
Y540398D01*
Y539598D01*
Y538798D01*
Y537998D01*
Y537198D01*
Y536398D01*
X408784D01*
Y535598D01*
X410384D01*
Y534798D01*
X411984D01*
Y535598D01*
X413584D01*
Y536398D01*
X414384D01*
Y537198D01*
Y537998D01*
Y538798D01*
Y539598D01*
Y540398D01*
Y541198D01*
Y541998D01*
Y542798D01*
Y543598D01*
Y544398D01*
Y545198D01*
Y545998D01*
Y546798D01*
Y547598D01*
Y548398D01*
Y549198D01*
X419184D01*
Y548398D01*
D02*
G37*
G36*
X399984D02*
Y547598D01*
Y546798D01*
Y545998D01*
Y545198D01*
X395184D01*
Y544398D01*
X394384D01*
Y543598D01*
Y542798D01*
Y541998D01*
Y541198D01*
Y540398D01*
Y539598D01*
Y538798D01*
Y537998D01*
Y537198D01*
Y536398D01*
Y535598D01*
Y534798D01*
Y533998D01*
Y533198D01*
X395184D01*
Y532398D01*
X390384D01*
Y533198D01*
Y533998D01*
Y534798D01*
Y535598D01*
Y536398D01*
Y537198D01*
Y537998D01*
Y538798D01*
Y539598D01*
Y540398D01*
Y541198D01*
Y541998D01*
Y542798D01*
Y543598D01*
Y544398D01*
Y545198D01*
X384784D01*
Y545998D01*
Y546798D01*
Y547598D01*
Y548398D01*
Y549198D01*
X399984D01*
Y548398D01*
D02*
G37*
G36*
X315625Y548543D02*
Y547743D01*
Y546943D01*
Y546143D01*
Y545343D01*
Y544543D01*
Y543743D01*
Y542943D01*
Y542143D01*
Y541343D01*
Y540543D01*
Y539743D01*
Y538943D01*
Y538143D01*
Y537343D01*
Y536543D01*
Y535743D01*
Y534943D01*
Y534143D01*
Y533343D01*
Y532543D01*
X314825D01*
Y531743D01*
X314025D01*
Y530943D01*
X313225D01*
Y531743D01*
X312425D01*
Y530943D01*
X313225D01*
Y530143D01*
X311625D01*
Y529343D01*
X310025D01*
Y528543D01*
X307625D01*
Y529343D01*
X305225D01*
Y530143D01*
X303625D01*
Y530943D01*
X302825D01*
Y531743D01*
Y532543D01*
X302025D01*
Y533343D01*
Y534143D01*
Y534943D01*
X301225D01*
Y535743D01*
Y536543D01*
Y537343D01*
Y538143D01*
Y538943D01*
Y539743D01*
Y540543D01*
Y541343D01*
Y542143D01*
Y542943D01*
Y543743D01*
Y544543D01*
Y545343D01*
Y546143D01*
Y546943D01*
Y547743D01*
Y548543D01*
Y549343D01*
X302025D01*
Y548543D01*
Y547743D01*
Y546943D01*
Y546143D01*
Y545343D01*
Y544543D01*
Y543743D01*
Y542943D01*
Y542143D01*
Y541343D01*
Y540543D01*
Y539743D01*
Y538943D01*
Y538143D01*
Y537343D01*
Y536543D01*
Y535743D01*
X302825D01*
Y534943D01*
Y534143D01*
Y533343D01*
Y532543D01*
X303625D01*
Y531743D01*
X304425D01*
Y530943D01*
X305225D01*
Y530143D01*
X310025D01*
Y530943D01*
X310825D01*
Y531743D01*
X311625D01*
Y532543D01*
X312425D01*
Y533343D01*
Y534143D01*
X313225D01*
Y534943D01*
Y535743D01*
Y536543D01*
Y537343D01*
Y538143D01*
Y538943D01*
Y539743D01*
Y540543D01*
Y541343D01*
Y542143D01*
Y542943D01*
Y543743D01*
Y544543D01*
Y545343D01*
Y546143D01*
Y546943D01*
Y547743D01*
Y548543D01*
Y549343D01*
X315625D01*
Y548543D01*
D02*
G37*
G36*
X346025D02*
Y547743D01*
Y546943D01*
Y546143D01*
Y545343D01*
Y544543D01*
Y543743D01*
Y542943D01*
Y542143D01*
Y541343D01*
Y540543D01*
Y539743D01*
Y538943D01*
Y538143D01*
Y537343D01*
Y536543D01*
Y535743D01*
Y534943D01*
Y534143D01*
Y533343D01*
Y532543D01*
Y531743D01*
Y530943D01*
Y530143D01*
Y529343D01*
X342825D01*
Y530143D01*
Y530943D01*
X343625D01*
Y531743D01*
Y532543D01*
Y533343D01*
X342825D01*
Y534143D01*
X343625D01*
Y534943D01*
X342825D01*
Y535743D01*
X343625D01*
Y536543D01*
X342825D01*
Y537343D01*
X343625D01*
Y538143D01*
X342825D01*
Y538943D01*
X343625D01*
Y539743D01*
X337225D01*
Y540543D01*
X342825D01*
Y541343D01*
Y542143D01*
X343625D01*
Y542943D01*
X342825D01*
Y543743D01*
X343625D01*
Y544543D01*
X342825D01*
Y545343D01*
X343625D01*
Y546143D01*
X342825D01*
Y546943D01*
X343625D01*
Y547743D01*
X342825D01*
Y548543D01*
X342025D01*
Y547743D01*
X337225D01*
Y548543D01*
Y549343D01*
X346025D01*
Y548543D01*
D02*
G37*
G36*
X328425D02*
Y547743D01*
X329225D01*
Y546943D01*
Y546143D01*
Y545343D01*
X330025D01*
Y544543D01*
Y543743D01*
Y542943D01*
X330825D01*
Y542143D01*
Y541343D01*
Y540543D01*
X331625D01*
Y539743D01*
Y538943D01*
X332425D01*
Y538143D01*
Y537343D01*
Y536543D01*
Y535743D01*
X333225D01*
Y534943D01*
Y534143D01*
X334025D01*
Y533343D01*
Y532543D01*
Y531743D01*
X334825D01*
Y530943D01*
Y530143D01*
Y529343D01*
X334025D01*
Y530143D01*
Y530943D01*
X333225D01*
Y531743D01*
Y532543D01*
Y533343D01*
Y534143D01*
X332425D01*
Y534943D01*
Y535743D01*
X324425D01*
Y534943D01*
Y534143D01*
Y533343D01*
X323625D01*
Y532543D01*
Y531743D01*
Y530943D01*
Y530143D01*
X322825D01*
Y529343D01*
X319625D01*
Y530143D01*
X320425D01*
Y530943D01*
Y531743D01*
Y532543D01*
X321225D01*
Y533343D01*
Y534143D01*
X322025D01*
Y534943D01*
Y535743D01*
Y536543D01*
Y537343D01*
X322825D01*
Y538143D01*
Y538943D01*
X323625D01*
Y539743D01*
Y540543D01*
Y541343D01*
X324425D01*
Y542143D01*
Y542943D01*
Y543743D01*
X325225D01*
Y544543D01*
Y545343D01*
Y546143D01*
X326025D01*
Y546943D01*
Y547743D01*
X326825D01*
Y548543D01*
Y549343D01*
X328425D01*
Y548543D01*
D02*
G37*
G36*
X274025D02*
X274825D01*
Y547743D01*
Y546943D01*
Y546143D01*
X275625D01*
Y545343D01*
Y544543D01*
Y543743D01*
X276425D01*
Y542943D01*
Y542143D01*
X277225D01*
Y541343D01*
Y540543D01*
Y539743D01*
X278025D01*
Y538943D01*
Y538143D01*
Y537343D01*
X278825D01*
Y536543D01*
Y535743D01*
Y534943D01*
X279625D01*
Y534143D01*
Y533343D01*
Y532543D01*
X280425D01*
Y531743D01*
Y530943D01*
X281225D01*
Y530143D01*
Y529343D01*
X279625D01*
Y530143D01*
Y530943D01*
Y531743D01*
X278825D01*
Y532543D01*
Y533343D01*
Y534143D01*
Y534943D01*
X278025D01*
Y535743D01*
X270825D01*
Y534943D01*
Y534143D01*
X270025D01*
Y533343D01*
Y532543D01*
Y531743D01*
Y530943D01*
X269225D01*
Y530143D01*
Y529343D01*
X268425D01*
Y530143D01*
X267625D01*
Y529343D01*
X266825D01*
Y530143D01*
X266025D01*
Y530943D01*
X266825D01*
Y531743D01*
Y532543D01*
Y533343D01*
X267625D01*
Y534143D01*
Y534943D01*
Y535743D01*
X268425D01*
Y536543D01*
Y537343D01*
Y538143D01*
X269225D01*
Y538943D01*
Y539743D01*
Y540543D01*
X270025D01*
Y541343D01*
Y542143D01*
X270825D01*
Y542943D01*
Y543743D01*
Y544543D01*
Y545343D01*
X271625D01*
Y546143D01*
Y546943D01*
X272425D01*
Y547743D01*
Y548543D01*
Y549343D01*
X274025D01*
Y548543D01*
D02*
G37*
G36*
X337646Y204929D02*
X339779Y201018D01*
X338291D01*
X336913Y203574D01*
X335535Y201018D01*
X334047D01*
X336180Y204929D01*
X334247Y208529D01*
X335691D01*
X336913Y206273D01*
X338135Y208529D01*
X339580D01*
X337646Y204929D01*
D02*
G37*
G36*
X351078Y201018D02*
X349923D01*
Y205907D01*
X347445Y201018D01*
X346190D01*
Y208529D01*
X347345D01*
Y203507D01*
X349879Y208529D01*
X351078D01*
Y201018D01*
D02*
G37*
G36*
X371210Y201018D02*
X370054Y201018D01*
Y206940D01*
X368832Y201018D01*
X367643D01*
X366399Y206940D01*
Y201018D01*
X365244D01*
Y208529D01*
X367121D01*
X368232Y203385D01*
X369354Y208529D01*
X371210Y208529D01*
Y201018D01*
D02*
G37*
G36*
X361577Y208640D02*
X361800Y208607D01*
X362000Y208562D01*
X362199Y208507D01*
X362377Y208429D01*
X362544Y208351D01*
X362699Y208262D01*
X362833Y208184D01*
X362955Y208096D01*
X363066Y208007D01*
X363155Y207929D01*
X363233Y207851D01*
X363288Y207796D01*
X363333Y207751D01*
X363355Y207718D01*
X363366Y207707D01*
X363522Y207495D01*
X363655Y207262D01*
X363766Y207029D01*
X363866Y206785D01*
X363955Y206529D01*
X364021Y206284D01*
X364077Y206040D01*
X364122Y205796D01*
X364155Y205574D01*
X364188Y205374D01*
X364210Y205185D01*
X364222Y205018D01*
Y204896D01*
X364233Y204796D01*
Y204729D01*
Y204718D01*
Y204707D01*
X364222Y204374D01*
X364199Y204063D01*
X364155Y203763D01*
X364099Y203485D01*
X364033Y203229D01*
X363966Y202996D01*
X363888Y202774D01*
X363799Y202585D01*
X363721Y202407D01*
X363644Y202252D01*
X363577Y202118D01*
X363510Y202018D01*
X363455Y201929D01*
X363410Y201863D01*
X363388Y201829D01*
X363377Y201818D01*
X363233Y201652D01*
X363077Y201518D01*
X362922Y201396D01*
X362755Y201285D01*
X362588Y201196D01*
X362433Y201118D01*
X362277Y201063D01*
X362122Y201007D01*
X361977Y200974D01*
X361844Y200941D01*
X361722Y200929D01*
X361622Y200907D01*
X361533D01*
X361477Y200896D01*
X361422D01*
X361244Y200907D01*
X361077Y200918D01*
X360766Y200985D01*
X360489Y201074D01*
X360366Y201130D01*
X360255Y201185D01*
X360155Y201241D01*
X360066Y201296D01*
X359989Y201341D01*
X359933Y201385D01*
X359877Y201418D01*
X359844Y201452D01*
X359822Y201463D01*
X359811Y201474D01*
X359689Y201596D01*
X359577Y201718D01*
X359389Y202007D01*
X359222Y202318D01*
X359089Y202618D01*
X359033Y202763D01*
X358989Y202896D01*
X358955Y203018D01*
X358922Y203118D01*
X358900Y203207D01*
X358878Y203274D01*
X358866Y203318D01*
Y203329D01*
X360077Y203796D01*
X360144Y203496D01*
X360233Y203252D01*
X360311Y203040D01*
X360400Y202874D01*
X360477Y202741D01*
X360544Y202652D01*
X360589Y202596D01*
X360600Y202574D01*
X360733Y202452D01*
X360877Y202352D01*
X361022Y202285D01*
X361155Y202240D01*
X361266Y202218D01*
X361366Y202207D01*
X361422Y202196D01*
X361444D01*
X361566Y202207D01*
X361677Y202218D01*
X361899Y202285D01*
X362077Y202385D01*
X362233Y202496D01*
X362366Y202596D01*
X362455Y202696D01*
X362510Y202763D01*
X362533Y202774D01*
Y202785D01*
X362599Y202907D01*
X362666Y203040D01*
X362722Y203196D01*
X362766Y203351D01*
X362844Y203685D01*
X362888Y204018D01*
X362911Y204174D01*
X362922Y204318D01*
X362933Y204451D01*
Y204562D01*
X362944Y204662D01*
Y204729D01*
Y204785D01*
Y204796D01*
Y205040D01*
X362922Y205274D01*
X362899Y205485D01*
X362877Y205674D01*
X362844Y205851D01*
X362810Y206018D01*
X362777Y206162D01*
X362733Y206284D01*
X362688Y206396D01*
X362655Y206496D01*
X362622Y206573D01*
X362588Y206640D01*
X362555Y206684D01*
X362544Y206729D01*
X362522Y206740D01*
Y206751D01*
X362433Y206862D01*
X362344Y206951D01*
X362255Y207029D01*
X362166Y207096D01*
X361977Y207207D01*
X361800Y207273D01*
X361644Y207318D01*
X361522Y207340D01*
X361477Y207351D01*
X361411D01*
X361233Y207340D01*
X361077Y207296D01*
X360944Y207251D01*
X360822Y207185D01*
X360722Y207129D01*
X360644Y207073D01*
X360600Y207029D01*
X360589Y207018D01*
X360466Y206885D01*
X360366Y206740D01*
X360277Y206585D01*
X360211Y206429D01*
X360166Y206296D01*
X360133Y206185D01*
X360122Y206140D01*
Y206107D01*
X360111Y206096D01*
Y206085D01*
X358878Y206440D01*
X358922Y206618D01*
X358978Y206785D01*
X359033Y206940D01*
X359089Y207096D01*
X359155Y207229D01*
X359211Y207351D01*
X359278Y207451D01*
X359333Y207551D01*
X359389Y207640D01*
X359444Y207718D01*
X359489Y207784D01*
X359533Y207840D01*
X359566Y207873D01*
X359589Y207907D01*
X359600Y207929D01*
X359611D01*
X359744Y208051D01*
X359889Y208162D01*
X360033Y208262D01*
X360177Y208351D01*
X360322Y208418D01*
X360466Y208473D01*
X360744Y208562D01*
X360866Y208595D01*
X360977Y208618D01*
X361077Y208629D01*
X361166Y208640D01*
X361244Y208651D01*
X361344D01*
X361577Y208640D01*
D02*
G37*
G36*
X399385Y201018D02*
X398140D01*
Y204207D01*
X395563D01*
Y205473D01*
X398140D01*
Y207262D01*
X395163D01*
Y208529D01*
X399385D01*
Y201018D01*
D02*
G37*
G36*
X394141D02*
X391585D01*
X391385Y201029D01*
X391208D01*
X391041Y201041D01*
X390897Y201052D01*
X390774D01*
X390663Y201063D01*
X390574Y201074D01*
X390497Y201085D01*
X390441D01*
X390386Y201096D01*
X390352D01*
X390330Y201107D01*
X390308D01*
X390119Y201174D01*
X389941Y201274D01*
X389774Y201385D01*
X389641Y201507D01*
X389530Y201618D01*
X389441Y201718D01*
X389397Y201785D01*
X389374Y201796D01*
Y201807D01*
X389241Y202029D01*
X389141Y202263D01*
X389074Y202496D01*
X389019Y202718D01*
X388997Y202907D01*
X388986Y202985D01*
Y203063D01*
X388974Y203118D01*
Y203163D01*
Y203185D01*
Y203196D01*
X388986Y203440D01*
X389019Y203663D01*
X389074Y203852D01*
X389130Y204018D01*
X389186Y204163D01*
X389241Y204262D01*
X389275Y204318D01*
X389286Y204340D01*
X389408Y204507D01*
X389552Y204651D01*
X389697Y204763D01*
X389830Y204851D01*
X389963Y204918D01*
X390063Y204974D01*
X390130Y204996D01*
X390141Y205007D01*
X390152D01*
X390008Y205096D01*
X389886Y205196D01*
X389786Y205307D01*
X389686Y205407D01*
X389619Y205507D01*
X389563Y205585D01*
X389530Y205629D01*
X389519Y205651D01*
X389441Y205818D01*
X389374Y205996D01*
X389330Y206162D01*
X389308Y206318D01*
X389286Y206440D01*
X389275Y206551D01*
Y206618D01*
Y206629D01*
Y206640D01*
X389286Y206851D01*
X389319Y207051D01*
X389363Y207229D01*
X389419Y207384D01*
X389475Y207507D01*
X389519Y207607D01*
X389552Y207662D01*
X389563Y207684D01*
X389674Y207851D01*
X389786Y207984D01*
X389908Y208096D01*
X390008Y208184D01*
X390108Y208251D01*
X390185Y208307D01*
X390230Y208329D01*
X390252Y208340D01*
X390341Y208373D01*
X390430Y208407D01*
X390652Y208451D01*
X390885Y208484D01*
X391119Y208507D01*
X391330Y208518D01*
X391430Y208529D01*
X394141D01*
Y201018D01*
D02*
G37*
G36*
X387919D02*
X386675D01*
Y204151D01*
X386275D01*
X386153Y204140D01*
X386041Y204129D01*
X385953Y204107D01*
X385886Y204096D01*
X385841Y204074D01*
X385819Y204063D01*
X385808D01*
X385730Y204029D01*
X385664Y203974D01*
X385553Y203874D01*
X385508Y203829D01*
X385475Y203785D01*
X385453Y203763D01*
X385442Y203751D01*
X385408Y203707D01*
X385364Y203640D01*
X385308Y203574D01*
X385264Y203496D01*
X385153Y203307D01*
X385042Y203118D01*
X384942Y202941D01*
X384897Y202863D01*
X384853Y202796D01*
X384819Y202741D01*
X384797Y202696D01*
X384775Y202663D01*
Y202652D01*
X383886Y201018D01*
X382386D01*
X383142Y202474D01*
X383220Y202629D01*
X383297Y202785D01*
X383375Y202918D01*
X383442Y203040D01*
X383508Y203151D01*
X383564Y203252D01*
X383664Y203418D01*
X383742Y203540D01*
X383808Y203629D01*
X383842Y203685D01*
X383853Y203696D01*
X383953Y203818D01*
X384064Y203940D01*
X384175Y204051D01*
X384275Y204140D01*
X384364Y204218D01*
X384442Y204274D01*
X384486Y204318D01*
X384508Y204329D01*
X384231Y204396D01*
X383997Y204485D01*
X383786Y204596D01*
X383619Y204718D01*
X383486Y204818D01*
X383386Y204907D01*
X383331Y204974D01*
X383308Y204985D01*
Y204996D01*
X383164Y205218D01*
X383053Y205451D01*
X382975Y205685D01*
X382931Y205907D01*
X382897Y206107D01*
X382886Y206196D01*
Y206274D01*
X382875Y206329D01*
Y206384D01*
Y206407D01*
Y206418D01*
X382886Y206673D01*
X382920Y206896D01*
X382964Y207107D01*
X383009Y207284D01*
X383064Y207418D01*
X383108Y207529D01*
X383142Y207595D01*
X383153Y207618D01*
X383264Y207796D01*
X383386Y207940D01*
X383497Y208062D01*
X383608Y208151D01*
X383708Y208229D01*
X383786Y208284D01*
X383842Y208307D01*
X383864Y208318D01*
X383953Y208351D01*
X384053Y208384D01*
X384275Y208440D01*
X384508Y208473D01*
X384742Y208507D01*
X384953Y208518D01*
X385053D01*
X385131Y208529D01*
X387919D01*
Y201018D01*
D02*
G37*
G36*
X373621D02*
X372376D01*
Y208529D01*
X373621D01*
Y201018D01*
D02*
G37*
G36*
X344890Y201018D02*
X340202D01*
Y202285D01*
X343646D01*
Y204329D01*
X340546D01*
Y205596D01*
X343646D01*
Y207262D01*
X340313D01*
Y208529D01*
X344890D01*
Y201018D01*
D02*
G37*
G36*
X377409Y208640D02*
X377654Y208607D01*
X377853Y208573D01*
X378031Y208529D01*
X378176Y208473D01*
X378287Y208440D01*
X378353Y208407D01*
X378364Y208396D01*
X378376D01*
X378553Y208295D01*
X378698Y208173D01*
X378831Y208051D01*
X378942Y207929D01*
X379031Y207818D01*
X379087Y207729D01*
X379131Y207673D01*
X379142Y207662D01*
Y207651D01*
X379231Y207462D01*
X379298Y207273D01*
X379353Y207084D01*
X379387Y206918D01*
X379409Y206773D01*
X379420Y206651D01*
Y206607D01*
Y206573D01*
Y206562D01*
Y206551D01*
X379409Y206362D01*
X379387Y206173D01*
X379353Y206007D01*
X379309Y205862D01*
X379275Y205740D01*
X379242Y205640D01*
X379220Y205585D01*
X379209Y205562D01*
X379120Y205396D01*
X379020Y205251D01*
X378920Y205129D01*
X378831Y205029D01*
X378742Y204940D01*
X378676Y204885D01*
X378631Y204840D01*
X378620Y204829D01*
X378465Y204729D01*
X378287Y204629D01*
X378087Y204540D01*
X377898Y204463D01*
X377720Y204396D01*
X377654Y204374D01*
X377587Y204351D01*
X377531Y204329D01*
X377487Y204318D01*
X377465Y204307D01*
X377453D01*
X377298Y204262D01*
X377153Y204218D01*
X377020Y204174D01*
X376909Y204129D01*
X376798Y204096D01*
X376709Y204063D01*
X376631Y204040D01*
X376565Y204018D01*
X376465Y203974D01*
X376387Y203940D01*
X376354Y203929D01*
X376343Y203918D01*
X376265Y203874D01*
X376187Y203829D01*
X376131Y203774D01*
X376087Y203729D01*
X376020Y203663D01*
X375998Y203640D01*
Y203629D01*
X375954Y203563D01*
X375931Y203485D01*
X375887Y203351D01*
Y203285D01*
X375876Y203240D01*
Y203207D01*
Y203196D01*
X375887Y203040D01*
X375931Y202896D01*
X375976Y202774D01*
X376043Y202663D01*
X376098Y202585D01*
X376154Y202518D01*
X376198Y202474D01*
X376209Y202463D01*
X376343Y202363D01*
X376487Y202296D01*
X376631Y202240D01*
X376765Y202207D01*
X376898Y202185D01*
X376998Y202174D01*
X377087D01*
X377287Y202185D01*
X377476Y202240D01*
X377631Y202307D01*
X377776Y202396D01*
X377909Y202507D01*
X378020Y202629D01*
X378109Y202763D01*
X378187Y202896D01*
X378253Y203029D01*
X378309Y203163D01*
X378353Y203285D01*
X378387Y203396D01*
X378409Y203485D01*
X378420Y203552D01*
X378431Y203607D01*
Y203618D01*
X379642Y203474D01*
X379609Y203240D01*
X379575Y203018D01*
X379520Y202818D01*
X379464Y202618D01*
X379387Y202441D01*
X379309Y202274D01*
X379231Y202129D01*
X379142Y201985D01*
X379042Y201852D01*
X378942Y201729D01*
X378731Y201530D01*
X378509Y201352D01*
X378287Y201218D01*
X378064Y201107D01*
X377853Y201029D01*
X377654Y200974D01*
X377476Y200941D01*
X377331Y200918D01*
X377220Y200896D01*
X377120D01*
X376887Y200907D01*
X376676Y200929D01*
X376476Y200952D01*
X376287Y200996D01*
X376120Y201052D01*
X375965Y201107D01*
X375820Y201163D01*
X375698Y201230D01*
X375598Y201285D01*
X375498Y201341D01*
X375420Y201396D01*
X375354Y201452D01*
X375309Y201496D01*
X375276Y201518D01*
X375254Y201541D01*
X375243Y201552D01*
X375132Y201685D01*
X375043Y201818D01*
X374954Y201952D01*
X374887Y202085D01*
X374776Y202363D01*
X374709Y202629D01*
X374687Y202741D01*
X374665Y202852D01*
X374654Y202952D01*
X374643Y203029D01*
X374632Y203107D01*
Y203151D01*
Y203185D01*
Y203196D01*
X374643Y203440D01*
X374665Y203663D01*
X374698Y203863D01*
X374743Y204029D01*
X374787Y204163D01*
X374820Y204262D01*
X374843Y204329D01*
X374854Y204351D01*
X374943Y204518D01*
X375043Y204674D01*
X375154Y204807D01*
X375254Y204918D01*
X375354Y205007D01*
X375431Y205063D01*
X375476Y205107D01*
X375498Y205118D01*
X375576Y205174D01*
X375676Y205229D01*
X375887Y205340D01*
X376109Y205429D01*
X376331Y205518D01*
X376531Y205596D01*
X376620Y205618D01*
X376698Y205651D01*
X376765Y205674D01*
X376809Y205685D01*
X376842Y205696D01*
X376853D01*
X377009Y205740D01*
X377153Y205785D01*
X377287Y205829D01*
X377398Y205873D01*
X377509Y205918D01*
X377598Y205951D01*
X377676Y205996D01*
X377753Y206029D01*
X377865Y206085D01*
X377931Y206129D01*
X377976Y206151D01*
X377987Y206162D01*
X378064Y206240D01*
X378131Y206329D01*
X378176Y206407D01*
X378198Y206485D01*
X378220Y206562D01*
X378231Y206618D01*
Y206651D01*
Y206662D01*
X378220Y206773D01*
X378187Y206873D01*
X378142Y206962D01*
X378098Y207040D01*
X378053Y207107D01*
X378009Y207151D01*
X377976Y207173D01*
X377964Y207185D01*
X377853Y207251D01*
X377720Y207307D01*
X377598Y207340D01*
X377476Y207373D01*
X377365Y207384D01*
X377265Y207396D01*
X377187D01*
X377009Y207384D01*
X376853Y207362D01*
X376720Y207318D01*
X376609Y207273D01*
X376520Y207229D01*
X376454Y207185D01*
X376420Y207162D01*
X376409Y207151D01*
X376309Y207040D01*
X376231Y206918D01*
X376176Y206773D01*
X376120Y206640D01*
X376087Y206507D01*
X376065Y206407D01*
X376054Y206362D01*
X376043Y206329D01*
Y206318D01*
Y206307D01*
X374798Y206373D01*
X374809Y206573D01*
X374843Y206762D01*
X374876Y206929D01*
X374920Y207096D01*
X374965Y207240D01*
X375020Y207384D01*
X375087Y207507D01*
X375143Y207618D01*
X375198Y207718D01*
X375254Y207807D01*
X375309Y207884D01*
X375354Y207940D01*
X375398Y207984D01*
X375431Y208029D01*
X375443Y208040D01*
X375454Y208051D01*
X375576Y208162D01*
X375698Y208251D01*
X375842Y208329D01*
X375976Y208396D01*
X376265Y208507D01*
X376531Y208573D01*
X376665Y208607D01*
X376776Y208618D01*
X376887Y208629D01*
X376976Y208640D01*
X377053Y208651D01*
X377153D01*
X377409Y208640D01*
D02*
G37*
G36*
X355400Y208629D02*
X355700Y208584D01*
X355967Y208518D01*
X356200Y208440D01*
X356289Y208395D01*
X356378Y208351D01*
X356456Y208318D01*
X356522Y208284D01*
X356567Y208262D01*
X356600Y208240D01*
X356622Y208218D01*
X356633D01*
X356856Y208040D01*
X357067Y207840D01*
X357233Y207629D01*
X357389Y207418D01*
X357511Y207229D01*
X357556Y207140D01*
X357589Y207073D01*
X357622Y207007D01*
X357644Y206962D01*
X357667Y206940D01*
Y206929D01*
X357733Y206762D01*
X357800Y206585D01*
X357889Y206218D01*
X357955Y205851D01*
X358011Y205496D01*
X358022Y205340D01*
X358033Y205185D01*
X358044Y205051D01*
Y204940D01*
X358055Y204851D01*
Y204774D01*
Y204729D01*
Y204718D01*
X358044Y204385D01*
X358022Y204063D01*
X357978Y203763D01*
X357922Y203485D01*
X357855Y203229D01*
X357778Y202996D01*
X357700Y202774D01*
X357611Y202574D01*
X357533Y202407D01*
X357455Y202252D01*
X357378Y202118D01*
X357311Y202007D01*
X357256Y201929D01*
X357211Y201863D01*
X357189Y201829D01*
X357178Y201818D01*
X357022Y201652D01*
X356867Y201518D01*
X356689Y201396D01*
X356522Y201285D01*
X356345Y201196D01*
X356167Y201118D01*
X356000Y201063D01*
X355833Y201007D01*
X355678Y200974D01*
X355533Y200941D01*
X355400Y200929D01*
X355289Y200907D01*
X355200D01*
X355122Y200896D01*
X355067D01*
X354822Y200907D01*
X354600Y200941D01*
X354378Y200985D01*
X354178Y201041D01*
X353989Y201118D01*
X353822Y201196D01*
X353667Y201274D01*
X353522Y201363D01*
X353389Y201452D01*
X353278Y201530D01*
X353189Y201618D01*
X353112Y201685D01*
X353045Y201741D01*
X353000Y201785D01*
X352978Y201818D01*
X352967Y201829D01*
X352812Y202041D01*
X352678Y202263D01*
X352556Y202496D01*
X352456Y202741D01*
X352367Y202985D01*
X352289Y203229D01*
X352234Y203463D01*
X352189Y203696D01*
X352156Y203918D01*
X352123Y204118D01*
X352100Y204307D01*
X352089Y204463D01*
X352078Y204596D01*
Y204696D01*
Y204751D01*
Y204774D01*
X352089Y205107D01*
X352112Y205429D01*
X352156Y205729D01*
X352212Y206007D01*
X352267Y206262D01*
X352345Y206496D01*
X352412Y206707D01*
X352489Y206907D01*
X352567Y207073D01*
X352645Y207218D01*
X352723Y207351D01*
X352778Y207451D01*
X352834Y207540D01*
X352878Y207595D01*
X352900Y207629D01*
X352911Y207640D01*
X353078Y207818D01*
X353245Y207973D01*
X353423Y208107D01*
X353600Y208229D01*
X353778Y208318D01*
X353956Y208407D01*
X354134Y208473D01*
X354300Y208529D01*
X354456Y208562D01*
X354600Y208595D01*
X354733Y208618D01*
X354845Y208640D01*
X354934D01*
X355011Y208651D01*
X355067D01*
X355400Y208629D01*
D02*
G37*
G36*
X382503Y195415D02*
Y192779D01*
X381467D01*
Y195406D01*
X379590Y199032D01*
X380792D01*
X381967Y196562D01*
X383169Y199032D01*
X384381D01*
X382503Y195415D01*
D02*
G37*
G36*
X350785Y192779D02*
X349823D01*
Y196849D01*
X347760Y192779D01*
X346715D01*
Y199032D01*
X347677D01*
Y194851D01*
X349786Y199032D01*
X350785D01*
Y192779D01*
D02*
G37*
G36*
X372254Y199124D02*
X372439Y199096D01*
X372606Y199059D01*
X372772Y199013D01*
X372920Y198948D01*
X373059Y198884D01*
X373189Y198810D01*
X373300Y198745D01*
X373401Y198671D01*
X373494Y198597D01*
X373568Y198532D01*
X373633Y198467D01*
X373679Y198421D01*
X373716Y198384D01*
X373734Y198356D01*
X373744Y198347D01*
X373873Y198171D01*
X373984Y197977D01*
X374077Y197783D01*
X374160Y197579D01*
X374234Y197367D01*
X374289Y197163D01*
X374336Y196960D01*
X374373Y196756D01*
X374400Y196571D01*
X374428Y196405D01*
X374447Y196247D01*
X374456Y196109D01*
Y196007D01*
X374465Y195924D01*
Y195868D01*
Y195859D01*
Y195850D01*
X374456Y195572D01*
X374437Y195313D01*
X374400Y195063D01*
X374354Y194832D01*
X374299Y194619D01*
X374243Y194425D01*
X374178Y194240D01*
X374104Y194083D01*
X374040Y193935D01*
X373975Y193805D01*
X373919Y193694D01*
X373864Y193611D01*
X373818Y193537D01*
X373781Y193482D01*
X373762Y193454D01*
X373753Y193445D01*
X373633Y193306D01*
X373503Y193195D01*
X373374Y193093D01*
X373235Y193001D01*
X373096Y192927D01*
X372967Y192862D01*
X372837Y192816D01*
X372708Y192769D01*
X372587Y192742D01*
X372476Y192714D01*
X372375Y192705D01*
X372291Y192686D01*
X372217D01*
X372171Y192677D01*
X372125D01*
X371977Y192686D01*
X371838Y192695D01*
X371579Y192751D01*
X371348Y192825D01*
X371246Y192871D01*
X371154Y192917D01*
X371070Y192964D01*
X370996Y193010D01*
X370932Y193047D01*
X370885Y193084D01*
X370839Y193112D01*
X370811Y193139D01*
X370793Y193149D01*
X370784Y193158D01*
X370682Y193260D01*
X370589Y193361D01*
X370432Y193602D01*
X370293Y193861D01*
X370182Y194111D01*
X370136Y194231D01*
X370099Y194342D01*
X370071Y194444D01*
X370044Y194527D01*
X370025Y194601D01*
X370007Y194656D01*
X369997Y194693D01*
Y194703D01*
X371006Y195091D01*
X371061Y194841D01*
X371135Y194638D01*
X371200Y194462D01*
X371274Y194323D01*
X371339Y194212D01*
X371394Y194138D01*
X371431Y194092D01*
X371440Y194074D01*
X371551Y193972D01*
X371672Y193889D01*
X371792Y193833D01*
X371903Y193796D01*
X371995Y193778D01*
X372079Y193768D01*
X372125Y193759D01*
X372143D01*
X372245Y193768D01*
X372338Y193778D01*
X372523Y193833D01*
X372671Y193916D01*
X372800Y194009D01*
X372911Y194092D01*
X372985Y194175D01*
X373031Y194231D01*
X373050Y194240D01*
Y194249D01*
X373105Y194351D01*
X373161Y194462D01*
X373207Y194592D01*
X373244Y194721D01*
X373309Y194999D01*
X373346Y195276D01*
X373364Y195406D01*
X373374Y195526D01*
X373383Y195637D01*
Y195729D01*
X373392Y195813D01*
Y195868D01*
Y195914D01*
Y195924D01*
Y196127D01*
X373374Y196321D01*
X373355Y196497D01*
X373337Y196654D01*
X373309Y196802D01*
X373281Y196941D01*
X373253Y197061D01*
X373216Y197163D01*
X373179Y197256D01*
X373152Y197339D01*
X373124Y197404D01*
X373096Y197459D01*
X373068Y197496D01*
X373059Y197533D01*
X373041Y197542D01*
Y197552D01*
X372967Y197644D01*
X372893Y197718D01*
X372819Y197783D01*
X372745Y197838D01*
X372587Y197931D01*
X372439Y197986D01*
X372310Y198023D01*
X372208Y198042D01*
X372171Y198051D01*
X372116D01*
X371968Y198042D01*
X371838Y198005D01*
X371727Y197968D01*
X371625Y197912D01*
X371542Y197866D01*
X371477Y197820D01*
X371440Y197783D01*
X371431Y197774D01*
X371329Y197663D01*
X371246Y197542D01*
X371172Y197413D01*
X371117Y197283D01*
X371080Y197172D01*
X371052Y197080D01*
X371043Y197043D01*
Y197015D01*
X371033Y197006D01*
Y196997D01*
X370007Y197293D01*
X370044Y197441D01*
X370090Y197579D01*
X370136Y197709D01*
X370182Y197838D01*
X370238Y197949D01*
X370284Y198051D01*
X370340Y198134D01*
X370386Y198218D01*
X370432Y198292D01*
X370478Y198356D01*
X370515Y198412D01*
X370552Y198458D01*
X370580Y198486D01*
X370599Y198514D01*
X370608Y198532D01*
X370617D01*
X370728Y198634D01*
X370848Y198726D01*
X370969Y198810D01*
X371089Y198884D01*
X371209Y198939D01*
X371329Y198985D01*
X371561Y199059D01*
X371662Y199087D01*
X371755Y199106D01*
X371838Y199115D01*
X371912Y199124D01*
X371977Y199133D01*
X372060D01*
X372254Y199124D01*
D02*
G37*
G36*
X399385Y192779D02*
X398349D01*
Y195137D01*
X397507D01*
X397350Y195147D01*
X397202Y195156D01*
X397072Y195165D01*
X396952Y195184D01*
X396850Y195193D01*
X396748Y195211D01*
X396665Y195230D01*
X396591Y195248D01*
X396526Y195267D01*
X396480Y195276D01*
X396434Y195295D01*
X396397Y195304D01*
X396378Y195313D01*
X396360Y195322D01*
X396221Y195406D01*
X396092Y195498D01*
X395981Y195609D01*
X395888Y195711D01*
X395814Y195803D01*
X395759Y195887D01*
X395722Y195942D01*
X395712Y195951D01*
Y195961D01*
X395629Y196146D01*
X395564Y196331D01*
X395518Y196525D01*
X395481Y196701D01*
X395463Y196858D01*
Y196932D01*
X395453Y196987D01*
Y197034D01*
Y197071D01*
Y197089D01*
Y197098D01*
X395463Y197367D01*
X395500Y197607D01*
X395546Y197811D01*
X395601Y197986D01*
X395638Y198070D01*
X395666Y198134D01*
X395685Y198190D01*
X395712Y198236D01*
X395731Y198273D01*
X395749Y198301D01*
X395759Y198310D01*
Y198319D01*
X395879Y198486D01*
X395999Y198615D01*
X396129Y198726D01*
X396240Y198810D01*
X396351Y198865D01*
X396434Y198911D01*
X396489Y198930D01*
X396499Y198939D01*
X396508D01*
X396573Y198958D01*
X396647Y198967D01*
X396730Y198985D01*
X396822Y198995D01*
X397017Y199013D01*
X397229Y199022D01*
X397414Y199032D01*
X399385D01*
Y192779D01*
D02*
G37*
G36*
X394593D02*
X393557D01*
Y195387D01*
X393224D01*
X393122Y195378D01*
X393030Y195369D01*
X392956Y195350D01*
X392900Y195341D01*
X392863Y195322D01*
X392845Y195313D01*
X392836D01*
X392771Y195285D01*
X392715Y195239D01*
X392623Y195156D01*
X392586Y195119D01*
X392558Y195082D01*
X392540Y195063D01*
X392530Y195054D01*
X392503Y195017D01*
X392466Y194962D01*
X392419Y194906D01*
X392382Y194841D01*
X392290Y194684D01*
X392197Y194527D01*
X392114Y194379D01*
X392077Y194314D01*
X392040Y194259D01*
X392012Y194212D01*
X391994Y194175D01*
X391975Y194148D01*
Y194138D01*
X391235Y192779D01*
X389987D01*
X390616Y193990D01*
X390680Y194120D01*
X390745Y194249D01*
X390810Y194360D01*
X390865Y194462D01*
X390921Y194555D01*
X390967Y194638D01*
X391050Y194777D01*
X391115Y194878D01*
X391171Y194952D01*
X391198Y194999D01*
X391208Y195008D01*
X391291Y195110D01*
X391383Y195211D01*
X391476Y195304D01*
X391559Y195378D01*
X391633Y195443D01*
X391698Y195489D01*
X391735Y195526D01*
X391753Y195535D01*
X391522Y195591D01*
X391328Y195665D01*
X391152Y195757D01*
X391013Y195859D01*
X390902Y195942D01*
X390819Y196016D01*
X390773Y196072D01*
X390754Y196081D01*
Y196090D01*
X390634Y196275D01*
X390542Y196469D01*
X390477Y196664D01*
X390440Y196849D01*
X390412Y197015D01*
X390403Y197089D01*
Y197154D01*
X390394Y197200D01*
Y197246D01*
Y197265D01*
Y197274D01*
X390403Y197487D01*
X390431Y197672D01*
X390468Y197848D01*
X390505Y197996D01*
X390551Y198107D01*
X390588Y198199D01*
X390616Y198255D01*
X390625Y198273D01*
X390717Y198421D01*
X390819Y198541D01*
X390912Y198643D01*
X391004Y198717D01*
X391087Y198782D01*
X391152Y198828D01*
X391198Y198847D01*
X391217Y198856D01*
X391291Y198884D01*
X391374Y198911D01*
X391559Y198958D01*
X391753Y198985D01*
X391948Y199013D01*
X392123Y199022D01*
X392207D01*
X392271Y199032D01*
X394593D01*
Y192779D01*
D02*
G37*
G36*
X379062D02*
X375159D01*
Y193833D01*
X378026D01*
Y195535D01*
X375446D01*
Y196590D01*
X378026D01*
Y197977D01*
X375251D01*
Y199032D01*
X379062D01*
Y192779D01*
D02*
G37*
G36*
X369479Y197977D02*
X367953D01*
Y192779D01*
X366917D01*
Y197977D01*
X365400D01*
Y199032D01*
X369479D01*
Y197977D01*
D02*
G37*
G36*
X357168Y192779D02*
X356132D01*
Y195433D01*
X353986D01*
Y196488D01*
X356132D01*
Y197977D01*
X353653D01*
Y199032D01*
X357168D01*
Y192779D01*
D02*
G37*
G36*
X352829D02*
X351793D01*
Y199032D01*
X352829D01*
Y192779D01*
D02*
G37*
G36*
X346160D02*
X345059D01*
X344643Y194194D01*
X342571D01*
X342127Y192779D01*
X341008D01*
X343071Y199032D01*
X344171D01*
X346160Y192779D01*
D02*
G37*
G36*
X340444D02*
X336836D01*
Y193833D01*
X339408D01*
Y198985D01*
X340444D01*
Y192779D01*
D02*
G37*
G36*
X387424Y199115D02*
X387674Y199078D01*
X387896Y199022D01*
X388090Y198958D01*
X388164Y198921D01*
X388238Y198884D01*
X388303Y198856D01*
X388359Y198828D01*
X388396Y198810D01*
X388423Y198791D01*
X388442Y198773D01*
X388451D01*
X388636Y198625D01*
X388812Y198458D01*
X388951Y198282D01*
X389080Y198107D01*
X389182Y197949D01*
X389219Y197875D01*
X389247Y197820D01*
X389274Y197764D01*
X389293Y197727D01*
X389311Y197709D01*
Y197700D01*
X389367Y197561D01*
X389422Y197413D01*
X389496Y197108D01*
X389552Y196802D01*
X389598Y196506D01*
X389607Y196377D01*
X389617Y196247D01*
X389626Y196136D01*
Y196044D01*
X389635Y195970D01*
Y195905D01*
Y195868D01*
Y195859D01*
X389626Y195581D01*
X389607Y195313D01*
X389570Y195063D01*
X389524Y194832D01*
X389469Y194619D01*
X389404Y194425D01*
X389339Y194240D01*
X389265Y194074D01*
X389200Y193935D01*
X389136Y193805D01*
X389071Y193694D01*
X389015Y193602D01*
X388969Y193537D01*
X388932Y193482D01*
X388914Y193454D01*
X388904Y193445D01*
X388775Y193306D01*
X388645Y193195D01*
X388497Y193093D01*
X388359Y193001D01*
X388211Y192927D01*
X388063Y192862D01*
X387924Y192816D01*
X387785Y192769D01*
X387656Y192742D01*
X387535Y192714D01*
X387424Y192705D01*
X387332Y192686D01*
X387258D01*
X387193Y192677D01*
X387147D01*
X386943Y192686D01*
X386758Y192714D01*
X386573Y192751D01*
X386407Y192797D01*
X386250Y192862D01*
X386111Y192927D01*
X385981Y192991D01*
X385861Y193065D01*
X385750Y193139D01*
X385658Y193204D01*
X385584Y193278D01*
X385519Y193334D01*
X385463Y193380D01*
X385426Y193417D01*
X385408Y193445D01*
X385399Y193454D01*
X385269Y193630D01*
X385158Y193815D01*
X385056Y194009D01*
X384973Y194212D01*
X384899Y194416D01*
X384834Y194619D01*
X384788Y194814D01*
X384751Y195008D01*
X384723Y195193D01*
X384696Y195359D01*
X384677Y195517D01*
X384668Y195646D01*
X384659Y195757D01*
Y195840D01*
Y195887D01*
Y195905D01*
X384668Y196183D01*
X384686Y196451D01*
X384723Y196701D01*
X384770Y196932D01*
X384816Y197145D01*
X384881Y197339D01*
X384936Y197515D01*
X385001Y197681D01*
X385066Y197820D01*
X385130Y197940D01*
X385195Y198051D01*
X385241Y198134D01*
X385288Y198208D01*
X385325Y198255D01*
X385343Y198282D01*
X385352Y198292D01*
X385491Y198440D01*
X385630Y198569D01*
X385778Y198680D01*
X385926Y198782D01*
X386074Y198856D01*
X386222Y198930D01*
X386370Y198985D01*
X386509Y199032D01*
X386638Y199059D01*
X386758Y199087D01*
X386869Y199106D01*
X386962Y199124D01*
X387036D01*
X387101Y199133D01*
X387147D01*
X387424Y199115D01*
D02*
G37*
G36*
X362736Y199115D02*
X362986Y199078D01*
X363208Y199022D01*
X363402Y198958D01*
X363476Y198921D01*
X363550Y198884D01*
X363615Y198856D01*
X363670Y198828D01*
X363707Y198810D01*
X363735Y198791D01*
X363754Y198773D01*
X363763D01*
X363948Y198625D01*
X364124Y198458D01*
X364262Y198282D01*
X364392Y198107D01*
X364494Y197949D01*
X364531Y197875D01*
X364558Y197820D01*
X364586Y197764D01*
X364605Y197727D01*
X364623Y197709D01*
Y197700D01*
X364679Y197561D01*
X364734Y197413D01*
X364808Y197108D01*
X364864Y196802D01*
X364910Y196506D01*
X364919Y196377D01*
X364928Y196247D01*
X364938Y196136D01*
Y196044D01*
X364947Y195970D01*
Y195905D01*
Y195868D01*
Y195859D01*
X364938Y195581D01*
X364919Y195313D01*
X364882Y195063D01*
X364836Y194832D01*
X364780Y194619D01*
X364716Y194425D01*
X364651Y194240D01*
X364577Y194074D01*
X364512Y193935D01*
X364447Y193805D01*
X364383Y193694D01*
X364327Y193602D01*
X364281Y193537D01*
X364244Y193482D01*
X364225Y193454D01*
X364216Y193445D01*
X364087Y193306D01*
X363957Y193195D01*
X363809Y193093D01*
X363670Y193001D01*
X363522Y192927D01*
X363374Y192862D01*
X363236Y192816D01*
X363097Y192769D01*
X362967Y192742D01*
X362847Y192714D01*
X362736Y192705D01*
X362644Y192686D01*
X362570D01*
X362505Y192677D01*
X362459D01*
X362255Y192686D01*
X362070Y192714D01*
X361885Y192751D01*
X361719Y192797D01*
X361561Y192862D01*
X361423Y192927D01*
X361293Y192991D01*
X361173Y193065D01*
X361062Y193139D01*
X360969Y193204D01*
X360895Y193278D01*
X360831Y193334D01*
X360775Y193380D01*
X360738Y193417D01*
X360720Y193445D01*
X360710Y193454D01*
X360581Y193630D01*
X360470Y193815D01*
X360368Y194009D01*
X360285Y194212D01*
X360211Y194416D01*
X360146Y194619D01*
X360100Y194814D01*
X360063Y195008D01*
X360035Y195193D01*
X360007Y195359D01*
X359989Y195517D01*
X359980Y195646D01*
X359970Y195757D01*
Y195840D01*
Y195887D01*
Y195905D01*
X359980Y196183D01*
X359998Y196451D01*
X360035Y196701D01*
X360081Y196932D01*
X360128Y197145D01*
X360192Y197339D01*
X360248Y197515D01*
X360313Y197681D01*
X360377Y197820D01*
X360442Y197940D01*
X360507Y198051D01*
X360553Y198134D01*
X360599Y198208D01*
X360636Y198255D01*
X360655Y198282D01*
X360664Y198292D01*
X360803Y198440D01*
X360942Y198569D01*
X361090Y198680D01*
X361238Y198782D01*
X361386Y198856D01*
X361534Y198930D01*
X361682Y198985D01*
X361820Y199032D01*
X361950Y199059D01*
X362070Y199087D01*
X362181Y199106D01*
X362274Y199124D01*
X362348D01*
X362412Y199133D01*
X362459D01*
X362736Y199115D01*
D02*
G37*
G36*
X366536Y184539D02*
X365633D01*
X364175Y189541D01*
X365063D01*
X366062Y185834D01*
X367098Y189541D01*
X367994D01*
X366536Y184539D01*
D02*
G37*
G36*
X399385Y188698D02*
X398164D01*
Y184539D01*
X397335D01*
Y188698D01*
X396121D01*
Y189541D01*
X399385D01*
Y188698D01*
D02*
G37*
G36*
X391134Y184539D02*
X389432D01*
X389298Y184546D01*
X389180D01*
X389069Y184554D01*
X388973Y184561D01*
X388891D01*
X388817Y184568D01*
X388758Y184576D01*
X388706Y184583D01*
X388669D01*
X388632Y184591D01*
X388610D01*
X388595Y184598D01*
X388581D01*
X388455Y184642D01*
X388336Y184709D01*
X388225Y184783D01*
X388137Y184864D01*
X388063Y184938D01*
X388003Y185005D01*
X387974Y185049D01*
X387959Y185057D01*
Y185064D01*
X387870Y185212D01*
X387804Y185368D01*
X387759Y185523D01*
X387722Y185671D01*
X387707Y185797D01*
X387700Y185849D01*
Y185900D01*
X387693Y185937D01*
Y185967D01*
Y185982D01*
Y185989D01*
X387700Y186152D01*
X387722Y186300D01*
X387759Y186426D01*
X387796Y186537D01*
X387833Y186633D01*
X387870Y186700D01*
X387892Y186737D01*
X387900Y186751D01*
X387981Y186862D01*
X388077Y186959D01*
X388174Y187033D01*
X388262Y187092D01*
X388351Y187136D01*
X388418Y187173D01*
X388462Y187188D01*
X388470Y187195D01*
X388477D01*
X388381Y187255D01*
X388299Y187321D01*
X388233Y187395D01*
X388166Y187462D01*
X388122Y187528D01*
X388085Y187580D01*
X388063Y187610D01*
X388055Y187625D01*
X388003Y187736D01*
X387959Y187854D01*
X387929Y187965D01*
X387915Y188069D01*
X387900Y188150D01*
X387892Y188224D01*
Y188268D01*
Y188276D01*
Y188283D01*
X387900Y188424D01*
X387922Y188557D01*
X387952Y188675D01*
X387989Y188779D01*
X388026Y188860D01*
X388055Y188927D01*
X388077Y188964D01*
X388085Y188979D01*
X388159Y189090D01*
X388233Y189179D01*
X388314Y189253D01*
X388381Y189312D01*
X388447Y189356D01*
X388499Y189393D01*
X388529Y189408D01*
X388544Y189415D01*
X388603Y189438D01*
X388662Y189460D01*
X388810Y189489D01*
X388965Y189512D01*
X389121Y189526D01*
X389261Y189534D01*
X389328Y189541D01*
X391134D01*
Y184539D01*
D02*
G37*
G36*
X387019D02*
X386190D01*
Y189541D01*
X387019D01*
Y184539D01*
D02*
G37*
G36*
X385820D02*
X384940D01*
X384607Y185671D01*
X382949D01*
X382594Y184539D01*
X381699D01*
X383349Y189541D01*
X384229D01*
X385820Y184539D01*
D02*
G37*
G36*
X375853D02*
X374151D01*
X374017Y184546D01*
X373899D01*
X373788Y184554D01*
X373692Y184561D01*
X373610D01*
X373536Y184568D01*
X373477Y184576D01*
X373425Y184583D01*
X373388D01*
X373351Y184591D01*
X373329D01*
X373314Y184598D01*
X373300D01*
X373174Y184642D01*
X373055Y184709D01*
X372944Y184783D01*
X372856Y184864D01*
X372782Y184938D01*
X372722Y185005D01*
X372693Y185049D01*
X372678Y185057D01*
Y185064D01*
X372589Y185212D01*
X372523Y185368D01*
X372478Y185523D01*
X372441Y185671D01*
X372426Y185797D01*
X372419Y185849D01*
Y185900D01*
X372412Y185937D01*
Y185967D01*
Y185982D01*
Y185989D01*
X372419Y186152D01*
X372441Y186300D01*
X372478Y186426D01*
X372515Y186537D01*
X372552Y186633D01*
X372589Y186700D01*
X372611Y186737D01*
X372619Y186751D01*
X372700Y186862D01*
X372796Y186959D01*
X372893Y187033D01*
X372981Y187092D01*
X373070Y187136D01*
X373137Y187173D01*
X373181Y187188D01*
X373189Y187195D01*
X373196D01*
X373100Y187255D01*
X373018Y187321D01*
X372952Y187395D01*
X372885Y187462D01*
X372841Y187528D01*
X372804Y187580D01*
X372782Y187610D01*
X372774Y187625D01*
X372722Y187736D01*
X372678Y187854D01*
X372648Y187965D01*
X372634Y188069D01*
X372619Y188150D01*
X372611Y188224D01*
Y188268D01*
Y188276D01*
Y188283D01*
X372619Y188424D01*
X372641Y188557D01*
X372671Y188675D01*
X372708Y188779D01*
X372745Y188860D01*
X372774Y188927D01*
X372796Y188964D01*
X372804Y188979D01*
X372878Y189090D01*
X372952Y189179D01*
X373033Y189253D01*
X373100Y189312D01*
X373166Y189356D01*
X373218Y189393D01*
X373248Y189408D01*
X373263Y189415D01*
X373322Y189438D01*
X373381Y189460D01*
X373529Y189489D01*
X373684Y189512D01*
X373840Y189526D01*
X373980Y189534D01*
X374047Y189541D01*
X375853D01*
Y184539D01*
D02*
G37*
G36*
X372130D02*
X371250D01*
X370917Y185671D01*
X369259Y185671D01*
X368904Y184539D01*
X368009D01*
X369659Y189541D01*
X370539D01*
X372130Y184539D01*
D02*
G37*
G36*
X364168Y184539D02*
X363287D01*
X362954Y185671D01*
X361297D01*
X360942Y184539D01*
X360046D01*
X361696Y189541D01*
X362577D01*
X364168Y184539D01*
D02*
G37*
G36*
X393990Y189608D02*
X394190Y189578D01*
X394367Y189534D01*
X394523Y189482D01*
X394582Y189452D01*
X394641Y189423D01*
X394693Y189401D01*
X394737Y189378D01*
X394767Y189364D01*
X394789Y189349D01*
X394804Y189334D01*
X394811D01*
X394959Y189216D01*
X395100Y189082D01*
X395211Y188942D01*
X395315Y188801D01*
X395396Y188675D01*
X395426Y188616D01*
X395448Y188572D01*
X395470Y188527D01*
X395485Y188498D01*
X395500Y188483D01*
Y188476D01*
X395544Y188365D01*
X395588Y188246D01*
X395648Y188002D01*
X395692Y187758D01*
X395729Y187521D01*
X395736Y187417D01*
X395744Y187314D01*
X395751Y187225D01*
Y187151D01*
X395759Y187092D01*
Y187040D01*
Y187010D01*
Y187003D01*
X395751Y186781D01*
X395736Y186566D01*
X395707Y186367D01*
X395670Y186182D01*
X395625Y186011D01*
X395574Y185856D01*
X395522Y185708D01*
X395463Y185575D01*
X395411Y185464D01*
X395359Y185360D01*
X395307Y185271D01*
X395263Y185197D01*
X395226Y185146D01*
X395196Y185101D01*
X395181Y185079D01*
X395174Y185072D01*
X395070Y184961D01*
X394967Y184872D01*
X394848Y184790D01*
X394737Y184716D01*
X394619Y184657D01*
X394501Y184605D01*
X394390Y184568D01*
X394279Y184531D01*
X394175Y184509D01*
X394079Y184487D01*
X393990Y184480D01*
X393916Y184465D01*
X393857D01*
X393805Y184457D01*
X393768D01*
X393605Y184465D01*
X393457Y184487D01*
X393309Y184517D01*
X393176Y184554D01*
X393050Y184605D01*
X392939Y184657D01*
X392836Y184709D01*
X392739Y184768D01*
X392651Y184827D01*
X392577Y184879D01*
X392517Y184938D01*
X392466Y184983D01*
X392421Y185020D01*
X392392Y185049D01*
X392377Y185072D01*
X392369Y185079D01*
X392266Y185220D01*
X392177Y185368D01*
X392096Y185523D01*
X392029Y185686D01*
X391970Y185849D01*
X391918Y186011D01*
X391881Y186167D01*
X391851Y186322D01*
X391829Y186470D01*
X391807Y186603D01*
X391792Y186729D01*
X391785Y186833D01*
X391777Y186922D01*
Y186988D01*
Y187025D01*
Y187040D01*
X391785Y187262D01*
X391800Y187477D01*
X391829Y187676D01*
X391866Y187861D01*
X391903Y188032D01*
X391955Y188187D01*
X391999Y188328D01*
X392051Y188461D01*
X392103Y188572D01*
X392155Y188668D01*
X392207Y188757D01*
X392244Y188823D01*
X392281Y188883D01*
X392310Y188920D01*
X392325Y188942D01*
X392332Y188949D01*
X392443Y189068D01*
X392554Y189171D01*
X392673Y189260D01*
X392791Y189341D01*
X392910Y189401D01*
X393028Y189460D01*
X393146Y189504D01*
X393257Y189541D01*
X393361Y189563D01*
X393457Y189586D01*
X393546Y189600D01*
X393620Y189615D01*
X393679D01*
X393731Y189623D01*
X393768D01*
X393990Y189608D01*
D02*
G37*
G36*
X379989Y189615D02*
X380152Y189593D01*
X380285Y189571D01*
X380404Y189541D01*
X380500Y189504D01*
X380574Y189482D01*
X380618Y189460D01*
X380626Y189452D01*
X380633D01*
X380751Y189386D01*
X380848Y189304D01*
X380936Y189223D01*
X381010Y189142D01*
X381070Y189068D01*
X381107Y189008D01*
X381136Y188971D01*
X381144Y188964D01*
Y188957D01*
X381203Y188831D01*
X381247Y188705D01*
X381284Y188579D01*
X381306Y188468D01*
X381321Y188372D01*
X381329Y188291D01*
Y188261D01*
Y188239D01*
Y188231D01*
Y188224D01*
X381321Y188098D01*
X381306Y187972D01*
X381284Y187861D01*
X381255Y187765D01*
X381232Y187684D01*
X381210Y187617D01*
X381195Y187580D01*
X381188Y187565D01*
X381129Y187454D01*
X381062Y187358D01*
X380996Y187277D01*
X380936Y187210D01*
X380877Y187151D01*
X380833Y187114D01*
X380803Y187084D01*
X380796Y187077D01*
X380692Y187010D01*
X380574Y186944D01*
X380441Y186885D01*
X380315Y186833D01*
X380196Y186788D01*
X380152Y186774D01*
X380108Y186759D01*
X380071Y186744D01*
X380041Y186737D01*
X380026Y186729D01*
X380019D01*
X379915Y186700D01*
X379819Y186670D01*
X379730Y186640D01*
X379656Y186611D01*
X379582Y186589D01*
X379523Y186566D01*
X379471Y186552D01*
X379427Y186537D01*
X379360Y186507D01*
X379308Y186485D01*
X379286Y186478D01*
X379279Y186470D01*
X379227Y186441D01*
X379175Y186411D01*
X379138Y186374D01*
X379109Y186344D01*
X379064Y186300D01*
X379049Y186285D01*
Y186278D01*
X379020Y186233D01*
X379005Y186182D01*
X378975Y186093D01*
Y186048D01*
X378968Y186019D01*
Y185997D01*
Y185989D01*
X378975Y185886D01*
X379005Y185789D01*
X379035Y185708D01*
X379079Y185634D01*
X379116Y185582D01*
X379153Y185538D01*
X379183Y185508D01*
X379190Y185501D01*
X379279Y185434D01*
X379375Y185390D01*
X379471Y185353D01*
X379560Y185331D01*
X379649Y185316D01*
X379715Y185308D01*
X379775D01*
X379908Y185316D01*
X380034Y185353D01*
X380137Y185397D01*
X380233Y185456D01*
X380322Y185530D01*
X380396Y185612D01*
X380455Y185701D01*
X380507Y185789D01*
X380552Y185878D01*
X380589Y185967D01*
X380618Y186048D01*
X380640Y186122D01*
X380655Y186182D01*
X380663Y186226D01*
X380670Y186263D01*
Y186270D01*
X381477Y186174D01*
X381454Y186019D01*
X381432Y185871D01*
X381395Y185738D01*
X381358Y185604D01*
X381306Y185486D01*
X381255Y185375D01*
X381203Y185279D01*
X381144Y185183D01*
X381077Y185094D01*
X381010Y185012D01*
X380870Y184879D01*
X380722Y184761D01*
X380574Y184672D01*
X380426Y184598D01*
X380285Y184546D01*
X380152Y184509D01*
X380034Y184487D01*
X379937Y184472D01*
X379863Y184457D01*
X379797D01*
X379641Y184465D01*
X379501Y184480D01*
X379368Y184494D01*
X379242Y184524D01*
X379131Y184561D01*
X379027Y184598D01*
X378931Y184635D01*
X378850Y184679D01*
X378783Y184716D01*
X378716Y184753D01*
X378665Y184790D01*
X378620Y184827D01*
X378591Y184857D01*
X378568Y184872D01*
X378554Y184887D01*
X378546Y184894D01*
X378472Y184983D01*
X378413Y185072D01*
X378354Y185160D01*
X378309Y185249D01*
X378235Y185434D01*
X378191Y185612D01*
X378176Y185686D01*
X378161Y185760D01*
X378154Y185826D01*
X378147Y185878D01*
X378139Y185930D01*
Y185960D01*
Y185982D01*
Y185989D01*
X378147Y186152D01*
X378161Y186300D01*
X378184Y186433D01*
X378213Y186544D01*
X378243Y186633D01*
X378265Y186700D01*
X378280Y186744D01*
X378287Y186759D01*
X378346Y186870D01*
X378413Y186973D01*
X378487Y187062D01*
X378554Y187136D01*
X378620Y187195D01*
X378672Y187232D01*
X378702Y187262D01*
X378716Y187269D01*
X378768Y187306D01*
X378835Y187343D01*
X378975Y187417D01*
X379123Y187477D01*
X379271Y187536D01*
X379405Y187588D01*
X379464Y187602D01*
X379516Y187625D01*
X379560Y187639D01*
X379590Y187647D01*
X379612Y187654D01*
X379619D01*
X379723Y187684D01*
X379819Y187713D01*
X379908Y187743D01*
X379982Y187773D01*
X380056Y187802D01*
X380115Y187824D01*
X380167Y187854D01*
X380219Y187876D01*
X380293Y187913D01*
X380337Y187943D01*
X380367Y187958D01*
X380374Y187965D01*
X380426Y188017D01*
X380470Y188076D01*
X380500Y188128D01*
X380515Y188180D01*
X380529Y188231D01*
X380537Y188268D01*
Y188291D01*
Y188298D01*
X380529Y188372D01*
X380507Y188439D01*
X380478Y188498D01*
X380448Y188550D01*
X380418Y188594D01*
X380389Y188624D01*
X380367Y188638D01*
X380359Y188646D01*
X380285Y188690D01*
X380196Y188727D01*
X380115Y188749D01*
X380034Y188772D01*
X379960Y188779D01*
X379893Y188786D01*
X379841D01*
X379723Y188779D01*
X379619Y188764D01*
X379530Y188735D01*
X379456Y188705D01*
X379397Y188675D01*
X379353Y188646D01*
X379331Y188631D01*
X379323Y188624D01*
X379257Y188550D01*
X379205Y188468D01*
X379168Y188372D01*
X379131Y188283D01*
X379109Y188194D01*
X379094Y188128D01*
X379086Y188098D01*
X379079Y188076D01*
Y188069D01*
Y188061D01*
X378250Y188106D01*
X378258Y188239D01*
X378280Y188365D01*
X378302Y188476D01*
X378332Y188587D01*
X378361Y188683D01*
X378398Y188779D01*
X378443Y188860D01*
X378480Y188934D01*
X378517Y189001D01*
X378554Y189060D01*
X378591Y189112D01*
X378620Y189149D01*
X378650Y189179D01*
X378672Y189208D01*
X378679Y189216D01*
X378687Y189223D01*
X378768Y189297D01*
X378850Y189356D01*
X378946Y189408D01*
X379035Y189452D01*
X379227Y189526D01*
X379405Y189571D01*
X379493Y189593D01*
X379567Y189600D01*
X379641Y189608D01*
X379701Y189615D01*
X379752Y189623D01*
X379819D01*
X379989Y189615D01*
D02*
G37*
G36*
X358337Y189615D02*
X358500Y189593D01*
X358633Y189571D01*
X358751Y189541D01*
X358847Y189504D01*
X358921Y189482D01*
X358966Y189460D01*
X358973Y189452D01*
X358981D01*
X359099Y189386D01*
X359195Y189304D01*
X359284Y189223D01*
X359358Y189142D01*
X359417Y189068D01*
X359454Y189008D01*
X359484Y188971D01*
X359491Y188964D01*
Y188957D01*
X359550Y188831D01*
X359595Y188705D01*
X359632Y188579D01*
X359654Y188468D01*
X359669Y188372D01*
X359676Y188291D01*
Y188261D01*
Y188239D01*
Y188231D01*
Y188224D01*
X359669Y188098D01*
X359654Y187972D01*
X359632Y187861D01*
X359602Y187765D01*
X359580Y187684D01*
X359558Y187617D01*
X359543Y187580D01*
X359536Y187565D01*
X359476Y187454D01*
X359410Y187358D01*
X359343Y187277D01*
X359284Y187210D01*
X359225Y187151D01*
X359180Y187114D01*
X359151Y187084D01*
X359143Y187077D01*
X359040Y187010D01*
X358921Y186944D01*
X358788Y186885D01*
X358662Y186833D01*
X358544Y186788D01*
X358500Y186774D01*
X358455Y186759D01*
X358418Y186744D01*
X358389Y186737D01*
X358374Y186729D01*
X358366D01*
X358263Y186700D01*
X358167Y186670D01*
X358078Y186640D01*
X358004Y186611D01*
X357930Y186589D01*
X357871Y186566D01*
X357819Y186552D01*
X357774Y186537D01*
X357708Y186507D01*
X357656Y186485D01*
X357634Y186478D01*
X357626Y186470D01*
X357575Y186441D01*
X357523Y186411D01*
X357486Y186374D01*
X357456Y186344D01*
X357412Y186300D01*
X357397Y186285D01*
Y186278D01*
X357367Y186233D01*
X357353Y186182D01*
X357323Y186093D01*
Y186048D01*
X357316Y186019D01*
Y185997D01*
Y185989D01*
X357323Y185886D01*
X357353Y185789D01*
X357382Y185708D01*
X357427Y185634D01*
X357464Y185582D01*
X357501Y185538D01*
X357530Y185508D01*
X357538Y185501D01*
X357626Y185434D01*
X357723Y185390D01*
X357819Y185353D01*
X357908Y185331D01*
X357996Y185316D01*
X358063Y185308D01*
X358122D01*
X358255Y185316D01*
X358381Y185353D01*
X358485Y185397D01*
X358581Y185456D01*
X358670Y185530D01*
X358744Y185612D01*
X358803Y185701D01*
X358855Y185789D01*
X358899Y185878D01*
X358936Y185967D01*
X358966Y186048D01*
X358988Y186122D01*
X359003Y186182D01*
X359010Y186226D01*
X359018Y186263D01*
Y186270D01*
X359824Y186174D01*
X359802Y186019D01*
X359780Y185871D01*
X359743Y185738D01*
X359706Y185604D01*
X359654Y185486D01*
X359602Y185375D01*
X359550Y185279D01*
X359491Y185183D01*
X359425Y185094D01*
X359358Y185012D01*
X359217Y184879D01*
X359069Y184761D01*
X358921Y184672D01*
X358773Y184598D01*
X358633Y184546D01*
X358500Y184509D01*
X358381Y184487D01*
X358285Y184472D01*
X358211Y184457D01*
X358144D01*
X357989Y184465D01*
X357848Y184480D01*
X357715Y184494D01*
X357589Y184524D01*
X357478Y184561D01*
X357375Y184598D01*
X357279Y184635D01*
X357197Y184679D01*
X357131Y184716D01*
X357064Y184753D01*
X357012Y184790D01*
X356968Y184827D01*
X356938Y184857D01*
X356916Y184872D01*
X356901Y184887D01*
X356894Y184894D01*
X356820Y184983D01*
X356761Y185072D01*
X356701Y185160D01*
X356657Y185249D01*
X356583Y185434D01*
X356539Y185612D01*
X356524Y185686D01*
X356509Y185760D01*
X356502Y185826D01*
X356494Y185878D01*
X356487Y185930D01*
Y185960D01*
Y185982D01*
Y185989D01*
X356494Y186152D01*
X356509Y186300D01*
X356531Y186433D01*
X356561Y186544D01*
X356590Y186633D01*
X356613Y186700D01*
X356627Y186744D01*
X356635Y186759D01*
X356694Y186870D01*
X356761Y186973D01*
X356835Y187062D01*
X356901Y187136D01*
X356968Y187195D01*
X357020Y187232D01*
X357049Y187262D01*
X357064Y187269D01*
X357116Y187306D01*
X357182Y187343D01*
X357323Y187417D01*
X357471Y187477D01*
X357619Y187536D01*
X357752Y187588D01*
X357811Y187602D01*
X357863Y187625D01*
X357908Y187639D01*
X357937Y187647D01*
X357959Y187654D01*
X357967D01*
X358070Y187684D01*
X358167Y187713D01*
X358255Y187743D01*
X358329Y187773D01*
X358403Y187802D01*
X358463Y187824D01*
X358514Y187854D01*
X358566Y187876D01*
X358640Y187913D01*
X358685Y187943D01*
X358714Y187958D01*
X358722Y187965D01*
X358773Y188017D01*
X358818Y188076D01*
X358847Y188128D01*
X358862Y188180D01*
X358877Y188231D01*
X358884Y188268D01*
Y188291D01*
Y188298D01*
X358877Y188372D01*
X358855Y188439D01*
X358825Y188498D01*
X358796Y188550D01*
X358766Y188594D01*
X358736Y188624D01*
X358714Y188638D01*
X358707Y188646D01*
X358633Y188690D01*
X358544Y188727D01*
X358463Y188749D01*
X358381Y188772D01*
X358307Y188779D01*
X358241Y188786D01*
X358189D01*
X358070Y188779D01*
X357967Y188764D01*
X357878Y188735D01*
X357804Y188705D01*
X357745Y188675D01*
X357700Y188646D01*
X357678Y188631D01*
X357671Y188624D01*
X357604Y188550D01*
X357552Y188468D01*
X357515Y188372D01*
X357478Y188283D01*
X357456Y188194D01*
X357441Y188128D01*
X357434Y188098D01*
X357427Y188076D01*
Y188069D01*
Y188061D01*
X356598Y188106D01*
X356605Y188239D01*
X356627Y188365D01*
X356650Y188476D01*
X356679Y188587D01*
X356709Y188683D01*
X356746Y188779D01*
X356790Y188860D01*
X356827Y188934D01*
X356864Y189001D01*
X356901Y189060D01*
X356938Y189112D01*
X356968Y189149D01*
X356997Y189179D01*
X357020Y189208D01*
X357027Y189216D01*
X357034Y189223D01*
X357116Y189297D01*
X357197Y189356D01*
X357293Y189408D01*
X357382Y189452D01*
X357575Y189526D01*
X357752Y189571D01*
X357841Y189593D01*
X357915Y189600D01*
X357989Y189608D01*
X358048Y189615D01*
X358100Y189623D01*
X358167D01*
X358337Y189615D01*
D02*
G37*
G36*
X354511D02*
X354674Y189593D01*
X354807Y189571D01*
X354925Y189541D01*
X355022Y189504D01*
X355096Y189482D01*
X355140Y189460D01*
X355147Y189452D01*
X355155D01*
X355273Y189386D01*
X355369Y189304D01*
X355458Y189223D01*
X355532Y189142D01*
X355591Y189068D01*
X355628Y189008D01*
X355658Y188971D01*
X355665Y188964D01*
Y188957D01*
X355725Y188831D01*
X355769Y188705D01*
X355806Y188579D01*
X355828Y188468D01*
X355843Y188372D01*
X355850Y188291D01*
Y188261D01*
Y188239D01*
Y188231D01*
Y188224D01*
X355843Y188098D01*
X355828Y187972D01*
X355806Y187861D01*
X355776Y187765D01*
X355754Y187684D01*
X355732Y187617D01*
X355717Y187580D01*
X355710Y187565D01*
X355651Y187454D01*
X355584Y187358D01*
X355517Y187277D01*
X355458Y187210D01*
X355399Y187151D01*
X355355Y187114D01*
X355325Y187084D01*
X355318Y187077D01*
X355214Y187010D01*
X355096Y186944D01*
X354962Y186885D01*
X354837Y186833D01*
X354718Y186788D01*
X354674Y186774D01*
X354629Y186759D01*
X354592Y186744D01*
X354563Y186737D01*
X354548Y186729D01*
X354541D01*
X354437Y186700D01*
X354341Y186670D01*
X354252Y186640D01*
X354178Y186611D01*
X354104Y186589D01*
X354045Y186566D01*
X353993Y186552D01*
X353949Y186537D01*
X353882Y186507D01*
X353830Y186485D01*
X353808Y186478D01*
X353801Y186470D01*
X353749Y186441D01*
X353697Y186411D01*
X353660Y186374D01*
X353630Y186344D01*
X353586Y186300D01*
X353571Y186285D01*
Y186278D01*
X353542Y186233D01*
X353527Y186182D01*
X353497Y186093D01*
Y186048D01*
X353490Y186019D01*
Y185997D01*
Y185989D01*
X353497Y185886D01*
X353527Y185789D01*
X353556Y185708D01*
X353601Y185634D01*
X353638Y185582D01*
X353675Y185538D01*
X353704Y185508D01*
X353712Y185501D01*
X353801Y185434D01*
X353897Y185390D01*
X353993Y185353D01*
X354082Y185331D01*
X354171Y185316D01*
X354237Y185308D01*
X354296D01*
X354430Y185316D01*
X354555Y185353D01*
X354659Y185397D01*
X354755Y185456D01*
X354844Y185530D01*
X354918Y185612D01*
X354977Y185701D01*
X355029Y185789D01*
X355073Y185878D01*
X355110Y185967D01*
X355140Y186048D01*
X355162Y186122D01*
X355177Y186182D01*
X355184Y186226D01*
X355192Y186263D01*
Y186270D01*
X355998Y186174D01*
X355976Y186019D01*
X355954Y185871D01*
X355917Y185738D01*
X355880Y185604D01*
X355828Y185486D01*
X355776Y185375D01*
X355725Y185279D01*
X355665Y185183D01*
X355599Y185094D01*
X355532Y185012D01*
X355392Y184879D01*
X355244Y184761D01*
X355096Y184672D01*
X354948Y184598D01*
X354807Y184546D01*
X354674Y184509D01*
X354555Y184487D01*
X354459Y184472D01*
X354385Y184457D01*
X354319D01*
X354163Y184465D01*
X354023Y184480D01*
X353889Y184494D01*
X353764Y184524D01*
X353653Y184561D01*
X353549Y184598D01*
X353453Y184635D01*
X353371Y184679D01*
X353305Y184716D01*
X353238Y184753D01*
X353186Y184790D01*
X353142Y184827D01*
X353112Y184857D01*
X353090Y184872D01*
X353075Y184887D01*
X353068Y184894D01*
X352994Y184983D01*
X352935Y185072D01*
X352876Y185160D01*
X352831Y185249D01*
X352757Y185434D01*
X352713Y185612D01*
X352698Y185686D01*
X352683Y185760D01*
X352676Y185826D01*
X352668Y185878D01*
X352661Y185930D01*
Y185960D01*
Y185982D01*
Y185989D01*
X352668Y186152D01*
X352683Y186300D01*
X352705Y186433D01*
X352735Y186544D01*
X352765Y186633D01*
X352787Y186700D01*
X352802Y186744D01*
X352809Y186759D01*
X352868Y186870D01*
X352935Y186973D01*
X353009Y187062D01*
X353075Y187136D01*
X353142Y187195D01*
X353194Y187232D01*
X353223Y187262D01*
X353238Y187269D01*
X353290Y187306D01*
X353357Y187343D01*
X353497Y187417D01*
X353645Y187477D01*
X353793Y187536D01*
X353926Y187588D01*
X353986Y187602D01*
X354037Y187625D01*
X354082Y187639D01*
X354111Y187647D01*
X354134Y187654D01*
X354141D01*
X354245Y187684D01*
X354341Y187713D01*
X354430Y187743D01*
X354504Y187773D01*
X354578Y187802D01*
X354637Y187824D01*
X354689Y187854D01*
X354740Y187876D01*
X354814Y187913D01*
X354859Y187943D01*
X354888Y187958D01*
X354896Y187965D01*
X354948Y188017D01*
X354992Y188076D01*
X355022Y188128D01*
X355036Y188180D01*
X355051Y188231D01*
X355059Y188268D01*
Y188291D01*
Y188298D01*
X355051Y188372D01*
X355029Y188439D01*
X354999Y188498D01*
X354970Y188550D01*
X354940Y188594D01*
X354911Y188624D01*
X354888Y188638D01*
X354881Y188646D01*
X354807Y188690D01*
X354718Y188727D01*
X354637Y188749D01*
X354555Y188772D01*
X354481Y188779D01*
X354415Y188786D01*
X354363D01*
X354245Y188779D01*
X354141Y188764D01*
X354052Y188735D01*
X353978Y188705D01*
X353919Y188675D01*
X353875Y188646D01*
X353852Y188631D01*
X353845Y188624D01*
X353778Y188550D01*
X353727Y188468D01*
X353690Y188372D01*
X353653Y188283D01*
X353630Y188194D01*
X353616Y188128D01*
X353608Y188098D01*
X353601Y188076D01*
Y188069D01*
Y188061D01*
X352772Y188106D01*
X352779Y188239D01*
X352802Y188365D01*
X352824Y188476D01*
X352853Y188587D01*
X352883Y188683D01*
X352920Y188779D01*
X352964Y188860D01*
X353001Y188934D01*
X353038Y189001D01*
X353075Y189060D01*
X353112Y189112D01*
X353142Y189149D01*
X353172Y189179D01*
X353194Y189208D01*
X353201Y189216D01*
X353209Y189223D01*
X353290Y189297D01*
X353371Y189356D01*
X353468Y189408D01*
X353556Y189452D01*
X353749Y189526D01*
X353926Y189571D01*
X354015Y189593D01*
X354089Y189600D01*
X354163Y189608D01*
X354222Y189615D01*
X354274Y189623D01*
X354341D01*
X354511Y189615D01*
D02*
G37*
G36*
X350360Y189608D02*
X350559Y189578D01*
X350737Y189534D01*
X350892Y189482D01*
X350952Y189452D01*
X351011Y189423D01*
X351063Y189401D01*
X351107Y189378D01*
X351137Y189364D01*
X351159Y189349D01*
X351174Y189334D01*
X351181D01*
X351329Y189216D01*
X351470Y189082D01*
X351581Y188942D01*
X351684Y188801D01*
X351766Y188675D01*
X351795Y188616D01*
X351817Y188572D01*
X351840Y188527D01*
X351854Y188498D01*
X351869Y188483D01*
Y188476D01*
X351914Y188365D01*
X351958Y188246D01*
X352017Y188002D01*
X352062Y187758D01*
X352099Y187521D01*
X352106Y187417D01*
X352113Y187314D01*
X352121Y187225D01*
Y187151D01*
X352128Y187092D01*
Y187040D01*
Y187010D01*
Y187003D01*
X352121Y186781D01*
X352106Y186566D01*
X352076Y186367D01*
X352039Y186182D01*
X351995Y186011D01*
X351943Y185856D01*
X351891Y185708D01*
X351832Y185575D01*
X351780Y185464D01*
X351729Y185360D01*
X351677Y185271D01*
X351632Y185197D01*
X351595Y185146D01*
X351566Y185101D01*
X351551Y185079D01*
X351544Y185072D01*
X351440Y184961D01*
X351336Y184872D01*
X351218Y184790D01*
X351107Y184716D01*
X350989Y184657D01*
X350870Y184605D01*
X350759Y184568D01*
X350648Y184531D01*
X350545Y184509D01*
X350448Y184487D01*
X350360Y184480D01*
X350286Y184465D01*
X350226D01*
X350175Y184457D01*
X350138D01*
X349975Y184465D01*
X349827Y184487D01*
X349679Y184517D01*
X349546Y184554D01*
X349420Y184605D01*
X349309Y184657D01*
X349205Y184709D01*
X349109Y184768D01*
X349020Y184827D01*
X348946Y184879D01*
X348887Y184938D01*
X348835Y184983D01*
X348791Y185020D01*
X348761Y185049D01*
X348746Y185072D01*
X348739Y185079D01*
X348635Y185220D01*
X348547Y185368D01*
X348465Y185523D01*
X348399Y185686D01*
X348339Y185849D01*
X348288Y186011D01*
X348251Y186167D01*
X348221Y186322D01*
X348199Y186470D01*
X348177Y186603D01*
X348162Y186729D01*
X348154Y186833D01*
X348147Y186922D01*
Y186988D01*
Y187025D01*
Y187040D01*
X348154Y187262D01*
X348169Y187477D01*
X348199Y187676D01*
X348236Y187861D01*
X348273Y188032D01*
X348325Y188187D01*
X348369Y188328D01*
X348421Y188461D01*
X348473Y188572D01*
X348524Y188668D01*
X348576Y188757D01*
X348613Y188823D01*
X348650Y188883D01*
X348680Y188920D01*
X348695Y188942D01*
X348702Y188949D01*
X348813Y189068D01*
X348924Y189171D01*
X349042Y189260D01*
X349161Y189341D01*
X349279Y189401D01*
X349398Y189460D01*
X349516Y189504D01*
X349627Y189541D01*
X349731Y189563D01*
X349827Y189586D01*
X349916Y189600D01*
X349990Y189615D01*
X350049D01*
X350101Y189623D01*
X350138D01*
X350360Y189608D01*
D02*
G37*
G36*
X399385Y176319D02*
X398615D01*
Y180264D01*
X397801Y176319D01*
X397009D01*
X396180Y180264D01*
Y176319D01*
X395411D01*
Y181322D01*
X396661D01*
X397401Y177896D01*
X398149Y181322D01*
X399385D01*
Y176319D01*
D02*
G37*
G36*
X395011D02*
X394131D01*
X393798Y177452D01*
X392140D01*
X391785Y176319D01*
X390889D01*
X392540Y181322D01*
X393420D01*
X395011Y176319D01*
D02*
G37*
G36*
X390749Y180478D02*
X389528D01*
Y176319D01*
X388699D01*
Y180478D01*
X387485D01*
Y181322D01*
X390749D01*
Y180478D01*
D02*
G37*
G36*
X386982Y176319D02*
X386153D01*
Y181322D01*
X386982D01*
Y176319D01*
D02*
G37*
G36*
X385783D02*
X384903D01*
X384570Y177452D01*
X382912D01*
X382557Y176319D01*
X381662D01*
X383312Y181322D01*
X384192D01*
X385783Y176319D01*
D02*
G37*
G36*
X375816D02*
X374987D01*
Y178206D01*
X374313D01*
X374188Y178214D01*
X374069Y178221D01*
X373966Y178229D01*
X373869Y178243D01*
X373788Y178251D01*
X373707Y178266D01*
X373640Y178280D01*
X373581Y178295D01*
X373529Y178310D01*
X373492Y178317D01*
X373455Y178332D01*
X373425Y178340D01*
X373411Y178347D01*
X373396Y178354D01*
X373285Y178421D01*
X373181Y178495D01*
X373092Y178584D01*
X373018Y178665D01*
X372959Y178739D01*
X372915Y178806D01*
X372885Y178850D01*
X372878Y178858D01*
Y178865D01*
X372811Y179013D01*
X372759Y179161D01*
X372722Y179316D01*
X372693Y179457D01*
X372678Y179583D01*
Y179642D01*
X372671Y179686D01*
Y179723D01*
Y179753D01*
Y179768D01*
Y179775D01*
X372678Y179990D01*
X372708Y180182D01*
X372745Y180345D01*
X372789Y180486D01*
X372819Y180552D01*
X372841Y180604D01*
X372856Y180648D01*
X372878Y180685D01*
X372893Y180715D01*
X372907Y180737D01*
X372915Y180745D01*
Y180752D01*
X373011Y180885D01*
X373107Y180989D01*
X373211Y181078D01*
X373300Y181144D01*
X373388Y181189D01*
X373455Y181226D01*
X373499Y181240D01*
X373507Y181248D01*
X373514D01*
X373566Y181263D01*
X373625Y181270D01*
X373692Y181285D01*
X373766Y181292D01*
X373921Y181307D01*
X374091Y181314D01*
X374239Y181322D01*
X375816D01*
Y176319D01*
D02*
G37*
G36*
X372404D02*
X371524D01*
X371191Y177452D01*
X369533Y177452D01*
X369178Y176319D01*
X368282D01*
X369933Y181322D01*
X370813Y181322D01*
X372404Y176319D01*
D02*
G37*
G36*
X367846Y176319D02*
X367017D01*
Y178406D01*
X366751D01*
X366669Y178399D01*
X366595Y178391D01*
X366536Y178377D01*
X366492Y178369D01*
X366462Y178354D01*
X366447Y178347D01*
X366440D01*
X366388Y178325D01*
X366344Y178288D01*
X366270Y178221D01*
X366240Y178192D01*
X366218Y178162D01*
X366203Y178147D01*
X366196Y178140D01*
X366173Y178110D01*
X366144Y178066D01*
X366107Y178021D01*
X366077Y177970D01*
X366003Y177844D01*
X365929Y177718D01*
X365863Y177600D01*
X365833Y177548D01*
X365803Y177503D01*
X365781Y177466D01*
X365766Y177437D01*
X365752Y177415D01*
Y177407D01*
X365160Y176319D01*
X364161D01*
X364664Y177289D01*
X364716Y177392D01*
X364767Y177496D01*
X364819Y177585D01*
X364864Y177666D01*
X364908Y177740D01*
X364945Y177807D01*
X365012Y177918D01*
X365063Y177999D01*
X365108Y178058D01*
X365130Y178095D01*
X365137Y178103D01*
X365204Y178184D01*
X365278Y178266D01*
X365352Y178340D01*
X365419Y178399D01*
X365478Y178451D01*
X365530Y178488D01*
X365559Y178517D01*
X365574Y178525D01*
X365389Y178569D01*
X365234Y178628D01*
X365093Y178702D01*
X364982Y178784D01*
X364893Y178850D01*
X364827Y178909D01*
X364790Y178954D01*
X364775Y178961D01*
Y178969D01*
X364679Y179117D01*
X364605Y179272D01*
X364553Y179427D01*
X364523Y179575D01*
X364501Y179709D01*
X364494Y179768D01*
Y179820D01*
X364486Y179857D01*
Y179894D01*
Y179908D01*
Y179916D01*
X364494Y180086D01*
X364516Y180234D01*
X364545Y180375D01*
X364575Y180493D01*
X364612Y180582D01*
X364642Y180656D01*
X364664Y180700D01*
X364671Y180715D01*
X364745Y180833D01*
X364827Y180930D01*
X364901Y181011D01*
X364975Y181070D01*
X365041Y181122D01*
X365093Y181159D01*
X365130Y181174D01*
X365145Y181181D01*
X365204Y181203D01*
X365271Y181226D01*
X365419Y181263D01*
X365574Y181285D01*
X365729Y181307D01*
X365870Y181314D01*
X365937D01*
X365988Y181322D01*
X367846D01*
Y176319D01*
D02*
G37*
G36*
X363717D02*
X362163D01*
X361985Y176327D01*
X361822Y176342D01*
X361682Y176364D01*
X361563Y176393D01*
X361467Y176416D01*
X361400Y176438D01*
X361356Y176453D01*
X361341Y176460D01*
X361223Y176519D01*
X361119Y176586D01*
X361030Y176652D01*
X360949Y176719D01*
X360890Y176778D01*
X360838Y176830D01*
X360808Y176860D01*
X360801Y176874D01*
X360720Y176985D01*
X360646Y177111D01*
X360579Y177237D01*
X360527Y177363D01*
X360483Y177466D01*
X360453Y177555D01*
X360438Y177592D01*
X360431Y177614D01*
X360424Y177629D01*
Y177637D01*
X360372Y177822D01*
X360335Y178014D01*
X360313Y178206D01*
X360290Y178384D01*
Y178465D01*
X360283Y178539D01*
Y178606D01*
X360276Y178658D01*
Y178702D01*
Y178739D01*
Y178761D01*
Y178769D01*
X360283Y179028D01*
X360298Y179257D01*
X360305Y179368D01*
X360320Y179464D01*
X360335Y179553D01*
X360342Y179635D01*
X360357Y179709D01*
X360372Y179775D01*
X360387Y179834D01*
X360394Y179879D01*
X360401Y179916D01*
X360409Y179945D01*
X360416Y179960D01*
Y179968D01*
X360475Y180145D01*
X360535Y180301D01*
X360601Y180434D01*
X360668Y180545D01*
X360720Y180641D01*
X360764Y180708D01*
X360794Y180745D01*
X360808Y180759D01*
X360905Y180863D01*
X360993Y180952D01*
X361090Y181026D01*
X361171Y181085D01*
X361245Y181129D01*
X361297Y181166D01*
X361334Y181181D01*
X361349Y181189D01*
X361467Y181233D01*
X361608Y181263D01*
X361748Y181292D01*
X361889Y181307D01*
X362015Y181314D01*
X362066D01*
X362111Y181322D01*
X363717D01*
Y176319D01*
D02*
G37*
G36*
X379952Y181396D02*
X380115Y181374D01*
X380248Y181351D01*
X380367Y181322D01*
X380463Y181285D01*
X380537Y181263D01*
X380581Y181240D01*
X380589Y181233D01*
X380596D01*
X380714Y181166D01*
X380811Y181085D01*
X380899Y181004D01*
X380973Y180922D01*
X381033Y180848D01*
X381070Y180789D01*
X381099Y180752D01*
X381107Y180745D01*
Y180737D01*
X381166Y180611D01*
X381210Y180486D01*
X381247Y180360D01*
X381269Y180249D01*
X381284Y180153D01*
X381292Y180071D01*
Y180042D01*
Y180019D01*
Y180012D01*
Y180005D01*
X381284Y179879D01*
X381269Y179753D01*
X381247Y179642D01*
X381218Y179546D01*
X381195Y179464D01*
X381173Y179398D01*
X381158Y179361D01*
X381151Y179346D01*
X381092Y179235D01*
X381025Y179139D01*
X380959Y179057D01*
X380899Y178991D01*
X380840Y178932D01*
X380796Y178895D01*
X380766Y178865D01*
X380759Y178858D01*
X380655Y178791D01*
X380537Y178724D01*
X380404Y178665D01*
X380278Y178613D01*
X380159Y178569D01*
X380115Y178554D01*
X380071Y178539D01*
X380034Y178525D01*
X380004Y178517D01*
X379989Y178510D01*
X379982D01*
X379878Y178480D01*
X379782Y178451D01*
X379693Y178421D01*
X379619Y178391D01*
X379545Y178369D01*
X379486Y178347D01*
X379434Y178332D01*
X379390Y178317D01*
X379323Y178288D01*
X379271Y178266D01*
X379249Y178258D01*
X379242Y178251D01*
X379190Y178221D01*
X379138Y178192D01*
X379101Y178155D01*
X379072Y178125D01*
X379027Y178081D01*
X379012Y178066D01*
Y178058D01*
X378983Y178014D01*
X378968Y177962D01*
X378938Y177873D01*
Y177829D01*
X378931Y177799D01*
Y177777D01*
Y177770D01*
X378938Y177666D01*
X378968Y177570D01*
X378998Y177489D01*
X379042Y177415D01*
X379079Y177363D01*
X379116Y177318D01*
X379146Y177289D01*
X379153Y177281D01*
X379242Y177215D01*
X379338Y177170D01*
X379434Y177133D01*
X379523Y177111D01*
X379612Y177096D01*
X379678Y177089D01*
X379738D01*
X379871Y177096D01*
X379997Y177133D01*
X380100Y177178D01*
X380196Y177237D01*
X380285Y177311D01*
X380359Y177392D01*
X380418Y177481D01*
X380470Y177570D01*
X380515Y177659D01*
X380552Y177748D01*
X380581Y177829D01*
X380603Y177903D01*
X380618Y177962D01*
X380626Y178007D01*
X380633Y178044D01*
Y178051D01*
X381440Y177955D01*
X381417Y177799D01*
X381395Y177651D01*
X381358Y177518D01*
X381321Y177385D01*
X381269Y177267D01*
X381218Y177156D01*
X381166Y177059D01*
X381107Y176963D01*
X381040Y176874D01*
X380973Y176793D01*
X380833Y176660D01*
X380685Y176541D01*
X380537Y176453D01*
X380389Y176379D01*
X380248Y176327D01*
X380115Y176290D01*
X379997Y176268D01*
X379900Y176253D01*
X379826Y176238D01*
X379760D01*
X379604Y176245D01*
X379464Y176260D01*
X379331Y176275D01*
X379205Y176305D01*
X379094Y176342D01*
X378990Y176379D01*
X378894Y176416D01*
X378813Y176460D01*
X378746Y176497D01*
X378679Y176534D01*
X378628Y176571D01*
X378583Y176608D01*
X378554Y176638D01*
X378531Y176652D01*
X378517Y176667D01*
X378509Y176675D01*
X378435Y176763D01*
X378376Y176852D01*
X378317Y176941D01*
X378272Y177030D01*
X378198Y177215D01*
X378154Y177392D01*
X378139Y177466D01*
X378124Y177540D01*
X378117Y177607D01*
X378110Y177659D01*
X378102Y177711D01*
Y177740D01*
Y177762D01*
Y177770D01*
X378110Y177933D01*
X378124Y178081D01*
X378147Y178214D01*
X378176Y178325D01*
X378206Y178414D01*
X378228Y178480D01*
X378243Y178525D01*
X378250Y178539D01*
X378309Y178650D01*
X378376Y178754D01*
X378450Y178843D01*
X378517Y178917D01*
X378583Y178976D01*
X378635Y179013D01*
X378665Y179043D01*
X378679Y179050D01*
X378731Y179087D01*
X378798Y179124D01*
X378938Y179198D01*
X379086Y179257D01*
X379234Y179316D01*
X379368Y179368D01*
X379427Y179383D01*
X379479Y179405D01*
X379523Y179420D01*
X379553Y179427D01*
X379575Y179435D01*
X379582D01*
X379686Y179464D01*
X379782Y179494D01*
X379871Y179524D01*
X379945Y179553D01*
X380019Y179583D01*
X380078Y179605D01*
X380130Y179635D01*
X380182Y179657D01*
X380256Y179694D01*
X380300Y179723D01*
X380330Y179738D01*
X380337Y179746D01*
X380389Y179797D01*
X380433Y179857D01*
X380463Y179908D01*
X380478Y179960D01*
X380492Y180012D01*
X380500Y180049D01*
Y180071D01*
Y180079D01*
X380492Y180153D01*
X380470Y180219D01*
X380441Y180278D01*
X380411Y180330D01*
X380381Y180375D01*
X380352Y180404D01*
X380330Y180419D01*
X380322Y180426D01*
X380248Y180471D01*
X380159Y180508D01*
X380078Y180530D01*
X379997Y180552D01*
X379923Y180560D01*
X379856Y180567D01*
X379804D01*
X379686Y180560D01*
X379582Y180545D01*
X379493Y180515D01*
X379419Y180486D01*
X379360Y180456D01*
X379316Y180426D01*
X379294Y180412D01*
X379286Y180404D01*
X379220Y180330D01*
X379168Y180249D01*
X379131Y180153D01*
X379094Y180064D01*
X379072Y179975D01*
X379057Y179908D01*
X379049Y179879D01*
X379042Y179857D01*
Y179849D01*
Y179842D01*
X378213Y179886D01*
X378221Y180019D01*
X378243Y180145D01*
X378265Y180256D01*
X378295Y180367D01*
X378324Y180463D01*
X378361Y180560D01*
X378406Y180641D01*
X378443Y180715D01*
X378480Y180782D01*
X378517Y180841D01*
X378554Y180893D01*
X378583Y180930D01*
X378613Y180959D01*
X378635Y180989D01*
X378642Y180996D01*
X378650Y181004D01*
X378731Y181078D01*
X378813Y181137D01*
X378909Y181189D01*
X378998Y181233D01*
X379190Y181307D01*
X379368Y181351D01*
X379456Y181374D01*
X379530Y181381D01*
X379604Y181388D01*
X379664Y181396D01*
X379715Y181403D01*
X379782D01*
X379952Y181396D01*
D02*
G37*
G36*
X357974Y181388D02*
X358174Y181359D01*
X358352Y181314D01*
X358507Y181263D01*
X358566Y181233D01*
X358625Y181203D01*
X358677Y181181D01*
X358722Y181159D01*
X358751Y181144D01*
X358773Y181129D01*
X358788Y181115D01*
X358796D01*
X358944Y180996D01*
X359084Y180863D01*
X359195Y180722D01*
X359299Y180582D01*
X359380Y180456D01*
X359410Y180397D01*
X359432Y180352D01*
X359454Y180308D01*
X359469Y180278D01*
X359484Y180264D01*
Y180256D01*
X359528Y180145D01*
X359573Y180027D01*
X359632Y179783D01*
X359676Y179538D01*
X359713Y179302D01*
X359721Y179198D01*
X359728Y179094D01*
X359735Y179006D01*
Y178932D01*
X359743Y178872D01*
Y178821D01*
Y178791D01*
Y178784D01*
X359735Y178562D01*
X359721Y178347D01*
X359691Y178147D01*
X359654Y177962D01*
X359610Y177792D01*
X359558Y177637D01*
X359506Y177489D01*
X359447Y177355D01*
X359395Y177244D01*
X359343Y177141D01*
X359291Y177052D01*
X359247Y176978D01*
X359210Y176926D01*
X359180Y176882D01*
X359166Y176860D01*
X359158Y176852D01*
X359055Y176741D01*
X358951Y176652D01*
X358833Y176571D01*
X358722Y176497D01*
X358603Y176438D01*
X358485Y176386D01*
X358374Y176349D01*
X358263Y176312D01*
X358159Y176290D01*
X358063Y176268D01*
X357974Y176260D01*
X357900Y176245D01*
X357841D01*
X357789Y176238D01*
X357752D01*
X357589Y176245D01*
X357441Y176268D01*
X357293Y176297D01*
X357160Y176334D01*
X357034Y176386D01*
X356923Y176438D01*
X356820Y176490D01*
X356724Y176549D01*
X356635Y176608D01*
X356561Y176660D01*
X356502Y176719D01*
X356450Y176763D01*
X356405Y176800D01*
X356376Y176830D01*
X356361Y176852D01*
X356354Y176860D01*
X356250Y177000D01*
X356161Y177148D01*
X356080Y177304D01*
X356013Y177466D01*
X355954Y177629D01*
X355902Y177792D01*
X355865Y177947D01*
X355836Y178103D01*
X355813Y178251D01*
X355791Y178384D01*
X355776Y178510D01*
X355769Y178613D01*
X355762Y178702D01*
Y178769D01*
Y178806D01*
Y178821D01*
X355769Y179043D01*
X355784Y179257D01*
X355813Y179457D01*
X355850Y179642D01*
X355887Y179812D01*
X355939Y179968D01*
X355984Y180108D01*
X356035Y180241D01*
X356087Y180352D01*
X356139Y180449D01*
X356191Y180537D01*
X356228Y180604D01*
X356265Y180663D01*
X356294Y180700D01*
X356309Y180722D01*
X356317Y180730D01*
X356428Y180848D01*
X356539Y180952D01*
X356657Y181041D01*
X356775Y181122D01*
X356894Y181181D01*
X357012Y181240D01*
X357131Y181285D01*
X357242Y181322D01*
X357345Y181344D01*
X357441Y181366D01*
X357530Y181381D01*
X357604Y181396D01*
X357663D01*
X357715Y181403D01*
X357752D01*
X357974Y181388D01*
D02*
G37*
G36*
X399385Y168100D02*
X398556D01*
Y170291D01*
X396935D01*
Y168100D01*
X396106D01*
Y173102D01*
X396935D01*
Y171134D01*
X398556D01*
Y173102D01*
X399385D01*
Y168100D01*
D02*
G37*
G36*
X387271D02*
X386501D01*
Y171356D01*
X384851Y168100D01*
X384015D01*
Y173102D01*
X384784D01*
Y169758D01*
X386472Y173102D01*
X387271D01*
Y168100D01*
D02*
G37*
G36*
X378998D02*
X378228D01*
Y171356D01*
X376578Y168100D01*
X375742D01*
Y173102D01*
X376511D01*
Y169758D01*
X378198Y173102D01*
X378998D01*
Y168100D01*
D02*
G37*
G36*
X353157Y173169D02*
X353357Y173139D01*
X353534Y173088D01*
X353690Y173036D01*
X353756Y173006D01*
X353815Y172984D01*
X353867Y172954D01*
X353904Y172932D01*
X353941Y172917D01*
X353963Y172903D01*
X353978Y172888D01*
X353986D01*
X354141Y172769D01*
X354282Y172629D01*
X354400Y172488D01*
X354504Y172340D01*
X354585Y172214D01*
X354622Y172163D01*
X354644Y172111D01*
X354666Y172074D01*
X354681Y172044D01*
X354696Y172022D01*
Y172015D01*
X354785Y171785D01*
X354851Y171548D01*
X354903Y171312D01*
X354933Y171090D01*
X354948Y170986D01*
X354955Y170897D01*
X354962Y170808D01*
Y170742D01*
X354970Y170683D01*
Y170638D01*
Y170609D01*
Y170601D01*
X354955Y170313D01*
X354925Y170046D01*
X354911Y169920D01*
X354888Y169809D01*
X354859Y169698D01*
X354837Y169602D01*
X354814Y169513D01*
X354785Y169432D01*
X354763Y169365D01*
X354748Y169306D01*
X354726Y169262D01*
X354718Y169232D01*
X354703Y169210D01*
Y169203D01*
X354592Y168995D01*
X354474Y168818D01*
X354348Y168662D01*
X354230Y168537D01*
X354126Y168440D01*
X354037Y168374D01*
X354008Y168344D01*
X353986Y168329D01*
X353971Y168322D01*
X353963Y168315D01*
X353786Y168218D01*
X353601Y168144D01*
X353416Y168093D01*
X353253Y168056D01*
X353179Y168041D01*
X353105Y168033D01*
X353046Y168026D01*
X352994D01*
X352950Y168019D01*
X352890D01*
X352705Y168026D01*
X352528Y168056D01*
X352358Y168093D01*
X352210Y168130D01*
X352084Y168174D01*
X352032Y168189D01*
X351980Y168204D01*
X351951Y168218D01*
X351921Y168233D01*
X351906Y168241D01*
X351899D01*
X351721Y168329D01*
X351566Y168426D01*
X351440Y168514D01*
X351329Y168603D01*
X351240Y168677D01*
X351181Y168736D01*
X351144Y168773D01*
X351129Y168788D01*
Y170779D01*
X352913D01*
Y169935D01*
X351965D01*
Y169306D01*
X352047Y169232D01*
X352128Y169173D01*
X352210Y169121D01*
X352276Y169077D01*
X352343Y169040D01*
X352395Y169018D01*
X352424Y169003D01*
X352439Y168995D01*
X352535Y168958D01*
X352624Y168929D01*
X352713Y168914D01*
X352787Y168899D01*
X352846Y168892D01*
X352890Y168884D01*
X352935D01*
X353031Y168892D01*
X353120Y168899D01*
X353283Y168944D01*
X353431Y169010D01*
X353549Y169084D01*
X353638Y169158D01*
X353704Y169225D01*
X353749Y169269D01*
X353756Y169277D01*
X353764Y169284D01*
X353823Y169380D01*
X353875Y169476D01*
X353963Y169698D01*
X354023Y169928D01*
X354067Y170150D01*
X354082Y170246D01*
X354089Y170342D01*
X354104Y170431D01*
Y170505D01*
X354111Y170564D01*
Y170616D01*
Y170646D01*
Y170653D01*
X354104Y170808D01*
X354097Y170949D01*
X354082Y171082D01*
X354060Y171208D01*
X354037Y171319D01*
X354008Y171423D01*
X353978Y171511D01*
X353949Y171593D01*
X353919Y171667D01*
X353889Y171733D01*
X353860Y171785D01*
X353838Y171830D01*
X353815Y171859D01*
X353801Y171881D01*
X353786Y171896D01*
Y171904D01*
X353719Y171978D01*
X353653Y172044D01*
X353586Y172096D01*
X353512Y172140D01*
X353371Y172214D01*
X353231Y172266D01*
X353112Y172296D01*
X353061Y172303D01*
X353016Y172311D01*
X352979Y172318D01*
X352927D01*
X352802Y172311D01*
X352691Y172288D01*
X352594Y172251D01*
X352506Y172214D01*
X352439Y172177D01*
X352387Y172140D01*
X352350Y172118D01*
X352343Y172111D01*
X352261Y172029D01*
X352187Y171933D01*
X352128Y171830D01*
X352084Y171741D01*
X352047Y171652D01*
X352025Y171585D01*
X352010Y171534D01*
X352002Y171526D01*
Y171519D01*
X351181Y171704D01*
X351211Y171837D01*
X351240Y171963D01*
X351285Y172074D01*
X351329Y172185D01*
X351373Y172281D01*
X351425Y172370D01*
X351470Y172451D01*
X351521Y172525D01*
X351566Y172592D01*
X351610Y172651D01*
X351655Y172695D01*
X351684Y172740D01*
X351714Y172769D01*
X351736Y172792D01*
X351751Y172799D01*
X351758Y172806D01*
X351840Y172873D01*
X351936Y172932D01*
X352032Y172984D01*
X352128Y173028D01*
X352321Y173095D01*
X352513Y173139D01*
X352594Y173154D01*
X352676Y173162D01*
X352750Y173169D01*
X352809Y173176D01*
X352861Y173184D01*
X352935D01*
X353157Y173169D01*
D02*
G37*
G36*
X350374Y170431D02*
Y170231D01*
X350367Y170046D01*
X350360Y169876D01*
X350352Y169721D01*
X350337Y169580D01*
X350323Y169454D01*
X350308Y169343D01*
X350293Y169240D01*
X350286Y169158D01*
X350271Y169084D01*
X350256Y169025D01*
X350241Y168973D01*
X350234Y168936D01*
X350226Y168914D01*
X350219Y168899D01*
Y168892D01*
X350152Y168744D01*
X350071Y168618D01*
X349982Y168507D01*
X349893Y168418D01*
X349819Y168344D01*
X349753Y168292D01*
X349708Y168255D01*
X349701Y168248D01*
X349694D01*
X349546Y168174D01*
X349383Y168115D01*
X349213Y168078D01*
X349057Y168048D01*
X348909Y168033D01*
X348850Y168026D01*
X348791D01*
X348746Y168019D01*
X348687D01*
X348465Y168033D01*
X348273Y168063D01*
X348103Y168107D01*
X347962Y168159D01*
X347903Y168181D01*
X347844Y168204D01*
X347799Y168226D01*
X347762Y168248D01*
X347733Y168270D01*
X347710Y168278D01*
X347703Y168292D01*
X347696D01*
X347562Y168403D01*
X347459Y168522D01*
X347377Y168648D01*
X347311Y168759D01*
X347259Y168862D01*
X347229Y168944D01*
X347222Y168973D01*
X347215Y168995D01*
X347207Y169010D01*
Y169018D01*
X347185Y169106D01*
X347170Y169210D01*
X347155Y169321D01*
X347141Y169439D01*
X347126Y169676D01*
X347111Y169913D01*
X347104Y170031D01*
Y170135D01*
X347096Y170231D01*
Y170313D01*
Y170379D01*
Y170431D01*
Y170461D01*
Y170475D01*
Y173102D01*
X347925D01*
Y170335D01*
Y170202D01*
Y170076D01*
X347932Y169965D01*
X347940Y169869D01*
Y169780D01*
X347947Y169698D01*
X347955Y169624D01*
X347962Y169565D01*
X347969Y169513D01*
X347977Y169469D01*
X347984Y169432D01*
Y169402D01*
X347999Y169373D01*
Y169358D01*
X348029Y169277D01*
X348066Y169210D01*
X348103Y169151D01*
X348147Y169099D01*
X348184Y169062D01*
X348214Y169032D01*
X348236Y169018D01*
X348243Y169010D01*
X348317Y168966D01*
X348391Y168936D01*
X348465Y168914D01*
X348539Y168899D01*
X348606Y168892D01*
X348658Y168884D01*
X348709D01*
X348828Y168892D01*
X348939Y168914D01*
X349035Y168944D01*
X349109Y168973D01*
X349176Y169003D01*
X349220Y169032D01*
X349250Y169055D01*
X349257Y169062D01*
X349331Y169136D01*
X349383Y169217D01*
X349427Y169299D01*
X349464Y169388D01*
X349486Y169462D01*
X349501Y169521D01*
X349516Y169558D01*
Y169573D01*
X349523Y169617D01*
Y169661D01*
X349531Y169780D01*
X349538Y169920D01*
Y170054D01*
X349546Y170187D01*
Y170246D01*
Y170290D01*
Y170335D01*
Y170364D01*
Y170387D01*
Y170394D01*
Y173102D01*
X350374D01*
Y170431D01*
D02*
G37*
G36*
X395248Y168100D02*
X392125D01*
Y168944D01*
X394419D01*
Y170305D01*
X392355D01*
Y171149D01*
X394419D01*
Y172259D01*
X392199D01*
Y173102D01*
X395248D01*
Y168100D01*
D02*
G37*
G36*
X391422D02*
X390593D01*
Y170187D01*
X390327D01*
X390246Y170179D01*
X390172Y170172D01*
X390112Y170157D01*
X390068Y170150D01*
X390038Y170135D01*
X390024Y170128D01*
X390016D01*
X389964Y170105D01*
X389920Y170069D01*
X389846Y170002D01*
X389816Y169972D01*
X389794Y169943D01*
X389779Y169928D01*
X389772Y169921D01*
X389750Y169891D01*
X389720Y169846D01*
X389683Y169802D01*
X389654Y169750D01*
X389580Y169624D01*
X389506Y169499D01*
X389439Y169380D01*
X389409Y169328D01*
X389380Y169284D01*
X389358Y169247D01*
X389343Y169218D01*
X389328Y169195D01*
Y169188D01*
X388736Y168100D01*
X387737D01*
X388240Y169070D01*
X388292Y169173D01*
X388344Y169277D01*
X388396Y169366D01*
X388440Y169447D01*
X388484Y169521D01*
X388521Y169587D01*
X388588Y169699D01*
X388640Y169780D01*
X388684Y169839D01*
X388706Y169876D01*
X388714Y169883D01*
X388780Y169965D01*
X388854Y170046D01*
X388928Y170120D01*
X388995Y170179D01*
X389054Y170231D01*
X389106Y170268D01*
X389136Y170298D01*
X389150Y170305D01*
X388965Y170350D01*
X388810Y170409D01*
X388669Y170483D01*
X388558Y170564D01*
X388470Y170631D01*
X388403Y170690D01*
X388366Y170734D01*
X388351Y170742D01*
Y170749D01*
X388255Y170897D01*
X388181Y171053D01*
X388129Y171208D01*
X388100Y171356D01*
X388077Y171489D01*
X388070Y171548D01*
Y171600D01*
X388063Y171637D01*
Y171674D01*
Y171689D01*
Y171696D01*
X388070Y171867D01*
X388092Y172015D01*
X388122Y172155D01*
X388151Y172274D01*
X388188Y172362D01*
X388218Y172436D01*
X388240Y172481D01*
X388248Y172496D01*
X388322Y172614D01*
X388403Y172710D01*
X388477Y172792D01*
X388551Y172851D01*
X388618Y172903D01*
X388669Y172940D01*
X388706Y172954D01*
X388721Y172962D01*
X388780Y172984D01*
X388847Y173006D01*
X388995Y173043D01*
X389150Y173065D01*
X389306Y173088D01*
X389446Y173095D01*
X389513D01*
X389565Y173102D01*
X391422D01*
Y168100D01*
D02*
G37*
G36*
X383571D02*
X382690D01*
X382357Y169232D01*
X380700D01*
X380344Y168100D01*
X379449D01*
X381099Y173102D01*
X381980D01*
X383571Y168100D01*
D02*
G37*
G36*
X373285D02*
X372456D01*
Y170187D01*
X372190D01*
X372108Y170179D01*
X372034Y170172D01*
X371975Y170157D01*
X371931Y170150D01*
X371901Y170135D01*
X371886Y170128D01*
X371879D01*
X371827Y170105D01*
X371783Y170069D01*
X371709Y170002D01*
X371679Y169972D01*
X371657Y169943D01*
X371642Y169928D01*
X371635Y169921D01*
X371612Y169891D01*
X371583Y169846D01*
X371546Y169802D01*
X371516Y169750D01*
X371442Y169624D01*
X371368Y169499D01*
X371302Y169380D01*
X371272Y169328D01*
X371242Y169284D01*
X371220Y169247D01*
X371205Y169218D01*
X371191Y169195D01*
Y169188D01*
X370599Y168100D01*
X369600D01*
X370103Y169069D01*
X370155Y169173D01*
X370206Y169277D01*
X370258Y169365D01*
X370303Y169447D01*
X370347Y169521D01*
X370384Y169587D01*
X370451Y169698D01*
X370502Y169780D01*
X370547Y169839D01*
X370569Y169876D01*
X370576Y169883D01*
X370643Y169965D01*
X370717Y170046D01*
X370791Y170120D01*
X370858Y170179D01*
X370917Y170231D01*
X370969Y170268D01*
X370998Y170298D01*
X371013Y170305D01*
X370828Y170350D01*
X370673Y170409D01*
X370532Y170483D01*
X370421Y170564D01*
X370332Y170631D01*
X370266Y170690D01*
X370229Y170734D01*
X370214Y170742D01*
Y170749D01*
X370118Y170897D01*
X370044Y171053D01*
X369992Y171208D01*
X369962Y171356D01*
X369940Y171489D01*
X369933Y171548D01*
Y171600D01*
X369925Y171637D01*
Y171674D01*
Y171689D01*
Y171696D01*
X369933Y171867D01*
X369955Y172015D01*
X369984Y172155D01*
X370014Y172274D01*
X370051Y172362D01*
X370081Y172436D01*
X370103Y172481D01*
X370110Y172496D01*
X370184Y172614D01*
X370266Y172710D01*
X370340Y172792D01*
X370414Y172851D01*
X370480Y172903D01*
X370532Y172940D01*
X370569Y172954D01*
X370584Y172962D01*
X370643Y172984D01*
X370710Y173006D01*
X370858Y173043D01*
X371013Y173065D01*
X371168Y173088D01*
X371309Y173095D01*
X371376D01*
X371427Y173102D01*
X373285D01*
Y168100D01*
D02*
G37*
G36*
X364693Y168100D02*
X363139D01*
X362962Y168107D01*
X362799Y168122D01*
X362658Y168144D01*
X362540Y168174D01*
X362444Y168196D01*
X362377Y168218D01*
X362333Y168233D01*
X362318Y168241D01*
X362200Y168300D01*
X362096Y168366D01*
X362007Y168433D01*
X361926Y168500D01*
X361867Y168559D01*
X361815Y168611D01*
X361785Y168640D01*
X361778Y168655D01*
X361696Y168766D01*
X361622Y168892D01*
X361556Y169018D01*
X361504Y169143D01*
X361460Y169247D01*
X361430Y169336D01*
X361415Y169373D01*
X361408Y169395D01*
X361400Y169410D01*
Y169417D01*
X361349Y169602D01*
X361312Y169795D01*
X361289Y169987D01*
X361267Y170165D01*
Y170246D01*
X361260Y170320D01*
Y170387D01*
X361252Y170438D01*
Y170483D01*
Y170520D01*
Y170542D01*
Y170549D01*
X361260Y170808D01*
X361275Y171038D01*
X361282Y171149D01*
X361297Y171245D01*
X361312Y171334D01*
X361319Y171415D01*
X361334Y171489D01*
X361349Y171556D01*
X361363Y171615D01*
X361371Y171659D01*
X361378Y171696D01*
X361386Y171726D01*
X361393Y171741D01*
Y171748D01*
X361452Y171926D01*
X361511Y172081D01*
X361578Y172214D01*
X361645Y172325D01*
X361696Y172422D01*
X361741Y172488D01*
X361770Y172525D01*
X361785Y172540D01*
X361881Y172644D01*
X361970Y172732D01*
X362066Y172806D01*
X362148Y172866D01*
X362222Y172910D01*
X362274Y172947D01*
X362311Y172962D01*
X362325Y172969D01*
X362444Y173014D01*
X362584Y173043D01*
X362725Y173073D01*
X362866Y173088D01*
X362991Y173095D01*
X363043D01*
X363088Y173102D01*
X364693D01*
Y168100D01*
D02*
G37*
G36*
X360549D02*
X359721D01*
Y170187D01*
X359454D01*
X359373Y170179D01*
X359299Y170172D01*
X359240Y170157D01*
X359195Y170150D01*
X359166Y170135D01*
X359151Y170128D01*
X359143D01*
X359092Y170105D01*
X359047Y170068D01*
X358973Y170002D01*
X358944Y169972D01*
X358921Y169943D01*
X358907Y169928D01*
X358899Y169920D01*
X358877Y169891D01*
X358847Y169846D01*
X358810Y169802D01*
X358781Y169750D01*
X358707Y169624D01*
X358633Y169499D01*
X358566Y169380D01*
X358537Y169328D01*
X358507Y169284D01*
X358485Y169247D01*
X358470Y169217D01*
X358455Y169195D01*
Y169188D01*
X357863Y168100D01*
X356864D01*
X357367Y169069D01*
X357419Y169173D01*
X357471Y169277D01*
X357523Y169365D01*
X357567Y169447D01*
X357612Y169521D01*
X357649Y169587D01*
X357715Y169698D01*
X357767Y169780D01*
X357811Y169839D01*
X357834Y169876D01*
X357841Y169883D01*
X357908Y169965D01*
X357982Y170046D01*
X358056Y170120D01*
X358122Y170179D01*
X358181Y170231D01*
X358233Y170268D01*
X358263Y170298D01*
X358278Y170305D01*
X358093Y170350D01*
X357937Y170409D01*
X357797Y170483D01*
X357686Y170564D01*
X357597Y170631D01*
X357530Y170690D01*
X357493Y170734D01*
X357478Y170742D01*
Y170749D01*
X357382Y170897D01*
X357308Y171053D01*
X357256Y171208D01*
X357227Y171356D01*
X357205Y171489D01*
X357197Y171548D01*
Y171600D01*
X357190Y171637D01*
Y171674D01*
Y171689D01*
Y171696D01*
X357197Y171867D01*
X357219Y172015D01*
X357249Y172155D01*
X357279Y172274D01*
X357316Y172362D01*
X357345Y172436D01*
X357367Y172481D01*
X357375Y172496D01*
X357449Y172614D01*
X357530Y172710D01*
X357604Y172792D01*
X357678Y172851D01*
X357745Y172903D01*
X357797Y172940D01*
X357834Y172954D01*
X357848Y172962D01*
X357908Y172984D01*
X357974Y173006D01*
X358122Y173043D01*
X358278Y173065D01*
X358433Y173088D01*
X358574Y173095D01*
X358640D01*
X358692Y173102D01*
X360549D01*
Y168100D01*
D02*
G37*
G36*
X356442D02*
X355614D01*
Y173102D01*
X356442D01*
Y168100D01*
D02*
G37*
G36*
X346223D02*
X343100D01*
Y168944D01*
X345394D01*
Y170305D01*
X343330D01*
Y171149D01*
X345394D01*
Y172259D01*
X343174D01*
Y173102D01*
X346223D01*
Y168100D01*
D02*
G37*
G36*
X342516Y172259D02*
X340599D01*
X342760Y169010D01*
Y168100D01*
X339422D01*
Y168944D01*
X341761D01*
X339511Y172318D01*
Y173102D01*
X342516D01*
Y172259D01*
D02*
G37*
G36*
X367550Y173169D02*
X367750Y173139D01*
X367927Y173095D01*
X368083Y173043D01*
X368142Y173014D01*
X368201Y172984D01*
X368253Y172962D01*
X368297Y172940D01*
X368327Y172925D01*
X368349Y172910D01*
X368364Y172895D01*
X368371D01*
X368519Y172777D01*
X368660Y172644D01*
X368771Y172503D01*
X368874Y172362D01*
X368956Y172237D01*
X368985Y172177D01*
X369008Y172133D01*
X369030Y172089D01*
X369045Y172059D01*
X369059Y172044D01*
Y172037D01*
X369104Y171926D01*
X369148Y171807D01*
X369207Y171563D01*
X369252Y171319D01*
X369289Y171082D01*
X369296Y170979D01*
X369304Y170875D01*
X369311Y170786D01*
Y170712D01*
X369318Y170653D01*
Y170601D01*
Y170572D01*
Y170564D01*
X369311Y170342D01*
X369296Y170128D01*
X369267Y169928D01*
X369230Y169743D01*
X369185Y169573D01*
X369133Y169417D01*
X369082Y169269D01*
X369022Y169136D01*
X368971Y169025D01*
X368919Y168921D01*
X368867Y168833D01*
X368823Y168759D01*
X368786Y168707D01*
X368756Y168662D01*
X368741Y168640D01*
X368734Y168633D01*
X368630Y168522D01*
X368527Y168433D01*
X368408Y168352D01*
X368297Y168278D01*
X368179Y168218D01*
X368060Y168167D01*
X367949Y168130D01*
X367838Y168093D01*
X367735Y168070D01*
X367639Y168048D01*
X367550Y168041D01*
X367476Y168026D01*
X367417D01*
X367365Y168019D01*
X367328D01*
X367165Y168026D01*
X367017Y168048D01*
X366869Y168078D01*
X366736Y168115D01*
X366610Y168167D01*
X366499Y168218D01*
X366395Y168270D01*
X366299Y168329D01*
X366210Y168389D01*
X366136Y168440D01*
X366077Y168500D01*
X366025Y168544D01*
X365981Y168581D01*
X365951Y168611D01*
X365937Y168633D01*
X365929Y168640D01*
X365826Y168781D01*
X365737Y168929D01*
X365655Y169084D01*
X365589Y169247D01*
X365530Y169410D01*
X365478Y169573D01*
X365441Y169728D01*
X365411Y169883D01*
X365389Y170031D01*
X365367Y170165D01*
X365352Y170290D01*
X365345Y170394D01*
X365337Y170483D01*
Y170549D01*
Y170586D01*
Y170601D01*
X365345Y170823D01*
X365359Y171038D01*
X365389Y171238D01*
X365426Y171423D01*
X365463Y171593D01*
X365515Y171748D01*
X365559Y171889D01*
X365611Y172022D01*
X365663Y172133D01*
X365715Y172229D01*
X365766Y172318D01*
X365803Y172385D01*
X365840Y172444D01*
X365870Y172481D01*
X365885Y172503D01*
X365892Y172510D01*
X366003Y172629D01*
X366114Y172732D01*
X366233Y172821D01*
X366351Y172903D01*
X366469Y172962D01*
X366588Y173021D01*
X366706Y173065D01*
X366817Y173102D01*
X366921Y173125D01*
X367017Y173147D01*
X367106Y173162D01*
X367180Y173176D01*
X367239D01*
X367291Y173184D01*
X367328D01*
X367550Y173169D01*
D02*
G37*
%LPC*%
G36*
X270025Y635743D02*
X269225D01*
Y634943D01*
X270025D01*
Y635743D01*
D02*
G37*
G36*
X302025Y634143D02*
X301225D01*
Y633343D01*
X302025D01*
Y634143D01*
D02*
G37*
G36*
Y632543D02*
X301225D01*
Y631743D01*
X302025D01*
Y632543D01*
D02*
G37*
G36*
X276425D02*
X275625D01*
Y631743D01*
X276425D01*
Y632543D01*
D02*
G37*
G36*
X302025Y630943D02*
X301225D01*
Y630143D01*
X302025D01*
Y630943D01*
D02*
G37*
G36*
Y626143D02*
X301225D01*
Y625343D01*
X302025D01*
Y626143D01*
D02*
G37*
G36*
Y622943D02*
X301225D01*
Y622143D01*
X302025D01*
Y622943D01*
D02*
G37*
G36*
Y619743D02*
X301225D01*
Y618943D01*
X302025D01*
Y619743D01*
D02*
G37*
G36*
Y616543D02*
X301225D01*
Y615743D01*
X302025D01*
Y616543D01*
D02*
G37*
G36*
Y614943D02*
X301225D01*
Y614143D01*
X302025D01*
Y614943D01*
D02*
G37*
G36*
X298825D02*
X298025D01*
Y614143D01*
X298825D01*
Y614943D01*
D02*
G37*
G36*
X287625D02*
X286825D01*
Y614143D01*
X287625D01*
Y614943D01*
D02*
G37*
G36*
X302025Y613343D02*
X301225D01*
Y612543D01*
X302025D01*
Y613343D01*
D02*
G37*
G36*
X282825D02*
X282025D01*
Y612543D01*
X282825D01*
Y613343D01*
D02*
G37*
G36*
X326025Y637343D02*
X325225D01*
Y636543D01*
X326025D01*
Y637343D01*
D02*
G37*
G36*
X329225Y635743D02*
X328425D01*
Y634943D01*
X329225D01*
Y635743D01*
D02*
G37*
G36*
X337225Y632543D02*
X336425D01*
Y631743D01*
X337225D01*
Y632543D01*
D02*
G37*
G36*
X334025D02*
X333225D01*
Y631743D01*
X334025D01*
Y632543D01*
D02*
G37*
G36*
X345225Y627743D02*
X344425D01*
Y626943D01*
X345225D01*
Y627743D01*
D02*
G37*
G36*
X326025Y614943D02*
X325225D01*
Y614143D01*
X326025D01*
Y614943D01*
D02*
G37*
G36*
X313225D02*
X312425D01*
Y614143D01*
X313225D01*
Y614943D01*
D02*
G37*
G36*
X330825Y613343D02*
X330025D01*
Y612543D01*
X330825D01*
Y613343D01*
D02*
G37*
G36*
X373584Y581998D02*
X372784D01*
Y581198D01*
X373584D01*
Y581998D01*
D02*
G37*
G36*
X378384Y570798D02*
X377584D01*
Y569998D01*
X378384D01*
Y570798D01*
D02*
G37*
G36*
X413584Y557998D02*
X412784D01*
Y557198D01*
X413584D01*
Y557998D01*
D02*
G37*
G36*
Y556398D02*
X412784D01*
Y555598D01*
X413584D01*
Y556398D01*
D02*
G37*
G36*
X321225Y590943D02*
X320425D01*
Y590143D01*
X321225D01*
Y590943D01*
D02*
G37*
G36*
X318025D02*
X317225D01*
Y590143D01*
X318025D01*
Y590943D01*
D02*
G37*
G36*
X328425Y588543D02*
X327625D01*
Y587743D01*
X328425D01*
Y588543D01*
D02*
G37*
G36*
X338825Y586143D02*
X338025D01*
Y585343D01*
X338825D01*
Y586143D01*
D02*
G37*
G36*
X335625D02*
X334825D01*
Y585343D01*
X335625D01*
Y586143D01*
D02*
G37*
G36*
X334025D02*
X333225D01*
Y585343D01*
X334025D01*
Y586143D01*
D02*
G37*
G36*
X332425D02*
X331625D01*
Y585343D01*
X332425D01*
Y586143D01*
D02*
G37*
G36*
X268425Y606943D02*
X267625D01*
Y606143D01*
X268425D01*
Y606943D01*
D02*
G37*
G36*
X279625Y603743D02*
X278825D01*
Y602943D01*
X279625D01*
Y603743D01*
D02*
G37*
G36*
X273225D02*
X272425D01*
Y602943D01*
X273225D01*
Y603743D01*
D02*
G37*
G36*
X302025Y602143D02*
X301225D01*
Y601343D01*
X302025D01*
Y602143D01*
D02*
G37*
G36*
Y600543D02*
X301225D01*
Y599743D01*
X302025D01*
Y600543D01*
D02*
G37*
G36*
Y597343D02*
X301225D01*
Y596543D01*
X302025D01*
Y597343D01*
D02*
G37*
G36*
Y595743D02*
X301225D01*
Y594943D01*
X302025D01*
Y595743D01*
D02*
G37*
G36*
Y594143D02*
X301225D01*
Y593343D01*
X302025D01*
Y594143D01*
D02*
G37*
G36*
Y592543D02*
X301225D01*
Y591743D01*
X302025D01*
Y592543D01*
D02*
G37*
G36*
Y590943D02*
X301225D01*
Y590143D01*
X302025D01*
Y590943D01*
D02*
G37*
G36*
X294025D02*
X293225D01*
Y590143D01*
X294025D01*
Y590943D01*
D02*
G37*
G36*
X292425D02*
X291625D01*
Y590143D01*
X292425D01*
Y590943D01*
D02*
G37*
G36*
X290825D02*
X290025D01*
Y590143D01*
X290825D01*
Y590943D01*
D02*
G37*
G36*
X302025Y589343D02*
X301225D01*
Y588543D01*
X302025D01*
Y589343D01*
D02*
G37*
G36*
X282825Y587743D02*
X282025D01*
Y586943D01*
X282825D01*
Y587743D01*
D02*
G37*
G36*
X302025D02*
X301225D01*
Y586943D01*
Y586143D01*
X302025D01*
Y586943D01*
Y587743D01*
D02*
G37*
G36*
X281225Y586143D02*
X280425D01*
Y585343D01*
X281225D01*
Y586143D01*
D02*
G37*
G36*
X278025D02*
X277225D01*
Y585343D01*
X278025D01*
Y586143D01*
D02*
G37*
G36*
X324425Y581343D02*
X323625D01*
Y580543D01*
X324425D01*
Y581343D01*
D02*
G37*
G36*
X318025D02*
X317225D01*
Y580543D01*
X318025D01*
Y581343D01*
D02*
G37*
G36*
X313225Y573343D02*
X312425D01*
Y572543D01*
X313225D01*
Y573343D01*
D02*
G37*
G36*
X314825Y571743D02*
X314025D01*
Y570943D01*
X314825D01*
Y571743D01*
D02*
G37*
G36*
X297225Y581343D02*
X296425D01*
Y580543D01*
X297225D01*
Y581343D01*
D02*
G37*
G36*
X289225D02*
X288425D01*
Y580543D01*
X289225D01*
Y581343D01*
D02*
G37*
G36*
X302025Y576543D02*
X301225D01*
Y575743D01*
X302025D01*
Y576543D01*
D02*
G37*
G36*
X310025Y563743D02*
X309225D01*
Y562943D01*
X310025D01*
Y563743D01*
D02*
G37*
G36*
X345225Y560543D02*
X344425D01*
Y559743D01*
X345225D01*
Y560543D01*
D02*
G37*
G36*
X343625D02*
X342825D01*
Y559743D01*
X343625D01*
Y560543D01*
D02*
G37*
G36*
X342025D02*
X341225D01*
Y559743D01*
X342025D01*
Y560543D01*
D02*
G37*
G36*
X338825D02*
X338025D01*
Y559743D01*
X338825D01*
Y560543D01*
D02*
G37*
G36*
X335625D02*
X334825D01*
Y559743D01*
X335625D01*
Y560543D01*
D02*
G37*
G36*
X332425D02*
X331625D01*
Y559743D01*
X332425D01*
Y560543D01*
D02*
G37*
G36*
X329225D02*
X328425D01*
Y559743D01*
X329225D01*
Y560543D01*
D02*
G37*
G36*
X326025D02*
X325225D01*
Y559743D01*
X326025D01*
Y560543D01*
D02*
G37*
G36*
X322825D02*
X322025D01*
Y559743D01*
X322825D01*
Y560543D01*
D02*
G37*
G36*
X319625D02*
X318825D01*
Y559743D01*
X319625D01*
Y560543D01*
D02*
G37*
G36*
X316425D02*
X315625D01*
Y559743D01*
X316425D01*
Y560543D01*
D02*
G37*
G36*
X313225D02*
X312425D01*
Y559743D01*
X313225D01*
Y560543D01*
D02*
G37*
G36*
X311625D02*
X310825D01*
Y559743D01*
X311625D01*
Y560543D01*
D02*
G37*
G36*
X310025D02*
X309225D01*
Y559743D01*
X310025D01*
Y560543D01*
D02*
G37*
G36*
X306825D02*
X306025D01*
Y559743D01*
X306825D01*
Y560543D01*
D02*
G37*
G36*
X305225D02*
X304425D01*
Y559743D01*
X305225D01*
Y560543D01*
D02*
G37*
G36*
X303625D02*
X302825D01*
Y559743D01*
X303625D01*
Y560543D01*
D02*
G37*
G36*
X300425D02*
X299625D01*
Y559743D01*
X300425D01*
Y560543D01*
D02*
G37*
G36*
X297225D02*
X296425D01*
Y559743D01*
X297225D01*
Y560543D01*
D02*
G37*
G36*
X294025D02*
X293225D01*
Y559743D01*
X294025D01*
Y560543D01*
D02*
G37*
G36*
X292425D02*
X291625D01*
Y559743D01*
X292425D01*
Y560543D01*
D02*
G37*
G36*
X290825D02*
X290025D01*
Y559743D01*
X290825D01*
Y560543D01*
D02*
G37*
G36*
X287625D02*
X286825D01*
Y559743D01*
X287625D01*
Y560543D01*
D02*
G37*
G36*
X284425D02*
X283625D01*
Y559743D01*
X284425D01*
Y560543D01*
D02*
G37*
G36*
X281225D02*
X280425D01*
Y559743D01*
X281225D01*
Y560543D01*
D02*
G37*
G36*
X278025D02*
X277225D01*
Y559743D01*
X278025D01*
Y560543D01*
D02*
G37*
G36*
X276425D02*
X275625D01*
Y559743D01*
X276425D01*
Y560543D01*
D02*
G37*
G36*
X274825D02*
X274025D01*
Y559743D01*
X274825D01*
Y560543D01*
D02*
G37*
G36*
X271625D02*
X270825D01*
Y559743D01*
X271625D01*
Y560543D01*
D02*
G37*
G36*
X268425D02*
X267625D01*
Y559743D01*
X268425D01*
Y560543D01*
D02*
G37*
G36*
X371984Y537198D02*
X371184D01*
Y536398D01*
X371984D01*
Y537198D01*
D02*
G37*
G36*
X329225Y544543D02*
X327625D01*
Y543743D01*
Y542943D01*
X326825D01*
Y542143D01*
Y541343D01*
Y540543D01*
Y539743D01*
X326025D01*
Y538943D01*
Y538143D01*
Y537343D01*
Y536543D01*
X331625D01*
Y537343D01*
Y538143D01*
X330825D01*
Y538943D01*
Y539743D01*
Y540543D01*
X330025D01*
Y541343D01*
Y542143D01*
Y542943D01*
X329225D01*
Y543743D01*
Y544543D01*
D02*
G37*
G36*
X274825D02*
X273225D01*
Y543743D01*
Y542943D01*
Y542143D01*
Y541343D01*
X272425D01*
Y540543D01*
Y539743D01*
Y538943D01*
X271625D01*
Y538143D01*
Y537343D01*
Y536543D01*
X277225D01*
Y537343D01*
Y538143D01*
Y538943D01*
X276425D01*
Y539743D01*
Y540543D01*
Y541343D01*
X275625D01*
Y542143D01*
Y542943D01*
Y543743D01*
X274825D01*
Y544543D01*
D02*
G37*
G36*
X392896Y207273D02*
X391708D01*
X391585Y207262D01*
X391474D01*
X391374Y207251D01*
X391219D01*
X391163Y207240D01*
X391108D01*
X391041Y207229D01*
X391008Y207218D01*
X390997D01*
X390919Y207196D01*
X390852Y207151D01*
X390741Y207062D01*
X390697Y207018D01*
X390663Y206984D01*
X390652Y206962D01*
X390641Y206951D01*
X390585Y206873D01*
X390552Y206785D01*
X390508Y206618D01*
X390497Y206540D01*
X390486Y206485D01*
Y206440D01*
Y206429D01*
X390497Y206296D01*
X390519Y206173D01*
X390541Y206073D01*
X390574Y205985D01*
X390619Y205918D01*
X390641Y205873D01*
X390663Y205840D01*
X390674Y205829D01*
X390741Y205762D01*
X390830Y205696D01*
X390908Y205651D01*
X390985Y205618D01*
X391052Y205596D01*
X391108Y205585D01*
X391152Y205574D01*
X391208D01*
X391252Y205562D01*
X391530D01*
X391685Y205551D01*
X392896D01*
Y207273D01*
D02*
G37*
G36*
Y204296D02*
X391619D01*
X391496Y204285D01*
X391396D01*
X391208Y204262D01*
X391063Y204251D01*
X390963Y204229D01*
X390897Y204207D01*
X390852Y204196D01*
X390841D01*
X390752Y204151D01*
X390663Y204107D01*
X390597Y204051D01*
X390541Y203996D01*
X390497Y203940D01*
X390463Y203907D01*
X390441Y203874D01*
X390430Y203863D01*
X390374Y203774D01*
X390330Y203674D01*
X390308Y203574D01*
X390285Y203474D01*
X390274Y203396D01*
X390263Y203329D01*
Y203274D01*
Y203263D01*
X390274Y203140D01*
X390285Y203018D01*
X390308Y202918D01*
X390341Y202840D01*
X390374Y202763D01*
X390397Y202718D01*
X390408Y202685D01*
X390419Y202674D01*
X390474Y202596D01*
X390541Y202529D01*
X390597Y202474D01*
X390652Y202429D01*
X390708Y202396D01*
X390752Y202374D01*
X390774Y202363D01*
X390786D01*
X390830Y202352D01*
X390885Y202341D01*
X391030Y202318D01*
X391185Y202307D01*
X391352Y202296D01*
X391496Y202285D01*
X392896D01*
Y204296D01*
D02*
G37*
G36*
X386675Y207262D02*
X385431D01*
X385308Y207251D01*
X385108D01*
X385019Y207240D01*
X384953D01*
X384886Y207229D01*
X384797Y207218D01*
X384742Y207207D01*
X384708Y207196D01*
X384697D01*
X384608Y207162D01*
X384530Y207118D01*
X384464Y207062D01*
X384408Y207018D01*
X384364Y206973D01*
X384331Y206929D01*
X384319Y206907D01*
X384308Y206896D01*
X384264Y206807D01*
X384220Y206718D01*
X384186Y206529D01*
X384175Y206440D01*
X384164Y206373D01*
Y206329D01*
Y206318D01*
X384175Y206185D01*
X384186Y206073D01*
X384208Y205962D01*
X384231Y205885D01*
X384264Y205807D01*
X384286Y205762D01*
X384297Y205729D01*
X384308Y205718D01*
X384364Y205640D01*
X384431Y205574D01*
X384486Y205529D01*
X384553Y205485D01*
X384608Y205451D01*
X384642Y205429D01*
X384675Y205418D01*
X384686D01*
X384742Y205407D01*
X384797Y205396D01*
X384953Y205385D01*
X385131Y205362D01*
X385308D01*
X385486Y205351D01*
X386675D01*
Y207262D01*
D02*
G37*
G36*
X355145Y207351D02*
X355067D01*
X354934Y207340D01*
X354800Y207329D01*
X354678Y207296D01*
X354556Y207251D01*
X354345Y207151D01*
X354167Y207040D01*
X354034Y206918D01*
X353934Y206818D01*
X353889Y206773D01*
X353867Y206740D01*
X353845Y206729D01*
Y206718D01*
X353756Y206596D01*
X353689Y206462D01*
X353567Y206151D01*
X353478Y205840D01*
X353423Y205529D01*
X353411Y205374D01*
X353389Y205240D01*
X353378Y205118D01*
Y205007D01*
X353367Y204918D01*
Y204851D01*
Y204807D01*
Y204796D01*
Y204551D01*
X353389Y204329D01*
X353411Y204129D01*
X353445Y203929D01*
X353478Y203751D01*
X353522Y203596D01*
X353567Y203451D01*
X353611Y203318D01*
X353656Y203207D01*
X353700Y203107D01*
X353745Y203018D01*
X353778Y202952D01*
X353811Y202896D01*
X353834Y202863D01*
X353845Y202840D01*
X353856Y202829D01*
X353945Y202718D01*
X354045Y202618D01*
X354145Y202540D01*
X354245Y202463D01*
X354345Y202407D01*
X354445Y202352D01*
X354645Y202274D01*
X354811Y202229D01*
X354878Y202218D01*
X354945Y202207D01*
X355000Y202196D01*
X355067D01*
X355200Y202207D01*
X355322Y202229D01*
X355445Y202252D01*
X355556Y202296D01*
X355767Y202396D01*
X355944Y202518D01*
X356089Y202641D01*
X356189Y202741D01*
X356222Y202785D01*
X356256Y202818D01*
X356267Y202829D01*
X356278Y202840D01*
X356367Y202974D01*
X356433Y203107D01*
X356556Y203418D01*
X356645Y203740D01*
X356700Y204051D01*
X356722Y204196D01*
X356744Y204329D01*
X356755Y204451D01*
Y204562D01*
X356767Y204651D01*
Y204718D01*
Y204763D01*
Y204774D01*
X356755Y205007D01*
X356744Y205229D01*
X356722Y205440D01*
X356689Y205629D01*
X356656Y205807D01*
X356622Y205962D01*
X356578Y206107D01*
X356533Y206240D01*
X356489Y206351D01*
X356445Y206451D01*
X356411Y206529D01*
X356378Y206596D01*
X356345Y206651D01*
X356322Y206684D01*
X356300Y206707D01*
Y206718D01*
X356211Y206829D01*
X356111Y206929D01*
X356011Y207007D01*
X355900Y207084D01*
X355800Y207151D01*
X355700Y207196D01*
X355500Y207273D01*
X355333Y207318D01*
X355256Y207329D01*
X355189Y207340D01*
X355145Y207351D01*
D02*
G37*
G36*
X398349Y197977D02*
X397627D01*
X397535Y197968D01*
X397442D01*
X397294Y197959D01*
X397183Y197940D01*
X397100Y197931D01*
X397044Y197912D01*
X397017Y197903D01*
X397007D01*
X396933Y197866D01*
X396869Y197829D01*
X396813Y197774D01*
X396758Y197727D01*
X396721Y197681D01*
X396693Y197644D01*
X396674Y197616D01*
X396665Y197607D01*
X396619Y197524D01*
X396582Y197431D01*
X396563Y197348D01*
X396545Y197265D01*
X396536Y197191D01*
X396526Y197135D01*
Y197098D01*
Y197080D01*
X396536Y196969D01*
X396545Y196867D01*
X396573Y196784D01*
X396591Y196710D01*
X396619Y196645D01*
X396647Y196599D01*
X396656Y196571D01*
X396665Y196562D01*
X396721Y196488D01*
X396776Y196423D01*
X396832Y196377D01*
X396887Y196331D01*
X396933Y196303D01*
X396970Y196284D01*
X396998Y196266D01*
X397007D01*
X397100Y196238D01*
X397211Y196220D01*
X397340Y196210D01*
X397470Y196201D01*
X397590Y196192D01*
X398349D01*
Y197977D01*
D02*
G37*
G36*
X393557D02*
X392521D01*
X392419Y197968D01*
X392253D01*
X392179Y197959D01*
X392123D01*
X392068Y197949D01*
X391994Y197940D01*
X391948Y197931D01*
X391920Y197922D01*
X391911D01*
X391837Y197894D01*
X391772Y197857D01*
X391716Y197811D01*
X391670Y197774D01*
X391633Y197737D01*
X391605Y197700D01*
X391596Y197681D01*
X391587Y197672D01*
X391550Y197598D01*
X391513Y197524D01*
X391485Y197367D01*
X391476Y197293D01*
X391467Y197237D01*
Y197200D01*
Y197191D01*
X391476Y197080D01*
X391485Y196987D01*
X391504Y196895D01*
X391522Y196830D01*
X391550Y196765D01*
X391568Y196728D01*
X391578Y196701D01*
X391587Y196691D01*
X391633Y196627D01*
X391689Y196571D01*
X391735Y196534D01*
X391790Y196497D01*
X391837Y196469D01*
X391864Y196451D01*
X391892Y196442D01*
X391901D01*
X391948Y196432D01*
X391994Y196423D01*
X392123Y196414D01*
X392271Y196395D01*
X392419D01*
X392567Y196386D01*
X393557D01*
Y197977D01*
D02*
G37*
G36*
X343626Y197570D02*
X342913Y195248D01*
X344319D01*
X343626Y197570D01*
D02*
G37*
G36*
X387212Y198051D02*
X387147D01*
X387036Y198042D01*
X386925Y198033D01*
X386823Y198005D01*
X386721Y197968D01*
X386546Y197885D01*
X386398Y197792D01*
X386287Y197690D01*
X386203Y197607D01*
X386166Y197570D01*
X386148Y197542D01*
X386129Y197533D01*
Y197524D01*
X386055Y197422D01*
X386000Y197311D01*
X385898Y197052D01*
X385824Y196793D01*
X385778Y196534D01*
X385769Y196405D01*
X385750Y196294D01*
X385741Y196192D01*
Y196099D01*
X385732Y196025D01*
Y195970D01*
Y195933D01*
Y195924D01*
Y195720D01*
X385750Y195535D01*
X385769Y195369D01*
X385796Y195202D01*
X385824Y195054D01*
X385861Y194925D01*
X385898Y194804D01*
X385935Y194693D01*
X385972Y194601D01*
X386009Y194518D01*
X386046Y194444D01*
X386074Y194388D01*
X386102Y194342D01*
X386120Y194314D01*
X386129Y194296D01*
X386139Y194286D01*
X386213Y194194D01*
X386296Y194111D01*
X386379Y194046D01*
X386462Y193981D01*
X386546Y193935D01*
X386629Y193889D01*
X386795Y193824D01*
X386934Y193787D01*
X386990Y193778D01*
X387045Y193768D01*
X387091Y193759D01*
X387147D01*
X387258Y193768D01*
X387360Y193787D01*
X387461Y193805D01*
X387554Y193842D01*
X387730Y193926D01*
X387878Y194027D01*
X387998Y194129D01*
X388081Y194212D01*
X388109Y194249D01*
X388137Y194277D01*
X388146Y194286D01*
X388155Y194296D01*
X388229Y194407D01*
X388285Y194518D01*
X388386Y194777D01*
X388460Y195045D01*
X388507Y195304D01*
X388525Y195424D01*
X388544Y195535D01*
X388553Y195637D01*
Y195729D01*
X388562Y195803D01*
Y195859D01*
Y195896D01*
Y195905D01*
X388553Y196099D01*
X388544Y196284D01*
X388525Y196460D01*
X388497Y196617D01*
X388470Y196765D01*
X388442Y196895D01*
X388405Y197015D01*
X388368Y197126D01*
X388331Y197219D01*
X388294Y197302D01*
X388266Y197367D01*
X388238Y197422D01*
X388211Y197468D01*
X388192Y197496D01*
X388174Y197515D01*
Y197524D01*
X388100Y197616D01*
X388016Y197700D01*
X387933Y197764D01*
X387841Y197829D01*
X387757Y197885D01*
X387674Y197922D01*
X387508Y197986D01*
X387369Y198023D01*
X387304Y198033D01*
X387249Y198042D01*
X387212Y198051D01*
D02*
G37*
G36*
X362523Y198051D02*
X362459D01*
X362348Y198042D01*
X362237Y198033D01*
X362135Y198005D01*
X362033Y197968D01*
X361857Y197885D01*
X361709Y197792D01*
X361598Y197690D01*
X361515Y197607D01*
X361478Y197570D01*
X361460Y197542D01*
X361441Y197533D01*
Y197524D01*
X361367Y197422D01*
X361312Y197311D01*
X361210Y197052D01*
X361136Y196793D01*
X361090Y196534D01*
X361080Y196405D01*
X361062Y196294D01*
X361053Y196192D01*
Y196099D01*
X361043Y196025D01*
Y195970D01*
Y195933D01*
Y195924D01*
Y195720D01*
X361062Y195535D01*
X361080Y195369D01*
X361108Y195202D01*
X361136Y195054D01*
X361173Y194925D01*
X361210Y194804D01*
X361247Y194693D01*
X361284Y194601D01*
X361321Y194518D01*
X361358Y194444D01*
X361386Y194388D01*
X361413Y194342D01*
X361432Y194314D01*
X361441Y194296D01*
X361450Y194286D01*
X361524Y194194D01*
X361608Y194111D01*
X361691Y194046D01*
X361774Y193981D01*
X361857Y193935D01*
X361941Y193889D01*
X362107Y193824D01*
X362246Y193787D01*
X362301Y193778D01*
X362357Y193768D01*
X362403Y193759D01*
X362459D01*
X362570Y193768D01*
X362671Y193787D01*
X362773Y193805D01*
X362866Y193842D01*
X363041Y193926D01*
X363189Y194027D01*
X363310Y194129D01*
X363393Y194212D01*
X363421Y194249D01*
X363448Y194277D01*
X363458Y194286D01*
X363467Y194296D01*
X363541Y194407D01*
X363596Y194518D01*
X363698Y194777D01*
X363772Y195045D01*
X363818Y195304D01*
X363837Y195424D01*
X363855Y195535D01*
X363865Y195637D01*
Y195729D01*
X363874Y195803D01*
Y195859D01*
Y195896D01*
Y195905D01*
X363865Y196099D01*
X363855Y196284D01*
X363837Y196460D01*
X363809Y196617D01*
X363781Y196765D01*
X363754Y196895D01*
X363717Y197015D01*
X363680Y197126D01*
X363643Y197219D01*
X363606Y197302D01*
X363578Y197367D01*
X363550Y197422D01*
X363522Y197468D01*
X363504Y197496D01*
X363485Y197515D01*
Y197524D01*
X363411Y197616D01*
X363328Y197700D01*
X363245Y197764D01*
X363152Y197829D01*
X363069Y197885D01*
X362986Y197922D01*
X362819Y197986D01*
X362681Y198023D01*
X362616Y198033D01*
X362560Y198042D01*
X362523Y198051D01*
D02*
G37*
G36*
X390305Y188705D02*
X389513D01*
X389432Y188698D01*
X389358D01*
X389291Y188690D01*
X389187D01*
X389150Y188683D01*
X389113D01*
X389069Y188675D01*
X389047Y188668D01*
X389039D01*
X388988Y188653D01*
X388943Y188624D01*
X388869Y188564D01*
X388840Y188535D01*
X388817Y188513D01*
X388810Y188498D01*
X388803Y188490D01*
X388766Y188439D01*
X388743Y188379D01*
X388714Y188268D01*
X388706Y188217D01*
X388699Y188180D01*
Y188150D01*
Y188143D01*
X388706Y188054D01*
X388721Y187972D01*
X388736Y187906D01*
X388758Y187847D01*
X388788Y187802D01*
X388803Y187773D01*
X388817Y187750D01*
X388825Y187743D01*
X388869Y187699D01*
X388928Y187654D01*
X388980Y187625D01*
X389032Y187602D01*
X389076Y187588D01*
X389113Y187580D01*
X389143Y187573D01*
X389180D01*
X389210Y187565D01*
X389395D01*
X389498Y187558D01*
X390305D01*
Y188705D01*
D02*
G37*
G36*
Y186722D02*
X389454D01*
X389372Y186714D01*
X389306D01*
X389180Y186700D01*
X389084Y186692D01*
X389017Y186677D01*
X388973Y186663D01*
X388943Y186655D01*
X388936D01*
X388877Y186626D01*
X388817Y186596D01*
X388773Y186559D01*
X388736Y186522D01*
X388706Y186485D01*
X388684Y186463D01*
X388669Y186441D01*
X388662Y186433D01*
X388625Y186374D01*
X388595Y186307D01*
X388581Y186241D01*
X388566Y186174D01*
X388558Y186122D01*
X388551Y186078D01*
Y186041D01*
Y186034D01*
X388558Y185952D01*
X388566Y185871D01*
X388581Y185804D01*
X388603Y185752D01*
X388625Y185701D01*
X388640Y185671D01*
X388647Y185649D01*
X388655Y185641D01*
X388692Y185590D01*
X388736Y185545D01*
X388773Y185508D01*
X388810Y185479D01*
X388847Y185456D01*
X388877Y185442D01*
X388891Y185434D01*
X388899D01*
X388928Y185427D01*
X388965Y185419D01*
X389062Y185405D01*
X389165Y185397D01*
X389276Y185390D01*
X389372Y185382D01*
X390305D01*
Y186722D01*
D02*
G37*
G36*
X383793Y188372D02*
X383223Y186515D01*
X384348D01*
X383793Y188372D01*
D02*
G37*
G36*
X375024Y188705D02*
X374232D01*
X374151Y188698D01*
X374077D01*
X374010Y188690D01*
X373906D01*
X373869Y188683D01*
X373832D01*
X373788Y188675D01*
X373766Y188668D01*
X373758D01*
X373707Y188653D01*
X373662Y188624D01*
X373588Y188564D01*
X373559Y188535D01*
X373536Y188513D01*
X373529Y188498D01*
X373522Y188490D01*
X373485Y188439D01*
X373462Y188379D01*
X373433Y188268D01*
X373425Y188217D01*
X373418Y188180D01*
Y188150D01*
Y188143D01*
X373425Y188054D01*
X373440Y187972D01*
X373455Y187906D01*
X373477Y187847D01*
X373507Y187802D01*
X373522Y187773D01*
X373536Y187750D01*
X373544Y187743D01*
X373588Y187699D01*
X373647Y187654D01*
X373699Y187625D01*
X373751Y187602D01*
X373795Y187588D01*
X373832Y187580D01*
X373862Y187573D01*
X373899D01*
X373929Y187565D01*
X374114D01*
X374217Y187558D01*
X375024D01*
Y188705D01*
D02*
G37*
G36*
Y186722D02*
X374173D01*
X374091Y186714D01*
X374025D01*
X373899Y186700D01*
X373803Y186692D01*
X373736Y186677D01*
X373692Y186663D01*
X373662Y186655D01*
X373655D01*
X373596Y186626D01*
X373536Y186596D01*
X373492Y186559D01*
X373455Y186522D01*
X373425Y186485D01*
X373403Y186463D01*
X373388Y186441D01*
X373381Y186433D01*
X373344Y186374D01*
X373314Y186307D01*
X373300Y186241D01*
X373285Y186174D01*
X373277Y186122D01*
X373270Y186078D01*
Y186041D01*
Y186034D01*
X373277Y185952D01*
X373285Y185871D01*
X373300Y185804D01*
X373322Y185752D01*
X373344Y185701D01*
X373359Y185671D01*
X373366Y185649D01*
X373374Y185641D01*
X373411Y185590D01*
X373455Y185545D01*
X373492Y185508D01*
X373529Y185479D01*
X373566Y185456D01*
X373596Y185442D01*
X373610Y185434D01*
X373618D01*
X373647Y185427D01*
X373684Y185419D01*
X373781Y185405D01*
X373884Y185397D01*
X373995Y185390D01*
X374091Y185382D01*
X375024D01*
Y186722D01*
D02*
G37*
G36*
X370103Y188372D02*
X369533Y186515D01*
X370658D01*
X370103Y188372D01*
D02*
G37*
G36*
X362140D02*
X361571Y186515D01*
X362695D01*
X362140Y188372D01*
D02*
G37*
G36*
X393820Y188757D02*
X393768D01*
X393679Y188749D01*
X393590Y188742D01*
X393509Y188720D01*
X393428Y188690D01*
X393287Y188624D01*
X393169Y188550D01*
X393080Y188468D01*
X393013Y188402D01*
X392984Y188372D01*
X392969Y188350D01*
X392954Y188342D01*
Y188335D01*
X392895Y188254D01*
X392850Y188165D01*
X392769Y187958D01*
X392710Y187750D01*
X392673Y187543D01*
X392665Y187440D01*
X392651Y187351D01*
X392643Y187269D01*
Y187195D01*
X392636Y187136D01*
Y187092D01*
Y187062D01*
Y187055D01*
Y186892D01*
X392651Y186744D01*
X392665Y186611D01*
X392688Y186478D01*
X392710Y186359D01*
X392739Y186256D01*
X392769Y186159D01*
X392799Y186071D01*
X392828Y185997D01*
X392858Y185930D01*
X392887Y185871D01*
X392910Y185826D01*
X392932Y185789D01*
X392947Y185767D01*
X392954Y185752D01*
X392961Y185745D01*
X393021Y185671D01*
X393087Y185604D01*
X393154Y185553D01*
X393220Y185501D01*
X393287Y185464D01*
X393354Y185427D01*
X393487Y185375D01*
X393598Y185345D01*
X393642Y185338D01*
X393687Y185331D01*
X393724Y185323D01*
X393768D01*
X393857Y185331D01*
X393938Y185345D01*
X394020Y185360D01*
X394094Y185390D01*
X394234Y185456D01*
X394353Y185538D01*
X394449Y185619D01*
X394515Y185686D01*
X394538Y185715D01*
X394560Y185738D01*
X394567Y185745D01*
X394575Y185752D01*
X394634Y185841D01*
X394678Y185930D01*
X394760Y186137D01*
X394819Y186352D01*
X394856Y186559D01*
X394871Y186655D01*
X394885Y186744D01*
X394893Y186825D01*
Y186899D01*
X394900Y186959D01*
Y187003D01*
Y187033D01*
Y187040D01*
X394893Y187195D01*
X394885Y187343D01*
X394871Y187484D01*
X394848Y187610D01*
X394826Y187728D01*
X394804Y187832D01*
X394774Y187928D01*
X394745Y188017D01*
X394715Y188091D01*
X394686Y188157D01*
X394663Y188209D01*
X394641Y188254D01*
X394619Y188291D01*
X394604Y188313D01*
X394589Y188328D01*
Y188335D01*
X394530Y188409D01*
X394464Y188476D01*
X394397Y188527D01*
X394323Y188579D01*
X394256Y188624D01*
X394190Y188653D01*
X394057Y188705D01*
X393946Y188735D01*
X393894Y188742D01*
X393849Y188749D01*
X393820Y188757D01*
D02*
G37*
G36*
X350189Y188757D02*
X350138D01*
X350049Y188749D01*
X349960Y188742D01*
X349879Y188720D01*
X349797Y188690D01*
X349657Y188624D01*
X349538Y188550D01*
X349449Y188468D01*
X349383Y188402D01*
X349353Y188372D01*
X349338Y188350D01*
X349324Y188342D01*
Y188335D01*
X349264Y188254D01*
X349220Y188165D01*
X349139Y187958D01*
X349079Y187750D01*
X349042Y187543D01*
X349035Y187440D01*
X349020Y187351D01*
X349013Y187269D01*
Y187195D01*
X349005Y187136D01*
Y187092D01*
Y187062D01*
Y187055D01*
Y186892D01*
X349020Y186744D01*
X349035Y186611D01*
X349057Y186478D01*
X349079Y186359D01*
X349109Y186256D01*
X349139Y186159D01*
X349168Y186071D01*
X349198Y185997D01*
X349227Y185930D01*
X349257Y185871D01*
X349279Y185826D01*
X349301Y185789D01*
X349316Y185767D01*
X349324Y185752D01*
X349331Y185745D01*
X349390Y185671D01*
X349457Y185604D01*
X349523Y185553D01*
X349590Y185501D01*
X349657Y185464D01*
X349723Y185427D01*
X349856Y185375D01*
X349967Y185345D01*
X350012Y185338D01*
X350056Y185331D01*
X350093Y185323D01*
X350138D01*
X350226Y185331D01*
X350308Y185345D01*
X350389Y185360D01*
X350463Y185390D01*
X350604Y185456D01*
X350722Y185538D01*
X350818Y185619D01*
X350885Y185686D01*
X350907Y185715D01*
X350929Y185738D01*
X350937Y185745D01*
X350944Y185752D01*
X351003Y185841D01*
X351048Y185930D01*
X351129Y186137D01*
X351188Y186352D01*
X351225Y186559D01*
X351240Y186655D01*
X351255Y186744D01*
X351262Y186825D01*
Y186899D01*
X351270Y186959D01*
Y187003D01*
Y187033D01*
Y187040D01*
X351262Y187195D01*
X351255Y187343D01*
X351240Y187484D01*
X351218Y187610D01*
X351196Y187728D01*
X351174Y187832D01*
X351144Y187928D01*
X351114Y188017D01*
X351085Y188091D01*
X351055Y188157D01*
X351033Y188209D01*
X351011Y188254D01*
X350989Y188291D01*
X350974Y188313D01*
X350959Y188328D01*
Y188335D01*
X350900Y188409D01*
X350833Y188476D01*
X350767Y188527D01*
X350693Y188579D01*
X350626Y188624D01*
X350559Y188653D01*
X350426Y188705D01*
X350315Y188735D01*
X350263Y188742D01*
X350219Y188749D01*
X350189Y188757D01*
D02*
G37*
G36*
X392984Y180153D02*
X392414Y178295D01*
X393539D01*
X392984Y180153D01*
D02*
G37*
G36*
X383756D02*
X383186Y178295D01*
X384311D01*
X383756Y180153D01*
D02*
G37*
G36*
X374987Y180478D02*
X374410D01*
X374336Y180471D01*
X374262D01*
X374143Y180463D01*
X374054Y180449D01*
X373988Y180441D01*
X373943Y180426D01*
X373921Y180419D01*
X373914D01*
X373855Y180389D01*
X373803Y180360D01*
X373758Y180315D01*
X373714Y180278D01*
X373684Y180241D01*
X373662Y180212D01*
X373647Y180190D01*
X373640Y180182D01*
X373603Y180116D01*
X373573Y180042D01*
X373559Y179975D01*
X373544Y179908D01*
X373536Y179849D01*
X373529Y179805D01*
Y179775D01*
Y179760D01*
X373536Y179672D01*
X373544Y179590D01*
X373566Y179524D01*
X373581Y179464D01*
X373603Y179413D01*
X373625Y179376D01*
X373633Y179353D01*
X373640Y179346D01*
X373684Y179287D01*
X373729Y179235D01*
X373773Y179198D01*
X373818Y179161D01*
X373855Y179139D01*
X373884Y179124D01*
X373906Y179109D01*
X373914D01*
X373988Y179087D01*
X374077Y179072D01*
X374180Y179065D01*
X374284Y179057D01*
X374380Y179050D01*
X374987D01*
Y180478D01*
D02*
G37*
G36*
X370377Y180153D02*
X369807Y178295D01*
X370932Y178295D01*
X370377Y180153D01*
D02*
G37*
G36*
X367017Y180478D02*
X366188D01*
X366107Y180471D01*
X365974D01*
X365914Y180463D01*
X365870D01*
X365826Y180456D01*
X365766Y180449D01*
X365729Y180441D01*
X365707Y180434D01*
X365700D01*
X365641Y180412D01*
X365589Y180382D01*
X365544Y180345D01*
X365507Y180315D01*
X365478Y180286D01*
X365456Y180256D01*
X365448Y180241D01*
X365441Y180234D01*
X365411Y180175D01*
X365382Y180116D01*
X365359Y179990D01*
X365352Y179931D01*
X365345Y179886D01*
Y179857D01*
Y179849D01*
X365352Y179760D01*
X365359Y179686D01*
X365374Y179612D01*
X365389Y179561D01*
X365411Y179509D01*
X365426Y179479D01*
X365433Y179457D01*
X365441Y179450D01*
X365478Y179398D01*
X365522Y179353D01*
X365559Y179324D01*
X365604Y179294D01*
X365641Y179272D01*
X365663Y179257D01*
X365685Y179250D01*
X365692D01*
X365729Y179242D01*
X365766Y179235D01*
X365870Y179228D01*
X365988Y179213D01*
X366107D01*
X366225Y179205D01*
X367017D01*
Y180478D01*
D02*
G37*
G36*
X362888D02*
X362348D01*
X362200Y180471D01*
X362089Y180463D01*
X361992Y180456D01*
X361926Y180449D01*
X361881Y180441D01*
X361852Y180434D01*
X361844D01*
X361763Y180404D01*
X361689Y180375D01*
X361622Y180330D01*
X361563Y180293D01*
X361519Y180249D01*
X361482Y180219D01*
X361460Y180197D01*
X361452Y180190D01*
X361393Y180116D01*
X361349Y180034D01*
X361304Y179945D01*
X361275Y179864D01*
X361245Y179790D01*
X361230Y179731D01*
X361215Y179694D01*
Y179686D01*
Y179679D01*
X361186Y179553D01*
X361171Y179405D01*
X361156Y179265D01*
X361141Y179124D01*
Y178998D01*
X361134Y178946D01*
Y178895D01*
Y178858D01*
Y178828D01*
Y178813D01*
Y178806D01*
Y178613D01*
X361149Y178443D01*
X361156Y178295D01*
X361171Y178169D01*
X361186Y178073D01*
X361201Y177999D01*
X361208Y177955D01*
X361215Y177947D01*
Y177940D01*
X361245Y177829D01*
X361275Y177725D01*
X361312Y177644D01*
X361341Y177577D01*
X361363Y177526D01*
X361386Y177489D01*
X361400Y177466D01*
X361408Y177459D01*
X361497Y177363D01*
X361593Y177296D01*
X361637Y177267D01*
X361667Y177252D01*
X361689Y177244D01*
X361696Y177237D01*
X361770Y177215D01*
X361859Y177193D01*
X361955Y177178D01*
X362052Y177170D01*
X362140D01*
X362207Y177163D01*
X362888D01*
Y180478D01*
D02*
G37*
G36*
X357804Y180537D02*
X357752D01*
X357663Y180530D01*
X357575Y180523D01*
X357493Y180500D01*
X357412Y180471D01*
X357271Y180404D01*
X357153Y180330D01*
X357064Y180249D01*
X356997Y180182D01*
X356968Y180153D01*
X356953Y180130D01*
X356938Y180123D01*
Y180116D01*
X356879Y180034D01*
X356835Y179945D01*
X356753Y179738D01*
X356694Y179531D01*
X356657Y179324D01*
X356650Y179220D01*
X356635Y179131D01*
X356627Y179050D01*
Y178976D01*
X356620Y178917D01*
Y178872D01*
Y178843D01*
Y178835D01*
Y178673D01*
X356635Y178525D01*
X356650Y178391D01*
X356672Y178258D01*
X356694Y178140D01*
X356724Y178036D01*
X356753Y177940D01*
X356783Y177851D01*
X356812Y177777D01*
X356842Y177711D01*
X356872Y177651D01*
X356894Y177607D01*
X356916Y177570D01*
X356931Y177548D01*
X356938Y177533D01*
X356946Y177526D01*
X357005Y177452D01*
X357071Y177385D01*
X357138Y177333D01*
X357205Y177281D01*
X357271Y177244D01*
X357338Y177207D01*
X357471Y177156D01*
X357582Y177126D01*
X357626Y177119D01*
X357671Y177111D01*
X357708Y177104D01*
X357752D01*
X357841Y177111D01*
X357922Y177126D01*
X358004Y177141D01*
X358078Y177170D01*
X358218Y177237D01*
X358337Y177318D01*
X358433Y177400D01*
X358500Y177466D01*
X358522Y177496D01*
X358544Y177518D01*
X358551Y177526D01*
X358559Y177533D01*
X358618Y177622D01*
X358662Y177711D01*
X358744Y177918D01*
X358803Y178132D01*
X358840Y178340D01*
X358855Y178436D01*
X358870Y178525D01*
X358877Y178606D01*
Y178680D01*
X358884Y178739D01*
Y178784D01*
Y178813D01*
Y178821D01*
X358877Y178976D01*
X358870Y179124D01*
X358855Y179265D01*
X358833Y179390D01*
X358810Y179509D01*
X358788Y179612D01*
X358759Y179709D01*
X358729Y179797D01*
X358699Y179871D01*
X358670Y179938D01*
X358648Y179990D01*
X358625Y180034D01*
X358603Y180071D01*
X358588Y180093D01*
X358574Y180108D01*
Y180116D01*
X358514Y180190D01*
X358448Y180256D01*
X358381Y180308D01*
X358307Y180360D01*
X358241Y180404D01*
X358174Y180434D01*
X358041Y180486D01*
X357930Y180515D01*
X357878Y180523D01*
X357834Y180530D01*
X357804Y180537D01*
D02*
G37*
G36*
X390593Y172259D02*
X389765D01*
X389683Y172251D01*
X389550D01*
X389491Y172244D01*
X389446D01*
X389402Y172237D01*
X389343Y172229D01*
X389306Y172222D01*
X389284Y172214D01*
X389276D01*
X389217Y172192D01*
X389165Y172163D01*
X389121Y172126D01*
X389084Y172096D01*
X389054Y172066D01*
X389032Y172037D01*
X389025Y172022D01*
X389017Y172015D01*
X388988Y171955D01*
X388958Y171896D01*
X388936Y171771D01*
X388928Y171711D01*
X388921Y171667D01*
Y171637D01*
Y171630D01*
X388928Y171541D01*
X388936Y171467D01*
X388951Y171393D01*
X388965Y171341D01*
X388988Y171290D01*
X389002Y171260D01*
X389010Y171238D01*
X389017Y171230D01*
X389054Y171178D01*
X389099Y171134D01*
X389136Y171104D01*
X389180Y171075D01*
X389217Y171053D01*
X389239Y171038D01*
X389261Y171030D01*
X389269D01*
X389306Y171023D01*
X389343Y171016D01*
X389446Y171008D01*
X389565Y170993D01*
X389683D01*
X389802Y170986D01*
X390593D01*
Y172259D01*
D02*
G37*
G36*
X381543Y171933D02*
X380973Y170076D01*
X382098D01*
X381543Y171933D01*
D02*
G37*
G36*
X372456Y172259D02*
X371627D01*
X371546Y172251D01*
X371413D01*
X371353Y172244D01*
X371309D01*
X371265Y172237D01*
X371205Y172229D01*
X371168Y172222D01*
X371146Y172214D01*
X371139D01*
X371080Y172192D01*
X371028Y172163D01*
X370983Y172126D01*
X370946Y172096D01*
X370917Y172066D01*
X370895Y172037D01*
X370887Y172022D01*
X370880Y172015D01*
X370850Y171955D01*
X370821Y171896D01*
X370798Y171771D01*
X370791Y171711D01*
X370784Y171667D01*
Y171637D01*
Y171630D01*
X370791Y171541D01*
X370798Y171467D01*
X370813Y171393D01*
X370828Y171341D01*
X370850Y171290D01*
X370865Y171260D01*
X370872Y171238D01*
X370880Y171230D01*
X370917Y171178D01*
X370961Y171134D01*
X370998Y171104D01*
X371043Y171075D01*
X371080Y171053D01*
X371102Y171038D01*
X371124Y171030D01*
X371131D01*
X371168Y171023D01*
X371205Y171016D01*
X371309Y171008D01*
X371427Y170993D01*
X371546D01*
X371664Y170986D01*
X372456D01*
Y172259D01*
D02*
G37*
G36*
X363865Y172259D02*
X363324D01*
X363176Y172251D01*
X363065Y172244D01*
X362969Y172237D01*
X362903Y172229D01*
X362858Y172222D01*
X362829Y172214D01*
X362821D01*
X362740Y172185D01*
X362666Y172155D01*
X362599Y172111D01*
X362540Y172074D01*
X362496Y172029D01*
X362459Y172000D01*
X362436Y171978D01*
X362429Y171970D01*
X362370Y171896D01*
X362325Y171815D01*
X362281Y171726D01*
X362251Y171645D01*
X362222Y171571D01*
X362207Y171511D01*
X362192Y171474D01*
Y171467D01*
Y171460D01*
X362163Y171334D01*
X362148Y171186D01*
X362133Y171045D01*
X362118Y170905D01*
Y170779D01*
X362111Y170727D01*
Y170675D01*
Y170638D01*
Y170609D01*
Y170594D01*
Y170586D01*
Y170394D01*
X362126Y170224D01*
X362133Y170076D01*
X362148Y169950D01*
X362163Y169854D01*
X362177Y169780D01*
X362185Y169735D01*
X362192Y169728D01*
Y169721D01*
X362222Y169610D01*
X362251Y169506D01*
X362288Y169425D01*
X362318Y169358D01*
X362340Y169306D01*
X362362Y169269D01*
X362377Y169247D01*
X362385Y169240D01*
X362473Y169143D01*
X362570Y169077D01*
X362614Y169047D01*
X362644Y169032D01*
X362666Y169025D01*
X362673Y169018D01*
X362747Y168995D01*
X362836Y168973D01*
X362932Y168958D01*
X363028Y168951D01*
X363117D01*
X363184Y168944D01*
X363865D01*
Y172259D01*
D02*
G37*
G36*
X359721D02*
X358892D01*
X358810Y172251D01*
X358677D01*
X358618Y172244D01*
X358574D01*
X358529Y172237D01*
X358470Y172229D01*
X358433Y172222D01*
X358411Y172214D01*
X358403D01*
X358344Y172192D01*
X358292Y172163D01*
X358248Y172126D01*
X358211Y172096D01*
X358181Y172066D01*
X358159Y172037D01*
X358152Y172022D01*
X358144Y172015D01*
X358115Y171955D01*
X358085Y171896D01*
X358063Y171770D01*
X358056Y171711D01*
X358048Y171667D01*
Y171637D01*
Y171630D01*
X358056Y171541D01*
X358063Y171467D01*
X358078Y171393D01*
X358093Y171341D01*
X358115Y171289D01*
X358130Y171260D01*
X358137Y171238D01*
X358144Y171230D01*
X358181Y171178D01*
X358226Y171134D01*
X358263Y171104D01*
X358307Y171075D01*
X358344Y171053D01*
X358366Y171038D01*
X358389Y171030D01*
X358396D01*
X358433Y171023D01*
X358470Y171016D01*
X358574Y171008D01*
X358692Y170993D01*
X358810D01*
X358929Y170986D01*
X359721D01*
Y172259D01*
D02*
G37*
G36*
X367380Y172318D02*
X367328D01*
X367239Y172311D01*
X367150Y172303D01*
X367069Y172281D01*
X366987Y172251D01*
X366847Y172185D01*
X366728Y172111D01*
X366640Y172029D01*
X366573Y171963D01*
X366543Y171933D01*
X366529Y171911D01*
X366514Y171904D01*
Y171896D01*
X366455Y171815D01*
X366410Y171726D01*
X366329Y171519D01*
X366270Y171312D01*
X366233Y171104D01*
X366225Y171001D01*
X366210Y170912D01*
X366203Y170831D01*
Y170757D01*
X366196Y170697D01*
Y170653D01*
Y170623D01*
Y170616D01*
Y170453D01*
X366210Y170305D01*
X366225Y170172D01*
X366247Y170039D01*
X366270Y169920D01*
X366299Y169817D01*
X366329Y169721D01*
X366358Y169632D01*
X366388Y169558D01*
X366418Y169491D01*
X366447Y169432D01*
X366469Y169388D01*
X366492Y169351D01*
X366506Y169328D01*
X366514Y169314D01*
X366521Y169306D01*
X366580Y169232D01*
X366647Y169166D01*
X366714Y169114D01*
X366780Y169062D01*
X366847Y169025D01*
X366913Y168988D01*
X367047Y168936D01*
X367158Y168907D01*
X367202Y168899D01*
X367246Y168892D01*
X367283Y168884D01*
X367328D01*
X367417Y168892D01*
X367498Y168907D01*
X367579Y168921D01*
X367653Y168951D01*
X367794Y169018D01*
X367912Y169099D01*
X368009Y169180D01*
X368075Y169247D01*
X368097Y169277D01*
X368120Y169299D01*
X368127Y169306D01*
X368134Y169314D01*
X368194Y169402D01*
X368238Y169491D01*
X368319Y169698D01*
X368379Y169913D01*
X368416Y170120D01*
X368430Y170216D01*
X368445Y170305D01*
X368453Y170387D01*
Y170461D01*
X368460Y170520D01*
Y170564D01*
Y170594D01*
Y170601D01*
X368453Y170757D01*
X368445Y170905D01*
X368430Y171045D01*
X368408Y171171D01*
X368386Y171289D01*
X368364Y171393D01*
X368334Y171489D01*
X368305Y171578D01*
X368275Y171652D01*
X368245Y171719D01*
X368223Y171770D01*
X368201Y171815D01*
X368179Y171852D01*
X368164Y171874D01*
X368149Y171889D01*
Y171896D01*
X368090Y171970D01*
X368023Y172037D01*
X367957Y172089D01*
X367883Y172140D01*
X367816Y172185D01*
X367750Y172214D01*
X367616Y172266D01*
X367505Y172296D01*
X367454Y172303D01*
X367409Y172311D01*
X367380Y172318D01*
D02*
G37*
%LPD*%
M02*
