G04*
G04 #@! TF.GenerationSoftware,Altium Limited,Altium Designer,24.5.2 (23)*
G04*
G04 Layer_Color=65535*
%FSLAX25Y25*%
%MOIN*%
G70*
G04*
G04 #@! TF.SameCoordinates,31991F0E-98CA-4A4E-B794-B5AF52ABA4E1*
G04*
G04*
G04 #@! TF.FilePolarity,Positive*
G04*
G01*
G75*
%ADD10C,0.00787*%
%ADD11C,0.01000*%
%ADD12C,0.00591*%
%ADD13C,0.00500*%
%ADD14C,0.02000*%
%ADD15C,0.00197*%
%ADD16R,0.06000X0.61000*%
G36*
X75343Y50363D02*
X75350Y50319D01*
X75331Y50300D01*
X75280Y50288D01*
X75154Y50351D01*
X75116Y50338D01*
X72445Y50326D01*
X72382Y50300D01*
X72294Y50250D01*
X72275Y50231D01*
X72281Y50200D01*
X72407Y50162D01*
X72514Y50143D01*
X72565Y50130D01*
X72628Y50105D01*
X72647Y50086D01*
X72811Y49998D01*
X72937Y49910D01*
X72962Y49897D01*
X73050Y49834D01*
X73075Y49821D01*
X73214Y49746D01*
X73428Y49645D01*
X73548Y49601D01*
X73617Y49569D01*
X73718Y49544D01*
X73806Y49532D01*
X73932Y49519D01*
X74348Y49532D01*
X74386Y49544D01*
X74455Y49563D01*
X74600Y49632D01*
X74663Y49658D01*
X74776Y49721D01*
X74814Y49758D01*
X74902Y49809D01*
X75003Y49910D01*
X75028Y49922D01*
X75060Y49954D01*
X75072Y49979D01*
X75123Y50029D01*
X75135Y50055D01*
X75205Y50124D01*
X75280Y50111D01*
X75287Y47774D01*
X75274Y47736D01*
X75261Y47522D01*
X75249Y47484D01*
X75230Y47314D01*
X75198Y47232D01*
X75123Y47068D01*
X75098Y47005D01*
X74946Y46804D01*
X74915Y46772D01*
X74890Y46760D01*
X74865Y46722D01*
X74839Y46709D01*
X74764Y46659D01*
X74739Y46646D01*
X74650Y46583D01*
X74581Y46564D01*
X74474Y46533D01*
X74411Y46508D01*
X74260Y46470D01*
X73945Y46457D01*
X73907Y46470D01*
X73718Y46483D01*
X73680Y46495D01*
X73554Y46533D01*
X73453Y46558D01*
X73321Y46590D01*
X73176Y46659D01*
X73094Y46690D01*
X73050Y46709D01*
X72659Y46898D01*
X72597Y46924D01*
X72508Y46949D01*
X72407Y46974D01*
X72319Y46999D01*
X72168Y47037D01*
X72042Y47049D01*
X71878Y47062D01*
X71576Y47049D01*
X71538Y47037D01*
X71469Y47018D01*
X71418Y47005D01*
X71311Y46974D01*
X71261Y46961D01*
X71179Y46930D01*
X71116Y46905D01*
X70876Y46766D01*
X70820Y46709D01*
X70795Y46697D01*
X70757Y46659D01*
X70732Y46646D01*
X70681Y46596D01*
X70631Y46583D01*
X70612Y46640D01*
X70625Y49362D01*
X70637Y49399D01*
X70675Y49525D01*
X70694Y49607D01*
X70706Y49658D01*
X70732Y49721D01*
X70750Y49740D01*
X70763Y49765D01*
X70814Y49840D01*
X70826Y49866D01*
X70883Y49935D01*
X70996Y50048D01*
X71021Y50061D01*
X71059Y50099D01*
X71147Y50137D01*
X71248Y50162D01*
X71317Y50181D01*
X71368Y50206D01*
X71355Y50256D01*
X71261Y50313D01*
X71179Y50332D01*
X69346Y50338D01*
X69308Y50326D01*
X69226Y50294D01*
X69182Y50262D01*
X69150Y50231D01*
X69163Y50206D01*
X69182Y50187D01*
X69270Y50162D01*
X69352Y50143D01*
X69434Y50111D01*
X69591Y49992D01*
X69679Y49903D01*
X69692Y49878D01*
X69717Y49853D01*
X69730Y49828D01*
X69755Y49803D01*
X69768Y49777D01*
X69806Y49689D01*
X69818Y49639D01*
X69881Y49500D01*
X69894Y49412D01*
X69906Y49210D01*
X69894Y46590D01*
X69862Y46583D01*
X69793Y46640D01*
X69724Y46709D01*
X69698Y46722D01*
X69673Y46747D01*
X69648Y46760D01*
X69610Y46797D01*
X69585Y46810D01*
X69497Y46861D01*
X69333Y46936D01*
X69245Y46961D01*
X69207Y46974D01*
X69194D01*
X69144Y46986D01*
X69062Y47018D01*
X69012Y47031D01*
X68949Y47043D01*
X68823Y47056D01*
X68489Y47062D01*
X68451Y47049D01*
X68300Y47037D01*
X68262Y47024D01*
X68136Y46986D01*
X68086Y46974D01*
X68004Y46955D01*
X67953Y46942D01*
X67701Y46842D01*
X67657Y46823D01*
X67342Y46672D01*
X67292Y46659D01*
X67128Y46583D01*
X67027Y46558D01*
X66920Y46539D01*
X66870Y46527D01*
X66763Y46495D01*
X66712Y46483D01*
X66624Y46470D01*
X66422Y46457D01*
X66177Y46476D01*
X66114Y46489D01*
X66044Y46508D01*
X65881Y46558D01*
X65799Y46590D01*
X65729Y46634D01*
X65641Y46684D01*
X65528Y46772D01*
X65458Y46842D01*
X65446Y46867D01*
X65383Y46930D01*
X65307Y47068D01*
X65257Y47144D01*
X65238Y47226D01*
X65225Y47276D01*
X65175Y47415D01*
X65162Y47465D01*
X65150Y47591D01*
X65137Y50048D01*
X65131Y50080D01*
X65169Y50143D01*
X65188Y50149D01*
X65257Y50092D01*
X65345Y49979D01*
X65414Y49910D01*
X65439Y49897D01*
X65528Y49809D01*
X65553Y49796D01*
X65641Y49733D01*
X65666Y49721D01*
X65742Y49670D01*
X65862Y49626D01*
X66006Y49557D01*
X66088Y49538D01*
X66202Y49525D01*
X66611Y49519D01*
X66649Y49532D01*
X66775Y49544D01*
X66964Y49620D01*
X67159Y49689D01*
X67178Y49708D01*
X67443Y49847D01*
X67531Y49910D01*
X67619Y49960D01*
X67708Y50023D01*
X67733Y50036D01*
X67947Y50137D01*
X67997Y50149D01*
X68086Y50162D01*
X68155Y50181D01*
X68199Y50200D01*
X68218Y50218D01*
X68205Y50244D01*
X68186Y50262D01*
X68073Y50313D01*
X67991Y50332D01*
X65358Y50344D01*
X65345Y50370D01*
X68268Y50382D01*
X68432Y50395D01*
X68942Y50401D01*
X68980Y50388D01*
X69371Y50376D01*
X71576Y50388D01*
X71614Y50401D01*
X72206Y50388D01*
X72244Y50376D01*
X75173Y50370D01*
X75243Y50388D01*
X75280Y50401D01*
X75343Y50363D01*
D02*
G37*
G36*
X65288Y50376D02*
X65301Y50363D01*
X65307Y50357D01*
X65288Y50338D01*
X65200Y50300D01*
X65150Y50313D01*
X65143Y50370D01*
X65162Y50388D01*
X65288Y50376D01*
D02*
G37*
G36*
X69081Y46268D02*
X69270Y46180D01*
X69352Y46161D01*
X69415Y46136D01*
X69459Y46092D01*
X69484Y46079D01*
X69509Y46054D01*
X69572Y46016D01*
X69692Y45897D01*
X69730Y45834D01*
X69768Y45796D01*
X69806Y45708D01*
X69824Y45638D01*
X69881Y45506D01*
X69894Y45456D01*
X69906Y45103D01*
X69913Y43244D01*
X69900Y43219D01*
X69850Y43232D01*
X69648Y43433D01*
X69623Y43446D01*
X69585Y43484D01*
X69560Y43496D01*
X69535Y43521D01*
X69421Y43584D01*
X69157Y43710D01*
X68986Y43729D01*
X68936Y43742D01*
X68854Y43773D01*
X68753Y43799D01*
X68501Y43811D01*
X68464Y43799D01*
X68262Y43786D01*
X68199Y43761D01*
X68149Y43748D01*
X68086Y43723D01*
X67871Y43698D01*
X67808Y43673D01*
X67695Y43622D01*
X67575Y43578D01*
X67481Y43521D01*
X67367Y43458D01*
X67229Y43383D01*
X67103Y43295D01*
X67033Y43276D01*
X66989Y43257D01*
X66888Y43194D01*
X66838Y43181D01*
X66712Y43169D01*
X66618Y43150D01*
X66517Y43112D01*
X66466Y43099D01*
X66403Y43087D01*
X66221Y43080D01*
X66183Y43093D01*
X66019Y43156D01*
X65899Y43175D01*
X65836Y43187D01*
X65773Y43213D01*
X65742Y43244D01*
X65717Y43257D01*
X65692Y43282D01*
X65578Y43345D01*
X65515Y43408D01*
X65490Y43421D01*
X65471Y43439D01*
X65458Y43465D01*
X65408Y43515D01*
X65395Y43540D01*
X65370Y43565D01*
X65295Y43704D01*
X65244Y43817D01*
X65232Y43868D01*
X65213Y43950D01*
X65188Y44013D01*
X65169Y44069D01*
X65156Y44120D01*
X65143Y44510D01*
X65156Y46249D01*
X65200Y46256D01*
X65377Y46079D01*
X65402Y46067D01*
X65578Y45941D01*
X65742Y45853D01*
X65805Y45827D01*
X65893Y45802D01*
X66032Y45739D01*
X66132Y45714D01*
X66372Y45701D01*
X66851Y45714D01*
X66888Y45726D01*
X66964Y45739D01*
X67103Y45802D01*
X67141Y45815D01*
X67153D01*
X67248Y45834D01*
X67430Y45928D01*
X67481Y45941D01*
X67569Y45991D01*
X67645Y46042D01*
X67726Y46060D01*
X67790Y46086D01*
X67884Y46142D01*
X67934Y46155D01*
X68086Y46180D01*
X68168Y46212D01*
X68237Y46243D01*
X68325Y46268D01*
X68791Y46281D01*
X69081Y46268D01*
D02*
G37*
G36*
X72162Y46262D02*
X72212Y46249D01*
X72344Y46193D01*
X72395Y46180D01*
X72514Y46161D01*
X72565Y46149D01*
X72609Y46130D01*
X72710Y46067D01*
X72779Y46048D01*
X72842Y46023D01*
X72918Y45972D01*
X72987Y45941D01*
X73107Y45897D01*
X73138Y45865D01*
X73226Y45827D01*
X73371Y45796D01*
X73434Y45771D01*
X73504Y45739D01*
X73554Y45726D01*
X73642Y45714D01*
X73768Y45701D01*
X74083Y45689D01*
X74121Y45701D01*
X74361Y45714D01*
X74398Y45726D01*
X74449Y45739D01*
X74612Y45815D01*
X74663Y45827D01*
X74890Y45953D01*
X74928Y45991D01*
X74953Y46004D01*
X74978Y46029D01*
X75041Y46067D01*
X75179Y46205D01*
X75243Y46231D01*
X75274Y46199D01*
X75280Y46142D01*
X75268Y44214D01*
X75249Y44044D01*
X75230Y43925D01*
X75205Y43862D01*
X75135Y43717D01*
X75104Y43635D01*
X75054Y43559D01*
X75035Y43540D01*
X75022Y43515D01*
X74997Y43490D01*
X74984Y43465D01*
X74839Y43320D01*
X74814Y43307D01*
X74726Y43244D01*
X74701Y43232D01*
X74676Y43206D01*
X74587Y43181D01*
X74505Y43162D01*
X74442Y43150D01*
X74272Y43080D01*
X74222Y43068D01*
X73970Y43080D01*
X73857Y43131D01*
X73794Y43156D01*
X73705Y43169D01*
X73598Y43187D01*
X73535Y43213D01*
X73516Y43232D01*
X73491Y43244D01*
X73378Y43295D01*
X73290Y43345D01*
X73264Y43370D01*
X73101Y43458D01*
X73012Y43521D01*
X72899Y43572D01*
X72811Y43610D01*
X72729Y43641D01*
X72659Y43673D01*
X72647D01*
X72584Y43698D01*
X72534Y43710D01*
X72351Y43729D01*
X72168Y43786D01*
X72004Y43799D01*
X71740Y43786D01*
X71702Y43773D01*
X71639Y43748D01*
X71538Y43723D01*
X71393Y43704D01*
X71343Y43692D01*
X71204Y43628D01*
X71009Y43521D01*
X70895Y43433D01*
X70870Y43408D01*
X70845Y43395D01*
X70656Y43206D01*
X70625Y43200D01*
X70599Y43263D01*
X70612Y43351D01*
X70625Y45355D01*
X70637Y45393D01*
X70675Y45518D01*
X70694Y45601D01*
X70706Y45651D01*
X70732Y45714D01*
X70788Y45796D01*
X70839Y45884D01*
X70927Y45972D01*
X70939Y45997D01*
X70971Y46029D01*
X71059Y46079D01*
X71128Y46136D01*
X71210Y46167D01*
X71280Y46186D01*
X71343Y46212D01*
X71450Y46256D01*
X71500Y46268D01*
X71777Y46281D01*
X72162Y46262D01*
D02*
G37*
G36*
X68716Y43005D02*
X68854Y42942D01*
X68955Y42917D01*
X69056Y42904D01*
X69194Y42816D01*
X69276Y42784D01*
X69352Y42734D01*
X69383Y42702D01*
X69409Y42690D01*
X69478Y42633D01*
X69522Y42602D01*
X69617Y42507D01*
X69629Y42482D01*
X69679Y42432D01*
X69692Y42406D01*
X69755Y42318D01*
X69806Y42243D01*
X69818Y42192D01*
X69843Y42129D01*
X69894Y42016D01*
X69919Y41927D01*
X69932Y41839D01*
X69881Y41751D01*
X69818Y41726D01*
X69768Y41713D01*
X69724Y41694D01*
X69635Y41631D01*
X69610Y41619D01*
X69503Y41550D01*
X69490Y41524D01*
X69446Y41480D01*
X69421Y41468D01*
X69352Y41398D01*
X69339Y41373D01*
X69251Y41260D01*
X69207Y41216D01*
X69119Y41190D01*
X68955Y41203D01*
X65377Y41190D01*
X65339Y41203D01*
X65213Y41190D01*
X65150Y41203D01*
X65118Y41234D01*
X65106Y41323D01*
X65112Y41480D01*
X65106Y42822D01*
X65118Y42860D01*
X65137Y42904D01*
X65175Y42917D01*
X65219Y42873D01*
X65282Y42759D01*
X65377Y42665D01*
X65402Y42652D01*
X65471Y42595D01*
X65566Y42539D01*
X65704Y42476D01*
X65754Y42463D01*
X65843Y42438D01*
X65893Y42425D01*
X65981Y42400D01*
X66032Y42387D01*
X66372Y42362D01*
X66460Y42375D01*
X66674Y42387D01*
X66750Y42413D01*
X66763D01*
X66832Y42432D01*
X66933Y42457D01*
X66996Y42469D01*
X67097Y42507D01*
X67254Y42576D01*
X67342Y42627D01*
X67418Y42677D01*
X67500Y42709D01*
X67544Y42753D01*
X67569Y42765D01*
X67657Y42803D01*
X67739Y42835D01*
X67758Y42854D01*
X67783Y42866D01*
X67871Y42904D01*
X67960Y42917D01*
X68054Y42935D01*
X68117Y42961D01*
X68186Y42992D01*
X68237Y43005D01*
X68325Y43017D01*
X68716Y43005D01*
D02*
G37*
G36*
X72206D02*
X72319Y42954D01*
X72382Y42929D01*
X72508Y42917D01*
X72609Y42891D01*
X72710Y42828D01*
X72830Y42784D01*
X72930Y42721D01*
X73056Y42658D01*
X73101Y42627D01*
X73163Y42589D01*
X73226Y42564D01*
X73308Y42532D01*
X73441Y42476D01*
X73491Y42463D01*
X73573Y42444D01*
X73674Y42419D01*
X73743Y42400D01*
X73919Y42375D01*
X74146Y42362D01*
X74184Y42375D01*
X74398Y42387D01*
X74436Y42400D01*
X74487Y42413D01*
X74612Y42450D01*
X74682Y42469D01*
X74745Y42494D01*
X74959Y42621D01*
X74990Y42652D01*
X75016Y42665D01*
X75110Y42759D01*
X75123Y42784D01*
X75161Y42822D01*
X75173Y42847D01*
X75205Y42879D01*
X75255Y42891D01*
X75287Y42885D01*
X75299Y42835D01*
X75305Y41266D01*
X75274Y41222D01*
X75243Y41190D01*
X75154Y41178D01*
X74915Y41190D01*
X72370D01*
X71481Y41184D01*
X71406Y41197D01*
X71336Y41241D01*
X71292Y41285D01*
X71254Y41348D01*
X71198Y41417D01*
X71034Y41581D01*
X71009Y41594D01*
X70889Y41675D01*
X70820Y41707D01*
X70732Y41732D01*
X70669Y41757D01*
X70643Y41770D01*
X70587Y41827D01*
X70574Y41877D01*
X70587Y42003D01*
X70675Y42192D01*
X70706Y42274D01*
X70725Y42293D01*
X70738Y42318D01*
X70763Y42343D01*
X70814Y42432D01*
X70839Y42457D01*
X70851Y42482D01*
X70939Y42570D01*
X70952Y42595D01*
X70971Y42614D01*
X70996Y42627D01*
X71047Y42677D01*
X71072Y42690D01*
X71141Y42746D01*
X71160Y42765D01*
X71185Y42778D01*
X71273Y42816D01*
X71299Y42828D01*
X71374Y42879D01*
X71437Y42904D01*
X71525Y42917D01*
X71576Y42929D01*
X71645Y42948D01*
X71752Y42992D01*
X71803Y43005D01*
X71966Y43017D01*
X72206Y43005D01*
D02*
G37*
G36*
X70429Y41102D02*
X70568Y41027D01*
X70637Y40970D01*
X70688Y40920D01*
X70700Y40894D01*
X70725Y40869D01*
X70738Y40844D01*
X70776Y40756D01*
X70782Y40737D01*
X70788Y40731D01*
X70801Y40617D01*
X70858Y40548D01*
X70908Y40535D01*
X75268Y40523D01*
X75324Y40466D01*
X75337Y40378D01*
X75324Y40252D01*
X75337Y40088D01*
X75293Y40006D01*
X75230Y39981D01*
X65194Y39974D01*
X65150Y39993D01*
X65131Y40012D01*
X65118Y40063D01*
X65112Y40132D01*
X65124Y40472D01*
X65156Y40516D01*
X65175Y40535D01*
X65244Y40541D01*
X69648Y40535D01*
X69673Y40560D01*
X69692Y40567D01*
X69705Y40592D01*
X69730Y40655D01*
X69749Y40724D01*
X69774Y40787D01*
X69856Y40932D01*
X69913Y40989D01*
X69938Y41001D01*
X69988Y41052D01*
X70076Y41090D01*
X70165Y41102D01*
X70215Y41115D01*
X70429Y41102D01*
D02*
G37*
G36*
X58816Y51041D02*
X59177Y51027D01*
X59220Y51012D01*
X59437Y50998D01*
X59480Y50983D01*
X59574Y50962D01*
X59739Y50911D01*
X59797Y50897D01*
X59898Y50883D01*
X60013Y50854D01*
X60086Y50825D01*
X60186Y50796D01*
X60410Y50717D01*
X60489Y50681D01*
X60547Y50666D01*
X60684Y50616D01*
X60807Y50551D01*
X60879Y50522D01*
X61211Y50349D01*
X61297Y50291D01*
X61427Y50219D01*
X61456Y50190D01*
X61485Y50176D01*
X61615Y50104D01*
X61694Y50039D01*
X61716Y50017D01*
X61817Y49959D01*
X61889Y49887D01*
X61917Y49873D01*
X61997Y49808D01*
X62033Y49772D01*
X62062Y49757D01*
X62105Y49714D01*
X62134Y49700D01*
X62220Y49613D01*
X62249Y49599D01*
X62437Y49411D01*
X62466Y49397D01*
X62502Y49346D01*
X62675Y49173D01*
X62689Y49144D01*
X62761Y49072D01*
X62776Y49043D01*
X62819Y49000D01*
X62833Y48971D01*
X62906Y48899D01*
X62920Y48870D01*
X63021Y48740D01*
X63050Y48712D01*
X63064Y48683D01*
X63208Y48481D01*
X63266Y48380D01*
X63295Y48351D01*
X63309Y48322D01*
X63396Y48164D01*
X63454Y48077D01*
X63482Y48005D01*
X63569Y47846D01*
X63627Y47716D01*
X63641Y47659D01*
X63742Y47442D01*
X63778Y47348D01*
X63807Y47276D01*
X63843Y47183D01*
X63865Y47089D01*
X63894Y46973D01*
X63944Y46851D01*
X63973Y46736D01*
X63987Y46635D01*
X64002Y46577D01*
X64023Y46454D01*
X64081Y46166D01*
X64095Y46036D01*
X64110Y45877D01*
X64124Y45646D01*
X64132Y45077D01*
X64117Y45033D01*
X64103Y44658D01*
X64088Y44615D01*
X64074Y44471D01*
X64059Y44428D01*
X64009Y44190D01*
X63980Y44002D01*
X63966Y43930D01*
X63951Y43872D01*
X63922Y43800D01*
X63858Y43591D01*
X63836Y43497D01*
X63807Y43425D01*
X63771Y43346D01*
X63706Y43165D01*
X63684Y43115D01*
X63612Y42956D01*
X63576Y42863D01*
X63540Y42812D01*
X63497Y42740D01*
X63461Y42646D01*
X63439Y42596D01*
X63374Y42516D01*
X63266Y42322D01*
X63237Y42293D01*
X63151Y42134D01*
X63093Y42076D01*
X63079Y42048D01*
X63007Y41947D01*
X62869Y41766D01*
X62833Y41730D01*
X62819Y41701D01*
X62761Y41644D01*
X62747Y41615D01*
X62631Y41500D01*
X62617Y41471D01*
X62206Y41060D01*
X62177Y41045D01*
X62047Y40915D01*
X62018Y40901D01*
X61889Y40800D01*
X61860Y40771D01*
X61788Y40728D01*
X61708Y40663D01*
X61600Y40598D01*
X61571Y40584D01*
X61528Y40540D01*
X61499Y40526D01*
X61470Y40497D01*
X61312Y40410D01*
X61225Y40353D01*
X61131Y40317D01*
X61110Y40295D01*
X61081Y40281D01*
X60749Y40122D01*
X60648Y40079D01*
X60489Y40007D01*
X60410Y39985D01*
X60352Y39970D01*
X60208Y39913D01*
X60086Y39877D01*
X59970Y39848D01*
X59905Y39812D01*
X59898Y39776D01*
X56948Y39783D01*
X56934Y39826D01*
X56768Y39877D01*
X56631Y39927D01*
X56537Y39963D01*
X56422Y39992D01*
X56328Y40028D01*
X56278Y40050D01*
X56119Y40122D01*
X56047Y40151D01*
X56018Y40165D01*
X55542Y40410D01*
X55513Y40439D01*
X55484Y40454D01*
X55383Y40511D01*
X55196Y40641D01*
X55167Y40656D01*
X55138Y40685D01*
X55109Y40699D01*
X55066Y40742D01*
X55037Y40757D01*
X54936Y40829D01*
X54878Y40887D01*
X54849Y40901D01*
X54770Y40966D01*
X54705Y41031D01*
X54677Y41045D01*
X54532Y41189D01*
X54503Y41204D01*
X54309Y41399D01*
X54294Y41427D01*
X54164Y41557D01*
X54150Y41586D01*
X54063Y41673D01*
X54049Y41701D01*
X53991Y41759D01*
X53977Y41788D01*
X53948Y41817D01*
X53934Y41846D01*
X53890Y41889D01*
X53876Y41918D01*
X53833Y41961D01*
X53775Y42062D01*
X53732Y42105D01*
X53717Y42134D01*
X53688Y42163D01*
X53631Y42264D01*
X53602Y42293D01*
X53587Y42322D01*
X53501Y42480D01*
X53429Y42581D01*
X53393Y42675D01*
X53306Y42819D01*
X53234Y43007D01*
X53169Y43115D01*
X53090Y43339D01*
X53061Y43411D01*
X53047Y43468D01*
X52974Y43670D01*
X52938Y43793D01*
X52924Y43851D01*
X52859Y44161D01*
X52837Y44240D01*
X52808Y44355D01*
X52780Y44557D01*
X52744Y44997D01*
X52736Y45711D01*
X52751Y45755D01*
X52772Y46036D01*
X52787Y46195D01*
X52801Y46310D01*
X52816Y46382D01*
X52845Y46497D01*
X52866Y46577D01*
X52881Y46635D01*
X52902Y46728D01*
X52931Y46887D01*
X52946Y46945D01*
X52989Y47060D01*
X53039Y47226D01*
X53075Y47320D01*
X53104Y47392D01*
X53191Y47623D01*
X53256Y47745D01*
X53306Y47882D01*
X53364Y47969D01*
X53465Y48171D01*
X53487Y48192D01*
X53501Y48221D01*
X53587Y48380D01*
X53631Y48423D01*
X53645Y48452D01*
X53717Y48582D01*
X53775Y48640D01*
X53789Y48668D01*
X53890Y48798D01*
X54027Y48978D01*
X54063Y49014D01*
X54078Y49043D01*
X54121Y49087D01*
X54136Y49115D01*
X54280Y49260D01*
X54287Y49281D01*
X54309Y49289D01*
X54316Y49310D01*
X54338Y49317D01*
X54352Y49346D01*
X54576Y49570D01*
X54604Y49584D01*
X54720Y49700D01*
X54749Y49714D01*
X54777Y49743D01*
X54806Y49757D01*
X54878Y49830D01*
X54907Y49844D01*
X54936Y49873D01*
X54965Y49887D01*
X55008Y49931D01*
X55037Y49945D01*
X55080Y49988D01*
X55181Y50046D01*
X55253Y50118D01*
X55326Y50147D01*
X55354Y50161D01*
X55542Y50291D01*
X55672Y50363D01*
X55917Y50493D01*
X56018Y50536D01*
X56234Y50637D01*
X56458Y50717D01*
X56552Y50753D01*
X56696Y50796D01*
X56768Y50825D01*
X56912Y50868D01*
X57085Y50897D01*
X57143Y50911D01*
X57280Y50962D01*
X57338Y50976D01*
X57424Y50991D01*
X57619Y51012D01*
X57662D01*
X57670Y51020D01*
X57857Y51034D01*
X58088Y51048D01*
X58773Y51056D01*
X58816Y51041D01*
D02*
G37*
G36*
X51188Y135178D02*
X41988D01*
Y139678D01*
X51188D01*
Y135178D01*
D02*
G37*
G36*
X66927Y198871D02*
X57727D01*
Y203371D01*
X66927D01*
Y198871D01*
D02*
G37*
G36*
X40187Y138378D02*
X30988D01*
Y142878D01*
X40187D01*
Y138378D01*
D02*
G37*
G36*
X40288Y128878D02*
X31087D01*
Y133378D01*
X40288D01*
Y128878D01*
D02*
G37*
G36*
X46927Y198871D02*
X37727D01*
Y203371D01*
X46927D01*
Y198871D01*
D02*
G37*
G36*
X36927Y21671D02*
X27727D01*
Y26171D01*
X36927D01*
Y21671D01*
D02*
G37*
G36*
X74753Y55747D02*
Y51500D01*
X53100D01*
Y55747D01*
Y59374D01*
X74753D01*
Y55747D01*
D02*
G37*
G36*
X46927Y21671D02*
X37727D01*
Y26171D01*
X46927D01*
Y21671D01*
D02*
G37*
G36*
X36927Y198871D02*
X27727D01*
Y203371D01*
X36927D01*
Y198871D01*
D02*
G37*
G36*
X56927Y21671D02*
X47727D01*
Y26171D01*
X56927D01*
Y21671D01*
D02*
G37*
G36*
X58783Y173283D02*
X49583D01*
Y177783D01*
X58783D01*
Y173283D01*
D02*
G37*
G36*
X44583D02*
X35383D01*
Y177783D01*
X44583D01*
Y173283D01*
D02*
G37*
G36*
X56927Y198871D02*
X47727D01*
Y203371D01*
X56927D01*
Y198871D01*
D02*
G37*
G36*
X66927Y21671D02*
X57727D01*
Y26171D01*
X66927D01*
Y21671D01*
D02*
G37*
G36*
X51188Y142278D02*
X41988D01*
Y146778D01*
X51188D01*
Y142278D01*
D02*
G37*
%LPC*%
G36*
X58470Y50825D02*
X57980Y50810D01*
X57936Y50796D01*
X57677Y50782D01*
X57633Y50767D01*
X57511Y50745D01*
X57453Y50731D01*
X57237Y50688D01*
X57064Y50659D01*
X56991Y50644D01*
X56847Y50587D01*
X56782Y50565D01*
X56681Y50536D01*
X56566Y50507D01*
X56379Y50421D01*
X56242Y50370D01*
X56119Y50305D01*
X56025Y50269D01*
X55881Y50183D01*
X55722Y50111D01*
X55686Y50075D01*
X55657Y50060D01*
X55499Y49974D01*
X55441Y49916D01*
X55311Y49844D01*
X55268Y49801D01*
X55239Y49786D01*
X55210Y49757D01*
X55138Y49714D01*
X55095Y49671D01*
X55066Y49656D01*
X55037Y49628D01*
X55008Y49613D01*
X54929Y49548D01*
X54849Y49469D01*
X54821Y49455D01*
X54691Y49325D01*
X54662Y49310D01*
X54453Y49101D01*
X54439Y49072D01*
X54323Y48957D01*
X54309Y48928D01*
X54222Y48841D01*
X54208Y48813D01*
X54179Y48784D01*
X54164Y48755D01*
X54121Y48712D01*
X54107Y48683D01*
X54078Y48654D01*
X54063Y48625D01*
X53919Y48423D01*
X53905Y48394D01*
X53876Y48365D01*
X53861Y48337D01*
X53818Y48293D01*
X53789Y48221D01*
X53732Y48120D01*
X53703Y48091D01*
X53688Y48063D01*
X53587Y47875D01*
X53515Y47716D01*
X53458Y47615D01*
X53414Y47514D01*
X53349Y47334D01*
X53328Y47313D01*
X53285Y47212D01*
X53270Y47154D01*
X53234Y47002D01*
X53176Y46858D01*
X53155Y46779D01*
X53140Y46721D01*
X53119Y46584D01*
X53061Y46353D01*
X53047Y46281D01*
X53032Y46166D01*
X53018Y46036D01*
X52989Y45661D01*
X52982Y45062D01*
X52996Y45019D01*
X53018Y44680D01*
X53032Y44536D01*
X53061Y44348D01*
X53104Y44175D01*
X53119Y44103D01*
X53126Y44038D01*
X53133Y44031D01*
X53148Y43944D01*
X53169Y43865D01*
X53241Y43678D01*
X53256Y43620D01*
X53277Y43526D01*
X53321Y43411D01*
X53371Y43317D01*
X53414Y43173D01*
X53487Y43043D01*
X53530Y42942D01*
X53616Y42783D01*
X53717Y42596D01*
X53775Y42509D01*
X53847Y42379D01*
X53890Y42336D01*
X53905Y42307D01*
X53962Y42206D01*
X53991Y42177D01*
X54006Y42149D01*
X54049Y42105D01*
X54063Y42076D01*
X54164Y41947D01*
X54208Y41903D01*
X54222Y41875D01*
X54265Y41831D01*
X54280Y41802D01*
X54352Y41730D01*
X54366Y41701D01*
X54467Y41600D01*
X54482Y41572D01*
X54662Y41391D01*
X54691Y41377D01*
X54821Y41247D01*
X54849Y41233D01*
X54936Y41146D01*
X54965Y41132D01*
X54994Y41103D01*
X55023Y41088D01*
X55080Y41031D01*
X55109Y41016D01*
X55189Y40951D01*
X55239Y40901D01*
X55268Y40887D01*
X55369Y40829D01*
X55412Y40786D01*
X55441Y40771D01*
X55556Y40699D01*
X55585Y40685D01*
X55686Y40612D01*
X55845Y40526D01*
X56234Y40338D01*
X56328Y40302D01*
X56508Y40223D01*
X56588Y40201D01*
X56660Y40172D01*
X56753Y40136D01*
X56984Y40079D01*
X57129Y40035D01*
X57302Y39992D01*
X57475Y39963D01*
X57619Y39949D01*
X57677Y39934D01*
X57994Y39906D01*
X58311Y39891D01*
X58412Y39877D01*
X58996Y39913D01*
X59227Y39942D01*
X59422Y39963D01*
X59480Y39978D01*
X59602Y39999D01*
X59682Y40021D01*
X59884Y40079D01*
X59999Y40108D01*
X60093Y40129D01*
X60208Y40172D01*
X60302Y40209D01*
X60360Y40223D01*
X60453Y40259D01*
X60619Y40338D01*
X60756Y40389D01*
X60778Y40410D01*
X60807Y40425D01*
X61081Y40569D01*
X61239Y40656D01*
X61268Y40685D01*
X61297Y40699D01*
X61398Y40757D01*
X61478Y40822D01*
X61586Y40887D01*
X61615Y40901D01*
X61643Y40930D01*
X61672Y40944D01*
X61730Y41002D01*
X61759Y41016D01*
X61838Y41081D01*
X61889Y41132D01*
X61917Y41146D01*
X61946Y41175D01*
X61975Y41189D01*
X62076Y41290D01*
X62105Y41305D01*
X62473Y41673D01*
X62487Y41701D01*
X62574Y41788D01*
X62588Y41817D01*
X62660Y41889D01*
X62675Y41918D01*
X62704Y41947D01*
X62718Y41976D01*
X62776Y42033D01*
X62790Y42062D01*
X62934Y42264D01*
X62992Y42365D01*
X63050Y42423D01*
X63064Y42452D01*
X63165Y42639D01*
X63194Y42668D01*
X63223Y42740D01*
X63295Y42870D01*
X63367Y43028D01*
X63482Y43274D01*
X63497Y43331D01*
X63533Y43425D01*
X63583Y43519D01*
X63612Y43620D01*
X63641Y43735D01*
X63706Y43916D01*
X63721Y43973D01*
X63749Y44118D01*
X63764Y44204D01*
X63778Y44276D01*
X63821Y44449D01*
X63836Y44521D01*
X63850Y44637D01*
X63865Y44810D01*
X63879Y45127D01*
X63886Y45581D01*
X63872Y45625D01*
X63858Y46058D01*
X63843Y46101D01*
X63821Y46252D01*
X63778Y46425D01*
X63764Y46497D01*
X63735Y46671D01*
X63706Y46786D01*
X63677Y46858D01*
X63627Y47024D01*
X63605Y47118D01*
X63576Y47190D01*
X63497Y47370D01*
X63475Y47464D01*
X63367Y47673D01*
X63331Y47767D01*
X63259Y47882D01*
X63187Y48041D01*
X63165Y48063D01*
X63151Y48091D01*
X63122Y48120D01*
X63035Y48279D01*
X62963Y48380D01*
X62906Y48481D01*
X62877Y48510D01*
X62862Y48539D01*
X62833Y48567D01*
X62819Y48596D01*
X62718Y48726D01*
X62689Y48755D01*
X62675Y48784D01*
X62610Y48863D01*
X62588Y48885D01*
X62574Y48913D01*
X62516Y48971D01*
X62502Y49000D01*
X62256Y49245D01*
X62249Y49267D01*
X62220Y49281D01*
X62047Y49455D01*
X62018Y49469D01*
X61917Y49570D01*
X61889Y49584D01*
X61860Y49613D01*
X61831Y49628D01*
X61701Y49729D01*
X61456Y49902D01*
X61427Y49916D01*
X61369Y49974D01*
X61340Y49988D01*
X61182Y50075D01*
X61081Y50147D01*
X61023Y50161D01*
X60865Y50262D01*
X60771Y50298D01*
X60720Y50320D01*
X60533Y50406D01*
X60475Y50421D01*
X60287Y50507D01*
X60114Y50551D01*
X59977Y50601D01*
X59884Y50637D01*
X59768Y50666D01*
X59559Y50702D01*
X59415Y50731D01*
X59357Y50745D01*
X59285Y50760D01*
X59198Y50774D01*
X59069Y50789D01*
X58896Y50803D01*
X58470Y50825D01*
D02*
G37*
%LPD*%
G36*
X58528Y50176D02*
X58989Y50161D01*
X59033Y50147D01*
X59263Y50132D01*
X59364Y50118D01*
X59422Y50104D01*
X59494Y50075D01*
X59682Y50017D01*
X59905Y49966D01*
X59977Y49938D01*
X60100Y49887D01*
X60237Y49837D01*
X60287Y49815D01*
X60446Y49743D01*
X60540Y49707D01*
X60590Y49671D01*
X60663Y49628D01*
X60735Y49599D01*
X60836Y49541D01*
X60922Y49483D01*
X61023Y49426D01*
X61052Y49397D01*
X61081Y49382D01*
X61218Y49289D01*
X61304Y49231D01*
X61326Y49209D01*
X61355Y49195D01*
X61384Y49166D01*
X61413Y49152D01*
X61456Y49108D01*
X61485Y49094D01*
X61557Y49022D01*
X61586Y49007D01*
X61687Y48906D01*
X61716Y48892D01*
X62055Y48553D01*
X62069Y48524D01*
X62112Y48481D01*
X62127Y48452D01*
X62199Y48380D01*
X62213Y48351D01*
X62502Y47947D01*
X62516Y47918D01*
X62574Y47832D01*
X62588Y47774D01*
X62617Y47745D01*
X62631Y47716D01*
X62689Y47630D01*
X62725Y47536D01*
X62805Y47385D01*
X62841Y47291D01*
X62869Y47219D01*
X62891Y47197D01*
X62934Y47096D01*
X62949Y47038D01*
X62970Y46945D01*
X62985Y46887D01*
X63050Y46764D01*
X63079Y46663D01*
X63107Y46461D01*
X63122Y46404D01*
X63179Y46202D01*
X63208Y46086D01*
X63252Y45279D01*
X63237Y45134D01*
X63216Y44723D01*
X63201Y44594D01*
X63187Y44521D01*
X63172Y44464D01*
X63151Y44384D01*
X63122Y44283D01*
X63093Y44110D01*
X63057Y43959D01*
X63035Y43908D01*
X62978Y43778D01*
X62934Y43605D01*
X62819Y43360D01*
X62783Y43266D01*
X62718Y43158D01*
X62559Y42855D01*
X62487Y42754D01*
X62473Y42726D01*
X62415Y42625D01*
X62386Y42596D01*
X62372Y42567D01*
X62235Y42387D01*
X62119Y42242D01*
X62083Y42206D01*
X62069Y42177D01*
X62011Y42120D01*
X61997Y42091D01*
X61730Y41824D01*
X61701Y41810D01*
X61571Y41680D01*
X61542Y41665D01*
X61485Y41608D01*
X61456Y41593D01*
X61427Y41564D01*
X61398Y41550D01*
X61369Y41521D01*
X61340Y41507D01*
X61283Y41449D01*
X61254Y41435D01*
X61052Y41290D01*
X60951Y41233D01*
X60865Y41175D01*
X60836Y41161D01*
X60735Y41103D01*
X60648Y41045D01*
X60590Y41031D01*
X60432Y40944D01*
X60302Y40887D01*
X60208Y40865D01*
X60100Y40814D01*
X59970Y40757D01*
X59876Y40735D01*
X59711Y40685D01*
X59653Y40670D01*
X59552Y40641D01*
X59379Y40612D01*
X59206Y40569D01*
X59105Y40555D01*
X59047Y40540D01*
X58946Y40526D01*
X58629Y40511D01*
X57850Y40526D01*
X57806Y40540D01*
X57749Y40555D01*
X57612Y40576D01*
X57496Y40605D01*
X57352Y40634D01*
X57266Y40648D01*
X57208Y40663D01*
X56955Y40742D01*
X56840Y40771D01*
X56624Y40872D01*
X56566Y40887D01*
X56451Y40930D01*
X56350Y41002D01*
X56213Y41052D01*
X56126Y41110D01*
X55931Y41218D01*
X55845Y41276D01*
X55816Y41290D01*
X55434Y41572D01*
X55383Y41608D01*
X55340Y41651D01*
X55311Y41665D01*
X55253Y41723D01*
X55225Y41737D01*
X55095Y41867D01*
X55066Y41882D01*
X54943Y42004D01*
X54929Y42033D01*
X54813Y42149D01*
X54799Y42177D01*
X54727Y42250D01*
X54712Y42278D01*
X54684Y42307D01*
X54669Y42336D01*
X54626Y42379D01*
X54611Y42408D01*
X54554Y42466D01*
X54539Y42495D01*
X54467Y42596D01*
X54453Y42625D01*
X54381Y42726D01*
X54366Y42754D01*
X54294Y42884D01*
X54222Y42985D01*
X54049Y43346D01*
X53948Y43562D01*
X53919Y43678D01*
X53883Y43771D01*
X53861Y43793D01*
X53833Y43865D01*
X53804Y43966D01*
X53782Y44103D01*
X53768Y44175D01*
X53753Y44233D01*
X53703Y44355D01*
X53674Y44471D01*
X53660Y44702D01*
X53645Y44803D01*
X53631Y45033D01*
X53616Y45091D01*
X53623Y45646D01*
X53631Y45654D01*
X53645Y45971D01*
X53660Y46014D01*
X53674Y46259D01*
X53688Y46303D01*
X53724Y46396D01*
X53753Y46469D01*
X53782Y46584D01*
X53811Y46757D01*
X53825Y46815D01*
X53854Y46887D01*
X53919Y47038D01*
X53934Y47096D01*
X53984Y47233D01*
X54006Y47255D01*
X54049Y47356D01*
X54078Y47428D01*
X54237Y47731D01*
X54294Y47817D01*
X54366Y47947D01*
X54439Y48048D01*
X54453Y48077D01*
X54597Y48279D01*
X54611Y48308D01*
X54655Y48351D01*
X54669Y48380D01*
X54698Y48409D01*
X54712Y48438D01*
X54813Y48539D01*
X54828Y48567D01*
X54943Y48683D01*
X54958Y48712D01*
X55124Y48878D01*
X55152Y48892D01*
X55225Y48964D01*
X55253Y48978D01*
X55326Y49051D01*
X55354Y49065D01*
X55412Y49123D01*
X55441Y49137D01*
X55484Y49180D01*
X55513Y49195D01*
X55542Y49224D01*
X55571Y49238D01*
X55773Y49382D01*
X55801Y49397D01*
X55830Y49426D01*
X55859Y49440D01*
X55960Y49498D01*
X56061Y49570D01*
X56162Y49613D01*
X56292Y49685D01*
X56364Y49729D01*
X56544Y49793D01*
X56566Y49815D01*
X56710Y49873D01*
X56790Y49894D01*
X56862Y49923D01*
X56941Y49959D01*
X57042Y49988D01*
X57208Y50024D01*
X57266Y50039D01*
X57475Y50104D01*
X57533Y50118D01*
X57633Y50132D01*
X57871Y50154D01*
X58073Y50169D01*
X58362Y50183D01*
X58485Y50190D01*
X58528Y50176D01*
D02*
G37*
%LPC*%
G36*
X58124Y49945D02*
X58081Y49931D01*
X57944Y49909D01*
X57828Y49894D01*
X57821Y49887D01*
X57590Y49873D01*
X57547Y49858D01*
X57395Y49822D01*
X57338Y49808D01*
X57215Y49772D01*
X57157Y49757D01*
X57064Y49736D01*
X56991Y49707D01*
X56840Y49642D01*
X56782Y49628D01*
X56703Y49606D01*
X56653Y49584D01*
X56537Y49512D01*
X56379Y49455D01*
X56263Y49382D01*
X56076Y49281D01*
X55960Y49209D01*
X55931Y49195D01*
X55830Y49123D01*
X55801Y49108D01*
X55773Y49079D01*
X55744Y49065D01*
X55715Y49036D01*
X55686Y49022D01*
X55643Y48978D01*
X55614Y48964D01*
X55585Y48935D01*
X55556Y48921D01*
X55528Y48892D01*
X55499Y48878D01*
X55427Y48805D01*
X55398Y48791D01*
X55253Y48647D01*
X55232Y48640D01*
X55225Y48618D01*
X55203Y48611D01*
X55196Y48589D01*
X55167Y48575D01*
X55102Y48510D01*
X55088Y48481D01*
X54972Y48365D01*
X54958Y48337D01*
X54900Y48279D01*
X54886Y48250D01*
X54842Y48207D01*
X54828Y48178D01*
X54785Y48135D01*
X54770Y48106D01*
X54705Y48026D01*
X54684Y48005D01*
X54611Y47875D01*
X54539Y47774D01*
X54467Y47644D01*
X54366Y47457D01*
X54294Y47298D01*
X54179Y47053D01*
X54157Y46959D01*
X54128Y46887D01*
X54078Y46764D01*
X54035Y46591D01*
X53977Y46404D01*
X53934Y46231D01*
X53883Y45719D01*
X53869Y45560D01*
X53861Y45149D01*
X53876Y45105D01*
X53898Y44839D01*
X53912Y44709D01*
X53926Y44550D01*
X53941Y44435D01*
X53955Y44363D01*
X54020Y44154D01*
X54078Y43923D01*
X54136Y43793D01*
X54215Y43569D01*
X54294Y43404D01*
X54330Y43310D01*
X54453Y43086D01*
X54467Y43057D01*
X54539Y42942D01*
X54597Y42841D01*
X54669Y42740D01*
X54684Y42711D01*
X54712Y42682D01*
X54727Y42653D01*
X54756Y42625D01*
X54770Y42596D01*
X54799Y42567D01*
X54813Y42538D01*
X54878Y42459D01*
X54914Y42408D01*
X54958Y42365D01*
X54972Y42336D01*
X55073Y42235D01*
X55088Y42206D01*
X55268Y42026D01*
X55297Y42011D01*
X55427Y41882D01*
X55455Y41867D01*
X55513Y41810D01*
X55542Y41795D01*
X55585Y41752D01*
X55614Y41737D01*
X55643Y41709D01*
X55672Y41694D01*
X55701Y41665D01*
X55729Y41651D01*
X55917Y41521D01*
X55946Y41507D01*
X55975Y41478D01*
X56003Y41463D01*
X56090Y41406D01*
X56249Y41319D01*
X56609Y41146D01*
X56703Y41110D01*
X56826Y41045D01*
X56927Y41016D01*
X57078Y40980D01*
X57129Y40959D01*
X57258Y40901D01*
X57359Y40887D01*
X57417Y40872D01*
X57569Y40850D01*
X57655Y40836D01*
X57799Y40807D01*
X57987Y40778D01*
X58182Y40757D01*
X58499Y40742D01*
X58730Y40757D01*
X59033Y40800D01*
X59350Y40858D01*
X59451Y40872D01*
X59675Y40922D01*
X59855Y41002D01*
X59977Y41023D01*
X60049Y41052D01*
X60215Y41132D01*
X60352Y41182D01*
X60374Y41204D01*
X60403Y41218D01*
X60504Y41262D01*
X60634Y41334D01*
X60663Y41363D01*
X60879Y41478D01*
X60980Y41550D01*
X61009Y41564D01*
X61290Y41774D01*
X61377Y41846D01*
X61427Y41882D01*
X61470Y41925D01*
X61499Y41939D01*
X61824Y42264D01*
X61838Y42293D01*
X61939Y42394D01*
X61954Y42423D01*
X61982Y42452D01*
X61997Y42480D01*
X62040Y42524D01*
X62055Y42552D01*
X62083Y42581D01*
X62098Y42610D01*
X62163Y42689D01*
X62199Y42726D01*
X62213Y42754D01*
X62271Y42855D01*
X62328Y42942D01*
X62343Y42971D01*
X62401Y43072D01*
X62458Y43158D01*
X62494Y43252D01*
X62588Y43432D01*
X62624Y43526D01*
X62704Y43706D01*
X62725Y43786D01*
X62769Y43901D01*
X62805Y43995D01*
X62833Y44110D01*
X62855Y44219D01*
X62884Y44334D01*
X62906Y44413D01*
X62934Y44514D01*
X62949Y44615D01*
X62963Y44673D01*
X62985Y45127D01*
X62992Y45553D01*
X62978Y45596D01*
X62963Y46058D01*
X62949Y46101D01*
X62927Y46223D01*
X62913Y46281D01*
X62891Y46360D01*
X62862Y46461D01*
X62848Y46519D01*
X62812Y46685D01*
X62769Y46800D01*
X62732Y46894D01*
X62711Y46973D01*
X62668Y47089D01*
X62617Y47183D01*
X62581Y47276D01*
X62552Y47348D01*
X62473Y47500D01*
X62386Y47659D01*
X62328Y47760D01*
X62256Y47861D01*
X62242Y47889D01*
X62148Y48026D01*
X62090Y48113D01*
X62018Y48199D01*
X61982Y48236D01*
X61968Y48264D01*
X61939Y48293D01*
X61925Y48322D01*
X61824Y48423D01*
X61809Y48452D01*
X61485Y48777D01*
X61456Y48791D01*
X61398Y48849D01*
X61369Y48863D01*
X61312Y48921D01*
X61283Y48935D01*
X61254Y48964D01*
X61225Y48978D01*
X61182Y49022D01*
X61153Y49036D01*
X61124Y49065D01*
X61095Y49079D01*
X61066Y49108D01*
X61037Y49123D01*
X60937Y49195D01*
X60908Y49209D01*
X60807Y49267D01*
X60706Y49339D01*
X60634Y49368D01*
X60605Y49382D01*
X60489Y49455D01*
X60417Y49483D01*
X60324Y49519D01*
X60215Y49584D01*
X60143Y49613D01*
X60086Y49628D01*
X60006Y49649D01*
X59934Y49678D01*
X59855Y49714D01*
X59711Y49757D01*
X59617Y49779D01*
X59537Y49801D01*
X59437Y49830D01*
X59321Y49858D01*
X59119Y49887D01*
X58910Y49909D01*
X58838Y49923D01*
X58751Y49938D01*
X58124Y49945D01*
D02*
G37*
%LPD*%
G36*
X60735Y48041D02*
X60785Y47990D01*
X60799Y47889D01*
X60785Y47846D01*
X60771Y47745D01*
X60742Y47673D01*
X60713Y47572D01*
X60684Y47457D01*
X60670Y47284D01*
X60612Y47197D01*
X60583Y47125D01*
X60533Y46988D01*
X60511Y46966D01*
X60497Y46937D01*
X60453Y46865D01*
X60381Y46736D01*
X60338Y46692D01*
X60324Y46663D01*
X60251Y46562D01*
X60150Y46461D01*
X60136Y46433D01*
X60114Y46411D01*
X60086Y46396D01*
X60021Y46332D01*
X60006Y46303D01*
X59956Y46267D01*
X59920Y46245D01*
X59905Y46216D01*
X59855Y46166D01*
X59826Y46151D01*
X59689Y46058D01*
X59581Y45993D01*
X59451Y45921D01*
X59292Y45834D01*
X59271Y45812D01*
X59285Y45755D01*
X59307Y45733D01*
X59364Y45719D01*
X60670Y45726D01*
X60742Y45697D01*
X60785Y45654D01*
X60799Y45553D01*
X60785Y44976D01*
X60764Y44940D01*
X60735Y44925D01*
X60691Y44911D01*
X60634Y44896D01*
X60360Y44911D01*
X59249Y44896D01*
X59227Y44875D01*
X59213Y44831D01*
X59249Y44781D01*
X59321Y44752D01*
X59415Y44730D01*
X59530Y44658D01*
X59696Y44565D01*
X59725Y44536D01*
X59754Y44521D01*
X59783Y44493D01*
X59855Y44449D01*
X59862Y44442D01*
X59869Y44435D01*
X59941Y44363D01*
X59970Y44348D01*
X60179Y44139D01*
X60194Y44110D01*
X60309Y43995D01*
X60367Y43894D01*
X60410Y43851D01*
X60511Y43663D01*
X60583Y43505D01*
X60670Y43317D01*
X60684Y43216D01*
X60699Y43072D01*
X60727Y43000D01*
X60771Y42855D01*
X60785Y42798D01*
X60799Y42668D01*
X60756Y42596D01*
X60735Y42574D01*
X60634Y42560D01*
X59913Y42574D01*
X59862Y42625D01*
X59833Y42726D01*
X59819Y42783D01*
X59790Y42884D01*
X59768Y43093D01*
X59732Y43187D01*
X59703Y43216D01*
X59689Y43245D01*
X59646Y43288D01*
X59631Y43346D01*
X59574Y43447D01*
X59487Y43533D01*
X59473Y43562D01*
X59379Y43656D01*
X59350Y43670D01*
X59292Y43728D01*
X59263Y43742D01*
X59220Y43786D01*
X59090Y43843D01*
X58960Y43916D01*
X58932Y43944D01*
X58845Y43959D01*
X58780Y43908D01*
X58766Y43851D01*
X58751Y42625D01*
X58715Y42588D01*
X58614Y42574D01*
X58304Y42581D01*
X58124Y42574D01*
X58081Y42588D01*
X58016Y42625D01*
X57987Y42726D01*
X57994Y43872D01*
X57958Y43923D01*
X57893Y43944D01*
X57821Y43930D01*
X57742Y43865D01*
X57720Y43843D01*
X57626Y43807D01*
X57511Y43735D01*
X57475Y43699D01*
X57446Y43685D01*
X57280Y43519D01*
X57266Y43490D01*
X57165Y43360D01*
X57136Y43331D01*
X57071Y43151D01*
X57006Y43086D01*
X56977Y42985D01*
X56955Y42661D01*
X56934Y42610D01*
X56898Y42574D01*
X56797Y42560D01*
X56133Y42574D01*
X56068Y42625D01*
X56054Y42682D01*
X56068Y42870D01*
X56090Y43137D01*
X56104Y43223D01*
X56148Y43339D01*
X56184Y43418D01*
X56249Y43598D01*
X56270Y43620D01*
X56314Y43721D01*
X56328Y43750D01*
X56429Y43894D01*
X56443Y43923D01*
X56516Y44024D01*
X56559Y44067D01*
X56573Y44096D01*
X56638Y44175D01*
X56746Y44283D01*
X56753Y44305D01*
X56782Y44319D01*
X56811Y44348D01*
X56840Y44363D01*
X56927Y44449D01*
X56955Y44464D01*
X57157Y44608D01*
X57230Y44637D01*
X57359Y44723D01*
X57460Y44752D01*
X57533Y44795D01*
X57554Y44817D01*
X57540Y44889D01*
X57460Y44911D01*
X56213Y44904D01*
X56141Y44918D01*
X56090Y44940D01*
X56068Y44961D01*
X56040Y45062D01*
X56054Y45394D01*
X56040Y45437D01*
X56054Y45639D01*
X56104Y45704D01*
X56205Y45719D01*
X56263Y45733D01*
X56364Y45719D01*
X57395Y45711D01*
X57482Y45726D01*
X57533Y45762D01*
X57540Y45812D01*
X57489Y45863D01*
X57410Y45884D01*
X57287Y45949D01*
X57215Y45993D01*
X57085Y46065D01*
X57056Y46094D01*
X57028Y46108D01*
X56999Y46137D01*
X56898Y46195D01*
X56862Y46231D01*
X56847Y46259D01*
X56797Y46295D01*
X56732Y46346D01*
X56717Y46375D01*
X56573Y46519D01*
X56559Y46548D01*
X56501Y46606D01*
X56487Y46635D01*
X56458Y46663D01*
X56386Y46793D01*
X56314Y46894D01*
X56299Y46952D01*
X56242Y47038D01*
X56213Y47111D01*
X56148Y47291D01*
X56112Y47385D01*
X56097Y47442D01*
X56083Y47587D01*
X56068Y47774D01*
X56061Y47925D01*
X56076Y47983D01*
X56104Y48026D01*
X56177Y48055D01*
X56898Y48041D01*
X56934Y48019D01*
X56963Y47918D01*
X56984Y47608D01*
X57013Y47536D01*
X57049Y47500D01*
X57064Y47471D01*
X57121Y47341D01*
X57179Y47240D01*
X57237Y47183D01*
X57251Y47154D01*
X57316Y47074D01*
X57460Y46930D01*
X57489Y46916D01*
X57547Y46858D01*
X57576Y46844D01*
X57677Y46800D01*
X57706Y46786D01*
X57785Y46721D01*
X57806Y46699D01*
X57864Y46685D01*
X57951Y46699D01*
X57987Y46736D01*
X58001Y46837D01*
X57987Y46937D01*
X58001Y47990D01*
X58023Y48026D01*
X58095Y48055D01*
X58730Y48041D01*
X58751Y48019D01*
X58766Y47918D01*
X58780Y46721D01*
X58831Y46671D01*
X58946Y46685D01*
X58975Y46714D01*
X59004Y46728D01*
X59033Y46757D01*
X59162Y46815D01*
X59191Y46829D01*
X59321Y46930D01*
X59350Y46959D01*
X59379Y46973D01*
X59408Y47002D01*
X59437Y47017D01*
X59458Y47038D01*
X59473Y47067D01*
X59530Y47125D01*
X59545Y47154D01*
X59602Y47212D01*
X59631Y47284D01*
X59689Y47385D01*
X59718Y47413D01*
X59732Y47442D01*
X59761Y47514D01*
X59775Y47572D01*
X59797Y47781D01*
X59833Y47904D01*
X59869Y47998D01*
X59913Y48041D01*
X59970Y48055D01*
X60735Y48041D01*
D02*
G37*
%LPC*%
G36*
X48821Y138996D02*
X48627D01*
X48594Y138990D01*
X48583D01*
X48544Y138985D01*
X48511Y138979D01*
X48494Y138974D01*
X48488D01*
X48466Y138963D01*
X48450Y138952D01*
X48444Y138946D01*
X48439Y138940D01*
X48416Y138913D01*
X48411Y138901D01*
Y138896D01*
X47878Y137869D01*
X47334Y138896D01*
X47312Y138929D01*
X47306Y138935D01*
X47301Y138940D01*
X47284Y138957D01*
X47267Y138968D01*
X47251Y138974D01*
X47245D01*
X47212Y138979D01*
X47179Y138985D01*
X47151Y138990D01*
X47140D01*
X47084Y138996D01*
X46873D01*
X46834Y138990D01*
X46785D01*
X46768Y138985D01*
X46751D01*
X46707Y138979D01*
X46674Y138968D01*
X46657Y138957D01*
X46651Y138952D01*
X46640Y138929D01*
X46635Y138907D01*
X46640Y138890D01*
Y138879D01*
X46657Y138835D01*
X46679Y138791D01*
X46696Y138757D01*
X46701Y138746D01*
Y138741D01*
X47390Y137464D01*
X46646Y136110D01*
X46618Y136054D01*
X46601Y136010D01*
X46590Y135988D01*
X46585Y135977D01*
Y135921D01*
X46590Y135905D01*
X46596Y135899D01*
X46618Y135888D01*
X46651Y135877D01*
X46674Y135871D01*
X46685D01*
X46746Y135866D01*
X46812Y135860D01*
X46957D01*
X47012Y135866D01*
X47056D01*
X47101Y135871D01*
X47134D01*
X47151Y135877D01*
X47156D01*
X47184Y135888D01*
X47201Y135893D01*
X47206Y135905D01*
X47212D01*
X47234Y135938D01*
X47245Y135949D01*
Y135954D01*
X47822Y137076D01*
X48405Y135954D01*
X48422Y135921D01*
X48433Y135910D01*
Y135905D01*
X48450Y135893D01*
X48466Y135882D01*
X48483Y135877D01*
X48488D01*
X48522Y135871D01*
X48555D01*
X48577Y135866D01*
X48588D01*
X48644Y135860D01*
X48860D01*
X48894Y135866D01*
X48949D01*
X48966Y135871D01*
X48977D01*
X49027Y135877D01*
X49060Y135888D01*
X49077Y135893D01*
X49082Y135899D01*
X49099Y135921D01*
X49104Y135949D01*
X49099Y135971D01*
Y135977D01*
X49088Y136021D01*
X49066Y136060D01*
X49049Y136099D01*
X49043Y136104D01*
Y136110D01*
X48305Y137475D01*
X48999Y138741D01*
X49021Y138802D01*
X49038Y138846D01*
X49049Y138868D01*
Y138879D01*
X49055Y138913D01*
X49049Y138935D01*
X49043Y138946D01*
X49038Y138952D01*
X49010Y138968D01*
X48977Y138979D01*
X48949Y138985D01*
X48938D01*
X48882Y138990D01*
X48821Y138996D01*
D02*
G37*
G36*
X45197Y138979D02*
X44254D01*
X44198Y138974D01*
X44159Y138957D01*
X44132Y138935D01*
X44121Y138929D01*
X44104Y138913D01*
X44093Y138885D01*
X44076Y138840D01*
Y138813D01*
X44071Y138796D01*
Y135960D01*
X44076Y135927D01*
X44082Y135916D01*
Y135910D01*
X44098Y135899D01*
X44115Y135888D01*
X44126Y135882D01*
X44132D01*
X44165Y135877D01*
X44198D01*
X44221Y135871D01*
X44232D01*
X44282Y135866D01*
X44331Y135860D01*
X44448D01*
X44492Y135866D01*
X44526Y135871D01*
X44537D01*
X44576Y135877D01*
X44609D01*
X44626Y135882D01*
X44631D01*
X44659Y135893D01*
X44676Y135899D01*
X44681Y135910D01*
X44687D01*
X44698Y135927D01*
X44703Y135943D01*
Y135954D01*
Y135960D01*
Y137142D01*
X44898D01*
X44970Y137137D01*
X45025Y137126D01*
X45047Y137120D01*
X45064Y137114D01*
X45070Y137109D01*
X45075D01*
X45131Y137081D01*
X45169Y137048D01*
X45197Y137026D01*
X45208Y137020D01*
Y137014D01*
X45253Y136965D01*
X45286Y136915D01*
X45297Y136892D01*
X45308Y136876D01*
X45314Y136865D01*
Y136859D01*
X45353Y136793D01*
X45380Y136726D01*
X45397Y136698D01*
X45403Y136676D01*
X45414Y136659D01*
Y136654D01*
X45697Y135966D01*
X45702Y135943D01*
X45708Y135927D01*
X45713Y135916D01*
Y135910D01*
X45730Y135899D01*
X45747Y135888D01*
X45758Y135882D01*
X45763D01*
X45797Y135877D01*
X45824Y135871D01*
X45847Y135866D01*
X45858D01*
X45908Y135860D01*
X46102D01*
X46157Y135866D01*
X46207D01*
X46252Y135871D01*
X46285Y135877D01*
X46307Y135882D01*
X46313D01*
X46335Y135893D01*
X46352Y135899D01*
X46363Y135910D01*
X46374Y135938D01*
Y135971D01*
X46368Y135993D01*
X46363Y136010D01*
X46357Y136015D01*
X46346Y136054D01*
X46330Y136104D01*
X46318Y136138D01*
X46313Y136149D01*
Y136154D01*
X46052Y136765D01*
X46013Y136843D01*
X45985Y136904D01*
X45969Y136926D01*
X45963Y136942D01*
X45952Y136953D01*
Y136959D01*
X45919Y137020D01*
X45886Y137070D01*
X45863Y137103D01*
X45852Y137109D01*
Y137114D01*
X45813Y137164D01*
X45780Y137198D01*
X45752Y137225D01*
X45747Y137231D01*
X45741D01*
X45697Y137264D01*
X45652Y137292D01*
X45619Y137309D01*
X45614Y137314D01*
X45608D01*
X45708Y137353D01*
X45752Y137370D01*
X45791Y137392D01*
X45819Y137403D01*
X45847Y137420D01*
X45858Y137425D01*
X45863Y137431D01*
X45941Y137492D01*
X46002Y137547D01*
X46024Y137575D01*
X46041Y137592D01*
X46046Y137603D01*
X46052Y137608D01*
X46102Y137686D01*
X46141Y137758D01*
X46152Y137792D01*
X46163Y137814D01*
X46169Y137830D01*
Y137836D01*
X46196Y137936D01*
X46202Y137986D01*
X46207Y138030D01*
X46213Y138069D01*
Y138097D01*
Y138119D01*
Y138125D01*
Y138191D01*
X46202Y138252D01*
X46196Y138308D01*
X46185Y138358D01*
X46174Y138397D01*
X46169Y138424D01*
X46157Y138446D01*
Y138452D01*
X46108Y138552D01*
X46080Y138591D01*
X46058Y138630D01*
X46035Y138657D01*
X46013Y138680D01*
X46002Y138691D01*
X45996Y138696D01*
X45913Y138768D01*
X45830Y138824D01*
X45797Y138840D01*
X45769Y138857D01*
X45747Y138863D01*
X45741Y138868D01*
X45625Y138913D01*
X45569Y138924D01*
X45514Y138940D01*
X45469Y138946D01*
X45436Y138952D01*
X45414Y138957D01*
X45403D01*
X45353Y138963D01*
X45308Y138968D01*
X45275Y138974D01*
X45258D01*
X45197Y138979D01*
D02*
G37*
%LPD*%
G36*
X45109Y138491D02*
X45142Y138485D01*
X45153D01*
X45197Y138480D01*
X45231Y138474D01*
X45253Y138469D01*
X45258D01*
X45314Y138452D01*
X45364Y138424D01*
X45403Y138402D01*
X45430Y138380D01*
X45458Y138352D01*
X45475Y138335D01*
X45480Y138324D01*
X45486Y138319D01*
X45508Y138280D01*
X45530Y138235D01*
X45547Y138147D01*
X45553Y138113D01*
X45558Y138086D01*
Y138064D01*
Y138058D01*
X45553Y137986D01*
X45541Y137930D01*
X45530Y137908D01*
X45525Y137891D01*
X45519Y137880D01*
Y137875D01*
X45491Y137819D01*
X45458Y137769D01*
X45430Y137742D01*
X45425Y137736D01*
X45419Y137731D01*
X45364Y137692D01*
X45314Y137664D01*
X45286Y137653D01*
X45269Y137647D01*
X45258Y137642D01*
X45253D01*
X45175Y137625D01*
X45097Y137619D01*
X45070Y137614D01*
X44703D01*
Y138496D01*
X45053D01*
X45109Y138491D01*
D02*
G37*
%LPC*%
G36*
X64561Y202689D02*
X64366D01*
X64333Y202683D01*
X64322D01*
X64283Y202678D01*
X64250Y202672D01*
X64233Y202667D01*
X64228D01*
X64205Y202655D01*
X64189Y202644D01*
X64183Y202639D01*
X64178Y202633D01*
X64156Y202606D01*
X64150Y202594D01*
Y202589D01*
X63617Y201562D01*
X63073Y202589D01*
X63051Y202622D01*
X63046Y202628D01*
X63040Y202633D01*
X63023Y202650D01*
X63007Y202661D01*
X62990Y202667D01*
X62985D01*
X62951Y202672D01*
X62918Y202678D01*
X62890Y202683D01*
X62879D01*
X62823Y202689D01*
X62613D01*
X62574Y202683D01*
X62524D01*
X62507Y202678D01*
X62490D01*
X62446Y202672D01*
X62413Y202661D01*
X62396Y202650D01*
X62391Y202644D01*
X62379Y202622D01*
X62374Y202600D01*
X62379Y202583D01*
Y202572D01*
X62396Y202528D01*
X62418Y202483D01*
X62435Y202450D01*
X62441Y202439D01*
Y202433D01*
X63129Y201157D01*
X62385Y199803D01*
X62357Y199747D01*
X62341Y199703D01*
X62330Y199681D01*
X62324Y199670D01*
Y199614D01*
X62330Y199597D01*
X62335Y199592D01*
X62357Y199581D01*
X62391Y199570D01*
X62413Y199564D01*
X62424D01*
X62485Y199558D01*
X62552Y199553D01*
X62696D01*
X62751Y199558D01*
X62796D01*
X62840Y199564D01*
X62874D01*
X62890Y199570D01*
X62896D01*
X62923Y199581D01*
X62940Y199586D01*
X62946Y199597D01*
X62951D01*
X62973Y199631D01*
X62985Y199642D01*
Y199647D01*
X63562Y200768D01*
X64144Y199647D01*
X64161Y199614D01*
X64172Y199603D01*
Y199597D01*
X64189Y199586D01*
X64205Y199575D01*
X64222Y199570D01*
X64228D01*
X64261Y199564D01*
X64294D01*
X64316Y199558D01*
X64328D01*
X64383Y199553D01*
X64600D01*
X64633Y199558D01*
X64688D01*
X64705Y199564D01*
X64716D01*
X64766Y199570D01*
X64799Y199581D01*
X64816Y199586D01*
X64821Y199592D01*
X64838Y199614D01*
X64844Y199642D01*
X64838Y199664D01*
Y199670D01*
X64827Y199714D01*
X64805Y199753D01*
X64788Y199792D01*
X64783Y199797D01*
Y199803D01*
X64044Y201168D01*
X64738Y202433D01*
X64761Y202495D01*
X64777Y202539D01*
X64788Y202561D01*
Y202572D01*
X64794Y202606D01*
X64788Y202628D01*
X64783Y202639D01*
X64777Y202644D01*
X64749Y202661D01*
X64716Y202672D01*
X64688Y202678D01*
X64677D01*
X64622Y202683D01*
X64561Y202689D01*
D02*
G37*
G36*
X60936Y202672D02*
X59993D01*
X59938Y202667D01*
X59899Y202650D01*
X59871Y202628D01*
X59860Y202622D01*
X59843Y202606D01*
X59832Y202578D01*
X59815Y202533D01*
Y202506D01*
X59810Y202489D01*
Y199653D01*
X59815Y199620D01*
X59821Y199609D01*
Y199603D01*
X59838Y199592D01*
X59854Y199581D01*
X59865Y199575D01*
X59871D01*
X59904Y199570D01*
X59938D01*
X59960Y199564D01*
X59971D01*
X60021Y199558D01*
X60071Y199553D01*
X60187D01*
X60232Y199558D01*
X60265Y199564D01*
X60276D01*
X60315Y199570D01*
X60348D01*
X60365Y199575D01*
X60370D01*
X60398Y199586D01*
X60415Y199592D01*
X60420Y199603D01*
X60426D01*
X60437Y199620D01*
X60443Y199636D01*
Y199647D01*
Y199653D01*
Y200835D01*
X60637D01*
X60709Y200830D01*
X60764Y200818D01*
X60787Y200813D01*
X60803Y200807D01*
X60809Y200802D01*
X60814D01*
X60870Y200774D01*
X60909Y200741D01*
X60936Y200718D01*
X60948Y200713D01*
Y200707D01*
X60992Y200657D01*
X61025Y200607D01*
X61036Y200585D01*
X61048Y200569D01*
X61053Y200557D01*
Y200552D01*
X61092Y200485D01*
X61120Y200419D01*
X61136Y200391D01*
X61142Y200369D01*
X61153Y200352D01*
Y200347D01*
X61436Y199658D01*
X61442Y199636D01*
X61447Y199620D01*
X61453Y199609D01*
Y199603D01*
X61469Y199592D01*
X61486Y199581D01*
X61497Y199575D01*
X61503D01*
X61536Y199570D01*
X61564Y199564D01*
X61586Y199558D01*
X61597D01*
X61647Y199553D01*
X61841D01*
X61897Y199558D01*
X61947D01*
X61991Y199564D01*
X62024Y199570D01*
X62046Y199575D01*
X62052D01*
X62074Y199586D01*
X62091Y199592D01*
X62102Y199603D01*
X62113Y199631D01*
Y199664D01*
X62108Y199686D01*
X62102Y199703D01*
X62097Y199708D01*
X62085Y199747D01*
X62069Y199797D01*
X62058Y199830D01*
X62052Y199842D01*
Y199847D01*
X61791Y200458D01*
X61752Y200535D01*
X61725Y200596D01*
X61708Y200619D01*
X61702Y200635D01*
X61691Y200646D01*
Y200652D01*
X61658Y200713D01*
X61625Y200763D01*
X61602Y200796D01*
X61591Y200802D01*
Y200807D01*
X61553Y200857D01*
X61519Y200891D01*
X61492Y200918D01*
X61486Y200924D01*
X61480D01*
X61436Y200957D01*
X61392Y200985D01*
X61358Y201002D01*
X61353Y201007D01*
X61347D01*
X61447Y201046D01*
X61492Y201063D01*
X61530Y201085D01*
X61558Y201096D01*
X61586Y201113D01*
X61597Y201118D01*
X61602Y201124D01*
X61680Y201185D01*
X61741Y201240D01*
X61764Y201268D01*
X61780Y201285D01*
X61786Y201296D01*
X61791Y201301D01*
X61841Y201379D01*
X61880Y201451D01*
X61891Y201484D01*
X61902Y201507D01*
X61908Y201523D01*
Y201529D01*
X61936Y201629D01*
X61941Y201679D01*
X61947Y201723D01*
X61952Y201762D01*
Y201790D01*
Y201812D01*
Y201817D01*
Y201884D01*
X61941Y201945D01*
X61936Y202000D01*
X61924Y202050D01*
X61913Y202089D01*
X61908Y202117D01*
X61897Y202139D01*
Y202145D01*
X61847Y202245D01*
X61819Y202284D01*
X61797Y202323D01*
X61775Y202350D01*
X61752Y202372D01*
X61741Y202383D01*
X61736Y202389D01*
X61652Y202461D01*
X61569Y202517D01*
X61536Y202533D01*
X61508Y202550D01*
X61486Y202555D01*
X61480Y202561D01*
X61364Y202606D01*
X61308Y202617D01*
X61253Y202633D01*
X61208Y202639D01*
X61175Y202644D01*
X61153Y202650D01*
X61142D01*
X61092Y202655D01*
X61048Y202661D01*
X61014Y202667D01*
X60998D01*
X60936Y202672D01*
D02*
G37*
%LPD*%
G36*
X60848Y202184D02*
X60881Y202178D01*
X60892D01*
X60936Y202173D01*
X60970Y202167D01*
X60992Y202162D01*
X60998D01*
X61053Y202145D01*
X61103Y202117D01*
X61142Y202095D01*
X61170Y202073D01*
X61197Y202045D01*
X61214Y202028D01*
X61220Y202017D01*
X61225Y202012D01*
X61247Y201973D01*
X61269Y201928D01*
X61286Y201840D01*
X61292Y201806D01*
X61297Y201779D01*
Y201756D01*
Y201751D01*
X61292Y201679D01*
X61281Y201623D01*
X61269Y201601D01*
X61264Y201584D01*
X61258Y201573D01*
Y201568D01*
X61231Y201512D01*
X61197Y201462D01*
X61170Y201434D01*
X61164Y201429D01*
X61159Y201423D01*
X61103Y201384D01*
X61053Y201357D01*
X61025Y201346D01*
X61009Y201340D01*
X60998Y201335D01*
X60992D01*
X60914Y201318D01*
X60837Y201312D01*
X60809Y201307D01*
X60443D01*
Y202189D01*
X60792D01*
X60848Y202184D01*
D02*
G37*
%LPC*%
G36*
X38243Y142235D02*
X38093D01*
X38016Y142224D01*
X37949Y142218D01*
X37888Y142207D01*
X37838Y142196D01*
X37799Y142190D01*
X37777Y142179D01*
X37766D01*
X37699Y142157D01*
X37633Y142129D01*
X37577Y142102D01*
X37527Y142074D01*
X37488Y142046D01*
X37461Y142024D01*
X37438Y142013D01*
X37433Y142007D01*
X37383Y141963D01*
X37339Y141918D01*
X37300Y141868D01*
X37272Y141830D01*
X37244Y141791D01*
X37228Y141757D01*
X37216Y141735D01*
X37211Y141730D01*
X37183Y141663D01*
X37167Y141596D01*
X37150Y141530D01*
X37144Y141469D01*
X37139Y141419D01*
X37133Y141375D01*
Y141347D01*
Y141336D01*
Y141263D01*
X37144Y141202D01*
X37150Y141147D01*
X37161Y141097D01*
X37172Y141058D01*
X37178Y141025D01*
X37189Y141008D01*
Y141003D01*
X37233Y140908D01*
X37261Y140864D01*
X37283Y140831D01*
X37300Y140797D01*
X37316Y140775D01*
X37327Y140764D01*
X37333Y140758D01*
X37405Y140692D01*
X37472Y140636D01*
X37499Y140614D01*
X37522Y140597D01*
X37538Y140592D01*
X37544Y140586D01*
X37633Y140536D01*
X37677Y140514D01*
X37710Y140492D01*
X37744Y140475D01*
X37766Y140464D01*
X37782Y140459D01*
X37788Y140453D01*
X37877Y140414D01*
X37916Y140398D01*
X37955Y140381D01*
X37982Y140364D01*
X38005Y140359D01*
X38021Y140348D01*
X38027D01*
X38110Y140309D01*
X38149Y140292D01*
X38177Y140276D01*
X38204Y140259D01*
X38221Y140248D01*
X38232Y140242D01*
X38238Y140237D01*
X38299Y140192D01*
X38349Y140148D01*
X38376Y140115D01*
X38388Y140109D01*
Y140103D01*
X38410Y140076D01*
X38421Y140042D01*
X38443Y139981D01*
Y139959D01*
X38449Y139937D01*
Y139926D01*
Y139920D01*
X38443Y139859D01*
X38432Y139804D01*
X38421Y139782D01*
X38415Y139765D01*
X38410Y139759D01*
Y139754D01*
X38382Y139704D01*
X38349Y139665D01*
X38326Y139643D01*
X38321Y139632D01*
X38315D01*
X38265Y139599D01*
X38215Y139576D01*
X38193Y139565D01*
X38177Y139560D01*
X38166Y139554D01*
X38160D01*
X38093Y139543D01*
X38027Y139537D01*
X37999Y139532D01*
X37888D01*
X37832Y139537D01*
X37777Y139543D01*
X37733Y139554D01*
X37694Y139560D01*
X37666Y139565D01*
X37649Y139571D01*
X37644D01*
X37555Y139599D01*
X37516Y139615D01*
X37483Y139626D01*
X37455Y139637D01*
X37433Y139648D01*
X37422Y139654D01*
X37416D01*
X37350Y139687D01*
X37305Y139715D01*
X37272Y139737D01*
X37266Y139743D01*
X37261D01*
X37222Y139770D01*
X37189Y139782D01*
X37172Y139787D01*
X37150D01*
X37139Y139782D01*
X37128Y139776D01*
X37122Y139770D01*
X37111Y139759D01*
X37100Y139743D01*
X37094Y139732D01*
Y139726D01*
X37089Y139698D01*
X37083Y139671D01*
X37078Y139654D01*
Y139449D01*
X37083Y139393D01*
X37089Y139360D01*
Y139354D01*
Y139349D01*
X37100Y139310D01*
X37111Y139282D01*
X37122Y139266D01*
X37128Y139260D01*
X37161Y139232D01*
X37194Y139210D01*
X37222Y139188D01*
X37228Y139182D01*
X37233D01*
X37294Y139155D01*
X37350Y139132D01*
X37372Y139121D01*
X37394Y139116D01*
X37405Y139110D01*
X37411D01*
X37494Y139088D01*
X37572Y139066D01*
X37605Y139060D01*
X37633Y139055D01*
X37649Y139049D01*
X37655D01*
X37760Y139032D01*
X37810Y139027D01*
X37855D01*
X37899Y139021D01*
X37955D01*
X38043Y139027D01*
X38121Y139032D01*
X38199Y139043D01*
X38265Y139055D01*
X38321Y139066D01*
X38360Y139071D01*
X38388Y139082D01*
X38399D01*
X38476Y139110D01*
X38543Y139138D01*
X38609Y139166D01*
X38659Y139199D01*
X38704Y139221D01*
X38737Y139243D01*
X38759Y139260D01*
X38765Y139266D01*
X38820Y139315D01*
X38870Y139365D01*
X38909Y139415D01*
X38948Y139465D01*
X38970Y139504D01*
X38993Y139543D01*
X39004Y139565D01*
X39009Y139571D01*
X39042Y139643D01*
X39065Y139721D01*
X39081Y139793D01*
X39092Y139859D01*
X39098Y139915D01*
X39103Y139965D01*
Y140070D01*
X39092Y140131D01*
X39087Y140187D01*
X39076Y140237D01*
X39065Y140276D01*
X39053Y140303D01*
X39048Y140320D01*
X39042Y140325D01*
X38998Y140420D01*
X38970Y140464D01*
X38948Y140498D01*
X38926Y140525D01*
X38909Y140548D01*
X38898Y140559D01*
X38892Y140564D01*
X38820Y140636D01*
X38748Y140692D01*
X38721Y140714D01*
X38698Y140731D01*
X38682Y140736D01*
X38676Y140742D01*
X38587Y140797D01*
X38510Y140836D01*
X38476Y140853D01*
X38454Y140864D01*
X38438Y140875D01*
X38432D01*
X38343Y140914D01*
X38299Y140930D01*
X38265Y140947D01*
X38232Y140964D01*
X38210Y140969D01*
X38193Y140980D01*
X38188D01*
X38105Y141019D01*
X38038Y141058D01*
X38016Y141069D01*
X37993Y141080D01*
X37982Y141091D01*
X37977D01*
X37916Y141136D01*
X37866Y141180D01*
X37838Y141214D01*
X37827Y141219D01*
Y141225D01*
X37794Y141286D01*
X37777Y141347D01*
Y141369D01*
X37771Y141391D01*
Y141402D01*
Y141408D01*
X37777Y141458D01*
X37782Y141497D01*
X37788Y141524D01*
X37794Y141535D01*
X37816Y141580D01*
X37844Y141613D01*
X37866Y141635D01*
X37871Y141641D01*
X37910Y141669D01*
X37955Y141696D01*
X37988Y141708D01*
X37993Y141713D01*
X37999D01*
X38060Y141730D01*
X38116Y141735D01*
X38143Y141741D01*
X38177D01*
X38271Y141735D01*
X38315Y141730D01*
X38349Y141724D01*
X38376Y141719D01*
X38404Y141713D01*
X38415Y141708D01*
X38421D01*
X38498Y141680D01*
X38560Y141657D01*
X38582Y141652D01*
X38598Y141641D01*
X38609Y141635D01*
X38615D01*
X38671Y141608D01*
X38715Y141585D01*
X38743Y141569D01*
X38754Y141563D01*
X38793Y141546D01*
X38820Y141535D01*
X38837Y141530D01*
X38859D01*
X38870Y141535D01*
X38881Y141541D01*
X38898Y141569D01*
X38904Y141580D01*
Y141585D01*
X38909Y141613D01*
X38915Y141635D01*
X38920Y141657D01*
Y141663D01*
X38926Y141702D01*
Y141741D01*
Y141774D01*
Y141780D01*
Y141785D01*
Y141824D01*
Y141857D01*
X38920Y141879D01*
Y141885D01*
Y141913D01*
X38915Y141941D01*
X38909Y141952D01*
Y141957D01*
X38898Y141990D01*
X38892Y141996D01*
Y142002D01*
X38887Y142018D01*
X38876Y142035D01*
X38870Y142041D01*
X38865Y142046D01*
X38843Y142063D01*
X38809Y142085D01*
X38776Y142096D01*
X38770Y142102D01*
X38765D01*
X38709Y142129D01*
X38654Y142151D01*
X38632Y142157D01*
X38615Y142163D01*
X38604Y142168D01*
X38598D01*
X38526Y142185D01*
X38460Y142201D01*
X38432Y142207D01*
X38410D01*
X38399Y142212D01*
X38393D01*
X38310Y142224D01*
X38243Y142235D01*
D02*
G37*
G36*
X36817Y142179D02*
X34597D01*
X34586Y142174D01*
X34580Y142168D01*
X34575Y142163D01*
X34563Y142151D01*
X34552Y142135D01*
X34547Y142124D01*
Y142118D01*
X34541Y142096D01*
X34536Y142068D01*
X34530Y142052D01*
Y142041D01*
X34525Y142002D01*
Y141868D01*
X34530Y141830D01*
Y141807D01*
Y141796D01*
X34536Y141763D01*
X34541Y141741D01*
X34547Y141724D01*
Y141719D01*
X34563Y141685D01*
X34575Y141680D01*
Y141674D01*
X34602Y141663D01*
X35396D01*
Y139160D01*
X35402Y139127D01*
X35407Y139116D01*
Y139110D01*
X35424Y139099D01*
X35440Y139088D01*
X35451Y139082D01*
X35457D01*
X35490Y139077D01*
X35524D01*
X35546Y139071D01*
X35557D01*
X35607Y139066D01*
X35657Y139060D01*
X35774D01*
X35823Y139066D01*
X35851Y139071D01*
X35862D01*
X35901Y139077D01*
X35934D01*
X35951Y139082D01*
X35957D01*
X35984Y139093D01*
X36001Y139099D01*
X36007Y139110D01*
X36012D01*
X36023Y139127D01*
X36029Y139143D01*
Y139155D01*
Y139160D01*
Y141663D01*
X36806D01*
X36834Y141669D01*
X36845Y141674D01*
X36867Y141702D01*
X36872Y141713D01*
Y141719D01*
X36878Y141746D01*
X36883Y141769D01*
X36889Y141791D01*
Y141796D01*
X36895Y141835D01*
X36900Y141874D01*
Y141968D01*
X36895Y142007D01*
X36889Y142029D01*
Y142041D01*
X36883Y142074D01*
X36878Y142096D01*
X36872Y142113D01*
Y142118D01*
X36861Y142140D01*
X36856Y142151D01*
X36850Y142163D01*
X36845D01*
X36834Y142174D01*
X36817Y142179D01*
D02*
G37*
G36*
X33198D02*
X32255D01*
X32199Y142174D01*
X32160Y142157D01*
X32133Y142135D01*
X32122Y142129D01*
X32105Y142113D01*
X32094Y142085D01*
X32077Y142041D01*
Y142013D01*
X32072Y141996D01*
Y139160D01*
X32077Y139127D01*
X32083Y139116D01*
Y139110D01*
X32099Y139099D01*
X32116Y139088D01*
X32127Y139082D01*
X32133D01*
X32166Y139077D01*
X32199D01*
X32221Y139071D01*
X32232D01*
X32283Y139066D01*
X32333Y139060D01*
X32449D01*
X32493Y139066D01*
X32527Y139071D01*
X32538D01*
X32577Y139077D01*
X32610D01*
X32627Y139082D01*
X32632D01*
X32660Y139093D01*
X32677Y139099D01*
X32682Y139110D01*
X32688D01*
X32699Y139127D01*
X32704Y139143D01*
Y139155D01*
Y139160D01*
Y140342D01*
X32899D01*
X32971Y140337D01*
X33026Y140325D01*
X33048Y140320D01*
X33065Y140314D01*
X33071Y140309D01*
X33076D01*
X33132Y140281D01*
X33171Y140248D01*
X33198Y140226D01*
X33209Y140220D01*
Y140215D01*
X33254Y140165D01*
X33287Y140115D01*
X33298Y140092D01*
X33309Y140076D01*
X33315Y140065D01*
Y140059D01*
X33354Y139992D01*
X33381Y139926D01*
X33398Y139898D01*
X33404Y139876D01*
X33415Y139859D01*
Y139854D01*
X33698Y139166D01*
X33703Y139143D01*
X33709Y139127D01*
X33714Y139116D01*
Y139110D01*
X33731Y139099D01*
X33748Y139088D01*
X33759Y139082D01*
X33764D01*
X33798Y139077D01*
X33825Y139071D01*
X33848Y139066D01*
X33859D01*
X33909Y139060D01*
X34103D01*
X34158Y139066D01*
X34208D01*
X34253Y139071D01*
X34286Y139077D01*
X34308Y139082D01*
X34314D01*
X34336Y139093D01*
X34353Y139099D01*
X34364Y139110D01*
X34375Y139138D01*
Y139171D01*
X34369Y139193D01*
X34364Y139210D01*
X34358Y139216D01*
X34347Y139254D01*
X34330Y139304D01*
X34319Y139338D01*
X34314Y139349D01*
Y139354D01*
X34053Y139965D01*
X34014Y140042D01*
X33986Y140103D01*
X33970Y140126D01*
X33964Y140142D01*
X33953Y140154D01*
Y140159D01*
X33920Y140220D01*
X33887Y140270D01*
X33864Y140303D01*
X33853Y140309D01*
Y140314D01*
X33814Y140364D01*
X33781Y140398D01*
X33753Y140425D01*
X33748Y140431D01*
X33742D01*
X33698Y140464D01*
X33653Y140492D01*
X33620Y140509D01*
X33615Y140514D01*
X33609D01*
X33709Y140553D01*
X33753Y140570D01*
X33792Y140592D01*
X33820Y140603D01*
X33848Y140620D01*
X33859Y140625D01*
X33864Y140631D01*
X33942Y140692D01*
X34003Y140747D01*
X34025Y140775D01*
X34042Y140792D01*
X34047Y140803D01*
X34053Y140808D01*
X34103Y140886D01*
X34142Y140958D01*
X34153Y140991D01*
X34164Y141014D01*
X34170Y141030D01*
Y141036D01*
X34197Y141136D01*
X34203Y141186D01*
X34208Y141230D01*
X34214Y141269D01*
Y141297D01*
Y141319D01*
Y141324D01*
Y141391D01*
X34203Y141452D01*
X34197Y141508D01*
X34186Y141558D01*
X34175Y141596D01*
X34170Y141624D01*
X34158Y141646D01*
Y141652D01*
X34108Y141752D01*
X34081Y141791D01*
X34058Y141830D01*
X34036Y141857D01*
X34014Y141879D01*
X34003Y141891D01*
X33997Y141896D01*
X33914Y141968D01*
X33831Y142024D01*
X33798Y142041D01*
X33770Y142057D01*
X33748Y142063D01*
X33742Y142068D01*
X33626Y142113D01*
X33570Y142124D01*
X33515Y142140D01*
X33470Y142146D01*
X33437Y142151D01*
X33415Y142157D01*
X33404D01*
X33354Y142163D01*
X33309Y142168D01*
X33276Y142174D01*
X33259D01*
X33198Y142179D01*
D02*
G37*
%LPD*%
G36*
X33109Y141691D02*
X33143Y141685D01*
X33154D01*
X33198Y141680D01*
X33231Y141674D01*
X33254Y141669D01*
X33259D01*
X33315Y141652D01*
X33365Y141624D01*
X33404Y141602D01*
X33431Y141580D01*
X33459Y141552D01*
X33476Y141535D01*
X33481Y141524D01*
X33487Y141519D01*
X33509Y141480D01*
X33531Y141436D01*
X33548Y141347D01*
X33553Y141313D01*
X33559Y141286D01*
Y141263D01*
Y141258D01*
X33553Y141186D01*
X33542Y141130D01*
X33531Y141108D01*
X33526Y141091D01*
X33520Y141080D01*
Y141075D01*
X33492Y141019D01*
X33459Y140969D01*
X33431Y140942D01*
X33426Y140936D01*
X33420Y140930D01*
X33365Y140892D01*
X33315Y140864D01*
X33287Y140853D01*
X33270Y140847D01*
X33259Y140842D01*
X33254D01*
X33176Y140825D01*
X33098Y140820D01*
X33071Y140814D01*
X32704D01*
Y141696D01*
X33054D01*
X33109Y141691D01*
D02*
G37*
%LPC*%
G36*
X38335Y132735D02*
X38185D01*
X38107Y132724D01*
X38041Y132718D01*
X37980Y132707D01*
X37930Y132696D01*
X37891Y132690D01*
X37869Y132679D01*
X37858D01*
X37791Y132657D01*
X37724Y132629D01*
X37669Y132601D01*
X37619Y132574D01*
X37580Y132546D01*
X37552Y132524D01*
X37530Y132513D01*
X37525Y132507D01*
X37475Y132463D01*
X37430Y132418D01*
X37391Y132368D01*
X37364Y132330D01*
X37336Y132291D01*
X37319Y132257D01*
X37308Y132235D01*
X37303Y132230D01*
X37275Y132163D01*
X37258Y132097D01*
X37242Y132030D01*
X37236Y131969D01*
X37230Y131919D01*
X37225Y131875D01*
Y131847D01*
Y131836D01*
Y131764D01*
X37236Y131702D01*
X37242Y131647D01*
X37253Y131597D01*
X37264Y131558D01*
X37269Y131525D01*
X37280Y131508D01*
Y131503D01*
X37325Y131408D01*
X37352Y131364D01*
X37375Y131331D01*
X37391Y131297D01*
X37408Y131275D01*
X37419Y131264D01*
X37425Y131258D01*
X37497Y131192D01*
X37563Y131136D01*
X37591Y131114D01*
X37613Y131097D01*
X37630Y131092D01*
X37636Y131086D01*
X37724Y131036D01*
X37769Y131014D01*
X37802Y130992D01*
X37835Y130975D01*
X37858Y130964D01*
X37874Y130959D01*
X37880Y130953D01*
X37969Y130914D01*
X38007Y130898D01*
X38046Y130881D01*
X38074Y130864D01*
X38096Y130859D01*
X38113Y130848D01*
X38118D01*
X38202Y130809D01*
X38241Y130792D01*
X38268Y130776D01*
X38296Y130759D01*
X38313Y130748D01*
X38324Y130742D01*
X38329Y130737D01*
X38390Y130692D01*
X38440Y130648D01*
X38468Y130615D01*
X38479Y130609D01*
Y130604D01*
X38501Y130576D01*
X38513Y130543D01*
X38535Y130481D01*
Y130459D01*
X38540Y130437D01*
Y130426D01*
Y130420D01*
X38535Y130359D01*
X38524Y130304D01*
X38513Y130282D01*
X38507Y130265D01*
X38501Y130259D01*
Y130254D01*
X38474Y130204D01*
X38440Y130165D01*
X38418Y130143D01*
X38413Y130132D01*
X38407D01*
X38357Y130098D01*
X38307Y130076D01*
X38285Y130065D01*
X38268Y130060D01*
X38257Y130054D01*
X38252D01*
X38185Y130043D01*
X38118Y130037D01*
X38091Y130032D01*
X37980D01*
X37924Y130037D01*
X37869Y130043D01*
X37824Y130054D01*
X37785Y130060D01*
X37758Y130065D01*
X37741Y130071D01*
X37736D01*
X37647Y130098D01*
X37608Y130115D01*
X37574Y130126D01*
X37547Y130137D01*
X37525Y130148D01*
X37514Y130154D01*
X37508D01*
X37441Y130187D01*
X37397Y130215D01*
X37364Y130237D01*
X37358Y130243D01*
X37352D01*
X37314Y130271D01*
X37280Y130282D01*
X37264Y130287D01*
X37242D01*
X37230Y130282D01*
X37219Y130276D01*
X37214Y130271D01*
X37203Y130259D01*
X37192Y130243D01*
X37186Y130232D01*
Y130226D01*
X37181Y130198D01*
X37175Y130171D01*
X37169Y130154D01*
Y129949D01*
X37175Y129893D01*
X37181Y129860D01*
Y129854D01*
Y129849D01*
X37192Y129810D01*
X37203Y129782D01*
X37214Y129765D01*
X37219Y129760D01*
X37253Y129732D01*
X37286Y129710D01*
X37314Y129688D01*
X37319Y129682D01*
X37325D01*
X37386Y129655D01*
X37441Y129632D01*
X37464Y129621D01*
X37486Y129616D01*
X37497Y129610D01*
X37502D01*
X37586Y129588D01*
X37663Y129566D01*
X37697Y129560D01*
X37724Y129555D01*
X37741Y129549D01*
X37747D01*
X37852Y129532D01*
X37902Y129527D01*
X37946D01*
X37991Y129521D01*
X38046D01*
X38135Y129527D01*
X38213Y129532D01*
X38291Y129543D01*
X38357Y129555D01*
X38413Y129566D01*
X38451Y129571D01*
X38479Y129582D01*
X38490D01*
X38568Y129610D01*
X38635Y129638D01*
X38701Y129666D01*
X38751Y129699D01*
X38796Y129721D01*
X38829Y129743D01*
X38851Y129760D01*
X38857Y129765D01*
X38912Y129815D01*
X38962Y129865D01*
X39001Y129915D01*
X39040Y129965D01*
X39062Y130004D01*
X39084Y130043D01*
X39095Y130065D01*
X39101Y130071D01*
X39134Y130143D01*
X39156Y130221D01*
X39173Y130293D01*
X39184Y130359D01*
X39190Y130415D01*
X39195Y130465D01*
Y130570D01*
X39184Y130631D01*
X39178Y130687D01*
X39167Y130737D01*
X39156Y130776D01*
X39145Y130803D01*
X39140Y130820D01*
X39134Y130825D01*
X39090Y130920D01*
X39062Y130964D01*
X39040Y130998D01*
X39018Y131025D01*
X39001Y131047D01*
X38990Y131059D01*
X38984Y131064D01*
X38912Y131136D01*
X38840Y131192D01*
X38812Y131214D01*
X38790Y131231D01*
X38773Y131236D01*
X38768Y131242D01*
X38679Y131297D01*
X38601Y131336D01*
X38568Y131353D01*
X38546Y131364D01*
X38529Y131375D01*
X38524D01*
X38435Y131414D01*
X38390Y131430D01*
X38357Y131447D01*
X38324Y131464D01*
X38302Y131469D01*
X38285Y131480D01*
X38279D01*
X38196Y131519D01*
X38129Y131558D01*
X38107Y131569D01*
X38085Y131580D01*
X38074Y131591D01*
X38069D01*
X38007Y131636D01*
X37958Y131680D01*
X37930Y131713D01*
X37919Y131719D01*
Y131725D01*
X37885Y131786D01*
X37869Y131847D01*
Y131869D01*
X37863Y131891D01*
Y131902D01*
Y131908D01*
X37869Y131958D01*
X37874Y131997D01*
X37880Y132024D01*
X37885Y132035D01*
X37907Y132080D01*
X37935Y132113D01*
X37958Y132135D01*
X37963Y132141D01*
X38002Y132169D01*
X38046Y132196D01*
X38080Y132208D01*
X38085Y132213D01*
X38091D01*
X38152Y132230D01*
X38207Y132235D01*
X38235Y132241D01*
X38268D01*
X38363Y132235D01*
X38407Y132230D01*
X38440Y132224D01*
X38468Y132219D01*
X38496Y132213D01*
X38507Y132208D01*
X38513D01*
X38590Y132180D01*
X38651Y132158D01*
X38673Y132152D01*
X38690Y132141D01*
X38701Y132135D01*
X38707D01*
X38762Y132108D01*
X38807Y132085D01*
X38834Y132069D01*
X38846Y132063D01*
X38884Y132046D01*
X38912Y132035D01*
X38929Y132030D01*
X38951D01*
X38962Y132035D01*
X38973Y132041D01*
X38990Y132069D01*
X38995Y132080D01*
Y132085D01*
X39001Y132113D01*
X39006Y132135D01*
X39012Y132158D01*
Y132163D01*
X39018Y132202D01*
Y132241D01*
Y132274D01*
Y132280D01*
Y132285D01*
Y132324D01*
Y132357D01*
X39012Y132379D01*
Y132385D01*
Y132413D01*
X39006Y132441D01*
X39001Y132452D01*
Y132457D01*
X38990Y132491D01*
X38984Y132496D01*
Y132502D01*
X38979Y132518D01*
X38968Y132535D01*
X38962Y132541D01*
X38956Y132546D01*
X38934Y132563D01*
X38901Y132585D01*
X38868Y132596D01*
X38862Y132601D01*
X38857D01*
X38801Y132629D01*
X38746Y132651D01*
X38723Y132657D01*
X38707Y132663D01*
X38696Y132668D01*
X38690D01*
X38618Y132685D01*
X38551Y132701D01*
X38524Y132707D01*
X38501D01*
X38490Y132712D01*
X38485D01*
X38401Y132724D01*
X38335Y132735D01*
D02*
G37*
G36*
X33695Y132729D02*
X33617D01*
X33501Y132724D01*
X33390Y132712D01*
X33290Y132696D01*
X33201Y132674D01*
X33129Y132651D01*
X33073Y132635D01*
X33057Y132629D01*
X33040Y132624D01*
X33035Y132618D01*
X33029D01*
X32935Y132574D01*
X32851Y132524D01*
X32774Y132474D01*
X32707Y132418D01*
X32652Y132374D01*
X32613Y132335D01*
X32591Y132313D01*
X32579Y132302D01*
X32513Y132219D01*
X32452Y132130D01*
X32402Y132046D01*
X32363Y131963D01*
X32330Y131891D01*
X32308Y131836D01*
X32296Y131813D01*
X32291Y131797D01*
X32285Y131791D01*
Y131786D01*
X32252Y131669D01*
X32224Y131547D01*
X32208Y131430D01*
X32191Y131319D01*
X32186Y131225D01*
Y131186D01*
X32180Y131153D01*
Y131086D01*
X32186Y130948D01*
X32197Y130814D01*
X32208Y130698D01*
X32230Y130598D01*
X32247Y130515D01*
X32252Y130481D01*
X32258Y130454D01*
X32263Y130431D01*
X32269Y130415D01*
X32274Y130409D01*
Y130404D01*
X32313Y130298D01*
X32357Y130204D01*
X32402Y130121D01*
X32446Y130049D01*
X32485Y129993D01*
X32519Y129949D01*
X32541Y129926D01*
X32546Y129915D01*
X32618Y129849D01*
X32691Y129788D01*
X32768Y129738D01*
X32835Y129693D01*
X32896Y129666D01*
X32940Y129638D01*
X32974Y129627D01*
X32985Y129621D01*
X33085Y129588D01*
X33184Y129566D01*
X33284Y129549D01*
X33373Y129538D01*
X33451Y129532D01*
X33506Y129527D01*
X33562D01*
X33678Y129532D01*
X33734Y129538D01*
X33778Y129543D01*
X33817D01*
X33845Y129549D01*
X33862Y129555D01*
X33867D01*
X33967Y129571D01*
X34006Y129582D01*
X34045Y129593D01*
X34073Y129604D01*
X34100Y129610D01*
X34111Y129616D01*
X34117D01*
X34195Y129643D01*
X34250Y129671D01*
X34272Y129682D01*
X34289Y129693D01*
X34295Y129699D01*
X34300D01*
X34350Y129727D01*
X34378Y129754D01*
X34394Y129765D01*
X34400Y129771D01*
X34417Y129788D01*
X34428Y129804D01*
X34439Y129810D01*
Y129815D01*
X34455Y129849D01*
X34461Y129860D01*
Y129865D01*
X34466Y129893D01*
Y129915D01*
X34472Y129932D01*
Y129938D01*
X34478Y129971D01*
Y130143D01*
X34472Y130165D01*
Y130176D01*
X34466Y130215D01*
X34461Y130237D01*
X34455Y130254D01*
Y130259D01*
X34444Y130276D01*
X34439Y130287D01*
X34433Y130298D01*
X34428D01*
X34405Y130309D01*
X34394D01*
X34367Y130304D01*
X34339Y130293D01*
X34317Y130276D01*
X34306Y130271D01*
X34261Y130243D01*
X34211Y130210D01*
X34178Y130193D01*
X34167Y130182D01*
X34161D01*
X34089Y130148D01*
X34023Y130126D01*
X33995Y130115D01*
X33973Y130104D01*
X33956Y130098D01*
X33950D01*
X33856Y130076D01*
X33806Y130071D01*
X33762Y130065D01*
X33723Y130060D01*
X33662D01*
X33595Y130065D01*
X33534Y130071D01*
X33479Y130082D01*
X33429Y130093D01*
X33384Y130104D01*
X33356Y130110D01*
X33334Y130121D01*
X33329D01*
X33273Y130148D01*
X33223Y130176D01*
X33184Y130210D01*
X33146Y130237D01*
X33112Y130265D01*
X33090Y130287D01*
X33079Y130304D01*
X33073Y130309D01*
X33040Y130365D01*
X33007Y130420D01*
X32979Y130476D01*
X32957Y130526D01*
X32940Y130570D01*
X32929Y130609D01*
X32918Y130631D01*
Y130642D01*
X32901Y130720D01*
X32885Y130803D01*
X32874Y130881D01*
X32868Y130953D01*
Y131020D01*
X32863Y131070D01*
Y131103D01*
Y131109D01*
Y131114D01*
Y131203D01*
X32868Y131292D01*
X32879Y131364D01*
X32890Y131430D01*
X32896Y131486D01*
X32907Y131530D01*
X32912Y131553D01*
Y131564D01*
X32935Y131636D01*
X32963Y131702D01*
X32985Y131758D01*
X33012Y131808D01*
X33035Y131847D01*
X33051Y131880D01*
X33062Y131897D01*
X33068Y131902D01*
X33107Y131952D01*
X33151Y131997D01*
X33190Y132030D01*
X33229Y132063D01*
X33262Y132085D01*
X33290Y132102D01*
X33307Y132113D01*
X33312Y132119D01*
X33368Y132146D01*
X33429Y132163D01*
X33484Y132180D01*
X33534Y132185D01*
X33579Y132191D01*
X33612Y132196D01*
X33706D01*
X33762Y132191D01*
X33812Y132185D01*
X33850Y132174D01*
X33884Y132169D01*
X33911Y132158D01*
X33928Y132152D01*
X33934D01*
X34017Y132119D01*
X34050Y132102D01*
X34084Y132091D01*
X34106Y132074D01*
X34122Y132069D01*
X34133Y132058D01*
X34139D01*
X34200Y132024D01*
X34244Y131991D01*
X34272Y131969D01*
X34283Y131963D01*
X34322Y131941D01*
X34350Y131930D01*
X34372Y131924D01*
X34378D01*
X34400Y131930D01*
X34411Y131936D01*
X34433Y131963D01*
X34439Y131974D01*
Y131980D01*
X34450Y132008D01*
X34455Y132035D01*
X34461Y132058D01*
Y132063D01*
X34466Y132102D01*
Y132141D01*
Y132174D01*
Y132180D01*
Y132185D01*
Y132230D01*
Y132269D01*
X34461Y132291D01*
Y132296D01*
X34455Y132330D01*
Y132357D01*
X34450Y132374D01*
Y132379D01*
X34444Y132402D01*
X34439Y132418D01*
X34433Y132430D01*
X34428Y132435D01*
X34417Y132452D01*
X34400Y132468D01*
X34389Y132479D01*
X34383Y132485D01*
X34356Y132513D01*
X34317Y132535D01*
X34283Y132557D01*
X34278Y132563D01*
X34272D01*
X34206Y132596D01*
X34145Y132624D01*
X34122Y132635D01*
X34100Y132640D01*
X34089Y132646D01*
X34084D01*
X34006Y132674D01*
X33934Y132690D01*
X33906Y132696D01*
X33884Y132701D01*
X33867Y132707D01*
X33862D01*
X33773Y132718D01*
X33695Y132729D01*
D02*
G37*
G36*
X36909Y132679D02*
X34688D01*
X34677Y132674D01*
X34672Y132668D01*
X34666Y132663D01*
X34655Y132651D01*
X34644Y132635D01*
X34639Y132624D01*
Y132618D01*
X34633Y132596D01*
X34628Y132568D01*
X34622Y132552D01*
Y132541D01*
X34616Y132502D01*
Y132368D01*
X34622Y132330D01*
Y132307D01*
Y132296D01*
X34628Y132263D01*
X34633Y132241D01*
X34639Y132224D01*
Y132219D01*
X34655Y132185D01*
X34666Y132180D01*
Y132174D01*
X34694Y132163D01*
X35488D01*
Y129660D01*
X35493Y129627D01*
X35499Y129616D01*
Y129610D01*
X35515Y129599D01*
X35532Y129588D01*
X35543Y129582D01*
X35549D01*
X35582Y129577D01*
X35615D01*
X35638Y129571D01*
X35649D01*
X35699Y129566D01*
X35749Y129560D01*
X35865D01*
X35915Y129566D01*
X35943Y129571D01*
X35954D01*
X35993Y129577D01*
X36026D01*
X36043Y129582D01*
X36048D01*
X36076Y129593D01*
X36093Y129599D01*
X36098Y129610D01*
X36104D01*
X36115Y129627D01*
X36120Y129643D01*
Y129655D01*
Y129660D01*
Y132163D01*
X36897D01*
X36925Y132169D01*
X36936Y132174D01*
X36959Y132202D01*
X36964Y132213D01*
Y132219D01*
X36970Y132246D01*
X36975Y132269D01*
X36981Y132291D01*
Y132296D01*
X36986Y132335D01*
X36992Y132374D01*
Y132468D01*
X36986Y132507D01*
X36981Y132529D01*
Y132541D01*
X36975Y132574D01*
X36970Y132596D01*
X36964Y132613D01*
Y132618D01*
X36953Y132640D01*
X36947Y132651D01*
X36942Y132663D01*
X36936D01*
X36925Y132674D01*
X36909Y132679D01*
D02*
G37*
G36*
X44699Y202672D02*
X43140D01*
X43084Y202667D01*
X43045Y202650D01*
X43018Y202628D01*
X43007Y202622D01*
X42990Y202606D01*
X42979Y202578D01*
X42962Y202533D01*
Y202506D01*
X42957Y202489D01*
Y199725D01*
X42962Y199697D01*
X42985Y199647D01*
X43001Y199625D01*
X43007Y199614D01*
X43051Y199586D01*
X43095Y199575D01*
X43129Y199570D01*
X44699D01*
X44727Y199575D01*
X44738Y199581D01*
X44749Y199592D01*
X44761Y199603D01*
X44766Y199614D01*
Y199620D01*
X44772Y199647D01*
X44777Y199670D01*
X44783Y199692D01*
Y199697D01*
X44788Y199736D01*
X44794Y199775D01*
Y199864D01*
X44788Y199897D01*
X44783Y199925D01*
Y199930D01*
X44777Y199958D01*
X44772Y199986D01*
X44766Y199997D01*
Y200003D01*
X44755Y200025D01*
X44749Y200036D01*
X44744Y200047D01*
X44738D01*
X44727Y200058D01*
X44710Y200064D01*
X43584D01*
Y200940D01*
X44522D01*
X44550Y200946D01*
X44561Y200952D01*
X44572Y200963D01*
X44583Y200974D01*
X44588Y200985D01*
Y200991D01*
X44594Y201013D01*
X44600Y201035D01*
X44605Y201057D01*
Y201063D01*
X44611Y201101D01*
X44616Y201140D01*
Y201168D01*
Y201174D01*
Y201179D01*
Y201224D01*
X44611Y201262D01*
X44605Y201285D01*
Y201290D01*
X44600Y201324D01*
X44594Y201346D01*
X44588Y201362D01*
Y201368D01*
X44577Y201384D01*
X44572Y201396D01*
X44566Y201407D01*
X44561D01*
X44550Y201418D01*
X44533Y201423D01*
X43584D01*
Y202178D01*
X44688D01*
X44716Y202184D01*
X44727Y202189D01*
X44738Y202200D01*
X44749Y202211D01*
X44755Y202223D01*
Y202228D01*
X44761Y202256D01*
X44766Y202278D01*
X44772Y202300D01*
Y202306D01*
X44777Y202345D01*
X44783Y202383D01*
Y202411D01*
Y202417D01*
Y202422D01*
Y202472D01*
X44777Y202506D01*
X44772Y202533D01*
Y202539D01*
X44766Y202567D01*
X44761Y202594D01*
X44755Y202606D01*
Y202611D01*
X44744Y202633D01*
X44738Y202644D01*
X44733Y202655D01*
X44727D01*
X44716Y202667D01*
X44699Y202672D01*
D02*
G37*
G36*
X40914D02*
X40043D01*
X39987Y202667D01*
X39949Y202650D01*
X39921Y202628D01*
X39910Y202622D01*
X39893Y202606D01*
X39882Y202578D01*
X39865Y202533D01*
Y202506D01*
X39860Y202489D01*
Y199725D01*
X39865Y199697D01*
X39888Y199647D01*
X39904Y199625D01*
X39910Y199614D01*
X39954Y199586D01*
X39999Y199575D01*
X40032Y199570D01*
X40787D01*
X40936Y199575D01*
X41070Y199586D01*
X41192Y199597D01*
X41297Y199614D01*
X41381Y199631D01*
X41414Y199636D01*
X41442Y199647D01*
X41469Y199653D01*
X41486D01*
X41491Y199658D01*
X41497D01*
X41603Y199697D01*
X41702Y199742D01*
X41791Y199786D01*
X41863Y199830D01*
X41919Y199869D01*
X41963Y199903D01*
X41991Y199930D01*
X42002Y199936D01*
X42074Y200014D01*
X42141Y200097D01*
X42196Y200180D01*
X42241Y200258D01*
X42280Y200325D01*
X42302Y200380D01*
X42313Y200402D01*
X42318Y200419D01*
X42324Y200424D01*
Y200430D01*
X42363Y200547D01*
X42391Y200674D01*
X42413Y200796D01*
X42424Y200913D01*
X42435Y201013D01*
Y201051D01*
X42441Y201090D01*
Y201163D01*
X42435Y201296D01*
X42424Y201423D01*
X42407Y201529D01*
X42391Y201629D01*
X42368Y201706D01*
X42352Y201762D01*
X42346Y201784D01*
X42341Y201801D01*
X42335Y201806D01*
Y201812D01*
X42291Y201912D01*
X42241Y202006D01*
X42191Y202084D01*
X42141Y202156D01*
X42096Y202211D01*
X42063Y202250D01*
X42041Y202273D01*
X42030Y202284D01*
X41952Y202350D01*
X41875Y202411D01*
X41791Y202461D01*
X41714Y202500D01*
X41647Y202533D01*
X41597Y202555D01*
X41575Y202561D01*
X41558Y202567D01*
X41553Y202572D01*
X41547D01*
X41436Y202606D01*
X41314Y202628D01*
X41197Y202650D01*
X41086Y202661D01*
X40992Y202667D01*
X40948D01*
X40914Y202672D01*
D02*
G37*
%LPD*%
G36*
X40909Y202173D02*
X40998Y202167D01*
X41075Y202150D01*
X41147Y202139D01*
X41197Y202123D01*
X41236Y202106D01*
X41264Y202100D01*
X41269Y202095D01*
X41336Y202062D01*
X41392Y202028D01*
X41442Y201995D01*
X41486Y201956D01*
X41519Y201928D01*
X41541Y201901D01*
X41558Y201884D01*
X41564Y201878D01*
X41603Y201823D01*
X41641Y201767D01*
X41669Y201712D01*
X41691Y201662D01*
X41708Y201618D01*
X41719Y201584D01*
X41730Y201562D01*
Y201551D01*
X41763Y201407D01*
X41775Y201340D01*
X41780Y201273D01*
X41786Y201218D01*
Y201179D01*
Y201151D01*
Y201140D01*
Y201046D01*
X41775Y200957D01*
X41769Y200874D01*
X41758Y200807D01*
X41747Y200746D01*
X41736Y200707D01*
X41730Y200680D01*
X41725Y200669D01*
X41697Y200596D01*
X41669Y200530D01*
X41641Y200474D01*
X41608Y200430D01*
X41586Y200391D01*
X41564Y200358D01*
X41547Y200341D01*
X41541Y200336D01*
X41497Y200291D01*
X41447Y200247D01*
X41397Y200213D01*
X41353Y200186D01*
X41308Y200164D01*
X41275Y200147D01*
X41253Y200141D01*
X41247Y200136D01*
X41175Y200114D01*
X41103Y200097D01*
X41031Y200086D01*
X40964Y200080D01*
X40903Y200075D01*
X40859Y200069D01*
X40487D01*
Y202178D01*
X40803D01*
X40909Y202173D01*
D02*
G37*
%LPC*%
G36*
X29460Y25528D02*
X29388D01*
X29255Y25522D01*
X29127Y25511D01*
X29016Y25489D01*
X28916Y25472D01*
X28839Y25450D01*
X28805Y25439D01*
X28778Y25428D01*
X28750Y25422D01*
X28733Y25417D01*
X28728Y25411D01*
X28722D01*
X28617Y25367D01*
X28517Y25311D01*
X28428Y25261D01*
X28356Y25206D01*
X28295Y25156D01*
X28250Y25117D01*
X28223Y25095D01*
X28212Y25084D01*
X28139Y25000D01*
X28073Y24912D01*
X28017Y24828D01*
X27967Y24745D01*
X27934Y24673D01*
X27906Y24617D01*
X27895Y24595D01*
X27890Y24579D01*
X27884Y24573D01*
Y24567D01*
X27845Y24451D01*
X27817Y24334D01*
X27801Y24218D01*
X27790Y24112D01*
X27779Y24024D01*
Y23985D01*
X27773Y23951D01*
Y23885D01*
X27779Y23752D01*
X27790Y23624D01*
X27806Y23513D01*
X27828Y23413D01*
X27845Y23330D01*
X27856Y23297D01*
X27862Y23269D01*
X27867Y23246D01*
X27873Y23230D01*
X27878Y23224D01*
Y23219D01*
X27923Y23113D01*
X27973Y23019D01*
X28023Y22936D01*
X28073Y22864D01*
X28117Y22803D01*
X28156Y22764D01*
X28178Y22736D01*
X28189Y22725D01*
X28273Y22653D01*
X28356Y22592D01*
X28439Y22542D01*
X28517Y22497D01*
X28583Y22464D01*
X28639Y22442D01*
X28661Y22431D01*
X28678Y22425D01*
X28683Y22420D01*
X28689D01*
X28800Y22386D01*
X28916Y22358D01*
X29027Y22342D01*
X29133Y22325D01*
X29222Y22320D01*
X29260D01*
X29294Y22314D01*
X29355D01*
X29449Y22320D01*
X29488D01*
X29527Y22325D01*
X29560D01*
X29582Y22331D01*
X29605D01*
X29699Y22342D01*
X29738Y22347D01*
X29777Y22353D01*
X29810Y22358D01*
X29832D01*
X29849Y22364D01*
X29854D01*
X29943Y22381D01*
X29987Y22386D01*
X30021Y22397D01*
X30048Y22403D01*
X30076Y22409D01*
X30087Y22414D01*
X30093D01*
X30171Y22442D01*
X30232Y22464D01*
X30254Y22470D01*
X30276Y22475D01*
X30282Y22481D01*
X30287D01*
X30337Y22508D01*
X30370Y22536D01*
X30387Y22558D01*
X30393Y22564D01*
X30409Y22608D01*
X30415Y22647D01*
X30420Y22680D01*
Y22686D01*
Y22692D01*
Y23929D01*
Y23963D01*
X30415Y23990D01*
X30409Y24007D01*
X30404Y24013D01*
X30393Y24040D01*
X30382Y24062D01*
X30376Y24073D01*
X30370Y24079D01*
X30354Y24096D01*
X30337Y24107D01*
X30321Y24118D01*
X30315D01*
X30293Y24129D01*
X30270Y24135D01*
X29183D01*
X29172Y24129D01*
X29166Y24123D01*
X29160Y24118D01*
X29149Y24107D01*
X29138Y24096D01*
X29133Y24085D01*
Y24079D01*
X29127Y24057D01*
X29122Y24029D01*
X29116Y24013D01*
Y24001D01*
X29111Y23968D01*
Y23929D01*
Y23901D01*
Y23896D01*
Y23890D01*
Y23846D01*
X29116Y23807D01*
Y23774D01*
X29122Y23752D01*
X29127Y23729D01*
Y23718D01*
X29133Y23713D01*
Y23707D01*
X29155Y23679D01*
X29177Y23663D01*
X29194Y23657D01*
X29793D01*
Y22936D01*
X29727Y22902D01*
X29666Y22880D01*
X29638Y22875D01*
X29616Y22869D01*
X29605Y22864D01*
X29599D01*
X29521Y22852D01*
X29455Y22847D01*
X29427Y22841D01*
X29388D01*
X29310Y22847D01*
X29233Y22852D01*
X29166Y22864D01*
X29111Y22875D01*
X29061Y22886D01*
X29027Y22897D01*
X29000Y22908D01*
X28994D01*
X28927Y22936D01*
X28872Y22969D01*
X28822Y23002D01*
X28778Y23036D01*
X28739Y23069D01*
X28711Y23091D01*
X28694Y23108D01*
X28689Y23113D01*
X28644Y23169D01*
X28605Y23224D01*
X28572Y23280D01*
X28539Y23335D01*
X28517Y23380D01*
X28500Y23419D01*
X28495Y23441D01*
X28489Y23452D01*
X28467Y23530D01*
X28450Y23613D01*
X28439Y23690D01*
X28433Y23763D01*
X28428Y23829D01*
X28422Y23879D01*
Y23912D01*
Y23918D01*
Y23924D01*
X28428Y24013D01*
X28433Y24096D01*
X28445Y24173D01*
X28456Y24240D01*
X28467Y24290D01*
X28478Y24334D01*
X28489Y24356D01*
Y24368D01*
X28517Y24440D01*
X28550Y24506D01*
X28583Y24562D01*
X28617Y24612D01*
X28644Y24651D01*
X28667Y24684D01*
X28683Y24701D01*
X28689Y24706D01*
X28739Y24756D01*
X28789Y24801D01*
X28844Y24839D01*
X28894Y24873D01*
X28933Y24895D01*
X28972Y24912D01*
X28994Y24923D01*
X29000Y24928D01*
X29072Y24956D01*
X29138Y24978D01*
X29210Y24989D01*
X29272Y25000D01*
X29327Y25006D01*
X29366Y25011D01*
X29482D01*
X29555Y25006D01*
X29616Y25000D01*
X29671Y24989D01*
X29715Y24984D01*
X29749Y24973D01*
X29771Y24967D01*
X29777D01*
X29832Y24950D01*
X29888Y24934D01*
X29932Y24917D01*
X29971Y24906D01*
X30004Y24889D01*
X30026Y24884D01*
X30043Y24873D01*
X30048D01*
X30126Y24839D01*
X30182Y24806D01*
X30204Y24795D01*
X30221Y24784D01*
X30226Y24778D01*
X30232D01*
X30276Y24756D01*
X30309Y24745D01*
X30332Y24739D01*
X30337D01*
X30365Y24745D01*
X30370Y24751D01*
X30382Y24762D01*
X30393Y24773D01*
X30398Y24784D01*
Y24789D01*
X30404Y24817D01*
X30409Y24845D01*
X30415Y24867D01*
Y24873D01*
X30420Y24912D01*
X30426Y24950D01*
Y25067D01*
X30420Y25100D01*
Y25128D01*
X30415Y25145D01*
Y25161D01*
X30409Y25172D01*
X30393Y25211D01*
X30376Y25245D01*
X30365Y25261D01*
X30359Y25267D01*
X30332Y25295D01*
X30293Y25317D01*
X30259Y25339D01*
X30254Y25344D01*
X30248D01*
X30182Y25378D01*
X30115Y25405D01*
X30087Y25411D01*
X30065Y25422D01*
X30048Y25428D01*
X30043D01*
X29949Y25455D01*
X29899Y25472D01*
X29854Y25483D01*
X29815Y25489D01*
X29782Y25494D01*
X29760Y25500D01*
X29754D01*
X29627Y25517D01*
X29566Y25522D01*
X29510D01*
X29460Y25528D01*
D02*
G37*
G36*
X33395Y25483D02*
X33290D01*
X33245Y25478D01*
X33218Y25472D01*
X33206D01*
X33168Y25467D01*
X33140Y25461D01*
X33123Y25455D01*
X33118Y25450D01*
X33095Y25439D01*
X33079Y25428D01*
X33073Y25422D01*
X33068Y25417D01*
X33057Y25389D01*
Y25383D01*
Y25378D01*
Y23918D01*
Y23796D01*
Y23741D01*
Y23685D01*
Y23641D01*
Y23607D01*
Y23585D01*
Y23574D01*
X33062Y23441D01*
Y23385D01*
Y23330D01*
X33068Y23285D01*
Y23252D01*
Y23230D01*
Y23224D01*
X33034Y23297D01*
X33007Y23352D01*
X32990Y23380D01*
X32985Y23396D01*
X32973Y23407D01*
Y23413D01*
X32940Y23485D01*
X32912Y23546D01*
X32896Y23569D01*
X32890Y23591D01*
X32879Y23602D01*
Y23607D01*
X32846Y23679D01*
X32812Y23746D01*
X32801Y23768D01*
X32790Y23790D01*
X32779Y23802D01*
Y23807D01*
X32740Y23879D01*
X32713Y23946D01*
X32696Y23974D01*
X32690Y23996D01*
X32679Y24007D01*
Y24013D01*
X32069Y25145D01*
X32035Y25211D01*
X32008Y25256D01*
X31986Y25289D01*
X31980Y25300D01*
X31947Y25344D01*
X31919Y25378D01*
X31897Y25394D01*
X31886Y25400D01*
X31852Y25428D01*
X31813Y25444D01*
X31786Y25450D01*
X31780Y25455D01*
X31775D01*
X31725Y25467D01*
X31675Y25472D01*
X31253D01*
X31220Y25461D01*
X31170Y25444D01*
X31136Y25422D01*
X31131Y25417D01*
X31125Y25411D01*
X31103Y25389D01*
X31092Y25361D01*
X31070Y25306D01*
Y25283D01*
X31064Y25261D01*
Y22453D01*
X31070Y22425D01*
X31075Y22414D01*
Y22409D01*
X31086Y22397D01*
X31097Y22386D01*
X31109Y22381D01*
X31114D01*
X31142Y22375D01*
X31170Y22370D01*
X31192Y22364D01*
X31203D01*
X31247Y22358D01*
X31292Y22353D01*
X31397D01*
X31442Y22358D01*
X31469Y22364D01*
X31480D01*
X31519Y22370D01*
X31547Y22375D01*
X31564Y22381D01*
X31569D01*
X31591Y22392D01*
X31602Y22397D01*
X31614Y22409D01*
X31625Y22425D01*
X31630Y22442D01*
Y22447D01*
Y22453D01*
Y24079D01*
Y24212D01*
Y24268D01*
Y24323D01*
X31625Y24368D01*
Y24401D01*
Y24423D01*
Y24429D01*
X31619Y24556D01*
Y24617D01*
X31614Y24667D01*
Y24712D01*
X31608Y24751D01*
Y24773D01*
Y24778D01*
X31614D01*
X31658Y24673D01*
X31675Y24623D01*
X31697Y24579D01*
X31714Y24540D01*
X31725Y24512D01*
X31730Y24490D01*
X31736Y24484D01*
X31786Y24379D01*
X31813Y24329D01*
X31830Y24290D01*
X31852Y24257D01*
X31863Y24229D01*
X31869Y24212D01*
X31874Y24207D01*
X32651Y22753D01*
X32696Y22675D01*
X32729Y22614D01*
X32740Y22592D01*
X32751Y22575D01*
X32757Y22564D01*
Y22558D01*
X32796Y22508D01*
X32824Y22470D01*
X32846Y22447D01*
X32857Y22436D01*
X32896Y22414D01*
X32929Y22392D01*
X32957Y22386D01*
X32968Y22381D01*
X33018Y22370D01*
X33068Y22364D01*
X33417D01*
X33445Y22370D01*
X33467Y22375D01*
X33473D01*
X33506Y22386D01*
X33528Y22397D01*
X33545Y22409D01*
X33551Y22414D01*
X33573Y22442D01*
X33589Y22464D01*
X33595Y22481D01*
X33601Y22486D01*
X33612Y22520D01*
X33623Y22553D01*
Y25394D01*
X33617Y25405D01*
X33612Y25417D01*
X33606D01*
X33595Y25433D01*
X33578Y25444D01*
X33567Y25450D01*
X33562D01*
X33540Y25461D01*
X33512Y25467D01*
X33490Y25472D01*
X33478D01*
X33434Y25478D01*
X33395Y25483D01*
D02*
G37*
G36*
X35354Y25472D02*
X34483D01*
X34427Y25467D01*
X34389Y25450D01*
X34361Y25428D01*
X34350Y25422D01*
X34333Y25405D01*
X34322Y25378D01*
X34305Y25333D01*
Y25306D01*
X34300Y25289D01*
Y22525D01*
X34305Y22497D01*
X34328Y22447D01*
X34344Y22425D01*
X34350Y22414D01*
X34394Y22386D01*
X34439Y22375D01*
X34472Y22370D01*
X35227D01*
X35377Y22375D01*
X35510Y22386D01*
X35632Y22397D01*
X35737Y22414D01*
X35820Y22431D01*
X35854Y22436D01*
X35882Y22447D01*
X35909Y22453D01*
X35926D01*
X35932Y22458D01*
X35937D01*
X36042Y22497D01*
X36142Y22542D01*
X36231Y22586D01*
X36303Y22630D01*
X36359Y22669D01*
X36403Y22703D01*
X36431Y22730D01*
X36442Y22736D01*
X36514Y22814D01*
X36581Y22897D01*
X36636Y22980D01*
X36681Y23058D01*
X36720Y23124D01*
X36742Y23180D01*
X36753Y23202D01*
X36759Y23219D01*
X36764Y23224D01*
Y23230D01*
X36803Y23346D01*
X36831Y23474D01*
X36853Y23596D01*
X36864Y23713D01*
X36875Y23813D01*
Y23852D01*
X36881Y23890D01*
Y23963D01*
X36875Y24096D01*
X36864Y24223D01*
X36847Y24329D01*
X36831Y24429D01*
X36808Y24506D01*
X36792Y24562D01*
X36786Y24584D01*
X36781Y24601D01*
X36775Y24606D01*
Y24612D01*
X36731Y24712D01*
X36681Y24806D01*
X36631Y24884D01*
X36581Y24956D01*
X36536Y25011D01*
X36503Y25050D01*
X36481Y25073D01*
X36470Y25084D01*
X36392Y25150D01*
X36314Y25211D01*
X36231Y25261D01*
X36154Y25300D01*
X36087Y25333D01*
X36037Y25355D01*
X36015Y25361D01*
X35998Y25367D01*
X35993Y25372D01*
X35987D01*
X35876Y25405D01*
X35754Y25428D01*
X35637Y25450D01*
X35526Y25461D01*
X35432Y25467D01*
X35388D01*
X35354Y25472D01*
D02*
G37*
%LPD*%
G36*
X35349Y24973D02*
X35438Y24967D01*
X35515Y24950D01*
X35587Y24939D01*
X35637Y24923D01*
X35676Y24906D01*
X35704Y24901D01*
X35710Y24895D01*
X35776Y24862D01*
X35832Y24828D01*
X35882Y24795D01*
X35926Y24756D01*
X35959Y24728D01*
X35982Y24701D01*
X35998Y24684D01*
X36004Y24678D01*
X36042Y24623D01*
X36081Y24567D01*
X36109Y24512D01*
X36131Y24462D01*
X36148Y24418D01*
X36159Y24384D01*
X36170Y24362D01*
Y24351D01*
X36204Y24207D01*
X36215Y24140D01*
X36220Y24073D01*
X36226Y24018D01*
Y23979D01*
Y23951D01*
Y23940D01*
Y23846D01*
X36215Y23757D01*
X36209Y23674D01*
X36198Y23607D01*
X36187Y23546D01*
X36176Y23507D01*
X36170Y23480D01*
X36165Y23469D01*
X36137Y23396D01*
X36109Y23330D01*
X36081Y23274D01*
X36048Y23230D01*
X36026Y23191D01*
X36004Y23158D01*
X35987Y23141D01*
X35982Y23136D01*
X35937Y23091D01*
X35887Y23047D01*
X35837Y23013D01*
X35793Y22986D01*
X35748Y22964D01*
X35715Y22947D01*
X35693Y22941D01*
X35687Y22936D01*
X35615Y22914D01*
X35543Y22897D01*
X35471Y22886D01*
X35404Y22880D01*
X35343Y22875D01*
X35299Y22869D01*
X34927D01*
Y24978D01*
X35243D01*
X35349Y24973D01*
D02*
G37*
%LPC*%
G36*
X68683Y58922D02*
X64443D01*
D01*
X64682D01*
X64648Y58916D01*
X64598D01*
X64582Y58911D01*
X64571D01*
X64526Y58905D01*
X64498Y58894D01*
X64476Y58883D01*
X64471Y58877D01*
X64454Y58855D01*
X64448Y58833D01*
X64443Y58816D01*
D01*
Y58805D01*
X64448Y58761D01*
X64460Y58722D01*
X64465Y58689D01*
X64471Y58678D01*
Y58672D01*
X65175Y55958D01*
X65187Y55919D01*
X65203Y55892D01*
X65209Y55869D01*
X65214Y55864D01*
X65237Y55842D01*
X65259Y55825D01*
X65275Y55819D01*
X65281Y55814D01*
X65325Y55808D01*
X65364Y55803D01*
X65403Y55797D01*
X65414D01*
X65486Y55792D01*
X65558Y55786D01*
X65725D01*
X65764Y55792D01*
X65814D01*
X65830Y55797D01*
X65847D01*
X65903Y55803D01*
X65941Y55808D01*
X65969Y55819D01*
X65975D01*
X66003Y55836D01*
X66025Y55853D01*
X66036Y55864D01*
X66041Y55869D01*
X66058Y55897D01*
X66069Y55925D01*
X66075Y55947D01*
Y55958D01*
X66546Y57928D01*
X66552D01*
X67046Y55958D01*
X67057Y55919D01*
X67068Y55892D01*
X67079Y55869D01*
Y55864D01*
X67101Y55842D01*
X67124Y55825D01*
X67146Y55819D01*
X67151Y55814D01*
X67196Y55808D01*
X67235Y55803D01*
X67273Y55797D01*
X67285D01*
X67351Y55792D01*
X67423Y55786D01*
X67584D01*
X67617Y55792D01*
X67668D01*
X67690Y55797D01*
X67701D01*
X67756Y55803D01*
X67801Y55808D01*
X67823Y55814D01*
X67834D01*
X67867Y55831D01*
X67889Y55847D01*
X67901Y55858D01*
X67906Y55864D01*
X67923Y55897D01*
X67939Y55925D01*
X67945Y55947D01*
X67950Y55958D01*
X68661Y58661D01*
X68672Y58722D01*
X68683Y58767D01*
Y58833D01*
X68672Y58861D01*
X68666Y58872D01*
X68661Y58877D01*
X68639Y58894D01*
X68611Y58905D01*
X68589Y58911D01*
X68578D01*
X68528Y58916D01*
X68478Y58922D01*
X68683D01*
D01*
D02*
G37*
G36*
X56240Y58961D02*
X53587D01*
X55202D01*
X55069Y58955D01*
X54941Y58944D01*
X54830Y58922D01*
X54730Y58905D01*
X54653Y58883D01*
X54619Y58872D01*
X54592Y58861D01*
X54564Y58855D01*
X54547Y58850D01*
X54542Y58844D01*
X54536D01*
X54431Y58800D01*
X54331Y58744D01*
X54242Y58694D01*
X54170Y58639D01*
X54109Y58589D01*
X54064Y58550D01*
X54037Y58528D01*
X54026Y58517D01*
X53953Y58434D01*
X53887Y58345D01*
X53831Y58261D01*
X53781Y58178D01*
X53748Y58106D01*
X53720Y58051D01*
X53709Y58028D01*
X53704Y58012D01*
X53698Y58006D01*
Y58001D01*
X53659Y57884D01*
X53632Y57767D01*
X53615Y57651D01*
X53604Y57546D01*
X53593Y57457D01*
Y57418D01*
X53587Y57385D01*
Y57318D01*
X53593Y57185D01*
X53604Y57057D01*
X53620Y56946D01*
X53643Y56846D01*
X53659Y56763D01*
X53670Y56730D01*
X53676Y56702D01*
X53681Y56680D01*
X53687Y56663D01*
X53693Y56657D01*
Y56652D01*
X53737Y56546D01*
X53787Y56452D01*
X53837Y56369D01*
X53887Y56297D01*
X53931Y56236D01*
X53970Y56197D01*
X53992Y56169D01*
X54003Y56158D01*
X54087Y56086D01*
X54170Y56025D01*
X54253Y55975D01*
X54331Y55930D01*
X54397Y55897D01*
X54453Y55875D01*
X54475Y55864D01*
X54492Y55858D01*
X54497Y55853D01*
X54503D01*
X54614Y55819D01*
X54730Y55792D01*
X54841Y55775D01*
X54947Y55758D01*
X55036Y55753D01*
X55075D01*
X55108Y55747D01*
X53587D01*
X56240D01*
X55169D01*
X55263Y55753D01*
X55302D01*
X55341Y55758D01*
X55374D01*
X55396Y55764D01*
X55419D01*
X55513Y55775D01*
X55552Y55781D01*
X55591Y55786D01*
X55624Y55792D01*
X55646D01*
X55663Y55797D01*
X55668D01*
X55757Y55814D01*
X55802Y55819D01*
X55835Y55831D01*
X55863Y55836D01*
X55890Y55842D01*
X55901Y55847D01*
X55907D01*
X55985Y55875D01*
X56046Y55897D01*
X56068Y55903D01*
X56090Y55908D01*
X56096Y55914D01*
X56101D01*
X56151Y55941D01*
X56185Y55969D01*
X56201Y55992D01*
X56207Y55997D01*
X56223Y56041D01*
X56229Y56080D01*
X56235Y56114D01*
Y56119D01*
Y56125D01*
Y57362D01*
Y57396D01*
X56229Y57423D01*
X56223Y57440D01*
X56218Y57446D01*
X56207Y57473D01*
X56196Y57495D01*
X56190Y57507D01*
X56185Y57512D01*
X56168Y57529D01*
X56151Y57540D01*
X56135Y57551D01*
X56129D01*
X56107Y57562D01*
X56085Y57568D01*
X54997D01*
X54986Y57562D01*
X54980Y57557D01*
X54975Y57551D01*
X54963Y57540D01*
X54952Y57529D01*
X54947Y57518D01*
Y57512D01*
X54941Y57490D01*
X54936Y57462D01*
X54930Y57446D01*
Y57434D01*
X54925Y57401D01*
Y57362D01*
Y57335D01*
Y57329D01*
Y57323D01*
Y57279D01*
X54930Y57240D01*
Y57207D01*
X54936Y57185D01*
X54941Y57162D01*
Y57151D01*
X54947Y57146D01*
Y57140D01*
X54969Y57113D01*
X54991Y57096D01*
X55008Y57090D01*
X55607D01*
Y56369D01*
X55541Y56336D01*
X55480Y56313D01*
X55452Y56308D01*
X55430Y56302D01*
X55419Y56297D01*
X55413D01*
X55335Y56286D01*
X55269Y56280D01*
X55241Y56274D01*
X55202D01*
X55124Y56280D01*
X55047Y56286D01*
X54980Y56297D01*
X54925Y56308D01*
X54875Y56319D01*
X54841Y56330D01*
X54814Y56341D01*
X54808D01*
X54742Y56369D01*
X54686Y56402D01*
X54636Y56436D01*
X54592Y56469D01*
X54553Y56502D01*
X54525Y56524D01*
X54508Y56541D01*
X54503Y56546D01*
X54458Y56602D01*
X54420Y56657D01*
X54386Y56713D01*
X54353Y56769D01*
X54331Y56813D01*
X54314Y56852D01*
X54309Y56874D01*
X54303Y56885D01*
X54281Y56963D01*
X54264Y57046D01*
X54253Y57124D01*
X54248Y57196D01*
X54242Y57262D01*
X54237Y57312D01*
Y57346D01*
Y57351D01*
Y57357D01*
X54242Y57446D01*
X54248Y57529D01*
X54259Y57607D01*
X54270Y57673D01*
X54281Y57723D01*
X54292Y57767D01*
X54303Y57790D01*
Y57801D01*
X54331Y57873D01*
X54364Y57939D01*
X54397Y57995D01*
X54431Y58045D01*
X54458Y58084D01*
X54481Y58117D01*
X54497Y58134D01*
X54503Y58139D01*
X54553Y58189D01*
X54603Y58234D01*
X54658Y58272D01*
X54708Y58306D01*
X54747Y58328D01*
X54786Y58345D01*
X54808Y58356D01*
X54814Y58361D01*
X54886Y58389D01*
X54952Y58411D01*
X55025Y58422D01*
X55086Y58434D01*
X55141Y58439D01*
X55180Y58445D01*
X55296D01*
X55369Y58439D01*
X55430Y58434D01*
X55485Y58422D01*
X55530Y58417D01*
X55563Y58406D01*
X55585Y58400D01*
X55591D01*
X55646Y58384D01*
X55702Y58367D01*
X55746Y58350D01*
X55785Y58339D01*
X55818Y58323D01*
X55840Y58317D01*
X55857Y58306D01*
X55863D01*
X55940Y58272D01*
X55996Y58239D01*
X56018Y58228D01*
X56035Y58217D01*
X56040Y58211D01*
X56046D01*
X56090Y58189D01*
X56124Y58178D01*
X56146Y58173D01*
X56151D01*
X56179Y58178D01*
X56185Y58184D01*
X56196Y58195D01*
X56207Y58206D01*
X56212Y58217D01*
Y58223D01*
X56218Y58250D01*
X56223Y58278D01*
X56229Y58300D01*
Y58306D01*
X56235Y58345D01*
X56240Y58384D01*
Y58511D01*
Y58500D01*
X56235Y58533D01*
Y58561D01*
X56229Y58578D01*
Y58594D01*
X56223Y58605D01*
X56207Y58644D01*
X56190Y58678D01*
X56179Y58694D01*
X56173Y58700D01*
X56146Y58728D01*
X56107Y58750D01*
X56073Y58772D01*
X56068Y58778D01*
X56062D01*
X55996Y58811D01*
X55929Y58839D01*
X55901Y58844D01*
X55879Y58855D01*
X55863Y58861D01*
X55857D01*
X55763Y58889D01*
X55713Y58905D01*
X55668Y58916D01*
X55629Y58922D01*
X55596Y58927D01*
X55574Y58933D01*
X55568D01*
X55441Y58950D01*
X55380Y58955D01*
X55324D01*
X55274Y58961D01*
X56240D01*
D02*
G37*
G36*
X74266Y58922D02*
X72795D01*
X73817D01*
X73784Y58916D01*
X73773D01*
X73734Y58911D01*
X73700Y58905D01*
X73678Y58900D01*
X73673Y58894D01*
X73650Y58883D01*
X73634Y58872D01*
X73628Y58861D01*
X73623Y58855D01*
X73611Y58839D01*
X73600Y58816D01*
X73595Y58800D01*
Y58794D01*
X73251Y58039D01*
X73217Y57956D01*
X73190Y57884D01*
X73173Y57851D01*
X73168Y57828D01*
X73156Y57812D01*
Y57806D01*
X73123Y57718D01*
X73106Y57673D01*
X73090Y57634D01*
X73079Y57601D01*
X73068Y57573D01*
X73062Y57557D01*
Y57551D01*
X73057D01*
X73018Y57651D01*
X73001Y57695D01*
X72990Y57734D01*
X72973Y57767D01*
X72968Y57790D01*
X72957Y57806D01*
Y57812D01*
X72918Y57901D01*
X72901Y57939D01*
X72890Y57973D01*
X72873Y58006D01*
X72868Y58028D01*
X72857Y58039D01*
Y58045D01*
X72518Y58805D01*
X72501Y58828D01*
X72490Y58844D01*
X72485Y58855D01*
X72479Y58861D01*
X72463Y58877D01*
X72446Y58889D01*
X72429Y58894D01*
X72424D01*
X72391Y58905D01*
X72357Y58911D01*
X72329Y58916D01*
X72318D01*
X72263Y58922D01*
X72052D01*
X72013Y58916D01*
X71963D01*
X71947Y58911D01*
X71930D01*
X71886Y58905D01*
X71852Y58894D01*
X71836Y58883D01*
X71830Y58877D01*
X71819Y58855D01*
Y58805D01*
X71836Y58767D01*
X71852Y58722D01*
X71874Y58689D01*
X71880Y58678D01*
Y58672D01*
X72729Y56979D01*
Y55886D01*
X72735Y55853D01*
X72740Y55842D01*
Y55836D01*
X72757Y55825D01*
X72773Y55814D01*
X72785Y55808D01*
X72790D01*
X72823Y55803D01*
X72857D01*
X72879Y55797D01*
X72890D01*
X72940Y55792D01*
X72990Y55786D01*
X73106D01*
X73156Y55792D01*
X73184Y55797D01*
X73195D01*
X73234Y55803D01*
X73267D01*
X73284Y55808D01*
X73290D01*
X73317Y55819D01*
X73334Y55825D01*
X73340Y55836D01*
X73345D01*
X73356Y55853D01*
X73362Y55869D01*
Y55880D01*
Y55886D01*
Y56979D01*
X74211Y58672D01*
X74233Y58728D01*
X74250Y58772D01*
X74261Y58794D01*
Y58805D01*
X74266Y58839D01*
X74261Y58861D01*
X74255Y58872D01*
X74250Y58877D01*
X74228Y58894D01*
X74194Y58905D01*
X74161Y58911D01*
X74150D01*
X74083Y58916D01*
X74017Y58922D01*
X74266D01*
D02*
G37*
G36*
X56595Y56852D02*
Y56846D01*
D01*
Y56852D01*
D02*
G37*
G36*
X68850Y56408D02*
D01*
D01*
D01*
D02*
G37*
G36*
X61918Y58905D02*
X59542D01*
X59614D01*
X59603Y58900D01*
X59598Y58894D01*
X59592Y58889D01*
X59581Y58877D01*
X59570Y58861D01*
X59565Y58850D01*
Y58844D01*
X59559Y58822D01*
X59553Y58794D01*
X59548Y58778D01*
Y58767D01*
X59542Y58728D01*
Y58594D01*
X59548Y58556D01*
Y58533D01*
Y58522D01*
X59553Y58489D01*
X59559Y58467D01*
X59565Y58450D01*
Y58445D01*
X59581Y58411D01*
X59592Y58406D01*
Y58400D01*
X59620Y58389D01*
X60414D01*
Y55886D01*
X60419Y55853D01*
X60425Y55842D01*
Y55836D01*
X60441Y55825D01*
X60458Y55814D01*
X60469Y55808D01*
X60475D01*
X60508Y55803D01*
X60541D01*
X60563Y55797D01*
X60575D01*
X60624Y55792D01*
X60675Y55786D01*
X60791D01*
X60841Y55792D01*
X60869Y55797D01*
X60880D01*
X60919Y55803D01*
X60952D01*
X60969Y55808D01*
X60974D01*
X61002Y55819D01*
X61019Y55825D01*
X61024Y55836D01*
X61030D01*
X61041Y55853D01*
X61046Y55869D01*
Y55880D01*
Y55886D01*
Y58389D01*
X61823D01*
X61851Y58395D01*
X61862Y58400D01*
X61884Y58428D01*
X61890Y58439D01*
Y58445D01*
X61896Y58472D01*
X61901Y58495D01*
X61907Y58517D01*
Y58522D01*
X61912Y58561D01*
X61918Y58600D01*
Y56164D01*
Y58694D01*
X61912Y58733D01*
X61907Y58755D01*
Y58767D01*
X61901Y58800D01*
X61896Y58822D01*
X61890Y58839D01*
Y58844D01*
X61879Y58866D01*
X61873Y58877D01*
X61868Y58889D01*
X61862D01*
X61851Y58900D01*
X61834Y58905D01*
X61918D01*
D01*
D02*
G37*
G36*
X64121D02*
X62284D01*
D01*
X62467D01*
X62412Y58900D01*
X62373Y58883D01*
X62345Y58861D01*
X62334Y58855D01*
X62317Y58839D01*
X62306Y58811D01*
X62290Y58767D01*
Y58739D01*
X62284Y58722D01*
Y55958D01*
X62290Y55930D01*
X62312Y55880D01*
X62328Y55858D01*
X62334Y55847D01*
X62378Y55819D01*
X62423Y55808D01*
X62456Y55803D01*
X64027D01*
X64054Y55808D01*
X64065Y55814D01*
X64077Y55825D01*
X64088Y55836D01*
X64093Y55847D01*
Y55853D01*
X64099Y55880D01*
X64104Y55903D01*
X64110Y55925D01*
Y55930D01*
X64116Y55969D01*
X64121Y56008D01*
Y55819D01*
Y56097D01*
X64116Y56130D01*
X64110Y56158D01*
Y56164D01*
X64104Y56191D01*
X64099Y56219D01*
X64093Y56230D01*
Y56236D01*
X64082Y56258D01*
X64077Y56269D01*
X64071Y56280D01*
X64065D01*
X64054Y56291D01*
X64038Y56297D01*
X62911D01*
Y57174D01*
X63849D01*
X63877Y57179D01*
X63888Y57185D01*
X63899Y57196D01*
X63910Y57207D01*
X63916Y57218D01*
Y57224D01*
X63921Y57246D01*
X63927Y57268D01*
X63932Y57290D01*
Y57296D01*
X63938Y57335D01*
X63943Y57373D01*
Y57401D01*
Y57407D01*
Y57412D01*
Y57457D01*
X63938Y57495D01*
X63932Y57518D01*
Y57523D01*
X63927Y57557D01*
X63921Y57579D01*
X63916Y57595D01*
Y57601D01*
X63905Y57618D01*
X63899Y57629D01*
X63894Y57640D01*
X63888D01*
X63877Y57651D01*
X63860Y57657D01*
X62911D01*
Y58411D01*
X64016D01*
X64043Y58417D01*
X64054Y58422D01*
X64065Y58434D01*
X64077Y58445D01*
X64082Y58456D01*
Y58461D01*
X64088Y58489D01*
X64093Y58511D01*
X64099Y58533D01*
Y58539D01*
X64104Y58578D01*
X64110Y58617D01*
Y58644D01*
Y58650D01*
Y58656D01*
Y58705D01*
X64104Y58739D01*
X64099Y58767D01*
Y58772D01*
X64093Y58800D01*
X64088Y58828D01*
X64082Y58839D01*
Y58844D01*
X64071Y58866D01*
X64065Y58877D01*
X64060Y58889D01*
X64054D01*
X64043Y58900D01*
X64027Y58905D01*
X64121D01*
D01*
D02*
G37*
G36*
X71708Y58922D02*
X68850D01*
X70109D01*
X70087Y58916D01*
X70054D01*
X70004Y58911D01*
X69971Y58905D01*
X69943Y58900D01*
X69937Y58894D01*
X69910Y58883D01*
X69893Y58872D01*
X69882Y58861D01*
X69876Y58855D01*
X69865Y58839D01*
X69854Y58816D01*
X69849Y58800D01*
Y58794D01*
X68888Y56036D01*
X68872Y55980D01*
X68861Y55936D01*
X68850Y55914D01*
Y55869D01*
X68855Y55847D01*
X68861Y55831D01*
X68866Y55825D01*
X68894Y55814D01*
X68922Y55803D01*
X68944Y55797D01*
X68955D01*
X69011Y55792D01*
X69066Y55786D01*
X69199D01*
X69249Y55792D01*
X69294D01*
X69338Y55797D01*
X69371Y55803D01*
X69388Y55808D01*
X69393D01*
X69416Y55819D01*
X69432Y55831D01*
X69438Y55836D01*
X69444Y55842D01*
X69466Y55880D01*
X69471Y55892D01*
Y55897D01*
X69665Y56513D01*
X70837D01*
X71042Y55880D01*
X71058Y55847D01*
X71064Y55836D01*
Y55831D01*
X71081Y55819D01*
X71097Y55808D01*
X71109Y55803D01*
X71114D01*
X71147Y55797D01*
X71181D01*
X71208Y55792D01*
X71219D01*
X71280Y55786D01*
X71491D01*
X71547Y55792D01*
X71569D01*
X71586Y55797D01*
X71597D01*
X71641Y55803D01*
X71669Y55814D01*
X71686Y55819D01*
X71691Y55825D01*
X71708Y55847D01*
Y55897D01*
X71702Y55941D01*
X71691Y55986D01*
X71680Y56019D01*
X71675Y56030D01*
Y56036D01*
X70714Y58789D01*
X70703Y58816D01*
X70687Y58839D01*
X70681Y58850D01*
X70676Y58855D01*
X70659Y58872D01*
X70637Y58883D01*
X70614Y58894D01*
X70609D01*
X70570Y58905D01*
X70531Y58911D01*
X70498Y58916D01*
X70448D01*
X70409Y58922D01*
X71708D01*
D02*
G37*
G36*
X59453D02*
X56595D01*
X57855D01*
X57833Y58916D01*
X57800D01*
X57750Y58911D01*
X57716Y58905D01*
X57689Y58900D01*
X57683Y58894D01*
X57655Y58883D01*
X57639Y58872D01*
X57627Y58861D01*
X57622Y58855D01*
X57611Y58839D01*
X57600Y58816D01*
X57594Y58800D01*
Y58794D01*
X56634Y56036D01*
X56617Y55980D01*
X56606Y55936D01*
X56595Y55914D01*
Y55869D01*
X56601Y55847D01*
X56606Y55831D01*
X56612Y55825D01*
X56640Y55814D01*
X56667Y55803D01*
X56690Y55797D01*
X56701D01*
X56756Y55792D01*
X56812Y55786D01*
X56945D01*
X56995Y55792D01*
X57039D01*
X57084Y55797D01*
X57117Y55803D01*
X57134Y55808D01*
X57139D01*
X57161Y55819D01*
X57178Y55831D01*
X57183Y55836D01*
X57189Y55842D01*
X57211Y55880D01*
X57217Y55892D01*
Y55897D01*
X57411Y56513D01*
X58582D01*
X58788Y55880D01*
X58804Y55847D01*
X58810Y55836D01*
Y55831D01*
X58826Y55819D01*
X58843Y55808D01*
X58854Y55803D01*
X58860D01*
X58893Y55797D01*
X58926D01*
X58954Y55792D01*
X58965D01*
X59026Y55786D01*
X59237D01*
X59293Y55792D01*
X59315D01*
X59331Y55797D01*
X59342D01*
X59387Y55803D01*
X59415Y55814D01*
X59431Y55819D01*
X59437Y55825D01*
X59453Y55847D01*
Y55897D01*
X59448Y55941D01*
X59437Y55986D01*
X59426Y56019D01*
X59420Y56030D01*
Y56036D01*
X58460Y58789D01*
X58449Y58816D01*
X58432Y58839D01*
X58427Y58850D01*
X58421Y58855D01*
X58404Y58872D01*
X58382Y58883D01*
X58360Y58894D01*
X58355D01*
X58316Y58905D01*
X58277Y58911D01*
X58244Y58916D01*
X58194D01*
X58155Y58922D01*
X59453D01*
D02*
G37*
G36*
X72324Y55127D02*
X72174D01*
X72096Y55116D01*
X72030Y55110D01*
X71969Y55099D01*
X71919Y55088D01*
X71880Y55082D01*
X71858Y55071D01*
X71847D01*
X71780Y55049D01*
X71713Y55021D01*
X71658Y54994D01*
X71608Y54966D01*
X71569Y54938D01*
X71541Y54916D01*
X71519Y54905D01*
X71514Y54899D01*
X71464Y54855D01*
X71419Y54810D01*
X71380Y54760D01*
X71353Y54722D01*
X71325Y54683D01*
X71308Y54650D01*
X71297Y54627D01*
X71292Y54622D01*
X71264Y54555D01*
X71247Y54488D01*
X71231Y54422D01*
X71225Y54361D01*
X71219Y54311D01*
X71214Y54267D01*
Y54239D01*
Y54228D01*
Y54155D01*
X71225Y54094D01*
X71231Y54039D01*
X71242Y53989D01*
X71253Y53950D01*
X71258Y53917D01*
X71269Y53900D01*
Y53895D01*
X71314Y53800D01*
X71342Y53756D01*
X71364Y53723D01*
X71380Y53689D01*
X71397Y53667D01*
X71408Y53656D01*
X71414Y53650D01*
X71486Y53584D01*
X71552Y53528D01*
X71580Y53506D01*
X71602Y53490D01*
X71619Y53484D01*
X71625Y53478D01*
X71713Y53429D01*
X71758Y53406D01*
X71791Y53384D01*
X71824Y53367D01*
X71847Y53356D01*
X71863Y53351D01*
X71869Y53345D01*
X71958Y53306D01*
X71996Y53290D01*
X72035Y53273D01*
X72063Y53256D01*
X72085Y53251D01*
X72102Y53240D01*
X72107D01*
X72191Y53201D01*
X72230Y53184D01*
X72257Y53168D01*
X72285Y53151D01*
X72302Y53140D01*
X72313Y53134D01*
X72318Y53129D01*
X72379Y53084D01*
X72429Y53040D01*
X72457Y53007D01*
X72468Y53001D01*
Y52996D01*
X72490Y52968D01*
X72501Y52934D01*
X72524Y52873D01*
Y52851D01*
X72529Y52829D01*
Y52818D01*
Y52812D01*
X72524Y52751D01*
X72513Y52696D01*
X72501Y52674D01*
X72496Y52657D01*
X72490Y52652D01*
Y52646D01*
X72463Y52596D01*
X72429Y52557D01*
X72407Y52535D01*
X72402Y52524D01*
X72396D01*
X72346Y52491D01*
X72296Y52468D01*
X72274Y52457D01*
X72257Y52452D01*
X72246Y52446D01*
X72241D01*
X72174Y52435D01*
X72107Y52429D01*
X72080Y52424D01*
X71969D01*
X71913Y52429D01*
X71858Y52435D01*
X71813Y52446D01*
X71775Y52452D01*
X71747Y52457D01*
X71730Y52463D01*
X71724D01*
X71636Y52491D01*
X71597Y52507D01*
X71564Y52518D01*
X71536Y52529D01*
X71514Y52540D01*
X71503Y52546D01*
X71497D01*
X71430Y52579D01*
X71386Y52607D01*
X71353Y52629D01*
X71347Y52635D01*
X71342D01*
X71303Y52663D01*
X71269Y52674D01*
X71253Y52679D01*
X71231D01*
X71219Y52674D01*
X71208Y52668D01*
X71203Y52663D01*
X71192Y52652D01*
X71181Y52635D01*
X71175Y52624D01*
Y52618D01*
X71170Y52590D01*
X71164Y52563D01*
X71158Y52546D01*
Y52563D01*
Y51913D01*
Y52341D01*
X71164Y52285D01*
X71170Y52252D01*
Y52246D01*
Y52241D01*
X71181Y52202D01*
X71192Y52174D01*
X71203Y52157D01*
X71208Y52152D01*
X71242Y52124D01*
X71275Y52102D01*
X71303Y52080D01*
X71308Y52074D01*
X71314D01*
X71375Y52047D01*
X71430Y52024D01*
X71453Y52013D01*
X71475Y52008D01*
X71486Y52002D01*
X71491D01*
X71575Y51980D01*
X71652Y51958D01*
X71686Y51952D01*
X71713Y51947D01*
X71730Y51941D01*
X71736D01*
X71841Y51924D01*
X71891Y51919D01*
X71935D01*
X71980Y51913D01*
X71158D01*
X73184D01*
Y52962D01*
X73173Y53023D01*
X73168Y53079D01*
X73156Y53129D01*
X73145Y53168D01*
X73134Y53195D01*
X73129Y53212D01*
X73123Y53218D01*
X73079Y53312D01*
X73051Y53356D01*
X73029Y53390D01*
X73007Y53417D01*
X72990Y53440D01*
X72979Y53451D01*
X72973Y53456D01*
X72901Y53528D01*
X72829Y53584D01*
X72801Y53606D01*
X72779Y53623D01*
X72762Y53628D01*
X72757Y53634D01*
X72668Y53689D01*
X72590Y53728D01*
X72557Y53745D01*
X72535Y53756D01*
X72518Y53767D01*
X72513D01*
X72424Y53806D01*
X72379Y53822D01*
X72346Y53839D01*
X72313Y53856D01*
X72291Y53861D01*
X72274Y53873D01*
X72268D01*
X72185Y53911D01*
X72119Y53950D01*
X72096Y53961D01*
X72074Y53972D01*
X72063Y53983D01*
X72057D01*
X71996Y54028D01*
X71947Y54072D01*
X71919Y54106D01*
X71908Y54111D01*
Y54117D01*
X71874Y54178D01*
X71858Y54239D01*
Y54261D01*
X71852Y54283D01*
Y54294D01*
Y54300D01*
X71858Y54350D01*
X71863Y54389D01*
X71869Y54416D01*
X71874Y54427D01*
X71897Y54472D01*
X71924Y54505D01*
X71947Y54527D01*
X71952Y54533D01*
X71991Y54561D01*
X72035Y54588D01*
X72069Y54599D01*
X72074Y54605D01*
X72080D01*
X72141Y54622D01*
X72196Y54627D01*
X72224Y54633D01*
X72257D01*
X72352Y54627D01*
X72396Y54622D01*
X72429Y54616D01*
X72457Y54611D01*
X72485Y54605D01*
X72496Y54599D01*
X72501D01*
X72579Y54572D01*
X72640Y54550D01*
X72663Y54544D01*
X72679Y54533D01*
X72690Y54527D01*
X72696D01*
X72751Y54500D01*
X72796Y54477D01*
X72823Y54461D01*
X72834Y54455D01*
X72873Y54439D01*
X72901Y54427D01*
X72918Y54422D01*
X72940D01*
X72951Y54427D01*
X72962Y54433D01*
X72979Y54461D01*
X72984Y54472D01*
Y54477D01*
X72990Y54505D01*
X72996Y54527D01*
X73001Y54550D01*
Y54555D01*
X73007Y54594D01*
Y54633D01*
Y54666D01*
Y54672D01*
Y54677D01*
Y54716D01*
Y54749D01*
X73001Y54772D01*
Y54777D01*
Y54805D01*
X72996Y54833D01*
X72990Y54844D01*
Y54849D01*
X72979Y54883D01*
X72973Y54888D01*
Y54894D01*
X72968Y54910D01*
X72957Y54927D01*
X72951Y54932D01*
X72945Y54938D01*
X72923Y54955D01*
X72890Y54977D01*
X72857Y54988D01*
X72851Y54994D01*
X72846D01*
X72790Y55021D01*
X72735Y55044D01*
X72712Y55049D01*
X72696Y55055D01*
X72685Y55060D01*
X72679D01*
X72607Y55077D01*
X72540Y55093D01*
X72513Y55099D01*
X72490D01*
X72479Y55105D01*
X72474D01*
X72391Y55116D01*
X72324Y55127D01*
D02*
G37*
G36*
X61757D02*
X58821D01*
D01*
X60314D01*
X60180Y55121D01*
X60058Y55110D01*
X59947Y55088D01*
X59853Y55071D01*
X59775Y55049D01*
X59714Y55027D01*
X59692Y55021D01*
X59676Y55016D01*
X59670Y55010D01*
X59664D01*
X59565Y54966D01*
X59476Y54916D01*
X59392Y54860D01*
X59326Y54810D01*
X59270Y54760D01*
X59232Y54722D01*
X59209Y54699D01*
X59198Y54688D01*
X59132Y54605D01*
X59076Y54516D01*
X59026Y54433D01*
X58987Y54350D01*
X58954Y54278D01*
X58932Y54222D01*
X58926Y54200D01*
X58921Y54183D01*
X58915Y54178D01*
Y54172D01*
X58882Y54056D01*
X58860Y53939D01*
X58843Y53828D01*
X58832Y53723D01*
X58826Y53634D01*
Y53595D01*
X58821Y53562D01*
Y53501D01*
X58826Y53351D01*
X58837Y53218D01*
X58849Y53096D01*
X58865Y52990D01*
X58882Y52907D01*
X58887Y52873D01*
X58899Y52846D01*
X58904Y52824D01*
Y52801D01*
X58910Y52796D01*
Y52790D01*
X58948Y52685D01*
X58987Y52585D01*
X59032Y52502D01*
X59076Y52429D01*
X59115Y52374D01*
X59148Y52330D01*
X59170Y52307D01*
X59176Y52296D01*
X59248Y52230D01*
X59326Y52169D01*
X59398Y52119D01*
X59470Y52080D01*
X59531Y52047D01*
X59581Y52024D01*
X59614Y52013D01*
X59620Y52008D01*
X59626D01*
X59731Y51974D01*
X59842Y51952D01*
X59947Y51935D01*
X60042Y51924D01*
X60131Y51919D01*
X60164D01*
X60197Y51913D01*
X60258D01*
X60391Y51919D01*
X60514Y51930D01*
X60624Y51947D01*
X60719Y51969D01*
X60797Y51991D01*
X60852Y52008D01*
X60874Y52013D01*
X60891Y52019D01*
X60896Y52024D01*
X60902D01*
X61002Y52069D01*
X61096Y52124D01*
X61174Y52174D01*
X61246Y52230D01*
X61302Y52274D01*
X61340Y52313D01*
X61363Y52335D01*
X61374Y52346D01*
X61440Y52429D01*
X61496Y52518D01*
X61546Y52601D01*
X61585Y52685D01*
X61618Y52757D01*
X61640Y52812D01*
X61646Y52835D01*
X61651Y52851D01*
X61657Y52857D01*
Y52862D01*
X61690Y52979D01*
X61712Y53101D01*
X61734Y53212D01*
X61746Y53323D01*
X61751Y53412D01*
Y53451D01*
X61757Y53484D01*
Y52047D01*
Y53484D01*
Y53551D01*
X61751Y53695D01*
X61740Y53834D01*
X61729Y53950D01*
X61712Y54050D01*
X61690Y54133D01*
X61685Y54172D01*
X61679Y54200D01*
X61673Y54222D01*
X61668Y54239D01*
X61662Y54244D01*
Y54250D01*
X61624Y54355D01*
X61579Y54455D01*
X61535Y54539D01*
X61490Y54611D01*
X61446Y54666D01*
X61413Y54711D01*
X61390Y54733D01*
X61385Y54744D01*
X61313Y54810D01*
X61241Y54871D01*
X61163Y54921D01*
X61096Y54960D01*
X61030Y54994D01*
X60980Y55016D01*
X60946Y55027D01*
X60941Y55032D01*
X60935D01*
X60830Y55066D01*
X60724Y55088D01*
X60624Y55105D01*
X60525Y55116D01*
X60441Y55121D01*
X60403Y55127D01*
X61757D01*
D02*
G37*
G36*
X70676Y55088D02*
X68139D01*
D01*
X68389D01*
X68345Y55082D01*
X68311Y55077D01*
X68300D01*
X68261Y55071D01*
X68228Y55066D01*
X68206Y55060D01*
X68200D01*
X68178Y55049D01*
X68161Y55038D01*
X68156Y55032D01*
X68150Y55027D01*
X68139Y54999D01*
Y53096D01*
X68145Y52984D01*
X68150Y52890D01*
X68167Y52801D01*
X68184Y52724D01*
X68195Y52663D01*
X68211Y52613D01*
X68217Y52585D01*
X68222Y52574D01*
X68256Y52496D01*
X68295Y52424D01*
X68339Y52357D01*
X68378Y52307D01*
X68411Y52263D01*
X68439Y52230D01*
X68461Y52207D01*
X68467Y52202D01*
X68528Y52152D01*
X68594Y52108D01*
X68661Y52069D01*
X68722Y52041D01*
X68778Y52019D01*
X68822Y51997D01*
X68850Y51991D01*
X68861Y51986D01*
X68950Y51963D01*
X69044Y51947D01*
X69133Y51930D01*
X69210Y51924D01*
X69283Y51919D01*
X69338Y51913D01*
X69388D01*
X69499Y51919D01*
X69604Y51924D01*
X69699Y51935D01*
X69782Y51952D01*
X69843Y51969D01*
X69893Y51980D01*
X69926Y51986D01*
X69937Y51991D01*
X70021Y52024D01*
X70098Y52063D01*
X70170Y52102D01*
X70226Y52141D01*
X70276Y52174D01*
X70309Y52202D01*
X70332Y52224D01*
X70337Y52230D01*
X70398Y52291D01*
X70448Y52352D01*
X70487Y52418D01*
X70526Y52479D01*
X70553Y52529D01*
X70570Y52568D01*
X70581Y52596D01*
X70587Y52607D01*
X70614Y52696D01*
X70637Y52785D01*
X70653Y52868D01*
X70665Y52951D01*
X70670Y53018D01*
X70676Y53073D01*
Y52035D01*
Y54999D01*
X70670Y55016D01*
X70665Y55021D01*
X70659Y55027D01*
X70642Y55044D01*
X70626Y55055D01*
X70609Y55060D01*
X70603D01*
X70576Y55066D01*
X70542Y55071D01*
X70520Y55077D01*
X70509D01*
X70465Y55082D01*
X70415Y55088D01*
X70676D01*
D01*
D02*
G37*
G36*
X58288Y55071D02*
X54669D01*
X54864D01*
X54830Y55060D01*
X54775Y55038D01*
X54758Y55027D01*
X54742Y55016D01*
X54736Y55010D01*
X54730Y55005D01*
X54708Y54977D01*
X54697Y54949D01*
X54675Y54888D01*
Y54860D01*
X54669Y54838D01*
Y51952D01*
Y52052D01*
X54675Y52019D01*
X54681Y52008D01*
Y52002D01*
X54692Y51991D01*
X54708Y51980D01*
X54719Y51974D01*
X54725D01*
X54758Y51969D01*
X54786D01*
X54808Y51963D01*
X54819D01*
X54869Y51958D01*
X54914Y51952D01*
X55025D01*
X55069Y51958D01*
X55097Y51963D01*
X55108D01*
X55147Y51969D01*
X55180D01*
X55197Y51974D01*
X55202D01*
X55224Y51986D01*
X55241Y51991D01*
X55252Y52002D01*
X55263Y52019D01*
X55269Y52035D01*
Y52047D01*
Y52052D01*
Y54577D01*
X56140Y52052D01*
X56146Y52035D01*
X56157Y52019D01*
X56162Y52008D01*
X56168Y52002D01*
X56207Y51980D01*
X56218Y51974D01*
X56223D01*
X56257Y51969D01*
X56284D01*
X56307Y51963D01*
X56318D01*
X56368Y51958D01*
X56412Y51952D01*
X56801D01*
X56517D01*
X56556Y51958D01*
X56595D01*
X56634Y51963D01*
X56667D01*
X56684Y51969D01*
X56690D01*
X56717Y51980D01*
X56734Y51986D01*
X56745Y51997D01*
X56751D01*
X56778Y52035D01*
X56784Y52047D01*
Y52052D01*
X57683Y54577D01*
X57689D01*
Y52052D01*
X57694Y52019D01*
X57700Y52008D01*
Y52002D01*
X57716Y51991D01*
X57733Y51980D01*
X57744Y51974D01*
X57750D01*
X57777Y51969D01*
X57805D01*
X57827Y51963D01*
X57838D01*
X57888Y51958D01*
X57933Y51952D01*
X58044D01*
X58088Y51958D01*
X58116Y51963D01*
X58127D01*
X58166Y51969D01*
X58199D01*
X58216Y51974D01*
X58221D01*
X58244Y51986D01*
X58260Y51991D01*
X58271Y52002D01*
X58282Y52019D01*
X58288Y52035D01*
Y51974D01*
Y54860D01*
X58282Y54894D01*
X58277Y54916D01*
X58271Y54921D01*
X58255Y54955D01*
X58238Y54977D01*
X58227Y54994D01*
X58221Y54999D01*
X58199Y55021D01*
X58171Y55038D01*
X58155Y55044D01*
X58144Y55049D01*
X58110Y55060D01*
X58072Y55071D01*
X58288D01*
D02*
G37*
G36*
X67634D02*
X65570D01*
X65514Y55066D01*
X65475Y55049D01*
X65447Y55027D01*
X65436Y55021D01*
X65420Y55005D01*
X65409Y54977D01*
X65392Y54932D01*
Y54905D01*
X65386Y54888D01*
Y52124D01*
X65392Y52096D01*
X65414Y52047D01*
X65431Y52024D01*
X65436Y52013D01*
X65481Y51986D01*
X65525Y51974D01*
X65558Y51969D01*
X67634D01*
X66463D01*
X66530Y51974D01*
X66585D01*
X66635Y51980D01*
X66680Y51986D01*
X66707D01*
X66729Y51991D01*
X66735D01*
X66846Y52013D01*
X66896Y52024D01*
X66940Y52035D01*
X66974Y52041D01*
X67001Y52052D01*
X67018Y52058D01*
X67024D01*
X67118Y52096D01*
X67162Y52119D01*
X67196Y52135D01*
X67224Y52152D01*
X67251Y52169D01*
X67262Y52174D01*
X67268Y52180D01*
X67346Y52241D01*
X67407Y52296D01*
X67429Y52324D01*
X67445Y52341D01*
X67451Y52352D01*
X67457Y52357D01*
X67512Y52441D01*
X67551Y52518D01*
X67568Y52546D01*
X67579Y52574D01*
X67584Y52590D01*
Y52596D01*
X67612Y52701D01*
X67623Y52751D01*
X67629Y52796D01*
X67634Y52835D01*
Y52940D01*
Y52896D01*
X67629Y53007D01*
X67617Y53057D01*
X67612Y53101D01*
X67601Y53134D01*
X67590Y53162D01*
X67584Y53179D01*
Y53184D01*
X67540Y53273D01*
X67518Y53312D01*
X67501Y53345D01*
X67479Y53367D01*
X67468Y53390D01*
X67457Y53401D01*
X67451Y53406D01*
X67384Y53467D01*
X67323Y53517D01*
X67296Y53534D01*
X67273Y53545D01*
X67262Y53556D01*
X67257D01*
X67173Y53595D01*
X67096Y53623D01*
X67062Y53634D01*
X67040Y53639D01*
X67024Y53645D01*
X67018D01*
X67090Y53678D01*
X67146Y53711D01*
X67168Y53723D01*
X67185Y53734D01*
X67190Y53745D01*
X67196D01*
X67251Y53795D01*
X67296Y53839D01*
X67323Y53873D01*
X67335Y53878D01*
Y53884D01*
X67373Y53950D01*
X67396Y54006D01*
X67407Y54033D01*
X67412Y54050D01*
X67418Y54061D01*
Y54067D01*
X67440Y54144D01*
X67445Y54211D01*
X67451Y54239D01*
Y54261D01*
Y54278D01*
Y54283D01*
X67445Y54355D01*
X67440Y54422D01*
X67429Y54477D01*
X67418Y54533D01*
X67401Y54572D01*
X67390Y54599D01*
X67384Y54622D01*
X67379Y54627D01*
X67351Y54683D01*
X67318Y54727D01*
X67279Y54772D01*
X67246Y54805D01*
X67218Y54833D01*
X67190Y54855D01*
X67173Y54866D01*
X67168Y54871D01*
X67118Y54905D01*
X67062Y54938D01*
X67007Y54960D01*
X66952Y54983D01*
X66907Y54999D01*
X66868Y55010D01*
X66846Y55021D01*
X66835D01*
X66757Y55038D01*
X66674Y55049D01*
X66596Y55060D01*
X66519Y55066D01*
X66452Y55071D01*
X67634D01*
D02*
G37*
G36*
X64870D02*
X62290D01*
D01*
X62473D01*
X62417Y55066D01*
X62378Y55049D01*
X62351Y55027D01*
X62340Y55021D01*
X62323Y55005D01*
X62312Y54977D01*
X62295Y54932D01*
Y54905D01*
X62290Y54888D01*
Y52124D01*
X62295Y52096D01*
X62317Y52047D01*
X62334Y52024D01*
X62340Y52013D01*
X62384Y51986D01*
X62428Y51974D01*
X62462Y51969D01*
X63216D01*
X63366Y51974D01*
X63499Y51986D01*
X63621Y51997D01*
X63727Y52013D01*
X63810Y52030D01*
X63844Y52035D01*
X63871Y52047D01*
X63899Y52052D01*
X63916D01*
X63921Y52058D01*
X63927D01*
X64032Y52096D01*
X64132Y52141D01*
X64221Y52185D01*
X64293Y52230D01*
X64349Y52268D01*
X64393Y52302D01*
X64421Y52330D01*
X64432Y52335D01*
X64504Y52413D01*
X64571Y52496D01*
X64626Y52579D01*
X64670Y52657D01*
X64709Y52724D01*
X64732Y52779D01*
X64743Y52801D01*
X64748Y52818D01*
X64754Y52824D01*
Y52829D01*
X64793Y52946D01*
X64820Y53073D01*
X64842Y53195D01*
X64854Y53312D01*
X64865Y53412D01*
Y53451D01*
X64870Y53490D01*
Y53578D01*
Y53562D01*
X64865Y53695D01*
X64854Y53822D01*
X64837Y53928D01*
X64820Y54028D01*
X64798Y54106D01*
X64781Y54161D01*
X64776Y54183D01*
X64770Y54200D01*
X64765Y54206D01*
Y54211D01*
X64720Y54311D01*
X64670Y54405D01*
X64621Y54483D01*
X64571Y54555D01*
X64526Y54611D01*
X64493Y54650D01*
X64471Y54672D01*
X64460Y54683D01*
X64382Y54749D01*
X64304Y54810D01*
X64221Y54860D01*
X64143Y54899D01*
X64077Y54932D01*
X64027Y54955D01*
X64004Y54960D01*
X63988Y54966D01*
X63982Y54971D01*
X63977D01*
X63866Y55005D01*
X63744Y55027D01*
X63627Y55049D01*
X63516Y55060D01*
X63422Y55066D01*
X63377D01*
X63344Y55071D01*
X64870D01*
D01*
D02*
G37*
G36*
X57933Y51952D02*
X56801D01*
X57933D01*
D01*
D02*
G37*
%LPD*%
G36*
X68283Y58916D02*
X68267D01*
X68250Y58911D01*
X68239D01*
X68200Y58905D01*
X68167Y58900D01*
X68150Y58894D01*
X68145Y58889D01*
X68123Y58877D01*
X68106Y58866D01*
X68100Y58855D01*
X68095Y58850D01*
X68084Y58805D01*
X68078Y58789D01*
Y58783D01*
X67534Y56408D01*
X67529D01*
X66940Y58772D01*
X66935Y58805D01*
X66929Y58828D01*
X66924Y58844D01*
X66918Y58850D01*
X66902Y58866D01*
X66885Y58883D01*
X66868Y58889D01*
X66863Y58894D01*
X66829Y58905D01*
X66796Y58911D01*
X66768Y58916D01*
X66757D01*
X66702Y58922D01*
X68339D01*
X68283Y58916D01*
D02*
G37*
G36*
X66447D02*
X66424D01*
X66408Y58911D01*
X66396D01*
X66358Y58905D01*
X66324Y58900D01*
X66302Y58894D01*
X66297Y58889D01*
X66274Y58877D01*
X66258Y58861D01*
X66252Y58850D01*
X66247Y58844D01*
X66236Y58822D01*
X66224Y58800D01*
X66219Y58778D01*
Y58772D01*
X65653Y56408D01*
X65109Y58789D01*
X65103Y58816D01*
X65098Y58839D01*
X65092Y58850D01*
X65087Y58855D01*
X65076Y58872D01*
X65059Y58883D01*
X65048Y58894D01*
X65042D01*
X65015Y58905D01*
X64981Y58911D01*
X64954Y58916D01*
X64942D01*
X64887Y58922D01*
X66502D01*
X66447Y58916D01*
D02*
G37*
G36*
X70687Y56996D02*
X69810D01*
X70248Y58317D01*
X70687Y56996D01*
D02*
G37*
G36*
X58432D02*
X57555D01*
X57994Y58317D01*
X58432Y56996D01*
D02*
G37*
G36*
X73184Y51913D02*
X72035D01*
X72124Y51919D01*
X72202Y51924D01*
X72280Y51935D01*
X72346Y51947D01*
X72402Y51958D01*
X72440Y51963D01*
X72468Y51974D01*
X72479D01*
X72557Y52002D01*
X72624Y52030D01*
X72690Y52058D01*
X72740Y52091D01*
X72785Y52113D01*
X72818Y52135D01*
X72840Y52152D01*
X72846Y52157D01*
X72901Y52207D01*
X72951Y52257D01*
X72990Y52307D01*
X73029Y52357D01*
X73051Y52396D01*
X73073Y52435D01*
X73084Y52457D01*
X73090Y52463D01*
X73123Y52535D01*
X73145Y52613D01*
X73162Y52685D01*
X73173Y52751D01*
X73179Y52807D01*
X73184Y52857D01*
Y51913D01*
D02*
G37*
G36*
X60380Y54605D02*
X60453Y54599D01*
X60519Y54583D01*
X60569Y54572D01*
X60613Y54555D01*
X60647Y54539D01*
X60669Y54533D01*
X60675Y54527D01*
X60730Y54494D01*
X60780Y54461D01*
X60824Y54422D01*
X60858Y54389D01*
X60885Y54355D01*
X60908Y54328D01*
X60919Y54311D01*
X60924Y54305D01*
X60957Y54250D01*
X60985Y54194D01*
X61007Y54139D01*
X61024Y54083D01*
X61041Y54039D01*
X61052Y54000D01*
X61057Y53978D01*
Y53967D01*
X61080Y53811D01*
X61085Y53739D01*
X61091Y53673D01*
X61096Y53612D01*
Y53562D01*
Y53534D01*
Y53528D01*
Y53523D01*
Y53440D01*
X61091Y53362D01*
X61085Y53290D01*
X61074Y53229D01*
X61068Y53179D01*
X61057Y53134D01*
X61052Y53112D01*
Y53101D01*
X61035Y53029D01*
X61013Y52962D01*
X60991Y52901D01*
X60969Y52851D01*
X60952Y52807D01*
X60935Y52779D01*
X60924Y52757D01*
X60919Y52751D01*
X60880Y52701D01*
X60841Y52657D01*
X60797Y52613D01*
X60758Y52579D01*
X60719Y52552D01*
X60691Y52535D01*
X60669Y52524D01*
X60663Y52518D01*
X60602Y52491D01*
X60536Y52468D01*
X60475Y52457D01*
X60414Y52446D01*
X60358Y52441D01*
X60314Y52435D01*
X60275D01*
X60192Y52441D01*
X60119Y52446D01*
X60053Y52457D01*
X59997Y52474D01*
X59953Y52485D01*
X59920Y52496D01*
X59898Y52502D01*
X59892Y52507D01*
X59836Y52540D01*
X59786Y52574D01*
X59742Y52613D01*
X59709Y52646D01*
X59681Y52679D01*
X59659Y52707D01*
X59648Y52724D01*
X59642Y52729D01*
X59587Y52846D01*
X59565Y52901D01*
X59548Y52957D01*
X59531Y53001D01*
X59520Y53040D01*
X59514Y53062D01*
Y53073D01*
X59498Y53229D01*
X59487Y53306D01*
Y53378D01*
X59481Y53440D01*
Y53484D01*
Y53517D01*
Y53528D01*
Y53612D01*
X59487Y53689D01*
X59492Y53756D01*
X59503Y53822D01*
X59509Y53873D01*
X59514Y53911D01*
X59520Y53934D01*
Y53945D01*
X59537Y54017D01*
X59559Y54078D01*
X59581Y54139D01*
X59603Y54189D01*
X59620Y54228D01*
X59637Y54255D01*
X59648Y54278D01*
X59653Y54283D01*
X59692Y54339D01*
X59731Y54383D01*
X59775Y54427D01*
X59814Y54461D01*
X59847Y54488D01*
X59875Y54505D01*
X59898Y54516D01*
X59903Y54522D01*
X59964Y54550D01*
X60031Y54572D01*
X60097Y54588D01*
X60158Y54599D01*
X60214Y54605D01*
X60258Y54611D01*
X60297D01*
X60380Y54605D01*
D02*
G37*
G36*
X70259Y55082D02*
X70226Y55077D01*
X70215D01*
X70176Y55071D01*
X70143Y55066D01*
X70121Y55060D01*
X70115D01*
X70093Y55049D01*
X70076Y55038D01*
X70071Y55032D01*
X70065Y55027D01*
X70054Y54999D01*
Y54988D01*
Y54983D01*
Y53112D01*
X70048Y53001D01*
X70043Y52951D01*
X70032Y52907D01*
X70026Y52873D01*
X70015Y52846D01*
X70010Y52829D01*
Y52824D01*
X69971Y52735D01*
X69949Y52701D01*
X69932Y52668D01*
X69910Y52640D01*
X69899Y52624D01*
X69888Y52613D01*
X69882Y52607D01*
X69815Y52552D01*
X69749Y52507D01*
X69721Y52491D01*
X69704Y52485D01*
X69688Y52474D01*
X69682D01*
X69593Y52446D01*
X69504Y52435D01*
X69471Y52429D01*
X69416D01*
X69310Y52435D01*
X69266Y52446D01*
X69227Y52452D01*
X69194Y52463D01*
X69172Y52468D01*
X69155Y52474D01*
X69149D01*
X69066Y52513D01*
X69005Y52557D01*
X68977Y52579D01*
X68961Y52590D01*
X68950Y52601D01*
X68944Y52607D01*
X68888Y52679D01*
X68850Y52751D01*
X68833Y52785D01*
X68827Y52807D01*
X68816Y52824D01*
Y52829D01*
X68789Y52934D01*
X68783Y52990D01*
X68778Y53040D01*
X68772Y53084D01*
Y53118D01*
Y53145D01*
Y53151D01*
Y54983D01*
Y54999D01*
X68766Y55016D01*
X68761Y55021D01*
X68755Y55027D01*
X68739Y55044D01*
X68722Y55055D01*
X68705Y55060D01*
X68700D01*
X68672Y55066D01*
X68639Y55071D01*
X68616Y55077D01*
X68605D01*
X68555Y55082D01*
X68506Y55088D01*
X70304D01*
X70259Y55082D01*
D02*
G37*
G36*
X57550Y55066D02*
X57500Y55060D01*
X57467Y55055D01*
X57461Y55049D01*
X57455D01*
X57411Y55032D01*
X57372Y55010D01*
X57350Y54994D01*
X57339Y54988D01*
X57306Y54949D01*
X57278Y54916D01*
X57256Y54883D01*
X57250Y54877D01*
Y54871D01*
X57222Y54816D01*
X57200Y54766D01*
X57195Y54738D01*
X57189Y54722D01*
X57183Y54711D01*
Y54705D01*
X56490Y52862D01*
X56479D01*
X55807Y54711D01*
X55785Y54777D01*
X55763Y54833D01*
X55746Y54866D01*
X55740Y54871D01*
Y54877D01*
X55707Y54927D01*
X55674Y54960D01*
X55652Y54983D01*
X55646Y54988D01*
X55641D01*
X55596Y55016D01*
X55552Y55038D01*
X55519Y55044D01*
X55513Y55049D01*
X55507D01*
X55446Y55060D01*
X55385Y55071D01*
X57611D01*
X57550Y55066D01*
D02*
G37*
G36*
X66419Y54594D02*
X66458Y54588D01*
X66491D01*
X66519Y54583D01*
X66535Y54577D01*
X66546Y54572D01*
X66552D01*
X66613Y54550D01*
X66657Y54522D01*
X66685Y54505D01*
X66696Y54494D01*
X66735Y54455D01*
X66763Y54416D01*
X66780Y54383D01*
X66785Y54378D01*
Y54372D01*
X66807Y54317D01*
X66813Y54261D01*
X66818Y54239D01*
Y54222D01*
Y54211D01*
Y54206D01*
X66813Y54144D01*
X66807Y54094D01*
X66802Y54072D01*
X66796Y54056D01*
X66791Y54050D01*
Y54045D01*
X66768Y53989D01*
X66741Y53950D01*
X66718Y53922D01*
X66707Y53911D01*
X66663Y53873D01*
X66619Y53845D01*
X66585Y53828D01*
X66574Y53822D01*
X66569D01*
X66535Y53811D01*
X66502Y53806D01*
X66430Y53800D01*
X66402Y53795D01*
X66003D01*
Y54599D01*
X66374D01*
X66419Y54594D01*
D02*
G37*
G36*
X66491Y53329D02*
X66535Y53323D01*
X66580Y53317D01*
X66607Y53312D01*
X66635Y53306D01*
X66646Y53301D01*
X66652D01*
X66729Y53273D01*
X66785Y53245D01*
X66807Y53234D01*
X66824Y53223D01*
X66829Y53212D01*
X66835D01*
X66879Y53168D01*
X66913Y53118D01*
X66935Y53084D01*
X66940Y53073D01*
Y53068D01*
X66963Y53001D01*
X66974Y52940D01*
X66979Y52912D01*
Y52890D01*
Y52879D01*
Y52873D01*
X66974Y52801D01*
X66963Y52746D01*
X66952Y52724D01*
X66946Y52707D01*
X66940Y52696D01*
Y52690D01*
X66907Y52635D01*
X66874Y52596D01*
X66846Y52568D01*
X66840Y52557D01*
X66835D01*
X66785Y52518D01*
X66735Y52496D01*
X66713Y52485D01*
X66696Y52479D01*
X66685Y52474D01*
X66680D01*
X66607Y52463D01*
X66535Y52457D01*
X66502Y52452D01*
X66003D01*
Y53334D01*
X66435D01*
X66491Y53329D01*
D02*
G37*
G36*
X63339Y54572D02*
X63427Y54566D01*
X63505Y54550D01*
X63577Y54539D01*
X63627Y54522D01*
X63666Y54505D01*
X63694Y54500D01*
X63699Y54494D01*
X63766Y54461D01*
X63821Y54427D01*
X63871Y54394D01*
X63916Y54355D01*
X63949Y54328D01*
X63971Y54300D01*
X63988Y54283D01*
X63993Y54278D01*
X64032Y54222D01*
X64071Y54167D01*
X64099Y54111D01*
X64121Y54061D01*
X64138Y54017D01*
X64149Y53983D01*
X64160Y53961D01*
Y53950D01*
X64193Y53806D01*
X64204Y53739D01*
X64210Y53673D01*
X64215Y53617D01*
Y53578D01*
Y53551D01*
Y53540D01*
Y53445D01*
X64204Y53356D01*
X64199Y53273D01*
X64188Y53206D01*
X64176Y53145D01*
X64165Y53107D01*
X64160Y53079D01*
X64154Y53068D01*
X64127Y52996D01*
X64099Y52929D01*
X64071Y52873D01*
X64038Y52829D01*
X64016Y52790D01*
X63993Y52757D01*
X63977Y52740D01*
X63971Y52735D01*
X63927Y52690D01*
X63877Y52646D01*
X63827Y52613D01*
X63783Y52585D01*
X63738Y52563D01*
X63705Y52546D01*
X63683Y52540D01*
X63677Y52535D01*
X63605Y52513D01*
X63533Y52496D01*
X63461Y52485D01*
X63394Y52479D01*
X63333Y52474D01*
X63288Y52468D01*
X62917D01*
Y54577D01*
X63233D01*
X63339Y54572D01*
D02*
G37*
%LPC*%
G36*
X42457Y25489D02*
X42158D01*
X42135Y25483D01*
X42102D01*
X42052Y25478D01*
X42019Y25472D01*
X41991Y25467D01*
X41985Y25461D01*
X41958Y25450D01*
X41941Y25439D01*
X41930Y25428D01*
X41924Y25422D01*
X41913Y25405D01*
X41902Y25383D01*
X41897Y25367D01*
Y25361D01*
X40936Y22603D01*
X40920Y22547D01*
X40909Y22503D01*
X40898Y22481D01*
Y22436D01*
X40903Y22414D01*
X40909Y22397D01*
X40914Y22392D01*
X40942Y22381D01*
X40970Y22370D01*
X40992Y22364D01*
X41003D01*
X41059Y22358D01*
X41114Y22353D01*
X41247D01*
X41297Y22358D01*
X41342D01*
X41386Y22364D01*
X41419Y22370D01*
X41436Y22375D01*
X41442D01*
X41464Y22386D01*
X41480Y22397D01*
X41486Y22403D01*
X41491Y22409D01*
X41514Y22447D01*
X41519Y22458D01*
Y22464D01*
X41714Y23080D01*
X42885D01*
X43090Y22447D01*
X43107Y22414D01*
X43112Y22403D01*
Y22397D01*
X43129Y22386D01*
X43145Y22375D01*
X43156Y22370D01*
X43162D01*
X43195Y22364D01*
X43229D01*
X43256Y22358D01*
X43268D01*
X43329Y22353D01*
X43540D01*
X43595Y22358D01*
X43617D01*
X43634Y22364D01*
X43645D01*
X43689Y22370D01*
X43717Y22381D01*
X43734Y22386D01*
X43739Y22392D01*
X43756Y22414D01*
Y22464D01*
X43750Y22508D01*
X43739Y22553D01*
X43728Y22586D01*
X43723Y22597D01*
Y22603D01*
X42763Y25355D01*
X42751Y25383D01*
X42735Y25405D01*
X42729Y25417D01*
X42724Y25422D01*
X42707Y25439D01*
X42685Y25450D01*
X42663Y25461D01*
X42657D01*
X42618Y25472D01*
X42579Y25478D01*
X42546Y25483D01*
X42496D01*
X42457Y25489D01*
D02*
G37*
%LPD*%
G36*
X42735Y23563D02*
X41858D01*
X42296Y24884D01*
X42735Y23563D01*
D02*
G37*
%LPC*%
G36*
X34550Y202689D02*
X34355D01*
X34322Y202683D01*
X34311D01*
X34272Y202678D01*
X34239Y202672D01*
X34222Y202667D01*
X34217D01*
X34194Y202655D01*
X34178Y202644D01*
X34172Y202639D01*
X34167Y202633D01*
X34144Y202606D01*
X34139Y202594D01*
Y202589D01*
X33606Y201562D01*
X33062Y202589D01*
X33040Y202622D01*
X33034Y202628D01*
X33029Y202633D01*
X33012Y202650D01*
X32996Y202661D01*
X32979Y202667D01*
X32973D01*
X32940Y202672D01*
X32907Y202678D01*
X32879Y202683D01*
X32868D01*
X32812Y202689D01*
X32601D01*
X32563Y202683D01*
X32513D01*
X32496Y202678D01*
X32479D01*
X32435Y202672D01*
X32402Y202661D01*
X32385Y202650D01*
X32379Y202644D01*
X32368Y202622D01*
X32363Y202600D01*
X32368Y202583D01*
Y202572D01*
X32385Y202528D01*
X32407Y202483D01*
X32424Y202450D01*
X32430Y202439D01*
Y202433D01*
X33118Y201157D01*
X32374Y199803D01*
X32346Y199747D01*
X32330Y199703D01*
X32318Y199681D01*
X32313Y199670D01*
Y199614D01*
X32318Y199597D01*
X32324Y199592D01*
X32346Y199581D01*
X32379Y199570D01*
X32402Y199564D01*
X32413D01*
X32474Y199558D01*
X32541Y199553D01*
X32685D01*
X32740Y199558D01*
X32785D01*
X32829Y199564D01*
X32862D01*
X32879Y199570D01*
X32885D01*
X32912Y199581D01*
X32929Y199586D01*
X32934Y199597D01*
X32940D01*
X32962Y199631D01*
X32973Y199642D01*
Y199647D01*
X33551Y200768D01*
X34133Y199647D01*
X34150Y199614D01*
X34161Y199603D01*
Y199597D01*
X34178Y199586D01*
X34194Y199575D01*
X34211Y199570D01*
X34217D01*
X34250Y199564D01*
X34283D01*
X34305Y199558D01*
X34317D01*
X34372Y199553D01*
X34588D01*
X34622Y199558D01*
X34677D01*
X34694Y199564D01*
X34705D01*
X34755Y199570D01*
X34788Y199581D01*
X34805Y199586D01*
X34810Y199592D01*
X34827Y199614D01*
X34833Y199642D01*
X34827Y199664D01*
Y199670D01*
X34816Y199714D01*
X34794Y199753D01*
X34777Y199792D01*
X34772Y199797D01*
Y199803D01*
X34033Y201168D01*
X34727Y202433D01*
X34749Y202495D01*
X34766Y202539D01*
X34777Y202561D01*
Y202572D01*
X34783Y202606D01*
X34777Y202628D01*
X34772Y202639D01*
X34766Y202644D01*
X34738Y202661D01*
X34705Y202672D01*
X34677Y202678D01*
X34666D01*
X34611Y202683D01*
X34550Y202689D01*
D02*
G37*
G36*
X32113Y202672D02*
X29893D01*
X29882Y202667D01*
X29877Y202661D01*
X29871Y202655D01*
X29860Y202644D01*
X29849Y202628D01*
X29843Y202617D01*
Y202611D01*
X29838Y202589D01*
X29832Y202561D01*
X29827Y202544D01*
Y202533D01*
X29821Y202495D01*
Y202361D01*
X29827Y202323D01*
Y202300D01*
Y202289D01*
X29832Y202256D01*
X29838Y202234D01*
X29843Y202217D01*
Y202211D01*
X29860Y202178D01*
X29871Y202173D01*
Y202167D01*
X29899Y202156D01*
X30692D01*
Y199653D01*
X30698Y199620D01*
X30703Y199609D01*
Y199603D01*
X30720Y199592D01*
X30737Y199581D01*
X30748Y199575D01*
X30753D01*
X30787Y199570D01*
X30820D01*
X30842Y199564D01*
X30853D01*
X30903Y199558D01*
X30953Y199553D01*
X31070D01*
X31120Y199558D01*
X31147Y199564D01*
X31159D01*
X31197Y199570D01*
X31231D01*
X31247Y199575D01*
X31253D01*
X31281Y199586D01*
X31297Y199592D01*
X31303Y199603D01*
X31308D01*
X31319Y199620D01*
X31325Y199636D01*
Y199647D01*
Y199653D01*
Y202156D01*
X32102D01*
X32130Y202162D01*
X32141Y202167D01*
X32163Y202195D01*
X32169Y202206D01*
Y202211D01*
X32174Y202239D01*
X32180Y202261D01*
X32185Y202284D01*
Y202289D01*
X32191Y202328D01*
X32196Y202367D01*
Y202461D01*
X32191Y202500D01*
X32185Y202522D01*
Y202533D01*
X32180Y202567D01*
X32174Y202589D01*
X32169Y202606D01*
Y202611D01*
X32157Y202633D01*
X32152Y202644D01*
X32146Y202655D01*
X32141D01*
X32130Y202667D01*
X32113Y202672D01*
D02*
G37*
G36*
X52268Y25472D02*
X51386D01*
X51331Y25467D01*
X51292Y25450D01*
X51264Y25428D01*
X51253Y25422D01*
X51236Y25405D01*
X51225Y25378D01*
X51209Y25333D01*
Y25306D01*
X51203Y25289D01*
Y22525D01*
X51209Y22497D01*
X51231Y22447D01*
X51247Y22425D01*
X51253Y22414D01*
X51297Y22386D01*
X51342Y22375D01*
X51375Y22370D01*
X52280D01*
X52346Y22375D01*
X52402D01*
X52452Y22381D01*
X52496Y22386D01*
X52524D01*
X52546Y22392D01*
X52552D01*
X52663Y22414D01*
X52713Y22425D01*
X52757Y22436D01*
X52790Y22442D01*
X52818Y22453D01*
X52835Y22458D01*
X52840D01*
X52934Y22497D01*
X52979Y22520D01*
X53012Y22536D01*
X53040Y22553D01*
X53068Y22569D01*
X53079Y22575D01*
X53084Y22580D01*
X53162Y22642D01*
X53223Y22697D01*
X53245Y22725D01*
X53262Y22741D01*
X53268Y22753D01*
X53273Y22758D01*
X53329Y22841D01*
X53367Y22919D01*
X53384Y22947D01*
X53395Y22975D01*
X53401Y22991D01*
Y22997D01*
X53429Y23102D01*
X53440Y23152D01*
X53445Y23197D01*
X53451Y23235D01*
Y23297D01*
X53445Y23407D01*
X53434Y23458D01*
X53429Y23502D01*
X53417Y23535D01*
X53406Y23563D01*
X53401Y23580D01*
Y23585D01*
X53356Y23674D01*
X53334Y23713D01*
X53317Y23746D01*
X53295Y23768D01*
X53284Y23790D01*
X53273Y23802D01*
X53268Y23807D01*
X53201Y23868D01*
X53140Y23918D01*
X53112Y23935D01*
X53090Y23946D01*
X53079Y23957D01*
X53073D01*
X52990Y23996D01*
X52912Y24024D01*
X52879Y24035D01*
X52857Y24040D01*
X52840Y24046D01*
X52835D01*
X52907Y24079D01*
X52962Y24112D01*
X52984Y24123D01*
X53001Y24135D01*
X53007Y24146D01*
X53012D01*
X53068Y24196D01*
X53112Y24240D01*
X53140Y24273D01*
X53151Y24279D01*
Y24284D01*
X53190Y24351D01*
X53212Y24407D01*
X53223Y24434D01*
X53229Y24451D01*
X53234Y24462D01*
Y24467D01*
X53256Y24545D01*
X53262Y24612D01*
X53268Y24640D01*
Y24662D01*
Y24678D01*
Y24684D01*
X53262Y24756D01*
X53256Y24823D01*
X53245Y24878D01*
X53234Y24934D01*
X53218Y24973D01*
X53206Y25000D01*
X53201Y25023D01*
X53195Y25028D01*
X53168Y25084D01*
X53134Y25128D01*
X53096Y25172D01*
X53062Y25206D01*
X53034Y25233D01*
X53007Y25256D01*
X52990Y25267D01*
X52984Y25272D01*
X52934Y25306D01*
X52879Y25339D01*
X52824Y25361D01*
X52768Y25383D01*
X52724Y25400D01*
X52685Y25411D01*
X52663Y25422D01*
X52652D01*
X52574Y25439D01*
X52491Y25450D01*
X52413Y25461D01*
X52335Y25467D01*
X52268Y25472D01*
D02*
G37*
%LPD*%
G36*
X52235Y24995D02*
X52274Y24989D01*
X52307D01*
X52335Y24984D01*
X52352Y24978D01*
X52363Y24973D01*
X52368D01*
X52429Y24950D01*
X52474Y24923D01*
X52502Y24906D01*
X52513Y24895D01*
X52552Y24856D01*
X52579Y24817D01*
X52596Y24784D01*
X52601Y24778D01*
Y24773D01*
X52624Y24717D01*
X52629Y24662D01*
X52635Y24640D01*
Y24623D01*
Y24612D01*
Y24606D01*
X52629Y24545D01*
X52624Y24495D01*
X52618Y24473D01*
X52613Y24456D01*
X52607Y24451D01*
Y24445D01*
X52585Y24390D01*
X52557Y24351D01*
X52535Y24323D01*
X52524Y24312D01*
X52479Y24273D01*
X52435Y24246D01*
X52402Y24229D01*
X52391Y24223D01*
X52385D01*
X52352Y24212D01*
X52319Y24207D01*
X52246Y24201D01*
X52219Y24196D01*
X51819D01*
Y25000D01*
X52191D01*
X52235Y24995D01*
D02*
G37*
G36*
X52307Y23729D02*
X52352Y23724D01*
X52396Y23718D01*
X52424Y23713D01*
X52452Y23707D01*
X52463Y23702D01*
X52468D01*
X52546Y23674D01*
X52601Y23646D01*
X52624Y23635D01*
X52640Y23624D01*
X52646Y23613D01*
X52652D01*
X52696Y23569D01*
X52729Y23518D01*
X52751Y23485D01*
X52757Y23474D01*
Y23469D01*
X52779Y23402D01*
X52790Y23341D01*
X52796Y23313D01*
Y23291D01*
Y23280D01*
Y23274D01*
X52790Y23202D01*
X52779Y23147D01*
X52768Y23124D01*
X52763Y23108D01*
X52757Y23097D01*
Y23091D01*
X52724Y23036D01*
X52690Y22997D01*
X52663Y22969D01*
X52657Y22958D01*
X52652D01*
X52601Y22919D01*
X52552Y22897D01*
X52529Y22886D01*
X52513Y22880D01*
X52502Y22875D01*
X52496D01*
X52424Y22864D01*
X52352Y22858D01*
X52319Y22852D01*
X51819D01*
Y23735D01*
X52252D01*
X52307Y23729D01*
D02*
G37*
%LPC*%
G36*
X56417Y177101D02*
X56222D01*
X56189Y177095D01*
X56178D01*
X56139Y177090D01*
X56106Y177084D01*
X56089Y177078D01*
X56084D01*
X56061Y177067D01*
X56045Y177056D01*
X56039Y177051D01*
X56034Y177045D01*
X56011Y177017D01*
X56006Y177006D01*
Y177001D01*
X55473Y175974D01*
X54929Y177001D01*
X54907Y177034D01*
X54901Y177040D01*
X54896Y177045D01*
X54879Y177062D01*
X54863Y177073D01*
X54846Y177078D01*
X54840D01*
X54807Y177084D01*
X54774Y177090D01*
X54746Y177095D01*
X54735D01*
X54679Y177101D01*
X54469D01*
X54430Y177095D01*
X54380D01*
X54363Y177090D01*
X54346D01*
X54302Y177084D01*
X54269Y177073D01*
X54252Y177062D01*
X54246Y177056D01*
X54235Y177034D01*
X54230Y177012D01*
X54235Y176995D01*
Y176984D01*
X54252Y176940D01*
X54274Y176895D01*
X54291Y176862D01*
X54296Y176851D01*
Y176845D01*
X54985Y175569D01*
X54241Y174215D01*
X54213Y174159D01*
X54197Y174115D01*
X54185Y174092D01*
X54180Y174081D01*
Y174026D01*
X54185Y174009D01*
X54191Y174004D01*
X54213Y173993D01*
X54246Y173981D01*
X54269Y173976D01*
X54280D01*
X54341Y173970D01*
X54408Y173965D01*
X54552D01*
X54607Y173970D01*
X54652D01*
X54696Y173976D01*
X54729D01*
X54746Y173981D01*
X54752D01*
X54779Y173993D01*
X54796Y173998D01*
X54801Y174009D01*
X54807D01*
X54829Y174042D01*
X54840Y174054D01*
Y174059D01*
X55418Y175180D01*
X56000Y174059D01*
X56017Y174026D01*
X56028Y174015D01*
Y174009D01*
X56045Y173998D01*
X56061Y173987D01*
X56078Y173981D01*
X56084D01*
X56117Y173976D01*
X56150D01*
X56172Y173970D01*
X56183D01*
X56239Y173965D01*
X56455D01*
X56489Y173970D01*
X56544D01*
X56561Y173976D01*
X56572D01*
X56622Y173981D01*
X56655Y173993D01*
X56672Y173998D01*
X56677Y174004D01*
X56694Y174026D01*
X56700Y174054D01*
X56694Y174076D01*
Y174081D01*
X56683Y174126D01*
X56661Y174165D01*
X56644Y174204D01*
X56639Y174209D01*
Y174215D01*
X55900Y175580D01*
X56594Y176845D01*
X56616Y176906D01*
X56633Y176951D01*
X56644Y176973D01*
Y176984D01*
X56650Y177017D01*
X56644Y177040D01*
X56639Y177051D01*
X56633Y177056D01*
X56605Y177073D01*
X56572Y177084D01*
X56544Y177090D01*
X56533D01*
X56478Y177095D01*
X56417Y177101D01*
D02*
G37*
G36*
X52792Y177084D02*
X51849D01*
X51793Y177078D01*
X51755Y177062D01*
X51727Y177040D01*
X51716Y177034D01*
X51699Y177017D01*
X51688Y176990D01*
X51671Y176945D01*
Y176917D01*
X51666Y176901D01*
Y174065D01*
X51671Y174031D01*
X51677Y174020D01*
Y174015D01*
X51693Y174004D01*
X51710Y173993D01*
X51721Y173987D01*
X51727D01*
X51760Y173981D01*
X51793D01*
X51816Y173976D01*
X51827D01*
X51877Y173970D01*
X51927Y173965D01*
X52043D01*
X52088Y173970D01*
X52121Y173976D01*
X52132D01*
X52171Y173981D01*
X52204D01*
X52221Y173987D01*
X52226D01*
X52254Y173998D01*
X52271Y174004D01*
X52276Y174015D01*
X52282D01*
X52293Y174031D01*
X52298Y174048D01*
Y174059D01*
Y174065D01*
Y175247D01*
X52493D01*
X52565Y175241D01*
X52620Y175230D01*
X52643Y175225D01*
X52659Y175219D01*
X52665Y175214D01*
X52670D01*
X52726Y175186D01*
X52765Y175153D01*
X52792Y175130D01*
X52803Y175125D01*
Y175119D01*
X52848Y175069D01*
X52881Y175019D01*
X52892Y174997D01*
X52903Y174980D01*
X52909Y174969D01*
Y174964D01*
X52948Y174897D01*
X52976Y174831D01*
X52992Y174803D01*
X52998Y174781D01*
X53009Y174764D01*
Y174759D01*
X53292Y174070D01*
X53298Y174048D01*
X53303Y174031D01*
X53309Y174020D01*
Y174015D01*
X53325Y174004D01*
X53342Y173993D01*
X53353Y173987D01*
X53359D01*
X53392Y173981D01*
X53420Y173976D01*
X53442Y173970D01*
X53453D01*
X53503Y173965D01*
X53697D01*
X53753Y173970D01*
X53803D01*
X53847Y173976D01*
X53880Y173981D01*
X53902Y173987D01*
X53908D01*
X53930Y173998D01*
X53947Y174004D01*
X53958Y174015D01*
X53969Y174042D01*
Y174076D01*
X53964Y174098D01*
X53958Y174115D01*
X53952Y174120D01*
X53941Y174159D01*
X53925Y174209D01*
X53913Y174242D01*
X53908Y174253D01*
Y174259D01*
X53647Y174870D01*
X53608Y174947D01*
X53580Y175008D01*
X53564Y175030D01*
X53558Y175047D01*
X53547Y175058D01*
Y175064D01*
X53514Y175125D01*
X53481Y175175D01*
X53458Y175208D01*
X53447Y175214D01*
Y175219D01*
X53408Y175269D01*
X53375Y175302D01*
X53347Y175330D01*
X53342Y175336D01*
X53336D01*
X53292Y175369D01*
X53247Y175397D01*
X53214Y175413D01*
X53209Y175419D01*
X53203D01*
X53303Y175458D01*
X53347Y175474D01*
X53386Y175497D01*
X53414Y175508D01*
X53442Y175524D01*
X53453Y175530D01*
X53458Y175536D01*
X53536Y175596D01*
X53597Y175652D01*
X53619Y175680D01*
X53636Y175696D01*
X53642Y175707D01*
X53647Y175713D01*
X53697Y175791D01*
X53736Y175863D01*
X53747Y175896D01*
X53758Y175918D01*
X53764Y175935D01*
Y175941D01*
X53791Y176040D01*
X53797Y176091D01*
X53803Y176135D01*
X53808Y176174D01*
Y176201D01*
Y176224D01*
Y176229D01*
Y176296D01*
X53797Y176357D01*
X53791Y176412D01*
X53780Y176462D01*
X53769Y176501D01*
X53764Y176529D01*
X53753Y176551D01*
Y176557D01*
X53703Y176657D01*
X53675Y176695D01*
X53653Y176734D01*
X53631Y176762D01*
X53608Y176784D01*
X53597Y176795D01*
X53592Y176801D01*
X53508Y176873D01*
X53425Y176928D01*
X53392Y176945D01*
X53364Y176962D01*
X53342Y176967D01*
X53336Y176973D01*
X53220Y177017D01*
X53164Y177028D01*
X53109Y177045D01*
X53064Y177051D01*
X53031Y177056D01*
X53009Y177062D01*
X52998D01*
X52948Y177067D01*
X52903Y177073D01*
X52870Y177078D01*
X52854D01*
X52792Y177084D01*
D02*
G37*
%LPD*%
G36*
X52704Y176595D02*
X52737Y176590D01*
X52748D01*
X52792Y176584D01*
X52826Y176579D01*
X52848Y176573D01*
X52854D01*
X52909Y176557D01*
X52959Y176529D01*
X52998Y176507D01*
X53026Y176485D01*
X53053Y176457D01*
X53070Y176440D01*
X53075Y176429D01*
X53081Y176424D01*
X53103Y176385D01*
X53125Y176340D01*
X53142Y176251D01*
X53148Y176218D01*
X53153Y176190D01*
Y176168D01*
Y176163D01*
X53148Y176091D01*
X53136Y176035D01*
X53125Y176013D01*
X53120Y175996D01*
X53114Y175985D01*
Y175979D01*
X53087Y175924D01*
X53053Y175874D01*
X53026Y175846D01*
X53020Y175841D01*
X53014Y175835D01*
X52959Y175796D01*
X52909Y175769D01*
X52881Y175758D01*
X52865Y175752D01*
X52854Y175746D01*
X52848D01*
X52770Y175730D01*
X52693Y175724D01*
X52665Y175719D01*
X52298D01*
Y176601D01*
X52648D01*
X52704Y176595D01*
D02*
G37*
%LPC*%
G36*
X42206Y177101D02*
X42011D01*
X41978Y177095D01*
X41967D01*
X41928Y177090D01*
X41895Y177084D01*
X41878Y177078D01*
X41873D01*
X41850Y177067D01*
X41834Y177056D01*
X41828Y177051D01*
X41822Y177045D01*
X41800Y177017D01*
X41795Y177006D01*
Y177001D01*
X41262Y175974D01*
X40718Y177001D01*
X40696Y177034D01*
X40690Y177040D01*
X40685Y177045D01*
X40668Y177062D01*
X40652Y177073D01*
X40635Y177078D01*
X40629D01*
X40596Y177084D01*
X40563Y177090D01*
X40535Y177095D01*
X40524D01*
X40468Y177101D01*
X40257D01*
X40219Y177095D01*
X40169D01*
X40152Y177090D01*
X40135D01*
X40091Y177084D01*
X40058Y177073D01*
X40041Y177062D01*
X40035Y177056D01*
X40024Y177034D01*
X40019Y177012D01*
X40024Y176995D01*
Y176984D01*
X40041Y176940D01*
X40063Y176895D01*
X40080Y176862D01*
X40085Y176851D01*
Y176845D01*
X40774Y175569D01*
X40030Y174215D01*
X40002Y174159D01*
X39985Y174115D01*
X39974Y174092D01*
X39969Y174081D01*
Y174026D01*
X39974Y174009D01*
X39980Y174004D01*
X40002Y173993D01*
X40035Y173981D01*
X40058Y173976D01*
X40069D01*
X40130Y173970D01*
X40196Y173965D01*
X40341D01*
X40396Y173970D01*
X40441D01*
X40485Y173976D01*
X40518D01*
X40535Y173981D01*
X40541D01*
X40568Y173993D01*
X40585Y173998D01*
X40590Y174009D01*
X40596D01*
X40618Y174042D01*
X40629Y174054D01*
Y174059D01*
X41206Y175180D01*
X41789Y174059D01*
X41806Y174026D01*
X41817Y174015D01*
Y174009D01*
X41834Y173998D01*
X41850Y173987D01*
X41867Y173981D01*
X41873D01*
X41906Y173976D01*
X41939D01*
X41961Y173970D01*
X41972D01*
X42028Y173965D01*
X42244D01*
X42278Y173970D01*
X42333D01*
X42350Y173976D01*
X42361D01*
X42411Y173981D01*
X42444Y173993D01*
X42461Y173998D01*
X42466Y174004D01*
X42483Y174026D01*
X42489Y174054D01*
X42483Y174076D01*
Y174081D01*
X42472Y174126D01*
X42450Y174165D01*
X42433Y174204D01*
X42428Y174209D01*
Y174215D01*
X41689Y175580D01*
X42383Y176845D01*
X42405Y176906D01*
X42422Y176951D01*
X42433Y176973D01*
Y176984D01*
X42439Y177017D01*
X42433Y177040D01*
X42428Y177051D01*
X42422Y177056D01*
X42394Y177073D01*
X42361Y177084D01*
X42333Y177090D01*
X42322D01*
X42266Y177095D01*
X42206Y177101D01*
D02*
G37*
G36*
X39769Y177084D02*
X37549D01*
X37538Y177078D01*
X37532Y177073D01*
X37527Y177067D01*
X37516Y177056D01*
X37505Y177040D01*
X37499Y177028D01*
Y177023D01*
X37494Y177001D01*
X37488Y176973D01*
X37482Y176956D01*
Y176945D01*
X37477Y176906D01*
Y176773D01*
X37482Y176734D01*
Y176712D01*
Y176701D01*
X37488Y176668D01*
X37494Y176646D01*
X37499Y176629D01*
Y176623D01*
X37516Y176590D01*
X37527Y176584D01*
Y176579D01*
X37555Y176568D01*
X38348D01*
Y174065D01*
X38354Y174031D01*
X38359Y174020D01*
Y174015D01*
X38376Y174004D01*
X38393Y173993D01*
X38404Y173987D01*
X38409D01*
X38443Y173981D01*
X38476D01*
X38498Y173976D01*
X38509D01*
X38559Y173970D01*
X38609Y173965D01*
X38726D01*
X38776Y173970D01*
X38803Y173976D01*
X38814D01*
X38853Y173981D01*
X38887D01*
X38903Y173987D01*
X38909D01*
X38936Y173998D01*
X38953Y174004D01*
X38959Y174015D01*
X38964D01*
X38975Y174031D01*
X38981Y174048D01*
Y174059D01*
Y174065D01*
Y176568D01*
X39758D01*
X39786Y176573D01*
X39797Y176579D01*
X39819Y176607D01*
X39825Y176618D01*
Y176623D01*
X39830Y176651D01*
X39836Y176673D01*
X39841Y176695D01*
Y176701D01*
X39847Y176740D01*
X39852Y176779D01*
Y176873D01*
X39847Y176912D01*
X39841Y176934D01*
Y176945D01*
X39836Y176979D01*
X39830Y177001D01*
X39825Y177017D01*
Y177023D01*
X39813Y177045D01*
X39808Y177056D01*
X39802Y177067D01*
X39797D01*
X39786Y177078D01*
X39769Y177084D01*
D02*
G37*
G36*
X54533Y202680D02*
X52973D01*
X52918Y202675D01*
X52879Y202658D01*
X52851Y202636D01*
X52840Y202630D01*
X52824Y202614D01*
X52812Y202586D01*
X52796Y202542D01*
Y202514D01*
X52790Y202497D01*
Y199733D01*
X52796Y199706D01*
X52818Y199656D01*
X52835Y199634D01*
X52840Y199622D01*
X52885Y199595D01*
X52929Y199583D01*
X52962Y199578D01*
X54533D01*
X54561Y199583D01*
X54572Y199589D01*
X54583Y199600D01*
X54594Y199611D01*
X54599Y199622D01*
Y199628D01*
X54605Y199656D01*
X54611Y199678D01*
X54616Y199700D01*
Y199706D01*
X54622Y199744D01*
X54627Y199783D01*
Y199872D01*
X54622Y199905D01*
X54616Y199933D01*
Y199939D01*
X54611Y199967D01*
X54605Y199994D01*
X54599Y200005D01*
Y200011D01*
X54588Y200033D01*
X54583Y200044D01*
X54577Y200055D01*
X54572D01*
X54561Y200066D01*
X54544Y200072D01*
X53417D01*
Y200949D01*
X54355D01*
X54383Y200954D01*
X54394Y200960D01*
X54405Y200971D01*
X54416Y200982D01*
X54422Y200993D01*
Y200999D01*
X54427Y201021D01*
X54433Y201043D01*
X54439Y201065D01*
Y201071D01*
X54444Y201110D01*
X54450Y201149D01*
Y201176D01*
Y201182D01*
Y201187D01*
Y201232D01*
X54444Y201271D01*
X54439Y201293D01*
Y201298D01*
X54433Y201332D01*
X54427Y201354D01*
X54422Y201371D01*
Y201376D01*
X54411Y201393D01*
X54405Y201404D01*
X54400Y201415D01*
X54394D01*
X54383Y201426D01*
X54366Y201432D01*
X53417D01*
Y202186D01*
X54522D01*
X54550Y202192D01*
X54561Y202198D01*
X54572Y202209D01*
X54583Y202220D01*
X54588Y202231D01*
Y202236D01*
X54594Y202264D01*
X54599Y202286D01*
X54605Y202309D01*
Y202314D01*
X54611Y202353D01*
X54616Y202392D01*
Y202420D01*
Y202425D01*
Y202431D01*
Y202481D01*
X54611Y202514D01*
X54605Y202542D01*
Y202547D01*
X54599Y202575D01*
X54594Y202603D01*
X54588Y202614D01*
Y202619D01*
X54577Y202642D01*
X54572Y202653D01*
X54566Y202664D01*
X54561D01*
X54550Y202675D01*
X54533Y202680D01*
D02*
G37*
G36*
X51153D02*
X50209D01*
X50154Y202675D01*
X50115Y202658D01*
X50087Y202636D01*
X50076Y202630D01*
X50060Y202614D01*
X50049Y202586D01*
X50032Y202542D01*
Y202514D01*
X50026Y202497D01*
Y199661D01*
X50032Y199628D01*
X50037Y199617D01*
Y199611D01*
X50054Y199600D01*
X50071Y199589D01*
X50082Y199583D01*
X50087D01*
X50121Y199578D01*
X50154D01*
X50176Y199572D01*
X50187D01*
X50237Y199567D01*
X50287Y199561D01*
X50404D01*
X50448Y199567D01*
X50481Y199572D01*
X50493D01*
X50531Y199578D01*
X50565D01*
X50581Y199583D01*
X50587D01*
X50615Y199595D01*
X50631Y199600D01*
X50637Y199611D01*
X50642D01*
X50653Y199628D01*
X50659Y199645D01*
Y199656D01*
Y199661D01*
Y200843D01*
X50853D01*
X50925Y200838D01*
X50981Y200827D01*
X51003Y200821D01*
X51020Y200816D01*
X51025Y200810D01*
X51031D01*
X51086Y200782D01*
X51125Y200749D01*
X51153Y200727D01*
X51164Y200721D01*
Y200716D01*
X51209Y200666D01*
X51242Y200616D01*
X51253Y200594D01*
X51264Y200577D01*
X51270Y200566D01*
Y200560D01*
X51308Y200494D01*
X51336Y200427D01*
X51353Y200399D01*
X51358Y200377D01*
X51369Y200360D01*
Y200355D01*
X51652Y199667D01*
X51658Y199645D01*
X51664Y199628D01*
X51669Y199617D01*
Y199611D01*
X51686Y199600D01*
X51702Y199589D01*
X51714Y199583D01*
X51719D01*
X51752Y199578D01*
X51780Y199572D01*
X51802Y199567D01*
X51813D01*
X51863Y199561D01*
X52058D01*
X52113Y199567D01*
X52163D01*
X52207Y199572D01*
X52241Y199578D01*
X52263Y199583D01*
X52268D01*
X52291Y199595D01*
X52307Y199600D01*
X52319Y199611D01*
X52330Y199639D01*
Y199672D01*
X52324Y199695D01*
X52319Y199711D01*
X52313Y199717D01*
X52302Y199756D01*
X52285Y199805D01*
X52274Y199839D01*
X52268Y199850D01*
Y199855D01*
X52008Y200466D01*
X51969Y200544D01*
X51941Y200605D01*
X51924Y200627D01*
X51919Y200644D01*
X51908Y200655D01*
Y200660D01*
X51875Y200721D01*
X51841Y200771D01*
X51819Y200804D01*
X51808Y200810D01*
Y200816D01*
X51769Y200866D01*
X51736Y200899D01*
X51708Y200927D01*
X51702Y200932D01*
X51697D01*
X51652Y200965D01*
X51608Y200993D01*
X51575Y201010D01*
X51569Y201015D01*
X51564D01*
X51664Y201054D01*
X51708Y201071D01*
X51747Y201093D01*
X51775Y201104D01*
X51802Y201121D01*
X51813Y201126D01*
X51819Y201132D01*
X51897Y201193D01*
X51958Y201249D01*
X51980Y201276D01*
X51997Y201293D01*
X52002Y201304D01*
X52008Y201310D01*
X52058Y201387D01*
X52096Y201459D01*
X52108Y201493D01*
X52119Y201515D01*
X52124Y201532D01*
Y201537D01*
X52152Y201637D01*
X52157Y201687D01*
X52163Y201731D01*
X52169Y201770D01*
Y201798D01*
Y201820D01*
Y201826D01*
Y201892D01*
X52157Y201953D01*
X52152Y202009D01*
X52141Y202059D01*
X52130Y202098D01*
X52124Y202125D01*
X52113Y202148D01*
Y202153D01*
X52063Y202253D01*
X52035Y202292D01*
X52013Y202331D01*
X51991Y202359D01*
X51969Y202381D01*
X51958Y202392D01*
X51952Y202397D01*
X51869Y202469D01*
X51786Y202525D01*
X51752Y202542D01*
X51725Y202558D01*
X51702Y202564D01*
X51697Y202569D01*
X51580Y202614D01*
X51525Y202625D01*
X51469Y202642D01*
X51425Y202647D01*
X51392Y202653D01*
X51369Y202658D01*
X51358D01*
X51308Y202664D01*
X51264Y202669D01*
X51231Y202675D01*
X51214D01*
X51153Y202680D01*
D02*
G37*
%LPD*%
G36*
X51064Y202192D02*
X51098Y202186D01*
X51109D01*
X51153Y202181D01*
X51186Y202175D01*
X51209Y202170D01*
X51214D01*
X51270Y202153D01*
X51319Y202125D01*
X51358Y202103D01*
X51386Y202081D01*
X51414Y202053D01*
X51430Y202037D01*
X51436Y202026D01*
X51442Y202020D01*
X51464Y201981D01*
X51486Y201937D01*
X51503Y201848D01*
X51508Y201815D01*
X51514Y201787D01*
Y201765D01*
Y201759D01*
X51508Y201687D01*
X51497Y201631D01*
X51486Y201609D01*
X51480Y201593D01*
X51475Y201582D01*
Y201576D01*
X51447Y201520D01*
X51414Y201470D01*
X51386Y201443D01*
X51380Y201437D01*
X51375Y201432D01*
X51319Y201393D01*
X51270Y201365D01*
X51242Y201354D01*
X51225Y201348D01*
X51214Y201343D01*
X51209D01*
X51131Y201326D01*
X51053Y201321D01*
X51025Y201315D01*
X50659D01*
Y202198D01*
X51009D01*
X51064Y202192D01*
D02*
G37*
%LPC*%
G36*
X65515Y25522D02*
X65438D01*
X65321Y25517D01*
X65210Y25505D01*
X65110Y25489D01*
X65021Y25467D01*
X64949Y25444D01*
X64894Y25428D01*
X64877Y25422D01*
X64860Y25417D01*
X64855Y25411D01*
X64849D01*
X64755Y25367D01*
X64672Y25317D01*
X64594Y25267D01*
X64527Y25211D01*
X64472Y25167D01*
X64433Y25128D01*
X64411Y25106D01*
X64400Y25095D01*
X64333Y25011D01*
X64272Y24923D01*
X64222Y24839D01*
X64183Y24756D01*
X64150Y24684D01*
X64128Y24629D01*
X64117Y24606D01*
X64111Y24590D01*
X64106Y24584D01*
Y24579D01*
X64072Y24462D01*
X64044Y24340D01*
X64028Y24223D01*
X64011Y24112D01*
X64006Y24018D01*
Y23979D01*
X64000Y23946D01*
Y23879D01*
X64006Y23741D01*
X64017Y23607D01*
X64028Y23491D01*
X64050Y23391D01*
X64067Y23308D01*
X64072Y23274D01*
X64078Y23246D01*
X64083Y23224D01*
X64089Y23208D01*
X64095Y23202D01*
Y23197D01*
X64133Y23091D01*
X64178Y22997D01*
X64222Y22914D01*
X64267Y22841D01*
X64305Y22786D01*
X64339Y22741D01*
X64361Y22719D01*
X64366Y22708D01*
X64439Y22642D01*
X64511Y22580D01*
X64588Y22531D01*
X64655Y22486D01*
X64716Y22458D01*
X64761Y22431D01*
X64794Y22420D01*
X64805Y22414D01*
X64905Y22381D01*
X65005Y22358D01*
X65105Y22342D01*
X65193Y22331D01*
X65271Y22325D01*
X65327Y22320D01*
X65382D01*
X65499Y22325D01*
X65554Y22331D01*
X65598Y22336D01*
X65637D01*
X65665Y22342D01*
X65682Y22347D01*
X65687D01*
X65787Y22364D01*
X65826Y22375D01*
X65865Y22386D01*
X65893Y22397D01*
X65920Y22403D01*
X65931Y22409D01*
X65937D01*
X66015Y22436D01*
X66070Y22464D01*
X66092Y22475D01*
X66109Y22486D01*
X66115Y22492D01*
X66120D01*
X66170Y22520D01*
X66198Y22547D01*
X66215Y22558D01*
X66220Y22564D01*
X66237Y22580D01*
X66248Y22597D01*
X66259Y22603D01*
Y22608D01*
X66276Y22642D01*
X66281Y22653D01*
Y22658D01*
X66287Y22686D01*
Y22708D01*
X66292Y22725D01*
Y22730D01*
X66298Y22764D01*
Y22936D01*
X66292Y22958D01*
Y22969D01*
X66287Y23008D01*
X66281Y23030D01*
X66276Y23047D01*
Y23052D01*
X66264Y23069D01*
X66259Y23080D01*
X66253Y23091D01*
X66248D01*
X66226Y23102D01*
X66215D01*
X66187Y23097D01*
X66159Y23086D01*
X66137Y23069D01*
X66126Y23063D01*
X66081Y23036D01*
X66031Y23002D01*
X65998Y22986D01*
X65987Y22975D01*
X65982D01*
X65909Y22941D01*
X65843Y22919D01*
X65815Y22908D01*
X65793Y22897D01*
X65776Y22891D01*
X65771D01*
X65676Y22869D01*
X65626Y22864D01*
X65582Y22858D01*
X65543Y22852D01*
X65482D01*
X65415Y22858D01*
X65354Y22864D01*
X65299Y22875D01*
X65249Y22886D01*
X65205Y22897D01*
X65177Y22902D01*
X65154Y22914D01*
X65149D01*
X65093Y22941D01*
X65043Y22969D01*
X65005Y23002D01*
X64966Y23030D01*
X64933Y23058D01*
X64910Y23080D01*
X64899Y23097D01*
X64894Y23102D01*
X64860Y23158D01*
X64827Y23213D01*
X64799Y23269D01*
X64777Y23319D01*
X64761Y23363D01*
X64749Y23402D01*
X64738Y23424D01*
Y23435D01*
X64722Y23513D01*
X64705Y23596D01*
X64694Y23674D01*
X64688Y23746D01*
Y23813D01*
X64683Y23863D01*
Y23896D01*
Y23901D01*
Y23907D01*
Y23996D01*
X64688Y24085D01*
X64699Y24157D01*
X64710Y24223D01*
X64716Y24279D01*
X64727Y24323D01*
X64733Y24345D01*
Y24356D01*
X64755Y24429D01*
X64783Y24495D01*
X64805Y24551D01*
X64833Y24601D01*
X64855Y24640D01*
X64872Y24673D01*
X64883Y24690D01*
X64888Y24695D01*
X64927Y24745D01*
X64971Y24789D01*
X65010Y24823D01*
X65049Y24856D01*
X65082Y24878D01*
X65110Y24895D01*
X65127Y24906D01*
X65132Y24912D01*
X65188Y24939D01*
X65249Y24956D01*
X65304Y24973D01*
X65354Y24978D01*
X65399Y24984D01*
X65432Y24989D01*
X65526D01*
X65582Y24984D01*
X65632Y24978D01*
X65671Y24967D01*
X65704Y24961D01*
X65732Y24950D01*
X65748Y24945D01*
X65754D01*
X65837Y24912D01*
X65870Y24895D01*
X65904Y24884D01*
X65926Y24867D01*
X65943Y24862D01*
X65954Y24850D01*
X65959D01*
X66020Y24817D01*
X66065Y24784D01*
X66092Y24762D01*
X66104Y24756D01*
X66142Y24734D01*
X66170Y24723D01*
X66192Y24717D01*
X66198D01*
X66220Y24723D01*
X66231Y24728D01*
X66253Y24756D01*
X66259Y24767D01*
Y24773D01*
X66270Y24801D01*
X66276Y24828D01*
X66281Y24850D01*
Y24856D01*
X66287Y24895D01*
Y24934D01*
Y24967D01*
Y24973D01*
Y24978D01*
Y25023D01*
Y25061D01*
X66281Y25084D01*
Y25089D01*
X66276Y25122D01*
Y25150D01*
X66270Y25167D01*
Y25172D01*
X66264Y25195D01*
X66259Y25211D01*
X66253Y25222D01*
X66248Y25228D01*
X66237Y25245D01*
X66220Y25261D01*
X66209Y25272D01*
X66203Y25278D01*
X66176Y25306D01*
X66137Y25328D01*
X66104Y25350D01*
X66098Y25355D01*
X66092D01*
X66026Y25389D01*
X65965Y25417D01*
X65943Y25428D01*
X65920Y25433D01*
X65909Y25439D01*
X65904D01*
X65826Y25467D01*
X65754Y25483D01*
X65726Y25489D01*
X65704Y25494D01*
X65687Y25500D01*
X65682D01*
X65593Y25511D01*
X65515Y25522D01*
D02*
G37*
G36*
X62918D02*
X62840D01*
X62724Y25517D01*
X62613Y25505D01*
X62513Y25489D01*
X62424Y25467D01*
X62352Y25444D01*
X62296Y25428D01*
X62280Y25422D01*
X62263Y25417D01*
X62257Y25411D01*
X62252D01*
X62157Y25367D01*
X62074Y25317D01*
X61997Y25267D01*
X61930Y25211D01*
X61875Y25167D01*
X61836Y25128D01*
X61813Y25106D01*
X61802Y25095D01*
X61736Y25011D01*
X61675Y24923D01*
X61625Y24839D01*
X61586Y24756D01*
X61553Y24684D01*
X61530Y24629D01*
X61519Y24606D01*
X61514Y24590D01*
X61508Y24584D01*
Y24579D01*
X61475Y24462D01*
X61447Y24340D01*
X61431Y24223D01*
X61414Y24112D01*
X61408Y24018D01*
Y23979D01*
X61403Y23946D01*
Y23879D01*
X61408Y23741D01*
X61419Y23607D01*
X61431Y23491D01*
X61453Y23391D01*
X61469Y23308D01*
X61475Y23274D01*
X61480Y23246D01*
X61486Y23224D01*
X61492Y23208D01*
X61497Y23202D01*
Y23197D01*
X61536Y23091D01*
X61580Y22997D01*
X61625Y22914D01*
X61669Y22841D01*
X61708Y22786D01*
X61741Y22741D01*
X61764Y22719D01*
X61769Y22708D01*
X61841Y22642D01*
X61913Y22580D01*
X61991Y22531D01*
X62058Y22486D01*
X62119Y22458D01*
X62163Y22431D01*
X62196Y22420D01*
X62208Y22414D01*
X62307Y22381D01*
X62407Y22358D01*
X62507Y22342D01*
X62596Y22331D01*
X62674Y22325D01*
X62729Y22320D01*
X62785D01*
X62901Y22325D01*
X62957Y22331D01*
X63001Y22336D01*
X63040D01*
X63068Y22342D01*
X63084Y22347D01*
X63090D01*
X63190Y22364D01*
X63229Y22375D01*
X63267Y22386D01*
X63295Y22397D01*
X63323Y22403D01*
X63334Y22409D01*
X63340D01*
X63417Y22436D01*
X63473Y22464D01*
X63495Y22475D01*
X63512Y22486D01*
X63517Y22492D01*
X63523D01*
X63573Y22520D01*
X63600Y22547D01*
X63617Y22558D01*
X63623Y22564D01*
X63639Y22580D01*
X63651Y22597D01*
X63662Y22603D01*
Y22608D01*
X63678Y22642D01*
X63684Y22653D01*
Y22658D01*
X63689Y22686D01*
Y22708D01*
X63695Y22725D01*
Y22730D01*
X63700Y22764D01*
Y22936D01*
X63695Y22958D01*
Y22969D01*
X63689Y23008D01*
X63684Y23030D01*
X63678Y23047D01*
Y23052D01*
X63667Y23069D01*
X63662Y23080D01*
X63656Y23091D01*
X63651D01*
X63628Y23102D01*
X63617D01*
X63589Y23097D01*
X63562Y23086D01*
X63539Y23069D01*
X63528Y23063D01*
X63484Y23036D01*
X63434Y23002D01*
X63401Y22986D01*
X63390Y22975D01*
X63384D01*
X63312Y22941D01*
X63245Y22919D01*
X63218Y22908D01*
X63195Y22897D01*
X63179Y22891D01*
X63173D01*
X63079Y22869D01*
X63029Y22864D01*
X62985Y22858D01*
X62946Y22852D01*
X62885D01*
X62818Y22858D01*
X62757Y22864D01*
X62701Y22875D01*
X62651Y22886D01*
X62607Y22897D01*
X62579Y22902D01*
X62557Y22914D01*
X62552D01*
X62496Y22941D01*
X62446Y22969D01*
X62407Y23002D01*
X62368Y23030D01*
X62335Y23058D01*
X62313Y23080D01*
X62302Y23097D01*
X62296Y23102D01*
X62263Y23158D01*
X62230Y23213D01*
X62202Y23269D01*
X62180Y23319D01*
X62163Y23363D01*
X62152Y23402D01*
X62141Y23424D01*
Y23435D01*
X62124Y23513D01*
X62108Y23596D01*
X62097Y23674D01*
X62091Y23746D01*
Y23813D01*
X62085Y23863D01*
Y23896D01*
Y23901D01*
Y23907D01*
Y23996D01*
X62091Y24085D01*
X62102Y24157D01*
X62113Y24223D01*
X62119Y24279D01*
X62130Y24323D01*
X62135Y24345D01*
Y24356D01*
X62157Y24429D01*
X62185Y24495D01*
X62208Y24551D01*
X62235Y24601D01*
X62257Y24640D01*
X62274Y24673D01*
X62285Y24690D01*
X62291Y24695D01*
X62330Y24745D01*
X62374Y24789D01*
X62413Y24823D01*
X62452Y24856D01*
X62485Y24878D01*
X62513Y24895D01*
X62529Y24906D01*
X62535Y24912D01*
X62590Y24939D01*
X62651Y24956D01*
X62707Y24973D01*
X62757Y24978D01*
X62801Y24984D01*
X62835Y24989D01*
X62929D01*
X62985Y24984D01*
X63034Y24978D01*
X63073Y24967D01*
X63107Y24961D01*
X63134Y24950D01*
X63151Y24945D01*
X63156D01*
X63240Y24912D01*
X63273Y24895D01*
X63306Y24884D01*
X63329Y24867D01*
X63345Y24862D01*
X63356Y24850D01*
X63362D01*
X63423Y24817D01*
X63467Y24784D01*
X63495Y24762D01*
X63506Y24756D01*
X63545Y24734D01*
X63573Y24723D01*
X63595Y24717D01*
X63600D01*
X63623Y24723D01*
X63634Y24728D01*
X63656Y24756D01*
X63662Y24767D01*
Y24773D01*
X63673Y24801D01*
X63678Y24828D01*
X63684Y24850D01*
Y24856D01*
X63689Y24895D01*
Y24934D01*
Y24967D01*
Y24973D01*
Y24978D01*
Y25023D01*
Y25061D01*
X63684Y25084D01*
Y25089D01*
X63678Y25122D01*
Y25150D01*
X63673Y25167D01*
Y25172D01*
X63667Y25195D01*
X63662Y25211D01*
X63656Y25222D01*
X63651Y25228D01*
X63639Y25245D01*
X63623Y25261D01*
X63612Y25272D01*
X63606Y25278D01*
X63578Y25306D01*
X63539Y25328D01*
X63506Y25350D01*
X63501Y25355D01*
X63495D01*
X63428Y25389D01*
X63367Y25417D01*
X63345Y25428D01*
X63323Y25433D01*
X63312Y25439D01*
X63306D01*
X63229Y25467D01*
X63156Y25483D01*
X63129Y25489D01*
X63107Y25494D01*
X63090Y25500D01*
X63084D01*
X62996Y25511D01*
X62918Y25522D01*
D02*
G37*
G36*
X60948Y25489D02*
X60759D01*
X60737Y25483D01*
X60709D01*
X60665Y25478D01*
X60637Y25472D01*
X60615Y25467D01*
X60609Y25461D01*
X60587Y25450D01*
X60570Y25439D01*
X60565Y25428D01*
X60559Y25422D01*
X60554Y25400D01*
X60543Y25383D01*
X60537Y25361D01*
Y25355D01*
X59793Y22975D01*
X59033Y25367D01*
X59022Y25394D01*
X59016Y25411D01*
X59011Y25422D01*
X59005Y25428D01*
X58994Y25444D01*
X58977Y25455D01*
X58966Y25461D01*
X58961D01*
X58933Y25472D01*
X58900Y25478D01*
X58877Y25483D01*
X58866D01*
X58816Y25489D01*
X58605D01*
X58572Y25483D01*
X58517D01*
X58500Y25478D01*
X58489D01*
X58445Y25472D01*
X58411Y25461D01*
X58395Y25450D01*
X58389Y25444D01*
X58372Y25422D01*
X58367Y25400D01*
Y25372D01*
X58372Y25328D01*
X58384Y25289D01*
X58395Y25256D01*
X58400Y25245D01*
Y25239D01*
X59327Y22481D01*
X59338Y22447D01*
X59344Y22436D01*
Y22431D01*
X59366Y22403D01*
X59371Y22397D01*
X59377Y22392D01*
X59410Y22381D01*
X59421Y22375D01*
X59427D01*
X59449Y22370D01*
X59477D01*
X59499Y22364D01*
X59505D01*
X59544Y22358D01*
X59621D01*
X59677Y22353D01*
X59865D01*
X59926Y22358D01*
X59976D01*
X60026Y22364D01*
X60065Y22370D01*
X60093Y22375D01*
X60098D01*
X60126Y22386D01*
X60148Y22397D01*
X60154Y22403D01*
X60159Y22409D01*
X60187Y22453D01*
X60193Y22470D01*
Y22475D01*
X61120Y25233D01*
X61136Y25289D01*
X61147Y25333D01*
X61153Y25355D01*
Y25367D01*
X61159Y25400D01*
X61153Y25422D01*
X61147Y25439D01*
X61142Y25444D01*
X61120Y25461D01*
X61092Y25472D01*
X61070Y25478D01*
X61059D01*
X61009Y25483D01*
X60948Y25489D01*
D02*
G37*
G36*
X48810Y146096D02*
X48616D01*
X48583Y146090D01*
X48572D01*
X48533Y146085D01*
X48500Y146079D01*
X48483Y146074D01*
X48477D01*
X48455Y146063D01*
X48439Y146052D01*
X48433Y146046D01*
X48427Y146040D01*
X48405Y146013D01*
X48400Y146002D01*
Y145996D01*
X47867Y144969D01*
X47323Y145996D01*
X47301Y146029D01*
X47295Y146035D01*
X47290Y146040D01*
X47273Y146057D01*
X47256Y146068D01*
X47240Y146074D01*
X47234D01*
X47201Y146079D01*
X47168Y146085D01*
X47140Y146090D01*
X47129D01*
X47073Y146096D01*
X46862D01*
X46823Y146090D01*
X46773D01*
X46757Y146085D01*
X46740D01*
X46696Y146079D01*
X46663Y146068D01*
X46646Y146057D01*
X46640Y146052D01*
X46629Y146029D01*
X46624Y146007D01*
X46629Y145990D01*
Y145979D01*
X46646Y145935D01*
X46668Y145890D01*
X46685Y145857D01*
X46690Y145846D01*
Y145841D01*
X47378Y144564D01*
X46635Y143210D01*
X46607Y143154D01*
X46590Y143110D01*
X46579Y143088D01*
X46574Y143077D01*
Y143021D01*
X46579Y143005D01*
X46585Y142999D01*
X46607Y142988D01*
X46640Y142977D01*
X46663Y142971D01*
X46674D01*
X46735Y142966D01*
X46801Y142960D01*
X46946D01*
X47001Y142966D01*
X47045D01*
X47090Y142971D01*
X47123D01*
X47140Y142977D01*
X47145D01*
X47173Y142988D01*
X47190Y142993D01*
X47195Y143005D01*
X47201D01*
X47223Y143038D01*
X47234Y143049D01*
Y143054D01*
X47811Y144176D01*
X48394Y143054D01*
X48411Y143021D01*
X48422Y143010D01*
Y143005D01*
X48439Y142993D01*
X48455Y142982D01*
X48472Y142977D01*
X48477D01*
X48511Y142971D01*
X48544D01*
X48566Y142966D01*
X48577D01*
X48633Y142960D01*
X48849D01*
X48882Y142966D01*
X48938D01*
X48955Y142971D01*
X48966D01*
X49016Y142977D01*
X49049Y142988D01*
X49066Y142993D01*
X49071Y142999D01*
X49088Y143021D01*
X49093Y143049D01*
X49088Y143071D01*
Y143077D01*
X49077Y143121D01*
X49055Y143160D01*
X49038Y143199D01*
X49032Y143204D01*
Y143210D01*
X48294Y144575D01*
X48988Y145841D01*
X49010Y145902D01*
X49027Y145946D01*
X49038Y145968D01*
Y145979D01*
X49043Y146013D01*
X49038Y146035D01*
X49032Y146046D01*
X49027Y146052D01*
X48999Y146068D01*
X48966Y146079D01*
X48938Y146085D01*
X48927D01*
X48871Y146090D01*
X48810Y146096D01*
D02*
G37*
G36*
X46374Y146079D02*
X44154D01*
X44143Y146074D01*
X44137Y146068D01*
X44132Y146063D01*
X44121Y146052D01*
X44109Y146035D01*
X44104Y146024D01*
Y146018D01*
X44098Y145996D01*
X44093Y145968D01*
X44087Y145952D01*
Y145940D01*
X44082Y145902D01*
Y145768D01*
X44087Y145730D01*
Y145707D01*
Y145696D01*
X44093Y145663D01*
X44098Y145641D01*
X44104Y145624D01*
Y145619D01*
X44121Y145585D01*
X44132Y145580D01*
Y145574D01*
X44159Y145563D01*
X44953D01*
Y143060D01*
X44959Y143027D01*
X44964Y143016D01*
Y143010D01*
X44981Y142999D01*
X44998Y142988D01*
X45009Y142982D01*
X45014D01*
X45047Y142977D01*
X45081D01*
X45103Y142971D01*
X45114D01*
X45164Y142966D01*
X45214Y142960D01*
X45331D01*
X45380Y142966D01*
X45408Y142971D01*
X45419D01*
X45458Y142977D01*
X45491D01*
X45508Y142982D01*
X45514D01*
X45541Y142993D01*
X45558Y142999D01*
X45564Y143010D01*
X45569D01*
X45580Y143027D01*
X45586Y143043D01*
Y143054D01*
Y143060D01*
Y145563D01*
X46363D01*
X46391Y145569D01*
X46402Y145574D01*
X46424Y145602D01*
X46429Y145613D01*
Y145619D01*
X46435Y145646D01*
X46441Y145668D01*
X46446Y145691D01*
Y145696D01*
X46452Y145735D01*
X46457Y145774D01*
Y145868D01*
X46452Y145907D01*
X46446Y145929D01*
Y145940D01*
X46441Y145974D01*
X46435Y145996D01*
X46429Y146013D01*
Y146018D01*
X46418Y146040D01*
X46413Y146052D01*
X46407Y146063D01*
X46402D01*
X46391Y146074D01*
X46374Y146079D01*
D02*
G37*
%LPD*%
D10*
X55065Y69800D02*
G03*
X55065Y69800I-2165J0D01*
G01*
X58265Y63000D02*
G03*
X58265Y63000I-2165J0D01*
G01*
X66832D02*
G03*
X66832Y63000I-2165J0D01*
G01*
X75399D02*
G03*
X75399Y63000I-2165J0D01*
G01*
X63165Y69800D02*
G03*
X63165Y69800I-2165J0D01*
G01*
X71265D02*
G03*
X71265Y69800I-2165J0D01*
G01*
X79365D02*
G03*
X79365Y69800I-2165J0D01*
G01*
X87465D02*
G03*
X87465Y69800I-2165J0D01*
G01*
X83965Y63000D02*
G03*
X83965Y63000I-2165J0D01*
G01*
X64755Y175600D02*
G03*
X64755Y175600I-2559J0D01*
G01*
X34755D02*
G03*
X34755Y175600I-2559J0D01*
G01*
X62059Y146800D02*
G03*
X62059Y146800I-2559J0D01*
G01*
X62159Y137300D02*
G03*
X62159Y137300I-2559J0D01*
G01*
X69059Y143600D02*
G03*
X69059Y143600I-2559J0D01*
G01*
Y150700D02*
G03*
X69059Y150700I-2559J0D01*
G01*
X400Y35500D02*
X26400D01*
X400D02*
Y96500D01*
X26400Y35500D02*
Y96500D01*
X400D02*
X26400D01*
X70458Y146707D02*
X90143D01*
X70458Y160093D02*
X90143D01*
X70458Y146707D02*
Y160093D01*
X90143Y146707D02*
Y160093D01*
X22055Y194024D02*
X24811Y192449D01*
X22055Y190874D02*
X24811Y192449D01*
X22055Y190874D02*
Y194024D01*
X67244Y187488D02*
Y197488D01*
X37244Y187488D02*
Y197488D01*
X27244Y187488D02*
Y197488D01*
X67244D01*
X27244Y187488D02*
X67244D01*
X27595Y6718D02*
Y11246D01*
Y12624D02*
X39406D01*
Y15576D01*
X27595D02*
X39406D01*
X27595Y12624D02*
Y15576D01*
X27244Y27488D02*
X67244D01*
X27244Y37488D02*
X67244D01*
X27244Y27488D02*
Y37488D01*
X37244Y27488D02*
Y37488D01*
X67244Y27488D02*
Y37488D01*
X22055Y30874D02*
Y34024D01*
Y30874D02*
X24811Y32449D01*
X22055Y34024D02*
X24811Y32449D01*
X30032Y112836D02*
X33968D01*
X30032D02*
Y114523D01*
X30219Y115085D01*
X30407Y115272D01*
X30782Y115460D01*
X31157D01*
X31531Y115272D01*
X31719Y115085D01*
X31906Y114523D01*
Y112836D01*
Y114148D02*
X33968Y115460D01*
X30782Y116341D02*
X30594Y116716D01*
X30032Y117278D01*
X33968D01*
X30782Y119227D02*
X30594Y119602D01*
X30032Y120164D01*
X33968D01*
X30132Y99392D02*
X34068D01*
X30132D02*
Y101079D01*
X30319Y101641D01*
X30507Y101829D01*
X30882Y102016D01*
X31256D01*
X31631Y101829D01*
X31819Y101641D01*
X32006Y101079D01*
Y99392D01*
Y100704D02*
X34068Y102016D01*
X30882Y102897D02*
X30694Y103272D01*
X30132Y103834D01*
X34068D01*
X30132Y106908D02*
X30319Y106346D01*
X30882Y105971D01*
X31819Y105784D01*
X32381D01*
X33318Y105971D01*
X33881Y106346D01*
X34068Y106908D01*
Y107283D01*
X33881Y107845D01*
X33318Y108220D01*
X32381Y108408D01*
X31819D01*
X30882Y108220D01*
X30319Y107845D01*
X30132Y107283D01*
Y106908D01*
X1144Y120654D02*
X1332Y120279D01*
X1707Y119904D01*
X2082Y119717D01*
X2644Y119529D01*
X3581D01*
X4143Y119717D01*
X4518Y119904D01*
X4893Y120279D01*
X5081Y120654D01*
Y121404D01*
X4893Y121779D01*
X4518Y122153D01*
X4143Y122341D01*
X3581Y122528D01*
X2644D01*
X2082Y122341D01*
X1707Y122153D01*
X1332Y121779D01*
X1144Y121404D01*
Y120654D01*
X4331Y121216D02*
X5455Y122341D01*
X2082Y123634D02*
X1894D01*
X1519Y123821D01*
X1332Y124009D01*
X1144Y124384D01*
Y125134D01*
X1332Y125508D01*
X1519Y125696D01*
X1894Y125883D01*
X2269D01*
X2644Y125696D01*
X3206Y125321D01*
X5081Y123447D01*
Y126071D01*
X544Y109197D02*
X732Y108823D01*
X1107Y108448D01*
X1482Y108260D01*
X2044Y108073D01*
X2981D01*
X3543Y108260D01*
X3918Y108448D01*
X4293Y108823D01*
X4481Y109197D01*
Y109947D01*
X4293Y110322D01*
X3918Y110697D01*
X3543Y110884D01*
X2981Y111072D01*
X2044D01*
X1482Y110884D01*
X1107Y110697D01*
X732Y110322D01*
X544Y109947D01*
Y109197D01*
X3731Y109760D02*
X4856Y110884D01*
X1294Y111990D02*
X1107Y112365D01*
X544Y112927D01*
X4481D01*
X3125Y30368D02*
Y27369D01*
X2938Y26807D01*
X2750Y26619D01*
X2376Y26432D01*
X2001D01*
X1626Y26619D01*
X1438Y26807D01*
X1251Y27369D01*
Y27744D01*
X6012Y30368D02*
X4138Y27744D01*
X6949D01*
X6012Y30368D02*
Y26432D01*
X45432Y60535D02*
X49368D01*
X45432D02*
Y61848D01*
X45619Y62410D01*
X45994Y62785D01*
X46369Y62972D01*
X46931Y63160D01*
X47869D01*
X48431Y62972D01*
X48806Y62785D01*
X49181Y62410D01*
X49368Y61848D01*
Y60535D01*
X45432Y64415D02*
Y66477D01*
X46931Y65352D01*
Y65915D01*
X47119Y66290D01*
X47306Y66477D01*
X47869Y66665D01*
X48243D01*
X48806Y66477D01*
X49181Y66102D01*
X49368Y65540D01*
Y64978D01*
X49181Y64415D01*
X48993Y64228D01*
X48618Y64040D01*
X45432Y71135D02*
X49368D01*
X45432D02*
Y72448D01*
X45619Y73010D01*
X45994Y73385D01*
X46369Y73572D01*
X46931Y73760D01*
X47869D01*
X48431Y73572D01*
X48806Y73385D01*
X49181Y73010D01*
X49368Y72448D01*
Y71135D01*
X46369Y74828D02*
X46182D01*
X45807Y75015D01*
X45619Y75203D01*
X45432Y75578D01*
Y76327D01*
X45619Y76702D01*
X45807Y76890D01*
X46182Y77077D01*
X46556D01*
X46931Y76890D01*
X47494Y76515D01*
X49368Y74641D01*
Y77265D01*
X89432Y139232D02*
X92243D01*
X92806Y139420D01*
X93181Y139795D01*
X93368Y140357D01*
Y140732D01*
X93181Y141294D01*
X92806Y141669D01*
X92243Y141856D01*
X89432D01*
Y143318D02*
Y145380D01*
X90931Y144256D01*
Y144818D01*
X91119Y145193D01*
X91306Y145380D01*
X91869Y145568D01*
X92243D01*
X92806Y145380D01*
X93181Y145005D01*
X93368Y144443D01*
Y143881D01*
X93181Y143318D01*
X92993Y143131D01*
X92618Y142944D01*
X33376Y5268D02*
Y2457D01*
X33563Y1894D01*
X33938Y1519D01*
X34500Y1332D01*
X34875D01*
X35438Y1519D01*
X35813Y1894D01*
X36000Y2457D01*
Y5268D01*
X37087Y4518D02*
X37462Y4706D01*
X38024Y5268D01*
Y1332D01*
X76075Y119768D02*
Y115832D01*
Y119768D02*
X77762D01*
X78324Y119581D01*
X78511Y119393D01*
X78699Y119018D01*
Y118643D01*
X78511Y118269D01*
X78324Y118081D01*
X77762Y117894D01*
X76075D01*
X77387D02*
X78699Y115832D01*
X79580Y119768D02*
Y115832D01*
Y119768D02*
X80892D01*
X81454Y119581D01*
X81829Y119206D01*
X82016Y118831D01*
X82204Y118269D01*
Y117331D01*
X82016Y116769D01*
X81829Y116394D01*
X81454Y116019D01*
X80892Y115832D01*
X79580D01*
X83085Y119768D02*
Y115832D01*
Y119768D02*
X85709Y115832D01*
Y119768D02*
Y115832D01*
X86796Y117706D02*
X88483D01*
X89045Y117894D01*
X89233Y118081D01*
X89420Y118456D01*
Y119018D01*
X89233Y119393D01*
X89045Y119581D01*
X88483Y119768D01*
X86796D01*
Y115832D01*
X90489Y118831D02*
Y119018D01*
X90676Y119393D01*
X90864Y119581D01*
X91238Y119768D01*
X91988D01*
X92363Y119581D01*
X92550Y119393D01*
X92738Y119018D01*
Y118643D01*
X92550Y118269D01*
X92176Y117706D01*
X90301Y115832D01*
X92925D01*
X52632Y120818D02*
X56568D01*
X52632D02*
Y122505D01*
X52819Y123067D01*
X53007Y123255D01*
X53382Y123442D01*
X53756D01*
X54131Y123255D01*
X54319Y123067D01*
X54506Y122505D01*
Y120818D01*
Y122130D02*
X56568Y123442D01*
X52632Y124323D02*
X56568D01*
X52632D02*
Y125635D01*
X52819Y126198D01*
X53194Y126573D01*
X53569Y126760D01*
X54131Y126947D01*
X55069D01*
X55631Y126760D01*
X56006Y126573D01*
X56381Y126198D01*
X56568Y125635D01*
Y124323D01*
X52632Y127828D02*
X56568D01*
X52632D02*
X56568Y130452D01*
X52632D02*
X56568D01*
X54694Y131540D02*
Y133227D01*
X54506Y133789D01*
X54319Y133976D01*
X53944Y134164D01*
X53382D01*
X53007Y133976D01*
X52819Y133789D01*
X52632Y133227D01*
Y131540D01*
X56568D01*
X53382Y135045D02*
X53194Y135419D01*
X52632Y135982D01*
X56568D01*
X83429Y138068D02*
Y134132D01*
Y138068D02*
X85116D01*
X85678Y137881D01*
X85866Y137693D01*
X86053Y137318D01*
Y136943D01*
X85866Y136569D01*
X85678Y136381D01*
X85116Y136194D01*
X83429D01*
X84741D02*
X86053Y134132D01*
X89371Y136756D02*
X89183Y136194D01*
X88809Y135819D01*
X88246Y135631D01*
X88059D01*
X87497Y135819D01*
X87122Y136194D01*
X86934Y136756D01*
Y136943D01*
X87122Y137506D01*
X87497Y137881D01*
X88059Y138068D01*
X88246D01*
X88809Y137881D01*
X89183Y137506D01*
X89371Y136756D01*
Y135819D01*
X89183Y134882D01*
X88809Y134319D01*
X88246Y134132D01*
X87871D01*
X87309Y134319D01*
X87122Y134694D01*
X66132Y134535D02*
X70068D01*
X66132D02*
Y136222D01*
X66319Y136785D01*
X66507Y136972D01*
X66882Y137160D01*
X67256D01*
X67631Y136972D01*
X67819Y136785D01*
X68006Y136222D01*
Y134535D01*
Y135847D02*
X70068Y137160D01*
X66132Y138978D02*
X66319Y138415D01*
X66694Y138228D01*
X67069D01*
X67444Y138415D01*
X67631Y138790D01*
X67819Y139540D01*
X68006Y140102D01*
X68381Y140477D01*
X68756Y140665D01*
X69318D01*
X69693Y140477D01*
X69881Y140290D01*
X70068Y139727D01*
Y138978D01*
X69881Y138415D01*
X69693Y138228D01*
X69318Y138040D01*
X68756D01*
X68381Y138228D01*
X68006Y138603D01*
X67819Y139165D01*
X67631Y139915D01*
X67444Y140290D01*
X67069Y140477D01*
X66694D01*
X66319Y140290D01*
X66132Y139727D01*
Y138978D01*
X66569Y177935D02*
X66194Y177747D01*
X65819Y177372D01*
X65632Y176997D01*
Y176248D01*
X65819Y175873D01*
X66194Y175498D01*
X66569Y175310D01*
X67131Y175123D01*
X68069D01*
X68631Y175310D01*
X69006Y175498D01*
X69381Y175873D01*
X69568Y176248D01*
Y176997D01*
X69381Y177372D01*
X69006Y177747D01*
X68631Y177935D01*
X66944Y181477D02*
X67506Y181290D01*
X67881Y180915D01*
X68069Y180352D01*
Y180165D01*
X67881Y179603D01*
X67506Y179228D01*
X66944Y179040D01*
X66756D01*
X66194Y179228D01*
X65819Y179603D01*
X65632Y180165D01*
Y180352D01*
X65819Y180915D01*
X66194Y181290D01*
X66944Y181477D01*
X67881D01*
X68818Y181290D01*
X69381Y180915D01*
X69568Y180352D01*
Y179978D01*
X69381Y179415D01*
X69006Y179228D01*
X56469Y17347D02*
X56094Y17160D01*
X55719Y16785D01*
X55532Y16410D01*
Y15660D01*
X55719Y15285D01*
X56094Y14910D01*
X56469Y14723D01*
X57031Y14536D01*
X57969D01*
X58531Y14723D01*
X58906Y14910D01*
X59281Y15285D01*
X59468Y15660D01*
Y16410D01*
X59281Y16785D01*
X58906Y17160D01*
X58531Y17347D01*
X55532Y20327D02*
X58156Y18453D01*
Y21264D01*
X55532Y20327D02*
X59468D01*
X78164Y173700D02*
X82100D01*
X78164D02*
Y175387D01*
X78351Y175949D01*
X78539Y176137D01*
X78914Y176324D01*
X79289D01*
X79663Y176137D01*
X79851Y175949D01*
X80038Y175387D01*
Y173700D01*
Y175012D02*
X82100Y176324D01*
X78914Y177205D02*
X78726Y177580D01*
X78164Y178142D01*
X82100D01*
X37800Y117536D02*
Y114725D01*
X37987Y114162D01*
X38362Y113787D01*
X38925Y113600D01*
X39299D01*
X39862Y113787D01*
X40237Y114162D01*
X40424Y114725D01*
Y117536D01*
X41699Y116599D02*
Y116786D01*
X41886Y117161D01*
X42074Y117349D01*
X42448Y117536D01*
X43198D01*
X43573Y117349D01*
X43760Y117161D01*
X43948Y116786D01*
Y116412D01*
X43760Y116037D01*
X43386Y115474D01*
X41511Y113600D01*
X44135D01*
X4964Y139200D02*
X8900D01*
X4964D02*
Y140887D01*
X5151Y141449D01*
X5339Y141637D01*
X5714Y141824D01*
X6089D01*
X6463Y141637D01*
X6651Y141449D01*
X6838Y140887D01*
Y139200D01*
Y140512D02*
X8900Y141824D01*
X4964Y145329D02*
X8900Y143455D01*
X4964Y142705D02*
Y145329D01*
X46338Y147779D02*
X50274D01*
X46338D02*
Y149466D01*
X46525Y150028D01*
X46713Y150216D01*
X47088Y150403D01*
X47462D01*
X47837Y150216D01*
X48025Y150028D01*
X48212Y149466D01*
Y147779D01*
Y149091D02*
X50274Y150403D01*
X46900Y153533D02*
X46525Y153346D01*
X46338Y152784D01*
Y152409D01*
X46525Y151847D01*
X47088Y151472D01*
X48025Y151284D01*
X48962D01*
X49712Y151472D01*
X50087Y151847D01*
X50274Y152409D01*
Y152596D01*
X50087Y153159D01*
X49712Y153533D01*
X49149Y153721D01*
X48962D01*
X48400Y153533D01*
X48025Y153159D01*
X47837Y152596D01*
Y152409D01*
X48025Y151847D01*
X48400Y151472D01*
X48962Y151284D01*
X38338Y147779D02*
X42274D01*
X38338D02*
Y149466D01*
X38525Y150028D01*
X38713Y150216D01*
X39088Y150403D01*
X39463D01*
X39837Y150216D01*
X40025Y150028D01*
X40212Y149466D01*
Y147779D01*
Y149091D02*
X42274Y150403D01*
X38338Y153533D02*
Y151659D01*
X40025Y151472D01*
X39837Y151659D01*
X39650Y152221D01*
Y152784D01*
X39837Y153346D01*
X40212Y153721D01*
X40775Y153908D01*
X41149D01*
X41712Y153721D01*
X42087Y153346D01*
X42274Y152784D01*
Y152221D01*
X42087Y151659D01*
X41899Y151472D01*
X41524Y151284D01*
X53200Y172236D02*
Y168300D01*
Y172236D02*
X54887D01*
X55449Y172049D01*
X55637Y171861D01*
X55824Y171486D01*
Y171112D01*
X55637Y170737D01*
X55449Y170549D01*
X54887Y170362D01*
X53200D01*
X54512D02*
X55824Y168300D01*
X58579Y172236D02*
X56705Y169612D01*
X59517D01*
X58579Y172236D02*
Y168300D01*
X61000Y172236D02*
Y168300D01*
Y172236D02*
X62687D01*
X63249Y172049D01*
X63437Y171861D01*
X63624Y171486D01*
Y171112D01*
X63437Y170737D01*
X63249Y170549D01*
X62687Y170362D01*
X61000D01*
X62312D02*
X63624Y168300D01*
X64880Y172236D02*
X66942D01*
X65817Y170737D01*
X66379D01*
X66754Y170549D01*
X66942Y170362D01*
X67129Y169799D01*
Y169425D01*
X66942Y168862D01*
X66567Y168487D01*
X66005Y168300D01*
X65442D01*
X64880Y168487D01*
X64692Y168675D01*
X64505Y169050D01*
X29938Y147831D02*
X33874D01*
X29938D02*
Y149518D01*
X30125Y150080D01*
X30313Y150268D01*
X30688Y150455D01*
X31062D01*
X31437Y150268D01*
X31625Y150080D01*
X31812Y149518D01*
Y147831D01*
Y149143D02*
X33874Y150455D01*
X30875Y151524D02*
X30688D01*
X30313Y151711D01*
X30125Y151899D01*
X29938Y152273D01*
Y153023D01*
X30125Y153398D01*
X30313Y153585D01*
X30688Y153773D01*
X31062D01*
X31437Y153585D01*
X32000Y153210D01*
X33874Y151336D01*
Y153960D01*
X22474Y29736D02*
Y26737D01*
X22287Y26175D01*
X22099Y25987D01*
X21725Y25800D01*
X21350D01*
X20975Y25987D01*
X20787Y26175D01*
X20600Y26737D01*
Y27112D01*
X23674Y28799D02*
Y28986D01*
X23861Y29361D01*
X24049Y29549D01*
X24424Y29736D01*
X25173D01*
X25548Y29549D01*
X25736Y29361D01*
X25923Y28986D01*
Y28611D01*
X25736Y28237D01*
X25361Y27674D01*
X23486Y25800D01*
X26111D01*
X28274Y185136D02*
Y182137D01*
X28087Y181575D01*
X27900Y181387D01*
X27525Y181200D01*
X27150D01*
X26775Y181387D01*
X26587Y181575D01*
X26400Y182137D01*
Y182512D01*
X29661Y185136D02*
X31723D01*
X30599Y183637D01*
X31161D01*
X31536Y183449D01*
X31723Y183262D01*
X31911Y182700D01*
Y182325D01*
X31723Y181762D01*
X31348Y181387D01*
X30786Y181200D01*
X30224D01*
X29661Y181387D01*
X29474Y181575D01*
X29287Y181950D01*
X23900Y178236D02*
Y175237D01*
X23713Y174675D01*
X23526Y174487D01*
X23151Y174300D01*
X22776D01*
X22401Y174487D01*
X22213Y174675D01*
X22026Y175237D01*
Y175612D01*
X24913Y177486D02*
X25287Y177674D01*
X25850Y178236D01*
Y174300D01*
X67400Y5036D02*
Y1100D01*
Y5036D02*
X68712D01*
X69274Y4849D01*
X69649Y4474D01*
X69837Y4099D01*
X70024Y3537D01*
Y2599D01*
X69837Y2037D01*
X69649Y1662D01*
X69274Y1287D01*
X68712Y1100D01*
X67400D01*
X70905Y4286D02*
X71280Y4474D01*
X71842Y5036D01*
Y1100D01*
X21775Y126100D02*
X21400Y125912D01*
X21025Y125537D01*
X20838Y125163D01*
Y124413D01*
X21025Y124038D01*
X21400Y123663D01*
X21775Y123476D01*
X22337Y123288D01*
X23275D01*
X23837Y123476D01*
X24212Y123663D01*
X24587Y124038D01*
X24774Y124413D01*
Y125163D01*
X24587Y125537D01*
X24212Y125912D01*
X23837Y126100D01*
X20838Y128143D02*
X21025Y127580D01*
X21400Y127393D01*
X21775D01*
X22150Y127580D01*
X22337Y127955D01*
X22525Y128705D01*
X22712Y129267D01*
X23087Y129642D01*
X23462Y129830D01*
X24024D01*
X24399Y129642D01*
X24587Y129455D01*
X24774Y128893D01*
Y128143D01*
X24587Y127580D01*
X24399Y127393D01*
X24024Y127206D01*
X23462D01*
X23087Y127393D01*
X22712Y127768D01*
X22525Y128330D01*
X22337Y129080D01*
X22150Y129455D01*
X21775Y129642D01*
X21400D01*
X21025Y129455D01*
X20838Y128893D01*
Y128143D01*
X13775Y126100D02*
X13400Y125912D01*
X13025Y125537D01*
X12838Y125163D01*
Y124413D01*
X13025Y124038D01*
X13400Y123663D01*
X13775Y123476D01*
X14337Y123288D01*
X15274D01*
X15837Y123476D01*
X16212Y123663D01*
X16587Y124038D01*
X16774Y124413D01*
Y125163D01*
X16587Y125537D01*
X16212Y125912D01*
X15837Y126100D01*
X12838Y129830D02*
X16774Y127955D01*
X12838Y127206D02*
Y129830D01*
X84412Y102299D02*
X84224Y102674D01*
X83849Y103049D01*
X83474Y103236D01*
X82725D01*
X82350Y103049D01*
X81975Y102674D01*
X81787Y102299D01*
X81600Y101737D01*
Y100800D01*
X81787Y100237D01*
X81975Y99862D01*
X82350Y99487D01*
X82725Y99300D01*
X83474D01*
X83849Y99487D01*
X84224Y99862D01*
X84412Y100237D01*
X87767Y102674D02*
X87579Y103049D01*
X87017Y103236D01*
X86642D01*
X86080Y103049D01*
X85705Y102486D01*
X85517Y101549D01*
Y100612D01*
X85705Y99862D01*
X86080Y99487D01*
X86642Y99300D01*
X86830D01*
X87392Y99487D01*
X87767Y99862D01*
X87954Y100425D01*
Y100612D01*
X87767Y101174D01*
X87392Y101549D01*
X86830Y101737D01*
X86642D01*
X86080Y101549D01*
X85705Y101174D01*
X85517Y100612D01*
X43211Y5799D02*
X43024Y6174D01*
X42649Y6549D01*
X42274Y6736D01*
X41525D01*
X41150Y6549D01*
X40775Y6174D01*
X40587Y5799D01*
X40400Y5237D01*
Y4299D01*
X40587Y3737D01*
X40775Y3362D01*
X41150Y2987D01*
X41525Y2800D01*
X42274D01*
X42649Y2987D01*
X43024Y3362D01*
X43211Y3737D01*
X46567Y6736D02*
X44692D01*
X44505Y5049D01*
X44692Y5237D01*
X45255Y5424D01*
X45817D01*
X46379Y5237D01*
X46754Y4862D01*
X46942Y4299D01*
Y3925D01*
X46754Y3362D01*
X46379Y2987D01*
X45817Y2800D01*
X45255D01*
X44692Y2987D01*
X44505Y3175D01*
X44317Y3550D01*
X32801Y55111D02*
X32426Y54924D01*
X32051Y54549D01*
X31864Y54174D01*
Y53425D01*
X32051Y53050D01*
X32426Y52675D01*
X32801Y52487D01*
X33363Y52300D01*
X34301D01*
X34863Y52487D01*
X35238Y52675D01*
X35613Y53050D01*
X35800Y53425D01*
Y54174D01*
X35613Y54549D01*
X35238Y54924D01*
X34863Y55111D01*
X31864Y56592D02*
Y58654D01*
X33363Y57529D01*
Y58092D01*
X33551Y58467D01*
X33738Y58654D01*
X34301Y58842D01*
X34675D01*
X35238Y58654D01*
X35613Y58279D01*
X35800Y57717D01*
Y57155D01*
X35613Y56592D01*
X35425Y56405D01*
X35050Y56217D01*
X47501Y47611D02*
X47126Y47424D01*
X46751Y47049D01*
X46564Y46674D01*
Y45925D01*
X46751Y45550D01*
X47126Y45175D01*
X47501Y44987D01*
X48063Y44800D01*
X49000D01*
X49563Y44987D01*
X49938Y45175D01*
X50313Y45550D01*
X50500Y45925D01*
Y46674D01*
X50313Y47049D01*
X49938Y47424D01*
X49563Y47611D01*
X47501Y48905D02*
X47314D01*
X46939Y49092D01*
X46751Y49280D01*
X46564Y49655D01*
Y50404D01*
X46751Y50779D01*
X46939Y50967D01*
X47314Y51154D01*
X47688D01*
X48063Y50967D01*
X48626Y50592D01*
X50500Y48717D01*
Y51341D01*
X4427Y176512D02*
X4052Y176324D01*
X3677Y175949D01*
X3490Y175574D01*
Y174825D01*
X3677Y174450D01*
X4052Y174075D01*
X4427Y173887D01*
X4989Y173700D01*
X5926D01*
X6489Y173887D01*
X6864Y174075D01*
X7238Y174450D01*
X7426Y174825D01*
Y175574D01*
X7238Y175949D01*
X6864Y176324D01*
X6489Y176512D01*
X4240Y177617D02*
X4052Y177992D01*
X3490Y178555D01*
X7426D01*
D11*
X93307Y13780D02*
G03*
X93307Y13780I-12598J0D01*
G01*
Y194882D02*
G03*
X93307Y194882I-12598J0D01*
G01*
X26378D02*
G03*
X26378Y194882I-12598J0D01*
G01*
Y13780D02*
G03*
X26378Y13780I-12598J0D01*
G01*
X59100Y5200D02*
Y7400D01*
Y5200D02*
X60200Y6300D01*
X59100Y7400D02*
X60200Y6300D01*
X31000Y67400D02*
X33200D01*
X31000D02*
X32100Y66300D01*
X33200Y67400D01*
X31000Y77500D02*
X33200D01*
X31000D02*
X32100Y76400D01*
X33200Y77500D01*
X71100Y135900D02*
X72700Y138400D01*
X74100Y135900D01*
X71100D02*
X74100D01*
X71600Y136200D02*
X72700Y137300D01*
X73800Y136200D01*
X71600D02*
X73800D01*
X36198Y108072D02*
Y111072D01*
Y108072D02*
X38698Y109472D01*
X36198Y111072D02*
X38698Y109472D01*
X16971Y174488D02*
X18571Y176188D01*
X15371D02*
X16971Y174488D01*
X15371Y176188D02*
X18571D01*
X26471Y145588D02*
Y172588D01*
X12471Y145588D02*
X26471D01*
X12471Y172588D02*
X26471D01*
X12471Y145588D02*
Y172588D01*
X28360Y982D02*
X31360D01*
X29960Y3482D02*
X31360Y982D01*
X28360D02*
X29960Y3482D01*
X57500Y5245D02*
Y7345D01*
X56450Y6295D02*
X58550D01*
X16993Y100300D02*
X19493Y98700D01*
X16993Y100300D02*
X19493Y101700D01*
Y98700D02*
Y101700D01*
X16993Y113100D02*
X19493Y111500D01*
X16993Y113100D02*
X19493Y114500D01*
Y111500D02*
Y114500D01*
D12*
X65759Y7757D02*
Y14843D01*
X60641Y7757D02*
Y14843D01*
X61428Y9331D02*
X64972D01*
X60641Y7757D02*
X61625D01*
X64775Y7757D02*
X65759D01*
X60641Y14843D02*
X61625D01*
X64775D02*
X65759D01*
X61428Y4182D02*
X64972D01*
X33557Y60741D02*
X40643D01*
X33557Y65859D02*
X40643D01*
X35131Y61528D02*
Y65072D01*
X33557Y64875D02*
Y65859D01*
X33557Y60741D02*
Y61725D01*
X40643Y64875D02*
Y65859D01*
Y60741D02*
Y61725D01*
X29982Y61528D02*
Y65072D01*
X33557Y70841D02*
X40643D01*
X33557Y75959D02*
X40643D01*
X35131Y71628D02*
Y75172D01*
X33557Y74975D02*
Y75959D01*
X33557Y70841D02*
Y71825D01*
X40643Y74975D02*
Y75959D01*
Y70841D02*
Y71825D01*
X29982Y71628D02*
Y75172D01*
X38313Y39979D02*
Y56080D01*
X38707Y47024D02*
X45006D01*
X45400Y39938D02*
Y56080D01*
X38313Y39938D02*
X45400Y39938D01*
X48257Y2894D02*
Y18994D01*
X48650Y9939D02*
X54950D01*
X55343Y2852D02*
Y18994D01*
X48257Y2852D02*
X55343Y2852D01*
D13*
X78314Y169900D02*
Y171400D01*
X76814Y169900D02*
X78314D01*
X70314Y179800D02*
Y181300D01*
X71814D01*
X78314Y179800D02*
Y181300D01*
X76814D02*
X78314D01*
X70314Y169900D02*
X71814D01*
X70314D02*
Y171400D01*
X90286Y121800D02*
Y123300D01*
X88786Y121800D02*
X90286D01*
X82286Y131700D02*
Y133200D01*
X83786D01*
X90286Y131700D02*
Y133200D01*
X88786D02*
X90286D01*
X82286Y121800D02*
X83786D01*
X82286D02*
Y123300D01*
X74314Y121800D02*
Y123300D01*
X72814Y121800D02*
X74314D01*
X66314Y131700D02*
Y133200D01*
X67814D01*
X74314Y131700D02*
Y133200D01*
X72814D02*
X74314D01*
X66314Y121800D02*
X67814D01*
X66314D02*
Y123300D01*
X45518Y111348D02*
Y112352D01*
Y84793D02*
Y85797D01*
X73077Y111348D02*
Y112352D01*
Y84793D02*
Y85797D01*
X45518Y112352D02*
X46522D01*
X45518Y84793D02*
X46522D01*
X72073Y112352D02*
X73077D01*
X72073Y84793D02*
X73077D01*
X18721Y131557D02*
Y133057D01*
Y131557D02*
X20221D01*
X25221Y142957D02*
X26721D01*
Y141457D02*
Y142957D01*
X18721D02*
X20221D01*
X18721Y141457D02*
Y142957D01*
X25221Y131557D02*
X26721D01*
Y133057D01*
X10674Y131557D02*
Y133057D01*
Y131557D02*
X12174D01*
X17174Y142957D02*
X18674D01*
Y141457D02*
Y142957D01*
X10674D02*
X12174D01*
X10674Y141457D02*
Y142957D01*
X17174Y131557D02*
X18674D01*
Y133057D01*
X66300Y121800D02*
Y123300D01*
X64800Y121800D02*
X66300D01*
X58300Y131700D02*
Y133200D01*
X59800D01*
X66300Y131700D02*
Y133200D01*
X64800D02*
X66300D01*
X58300Y121800D02*
X59800D01*
X58300D02*
Y123300D01*
X60174Y165631D02*
Y167131D01*
X58674D02*
X60174D01*
X52174Y155731D02*
X53674D01*
X52174D02*
Y157231D01*
X58674Y155731D02*
X60174D01*
Y157231D01*
X52174Y167131D02*
X53674D01*
X52174Y165631D02*
Y167131D01*
X1674Y161038D02*
Y162538D01*
Y161038D02*
X3174D01*
X8174Y172438D02*
X9674D01*
Y170938D02*
Y172438D01*
X1674D02*
X3174D01*
X1674Y170938D02*
Y172438D01*
X8174Y161038D02*
X9674D01*
Y162538D01*
X11674Y157238D02*
Y158738D01*
X10174D02*
X11674D01*
X3674Y147338D02*
X5174D01*
X3674D02*
Y148838D01*
X10174Y147338D02*
X11674D01*
Y148838D01*
X3674Y158738D02*
X5174D01*
X3674Y157238D02*
Y158738D01*
X35774Y165631D02*
Y167131D01*
X34274D02*
X35774D01*
X27774Y155731D02*
X29274D01*
X27774D02*
Y157231D01*
X34274Y155731D02*
X35774D01*
Y157231D01*
X27774Y167131D02*
X29274D01*
X27774Y165631D02*
Y167131D01*
X44074Y165631D02*
Y167131D01*
X42574D02*
X44074D01*
X36074Y155731D02*
X37574D01*
X36074D02*
Y157231D01*
X42574Y155731D02*
X44074D01*
Y157231D01*
X36074Y167131D02*
X37574D01*
X36074Y165631D02*
Y167131D01*
X52174Y165631D02*
Y167131D01*
X50674D02*
X52174D01*
X44174Y155731D02*
X45674D01*
X44174D02*
Y157231D01*
X50674Y155731D02*
X52174D01*
Y157231D01*
X44174Y167131D02*
X45674D01*
X44174Y165631D02*
Y167131D01*
X68174Y165631D02*
Y167131D01*
X66674D02*
X68174D01*
X60174Y155731D02*
X61674D01*
X60174D02*
Y157231D01*
X66674Y155731D02*
X68174D01*
Y157231D01*
X60174Y167131D02*
X61674D01*
X60174Y165631D02*
Y167131D01*
X74200Y131700D02*
Y133200D01*
X75700D01*
X82200Y121800D02*
Y123300D01*
X80700Y121800D02*
X82200D01*
X74200D02*
Y123300D01*
Y121800D02*
X75700D01*
X80700Y133200D02*
X82200D01*
Y131700D02*
Y133200D01*
X80700Y86600D02*
Y88100D01*
Y86600D02*
X82200D01*
X87200Y98000D02*
X88700D01*
Y96500D02*
Y98000D01*
X80700D02*
X82200D01*
X80700Y96500D02*
Y98000D01*
X87200Y86600D02*
X88700D01*
Y88100D01*
X82286Y169900D02*
Y171400D01*
Y169900D02*
X83786D01*
X88786Y181300D02*
X90286D01*
Y179800D02*
Y181300D01*
X82286D02*
X83786D01*
X82286Y179800D02*
Y181300D01*
X88786Y169900D02*
X90286D01*
Y171400D01*
X37386Y49793D02*
Y51293D01*
X35886D02*
X37386D01*
X29386Y39893D02*
X30886D01*
X29386D02*
Y41392D01*
X35886Y39893D02*
X37386D01*
Y41392D01*
X29386Y51293D02*
X30886D01*
X29386Y49793D02*
Y51293D01*
X47800Y18207D02*
Y19707D01*
X46300D02*
X47800D01*
X39800Y8307D02*
X41300D01*
X39800D02*
Y9807D01*
X46300Y8307D02*
X47800D01*
Y9807D01*
X39800Y19707D02*
X41300D01*
X39800Y18207D02*
Y19707D01*
X28500Y110600D02*
Y112100D01*
X27000Y110600D02*
X28500D01*
X20500Y120500D02*
Y122000D01*
X22000D01*
X28500Y120500D02*
Y122000D01*
X27000D02*
X28500D01*
X20500Y110600D02*
X22000D01*
X20500D02*
Y112100D01*
X28500Y98400D02*
Y99900D01*
X27000Y98400D02*
X28500D01*
X20500Y108300D02*
Y109800D01*
X22000D01*
X28500Y108300D02*
Y109800D01*
X27000D02*
X28500D01*
X20500Y98400D02*
X22000D01*
X20500D02*
Y99900D01*
X5934Y98291D02*
X9083D01*
X5934Y109709D02*
X9083D01*
X5934Y106953D02*
Y109709D01*
Y98291D02*
Y101047D01*
Y111091D02*
X9083D01*
X5934Y122509D02*
X9083D01*
X5934Y119753D02*
Y122509D01*
Y111091D02*
Y113847D01*
D14*
X10971Y154088D02*
X11971D01*
X10971Y164088D02*
X11971D01*
X10971Y154088D02*
Y164088D01*
D15*
X46357Y56080D02*
X47357D01*
X46857Y55580D02*
Y56580D01*
D16*
X23400Y66000D02*
D03*
M02*
