G04*
G04 #@! TF.GenerationSoftware,Altium Limited,Altium Designer,24.5.2 (23)*
G04*
G04 Layer_Physical_Order=2*
G04 Layer_Color=16711680*
%FSLAX25Y25*%
%MOIN*%
G70*
G04*
G04 #@! TF.SameCoordinates,31991F0E-98CA-4A4E-B794-B5AF52ABA4E1*
G04*
G04*
G04 #@! TF.FilePolarity,Positive*
G04*
G01*
G75*
%ADD11C,0.01000*%
%ADD25C,0.03937*%
%ADD45C,0.00800*%
%ADD48C,0.03150*%
%ADD50C,0.01500*%
%ADD51C,0.22441*%
%ADD52R,0.06890X0.06890*%
%ADD53C,0.06890*%
%ADD54R,0.06890X0.06890*%
%ADD55C,0.04200*%
%ADD56R,0.04200X0.04200*%
G36*
X73189Y206575D02*
X72514Y206161D01*
X70851Y204740D01*
X69430Y203076D01*
X68287Y201211D01*
X67450Y199190D01*
X66939Y197063D01*
X66767Y194882D01*
X66780Y194722D01*
X65996Y194479D01*
X65641Y195095D01*
X64850Y195885D01*
X63883Y196444D01*
X62803Y196733D01*
X61685D01*
X60606Y196444D01*
X59638Y195885D01*
X58847Y195095D01*
X58289Y194127D01*
X57999Y193047D01*
Y191929D01*
X58289Y190850D01*
X58847Y189882D01*
X59638Y189091D01*
X60606Y188533D01*
X61685Y188243D01*
X62803D01*
X63883Y188533D01*
X64850Y189091D01*
X65641Y189882D01*
X66200Y190850D01*
X66390Y191560D01*
X67215Y191549D01*
X67450Y190574D01*
X68287Y188553D01*
X69430Y186687D01*
X70851Y185024D01*
X72514Y183603D01*
X74379Y182460D01*
X76401Y181623D01*
X78528Y181112D01*
X80709Y180940D01*
X82890Y181112D01*
X85017Y181623D01*
X87038Y182460D01*
X88903Y183603D01*
X90567Y185024D01*
X91988Y186687D01*
X92374Y187319D01*
X93174Y187093D01*
Y37404D01*
X92374Y37204D01*
X92221Y37492D01*
X91459Y38420D01*
X90530Y39182D01*
X89471Y39748D01*
X88321Y40097D01*
X87126Y40215D01*
X85931Y40097D01*
X84781Y39748D01*
X83722Y39182D01*
X82793Y38420D01*
X82031Y37492D01*
X81465Y36432D01*
X81116Y35283D01*
X80999Y34087D01*
X81116Y32892D01*
X81465Y31743D01*
X82031Y30683D01*
X82793Y29755D01*
X83722Y28993D01*
X84781Y28427D01*
X85931Y28078D01*
X87126Y27960D01*
X88321Y28078D01*
X89471Y28427D01*
X90530Y28993D01*
X91459Y29755D01*
X92221Y30683D01*
X92374Y30971D01*
X93174Y30771D01*
Y21568D01*
X92374Y21342D01*
X91988Y21974D01*
X90567Y23638D01*
X88903Y25058D01*
X87038Y26201D01*
X85017Y27039D01*
X82890Y27549D01*
X80709Y27721D01*
X78528Y27549D01*
X76401Y27039D01*
X74379Y26201D01*
X72514Y25058D01*
X70851Y23638D01*
X69430Y21974D01*
X68287Y20109D01*
X67450Y18088D01*
X66939Y15960D01*
X66767Y13780D01*
X66939Y11599D01*
X67450Y9471D01*
X68287Y7450D01*
X69430Y5585D01*
X70851Y3921D01*
X72514Y2501D01*
X73126Y2125D01*
X72901Y1326D01*
X21587D01*
X21362Y2125D01*
X21974Y2501D01*
X23638Y3921D01*
X25058Y5585D01*
X26201Y7450D01*
X27039Y9471D01*
X27549Y11599D01*
X27721Y13780D01*
X27549Y15960D01*
X27039Y18088D01*
X26201Y20109D01*
X25058Y21974D01*
X23638Y23638D01*
X21974Y25058D01*
X20109Y26201D01*
X18088Y27039D01*
X15960Y27549D01*
X13780Y27721D01*
X11599Y27549D01*
X9471Y27039D01*
X7450Y26201D01*
X5585Y25058D01*
X3921Y23638D01*
X2501Y21974D01*
X2125Y21362D01*
X1326Y21587D01*
Y187074D01*
X2125Y187300D01*
X2501Y186687D01*
X3921Y185024D01*
X5585Y183603D01*
X7450Y182460D01*
X9471Y181623D01*
X11599Y181112D01*
X13780Y180940D01*
X15081Y181043D01*
X15438Y180269D01*
X7835Y172665D01*
X7570Y172268D01*
X7476Y171800D01*
Y145800D01*
X7570Y145332D01*
X7835Y144935D01*
X21476Y131293D01*
Y27537D01*
X21570Y27069D01*
X21835Y26672D01*
X29872Y18635D01*
X30269Y18370D01*
X30737Y18277D01*
X44709D01*
X44869Y18170D01*
X45337Y18077D01*
X61563D01*
X62031Y18170D01*
X62428Y18435D01*
X70565Y26572D01*
X70830Y26969D01*
X70924Y27437D01*
Y84793D01*
X71965Y85835D01*
X72230Y86232D01*
X72324Y86700D01*
Y90800D01*
X72230Y91268D01*
X71965Y91665D01*
X70960Y92671D01*
X70946Y92689D01*
X70917Y92739D01*
X70889Y92801D01*
X70862Y92876D01*
X70838Y92965D01*
X70817Y93070D01*
X70802Y93191D01*
X70793Y93326D01*
X70790Y93496D01*
X70775Y93568D01*
Y93972D01*
X70413Y94845D01*
X69745Y95513D01*
X68872Y95875D01*
X67928D01*
X67055Y95513D01*
X66387Y94845D01*
X66280Y94588D01*
X65480Y94748D01*
Y100520D01*
X81997D01*
X82325Y100029D01*
Y99084D01*
X82687Y98211D01*
X83355Y97543D01*
X84228Y97182D01*
X85172D01*
X86045Y97543D01*
X86713Y98211D01*
X87075Y99084D01*
Y100029D01*
X87403Y100520D01*
X89600D01*
X90205Y100640D01*
X90718Y100982D01*
X91060Y101495D01*
X91180Y102100D01*
Y150450D01*
X91189Y150518D01*
X91204Y150603D01*
X91221Y150671D01*
X91239Y150723D01*
X91254Y150759D01*
X91267Y150781D01*
X91273Y150790D01*
X91308Y150829D01*
X91338Y150880D01*
X91613Y151155D01*
X91975Y152028D01*
Y152972D01*
X91613Y153845D01*
X90945Y154513D01*
X90072Y154875D01*
X89128D01*
X88255Y154513D01*
X87587Y153845D01*
X87225Y152972D01*
Y152028D01*
X87587Y151155D01*
X87862Y150880D01*
X87892Y150829D01*
X87927Y150790D01*
X87933Y150781D01*
X87946Y150759D01*
X87961Y150723D01*
X87979Y150671D01*
X87996Y150603D01*
X88009Y150529D01*
X88020Y150419D01*
Y103680D01*
X63900D01*
X63295Y103560D01*
X62783Y103217D01*
X62440Y102705D01*
X62320Y102100D01*
Y45080D01*
X52250D01*
X52182Y45089D01*
X52097Y45104D01*
X52029Y45121D01*
X51977Y45139D01*
X51941Y45155D01*
X51919Y45167D01*
X51910Y45173D01*
X51871Y45208D01*
X51820Y45238D01*
X51545Y45513D01*
X50672Y45875D01*
X49728D01*
X48855Y45513D01*
X48187Y44845D01*
X47825Y43972D01*
Y43028D01*
X48187Y42155D01*
X48855Y41487D01*
X49728Y41125D01*
X50672D01*
X51545Y41487D01*
X51820Y41762D01*
X51871Y41792D01*
X51910Y41827D01*
X51919Y41833D01*
X51941Y41846D01*
X51977Y41861D01*
X52029Y41879D01*
X52097Y41896D01*
X52171Y41909D01*
X52281Y41920D01*
X63900D01*
X64505Y42040D01*
X65017Y42382D01*
X65360Y42895D01*
X65480Y43500D01*
Y88060D01*
X66280Y88219D01*
X66286Y88206D01*
X66425Y88067D01*
X66519Y87943D01*
X66691Y87684D01*
X66747Y87583D01*
X66795Y87484D01*
X66832Y87395D01*
X66857Y87317D01*
X66873Y87251D01*
X66877Y87226D01*
Y68363D01*
Y34554D01*
X66076Y34340D01*
X65641Y35095D01*
X64850Y35885D01*
X63883Y36444D01*
X62803Y36733D01*
X61685D01*
X60606Y36444D01*
X59638Y35885D01*
X58847Y35095D01*
X58289Y34127D01*
X57999Y33047D01*
Y31929D01*
X58289Y30850D01*
X58847Y29882D01*
X59638Y29091D01*
X60606Y28533D01*
X61685Y28243D01*
X62803D01*
X63883Y28533D01*
X64850Y29091D01*
X65641Y29882D01*
X66076Y30636D01*
X66877Y30422D01*
Y28607D01*
X60393Y22124D01*
X46428D01*
X46268Y22230D01*
X45800Y22323D01*
X31907D01*
X25523Y28707D01*
Y132600D01*
X25430Y133068D01*
X25165Y133465D01*
X11524Y147107D01*
Y170631D01*
X17770Y176876D01*
X23300D01*
X23768Y176970D01*
X24165Y177235D01*
X25571Y178640D01*
X25589Y178654D01*
X25639Y178683D01*
X25701Y178711D01*
X25776Y178738D01*
X25865Y178762D01*
X25970Y178783D01*
X26091Y178798D01*
X26226Y178807D01*
X26396Y178810D01*
X26469Y178825D01*
X26872D01*
X27745Y179187D01*
X28413Y179855D01*
X28775Y180728D01*
Y181672D01*
X28413Y182545D01*
X27745Y183213D01*
X27413Y183351D01*
X27225Y184295D01*
X29205Y186274D01*
X42780D01*
X43066Y185474D01*
X42893Y185333D01*
X42131Y184404D01*
X41565Y183345D01*
X41216Y182195D01*
X41099Y181000D01*
X41216Y179805D01*
X41565Y178655D01*
X42131Y177596D01*
X42893Y176667D01*
X43822Y175905D01*
X44881Y175339D01*
X46031Y174990D01*
X47226Y174873D01*
X48421Y174990D01*
X49571Y175339D01*
X50630Y175905D01*
X51559Y176667D01*
X52321Y177596D01*
X52887Y178655D01*
X53236Y179805D01*
X53310Y180561D01*
X54117Y180589D01*
X54411Y179879D01*
X55079Y179211D01*
X55952Y178849D01*
X56896D01*
X57769Y179211D01*
X58437Y179879D01*
X58799Y180752D01*
Y181696D01*
X58437Y182569D01*
X57769Y183237D01*
X56896Y183599D01*
X56493D01*
X56420Y183614D01*
X56250Y183617D01*
X56115Y183626D01*
X55994Y183641D01*
X55889Y183662D01*
X55800Y183686D01*
X55725Y183713D01*
X55663Y183741D01*
X55613Y183770D01*
X55595Y183784D01*
X51935Y187443D01*
X52266Y188243D01*
X52803D01*
X53883Y188533D01*
X54851Y189091D01*
X55641Y189882D01*
X56200Y190850D01*
X56489Y191929D01*
Y193047D01*
X56200Y194127D01*
X55641Y195095D01*
X54851Y195885D01*
X53883Y196444D01*
X52803Y196733D01*
X51685D01*
X50606Y196444D01*
X49638Y195885D01*
X48847Y195095D01*
X48289Y194127D01*
X47999Y193047D01*
Y191929D01*
X48289Y190850D01*
X48847Y189882D01*
X49208Y189521D01*
X48876Y188721D01*
X45612D01*
X45280Y189521D01*
X45641Y189882D01*
X46200Y190850D01*
X46489Y191929D01*
Y193047D01*
X46200Y194127D01*
X45641Y195095D01*
X44851Y195885D01*
X43883Y196444D01*
X42803Y196733D01*
X41685D01*
X40606Y196444D01*
X39638Y195885D01*
X38847Y195095D01*
X38289Y194127D01*
X37999Y193047D01*
Y191929D01*
X38289Y190850D01*
X38847Y189882D01*
X39208Y189521D01*
X38876Y188721D01*
X36489D01*
Y196733D01*
X28245Y196733D01*
X27826Y196932D01*
X27487Y197321D01*
X27039Y199190D01*
X26201Y201211D01*
X25058Y203076D01*
X23638Y204740D01*
X21974Y206161D01*
X21299Y206575D01*
X21524Y207375D01*
X72964D01*
X73189Y206575D01*
D02*
G37*
G36*
X55059Y183164D02*
X55168Y183086D01*
X55286Y183017D01*
X55415Y182957D01*
X55555Y182907D01*
X55705Y182867D01*
X55865Y182835D01*
X56036Y182814D01*
X56217Y182801D01*
X56408Y182799D01*
X54849Y181240D01*
X54847Y181431D01*
X54834Y181612D01*
X54813Y181783D01*
X54782Y181943D01*
X54741Y182093D01*
X54691Y182233D01*
X54631Y182362D01*
X54562Y182480D01*
X54484Y182589D01*
X54396Y182686D01*
X54962Y183252D01*
X55059Y183164D01*
D02*
G37*
G36*
X26384Y179625D02*
X26193Y179622D01*
X26012Y179610D01*
X25841Y179589D01*
X25681Y179558D01*
X25531Y179517D01*
X25391Y179467D01*
X25262Y179407D01*
X25144Y179338D01*
X25036Y179260D01*
X24938Y179172D01*
X24372Y179738D01*
X24460Y179835D01*
X24538Y179944D01*
X24607Y180062D01*
X24667Y180191D01*
X24717Y180331D01*
X24757Y180481D01*
X24789Y180641D01*
X24810Y180812D01*
X24823Y180993D01*
X24825Y181184D01*
X26384Y179625D01*
D02*
G37*
G36*
X90635Y151301D02*
X90575Y151217D01*
X90523Y151122D01*
X90477Y151017D01*
X90438Y150901D01*
X90406Y150776D01*
X90382Y150640D01*
X90364Y150494D01*
X90354Y150337D01*
X90350Y150170D01*
X88850D01*
X88846Y150337D01*
X88818Y150640D01*
X88794Y150776D01*
X88762Y150901D01*
X88723Y151017D01*
X88677Y151122D01*
X88625Y151217D01*
X88565Y151301D01*
X88498Y151375D01*
X90702D01*
X90635Y151301D01*
D02*
G37*
G36*
X86950Y101350D02*
X86665Y101335D01*
X86410Y101290D01*
X86185Y101215D01*
X85990Y101110D01*
X85825Y100975D01*
X85694Y100814D01*
X85735Y100756D01*
X85802Y100681D01*
X85621D01*
X85585Y100615D01*
X85510Y100390D01*
X85465Y100135D01*
X85450Y99850D01*
X83950D01*
X83935Y100135D01*
X83890Y100390D01*
X83815Y100615D01*
X83779Y100681D01*
X83598D01*
X83665Y100756D01*
X83706Y100814D01*
X83575Y100975D01*
X83410Y101110D01*
X83215Y101215D01*
X82990Y101290D01*
X82735Y101335D01*
X82450Y101350D01*
X84700Y102850D01*
X86950Y101350D01*
D02*
G37*
G36*
X69977Y93293D02*
X69990Y93112D01*
X70011Y92941D01*
X70043Y92781D01*
X70083Y92631D01*
X70133Y92491D01*
X70193Y92362D01*
X70262Y92244D01*
X70340Y92136D01*
X70428Y92038D01*
X69862Y91472D01*
X69765Y91560D01*
X69656Y91638D01*
X69538Y91707D01*
X69409Y91767D01*
X69269Y91817D01*
X69119Y91857D01*
X68959Y91889D01*
X68788Y91910D01*
X68607Y91922D01*
X68416Y91925D01*
X69975Y93484D01*
X69977Y93293D01*
D02*
G37*
G36*
X69250Y88297D02*
X69108Y88182D01*
X68980Y88065D01*
X68868Y87945D01*
X68770Y87823D01*
X68688Y87699D01*
X68620Y87573D01*
X68568Y87444D01*
X68530Y87313D01*
X68507Y87180D01*
X68500Y87045D01*
X67700Y87150D01*
X67694Y87276D01*
X67674Y87405D01*
X67643Y87539D01*
X67598Y87675D01*
X67541Y87816D01*
X67471Y87960D01*
X67388Y88109D01*
X67184Y88416D01*
X67063Y88575D01*
X69250Y88297D01*
D02*
G37*
G36*
X51399Y44535D02*
X51483Y44475D01*
X51578Y44423D01*
X51683Y44377D01*
X51799Y44338D01*
X51924Y44306D01*
X52060Y44282D01*
X52206Y44264D01*
X52363Y44254D01*
X52530Y44250D01*
Y42750D01*
X52363Y42746D01*
X52060Y42718D01*
X51924Y42694D01*
X51799Y42662D01*
X51683Y42623D01*
X51578Y42577D01*
X51483Y42524D01*
X51399Y42465D01*
X51325Y42398D01*
Y44602D01*
X51399Y44535D01*
D02*
G37*
%LPC*%
G36*
X90372Y181075D02*
X89428D01*
X88555Y180713D01*
X87887Y180045D01*
X87525Y179172D01*
Y178228D01*
X87747Y177691D01*
X87723Y177658D01*
X85786Y175721D01*
X63775Y153710D01*
X62975Y154041D01*
Y154472D01*
X62613Y155345D01*
X62328Y155631D01*
X62287Y155693D01*
X62169Y155815D01*
X62080Y155917D01*
X62005Y156013D01*
X61946Y156102D01*
X61899Y156182D01*
X61865Y156254D01*
X61842Y156318D01*
X61827Y156374D01*
X61823Y156396D01*
Y156800D01*
X61730Y157268D01*
X61465Y157665D01*
X60365Y158765D01*
X59968Y159030D01*
X59500Y159124D01*
X52800D01*
X52332Y159030D01*
X51935Y158765D01*
X50635Y157465D01*
X50370Y157068D01*
X50276Y156600D01*
X49477Y156229D01*
X49452Y156249D01*
X49424Y156316D01*
Y160200D01*
X49330Y160668D01*
X49065Y161065D01*
X45765Y164365D01*
X45368Y164630D01*
X44900Y164724D01*
X25256D01*
X25210Y164733D01*
X25154Y164754D01*
X25090Y164787D01*
X25017Y164838D01*
X24935Y164910D01*
X24844Y165008D01*
X24747Y165132D01*
X24645Y165285D01*
X24530Y165485D01*
X24480Y165542D01*
X24292Y165869D01*
X24110Y166051D01*
X23842Y166588D01*
X24110Y167126D01*
X24292Y167307D01*
X24674Y167969D01*
X24871Y168706D01*
Y169470D01*
X24674Y170208D01*
X24292Y170869D01*
X23752Y171409D01*
X23091Y171791D01*
X22353Y171988D01*
X21589D01*
X20852Y171791D01*
X20671Y171686D01*
X19871Y171988D01*
Y171988D01*
X14071D01*
Y166188D01*
X14071D01*
X14142Y165388D01*
X14083Y165285D01*
X13896Y164588D01*
X16971D01*
Y163588D01*
X13896D01*
X14083Y162892D01*
X14491Y162185D01*
X14558Y162118D01*
X15050Y161588D01*
X14558Y161058D01*
X14491Y160992D01*
X14083Y160285D01*
X13896Y159588D01*
X16971D01*
Y158588D01*
X13896D01*
X14083Y157892D01*
X14491Y157185D01*
X14696Y156979D01*
X15049Y156572D01*
X14686Y155904D01*
X14651Y155869D01*
X14269Y155208D01*
X14071Y154470D01*
Y153706D01*
X14269Y152969D01*
X14651Y152307D01*
X14832Y152126D01*
X15101Y151588D01*
X14832Y151051D01*
X14651Y150869D01*
X14269Y150207D01*
X14071Y149470D01*
Y148706D01*
X14269Y147969D01*
X14651Y147308D01*
X15191Y146768D01*
X15852Y146386D01*
X16590Y146188D01*
X17353D01*
X18091Y146386D01*
X18752Y146768D01*
X18934Y146949D01*
X19471Y147218D01*
X20009Y146949D01*
X20191Y146768D01*
X20852Y146386D01*
X21589Y146188D01*
X22353D01*
X23091Y146386D01*
X23752Y146768D01*
X23978Y146993D01*
X24040Y147034D01*
X24215Y147204D01*
X24369Y147340D01*
X24516Y147456D01*
X24654Y147551D01*
X24783Y147627D01*
X24901Y147684D01*
X25008Y147725D01*
X25104Y147752D01*
X25168Y147763D01*
X35808D01*
X36315Y147864D01*
X36745Y148151D01*
X39372Y150778D01*
X39392Y150793D01*
X39451Y150831D01*
X39514Y150864D01*
X39582Y150893D01*
X39658Y150918D01*
X39741Y150937D01*
X39834Y150952D01*
X39937Y150961D01*
X40076Y150964D01*
X40145Y150980D01*
X40546D01*
X41177Y151241D01*
X41976Y150853D01*
Y150600D01*
X42070Y150132D01*
X42335Y149735D01*
X44635Y147435D01*
X45032Y147170D01*
X45500Y147076D01*
X50400D01*
X50868Y147170D01*
X51265Y147435D01*
X53424Y149594D01*
X53441Y149606D01*
X53484Y149630D01*
X53536Y149653D01*
X53600Y149673D01*
X53678Y149690D01*
X53770Y149702D01*
X53878Y149709D01*
X53887Y149709D01*
X53904Y149702D01*
X54081D01*
X54161Y149696D01*
X54207Y149702D01*
X54849D01*
X55722Y150063D01*
X56390Y150731D01*
X56751Y151604D01*
Y152549D01*
X56390Y153422D01*
X55722Y154090D01*
X54849Y154451D01*
X53904D01*
X53523Y154294D01*
X52723Y154827D01*
Y156093D01*
X53307Y156676D01*
X58686D01*
X58755Y156632D01*
X58808Y156587D01*
X59084Y155876D01*
X59031Y155815D01*
X58913Y155693D01*
X58872Y155631D01*
X58587Y155345D01*
X58225Y154472D01*
Y153528D01*
X58587Y152655D01*
X59255Y151987D01*
X60128Y151625D01*
X60559D01*
X60890Y150825D01*
X33283Y123217D01*
X32940Y122705D01*
X32820Y122100D01*
Y120700D01*
Y41400D01*
X32940Y40795D01*
X33283Y40282D01*
X35669Y37896D01*
Y36733D01*
X27999D01*
Y28243D01*
X35669D01*
Y26951D01*
X35789Y26346D01*
X36132Y25833D01*
X38083Y23882D01*
X38595Y23540D01*
X39200Y23420D01*
X51300D01*
X51905Y23540D01*
X52417Y23882D01*
X53417Y24882D01*
X53760Y25395D01*
X53880Y26000D01*
Y27259D01*
X53911Y27431D01*
X53970Y27635D01*
X54058Y27856D01*
X54177Y28094D01*
X54329Y28347D01*
X54508Y28606D01*
X54994Y29197D01*
X55287Y29506D01*
X55324Y29565D01*
X55641Y29882D01*
X56200Y30850D01*
X56489Y31929D01*
Y33047D01*
X56200Y34127D01*
X55641Y35095D01*
X54851Y35885D01*
X53883Y36444D01*
X52803Y36733D01*
X51685D01*
X50606Y36444D01*
X49638Y35885D01*
X48847Y35095D01*
X48289Y34127D01*
X47999Y33047D01*
Y31929D01*
X48289Y30850D01*
X48847Y29882D01*
X49256Y29473D01*
X49299Y29410D01*
X49604Y29108D01*
X49860Y28828D01*
X50082Y28558D01*
X50269Y28300D01*
X50421Y28055D01*
X50541Y27824D01*
X50629Y27608D01*
X50688Y27408D01*
X50697Y27359D01*
X50262Y26580D01*
X39855D01*
X38830Y27605D01*
Y28768D01*
X39630Y29100D01*
X39638Y29091D01*
X40606Y28533D01*
X41685Y28243D01*
X42803D01*
X43883Y28533D01*
X44851Y29091D01*
X45641Y29882D01*
X46200Y30850D01*
X46489Y31929D01*
Y33047D01*
X46200Y34127D01*
X45641Y35095D01*
X44851Y35885D01*
X43883Y36444D01*
X43824Y36459D01*
Y36756D01*
X43704Y37361D01*
X43362Y37873D01*
X40773Y40462D01*
X40667Y40621D01*
X38280Y43007D01*
Y120493D01*
X88265Y170477D01*
X88555Y170187D01*
X89428Y169825D01*
X90372D01*
X91245Y170187D01*
X91913Y170855D01*
X92275Y171728D01*
Y172672D01*
X91913Y173545D01*
X91245Y174213D01*
X90372Y174575D01*
X90241D01*
X89910Y175375D01*
X91018Y176482D01*
X91119Y176635D01*
X91245Y176687D01*
X91913Y177355D01*
X92275Y178228D01*
Y179172D01*
X91913Y180045D01*
X91245Y180713D01*
X90372Y181075D01*
D02*
G37*
G36*
X73372Y151275D02*
X72428D01*
X71555Y150913D01*
X70887Y150245D01*
X70525Y149372D01*
Y148428D01*
X70887Y147555D01*
X71555Y146887D01*
X72428Y146525D01*
X73372D01*
X74245Y146887D01*
X74529Y147170D01*
X74589Y147209D01*
X74689Y147305D01*
X74768Y147371D01*
X74844Y147426D01*
X74918Y147471D01*
X74988Y147507D01*
X75057Y147535D01*
X75125Y147556D01*
X75194Y147571D01*
X75195Y147572D01*
X80674Y142092D01*
Y113718D01*
X80671Y113693D01*
X80656Y113625D01*
X80635Y113557D01*
X80607Y113488D01*
X80571Y113418D01*
X80526Y113344D01*
X80471Y113268D01*
X80405Y113189D01*
X80309Y113089D01*
X80270Y113029D01*
X79987Y112745D01*
X79625Y111872D01*
Y110928D01*
X79987Y110055D01*
X80655Y109387D01*
X81528Y109025D01*
X82472D01*
X83345Y109387D01*
X84013Y110055D01*
X84375Y110928D01*
Y111872D01*
X84013Y112745D01*
X83730Y113029D01*
X83691Y113089D01*
X83595Y113189D01*
X83529Y113268D01*
X83474Y113344D01*
X83429Y113418D01*
X83393Y113488D01*
X83365Y113557D01*
X83344Y113625D01*
X83329Y113693D01*
X83325Y113718D01*
Y142641D01*
X83225Y143148D01*
X82937Y143578D01*
X76678Y149837D01*
X76248Y150125D01*
X75741Y150225D01*
X75218D01*
X75194Y150229D01*
X75125Y150244D01*
X75057Y150265D01*
X74988Y150293D01*
X74918Y150329D01*
X74844Y150374D01*
X74768Y150429D01*
X74689Y150495D01*
X74589Y150591D01*
X74529Y150630D01*
X74245Y150913D01*
X73372Y151275D01*
D02*
G37*
G36*
X17845Y95445D02*
X13900D01*
Y91500D01*
X17845D01*
Y95445D01*
D02*
G37*
G36*
X12900D02*
X8955D01*
Y91500D01*
X12900D01*
Y95445D01*
D02*
G37*
G36*
X17845Y90500D02*
X13900D01*
Y86555D01*
X17845D01*
Y90500D01*
D02*
G37*
G36*
X12900D02*
X8955D01*
Y86555D01*
X12900D01*
Y90500D01*
D02*
G37*
G36*
X13959Y85245D02*
X12841D01*
X11761Y84956D01*
X10794Y84397D01*
X10003Y83606D01*
X9444Y82639D01*
X9155Y81559D01*
Y80441D01*
X9444Y79361D01*
X10003Y78394D01*
X10794Y77603D01*
X11761Y77044D01*
X12841Y76755D01*
X13959D01*
X15039Y77044D01*
X16006Y77603D01*
X16797Y78394D01*
X17356Y79361D01*
X17645Y80441D01*
Y81559D01*
X17356Y82639D01*
X16797Y83606D01*
X16006Y84397D01*
X15039Y84956D01*
X13959Y85245D01*
D02*
G37*
G36*
Y75245D02*
X12841D01*
X11761Y74956D01*
X10794Y74397D01*
X10003Y73606D01*
X9444Y72638D01*
X9155Y71559D01*
Y70441D01*
X9444Y69362D01*
X10003Y68394D01*
X10794Y67603D01*
X11761Y67044D01*
X12841Y66755D01*
X13959D01*
X15039Y67044D01*
X16006Y67603D01*
X16797Y68394D01*
X17356Y69362D01*
X17645Y70441D01*
Y71559D01*
X17356Y72638D01*
X16797Y73606D01*
X16006Y74397D01*
X15039Y74956D01*
X13959Y75245D01*
D02*
G37*
G36*
Y65245D02*
X12841D01*
X11761Y64956D01*
X10794Y64397D01*
X10003Y63606D01*
X9444Y62638D01*
X9155Y61559D01*
Y60441D01*
X9444Y59361D01*
X10003Y58394D01*
X10794Y57603D01*
X11761Y57044D01*
X12841Y56755D01*
X13959D01*
X15039Y57044D01*
X16006Y57603D01*
X16797Y58394D01*
X17356Y59361D01*
X17645Y60441D01*
Y61559D01*
X17356Y62638D01*
X16797Y63606D01*
X16006Y64397D01*
X15039Y64956D01*
X13959Y65245D01*
D02*
G37*
G36*
Y55245D02*
X12841D01*
X11761Y54956D01*
X10794Y54397D01*
X10003Y53606D01*
X9444Y52639D01*
X9155Y51559D01*
Y50441D01*
X9444Y49362D01*
X10003Y48394D01*
X10794Y47603D01*
X11761Y47044D01*
X12841Y46755D01*
X13959D01*
X15039Y47044D01*
X16006Y47603D01*
X16797Y48394D01*
X17356Y49362D01*
X17645Y50441D01*
Y51559D01*
X17356Y52639D01*
X16797Y53606D01*
X16006Y54397D01*
X15039Y54956D01*
X13959Y55245D01*
D02*
G37*
G36*
Y45245D02*
X12841D01*
X11761Y44956D01*
X10794Y44397D01*
X10003Y43606D01*
X9444Y42638D01*
X9155Y41559D01*
Y40441D01*
X9444Y39362D01*
X10003Y38394D01*
X10794Y37603D01*
X11761Y37044D01*
X12841Y36755D01*
X13959D01*
X15039Y37044D01*
X16006Y37603D01*
X16797Y38394D01*
X17356Y39362D01*
X17645Y40441D01*
Y41559D01*
X17356Y42638D01*
X16797Y43606D01*
X16006Y44397D01*
X15039Y44956D01*
X13959Y45245D01*
D02*
G37*
%LPD*%
G36*
X90605Y177292D02*
X89344Y175983D01*
X88138Y176899D01*
X88254Y177021D01*
X88354Y177139D01*
X88436Y177252D01*
X88502Y177360D01*
X88550Y177463D01*
X88582Y177562D01*
X88597Y177656D01*
X88594Y177745D01*
X88575Y177829D01*
X88538Y177909D01*
X90605Y177292D01*
D02*
G37*
G36*
X23951Y164855D02*
X24085Y164655D01*
X24223Y164478D01*
X24366Y164324D01*
X24513Y164195D01*
X24666Y164089D01*
X24823Y164006D01*
X24985Y163947D01*
X25151Y163912D01*
X25323Y163900D01*
X25084Y163100D01*
X24958Y163092D01*
X24814Y163066D01*
X24652Y163024D01*
X24471Y162965D01*
X24054Y162796D01*
X23563Y162560D01*
X22999Y162257D01*
X23823Y165079D01*
X23951Y164855D01*
D02*
G37*
G36*
X23678Y160355D02*
X24075Y160012D01*
X24266Y159873D01*
X24451Y159756D01*
X24630Y159659D01*
X24804Y159584D01*
X24973Y159531D01*
X25135Y159499D01*
X25293Y159488D01*
Y158688D01*
X25135Y158677D01*
X24973Y158645D01*
X24804Y158592D01*
X24630Y158517D01*
X24451Y158421D01*
X24266Y158303D01*
X24075Y158164D01*
X23879Y158003D01*
X23471Y157618D01*
Y160558D01*
X23678Y160355D01*
D02*
G37*
G36*
X61007Y156337D02*
X61028Y156205D01*
X61063Y156072D01*
X61112Y155939D01*
X61176Y155805D01*
X61253Y155670D01*
X61344Y155535D01*
X61449Y155399D01*
X61569Y155262D01*
X61702Y155125D01*
X59498D01*
X59631Y155262D01*
X59750Y155399D01*
X59856Y155535D01*
X59947Y155670D01*
X60024Y155805D01*
X60088Y155939D01*
X60137Y156072D01*
X60172Y156205D01*
X60193Y156337D01*
X60200Y156468D01*
X61000D01*
X61007Y156337D01*
D02*
G37*
G36*
X48607Y155691D02*
X48628Y155559D01*
X48663Y155427D01*
X48712Y155293D01*
X48776Y155159D01*
X48853Y155025D01*
X48944Y154889D01*
X49049Y154753D01*
X49169Y154616D01*
X49302Y154479D01*
X47098D01*
X47231Y154616D01*
X47350Y154753D01*
X47456Y154889D01*
X47547Y155025D01*
X47624Y155159D01*
X47688Y155293D01*
X47737Y155427D01*
X47772Y155559D01*
X47793Y155691D01*
X47800Y155823D01*
X48600D01*
X48607Y155691D01*
D02*
G37*
G36*
X23678Y155355D02*
X24075Y155013D01*
X24266Y154873D01*
X24451Y154756D01*
X24630Y154659D01*
X24804Y154585D01*
X24973Y154531D01*
X25135Y154499D01*
X25293Y154488D01*
Y153688D01*
X25135Y153677D01*
X24973Y153645D01*
X24804Y153592D01*
X24630Y153517D01*
X24451Y153421D01*
X24266Y153303D01*
X24075Y153164D01*
X23879Y153003D01*
X23471Y152618D01*
Y155558D01*
X23678Y155355D01*
D02*
G37*
G36*
X40058Y151780D02*
X39893Y151776D01*
X39734Y151762D01*
X39582Y151738D01*
X39437Y151703D01*
X39298Y151658D01*
X39166Y151603D01*
X39040Y151537D01*
X38921Y151461D01*
X38809Y151374D01*
X38704Y151277D01*
X37996Y151984D01*
X38094Y152090D01*
X38180Y152202D01*
X38256Y152321D01*
X38322Y152446D01*
X38378Y152578D01*
X38423Y152717D01*
X38458Y152863D01*
X38482Y153015D01*
X38496Y153173D01*
X38499Y153339D01*
X40058Y151780D01*
D02*
G37*
G36*
X54219Y150509D02*
X54034Y150523D01*
X53859Y150525D01*
X53692Y150515D01*
X53535Y150494D01*
X53388Y150461D01*
X53250Y150417D01*
X53122Y150362D01*
X53003Y150295D01*
X52893Y150217D01*
X52793Y150127D01*
X52280Y150745D01*
X52365Y150840D01*
X52443Y150946D01*
X52514Y151064D01*
X52578Y151192D01*
X52634Y151332D01*
X52683Y151484D01*
X52725Y151646D01*
X52760Y151820D01*
X52807Y152202D01*
X54219Y150509D01*
D02*
G37*
G36*
X23660Y150374D02*
X24032Y150064D01*
X24215Y149937D01*
X24396Y149831D01*
X24575Y149743D01*
X24752Y149676D01*
X24927Y149627D01*
X25100Y149598D01*
X25271Y149588D01*
Y148588D01*
X25100Y148579D01*
X24927Y148549D01*
X24752Y148501D01*
X24575Y148433D01*
X24396Y148346D01*
X24215Y148239D01*
X24032Y148113D01*
X23847Y147967D01*
X23660Y147802D01*
X23471Y147618D01*
Y150558D01*
X23660Y150374D01*
D02*
G37*
G36*
X42996Y36585D02*
X43028Y36171D01*
X43047Y36067D01*
X43070Y35979D01*
X43097Y35908D01*
X43128Y35855D01*
X43164Y35817D01*
X43204Y35797D01*
X41284D01*
X41324Y35817D01*
X41360Y35855D01*
X41391Y35908D01*
X41418Y35979D01*
X41442Y36067D01*
X41460Y36171D01*
X41475Y36292D01*
X41492Y36585D01*
X41494Y36756D01*
X42994D01*
X42996Y36585D01*
D02*
G37*
G36*
X54382Y29738D02*
X53856Y29098D01*
X53642Y28789D01*
X53461Y28486D01*
X53313Y28190D01*
X53198Y27900D01*
X53116Y27617D01*
X53066Y27341D01*
X53050Y27072D01*
X51550Y27047D01*
X51533Y27320D01*
X51483Y27597D01*
X51399Y27879D01*
X51282Y28166D01*
X51131Y28458D01*
X50946Y28755D01*
X50728Y29056D01*
X50477Y29362D01*
X50192Y29673D01*
X49873Y29989D01*
X54695Y30068D01*
X54382Y29738D01*
D02*
G37*
G36*
X74144Y149888D02*
X74266Y149785D01*
X74391Y149695D01*
X74518Y149617D01*
X74648Y149551D01*
X74781Y149496D01*
X74916Y149454D01*
X75054Y149424D01*
X75195Y149406D01*
X75338Y149400D01*
Y148400D01*
X75195Y148394D01*
X75054Y148376D01*
X74916Y148346D01*
X74781Y148304D01*
X74648Y148249D01*
X74518Y148183D01*
X74391Y148105D01*
X74266Y148014D01*
X74144Y147912D01*
X74025Y147798D01*
Y150002D01*
X74144Y149888D01*
D02*
G37*
G36*
X82506Y113695D02*
X82524Y113554D01*
X82554Y113416D01*
X82596Y113281D01*
X82651Y113148D01*
X82717Y113018D01*
X82795Y112891D01*
X82885Y112766D01*
X82988Y112644D01*
X83102Y112525D01*
X80898D01*
X81012Y112644D01*
X81115Y112766D01*
X81205Y112891D01*
X81283Y113018D01*
X81349Y113148D01*
X81404Y113281D01*
X81446Y113416D01*
X81476Y113554D01*
X81494Y113695D01*
X81500Y113838D01*
X82500D01*
X82506Y113695D01*
D02*
G37*
D11*
X35808Y149088D02*
X40074Y153355D01*
X21971Y149088D02*
X35808D01*
X75741Y148900D02*
X82000Y142641D01*
Y111400D02*
Y142641D01*
X72900Y148900D02*
X75741D01*
D25*
X87126Y34087D02*
D03*
X47226Y181000D02*
D03*
D45*
X10300Y171137D02*
X17263Y178100D01*
X23300D02*
X26400Y181200D01*
X17263Y178100D02*
X23300D01*
X8700Y145800D02*
Y171800D01*
Y145800D02*
X22700Y131800D01*
X16600Y179700D02*
X17200D01*
X8700Y171800D02*
X16600Y179700D01*
X17300Y179800D02*
X21000D01*
X17200Y179700D02*
X17300Y179800D01*
X10300Y146600D02*
Y171137D01*
X28698Y187498D02*
X49918D01*
X21000Y179800D02*
X28698Y187498D01*
X68100Y89400D02*
X68275Y89575D01*
X68100Y68363D02*
Y89400D01*
X68275Y89575D02*
X68299Y89552D01*
X10300Y146600D02*
X24300Y132600D01*
Y28200D02*
Y132600D01*
X22700Y27537D02*
Y131800D01*
X68400Y93500D02*
X71100Y90800D01*
Y86700D02*
Y90800D01*
X69700Y85300D02*
X71100Y86700D01*
X69700Y27437D02*
Y85300D01*
X68100Y28100D02*
Y68363D01*
X60900Y20900D02*
X68100Y28100D01*
X30737Y19500D02*
X45137D01*
X45337Y19300D02*
X61563D01*
X22700Y27537D02*
X30737Y19500D01*
X45137D02*
X45337Y19300D01*
X61563D02*
X69700Y27437D01*
X49918Y187498D02*
X50015Y187400D01*
X50248D01*
X56424Y181224D01*
X24300Y28200D02*
X31400Y21100D01*
X45800D01*
X46000Y20900D01*
X60900D01*
X60600Y154000D02*
Y156800D01*
X59500Y157900D02*
X60600Y156800D01*
X52800Y157900D02*
X59500D01*
X51500Y156600D02*
X52800Y157900D01*
X51500Y152200D02*
Y156600D01*
X49400Y150100D02*
X51500Y152200D01*
X46500Y150100D02*
X49400D01*
X50400Y148300D02*
X54176Y152076D01*
X45500Y148300D02*
X50400D01*
X43200Y150600D02*
X45500Y148300D01*
X45000Y151600D02*
X46500Y150100D01*
X45000Y151600D02*
Y158300D01*
X44212Y159088D02*
X45000Y158300D01*
X43200Y150600D02*
Y156100D01*
X42400Y156900D02*
X43200Y156100D01*
X21971Y159088D02*
X44212D01*
X21971Y164088D02*
X22559Y163500D01*
X44900D01*
X48200Y160200D01*
Y153355D02*
Y160200D01*
X54176Y152076D02*
X54376D01*
X37000Y156900D02*
X42400D01*
X34188Y154088D02*
X37000Y156900D01*
X21971Y154088D02*
X34188D01*
D48*
X29232Y198461D02*
D03*
X26772Y203382D02*
D03*
X90748Y95114D02*
D03*
Y85272D02*
D03*
X88287Y80350D02*
D03*
X90748Y75429D02*
D03*
Y65587D02*
D03*
X88287Y60665D02*
D03*
X90748Y55744D02*
D03*
X88287Y50823D02*
D03*
X90748Y45902D02*
D03*
Y26217D02*
D03*
X85827Y114799D02*
D03*
X83366Y80350D02*
D03*
X85827Y65587D02*
D03*
Y55744D02*
D03*
X83366Y50823D02*
D03*
X85827Y45902D02*
D03*
X83366Y40980D02*
D03*
X78445Y60665D02*
D03*
X80905Y55744D02*
D03*
X78445Y50823D02*
D03*
X80905Y45902D02*
D03*
X78445Y40980D02*
D03*
Y31138D02*
D03*
X75984Y55744D02*
D03*
X73524Y50823D02*
D03*
X75984Y45902D02*
D03*
X73524Y40980D02*
D03*
X75984Y36059D02*
D03*
X73524Y31138D02*
D03*
X66142Y203382D02*
D03*
X63681Y198461D02*
D03*
X61221Y203382D02*
D03*
X58760Y198461D02*
D03*
X61221Y104957D02*
D03*
X58760Y100035D02*
D03*
Y90193D02*
D03*
X56299Y203382D02*
D03*
X53839Y198461D02*
D03*
X56299Y104957D02*
D03*
X53839Y100035D02*
D03*
X56299Y95114D02*
D03*
X53839Y90193D02*
D03*
X51378Y203382D02*
D03*
X48917Y198461D02*
D03*
X51378Y144327D02*
D03*
Y104957D02*
D03*
X48917Y90193D02*
D03*
X46457Y203382D02*
D03*
X43996Y198461D02*
D03*
Y168933D02*
D03*
Y119720D02*
D03*
X41535Y203382D02*
D03*
X39075Y198461D02*
D03*
Y178776D02*
D03*
X41535Y134484D02*
D03*
Y114799D02*
D03*
X36614Y203382D02*
D03*
X34154Y198461D02*
D03*
X36614Y173854D02*
D03*
X31693Y203382D02*
D03*
X29232Y139406D02*
D03*
X31693Y134484D02*
D03*
X29232Y129563D02*
D03*
X31693Y124642D02*
D03*
X29232Y119720D02*
D03*
Y80350D02*
D03*
X19390Y119720D02*
D03*
Y109878D02*
D03*
Y80350D02*
D03*
Y40980D02*
D03*
Y31138D02*
D03*
X16929Y55744D02*
D03*
Y45902D02*
D03*
Y36059D02*
D03*
X14469Y31138D02*
D03*
X9547Y178776D02*
D03*
Y139406D02*
D03*
Y129563D02*
D03*
Y31138D02*
D03*
X4626Y178776D02*
D03*
Y139406D02*
D03*
X7087Y134484D02*
D03*
X4626Y129563D02*
D03*
X7087Y124642D02*
D03*
Y36059D02*
D03*
X4626Y31138D02*
D03*
X89600Y152500D02*
D03*
X84700Y99557D02*
D03*
X50200Y43500D02*
D03*
X68299Y89552D02*
D03*
X87900Y158500D02*
D03*
X48100Y169200D02*
D03*
X89900Y172200D02*
D03*
Y178700D02*
D03*
X68400Y93500D02*
D03*
X56424Y181224D02*
D03*
X26400Y181200D02*
D03*
X69374Y97488D02*
D03*
X84800Y84200D02*
D03*
X49200Y97600D02*
D03*
X60600Y154000D02*
D03*
X54376Y152076D02*
D03*
X48200Y153355D02*
D03*
X40074D02*
D03*
X91300Y164000D02*
D03*
X68600Y181700D02*
D03*
X72000Y120100D02*
D03*
X86319Y118893D02*
D03*
X82000Y111400D02*
D03*
X72900Y148900D02*
D03*
X27441Y56213D02*
D03*
X86902Y7587D02*
D03*
X74516D02*
D03*
Y19972D02*
D03*
X86902D02*
D03*
X89468Y13780D02*
D03*
X71949D02*
D03*
X80709Y5020D02*
D03*
Y22539D02*
D03*
X86902Y188689D02*
D03*
X74516D02*
D03*
Y201075D02*
D03*
X86902D02*
D03*
X89468Y194882D02*
D03*
X71949D02*
D03*
X80709Y186122D02*
D03*
Y203642D02*
D03*
X19972Y188689D02*
D03*
X7587D02*
D03*
Y201075D02*
D03*
X19972D02*
D03*
X22539Y194882D02*
D03*
X5020D02*
D03*
X13780Y186122D02*
D03*
Y203642D02*
D03*
X19972Y7587D02*
D03*
X7587D02*
D03*
Y19972D02*
D03*
X19972D02*
D03*
X22539Y13780D02*
D03*
X5020D02*
D03*
X13780Y5020D02*
D03*
Y22539D02*
D03*
D50*
X24141Y185699D02*
G03*
X27099Y196045I-12879J9278D01*
G01*
X27099Y196045D02*
G03*
X27100Y196876I-6252J422D01*
G01*
D02*
G03*
X26300Y202910I-45783J-3000D01*
G01*
X14409Y180409D02*
G03*
X14559Y180417I-629J12755D01*
G01*
X19508Y181750D02*
G03*
X21244Y182802I-5729J11413D01*
G01*
X26300Y202910D02*
X26772Y203382D01*
X15792Y181650D02*
X16392D01*
X14559Y180417D02*
X15792Y181650D01*
X21244Y182802D02*
X24141Y185699D01*
X16392Y181650D02*
X16492Y181750D01*
X19508D01*
X12800Y178800D02*
X14409Y180409D01*
X87700Y175400D02*
X89900Y177600D01*
Y178700D01*
X86904Y174604D02*
X87700Y175400D01*
X34400Y120700D02*
Y122100D01*
X86904Y174604D01*
X34400Y41400D02*
Y120700D01*
X89600Y102100D02*
Y152500D01*
X84700Y102100D02*
X89600D01*
X84700Y99557D02*
Y102100D01*
X63900D02*
X84700D01*
X63900Y43500D02*
Y102100D01*
X50200Y43500D02*
X63900D01*
X87857Y172304D02*
X89796D01*
X36700Y121147D02*
X87857Y172304D01*
X36700Y42353D02*
Y121147D01*
X89796Y172304D02*
X89900Y172200D01*
X36700Y42353D02*
X39549Y39503D01*
Y39451D02*
Y39503D01*
Y39451D02*
X42244Y36756D01*
Y32488D02*
Y36756D01*
X37249Y34557D02*
Y38551D01*
X34400Y41400D02*
X37249Y38551D01*
X52244Y32488D02*
X52300Y32432D01*
Y26000D02*
Y32432D01*
X51300Y25000D02*
X52300Y26000D01*
X39200Y25000D02*
X51300D01*
X37249Y26951D02*
X39200Y25000D01*
X37249Y26951D02*
Y34557D01*
D51*
X13780Y194882D02*
D03*
X14028Y13780D02*
D03*
X80709D02*
D03*
Y194882D02*
D03*
D52*
X13400Y91000D02*
D03*
D53*
Y81000D02*
D03*
Y71000D02*
D03*
Y61000D02*
D03*
Y51000D02*
D03*
Y41000D02*
D03*
X62244Y192488D02*
D03*
X52244D02*
D03*
X42244D02*
D03*
Y32488D02*
D03*
X52244D02*
D03*
X62244D02*
D03*
D54*
X32244Y192488D02*
D03*
Y32488D02*
D03*
D55*
X21971Y159088D02*
D03*
X16971D02*
D03*
Y164088D02*
D03*
Y154088D02*
D03*
Y149088D02*
D03*
X21971Y154088D02*
D03*
Y149088D02*
D03*
Y164088D02*
D03*
Y169088D02*
D03*
D56*
X16971D02*
D03*
M02*
