G04*
G04 #@! TF.GenerationSoftware,Altium Limited,Altium Designer,24.5.2 (23)*
G04*
G04 Layer_Color=2752767*
%FSLAX25Y25*%
%MOIN*%
G70*
G04*
G04 #@! TF.SameCoordinates,31991F0E-98CA-4A4E-B794-B5AF52ABA4E1*
G04*
G04*
G04 #@! TF.FilePolarity,Positive*
G04*
G01*
G75*
%ADD13C,0.00500*%
%ADD58C,0.00667*%
D13*
X13780Y192882D02*
X11779Y196882D01*
X15779D01*
X13780Y192882D01*
X19971Y157088D02*
Y161088D01*
X23971D01*
Y157088D01*
X19971D01*
X14971D02*
Y161088D01*
X18971D01*
Y157088D01*
X14971D01*
Y162088D02*
Y166088D01*
X18971D01*
Y162088D01*
X14971D01*
Y167088D02*
Y171088D01*
X18971D01*
Y167088D01*
X14971D01*
Y152088D02*
Y156088D01*
X18971D01*
Y152088D01*
X14971D01*
Y147088D02*
Y151088D01*
X18971D01*
Y147088D01*
X14971D01*
X19971Y152088D02*
Y156088D01*
X23971D01*
Y152088D01*
X19971D01*
Y147088D02*
Y151088D01*
X23971D01*
Y147088D01*
X19971D01*
Y162088D02*
Y166088D01*
X23971D01*
Y162088D01*
X19971D01*
Y167088D02*
Y171088D01*
X23971D01*
Y167088D01*
X19971D01*
X14028Y11779D02*
X12028Y15779D01*
X16028D01*
X14028Y11779D01*
X80709D02*
X78709Y15779D01*
X82709D01*
X80709Y11779D01*
Y192882D02*
X78709Y196882D01*
X82709D01*
X80709Y192882D01*
X29232Y196461D02*
X30232Y197461D01*
X31232D01*
X30232Y198461D01*
X31232Y199461D01*
X30232D01*
X29232Y200461D01*
X28232Y199461D01*
X27232D01*
X28232Y198461D01*
X27232Y197461D01*
X28232D01*
X29232Y196461D01*
X26772Y201382D02*
X27772Y202382D01*
X28772D01*
X27772Y203382D01*
X28772Y204382D01*
X27772D01*
X26772Y205382D01*
X25772Y204382D01*
X24772D01*
X25772Y203382D01*
X24772Y202382D01*
X25772D01*
X26772Y201382D01*
X90748Y93114D02*
X91748Y94114D01*
X92748D01*
X91748Y95114D01*
X92748Y96114D01*
X91748D01*
X90748Y97114D01*
X89748Y96114D01*
X88748D01*
X89748Y95114D01*
X88748Y94114D01*
X89748D01*
X90748Y93114D01*
Y83272D02*
X91748Y84272D01*
X92748D01*
X91748Y85272D01*
X92748Y86272D01*
X91748D01*
X90748Y87272D01*
X89748Y86272D01*
X88748D01*
X89748Y85272D01*
X88748Y84272D01*
X89748D01*
X90748Y83272D01*
X88287Y78350D02*
X89287Y79350D01*
X90287D01*
X89287Y80350D01*
X90287Y81350D01*
X89287D01*
X88287Y82350D01*
X87287Y81350D01*
X86287D01*
X87287Y80350D01*
X86287Y79350D01*
X87287D01*
X88287Y78350D01*
X90748Y73429D02*
X91748Y74429D01*
X92748D01*
X91748Y75429D01*
X92748Y76429D01*
X91748D01*
X90748Y77429D01*
X89748Y76429D01*
X88748D01*
X89748Y75429D01*
X88748Y74429D01*
X89748D01*
X90748Y73429D01*
Y63587D02*
X91748Y64587D01*
X92748D01*
X91748Y65587D01*
X92748Y66587D01*
X91748D01*
X90748Y67587D01*
X89748Y66587D01*
X88748D01*
X89748Y65587D01*
X88748Y64587D01*
X89748D01*
X90748Y63587D01*
X88287Y58665D02*
X89287Y59665D01*
X90287D01*
X89287Y60665D01*
X90287Y61665D01*
X89287D01*
X88287Y62665D01*
X87287Y61665D01*
X86287D01*
X87287Y60665D01*
X86287Y59665D01*
X87287D01*
X88287Y58665D01*
X90748Y53744D02*
X91748Y54744D01*
X92748D01*
X91748Y55744D01*
X92748Y56744D01*
X91748D01*
X90748Y57744D01*
X89748Y56744D01*
X88748D01*
X89748Y55744D01*
X88748Y54744D01*
X89748D01*
X90748Y53744D01*
X88287Y48823D02*
X89287Y49823D01*
X90287D01*
X89287Y50823D01*
X90287Y51823D01*
X89287D01*
X88287Y52823D01*
X87287Y51823D01*
X86287D01*
X87287Y50823D01*
X86287Y49823D01*
X87287D01*
X88287Y48823D01*
X90748Y43902D02*
X91748Y44902D01*
X92748D01*
X91748Y45902D01*
X92748Y46902D01*
X91748D01*
X90748Y47902D01*
X89748Y46902D01*
X88748D01*
X89748Y45902D01*
X88748Y44902D01*
X89748D01*
X90748Y43902D01*
Y24216D02*
X91748Y25216D01*
X92748D01*
X91748Y26217D01*
X92748Y27217D01*
X91748D01*
X90748Y28216D01*
X89748Y27217D01*
X88748D01*
X89748Y26217D01*
X88748Y25216D01*
X89748D01*
X90748Y24216D01*
X85827Y112799D02*
X86827Y113799D01*
X87827D01*
X86827Y114799D01*
X87827Y115799D01*
X86827D01*
X85827Y116799D01*
X84827Y115799D01*
X83827D01*
X84827Y114799D01*
X83827Y113799D01*
X84827D01*
X85827Y112799D01*
X83366Y78350D02*
X84366Y79350D01*
X85366D01*
X84366Y80350D01*
X85366Y81350D01*
X84366D01*
X83366Y82350D01*
X82366Y81350D01*
X81366D01*
X82366Y80350D01*
X81366Y79350D01*
X82366D01*
X83366Y78350D01*
X85827Y63587D02*
X86827Y64587D01*
X87827D01*
X86827Y65587D01*
X87827Y66587D01*
X86827D01*
X85827Y67587D01*
X84827Y66587D01*
X83827D01*
X84827Y65587D01*
X83827Y64587D01*
X84827D01*
X85827Y63587D01*
Y53744D02*
X86827Y54744D01*
X87827D01*
X86827Y55744D01*
X87827Y56744D01*
X86827D01*
X85827Y57744D01*
X84827Y56744D01*
X83827D01*
X84827Y55744D01*
X83827Y54744D01*
X84827D01*
X85827Y53744D01*
X83366Y48823D02*
X84366Y49823D01*
X85366D01*
X84366Y50823D01*
X85366Y51823D01*
X84366D01*
X83366Y52823D01*
X82366Y51823D01*
X81366D01*
X82366Y50823D01*
X81366Y49823D01*
X82366D01*
X83366Y48823D01*
X85827Y43902D02*
X86827Y44902D01*
X87827D01*
X86827Y45902D01*
X87827Y46902D01*
X86827D01*
X85827Y47902D01*
X84827Y46902D01*
X83827D01*
X84827Y45902D01*
X83827Y44902D01*
X84827D01*
X85827Y43902D01*
X83366Y38980D02*
X84366Y39980D01*
X85366D01*
X84366Y40980D01*
X85366Y41980D01*
X84366D01*
X83366Y42980D01*
X82366Y41980D01*
X81366D01*
X82366Y40980D01*
X81366Y39980D01*
X82366D01*
X83366Y38980D01*
X78445Y58665D02*
X79445Y59665D01*
X80445D01*
X79445Y60665D01*
X80445Y61665D01*
X79445D01*
X78445Y62665D01*
X77445Y61665D01*
X76445D01*
X77445Y60665D01*
X76445Y59665D01*
X77445D01*
X78445Y58665D01*
X80905Y53744D02*
X81906Y54744D01*
X82906D01*
X81906Y55744D01*
X82906Y56744D01*
X81906D01*
X80905Y57744D01*
X79905Y56744D01*
X78905D01*
X79905Y55744D01*
X78905Y54744D01*
X79905D01*
X80905Y53744D01*
X78445Y48823D02*
X79445Y49823D01*
X80445D01*
X79445Y50823D01*
X80445Y51823D01*
X79445D01*
X78445Y52823D01*
X77445Y51823D01*
X76445D01*
X77445Y50823D01*
X76445Y49823D01*
X77445D01*
X78445Y48823D01*
X80905Y43902D02*
X81906Y44902D01*
X82906D01*
X81906Y45902D01*
X82906Y46902D01*
X81906D01*
X80905Y47902D01*
X79905Y46902D01*
X78905D01*
X79905Y45902D01*
X78905Y44902D01*
X79905D01*
X80905Y43902D01*
X78445Y38980D02*
X79445Y39980D01*
X80445D01*
X79445Y40980D01*
X80445Y41980D01*
X79445D01*
X78445Y42980D01*
X77445Y41980D01*
X76445D01*
X77445Y40980D01*
X76445Y39980D01*
X77445D01*
X78445Y38980D01*
Y29138D02*
X79445Y30138D01*
X80445D01*
X79445Y31138D01*
X80445Y32138D01*
X79445D01*
X78445Y33138D01*
X77445Y32138D01*
X76445D01*
X77445Y31138D01*
X76445Y30138D01*
X77445D01*
X78445Y29138D01*
X75984Y53744D02*
X76984Y54744D01*
X77984D01*
X76984Y55744D01*
X77984Y56744D01*
X76984D01*
X75984Y57744D01*
X74984Y56744D01*
X73984D01*
X74984Y55744D01*
X73984Y54744D01*
X74984D01*
X75984Y53744D01*
X73524Y48823D02*
X74524Y49823D01*
X75524D01*
X74524Y50823D01*
X75524Y51823D01*
X74524D01*
X73524Y52823D01*
X72524Y51823D01*
X71524D01*
X72524Y50823D01*
X71524Y49823D01*
X72524D01*
X73524Y48823D01*
X75984Y43902D02*
X76984Y44902D01*
X77984D01*
X76984Y45902D01*
X77984Y46902D01*
X76984D01*
X75984Y47902D01*
X74984Y46902D01*
X73984D01*
X74984Y45902D01*
X73984Y44902D01*
X74984D01*
X75984Y43902D01*
X73524Y38980D02*
X74524Y39980D01*
X75524D01*
X74524Y40980D01*
X75524Y41980D01*
X74524D01*
X73524Y42980D01*
X72524Y41980D01*
X71524D01*
X72524Y40980D01*
X71524Y39980D01*
X72524D01*
X73524Y38980D01*
X75984Y34059D02*
X76984Y35059D01*
X77984D01*
X76984Y36059D01*
X77984Y37059D01*
X76984D01*
X75984Y38059D01*
X74984Y37059D01*
X73984D01*
X74984Y36059D01*
X73984Y35059D01*
X74984D01*
X75984Y34059D01*
X73524Y29138D02*
X74524Y30138D01*
X75524D01*
X74524Y31138D01*
X75524Y32138D01*
X74524D01*
X73524Y33138D01*
X72524Y32138D01*
X71524D01*
X72524Y31138D01*
X71524Y30138D01*
X72524D01*
X73524Y29138D01*
X66142Y201382D02*
X67142Y202382D01*
X68142D01*
X67142Y203382D01*
X68142Y204382D01*
X67142D01*
X66142Y205382D01*
X65142Y204382D01*
X64142D01*
X65142Y203382D01*
X64142Y202382D01*
X65142D01*
X66142Y201382D01*
X63681Y196461D02*
X64681Y197461D01*
X65681D01*
X64681Y198461D01*
X65681Y199461D01*
X64681D01*
X63681Y200461D01*
X62681Y199461D01*
X61681D01*
X62681Y198461D01*
X61681Y197461D01*
X62681D01*
X63681Y196461D01*
X61221Y201382D02*
X62221Y202382D01*
X63221D01*
X62221Y203382D01*
X63221Y204382D01*
X62221D01*
X61221Y205382D01*
X60220Y204382D01*
X59220D01*
X60220Y203382D01*
X59220Y202382D01*
X60220D01*
X61221Y201382D01*
X58760Y196461D02*
X59760Y197461D01*
X60760D01*
X59760Y198461D01*
X60760Y199461D01*
X59760D01*
X58760Y200461D01*
X57760Y199461D01*
X56760D01*
X57760Y198461D01*
X56760Y197461D01*
X57760D01*
X58760Y196461D01*
X61221Y102957D02*
X62221Y103957D01*
X63221D01*
X62221Y104957D01*
X63221Y105957D01*
X62221D01*
X61221Y106957D01*
X60220Y105957D01*
X59220D01*
X60220Y104957D01*
X59220Y103957D01*
X60220D01*
X61221Y102957D01*
X58760Y98035D02*
X59760Y99035D01*
X60760D01*
X59760Y100035D01*
X60760Y101035D01*
X59760D01*
X58760Y102035D01*
X57760Y101035D01*
X56760D01*
X57760Y100035D01*
X56760Y99035D01*
X57760D01*
X58760Y98035D01*
Y88193D02*
X59760Y89193D01*
X60760D01*
X59760Y90193D01*
X60760Y91193D01*
X59760D01*
X58760Y92193D01*
X57760Y91193D01*
X56760D01*
X57760Y90193D01*
X56760Y89193D01*
X57760D01*
X58760Y88193D01*
X56299Y201382D02*
X57299Y202382D01*
X58299D01*
X57299Y203382D01*
X58299Y204382D01*
X57299D01*
X56299Y205382D01*
X55299Y204382D01*
X54299D01*
X55299Y203382D01*
X54299Y202382D01*
X55299D01*
X56299Y201382D01*
X53839Y196461D02*
X54839Y197461D01*
X55839D01*
X54839Y198461D01*
X55839Y199461D01*
X54839D01*
X53839Y200461D01*
X52839Y199461D01*
X51839D01*
X52839Y198461D01*
X51839Y197461D01*
X52839D01*
X53839Y196461D01*
X56299Y102957D02*
X57299Y103957D01*
X58299D01*
X57299Y104957D01*
X58299Y105957D01*
X57299D01*
X56299Y106957D01*
X55299Y105957D01*
X54299D01*
X55299Y104957D01*
X54299Y103957D01*
X55299D01*
X56299Y102957D01*
X53839Y98035D02*
X54839Y99035D01*
X55839D01*
X54839Y100035D01*
X55839Y101035D01*
X54839D01*
X53839Y102035D01*
X52839Y101035D01*
X51839D01*
X52839Y100035D01*
X51839Y99035D01*
X52839D01*
X53839Y98035D01*
X56299Y93114D02*
X57299Y94114D01*
X58299D01*
X57299Y95114D01*
X58299Y96114D01*
X57299D01*
X56299Y97114D01*
X55299Y96114D01*
X54299D01*
X55299Y95114D01*
X54299Y94114D01*
X55299D01*
X56299Y93114D01*
X53839Y88193D02*
X54839Y89193D01*
X55839D01*
X54839Y90193D01*
X55839Y91193D01*
X54839D01*
X53839Y92193D01*
X52839Y91193D01*
X51839D01*
X52839Y90193D01*
X51839Y89193D01*
X52839D01*
X53839Y88193D01*
X51378Y201382D02*
X52378Y202382D01*
X53378D01*
X52378Y203382D01*
X53378Y204382D01*
X52378D01*
X51378Y205382D01*
X50378Y204382D01*
X49378D01*
X50378Y203382D01*
X49378Y202382D01*
X50378D01*
X51378Y201382D01*
X48917Y196461D02*
X49917Y197461D01*
X50917D01*
X49917Y198461D01*
X50917Y199461D01*
X49917D01*
X48917Y200461D01*
X47917Y199461D01*
X46917D01*
X47917Y198461D01*
X46917Y197461D01*
X47917D01*
X48917Y196461D01*
X51378Y142327D02*
X52378Y143327D01*
X53378D01*
X52378Y144327D01*
X53378Y145327D01*
X52378D01*
X51378Y146327D01*
X50378Y145327D01*
X49378D01*
X50378Y144327D01*
X49378Y143327D01*
X50378D01*
X51378Y142327D01*
Y102957D02*
X52378Y103957D01*
X53378D01*
X52378Y104957D01*
X53378Y105957D01*
X52378D01*
X51378Y106957D01*
X50378Y105957D01*
X49378D01*
X50378Y104957D01*
X49378Y103957D01*
X50378D01*
X51378Y102957D01*
X48917Y88193D02*
X49917Y89193D01*
X50917D01*
X49917Y90193D01*
X50917Y91193D01*
X49917D01*
X48917Y92193D01*
X47917Y91193D01*
X46917D01*
X47917Y90193D01*
X46917Y89193D01*
X47917D01*
X48917Y88193D01*
X46457Y201382D02*
X47457Y202382D01*
X48457D01*
X47457Y203382D01*
X48457Y204382D01*
X47457D01*
X46457Y205382D01*
X45457Y204382D01*
X44457D01*
X45457Y203382D01*
X44457Y202382D01*
X45457D01*
X46457Y201382D01*
X43996Y196461D02*
X44996Y197461D01*
X45996D01*
X44996Y198461D01*
X45996Y199461D01*
X44996D01*
X43996Y200461D01*
X42996Y199461D01*
X41996D01*
X42996Y198461D01*
X41996Y197461D01*
X42996D01*
X43996Y196461D01*
Y166933D02*
X44996Y167933D01*
X45996D01*
X44996Y168933D01*
X45996Y169933D01*
X44996D01*
X43996Y170933D01*
X42996Y169933D01*
X41996D01*
X42996Y168933D01*
X41996Y167933D01*
X42996D01*
X43996Y166933D01*
Y117720D02*
X44996Y118720D01*
X45996D01*
X44996Y119720D01*
X45996Y120721D01*
X44996D01*
X43996Y121721D01*
X42996Y120721D01*
X41996D01*
X42996Y119720D01*
X41996Y118720D01*
X42996D01*
X43996Y117720D01*
X41535Y201382D02*
X42535Y202382D01*
X43535D01*
X42535Y203382D01*
X43535Y204382D01*
X42535D01*
X41535Y205382D01*
X40535Y204382D01*
X39535D01*
X40535Y203382D01*
X39535Y202382D01*
X40535D01*
X41535Y201382D01*
X39075Y196461D02*
X40075Y197461D01*
X41075D01*
X40075Y198461D01*
X41075Y199461D01*
X40075D01*
X39075Y200461D01*
X38075Y199461D01*
X37075D01*
X38075Y198461D01*
X37075Y197461D01*
X38075D01*
X39075Y196461D01*
Y176776D02*
X40075Y177776D01*
X41075D01*
X40075Y178776D01*
X41075Y179776D01*
X40075D01*
X39075Y180776D01*
X38075Y179776D01*
X37075D01*
X38075Y178776D01*
X37075Y177776D01*
X38075D01*
X39075Y176776D01*
X41535Y132484D02*
X42535Y133484D01*
X43535D01*
X42535Y134484D01*
X43535Y135484D01*
X42535D01*
X41535Y136484D01*
X40535Y135484D01*
X39535D01*
X40535Y134484D01*
X39535Y133484D01*
X40535D01*
X41535Y132484D01*
Y112799D02*
X42535Y113799D01*
X43535D01*
X42535Y114799D01*
X43535Y115799D01*
X42535D01*
X41535Y116799D01*
X40535Y115799D01*
X39535D01*
X40535Y114799D01*
X39535Y113799D01*
X40535D01*
X41535Y112799D01*
X36614Y201382D02*
X37614Y202382D01*
X38614D01*
X37614Y203382D01*
X38614Y204382D01*
X37614D01*
X36614Y205382D01*
X35614Y204382D01*
X34614D01*
X35614Y203382D01*
X34614Y202382D01*
X35614D01*
X36614Y201382D01*
X34154Y196461D02*
X35154Y197461D01*
X36154D01*
X35154Y198461D01*
X36154Y199461D01*
X35154D01*
X34154Y200461D01*
X33154Y199461D01*
X32154D01*
X33154Y198461D01*
X32154Y197461D01*
X33154D01*
X34154Y196461D01*
X36614Y171854D02*
X37614Y172854D01*
X38614D01*
X37614Y173854D01*
X38614Y174854D01*
X37614D01*
X36614Y175854D01*
X35614Y174854D01*
X34614D01*
X35614Y173854D01*
X34614Y172854D01*
X35614D01*
X36614Y171854D01*
X31693Y201382D02*
X32693Y202382D01*
X33693D01*
X32693Y203382D01*
X33693Y204382D01*
X32693D01*
X31693Y205382D01*
X30693Y204382D01*
X29693D01*
X30693Y203382D01*
X29693Y202382D01*
X30693D01*
X31693Y201382D01*
X29232Y137406D02*
X30232Y138406D01*
X31232D01*
X30232Y139406D01*
X31232Y140405D01*
X30232D01*
X29232Y141405D01*
X28232Y140405D01*
X27232D01*
X28232Y139406D01*
X27232Y138406D01*
X28232D01*
X29232Y137406D01*
X31693Y132484D02*
X32693Y133484D01*
X33693D01*
X32693Y134484D01*
X33693Y135484D01*
X32693D01*
X31693Y136484D01*
X30693Y135484D01*
X29693D01*
X30693Y134484D01*
X29693Y133484D01*
X30693D01*
X31693Y132484D01*
X29232Y127563D02*
X30232Y128563D01*
X31232D01*
X30232Y129563D01*
X31232Y130563D01*
X30232D01*
X29232Y131563D01*
X28232Y130563D01*
X27232D01*
X28232Y129563D01*
X27232Y128563D01*
X28232D01*
X29232Y127563D01*
X31693Y122642D02*
X32693Y123642D01*
X33693D01*
X32693Y124642D01*
X33693Y125642D01*
X32693D01*
X31693Y126642D01*
X30693Y125642D01*
X29693D01*
X30693Y124642D01*
X29693Y123642D01*
X30693D01*
X31693Y122642D01*
X29232Y117720D02*
X30232Y118720D01*
X31232D01*
X30232Y119720D01*
X31232Y120721D01*
X30232D01*
X29232Y121721D01*
X28232Y120721D01*
X27232D01*
X28232Y119720D01*
X27232Y118720D01*
X28232D01*
X29232Y117720D01*
Y78350D02*
X30232Y79350D01*
X31232D01*
X30232Y80350D01*
X31232Y81350D01*
X30232D01*
X29232Y82350D01*
X28232Y81350D01*
X27232D01*
X28232Y80350D01*
X27232Y79350D01*
X28232D01*
X29232Y78350D01*
X19390Y117720D02*
X20390Y118720D01*
X21390D01*
X20390Y119720D01*
X21390Y120721D01*
X20390D01*
X19390Y121721D01*
X18390Y120721D01*
X17390D01*
X18390Y119720D01*
X17390Y118720D01*
X18390D01*
X19390Y117720D01*
Y107878D02*
X20390Y108878D01*
X21390D01*
X20390Y109878D01*
X21390Y110878D01*
X20390D01*
X19390Y111878D01*
X18390Y110878D01*
X17390D01*
X18390Y109878D01*
X17390Y108878D01*
X18390D01*
X19390Y107878D01*
Y78350D02*
X20390Y79350D01*
X21390D01*
X20390Y80350D01*
X21390Y81350D01*
X20390D01*
X19390Y82350D01*
X18390Y81350D01*
X17390D01*
X18390Y80350D01*
X17390Y79350D01*
X18390D01*
X19390Y78350D01*
Y38980D02*
X20390Y39980D01*
X21390D01*
X20390Y40980D01*
X21390Y41980D01*
X20390D01*
X19390Y42980D01*
X18390Y41980D01*
X17390D01*
X18390Y40980D01*
X17390Y39980D01*
X18390D01*
X19390Y38980D01*
Y29138D02*
X20390Y30138D01*
X21390D01*
X20390Y31138D01*
X21390Y32138D01*
X20390D01*
X19390Y33138D01*
X18390Y32138D01*
X17390D01*
X18390Y31138D01*
X17390Y30138D01*
X18390D01*
X19390Y29138D01*
X16929Y53744D02*
X17929Y54744D01*
X18929D01*
X17929Y55744D01*
X18929Y56744D01*
X17929D01*
X16929Y57744D01*
X15929Y56744D01*
X14929D01*
X15929Y55744D01*
X14929Y54744D01*
X15929D01*
X16929Y53744D01*
Y43902D02*
X17929Y44902D01*
X18929D01*
X17929Y45902D01*
X18929Y46902D01*
X17929D01*
X16929Y47902D01*
X15929Y46902D01*
X14929D01*
X15929Y45902D01*
X14929Y44902D01*
X15929D01*
X16929Y43902D01*
Y34059D02*
X17929Y35059D01*
X18929D01*
X17929Y36059D01*
X18929Y37059D01*
X17929D01*
X16929Y38059D01*
X15929Y37059D01*
X14929D01*
X15929Y36059D01*
X14929Y35059D01*
X15929D01*
X16929Y34059D01*
X14469Y29138D02*
X15469Y30138D01*
X16468D01*
X15469Y31138D01*
X16468Y32138D01*
X15469D01*
X14469Y33138D01*
X13468Y32138D01*
X12468D01*
X13468Y31138D01*
X12468Y30138D01*
X13468D01*
X14469Y29138D01*
X9547Y176776D02*
X10547Y177776D01*
X11547D01*
X10547Y178776D01*
X11547Y179776D01*
X10547D01*
X9547Y180776D01*
X8547Y179776D01*
X7547D01*
X8547Y178776D01*
X7547Y177776D01*
X8547D01*
X9547Y176776D01*
Y137406D02*
X10547Y138406D01*
X11547D01*
X10547Y139406D01*
X11547Y140405D01*
X10547D01*
X9547Y141405D01*
X8547Y140405D01*
X7547D01*
X8547Y139406D01*
X7547Y138406D01*
X8547D01*
X9547Y137406D01*
Y127563D02*
X10547Y128563D01*
X11547D01*
X10547Y129563D01*
X11547Y130563D01*
X10547D01*
X9547Y131563D01*
X8547Y130563D01*
X7547D01*
X8547Y129563D01*
X7547Y128563D01*
X8547D01*
X9547Y127563D01*
Y29138D02*
X10547Y30138D01*
X11547D01*
X10547Y31138D01*
X11547Y32138D01*
X10547D01*
X9547Y33138D01*
X8547Y32138D01*
X7547D01*
X8547Y31138D01*
X7547Y30138D01*
X8547D01*
X9547Y29138D01*
X4626Y176776D02*
X5626Y177776D01*
X6626D01*
X5626Y178776D01*
X6626Y179776D01*
X5626D01*
X4626Y180776D01*
X3626Y179776D01*
X2626D01*
X3626Y178776D01*
X2626Y177776D01*
X3626D01*
X4626Y176776D01*
Y137406D02*
X5626Y138406D01*
X6626D01*
X5626Y139406D01*
X6626Y140405D01*
X5626D01*
X4626Y141405D01*
X3626Y140405D01*
X2626D01*
X3626Y139406D01*
X2626Y138406D01*
X3626D01*
X4626Y137406D01*
X7087Y132484D02*
X8087Y133484D01*
X9087D01*
X8087Y134484D01*
X9087Y135484D01*
X8087D01*
X7087Y136484D01*
X6087Y135484D01*
X5087D01*
X6087Y134484D01*
X5087Y133484D01*
X6087D01*
X7087Y132484D01*
X4626Y127563D02*
X5626Y128563D01*
X6626D01*
X5626Y129563D01*
X6626Y130563D01*
X5626D01*
X4626Y131563D01*
X3626Y130563D01*
X2626D01*
X3626Y129563D01*
X2626Y128563D01*
X3626D01*
X4626Y127563D01*
X7087Y122642D02*
X8087Y123642D01*
X9087D01*
X8087Y124642D01*
X9087Y125642D01*
X8087D01*
X7087Y126642D01*
X6087Y125642D01*
X5087D01*
X6087Y124642D01*
X5087Y123642D01*
X6087D01*
X7087Y122642D01*
Y34059D02*
X8087Y35059D01*
X9087D01*
X8087Y36059D01*
X9087Y37059D01*
X8087D01*
X7087Y38059D01*
X6087Y37059D01*
X5087D01*
X6087Y36059D01*
X5087Y35059D01*
X6087D01*
X7087Y34059D01*
X4626Y29138D02*
X5626Y30138D01*
X6626D01*
X5626Y31138D01*
X6626Y32138D01*
X5626D01*
X4626Y33138D01*
X3626Y32138D01*
X2626D01*
X3626Y31138D01*
X2626Y30138D01*
X3626D01*
X4626Y29138D01*
X89600Y150500D02*
X90600Y151500D01*
X91600D01*
X90600Y152500D01*
X91600Y153500D01*
X90600D01*
X89600Y154500D01*
X88600Y153500D01*
X87600D01*
X88600Y152500D01*
X87600Y151500D01*
X88600D01*
X89600Y150500D01*
X84700Y97557D02*
X85700Y98557D01*
X86700D01*
X85700Y99557D01*
X86700Y100557D01*
X85700D01*
X84700Y101557D01*
X83700Y100557D01*
X82700D01*
X83700Y99557D01*
X82700Y98557D01*
X83700D01*
X84700Y97557D01*
X50200Y41500D02*
X51200Y42500D01*
X52200D01*
X51200Y43500D01*
X52200Y44500D01*
X51200D01*
X50200Y45500D01*
X49200Y44500D01*
X48200D01*
X49200Y43500D01*
X48200Y42500D01*
X49200D01*
X50200Y41500D01*
X68299Y87552D02*
X69299Y88552D01*
X70299D01*
X69299Y89552D01*
X70299Y90552D01*
X69299D01*
X68299Y91552D01*
X67299Y90552D01*
X66299D01*
X67299Y89552D01*
X66299Y88552D01*
X67299D01*
X68299Y87552D01*
X87900Y156500D02*
X88900Y157500D01*
X89900D01*
X88900Y158500D01*
X89900Y159500D01*
X88900D01*
X87900Y160500D01*
X86900Y159500D01*
X85900D01*
X86900Y158500D01*
X85900Y157500D01*
X86900D01*
X87900Y156500D01*
X48100Y167200D02*
X49100Y168200D01*
X50100D01*
X49100Y169200D01*
X50100Y170200D01*
X49100D01*
X48100Y171200D01*
X47100Y170200D01*
X46100D01*
X47100Y169200D01*
X46100Y168200D01*
X47100D01*
X48100Y167200D01*
X89900Y170200D02*
X90900Y171200D01*
X91900D01*
X90900Y172200D01*
X91900Y173200D01*
X90900D01*
X89900Y174200D01*
X88900Y173200D01*
X87900D01*
X88900Y172200D01*
X87900Y171200D01*
X88900D01*
X89900Y170200D01*
Y176700D02*
X90900Y177700D01*
X91900D01*
X90900Y178700D01*
X91900Y179700D01*
X90900D01*
X89900Y180700D01*
X88900Y179700D01*
X87900D01*
X88900Y178700D01*
X87900Y177700D01*
X88900D01*
X89900Y176700D01*
X68400Y91500D02*
X69400Y92500D01*
X70400D01*
X69400Y93500D01*
X70400Y94500D01*
X69400D01*
X68400Y95500D01*
X67400Y94500D01*
X66400D01*
X67400Y93500D01*
X66400Y92500D01*
X67400D01*
X68400Y91500D01*
X56424Y179224D02*
X57424Y180224D01*
X58424D01*
X57424Y181224D01*
X58424Y182224D01*
X57424D01*
X56424Y183224D01*
X55424Y182224D01*
X54424D01*
X55424Y181224D01*
X54424Y180224D01*
X55424D01*
X56424Y179224D01*
X26400Y179200D02*
X27400Y180200D01*
X28400D01*
X27400Y181200D01*
X28400Y182200D01*
X27400D01*
X26400Y183200D01*
X25400Y182200D01*
X24400D01*
X25400Y181200D01*
X24400Y180200D01*
X25400D01*
X26400Y179200D01*
X69374Y95488D02*
X70374Y96488D01*
X71374D01*
X70374Y97488D01*
X71374Y98488D01*
X70374D01*
X69374Y99488D01*
X68374Y98488D01*
X67374D01*
X68374Y97488D01*
X67374Y96488D01*
X68374D01*
X69374Y95488D01*
X84800Y82200D02*
X85800Y83200D01*
X86800D01*
X85800Y84200D01*
X86800Y85200D01*
X85800D01*
X84800Y86200D01*
X83800Y85200D01*
X82800D01*
X83800Y84200D01*
X82800Y83200D01*
X83800D01*
X84800Y82200D01*
X49200Y95600D02*
X50200Y96600D01*
X51200D01*
X50200Y97600D01*
X51200Y98600D01*
X50200D01*
X49200Y99600D01*
X48200Y98600D01*
X47200D01*
X48200Y97600D01*
X47200Y96600D01*
X48200D01*
X49200Y95600D01*
X60600Y152000D02*
X61600Y153000D01*
X62600D01*
X61600Y154000D01*
X62600Y155000D01*
X61600D01*
X60600Y156000D01*
X59600Y155000D01*
X58600D01*
X59600Y154000D01*
X58600Y153000D01*
X59600D01*
X60600Y152000D01*
X54376Y150076D02*
X55376Y151076D01*
X56376D01*
X55376Y152076D01*
X56376Y153076D01*
X55376D01*
X54376Y154076D01*
X53376Y153076D01*
X52376D01*
X53376Y152076D01*
X52376Y151076D01*
X53376D01*
X54376Y150076D01*
X48200Y151355D02*
X49200Y152355D01*
X50200D01*
X49200Y153355D01*
X50200Y154355D01*
X49200D01*
X48200Y155354D01*
X47200Y154355D01*
X46200D01*
X47200Y153355D01*
X46200Y152355D01*
X47200D01*
X48200Y151355D01*
X40074D02*
X41074Y152355D01*
X42074D01*
X41074Y153355D01*
X42074Y154355D01*
X41074D01*
X40074Y155354D01*
X39074Y154355D01*
X38074D01*
X39074Y153355D01*
X38074Y152355D01*
X39074D01*
X40074Y151355D01*
X91300Y162000D02*
X92300Y163000D01*
X93300D01*
X92300Y164000D01*
X93300Y165000D01*
X92300D01*
X91300Y166000D01*
X90300Y165000D01*
X89300D01*
X90300Y164000D01*
X89300Y163000D01*
X90300D01*
X91300Y162000D01*
X68600Y179700D02*
X69600Y180700D01*
X70600D01*
X69600Y181700D01*
X70600Y182700D01*
X69600D01*
X68600Y183700D01*
X67600Y182700D01*
X66600D01*
X67600Y181700D01*
X66600Y180700D01*
X67600D01*
X68600Y179700D01*
X72000Y118100D02*
X73000Y119100D01*
X74000D01*
X73000Y120100D01*
X74000Y121100D01*
X73000D01*
X72000Y122100D01*
X71000Y121100D01*
X70000D01*
X71000Y120100D01*
X70000Y119100D01*
X71000D01*
X72000Y118100D01*
X86319Y116893D02*
X87319Y117893D01*
X88319D01*
X87319Y118893D01*
X88319Y119893D01*
X87319D01*
X86319Y120893D01*
X85319Y119893D01*
X84319D01*
X85319Y118893D01*
X84319Y117893D01*
X85319D01*
X86319Y116893D01*
X82000Y109400D02*
X83000Y110400D01*
X84000D01*
X83000Y111400D01*
X84000Y112400D01*
X83000D01*
X82000Y113400D01*
X81000Y112400D01*
X80000D01*
X81000Y111400D01*
X80000Y110400D01*
X81000D01*
X82000Y109400D01*
X72900Y146900D02*
X73900Y147900D01*
X74900D01*
X73900Y148900D01*
X74900Y149900D01*
X73900D01*
X72900Y150900D01*
X71900Y149900D01*
X70900D01*
X71900Y148900D01*
X70900Y147900D01*
X71900D01*
X72900Y146900D01*
X27441Y54213D02*
X28442Y55213D01*
X29441D01*
X28442Y56213D01*
X29441Y57213D01*
X28442D01*
X27441Y58213D01*
X26441Y57213D01*
X25442D01*
X26441Y56213D01*
X25442Y55213D01*
X26441D01*
X27441Y54213D01*
X86902Y5587D02*
X87902Y6587D01*
X88902D01*
X87902Y7587D01*
X88902Y8587D01*
X87902D01*
X86902Y9587D01*
X85902Y8587D01*
X84902D01*
X85902Y7587D01*
X84902Y6587D01*
X85902D01*
X86902Y5587D01*
X74516D02*
X75516Y6587D01*
X76516D01*
X75516Y7587D01*
X76516Y8587D01*
X75516D01*
X74516Y9587D01*
X73516Y8587D01*
X72516D01*
X73516Y7587D01*
X72516Y6587D01*
X73516D01*
X74516Y5587D01*
Y17972D02*
X75516Y18972D01*
X76516D01*
X75516Y19972D01*
X76516Y20972D01*
X75516D01*
X74516Y21972D01*
X73516Y20972D01*
X72516D01*
X73516Y19972D01*
X72516Y18972D01*
X73516D01*
X74516Y17972D01*
X86902D02*
X87902Y18972D01*
X88902D01*
X87902Y19972D01*
X88902Y20972D01*
X87902D01*
X86902Y21972D01*
X85902Y20972D01*
X84902D01*
X85902Y19972D01*
X84902Y18972D01*
X85902D01*
X86902Y17972D01*
X89468Y11779D02*
X90469Y12779D01*
X91469D01*
X90469Y13780D01*
X91469Y14780D01*
X90469D01*
X89468Y15779D01*
X88468Y14780D01*
X87468D01*
X88468Y13780D01*
X87468Y12779D01*
X88468D01*
X89468Y11779D01*
X71949D02*
X72949Y12779D01*
X73949D01*
X72949Y13780D01*
X73949Y14780D01*
X72949D01*
X71949Y15779D01*
X70949Y14780D01*
X69949D01*
X70949Y13780D01*
X69949Y12779D01*
X70949D01*
X71949Y11779D01*
X80709Y3020D02*
X81709Y4020D01*
X82709D01*
X81709Y5020D01*
X82709Y6020D01*
X81709D01*
X80709Y7020D01*
X79709Y6020D01*
X78709D01*
X79709Y5020D01*
X78709Y4020D01*
X79709D01*
X80709Y3020D01*
Y20539D02*
X81709Y21539D01*
X82709D01*
X81709Y22539D01*
X82709Y23539D01*
X81709D01*
X80709Y24539D01*
X79709Y23539D01*
X78709D01*
X79709Y22539D01*
X78709Y21539D01*
X79709D01*
X80709Y20539D01*
X86902Y186689D02*
X87902Y187689D01*
X88902D01*
X87902Y188689D01*
X88902Y189689D01*
X87902D01*
X86902Y190689D01*
X85902Y189689D01*
X84902D01*
X85902Y188689D01*
X84902Y187689D01*
X85902D01*
X86902Y186689D01*
X74516D02*
X75516Y187689D01*
X76516D01*
X75516Y188689D01*
X76516Y189689D01*
X75516D01*
X74516Y190689D01*
X73516Y189689D01*
X72516D01*
X73516Y188689D01*
X72516Y187689D01*
X73516D01*
X74516Y186689D01*
Y199075D02*
X75516Y200075D01*
X76516D01*
X75516Y201075D01*
X76516Y202075D01*
X75516D01*
X74516Y203075D01*
X73516Y202075D01*
X72516D01*
X73516Y201075D01*
X72516Y200075D01*
X73516D01*
X74516Y199075D01*
X86902D02*
X87902Y200075D01*
X88902D01*
X87902Y201075D01*
X88902Y202075D01*
X87902D01*
X86902Y203075D01*
X85902Y202075D01*
X84902D01*
X85902Y201075D01*
X84902Y200075D01*
X85902D01*
X86902Y199075D01*
X89468Y192882D02*
X90469Y193882D01*
X91469D01*
X90469Y194882D01*
X91469Y195882D01*
X90469D01*
X89468Y196882D01*
X88468Y195882D01*
X87468D01*
X88468Y194882D01*
X87468Y193882D01*
X88468D01*
X89468Y192882D01*
X71949D02*
X72949Y193882D01*
X73949D01*
X72949Y194882D01*
X73949Y195882D01*
X72949D01*
X71949Y196882D01*
X70949Y195882D01*
X69949D01*
X70949Y194882D01*
X69949Y193882D01*
X70949D01*
X71949Y192882D01*
X80709Y184122D02*
X81709Y185122D01*
X82709D01*
X81709Y186122D01*
X82709Y187122D01*
X81709D01*
X80709Y188122D01*
X79709Y187122D01*
X78709D01*
X79709Y186122D01*
X78709Y185122D01*
X79709D01*
X80709Y184122D01*
Y201642D02*
X81709Y202642D01*
X82709D01*
X81709Y203642D01*
X82709Y204642D01*
X81709D01*
X80709Y205642D01*
X79709Y204642D01*
X78709D01*
X79709Y203642D01*
X78709Y202642D01*
X79709D01*
X80709Y201642D01*
X19972Y186689D02*
X20972Y187689D01*
X21972D01*
X20972Y188689D01*
X21972Y189689D01*
X20972D01*
X19972Y190689D01*
X18972Y189689D01*
X17972D01*
X18972Y188689D01*
X17972Y187689D01*
X18972D01*
X19972Y186689D01*
X7587D02*
X8587Y187689D01*
X9587D01*
X8587Y188689D01*
X9587Y189689D01*
X8587D01*
X7587Y190689D01*
X6587Y189689D01*
X5587D01*
X6587Y188689D01*
X5587Y187689D01*
X6587D01*
X7587Y186689D01*
Y199075D02*
X8587Y200075D01*
X9587D01*
X8587Y201075D01*
X9587Y202075D01*
X8587D01*
X7587Y203075D01*
X6587Y202075D01*
X5587D01*
X6587Y201075D01*
X5587Y200075D01*
X6587D01*
X7587Y199075D01*
X19972D02*
X20972Y200075D01*
X21972D01*
X20972Y201075D01*
X21972Y202075D01*
X20972D01*
X19972Y203075D01*
X18972Y202075D01*
X17972D01*
X18972Y201075D01*
X17972Y200075D01*
X18972D01*
X19972Y199075D01*
X22539Y192882D02*
X23539Y193882D01*
X24539D01*
X23539Y194882D01*
X24539Y195882D01*
X23539D01*
X22539Y196882D01*
X21539Y195882D01*
X20539D01*
X21539Y194882D01*
X20539Y193882D01*
X21539D01*
X22539Y192882D01*
X5020D02*
X6020Y193882D01*
X7020D01*
X6020Y194882D01*
X7020Y195882D01*
X6020D01*
X5020Y196882D01*
X4020Y195882D01*
X3020D01*
X4020Y194882D01*
X3020Y193882D01*
X4020D01*
X5020Y192882D01*
X13780Y184122D02*
X14780Y185122D01*
X15779D01*
X14780Y186122D01*
X15779Y187122D01*
X14780D01*
X13780Y188122D01*
X12779Y187122D01*
X11779D01*
X12779Y186122D01*
X11779Y185122D01*
X12779D01*
X13780Y184122D01*
Y201642D02*
X14780Y202642D01*
X15779D01*
X14780Y203642D01*
X15779Y204642D01*
X14780D01*
X13780Y205642D01*
X12779Y204642D01*
X11779D01*
X12779Y203642D01*
X11779Y202642D01*
X12779D01*
X13780Y201642D01*
X19972Y5587D02*
X20972Y6587D01*
X21972D01*
X20972Y7587D01*
X21972Y8587D01*
X20972D01*
X19972Y9587D01*
X18972Y8587D01*
X17972D01*
X18972Y7587D01*
X17972Y6587D01*
X18972D01*
X19972Y5587D01*
X7587D02*
X8587Y6587D01*
X9587D01*
X8587Y7587D01*
X9587Y8587D01*
X8587D01*
X7587Y9587D01*
X6587Y8587D01*
X5587D01*
X6587Y7587D01*
X5587Y6587D01*
X6587D01*
X7587Y5587D01*
Y17972D02*
X8587Y18972D01*
X9587D01*
X8587Y19972D01*
X9587Y20972D01*
X8587D01*
X7587Y21972D01*
X6587Y20972D01*
X5587D01*
X6587Y19972D01*
X5587Y18972D01*
X6587D01*
X7587Y17972D01*
X19972D02*
X20972Y18972D01*
X21972D01*
X20972Y19972D01*
X21972Y20972D01*
X20972D01*
X19972Y21972D01*
X18972Y20972D01*
X17972D01*
X18972Y19972D01*
X17972Y18972D01*
X18972D01*
X19972Y17972D01*
X22539Y11779D02*
X23539Y12779D01*
X24539D01*
X23539Y13780D01*
X24539Y14780D01*
X23539D01*
X22539Y15779D01*
X21539Y14780D01*
X20539D01*
X21539Y13780D01*
X20539Y12779D01*
X21539D01*
X22539Y11779D01*
X5020D02*
X6020Y12779D01*
X7020D01*
X6020Y13780D01*
X7020Y14780D01*
X6020D01*
X5020Y15779D01*
X4020Y14780D01*
X3020D01*
X4020Y13780D01*
X3020Y12779D01*
X4020D01*
X5020Y11779D01*
X13780Y3020D02*
X14780Y4020D01*
X15779D01*
X14780Y5020D01*
X15779Y6020D01*
X14780D01*
X13780Y7020D01*
X12779Y6020D01*
X11779D01*
X12779Y5020D01*
X11779Y4020D01*
X12779D01*
X13780Y3020D01*
Y20539D02*
X14780Y21539D01*
X15779D01*
X14780Y22539D01*
X15779Y23539D01*
X14780D01*
X13780Y24539D01*
X12779Y23539D01*
X11779D01*
X12779Y22539D01*
X11779Y21539D01*
X12779D01*
X13780Y20539D01*
D58*
X15400Y91000D02*
G03*
X15400Y91000I-2000J0D01*
G01*
Y81000D02*
G03*
X15400Y81000I-2000J0D01*
G01*
Y71000D02*
G03*
X15400Y71000I-2000J0D01*
G01*
Y61000D02*
G03*
X15400Y61000I-2000J0D01*
G01*
Y51000D02*
G03*
X15400Y51000I-2000J0D01*
G01*
Y41000D02*
G03*
X15400Y41000I-2000J0D01*
G01*
X64244Y192488D02*
G03*
X64244Y192488I-2000J0D01*
G01*
X54244D02*
G03*
X54244Y192488I-2000J0D01*
G01*
X44244D02*
G03*
X44244Y192488I-2000J0D01*
G01*
X34244D02*
G03*
X34244Y192488I-2000J0D01*
G01*
Y32488D02*
G03*
X34244Y32488I-2000J0D01*
G01*
X44244D02*
G03*
X44244Y32488I-2000J0D01*
G01*
X54244D02*
G03*
X54244Y32488I-2000J0D01*
G01*
X64244D02*
G03*
X64244Y32488I-2000J0D01*
G01*
M02*
