M48
;Layer_Color=9474304
;FILE_FORMAT=2:4
INCH,TZ
;TYPE=PLATED
T01F00S00C0.0157
T02F00S00C0.0240
T03F00S00C0.0400
T04F00S00C0.1260
%
T01
X759Y759
X502Y1378
X759Y1997
X1378Y2254
X1997Y1997
X2254Y1378
X1997Y759
X1378Y502
X1447Y3114
X1939
X1693Y3606
X1939Y4098
X1693Y4590
Y5574
X2744Y5621
X2923Y8035
X1939
Y10988
Y11972
X2923
X3169Y12464
X2923Y12956
X3169Y13448
X2923Y13941
X4154Y13448
X4400Y11972
X4154Y11480
X5138Y10496
X5630
X6122
X5876Y10004
X5384
X4920Y9760
X4892Y9019
X5384
X5876
X5630Y9511
X6840Y9350
X6830Y8955
X6937Y9749
X8470Y9956
X9075Y9511
Y8527
X8480Y8420
X8337Y8035
X8829
X9075Y7543
Y6559
X8583
X8829Y6067
X9075Y5574
X8583
X8091
X7598
X7844Y6067
Y5082
X8337
X8829
X9075Y4590
X8583
X8091
X7598
X7844Y4098
X8337
X7352
X7598Y3606
X7844Y3114
X7352
X7452Y1997
X7195Y1378
X7452Y759
X8071Y502
X8690Y759
X8947Y1378
X8690Y1997
X8071Y2254
X9075Y2622
X7352Y5082
X5020Y4350
X709Y3606
X955Y3114
X463
X709Y12464
X955Y12956
X463
X709Y13448
X955Y13941
X463
X4007Y15335
X4820
X5438Y15208
X6060Y15400
X7290Y14890
X8960Y15250
X8632Y11889
X8583Y11480
X8200Y11140
X7200Y12010
X5138Y14433
X4810Y16920
X4400Y16893
X3661Y17385
X3907Y17878
X2640Y18120
X1997Y18869
X2254Y19488
X1997Y20107
X1378Y20364
X759Y20107
X502Y19488
X759Y18869
X1378Y18612
X955Y17878
X463
X2923Y19846
X3415
X3907
X4400
X4892
X5384
X5876
X6368
X6614Y20338
X6122
X5630
X5138
X4646
X4154
X3661
X3169
X2677
X7452Y20107
X7195Y19488
X7452Y18869
X8071Y18612
X8690Y18869
X8947Y19488
X8690Y20107
X8071Y20364
X6860Y18170
X5642Y18122
X8990Y17870
Y17220
X9130Y16400
X8790Y15850
T02
X1697Y14909
Y15409
X2197
Y14909
Y15909
X1697
Y16409
Y16909
X2197
Y16409
T03
X1340Y4100
Y5100
Y6100
Y7100
Y8100
Y9100
X3224Y3249
X4224
X5224
X6224
Y19249
X5224
X4224
X3224
T04
X1403Y1378
X8071
Y19488
X1378
M30
