G04*
G04 #@! TF.GenerationSoftware,Altium Limited,Altium Designer,24.5.2 (23)*
G04*
G04 Layer_Physical_Order=1*
G04 Layer_Color=255*
%FSLAX25Y25*%
%MOIN*%
G70*
G04*
G04 #@! TF.SameCoordinates,31991F0E-98CA-4A4E-B794-B5AF52ABA4E1*
G04*
G04*
G04 #@! TF.FilePolarity,Positive*
G04*
G01*
G75*
%ADD11C,0.01000*%
%ADD18R,0.03937X0.04331*%
%ADD19R,0.02362X0.06102*%
G04:AMPARAMS|DCode=20|XSize=56.69mil|YSize=11.02mil|CornerRadius=1.38mil|HoleSize=0mil|Usage=FLASHONLY|Rotation=0.000|XOffset=0mil|YOffset=0mil|HoleType=Round|Shape=RoundedRectangle|*
%AMROUNDEDRECTD20*
21,1,0.05669,0.00827,0,0,0.0*
21,1,0.05394,0.01102,0,0,0.0*
1,1,0.00276,0.02697,-0.00413*
1,1,0.00276,-0.02697,-0.00413*
1,1,0.00276,-0.02697,0.00413*
1,1,0.00276,0.02697,0.00413*
%
%ADD20ROUNDEDRECTD20*%
G04:AMPARAMS|DCode=21|XSize=11.02mil|YSize=56.69mil|CornerRadius=1.38mil|HoleSize=0mil|Usage=FLASHONLY|Rotation=0.000|XOffset=0mil|YOffset=0mil|HoleType=Round|Shape=RoundedRectangle|*
%AMROUNDEDRECTD21*
21,1,0.01102,0.05394,0,0,0.0*
21,1,0.00827,0.05669,0,0,0.0*
1,1,0.00276,0.00413,-0.02697*
1,1,0.00276,-0.00413,-0.02697*
1,1,0.00276,-0.00413,0.02697*
1,1,0.00276,0.00413,0.02697*
%
%ADD21ROUNDEDRECTD21*%
%ADD22C,0.02362*%
%ADD23R,0.05512X0.04331*%
%ADD24R,0.02362X0.04528*%
%ADD25C,0.03937*%
%ADD26R,0.05512X0.03937*%
%ADD45C,0.00800*%
%ADD46R,0.02362X0.02953*%
%ADD47R,0.02953X0.02362*%
%ADD48C,0.03150*%
%ADD49R,0.05000X0.03000*%
%ADD50C,0.01500*%
%ADD51C,0.22441*%
%ADD52R,0.06890X0.06890*%
%ADD53C,0.06890*%
%ADD54R,0.06890X0.06890*%
%ADD55C,0.04200*%
%ADD56R,0.04200X0.04200*%
G36*
X73189Y206575D02*
X72514Y206161D01*
X70851Y204740D01*
X69430Y203076D01*
X68287Y201211D01*
X67450Y199190D01*
X66939Y197063D01*
X66767Y194882D01*
X66780Y194722D01*
X65996Y194479D01*
X65641Y195095D01*
X64850Y195885D01*
X63883Y196444D01*
X62803Y196733D01*
X61685D01*
X60606Y196444D01*
X59638Y195885D01*
X58847Y195095D01*
X58289Y194127D01*
X57999Y193047D01*
Y191929D01*
X58289Y190850D01*
X58847Y189882D01*
X59209Y189521D01*
X59250Y189458D01*
X59552Y189148D01*
X59807Y188862D01*
X60028Y188586D01*
X60214Y188323D01*
X60366Y188074D01*
X60485Y187839D01*
X60573Y187621D01*
X60583Y187588D01*
X60333Y187077D01*
X60080Y186788D01*
X58944D01*
Y183667D01*
X58928Y183588D01*
Y183210D01*
X58128Y182878D01*
X57769Y183237D01*
X56896Y183599D01*
X55952D01*
X55079Y183237D01*
X54411Y182569D01*
X54081Y181773D01*
X54048Y181759D01*
X53248Y182067D01*
X53236Y182195D01*
X52887Y183345D01*
X52321Y184404D01*
X51559Y185333D01*
X50630Y186095D01*
X49571Y186661D01*
X48421Y187010D01*
X47226Y187127D01*
X46031Y187010D01*
X44881Y186661D01*
X43822Y186095D01*
X42893Y185333D01*
X42131Y184404D01*
X41565Y183345D01*
X41216Y182195D01*
X41099Y181000D01*
X41216Y179805D01*
X41565Y178655D01*
X42131Y177596D01*
X42893Y176667D01*
X43822Y175905D01*
X44881Y175339D01*
X46031Y174990D01*
X47226Y174873D01*
X48421Y174990D01*
X49571Y175339D01*
X50630Y175905D01*
X51559Y176667D01*
X52321Y177596D01*
X52887Y178655D01*
X53236Y179805D01*
X53310Y180561D01*
X54117Y180589D01*
X54411Y179879D01*
X55079Y179211D01*
X55952Y178849D01*
X56356D01*
X56428Y178834D01*
X56598Y178831D01*
X56733Y178822D01*
X56854Y178807D01*
X56959Y178786D01*
X57048Y178762D01*
X57123Y178735D01*
X57185Y178707D01*
X57235Y178678D01*
X57253Y178664D01*
X59743Y176174D01*
X59758Y176157D01*
X59796Y176105D01*
X59821Y176064D01*
Y175128D01*
X59985Y174732D01*
X59460Y173932D01*
X40074D01*
X39469Y173812D01*
X38956Y173469D01*
X38614Y172957D01*
X38494Y172352D01*
Y171738D01*
X38471Y171611D01*
X38438Y171510D01*
X38403Y171446D01*
X38369Y171405D01*
X38328Y171371D01*
X38264Y171337D01*
X38163Y171303D01*
X38036Y171280D01*
X28480D01*
Y173200D01*
X28360Y173805D01*
X28018Y174318D01*
X27505Y174660D01*
X26900Y174780D01*
X2050D01*
X1326Y175452D01*
Y187074D01*
X2125Y187300D01*
X2501Y186687D01*
X3921Y185024D01*
X5585Y183603D01*
X7450Y182460D01*
X9471Y181623D01*
X11599Y181112D01*
X13780Y180940D01*
X15960Y181112D01*
X18088Y181623D01*
X20109Y182460D01*
X21974Y183603D01*
X23638Y185024D01*
X25058Y186687D01*
X26201Y188553D01*
X27039Y190574D01*
X27199Y191243D01*
X27999Y191148D01*
Y188243D01*
X30603D01*
X30629Y188147D01*
X30654Y187992D01*
X30664Y187886D01*
Y187142D01*
X30654Y187034D01*
X30628Y186877D01*
X30604Y186788D01*
X28944D01*
Y183667D01*
X28928Y183588D01*
Y183161D01*
X28128Y182830D01*
X27745Y183213D01*
X26872Y183575D01*
X25928D01*
X25055Y183213D01*
X24387Y182545D01*
X24025Y181672D01*
Y180728D01*
X24387Y179855D01*
X25055Y179187D01*
X25928Y178825D01*
X26331D01*
X26404Y178810D01*
X26574Y178807D01*
X26709Y178798D01*
X26830Y178783D01*
X26935Y178762D01*
X27024Y178738D01*
X27099Y178711D01*
X27161Y178683D01*
X27211Y178654D01*
X27229Y178640D01*
X29729Y176140D01*
X29744Y176123D01*
X29783Y176070D01*
X29810Y176027D01*
X29821Y176004D01*
Y175128D01*
X30183Y174255D01*
X30851Y173587D01*
X31724Y173225D01*
X32668D01*
X33541Y173587D01*
X34209Y174255D01*
X34571Y175128D01*
Y176072D01*
X34209Y176945D01*
X33541Y177613D01*
X33490Y177635D01*
X33479Y177677D01*
X33470Y177738D01*
X33468Y177761D01*
Y179188D01*
X35544D01*
Y182309D01*
X35560Y182388D01*
Y183588D01*
X35544Y183667D01*
Y186788D01*
X33884D01*
X33860Y186877D01*
X33834Y187034D01*
X33825Y187142D01*
Y187886D01*
X33834Y187992D01*
X33860Y188147D01*
X33886Y188243D01*
X36489D01*
Y196733D01*
X28245Y196733D01*
X27826Y196932D01*
X27487Y197321D01*
X27039Y199190D01*
X26201Y201211D01*
X25058Y203076D01*
X23638Y204740D01*
X21974Y206161D01*
X21299Y206575D01*
X21524Y207375D01*
X72964D01*
X73189Y206575D01*
D02*
G37*
G36*
X33602Y189040D02*
X33474Y188995D01*
X33362Y188920D01*
X33264Y188815D01*
X33182Y188680D01*
X33114Y188515D01*
X33062Y188320D01*
X33024Y188095D01*
X33002Y187840D01*
X32994Y187555D01*
X31494D01*
X31487Y187840D01*
X31464Y188095D01*
X31427Y188320D01*
X31374Y188515D01*
X31307Y188680D01*
X31224Y188815D01*
X31127Y188920D01*
X31014Y188995D01*
X30887Y189040D01*
X30744Y189055D01*
X33744D01*
X33602Y189040D01*
D02*
G37*
G36*
X64340Y189705D02*
X63808Y189077D01*
X63592Y188771D01*
X63409Y188471D01*
X63260Y188178D01*
X63144Y187889D01*
X63061Y187607D01*
X63011Y187330D01*
X63002Y187186D01*
X63024Y186932D01*
X63062Y186705D01*
X63114Y186509D01*
X63182Y186342D01*
X63264Y186206D01*
X63362Y186100D01*
X63474Y186025D01*
X63602Y185979D01*
X63744Y185964D01*
X60744D01*
X60887Y185979D01*
X61014Y186025D01*
X61127Y186100D01*
X61224Y186206D01*
X61307Y186342D01*
X61374Y186509D01*
X61427Y186705D01*
X61464Y186932D01*
X61486Y187186D01*
X61478Y187330D01*
X61428Y187607D01*
X61345Y187889D01*
X61228Y188178D01*
X61079Y188471D01*
X60896Y188771D01*
X60680Y189077D01*
X60431Y189388D01*
X60148Y189705D01*
X59833Y190028D01*
X64656D01*
X64340Y189705D01*
D02*
G37*
G36*
X33002Y187189D02*
X33024Y186932D01*
X33062Y186705D01*
X33114Y186509D01*
X33182Y186342D01*
X33264Y186206D01*
X33362Y186100D01*
X33474Y186025D01*
X33602Y185979D01*
X33744Y185964D01*
X30744D01*
X30887Y185979D01*
X31014Y186025D01*
X31127Y186100D01*
X31224Y186206D01*
X31307Y186342D01*
X31374Y186509D01*
X31427Y186705D01*
X31464Y186932D01*
X31487Y187189D01*
X31494Y187476D01*
X32994D01*
X33002Y187189D01*
D02*
G37*
G36*
X64744Y182388D02*
X59744D01*
Y183588D01*
X64744D01*
Y182388D01*
D02*
G37*
G36*
X34744D02*
X29744D01*
Y183588D01*
X34744D01*
Y182388D01*
D02*
G37*
G36*
X62968Y180004D02*
X62900Y179980D01*
X62840Y179939D01*
X62788Y179882D01*
X62744Y179809D01*
X62708Y179720D01*
X62680Y179614D01*
X62660Y179492D01*
X62648Y179355D01*
X62644Y179200D01*
X61844D01*
X61840Y179355D01*
X61828Y179492D01*
X61808Y179614D01*
X61780Y179720D01*
X61744Y179809D01*
X61700Y179882D01*
X61648Y179939D01*
X61588Y179980D01*
X61520Y180004D01*
X61444Y180012D01*
X63044D01*
X62968Y180004D01*
D02*
G37*
G36*
X32968D02*
X32900Y179980D01*
X32840Y179939D01*
X32788Y179882D01*
X32744Y179809D01*
X32708Y179720D01*
X32680Y179614D01*
X32660Y179492D01*
X32648Y179355D01*
X32644Y179200D01*
X31844D01*
X31840Y179355D01*
X31828Y179492D01*
X31808Y179614D01*
X31780Y179720D01*
X31744Y179809D01*
X31700Y179882D01*
X31648Y179939D01*
X31588Y179980D01*
X31520Y180004D01*
X31444Y180012D01*
X33044D01*
X32968Y180004D01*
D02*
G37*
G36*
X58002Y181017D02*
X58014Y180836D01*
X58035Y180665D01*
X58066Y180505D01*
X58107Y180355D01*
X58157Y180215D01*
X58217Y180086D01*
X58286Y179968D01*
X58364Y179859D01*
X58452Y179762D01*
X57886Y179196D01*
X57788Y179284D01*
X57680Y179362D01*
X57562Y179431D01*
X57433Y179491D01*
X57293Y179541D01*
X57143Y179581D01*
X56983Y179613D01*
X56812Y179634D01*
X56631Y179647D01*
X56440Y179649D01*
X57999Y181208D01*
X58002Y181017D01*
D02*
G37*
G36*
X27977Y180993D02*
X27990Y180812D01*
X28011Y180641D01*
X28043Y180481D01*
X28083Y180331D01*
X28133Y180191D01*
X28193Y180062D01*
X28262Y179944D01*
X28340Y179835D01*
X28428Y179738D01*
X27862Y179172D01*
X27764Y179260D01*
X27656Y179338D01*
X27538Y179407D01*
X27409Y179467D01*
X27269Y179517D01*
X27119Y179558D01*
X26959Y179589D01*
X26788Y179610D01*
X26607Y179622D01*
X26416Y179625D01*
X27975Y181184D01*
X27977Y180993D01*
D02*
G37*
G36*
X88246Y180206D02*
X88291Y180078D01*
X88367Y179965D01*
X88473Y179868D01*
X88609Y179786D01*
X88659Y179765D01*
X88719Y179793D01*
X88807Y179845D01*
X88884Y179903D01*
X88864Y179694D01*
X88972Y179666D01*
X89198Y179628D01*
X89455Y179605D01*
X89743Y179598D01*
Y178098D01*
X89455Y178091D01*
X89198Y178068D01*
X88972Y178031D01*
X88775Y177978D01*
X88699Y177947D01*
X88677Y177708D01*
X88608Y177782D01*
X88529Y177849D01*
X88518Y177855D01*
X88473Y177828D01*
X88367Y177731D01*
X88291Y177618D01*
X88246Y177490D01*
X88231Y177348D01*
Y177998D01*
X88225Y178001D01*
X88101Y178036D01*
X87967Y178063D01*
X87822Y178082D01*
X87667Y178094D01*
X87500Y178098D01*
X87661Y179598D01*
X87829Y179601D01*
X88133Y179625D01*
X88231Y179641D01*
Y180348D01*
X88246Y180206D01*
D02*
G37*
G36*
X84342Y177348D02*
X84327Y177490D01*
X84281Y177618D01*
X84206Y177731D01*
X84100Y177828D01*
X83964Y177910D01*
X83797Y177978D01*
X83601Y178031D01*
X83374Y178068D01*
X83117Y178091D01*
X82830Y178098D01*
Y179598D01*
X83117Y179605D01*
X83374Y179628D01*
X83601Y179666D01*
X83797Y179718D01*
X83964Y179786D01*
X84100Y179868D01*
X84206Y179965D01*
X84281Y180078D01*
X84327Y180206D01*
X84342Y180348D01*
Y177348D01*
D02*
G37*
G36*
X67215Y191549D02*
X67450Y190574D01*
X68287Y188553D01*
X69430Y186687D01*
X70851Y185024D01*
X72514Y183603D01*
X73803Y182813D01*
X73577Y182013D01*
X71345D01*
Y179623D01*
X71402Y179628D01*
X71628Y179666D01*
X71825Y179718D01*
X71991Y179786D01*
X72127Y179868D01*
X72233Y179965D01*
X72309Y180078D01*
X72354Y180206D01*
X72369Y180348D01*
Y179348D01*
X74314D01*
Y178348D01*
X72369D01*
Y177348D01*
X72354Y177490D01*
X72309Y177618D01*
X72233Y177731D01*
X72127Y177828D01*
X71991Y177910D01*
X71825Y177978D01*
X71628Y178031D01*
X71402Y178068D01*
X71345Y178073D01*
Y175683D01*
X71345D01*
X71545Y175317D01*
Y173992D01*
X71456Y173968D01*
X71299Y173942D01*
X71191Y173932D01*
X64932D01*
X64407Y174732D01*
X64571Y175128D01*
Y176072D01*
X64209Y176945D01*
X63541Y177613D01*
X63490Y177635D01*
X63480Y177677D01*
X63470Y177738D01*
X63468Y177761D01*
Y179188D01*
X65544D01*
Y182309D01*
X65560Y182388D01*
Y183588D01*
X65544Y183667D01*
Y186788D01*
X64408D01*
X64155Y187077D01*
X63905Y187588D01*
X63915Y187621D01*
X64003Y187839D01*
X64122Y188074D01*
X64274Y188323D01*
X64454Y188577D01*
X64943Y189156D01*
X65239Y189458D01*
X65280Y189521D01*
X65641Y189882D01*
X66200Y190850D01*
X66390Y191560D01*
X67215Y191549D01*
D02*
G37*
G36*
X62644Y177910D02*
X62648Y177769D01*
X62660Y177637D01*
X62679Y177515D01*
X62707Y177403D01*
X62742Y177300D01*
X62786Y177207D01*
X62837Y177124D01*
X62896Y177050D01*
X62962Y176986D01*
X63037Y176931D01*
X61597Y176975D01*
X60648Y175891D01*
X60660Y175983D01*
X60659Y176076D01*
X60646Y176171D01*
X60621Y176266D01*
X60584Y176363D01*
X60535Y176461D01*
X60474Y176560D01*
X60401Y176660D01*
X60316Y176761D01*
X60219Y176864D01*
X60745Y177468D01*
X60848Y177371D01*
X60949Y177288D01*
X61049Y177217D01*
X61147Y177160D01*
X61243Y177116D01*
X61338Y177085D01*
X61432Y177068D01*
X61523Y177064D01*
X61558Y177067D01*
X61584Y177090D01*
X61645Y177160D01*
X61698Y177240D01*
X61743Y177331D01*
X61779Y177431D01*
X61808Y177542D01*
X61828Y177663D01*
X61840Y177794D01*
X61844Y177935D01*
X62644Y177910D01*
D02*
G37*
G36*
X32644D02*
X32648Y177769D01*
X32660Y177637D01*
X32680Y177515D01*
X32707Y177403D01*
X32742Y177300D01*
X32786Y177207D01*
X32837Y177124D01*
X32896Y177050D01*
X32962Y176986D01*
X33037Y176931D01*
X31579Y176976D01*
X30643Y175858D01*
X30652Y175950D01*
X30649Y176043D01*
X30635Y176138D01*
X30609Y176233D01*
X30571Y176330D01*
X30521Y176428D01*
X30459Y176527D01*
X30386Y176627D01*
X30300Y176729D01*
X30203Y176831D01*
X30717Y177449D01*
X30820Y177352D01*
X30921Y177268D01*
X31021Y177198D01*
X31118Y177141D01*
X31214Y177098D01*
X31309Y177069D01*
X31402Y177052D01*
X31493Y177050D01*
X31545Y177056D01*
X31584Y177090D01*
X31645Y177160D01*
X31698Y177240D01*
X31743Y177331D01*
X31779Y177431D01*
X31808Y177542D01*
X31828Y177663D01*
X31840Y177794D01*
X31844Y177935D01*
X32644Y177910D01*
D02*
G37*
G36*
X88246Y173709D02*
X88291Y173582D01*
X88367Y173469D01*
X88473Y173372D01*
X88609Y173290D01*
X88662Y173268D01*
X88722Y173296D01*
X88810Y173348D01*
X88887Y173406D01*
X88867Y173197D01*
X88972Y173170D01*
X89198Y173132D01*
X89455Y173109D01*
X89743Y173102D01*
Y171602D01*
X89455Y171595D01*
X89198Y171572D01*
X88972Y171535D01*
X88775Y171482D01*
X88697Y171450D01*
X88674Y171211D01*
X88606Y171285D01*
X88526Y171352D01*
X88516Y171359D01*
X88473Y171332D01*
X88367Y171235D01*
X88291Y171122D01*
X88246Y170994D01*
X88231Y170852D01*
Y171501D01*
X88223Y171504D01*
X88100Y171539D01*
X87966Y171567D01*
X87821Y171586D01*
X87665Y171598D01*
X87498Y171602D01*
X87664Y173102D01*
X87831Y173105D01*
X88136Y173129D01*
X88231Y173144D01*
Y173852D01*
X88246Y173709D01*
D02*
G37*
G36*
X19221Y172450D02*
X18936Y172435D01*
X18681Y172390D01*
X18456Y172315D01*
X18261Y172210D01*
X18096Y172075D01*
X17961Y171910D01*
X17856Y171715D01*
X17848Y171691D01*
X17909Y171542D01*
X17991Y171406D01*
X18089Y171300D01*
X18201Y171225D01*
X18329Y171179D01*
X18471Y171164D01*
X17732D01*
X17721Y170950D01*
X16221D01*
X16210Y171164D01*
X15471D01*
X15614Y171179D01*
X15741Y171225D01*
X15854Y171300D01*
X15951Y171406D01*
X16034Y171542D01*
X16094Y171691D01*
X16086Y171715D01*
X15981Y171910D01*
X15846Y172075D01*
X15681Y172210D01*
X15486Y172315D01*
X15261Y172390D01*
X15006Y172435D01*
X14721Y172450D01*
X16971Y173950D01*
X19221Y172450D01*
D02*
G37*
G36*
X7924D02*
X7639Y172435D01*
X7384Y172390D01*
X7159Y172315D01*
X6964Y172210D01*
X6799Y172075D01*
X6664Y171910D01*
X6559Y171715D01*
X6484Y171490D01*
X6439Y171235D01*
X6424Y170950D01*
X4924D01*
X4909Y171235D01*
X4864Y171490D01*
X4789Y171715D01*
X4684Y171910D01*
X4549Y172075D01*
X4384Y172210D01*
X4189Y172315D01*
X3964Y172390D01*
X3709Y172435D01*
X3424Y172450D01*
X5674Y173950D01*
X7924Y172450D01*
D02*
G37*
G36*
X84342Y170852D02*
X84327Y170994D01*
X84281Y171122D01*
X84206Y171235D01*
X84100Y171332D01*
X83964Y171414D01*
X83797Y171482D01*
X83601Y171535D01*
X83374Y171572D01*
X83117Y171595D01*
X82830Y171602D01*
Y173102D01*
X83117Y173109D01*
X83374Y173132D01*
X83601Y173170D01*
X83797Y173222D01*
X83964Y173290D01*
X84100Y173372D01*
X84206Y173469D01*
X84281Y173582D01*
X84327Y173709D01*
X84342Y173852D01*
Y170852D01*
D02*
G37*
G36*
X72369D02*
X72354Y170994D01*
X72309Y171122D01*
X72233Y171235D01*
X72127Y171332D01*
X71991Y171414D01*
X71825Y171482D01*
X71628Y171535D01*
X71402Y171572D01*
X71145Y171595D01*
X70857Y171602D01*
Y173102D01*
X71145Y173109D01*
X71402Y173132D01*
X71628Y173170D01*
X71825Y173222D01*
X71991Y173290D01*
X72127Y173372D01*
X72233Y173469D01*
X72309Y173582D01*
X72354Y173709D01*
X72369Y173852D01*
Y170852D01*
D02*
G37*
G36*
X66424Y171602D02*
X66139Y171587D01*
X65884Y171542D01*
X65659Y171467D01*
X65464Y171362D01*
X65299Y171227D01*
X65164Y171062D01*
X65059Y170867D01*
X64984Y170642D01*
X64939Y170387D01*
X64924Y170102D01*
X63424D01*
X63409Y170387D01*
X63364Y170642D01*
X63289Y170867D01*
X63184Y171062D01*
X63049Y171227D01*
X62884Y171362D01*
X62689Y171467D01*
X62464Y171542D01*
X62209Y171587D01*
X61924Y171602D01*
X64174Y173102D01*
X66424Y171602D01*
D02*
G37*
G36*
X58424D02*
X58139Y171587D01*
X57884Y171542D01*
X57659Y171467D01*
X57464Y171362D01*
X57299Y171227D01*
X57164Y171062D01*
X57059Y170867D01*
X56984Y170642D01*
X56939Y170387D01*
X56924Y170102D01*
X55424D01*
X55409Y170387D01*
X55364Y170642D01*
X55289Y170867D01*
X55184Y171062D01*
X55049Y171227D01*
X54884Y171362D01*
X54689Y171467D01*
X54464Y171542D01*
X54209Y171587D01*
X53924Y171602D01*
X56174Y173102D01*
X58424Y171602D01*
D02*
G37*
G36*
X74158Y170195D02*
X74030Y170149D01*
X73918Y170073D01*
X73820Y169966D01*
X73738Y169830D01*
X73670Y169664D01*
X73618Y169468D01*
X73580Y169241D01*
X73558Y168985D01*
X73550Y168699D01*
X72050D01*
X72357Y170199D01*
X74300Y170211D01*
X74158Y170195D01*
D02*
G37*
G36*
X24024Y169552D02*
X24040Y169538D01*
X24066Y169527D01*
X24099Y169517D01*
X24142Y169508D01*
X24192Y169501D01*
X24320Y169491D01*
X24482Y169488D01*
Y168688D01*
X24396Y168687D01*
X24142Y168668D01*
X24099Y168660D01*
X24066Y168650D01*
X24040Y168638D01*
X24024Y168624D01*
X24016Y168610D01*
Y169567D01*
X24024Y169552D01*
D02*
G37*
G36*
X83554Y168284D02*
X83588Y167804D01*
X83617Y167609D01*
X83655Y167444D01*
X83701Y167309D01*
X83755Y167204D01*
X83818Y167129D01*
X83890Y167084D01*
X83969Y167069D01*
X81631D01*
X81710Y167084D01*
X81782Y167129D01*
X81845Y167204D01*
X81899Y167309D01*
X81945Y167444D01*
X81983Y167609D01*
X82012Y167804D01*
X82033Y168029D01*
X82050Y168569D01*
X83550D01*
X83554Y168284D01*
D02*
G37*
G36*
X78554D02*
X78588Y167804D01*
X78617Y167609D01*
X78655Y167444D01*
X78701Y167309D01*
X78755Y167204D01*
X78818Y167129D01*
X78890Y167084D01*
X78969Y167069D01*
X76631D01*
X76710Y167084D01*
X76782Y167129D01*
X76845Y167204D01*
X76899Y167309D01*
X76945Y167444D01*
X76983Y167609D01*
X77012Y167804D01*
X77033Y168029D01*
X77050Y168569D01*
X78550D01*
X78554Y168284D01*
D02*
G37*
G36*
X73554D02*
X73588Y167804D01*
X73617Y167609D01*
X73655Y167444D01*
X73701Y167309D01*
X73755Y167204D01*
X73818Y167129D01*
X73889Y167084D01*
X73969Y167069D01*
X71631D01*
X71710Y167084D01*
X71782Y167129D01*
X71845Y167204D01*
X71899Y167309D01*
X71945Y167444D01*
X71983Y167609D01*
X72012Y167804D01*
X72033Y168029D01*
X72050Y168569D01*
X73550D01*
X73554Y168284D01*
D02*
G37*
G36*
X64931Y168045D02*
X64954Y167788D01*
X64991Y167561D01*
X65044Y167365D01*
X65112Y167199D01*
X65194Y167062D01*
X65292Y166957D01*
X65404Y166881D01*
X65531Y166836D01*
X65674Y166821D01*
X62674D01*
X62817Y166836D01*
X62944Y166881D01*
X63056Y166957D01*
X63154Y167062D01*
X63236Y167199D01*
X63304Y167365D01*
X63357Y167561D01*
X63394Y167788D01*
X63416Y168045D01*
X63424Y168333D01*
X64924D01*
X64931Y168045D01*
D02*
G37*
G36*
X56932D02*
X56954Y167788D01*
X56991Y167561D01*
X57044Y167365D01*
X57112Y167199D01*
X57194Y167062D01*
X57292Y166957D01*
X57404Y166881D01*
X57531Y166836D01*
X57674Y166821D01*
X54674D01*
X54817Y166836D01*
X54944Y166881D01*
X55057Y166957D01*
X55154Y167062D01*
X55237Y167199D01*
X55304Y167365D01*
X55357Y167561D01*
X55394Y167788D01*
X55417Y168045D01*
X55424Y168333D01*
X56924D01*
X56932Y168045D01*
D02*
G37*
G36*
X40824Y169700D02*
X39912Y168333D01*
X40824D01*
X40832Y168045D01*
X40854Y167788D01*
X40892Y167561D01*
X40944Y167365D01*
X41012Y167199D01*
X41094Y167062D01*
X41192Y166957D01*
X41304Y166881D01*
X41431Y166836D01*
X41574Y166821D01*
X38574D01*
X38717Y166836D01*
X38844Y166881D01*
X38956Y166957D01*
X39054Y167062D01*
X39136Y167199D01*
X39204Y167365D01*
X39257Y167561D01*
X39294Y167788D01*
X39296Y167809D01*
X39264Y167990D01*
X39189Y168215D01*
X39084Y168410D01*
X38949Y168575D01*
X38784Y168710D01*
X38589Y168815D01*
X38364Y168890D01*
X38109Y168935D01*
X37824Y168950D01*
Y170450D01*
X38109Y170465D01*
X38364Y170510D01*
X38589Y170585D01*
X38784Y170690D01*
X38949Y170825D01*
X39084Y170990D01*
X39189Y171185D01*
X39264Y171410D01*
X39309Y171665D01*
X39324Y171950D01*
X40824Y169700D01*
D02*
G37*
G36*
X34024Y168950D02*
X33739Y168935D01*
X33484Y168890D01*
X33259Y168815D01*
X33064Y168710D01*
X32899Y168575D01*
X32764Y168410D01*
X32659Y168215D01*
X32584Y167990D01*
X32552Y167809D01*
X32554Y167788D01*
X32592Y167561D01*
X32644Y167365D01*
X32711Y167199D01*
X32794Y167062D01*
X32891Y166957D01*
X33004Y166881D01*
X33132Y166836D01*
X33274Y166821D01*
X30274D01*
X30417Y166836D01*
X30544Y166881D01*
X30656Y166957D01*
X30754Y167062D01*
X30836Y167199D01*
X30904Y167365D01*
X30957Y167561D01*
X30994Y167788D01*
X30996Y167809D01*
X30964Y167990D01*
X30889Y168215D01*
X30784Y168410D01*
X30649Y168575D01*
X30484Y168710D01*
X30289Y168815D01*
X30064Y168890D01*
X29809Y168935D01*
X29524Y168950D01*
X31774Y170450D01*
X34024Y168950D01*
D02*
G37*
G36*
X93174Y187093D02*
Y37404D01*
X92374Y37204D01*
X92221Y37492D01*
X91459Y38420D01*
X90530Y39182D01*
X89471Y39748D01*
X88321Y40097D01*
X87126Y40215D01*
X85931Y40097D01*
X84781Y39748D01*
X83722Y39182D01*
X82793Y38420D01*
X82031Y37492D01*
X81465Y36432D01*
X81116Y35283D01*
X80999Y34087D01*
X81116Y32892D01*
X81465Y31743D01*
X82031Y30683D01*
X82793Y29755D01*
X83722Y28993D01*
X84781Y28427D01*
X85931Y28078D01*
X87126Y27960D01*
X88321Y28078D01*
X89471Y28427D01*
X90530Y28993D01*
X91459Y29755D01*
X92221Y30683D01*
X92374Y30971D01*
X93174Y30771D01*
Y21568D01*
X92374Y21342D01*
X91988Y21974D01*
X90567Y23638D01*
X88903Y25058D01*
X87038Y26201D01*
X85017Y27039D01*
X82890Y27549D01*
X80709Y27721D01*
X78528Y27549D01*
X76401Y27039D01*
X74379Y26201D01*
X72514Y25058D01*
X70851Y23638D01*
X69430Y21974D01*
X68287Y20109D01*
X67450Y18088D01*
X66939Y15960D01*
X66767Y13780D01*
X66939Y11599D01*
X67450Y9471D01*
X68287Y7450D01*
X69430Y5585D01*
X70851Y3921D01*
X72514Y2501D01*
X73126Y2125D01*
X72901Y1326D01*
X21587D01*
X21362Y2125D01*
X21974Y2501D01*
X23638Y3921D01*
X25058Y5585D01*
X26201Y7450D01*
X27039Y9471D01*
X27779Y9233D01*
Y6749D01*
X27775Y6730D01*
X27779Y6712D01*
Y5918D01*
X28159D01*
X28161Y5906D01*
X28179Y5637D01*
Y5100D01*
X28300Y4495D01*
X28642Y3982D01*
X29155Y3640D01*
X29760Y3520D01*
X48244D01*
Y3430D01*
X49038D01*
X49056Y3427D01*
X49075Y3430D01*
X55356D01*
Y4756D01*
X55445Y4780D01*
X55602Y4806D01*
X55710Y4815D01*
X60992D01*
X61219Y4802D01*
Y4493D01*
X62009D01*
X62027Y4489D01*
X62046Y4493D01*
X65181D01*
Y9046D01*
X61219D01*
Y8036D01*
X61128Y8011D01*
X60972Y7986D01*
X60864Y7976D01*
X58716D01*
Y28859D01*
X59516Y29186D01*
X59552Y29149D01*
X59807Y28862D01*
X60028Y28586D01*
X60214Y28323D01*
X60366Y28074D01*
X60485Y27839D01*
X60573Y27621D01*
X60633Y27419D01*
X60664Y27246D01*
Y22280D01*
X60656Y22185D01*
X60632Y22024D01*
X60604Y21911D01*
X60602Y21905D01*
X60503Y21886D01*
X60462Y21859D01*
X60415Y21844D01*
X60330Y21771D01*
X60238Y21710D01*
X60210Y21669D01*
X60173Y21637D01*
X60122Y21538D01*
X60060Y21446D01*
X60050Y21398D01*
X60027Y21354D01*
X60018Y21243D01*
X59996Y21134D01*
X60006Y21086D01*
X60002Y21037D01*
X60036Y20931D01*
X60057Y20822D01*
X60084Y20781D01*
X60099Y20734D01*
X60171Y20649D01*
X60233Y20557D01*
X60274Y20529D01*
X60305Y20492D01*
X60404Y20441D01*
X60497Y20379D01*
X60545Y20369D01*
X60589Y20346D01*
X60664Y20340D01*
Y17993D01*
X60784Y17388D01*
X61127Y16875D01*
X61219Y16814D01*
Y13554D01*
X65181D01*
Y18107D01*
X64758D01*
X64660Y18598D01*
X64318Y19110D01*
X63824Y19440D01*
Y20320D01*
X63855Y20326D01*
X63972Y20336D01*
X64011Y20356D01*
X64053Y20364D01*
X64151Y20429D01*
X64254Y20482D01*
X64282Y20516D01*
X64319Y20540D01*
X64384Y20637D01*
X64459Y20726D01*
X64472Y20768D01*
X64496Y20804D01*
X64520Y20918D01*
X64555Y21030D01*
X64551Y21073D01*
X64560Y21116D01*
X64537Y21230D01*
X64527Y21347D01*
X64507Y21385D01*
X64499Y21428D01*
X64434Y21525D01*
X64380Y21629D01*
X64347Y21657D01*
X64323Y21693D01*
X64226Y21759D01*
X64137Y21834D01*
X64095Y21847D01*
X64059Y21871D01*
X63945Y21894D01*
X63895Y21910D01*
X63889Y21924D01*
X63860Y22034D01*
X63834Y22190D01*
X63824Y22298D01*
Y27246D01*
X63855Y27419D01*
X63915Y27621D01*
X64003Y27839D01*
X64122Y28074D01*
X64274Y28323D01*
X64454Y28577D01*
X64943Y29156D01*
X65239Y29458D01*
X65280Y29521D01*
X65641Y29882D01*
X66200Y30850D01*
X66489Y31929D01*
Y33047D01*
X66200Y34127D01*
X65641Y35095D01*
X64850Y35885D01*
X63883Y36444D01*
X62803Y36733D01*
X61685D01*
X60606Y36444D01*
X59638Y35885D01*
X59516Y35763D01*
X58716Y36094D01*
Y54600D01*
X58654Y54912D01*
X58477Y55177D01*
X58212Y55354D01*
X57900Y55416D01*
X45613D01*
Y55580D01*
X41857D01*
X38101D01*
Y55416D01*
X36986D01*
Y55580D01*
X36681D01*
X36562Y55757D01*
X36298Y55934D01*
X35986Y55996D01*
X33486D01*
X30998D01*
Y55180D01*
X35986D01*
Y53980D01*
X30986D01*
Y54704D01*
X30983Y54733D01*
X30938Y54858D01*
X30863Y54969D01*
X30758Y55065D01*
X30623Y55146D01*
X30458Y55212D01*
X30263Y55264D01*
X30038Y55301D01*
X29986Y55305D01*
Y53580D01*
X30186D01*
Y50780D01*
X30617D01*
Y45875D01*
X30617D01*
Y45747D01*
X29920Y45061D01*
X27043D01*
X26438Y44941D01*
X25925Y44599D01*
X25583Y44086D01*
X25462Y43481D01*
Y25125D01*
X25583Y24520D01*
X25925Y24008D01*
X26438Y23665D01*
X27043Y23545D01*
X28179D01*
Y22509D01*
X28179Y22480D01*
X28162Y22303D01*
X28159Y22282D01*
X27779D01*
Y21488D01*
X27775Y21470D01*
X27779Y21451D01*
Y18326D01*
X27039Y18088D01*
X26201Y20109D01*
X25058Y21974D01*
X23638Y23638D01*
X21974Y25058D01*
X20109Y26201D01*
X18088Y27039D01*
X15960Y27549D01*
X13780Y27721D01*
X11599Y27549D01*
X9471Y27039D01*
X7450Y26201D01*
X5585Y25058D01*
X3921Y23638D01*
X2501Y21974D01*
X2125Y21362D01*
X1326Y21587D01*
Y101232D01*
X2837D01*
Y88538D01*
X2938Y88031D01*
X3225Y87600D01*
X5663Y85163D01*
X6093Y84875D01*
X6600Y84775D01*
X10040D01*
X10343Y84203D01*
X10349Y83974D01*
X10060Y83692D01*
X9774Y83437D01*
X9498Y83216D01*
X9235Y83030D01*
X8986Y82878D01*
X8751Y82759D01*
X8533Y82671D01*
X8331Y82611D01*
X8158Y82580D01*
X7600D01*
X6995Y82460D01*
X6482Y82117D01*
X6140Y81605D01*
X6020Y81000D01*
Y61000D01*
Y41000D01*
X6140Y40395D01*
X6482Y39882D01*
X6995Y39540D01*
X7600Y39420D01*
X8158D01*
X8331Y39389D01*
X8533Y39329D01*
X8751Y39241D01*
X8986Y39122D01*
X9235Y38970D01*
X9489Y38790D01*
X10068Y38301D01*
X10370Y38005D01*
X10432Y37964D01*
X10794Y37603D01*
X11761Y37044D01*
X12841Y36755D01*
X13959D01*
X15039Y37044D01*
X16006Y37603D01*
X16797Y38394D01*
X17356Y39362D01*
X17645Y40441D01*
Y41559D01*
X17356Y42638D01*
X16797Y43606D01*
X16006Y44397D01*
X15039Y44956D01*
X13959Y45245D01*
X12841D01*
X11761Y44956D01*
X10794Y44397D01*
X10432Y44036D01*
X10370Y43995D01*
X10060Y43692D01*
X9980Y43621D01*
X9319Y43858D01*
X9180Y43987D01*
Y48219D01*
X9980Y48433D01*
X10003Y48394D01*
X10794Y47603D01*
X11761Y47044D01*
X12841Y46755D01*
X13959D01*
X15039Y47044D01*
X16006Y47603D01*
X16368Y47964D01*
X16430Y48005D01*
X16740Y48308D01*
X17027Y48563D01*
X17302Y48784D01*
X17565Y48970D01*
X17814Y49122D01*
X18049Y49241D01*
X18267Y49329D01*
X18469Y49389D01*
X18642Y49420D01*
X22400D01*
X23005Y49540D01*
X23517Y49883D01*
X23860Y50395D01*
X23980Y51000D01*
Y61720D01*
X26103D01*
X26211Y61710D01*
X26368Y61684D01*
X26477Y61655D01*
X26490Y61650D01*
X26505Y61602D01*
X26528Y61488D01*
X26552Y61452D01*
X26565Y61410D01*
X26639Y61320D01*
X26704Y61223D01*
X26741Y61199D01*
X26768Y61166D01*
X26872Y61111D01*
X26969Y61046D01*
X27012Y61038D01*
X27050Y61018D01*
X27167Y61007D01*
X27281Y60984D01*
X27324Y60993D01*
X27367Y60989D01*
X27479Y61024D01*
X27593Y61046D01*
X27629Y61071D01*
X27671Y61084D01*
X27761Y61158D01*
X27858Y61223D01*
X27882Y61259D01*
X27915Y61287D01*
X27970Y61391D01*
X28035Y61488D01*
X28043Y61531D01*
X28063Y61569D01*
X28074Y61686D01*
X28081Y61720D01*
X30293D01*
Y61319D01*
X34846D01*
Y65281D01*
X30293D01*
Y64880D01*
X28081D01*
X28074Y64915D01*
X28063Y65031D01*
X28043Y65069D01*
X28035Y65112D01*
X27970Y65209D01*
X27915Y65313D01*
X27882Y65341D01*
X27858Y65377D01*
X27761Y65442D01*
X27671Y65516D01*
X27629Y65529D01*
X27593Y65554D01*
X27479Y65576D01*
X27367Y65611D01*
X27324Y65607D01*
X27281Y65616D01*
X27167Y65593D01*
X27050Y65582D01*
X27012Y65562D01*
X26969Y65554D01*
X26872Y65489D01*
X26768Y65434D01*
X26741Y65401D01*
X26704Y65377D01*
X26639Y65280D01*
X26565Y65190D01*
X26552Y65148D01*
X26528Y65112D01*
X26505Y64998D01*
X26490Y64950D01*
X26477Y64945D01*
X26368Y64916D01*
X26211Y64890D01*
X26103Y64880D01*
X22400D01*
X21795Y64760D01*
X21283Y64417D01*
X20940Y63905D01*
X20820Y63300D01*
Y52580D01*
X18642D01*
X18469Y52611D01*
X18267Y52671D01*
X18049Y52759D01*
X17814Y52878D01*
X17565Y53030D01*
X17311Y53210D01*
X16732Y53699D01*
X16430Y53995D01*
X16368Y54036D01*
X16006Y54397D01*
X15039Y54956D01*
X13959Y55245D01*
X12841D01*
X11761Y54956D01*
X10794Y54397D01*
X10003Y53606D01*
X9980Y53567D01*
X9180Y53781D01*
Y58003D01*
X9980Y58375D01*
X10068Y58301D01*
X10370Y58005D01*
X10432Y57964D01*
X10794Y57603D01*
X11761Y57044D01*
X12841Y56755D01*
X13959D01*
X15039Y57044D01*
X16006Y57603D01*
X16797Y58394D01*
X17356Y59361D01*
X17645Y60441D01*
Y61559D01*
X17356Y62638D01*
X16797Y63606D01*
X16006Y64397D01*
X15039Y64956D01*
X13959Y65245D01*
X12841D01*
X11761Y64956D01*
X10794Y64397D01*
X10432Y64036D01*
X10370Y63995D01*
X10060Y63692D01*
X9980Y63621D01*
X9319Y63858D01*
X9180Y63987D01*
Y68219D01*
X9980Y68433D01*
X10003Y68394D01*
X10794Y67603D01*
X11761Y67044D01*
X12841Y66755D01*
X13959D01*
X15039Y67044D01*
X16006Y67603D01*
X16368Y67964D01*
X16430Y68005D01*
X16740Y68308D01*
X17027Y68563D01*
X17302Y68784D01*
X17565Y68970D01*
X17814Y69122D01*
X18049Y69241D01*
X18267Y69329D01*
X18469Y69389D01*
X18642Y69420D01*
X23300D01*
X23905Y69540D01*
X24418Y69883D01*
X24760Y70395D01*
X24880Y71000D01*
Y71820D01*
X26103D01*
X26211Y71810D01*
X26368Y71784D01*
X26477Y71755D01*
X26490Y71750D01*
X26505Y71702D01*
X26528Y71588D01*
X26552Y71552D01*
X26565Y71510D01*
X26639Y71420D01*
X26704Y71323D01*
X26741Y71299D01*
X26768Y71266D01*
X26872Y71211D01*
X26969Y71146D01*
X27012Y71138D01*
X27050Y71118D01*
X27167Y71107D01*
X27281Y71084D01*
X27324Y71093D01*
X27367Y71089D01*
X27479Y71124D01*
X27593Y71146D01*
X27629Y71171D01*
X27671Y71184D01*
X27761Y71258D01*
X27858Y71323D01*
X27882Y71359D01*
X27915Y71387D01*
X27970Y71491D01*
X28035Y71588D01*
X28043Y71631D01*
X28063Y71669D01*
X28074Y71785D01*
X28081Y71820D01*
X30293D01*
Y71419D01*
X34846D01*
Y75381D01*
X30293D01*
Y74980D01*
X28081D01*
X28074Y75015D01*
X28063Y75131D01*
X28043Y75169D01*
X28035Y75212D01*
X27970Y75309D01*
X27915Y75413D01*
X27882Y75441D01*
X27858Y75477D01*
X27761Y75542D01*
X27671Y75616D01*
X27629Y75629D01*
X27593Y75654D01*
X27479Y75676D01*
X27367Y75711D01*
X27324Y75707D01*
X27281Y75716D01*
X27167Y75693D01*
X27050Y75682D01*
X27012Y75662D01*
X26969Y75654D01*
X26872Y75589D01*
X26768Y75534D01*
X26741Y75501D01*
X26704Y75477D01*
X26639Y75380D01*
X26565Y75290D01*
X26552Y75248D01*
X26528Y75212D01*
X26505Y75098D01*
X26490Y75050D01*
X26477Y75045D01*
X26368Y75016D01*
X26211Y74990D01*
X26103Y74980D01*
X23300D01*
X22695Y74860D01*
X22183Y74518D01*
X21840Y74005D01*
X21720Y73400D01*
Y72580D01*
X18642D01*
X18469Y72611D01*
X18267Y72671D01*
X18049Y72759D01*
X17814Y72878D01*
X17565Y73030D01*
X17311Y73210D01*
X16732Y73699D01*
X16430Y73995D01*
X16368Y74036D01*
X16006Y74397D01*
X15039Y74956D01*
X13959Y75245D01*
X12841D01*
X11761Y74956D01*
X10794Y74397D01*
X10003Y73606D01*
X9980Y73567D01*
X9180Y73781D01*
Y78003D01*
X9980Y78374D01*
X10068Y78301D01*
X10370Y78005D01*
X10432Y77964D01*
X10794Y77603D01*
X11761Y77044D01*
X12841Y76755D01*
X13959D01*
X15039Y77044D01*
X16006Y77603D01*
X16797Y78394D01*
X17356Y79361D01*
X17645Y80441D01*
Y81559D01*
X17356Y82639D01*
X16797Y83606D01*
X16429Y83974D01*
X16760Y84775D01*
X28382D01*
X39069Y74087D01*
X39237Y73907D01*
X39353Y73765D01*
X39354Y73763D01*
Y71419D01*
X43907D01*
Y75381D01*
X41591D01*
X41502Y75443D01*
X41250Y75655D01*
X29868Y87037D01*
X29438Y87325D01*
X28931Y87426D01*
X17845D01*
Y90500D01*
X13400D01*
X8955D01*
Y87426D01*
X7149D01*
X5488Y89087D01*
Y101232D01*
X6974D01*
Y97800D01*
X7075Y97293D01*
X7363Y96863D01*
X8763Y95463D01*
X8955Y95334D01*
Y91500D01*
X13400D01*
X17845D01*
Y95074D01*
X23251D01*
X35863Y82463D01*
X36293Y82175D01*
X36800Y82074D01*
X41550D01*
X48674Y74950D01*
Y66349D01*
X46951Y64626D01*
X43907D01*
Y65281D01*
X39354D01*
Y61319D01*
X43907D01*
Y61975D01*
X47500D01*
X48007Y62075D01*
X48437Y62363D01*
X50937Y64863D01*
X51225Y65293D01*
X51326Y65800D01*
Y67528D01*
X52126Y67976D01*
X52506Y67819D01*
X53294D01*
X54022Y68120D01*
X54774Y67742D01*
Y64893D01*
X54772Y64866D01*
X54758Y64772D01*
X54738Y64683D01*
X54713Y64597D01*
X54684Y64515D01*
X54648Y64435D01*
X54607Y64357D01*
X54561Y64280D01*
X54517Y64218D01*
X54421Y64122D01*
X54119Y63394D01*
Y62606D01*
X54421Y61878D01*
X54978Y61321D01*
X55706Y61019D01*
X56494D01*
X57222Y61321D01*
X57780Y61878D01*
X58081Y62606D01*
Y63394D01*
X57780Y64122D01*
X57683Y64218D01*
X57639Y64280D01*
X57592Y64357D01*
X57552Y64435D01*
X57516Y64515D01*
X57486Y64597D01*
X57462Y64682D01*
X57442Y64772D01*
X57428Y64866D01*
X57425Y64893D01*
Y70513D01*
X58226Y70844D01*
X58877Y70192D01*
X58889Y70178D01*
X58925Y70128D01*
X58952Y70083D01*
X58972Y70044D01*
X58986Y70008D01*
X58995Y69976D01*
X59001Y69945D01*
X59004Y69915D01*
X59004Y69845D01*
X59019Y69773D01*
Y69406D01*
X59320Y68678D01*
X59878Y68120D01*
X60606Y67819D01*
X61394D01*
X62122Y68120D01*
X62541Y68540D01*
X63193Y68380D01*
X63341Y68294D01*
Y64893D01*
X63339Y64866D01*
X63324Y64772D01*
X63305Y64683D01*
X63280Y64597D01*
X63250Y64515D01*
X63215Y64435D01*
X63174Y64357D01*
X63127Y64280D01*
X63083Y64218D01*
X62987Y64122D01*
X62686Y63394D01*
Y62606D01*
X62987Y61878D01*
X63544Y61321D01*
X64273Y61019D01*
X65061D01*
X65789Y61321D01*
X66346Y61878D01*
X66648Y62606D01*
Y63394D01*
X66346Y64122D01*
X66250Y64218D01*
X66206Y64280D01*
X66159Y64357D01*
X66118Y64435D01*
X66083Y64515D01*
X66053Y64597D01*
X66028Y64682D01*
X66009Y64772D01*
X65995Y64866D01*
X65992Y64893D01*
Y68015D01*
X66188Y68198D01*
X66792Y68536D01*
X67100Y68475D01*
X67326D01*
X67353Y68473D01*
X67443Y68463D01*
X67525Y68449D01*
X67589Y68434D01*
X67635Y68419D01*
X67664Y68407D01*
X67673Y68402D01*
X67701Y68377D01*
X67752Y68346D01*
X67978Y68120D01*
X68706Y67819D01*
X69494D01*
X70222Y68120D01*
X70780Y68678D01*
X71066Y69369D01*
X71091Y69411D01*
X71881Y69840D01*
X71908Y69826D01*
Y64893D01*
X71905Y64866D01*
X71891Y64772D01*
X71872Y64683D01*
X71847Y64597D01*
X71817Y64515D01*
X71782Y64435D01*
X71741Y64357D01*
X71694Y64280D01*
X71650Y64218D01*
X71554Y64122D01*
X71252Y63394D01*
Y62606D01*
X71554Y61878D01*
X72111Y61321D01*
X72839Y61019D01*
X73627D01*
X74356Y61321D01*
X74913Y61878D01*
X75214Y62606D01*
Y63394D01*
X74913Y64122D01*
X74817Y64218D01*
X74773Y64280D01*
X74726Y64357D01*
X74685Y64435D01*
X74650Y64515D01*
X74620Y64597D01*
X74595Y64682D01*
X74576Y64772D01*
X74561Y64866D01*
X74559Y64893D01*
Y68909D01*
X75359Y69068D01*
X75520Y68678D01*
X76078Y68120D01*
X76806Y67819D01*
X77594D01*
X78322Y68120D01*
X78879Y68678D01*
X79181Y69406D01*
Y70194D01*
X78879Y70922D01*
X78783Y71018D01*
X78740Y71080D01*
X78693Y71157D01*
X78652Y71235D01*
X78616Y71315D01*
X78587Y71397D01*
X78562Y71482D01*
X78542Y71572D01*
X78528Y71666D01*
X78526Y71693D01*
Y72600D01*
X78425Y73107D01*
X78137Y73537D01*
X76800Y74875D01*
X77131Y75674D01*
X78951D01*
X80374Y74251D01*
Y64806D01*
X80373Y64787D01*
X80360Y64683D01*
X80342Y64586D01*
X80320Y64496D01*
X80294Y64413D01*
X80265Y64335D01*
X80231Y64262D01*
X80196Y64198D01*
X80120Y64122D01*
X79819Y63394D01*
Y62606D01*
X80120Y61878D01*
X80678Y61321D01*
X81406Y61019D01*
X82194D01*
X82922Y61321D01*
X83479Y61878D01*
X83781Y62606D01*
Y63394D01*
X83479Y64122D01*
X83358Y64244D01*
X83351Y64257D01*
X83271Y64360D01*
X83214Y64443D01*
X83166Y64525D01*
X83125Y64606D01*
X83091Y64686D01*
X83064Y64767D01*
X83043Y64849D01*
X83029Y64933D01*
X83025Y64962D01*
Y68183D01*
X83825Y68473D01*
X84178Y68120D01*
X84906Y67819D01*
X85694D01*
X86422Y68120D01*
X86980Y68678D01*
X87281Y69406D01*
Y70194D01*
X86980Y70922D01*
X86883Y71018D01*
X86839Y71080D01*
X86792Y71157D01*
X86752Y71235D01*
X86716Y71315D01*
X86686Y71397D01*
X86662Y71482D01*
X86642Y71572D01*
X86628Y71666D01*
X86625Y71693D01*
Y73900D01*
X86525Y74407D01*
X86237Y74837D01*
X78041Y83033D01*
X77611Y83321D01*
X77104Y83421D01*
X71494D01*
Y84793D01*
X71421Y85159D01*
X71214Y85469D01*
X70904Y85676D01*
X70538Y85749D01*
X69711D01*
X69345Y85676D01*
X69140Y85539D01*
X68935Y85676D01*
X68569Y85749D01*
X67743D01*
X67377Y85676D01*
X67172Y85539D01*
X66967Y85676D01*
X66601Y85749D01*
X65774D01*
X65408Y85676D01*
X65203Y85539D01*
X64998Y85676D01*
X64632Y85749D01*
X63806D01*
X63440Y85676D01*
X63235Y85539D01*
X63030Y85676D01*
X62664Y85749D01*
X61837D01*
X61471Y85676D01*
X61266Y85539D01*
X61061Y85676D01*
X60695Y85749D01*
X59869D01*
X59503Y85676D01*
X59298Y85539D01*
X59093Y85676D01*
X58727Y85749D01*
X57900D01*
X57534Y85676D01*
X57329Y85539D01*
X57124Y85676D01*
X56758Y85749D01*
X55932D01*
X55566Y85676D01*
X55361Y85539D01*
X55156Y85676D01*
X54790Y85749D01*
X53963D01*
X53597Y85676D01*
X53392Y85539D01*
X53187Y85676D01*
X52821Y85749D01*
X51995D01*
X51629Y85676D01*
X51424Y85539D01*
X51219Y85676D01*
X50853Y85749D01*
X50026D01*
X49660Y85676D01*
X49455Y85539D01*
X49250Y85676D01*
X48884Y85749D01*
X48057D01*
X47692Y85676D01*
X47381Y85469D01*
X47174Y85159D01*
X47101Y84793D01*
Y81029D01*
X46362Y80722D01*
X43236Y83849D01*
X43225Y83907D01*
X42937Y84337D01*
X42507Y84625D01*
X42000Y84725D01*
X37349D01*
X36393Y85681D01*
X36700Y86420D01*
X39903D01*
X40124Y86376D01*
X45518D01*
X45884Y86449D01*
X46194Y86656D01*
X46402Y86966D01*
X46474Y87332D01*
Y88159D01*
X46402Y88525D01*
X46264Y88730D01*
X46402Y88935D01*
X46474Y89301D01*
Y90127D01*
X46402Y90494D01*
X46264Y90698D01*
X46402Y90903D01*
X46474Y91269D01*
Y92096D01*
X46402Y92462D01*
X46264Y92667D01*
X46402Y92872D01*
X46474Y93238D01*
Y94065D01*
X46402Y94431D01*
X46264Y94635D01*
X46402Y94840D01*
X46474Y95206D01*
Y96033D01*
X46402Y96399D01*
X46385Y96424D01*
X46590Y96731D01*
X46661Y97088D01*
X45622D01*
X45614Y97079D01*
Y97088D01*
X38982D01*
X39053Y96731D01*
X39258Y96424D01*
X39241Y96399D01*
X39168Y96033D01*
Y95206D01*
X39241Y94840D01*
X39378Y94635D01*
X39241Y94431D01*
X39168Y94065D01*
Y93238D01*
X39241Y92872D01*
X39378Y92667D01*
X39241Y92462D01*
X39168Y92096D01*
Y91269D01*
X38980Y91040D01*
X36335D01*
X32825Y94549D01*
Y112000D01*
X32725Y112507D01*
X32437Y112937D01*
X31385Y113989D01*
X30955Y114277D01*
X30448Y114377D01*
X27268D01*
Y115665D01*
X27468Y116383D01*
X27468Y116735D01*
Y119048D01*
X24500D01*
X21531D01*
Y116735D01*
X21531Y116383D01*
X21732Y115665D01*
Y114377D01*
X16379D01*
Y115828D01*
X9268D01*
Y110709D01*
X9068D01*
Y108528D01*
X8268Y108290D01*
X7964Y108493D01*
X7457Y108594D01*
X5881D01*
X5488Y108987D01*
Y114032D01*
X7718D01*
Y119569D01*
X1326D01*
Y140748D01*
X2050Y141420D01*
X11906D01*
Y137891D01*
X11705Y137174D01*
X11705Y136822D01*
Y134509D01*
X14674D01*
X17642D01*
Y136822D01*
X17642Y137174D01*
X17443Y137891D01*
Y141420D01*
X19953D01*
Y137891D01*
X19753Y137174D01*
X19753Y136822D01*
Y134509D01*
X22721D01*
X25690D01*
Y136822D01*
X25690Y137174D01*
X25490Y137891D01*
Y141420D01*
X34420D01*
Y101400D01*
X34540Y100795D01*
X34883Y100283D01*
X35395Y99940D01*
X36000Y99820D01*
X39168D01*
Y99143D01*
X39241Y98777D01*
X39258Y98752D01*
X39053Y98445D01*
X38982Y98088D01*
X45614D01*
Y98098D01*
X45622Y98088D01*
X46832D01*
X47412Y98415D01*
X47468Y98426D01*
X47865Y98691D01*
X48130Y99089D01*
X48224Y99557D01*
Y101392D01*
X48130Y101861D01*
X47865Y102258D01*
X47468Y102523D01*
X47000Y102616D01*
X46474Y103080D01*
Y103907D01*
X46402Y104273D01*
X46264Y104478D01*
X46402Y104683D01*
X46474Y105049D01*
Y105876D01*
X46402Y106242D01*
X46264Y106447D01*
X46402Y106651D01*
X46474Y107017D01*
Y107844D01*
X46402Y108210D01*
X46264Y108415D01*
X46402Y108620D01*
X46474Y108986D01*
Y109813D01*
X46402Y110178D01*
X46194Y110489D01*
X45884Y110696D01*
X45518Y110769D01*
X40124D01*
X39759Y110696D01*
X39448Y110489D01*
X39241Y110178D01*
X39168Y109813D01*
Y108986D01*
X39241Y108620D01*
X39378Y108415D01*
X39241Y108210D01*
X39168Y107844D01*
Y107017D01*
X39241Y106651D01*
X39378Y106447D01*
X39241Y106242D01*
X39168Y105876D01*
Y105049D01*
X39241Y104683D01*
X39378Y104478D01*
X39241Y104273D01*
X39168Y103907D01*
Y103080D01*
X39086Y102980D01*
X37580D01*
Y143000D01*
X37460Y143605D01*
X37117Y144117D01*
X36605Y144460D01*
X36000Y144580D01*
X3630D01*
Y160325D01*
X5174D01*
Y163490D01*
X5674D01*
Y163990D01*
X8642D01*
Y166656D01*
X8642D01*
X8443Y167021D01*
Y171620D01*
X14071D01*
Y166188D01*
X14071D01*
X14142Y165388D01*
X14083Y165285D01*
X13896Y164588D01*
X16971D01*
Y163588D01*
X13896D01*
X14083Y162892D01*
X14491Y162185D01*
X14558Y162118D01*
X15050Y161588D01*
X14558Y161058D01*
X14491Y160992D01*
X14083Y160285D01*
X13896Y159588D01*
X16971D01*
Y158588D01*
X13896D01*
X14083Y157892D01*
X14491Y157185D01*
X14696Y156979D01*
X15049Y156572D01*
X14686Y155904D01*
X14651Y155869D01*
X14269Y155208D01*
X14071Y154470D01*
Y153706D01*
X14269Y152969D01*
X14651Y152307D01*
X14832Y152126D01*
X14995Y151801D01*
X14945Y151417D01*
X14885Y151190D01*
X14816Y151060D01*
X14788Y151034D01*
X14687Y150952D01*
X14585Y150882D01*
X14480Y150822D01*
X14373Y150771D01*
X14262Y150730D01*
X14145Y150698D01*
X14022Y150674D01*
X13972Y150669D01*
X11218D01*
X10442Y151322D01*
Y152404D01*
X10643Y153121D01*
X10643Y153473D01*
Y155786D01*
X4705D01*
Y153473D01*
X4705Y153121D01*
X4905Y152404D01*
Y146825D01*
X9615D01*
X9634Y146821D01*
X9652Y146825D01*
X10442D01*
Y147453D01*
X10528Y147475D01*
X10687Y147500D01*
X10786Y147508D01*
X13972D01*
X14022Y147502D01*
X14145Y147479D01*
X14262Y147446D01*
X14373Y147405D01*
X14480Y147355D01*
X14585Y147295D01*
X14687Y147224D01*
X14788Y147142D01*
X14910Y147026D01*
X14969Y146990D01*
X15191Y146768D01*
X15852Y146386D01*
X16590Y146188D01*
X17353D01*
X18091Y146386D01*
X18752Y146768D01*
X18934Y146949D01*
X19471Y147218D01*
X20009Y146949D01*
X20191Y146768D01*
X20852Y146386D01*
X21589Y146188D01*
X22353D01*
X23091Y146386D01*
X23752Y146768D01*
X24292Y147308D01*
X24674Y147969D01*
X24871Y148706D01*
Y149470D01*
X24674Y150207D01*
X24292Y150869D01*
X24110Y151051D01*
X23842Y151588D01*
X24110Y152126D01*
X24292Y152307D01*
X24674Y152969D01*
X24871Y153706D01*
Y154470D01*
X24674Y155208D01*
X24292Y155869D01*
X24110Y156051D01*
X23842Y156588D01*
X24110Y157126D01*
X24292Y157308D01*
X24674Y157969D01*
X24871Y158706D01*
Y159470D01*
X24674Y160207D01*
X24292Y160869D01*
X24110Y161051D01*
X23842Y161588D01*
X24110Y162126D01*
X24292Y162308D01*
X24674Y162969D01*
X24871Y163706D01*
Y164470D01*
X24674Y165208D01*
X24292Y165869D01*
X24110Y166051D01*
X24099Y166073D01*
X24320Y166448D01*
X25281Y166558D01*
X26276Y165563D01*
Y162200D01*
X26370Y161732D01*
X26635Y161335D01*
X27521Y160449D01*
X27918Y160183D01*
X28386Y160090D01*
X29006D01*
Y155218D01*
X30551D01*
Y153126D01*
X30644Y152658D01*
X30909Y152261D01*
X47247Y135922D01*
Y118346D01*
X47247Y118322D01*
X47236Y118204D01*
X47174Y118112D01*
X47101Y117746D01*
Y112352D01*
X47174Y111986D01*
X47381Y111676D01*
X47692Y111469D01*
X48057Y111396D01*
X48884D01*
X49250Y111469D01*
X49455Y111606D01*
X49660Y111469D01*
X50026Y111396D01*
X50853D01*
X51219Y111469D01*
X51424Y111606D01*
X51629Y111469D01*
X51995Y111396D01*
X52821D01*
X53187Y111469D01*
X53392Y111606D01*
X53597Y111469D01*
X53963Y111396D01*
X54790D01*
X55156Y111469D01*
X55361Y111606D01*
X55566Y111469D01*
X55932Y111396D01*
X56758D01*
X57124Y111469D01*
X57329Y111606D01*
X57534Y111469D01*
X57900Y111396D01*
X58727D01*
X59093Y111469D01*
X59298Y111606D01*
X59503Y111469D01*
X59869Y111396D01*
X60695D01*
X60721Y111401D01*
X61027Y111150D01*
X61120Y110681D01*
X61385Y110284D01*
X62035Y109635D01*
X62432Y109370D01*
X62900Y109276D01*
X71700D01*
X72194Y108620D01*
X72331Y108415D01*
X72194Y108210D01*
X72121Y107844D01*
Y107017D01*
X72194Y106651D01*
X72331Y106447D01*
X72194Y106242D01*
X72121Y105876D01*
Y105049D01*
X72194Y104683D01*
X72331Y104478D01*
X72194Y104273D01*
X72121Y103907D01*
Y103080D01*
X72194Y102714D01*
X72331Y102509D01*
X72194Y102304D01*
X72121Y101939D01*
Y101112D01*
X72194Y100746D01*
X72331Y100541D01*
X72194Y100336D01*
X72121Y99970D01*
Y99143D01*
X72194Y98777D01*
X72211Y98752D01*
X72005Y98445D01*
X71934Y98088D01*
X72975D01*
X72981Y98098D01*
Y98088D01*
X79702D01*
X79819Y98231D01*
X81932D01*
Y92935D01*
X81731Y92217D01*
X81731Y91865D01*
Y89552D01*
X84700D01*
X87669D01*
Y91865D01*
X87669Y92217D01*
X87468Y92935D01*
Y98513D01*
X87456D01*
X87075Y99084D01*
Y100029D01*
X86713Y100902D01*
X86045Y101570D01*
X85172Y101932D01*
X84228D01*
X83355Y101570D01*
X83071Y101286D01*
X83011Y101248D01*
X82911Y101152D01*
X82832Y101086D01*
X82756Y101031D01*
X82682Y100986D01*
X82612Y100950D01*
X82543Y100921D01*
X82475Y100900D01*
X82407Y100885D01*
X82382Y100882D01*
X79615D01*
X79427Y101112D01*
Y101939D01*
X79354Y102304D01*
X79217Y102509D01*
X79354Y102714D01*
X79427Y103080D01*
Y103907D01*
X79354Y104273D01*
X79217Y104478D01*
X79354Y104683D01*
X79427Y105049D01*
Y105876D01*
X79615Y106105D01*
X89900D01*
X90407Y106206D01*
X90837Y106493D01*
X91125Y106923D01*
X91225Y107431D01*
Y138200D01*
X91125Y138707D01*
X90837Y139137D01*
X90407Y139425D01*
X89900Y139525D01*
X89781D01*
Y146621D01*
X89126D01*
Y148700D01*
X89025Y149207D01*
X88905Y149386D01*
X88953Y149545D01*
X89337Y150125D01*
X90072D01*
X90945Y150487D01*
X91613Y151155D01*
X91975Y152028D01*
Y152972D01*
X91613Y153845D01*
X90945Y154513D01*
X90072Y154875D01*
X89684D01*
X89626Y154889D01*
X89574Y154892D01*
X89563Y154894D01*
X89539Y154901D01*
X89503Y154915D01*
X89453Y154939D01*
X89393Y154976D01*
X89331Y155018D01*
X89246Y155089D01*
X87918Y156418D01*
X87405Y156760D01*
X86800Y156880D01*
X74380D01*
Y159952D01*
X74381Y159980D01*
X74398Y160157D01*
X74401Y160179D01*
X74781D01*
Y160972D01*
X74785Y160991D01*
X74781Y161009D01*
Y167051D01*
X74785Y167069D01*
X74781Y167088D01*
Y167881D01*
X74401D01*
X74399Y167893D01*
X74380Y168162D01*
Y169031D01*
X74390Y169139D01*
X74416Y169295D01*
X74440Y169387D01*
X76220D01*
Y168108D01*
X76219Y168079D01*
X76202Y167903D01*
X76199Y167881D01*
X75819D01*
Y167088D01*
X75815Y167069D01*
X75819Y167051D01*
Y160179D01*
X79781D01*
Y167051D01*
X79785Y167069D01*
X79781Y167088D01*
Y167881D01*
X79401D01*
X79399Y167893D01*
X79380Y168162D01*
Y169382D01*
X79413Y169545D01*
Y175159D01*
X79380Y175322D01*
Y175878D01*
X79413Y176041D01*
Y177268D01*
X82742D01*
X83518Y176614D01*
X83518Y175317D01*
X83518Y175083D01*
Y173992D01*
X83429Y173968D01*
X83272Y173942D01*
X83164Y173932D01*
X82800D01*
X82195Y173812D01*
X81682Y173469D01*
X81340Y172957D01*
X81220Y172352D01*
Y168108D01*
X81219Y168079D01*
X81202Y167903D01*
X81199Y167881D01*
X80819D01*
Y167088D01*
X80815Y167069D01*
X80819Y167051D01*
Y160179D01*
X84781D01*
Y167051D01*
X84785Y167069D01*
X84781Y167088D01*
Y167881D01*
X84401D01*
X84399Y167893D01*
X84380Y168162D01*
Y169387D01*
X89055D01*
Y169576D01*
X89428Y169825D01*
X90372D01*
X91245Y170187D01*
X91913Y170855D01*
X92275Y171728D01*
Y172672D01*
X91913Y173545D01*
X91245Y174213D01*
X90372Y174575D01*
X89751D01*
X89308Y174985D01*
Y175915D01*
X89751Y176325D01*
X90372D01*
X91245Y176687D01*
X91913Y177355D01*
X92275Y178228D01*
Y179172D01*
X91913Y180045D01*
X91245Y180713D01*
X90372Y181075D01*
X89428D01*
X89055Y181324D01*
Y181813D01*
X87514D01*
X87288Y182613D01*
X88903Y183603D01*
X90567Y185024D01*
X91988Y186687D01*
X92374Y187319D01*
X93174Y187093D01*
D02*
G37*
G36*
X73889Y160976D02*
X73818Y160931D01*
X73755Y160856D01*
X73701Y160751D01*
X73655Y160616D01*
X73617Y160451D01*
X73588Y160256D01*
X73567Y160031D01*
X73550Y159491D01*
X72050D01*
X72046Y159776D01*
X72012Y160256D01*
X71983Y160451D01*
X71945Y160616D01*
X71899Y160751D01*
X71845Y160856D01*
X71782Y160931D01*
X71710Y160976D01*
X71631Y160991D01*
X73969D01*
X73889Y160976D01*
D02*
G37*
G36*
X64898Y156022D02*
X64830Y155998D01*
X64770Y155958D01*
X64718Y155902D01*
X64674Y155830D01*
X64638Y155742D01*
X64610Y155638D01*
X64590Y155518D01*
X64578Y155382D01*
X64574Y155230D01*
X63774D01*
X63770Y155382D01*
X63758Y155518D01*
X63738Y155638D01*
X63710Y155742D01*
X63674Y155830D01*
X63630Y155902D01*
X63578Y155958D01*
X63518Y155998D01*
X63450Y156022D01*
X63374Y156030D01*
X64974D01*
X64898Y156022D01*
D02*
G37*
G36*
X56898D02*
X56830Y155998D01*
X56770Y155958D01*
X56718Y155902D01*
X56674Y155830D01*
X56638Y155742D01*
X56610Y155638D01*
X56590Y155518D01*
X56578Y155382D01*
X56574Y155230D01*
X55774D01*
X55770Y155382D01*
X55758Y155518D01*
X55738Y155638D01*
X55710Y155742D01*
X55674Y155830D01*
X55630Y155902D01*
X55578Y155958D01*
X55518Y155998D01*
X55450Y156022D01*
X55374Y156030D01*
X56974D01*
X56898Y156022D01*
D02*
G37*
G36*
X32498D02*
X32430Y155998D01*
X32370Y155958D01*
X32318Y155902D01*
X32274Y155830D01*
X32238Y155742D01*
X32210Y155638D01*
X32190Y155518D01*
X32178Y155382D01*
X32174Y155230D01*
X31374D01*
X31370Y155382D01*
X31358Y155518D01*
X31338Y155638D01*
X31310Y155742D01*
X31274Y155830D01*
X31230Y155902D01*
X31178Y155958D01*
X31118Y155998D01*
X31050Y156022D01*
X30974Y156030D01*
X32574D01*
X32498Y156022D01*
D02*
G37*
G36*
X40979Y156020D02*
X40894Y155990D01*
X40819Y155940D01*
X40754Y155870D01*
X40699Y155780D01*
X40654Y155670D01*
X40619Y155540D01*
X40607Y155468D01*
X40628Y155371D01*
X40670Y155236D01*
X40725Y155103D01*
X40791Y154973D01*
X40869Y154845D01*
X40960Y154721D01*
X41062Y154599D01*
X41176Y154479D01*
X38972D01*
X39086Y154599D01*
X39189Y154721D01*
X39279Y154845D01*
X39357Y154973D01*
X39423Y155103D01*
X39478Y155236D01*
X39520Y155371D01*
X39541Y155468D01*
X39529Y155540D01*
X39494Y155670D01*
X39449Y155780D01*
X39394Y155870D01*
X39329Y155940D01*
X39254Y155990D01*
X39169Y156020D01*
X39074Y156030D01*
X41074D01*
X40979Y156020D01*
D02*
G37*
G36*
X48898Y156022D02*
X48830Y155998D01*
X48770Y155958D01*
X48718Y155902D01*
X48674Y155830D01*
X48638Y155742D01*
X48610Y155638D01*
X48600Y155579D01*
X48602Y155565D01*
X48638Y155432D01*
X48687Y155300D01*
X48751Y155167D01*
X48829Y155033D01*
X48922Y154900D01*
X49028Y154766D01*
X49149Y154632D01*
X49284Y154497D01*
X47079Y154461D01*
X47211Y154601D01*
X47434Y154878D01*
X47524Y155015D01*
X47600Y155151D01*
X47663Y155286D01*
X47712Y155420D01*
X47746Y155553D01*
X47749Y155571D01*
X47738Y155638D01*
X47710Y155742D01*
X47674Y155830D01*
X47630Y155902D01*
X47578Y155958D01*
X47518Y155998D01*
X47450Y156022D01*
X47374Y156030D01*
X48974D01*
X48898Y156022D01*
D02*
G37*
G36*
X61862Y154969D02*
X61999Y154850D01*
X62135Y154744D01*
X62270Y154653D01*
X62405Y154576D01*
X62539Y154512D01*
X62672Y154463D01*
X62805Y154428D01*
X62937Y154407D01*
X63068Y154400D01*
Y153600D01*
X62937Y153593D01*
X62805Y153572D01*
X62672Y153537D01*
X62539Y153488D01*
X62405Y153424D01*
X62270Y153347D01*
X62135Y153256D01*
X61999Y153150D01*
X61862Y153031D01*
X61725Y152898D01*
Y155102D01*
X61862Y154969D01*
D02*
G37*
G36*
X88604Y154562D02*
X88837Y154368D01*
X88951Y154289D01*
X89062Y154223D01*
X89171Y154169D01*
X89278Y154127D01*
X89382Y154097D01*
X89484Y154080D01*
X89584Y154075D01*
X88025Y152516D01*
X88020Y152616D01*
X88003Y152718D01*
X87973Y152822D01*
X87931Y152929D01*
X87877Y153038D01*
X87811Y153149D01*
X87732Y153263D01*
X87641Y153378D01*
X87538Y153497D01*
X87422Y153617D01*
X88483Y154678D01*
X88604Y154562D01*
D02*
G37*
G36*
X68617Y152110D02*
X68498Y151985D01*
X68394Y151860D01*
X68304Y151737D01*
X68228Y151614D01*
X68165Y151492D01*
X68117Y151370D01*
X68083Y151249D01*
X68062Y151129D01*
X68056Y151009D01*
X68063Y150890D01*
X66690Y152263D01*
X66809Y152256D01*
X66929Y152262D01*
X67049Y152283D01*
X67170Y152317D01*
X67292Y152366D01*
X67414Y152428D01*
X67537Y152504D01*
X67660Y152594D01*
X67785Y152699D01*
X67909Y152817D01*
X68617Y152110D01*
D02*
G37*
G36*
X56404Y153539D02*
X56317Y153441D01*
X56238Y153333D01*
X56169Y153214D01*
X56110Y153085D01*
X56059Y152945D01*
X56019Y152796D01*
X55988Y152635D01*
X55966Y152465D01*
X55954Y152284D01*
X55951Y152092D01*
X54392Y153651D01*
X54584Y153654D01*
X54765Y153666D01*
X54935Y153688D01*
X55096Y153719D01*
X55246Y153760D01*
X55385Y153810D01*
X55514Y153869D01*
X55633Y153938D01*
X55741Y154016D01*
X55839Y154104D01*
X56404Y153539D01*
D02*
G37*
G36*
X60584Y152425D02*
X60393Y152422D01*
X60212Y152410D01*
X60041Y152389D01*
X59881Y152357D01*
X59731Y152317D01*
X59591Y152267D01*
X59462Y152207D01*
X59344Y152138D01*
X59236Y152060D01*
X59138Y151972D01*
X58572Y152538D01*
X58660Y152636D01*
X58738Y152744D01*
X58807Y152862D01*
X58867Y152991D01*
X58917Y153131D01*
X58957Y153281D01*
X58989Y153441D01*
X59010Y153612D01*
X59022Y153793D01*
X59025Y153984D01*
X60584Y152425D01*
D02*
G37*
G36*
X41062Y152111D02*
X40960Y151988D01*
X40869Y151864D01*
X40791Y151736D01*
X40725Y151606D01*
X40670Y151474D01*
X40628Y151338D01*
X40598Y151200D01*
X40580Y151060D01*
X40574Y150916D01*
X39574D01*
X39568Y151060D01*
X39550Y151200D01*
X39520Y151338D01*
X39478Y151474D01*
X39423Y151606D01*
X39357Y151736D01*
X39279Y151864D01*
X39189Y151988D01*
X39086Y152111D01*
X38972Y152230D01*
X41176D01*
X41062Y152111D01*
D02*
G37*
G36*
X49284Y152212D02*
X49149Y152077D01*
X49028Y151943D01*
X48922Y151809D01*
X48829Y151676D01*
X48751Y151542D01*
X48687Y151409D01*
X48638Y151277D01*
X48602Y151144D01*
X48581Y151012D01*
X48574Y150880D01*
X47774Y150894D01*
X47767Y151024D01*
X47746Y151156D01*
X47712Y151289D01*
X47663Y151423D01*
X47600Y151558D01*
X47524Y151694D01*
X47434Y151831D01*
X47211Y152108D01*
X47079Y152248D01*
X49284Y152212D01*
D02*
G37*
G36*
X55345Y150814D02*
X55226Y150678D01*
X55120Y150542D01*
X55029Y150406D01*
X54952Y150272D01*
X54889Y150138D01*
X54840Y150004D01*
X54804Y149872D01*
X54783Y149740D01*
X54776Y149608D01*
X53976D01*
X53969Y149740D01*
X53948Y149872D01*
X53913Y150004D01*
X53864Y150138D01*
X53801Y150272D01*
X53724Y150406D01*
X53632Y150542D01*
X53527Y150678D01*
X53408Y150814D01*
X53274Y150952D01*
X55479D01*
X55345Y150814D01*
D02*
G37*
G36*
X9634Y150446D02*
X9680Y150318D01*
X9756Y150206D01*
X9862Y150108D01*
X9998Y150026D01*
X10164Y149958D01*
X10361Y149906D01*
X10587Y149868D01*
X10844Y149846D01*
X11130Y149838D01*
Y148338D01*
X10846Y148331D01*
X10590Y148310D01*
X10366Y148275D01*
X10170Y148226D01*
X10006Y148163D01*
X9871Y148086D01*
X9765Y147994D01*
X9691Y147889D01*
X9646Y147770D01*
X9630Y147637D01*
X9618Y150588D01*
X9634Y150446D01*
D02*
G37*
G36*
X15472Y147618D02*
X15327Y147755D01*
X15177Y147877D01*
X15020Y147985D01*
X14857Y148079D01*
X14688Y148158D01*
X14513Y148223D01*
X14332Y148273D01*
X14144Y148309D01*
X13950Y148331D01*
X13750Y148338D01*
Y149838D01*
X13950Y149845D01*
X14144Y149867D01*
X14332Y149903D01*
X14513Y149953D01*
X14688Y150018D01*
X14857Y150097D01*
X15020Y150191D01*
X15177Y150299D01*
X15327Y150421D01*
X15472Y150558D01*
Y147618D01*
D02*
G37*
G36*
X88305Y146619D02*
X88320Y146449D01*
X88345Y146299D01*
X88380Y146169D01*
X88425Y146059D01*
X88480Y145969D01*
X88545Y145899D01*
X88620Y145849D01*
X88705Y145819D01*
X88800Y145809D01*
X86800D01*
X86895Y145819D01*
X86980Y145849D01*
X87055Y145899D01*
X87120Y145969D01*
X87175Y146059D01*
X87220Y146169D01*
X87255Y146299D01*
X87280Y146449D01*
X87295Y146619D01*
X87300Y146809D01*
X88300D01*
X88305Y146619D01*
D02*
G37*
G36*
X83204Y146450D02*
X83216Y146315D01*
X83235Y146197D01*
X83262Y146094D01*
X83298Y146007D01*
X83341Y145936D01*
X83391Y145880D01*
X83450Y145841D01*
X83517Y145817D01*
X83591Y145809D01*
X82009D01*
X82083Y145817D01*
X82150Y145841D01*
X82209Y145880D01*
X82259Y145936D01*
X82302Y146007D01*
X82337Y146094D01*
X82365Y146197D01*
X82384Y146315D01*
X82396Y146450D01*
X82400Y146600D01*
X83200D01*
X83204Y146450D01*
D02*
G37*
G36*
X73929Y147708D02*
X73809Y147597D01*
X73702Y147483D01*
X73608Y147365D01*
X73526Y147243D01*
X73457Y147117D01*
X73401Y146988D01*
X73357Y146855D01*
X73325Y146718D01*
X73308Y146588D01*
X73320Y146449D01*
X73345Y146299D01*
X73380Y146169D01*
X73425Y146059D01*
X73480Y145969D01*
X73545Y145899D01*
X73620Y145849D01*
X73705Y145819D01*
X73800Y145809D01*
X71800D01*
X71895Y145819D01*
X71980Y145849D01*
X72055Y145899D01*
X72120Y145969D01*
X72175Y146059D01*
X72220Y146169D01*
X72255Y146299D01*
X72280Y146449D01*
X72295Y146619D01*
X72295Y146622D01*
X72294Y146641D01*
X72277Y146781D01*
X72249Y146920D01*
X72209Y147057D01*
X72157Y147192D01*
X72094Y147326D01*
X72020Y147459D01*
X71934Y147590D01*
X71837Y147720D01*
X71728Y147848D01*
X73929Y147708D01*
D02*
G37*
G36*
X60224Y145391D02*
X60156Y145329D01*
X60096Y145257D01*
X60044Y145176D01*
X60000Y145084D01*
X59964Y144982D01*
X59936Y144871D01*
X59916Y144749D01*
X59904Y144618D01*
X59900Y144477D01*
X59100D01*
X59096Y144618D01*
X59084Y144749D01*
X59064Y144871D01*
X59036Y144982D01*
X59000Y145084D01*
X58956Y145176D01*
X58904Y145257D01*
X58844Y145329D01*
X58776Y145391D01*
X58700Y145443D01*
X60300D01*
X60224Y145391D01*
D02*
G37*
G36*
X71643Y142600D02*
X71633Y142695D01*
X71602Y142780D01*
X71552Y142855D01*
X71481Y142920D01*
X71390Y142975D01*
X71279Y143020D01*
X71147Y143055D01*
X70995Y143080D01*
X70823Y143095D01*
X70631Y143100D01*
Y144100D01*
X70823Y144105D01*
X70995Y144120D01*
X71147Y144145D01*
X71279Y144180D01*
X71390Y144225D01*
X71481Y144280D01*
X71552Y144345D01*
X71602Y144420D01*
X71633Y144505D01*
X71643Y144600D01*
Y142600D01*
D02*
G37*
G36*
X67803Y144505D02*
X67899Y144420D01*
X68004Y144345D01*
X68118Y144280D01*
X68241Y144225D01*
X68374Y144180D01*
X68515Y144145D01*
X68665Y144120D01*
X68825Y144105D01*
X68993Y144100D01*
Y143100D01*
X68825Y143095D01*
X68665Y143080D01*
X68515Y143055D01*
X68374Y143020D01*
X68241Y142975D01*
X68118Y142920D01*
X68004Y142855D01*
X67899Y142780D01*
X67803Y142695D01*
X67717Y142600D01*
Y144600D01*
X67803Y144505D01*
D02*
G37*
G36*
X54263Y170749D02*
X54364Y170715D01*
X54428Y170681D01*
X54469Y170647D01*
X54503Y170606D01*
X54537Y170542D01*
X54571Y170441D01*
X54594Y170314D01*
Y167999D01*
X54584Y167890D01*
X54558Y167734D01*
X54535Y167645D01*
X53405D01*
Y161714D01*
X53405D01*
Y161148D01*
X53405D01*
Y155218D01*
X53823D01*
X53904Y154451D01*
X53031Y154090D01*
X52363Y153422D01*
X52002Y152549D01*
Y151604D01*
X52363Y150731D01*
X52649Y150446D01*
X52689Y150383D01*
X52807Y150261D01*
X52897Y150159D01*
X52971Y150063D01*
X53031Y149975D01*
X53077Y149894D01*
X53111Y149822D01*
X53135Y149758D01*
X53149Y149703D01*
X53153Y149680D01*
Y141323D01*
X52414Y141017D01*
X49398Y144033D01*
Y150951D01*
X49401Y150973D01*
X49416Y151028D01*
X49439Y151089D01*
X49472Y151159D01*
X49518Y151237D01*
X49577Y151323D01*
X49651Y151416D01*
X49741Y151516D01*
X49860Y151634D01*
X49903Y151699D01*
X50213Y152009D01*
X50575Y152882D01*
Y153827D01*
X50330Y154418D01*
X50692Y155123D01*
X50799Y155218D01*
X50942D01*
Y160797D01*
X51143Y161514D01*
X51143Y161866D01*
Y164179D01*
X45206D01*
Y161866D01*
X45206Y161514D01*
X45406Y160797D01*
Y155218D01*
X45601D01*
X45708Y155123D01*
X46070Y154418D01*
X45825Y153827D01*
Y152882D01*
X46187Y152009D01*
X46449Y151747D01*
X46485Y151689D01*
X46595Y151573D01*
X46773Y151350D01*
X46827Y151269D01*
X46874Y151186D01*
X46908Y151111D01*
X46932Y151046D01*
X46947Y150989D01*
X46951Y150966D01*
Y144655D01*
X46150Y144324D01*
X41399Y149075D01*
Y151037D01*
X41403Y151061D01*
X41418Y151130D01*
X41439Y151198D01*
X41467Y151266D01*
X41503Y151337D01*
X41548Y151410D01*
X41603Y151487D01*
X41669Y151566D01*
X41765Y151665D01*
X41804Y151726D01*
X42087Y152009D01*
X42449Y152882D01*
Y153827D01*
X42204Y154418D01*
X42566Y155123D01*
X42673Y155218D01*
X42843D01*
Y161148D01*
X42843D01*
Y161714D01*
X42843D01*
Y167645D01*
X41714D01*
X41690Y167734D01*
X41664Y167890D01*
X41654Y167999D01*
Y170772D01*
X54136D01*
X54263Y170749D01*
D02*
G37*
G36*
X24971Y142250D02*
X24686Y142235D01*
X24431Y142190D01*
X24206Y142115D01*
X24011Y142010D01*
X23846Y141875D01*
X23711Y141710D01*
X23606Y141515D01*
X23531Y141290D01*
X23486Y141035D01*
X23471Y140750D01*
X21971D01*
X21956Y141035D01*
X21911Y141290D01*
X21836Y141515D01*
X21731Y141710D01*
X21596Y141875D01*
X21431Y142010D01*
X21236Y142115D01*
X21011Y142190D01*
X20756Y142235D01*
X20471Y142250D01*
X22721Y143750D01*
X24971Y142250D01*
D02*
G37*
G36*
X17050D02*
X16765Y142235D01*
X16510Y142190D01*
X16285Y142115D01*
X16090Y142010D01*
X15925Y141875D01*
X15790Y141710D01*
X15685Y141515D01*
X15610Y141290D01*
X15565Y141035D01*
X15550Y140750D01*
X14050D01*
X14035Y141035D01*
X13990Y141290D01*
X13915Y141515D01*
X13810Y141710D01*
X13675Y141875D01*
X13510Y142010D01*
X13315Y142115D01*
X13090Y142190D01*
X12835Y142235D01*
X12550Y142250D01*
X14800Y143750D01*
X17050Y142250D01*
D02*
G37*
G36*
X88605Y139733D02*
X88520Y139702D01*
X88445Y139652D01*
X88380Y139581D01*
X88325Y139490D01*
X88280Y139379D01*
X88245Y139247D01*
X88220Y139095D01*
X88205Y138923D01*
X88200Y138731D01*
X87200D01*
X87195Y138923D01*
X87180Y139095D01*
X87155Y139247D01*
X87120Y139379D01*
X87075Y139490D01*
X87020Y139581D01*
X86955Y139652D01*
X86880Y139702D01*
X86795Y139733D01*
X86700Y139743D01*
X88700D01*
X88605Y139733D01*
D02*
G37*
G36*
X83605D02*
X83520Y139702D01*
X83445Y139652D01*
X83380Y139581D01*
X83325Y139490D01*
X83280Y139379D01*
X83245Y139247D01*
X83220Y139095D01*
X83205Y138923D01*
X83200Y138731D01*
X82200D01*
X82195Y138923D01*
X82180Y139095D01*
X82155Y139247D01*
X82120Y139379D01*
X82075Y139490D01*
X82020Y139581D01*
X81955Y139652D01*
X81880Y139702D01*
X81795Y139733D01*
X81700Y139743D01*
X83700D01*
X83605Y139733D01*
D02*
G37*
G36*
X78705D02*
X78620Y139702D01*
X78545Y139652D01*
X78480Y139581D01*
X78425Y139490D01*
X78380Y139379D01*
X78345Y139247D01*
X78320Y139095D01*
X78305Y138923D01*
X78300Y138731D01*
X77300D01*
X77295Y138923D01*
X77280Y139095D01*
X77255Y139247D01*
X77220Y139379D01*
X77175Y139490D01*
X77120Y139581D01*
X77055Y139652D01*
X76980Y139702D01*
X76895Y139733D01*
X76800Y139743D01*
X78800D01*
X78705Y139733D01*
D02*
G37*
G36*
X61040Y137954D02*
X61079Y137922D01*
X61131Y137893D01*
X61196Y137869D01*
X61274Y137848D01*
X61366Y137830D01*
X61471Y137817D01*
X61721Y137802D01*
X61866Y137800D01*
Y136800D01*
X61721Y136798D01*
X61366Y136769D01*
X61274Y136752D01*
X61196Y136731D01*
X61131Y136706D01*
X61079Y136678D01*
X61040Y136645D01*
X61015Y136609D01*
Y137991D01*
X61040Y137954D01*
D02*
G37*
G36*
X71814Y135900D02*
X71624Y135890D01*
X71454Y135860D01*
X71304Y135810D01*
X71174Y135740D01*
X71064Y135650D01*
X70974Y135540D01*
X70904Y135410D01*
X70854Y135260D01*
X70824Y135090D01*
X70814Y134900D01*
X69814D01*
X69804Y135090D01*
X69774Y135260D01*
X69724Y135410D01*
X69654Y135540D01*
X69564Y135650D01*
X69454Y135740D01*
X69324Y135810D01*
X69174Y135860D01*
X69004Y135890D01*
X68814Y135900D01*
X70314Y136900D01*
X71814Y135900D01*
D02*
G37*
G36*
X68040D02*
X67850Y135890D01*
X67680Y135860D01*
X67530Y135810D01*
X67400Y135740D01*
X67290Y135650D01*
X67200Y135540D01*
X67130Y135410D01*
X67080Y135260D01*
X67050Y135090D01*
X67040Y134900D01*
X66040D01*
X66030Y135090D01*
X66000Y135260D01*
X65950Y135410D01*
X65880Y135540D01*
X65790Y135650D01*
X65680Y135740D01*
X65550Y135810D01*
X65400Y135860D01*
X65230Y135890D01*
X65040Y135900D01*
X66540Y136900D01*
X68040Y135900D01*
D02*
G37*
G36*
X83210Y135410D02*
X83240Y135240D01*
X83290Y135090D01*
X83360Y134960D01*
X83450Y134850D01*
X83560Y134760D01*
X83690Y134690D01*
X83840Y134640D01*
X84010Y134610D01*
X84200Y134600D01*
X82700Y133600D01*
X81200Y134600D01*
X81390Y134610D01*
X81560Y134640D01*
X81710Y134690D01*
X81840Y134760D01*
X81950Y134850D01*
X82040Y134960D01*
X82110Y135090D01*
X82160Y135240D01*
X82190Y135410D01*
X82200Y135600D01*
X83200D01*
X83210Y135410D01*
D02*
G37*
G36*
X86791Y133711D02*
X86806Y133541D01*
X86831Y133391D01*
X86866Y133261D01*
X86911Y133151D01*
X86966Y133061D01*
X87031Y132991D01*
X87106Y132941D01*
X87191Y132911D01*
X87286Y132901D01*
X85286D01*
X85381Y132911D01*
X85466Y132941D01*
X85541Y132991D01*
X85606Y133061D01*
X85661Y133151D01*
X85706Y133261D01*
X85741Y133391D01*
X85766Y133541D01*
X85781Y133711D01*
X85786Y133901D01*
X86786D01*
X86791Y133711D01*
D02*
G37*
G36*
X70819D02*
X70834Y133541D01*
X70859Y133391D01*
X70894Y133261D01*
X70939Y133151D01*
X70994Y133061D01*
X71059Y132991D01*
X71134Y132941D01*
X71219Y132911D01*
X71314Y132901D01*
X69314D01*
X69409Y132911D01*
X69494Y132941D01*
X69569Y132991D01*
X69634Y133061D01*
X69689Y133151D01*
X69734Y133261D01*
X69769Y133391D01*
X69794Y133541D01*
X69809Y133711D01*
X69814Y133901D01*
X70814D01*
X70819Y133711D01*
D02*
G37*
G36*
X62805D02*
X62820Y133541D01*
X62845Y133391D01*
X62880Y133261D01*
X62925Y133151D01*
X62980Y133061D01*
X63045Y132991D01*
X63120Y132941D01*
X63205Y132911D01*
X63300Y132901D01*
X61300D01*
X61395Y132911D01*
X61480Y132941D01*
X61555Y132991D01*
X61620Y133061D01*
X61675Y133151D01*
X61720Y133261D01*
X61755Y133391D01*
X61780Y133541D01*
X61795Y133711D01*
X61800Y133901D01*
X62800D01*
X62805Y133711D01*
D02*
G37*
G36*
X79700Y133600D02*
X79510Y133590D01*
X79340Y133560D01*
X79190Y133510D01*
X79060Y133440D01*
X78950Y133350D01*
X78860Y133240D01*
X78817Y133161D01*
X78825Y133142D01*
X78880Y133051D01*
X78945Y132981D01*
X79020Y132930D01*
X79105Y132899D01*
X79200Y132889D01*
X78728D01*
X78710Y132790D01*
X78700Y132600D01*
X77700D01*
X77690Y132790D01*
X77672Y132889D01*
X77200D01*
X77295Y132899D01*
X77380Y132930D01*
X77455Y132981D01*
X77520Y133051D01*
X77575Y133142D01*
X77583Y133161D01*
X77540Y133240D01*
X77450Y133350D01*
X77340Y133440D01*
X77210Y133510D01*
X77060Y133560D01*
X76890Y133590D01*
X76700Y133600D01*
X78200Y134600D01*
X79700Y133600D01*
D02*
G37*
G36*
X78924Y122091D02*
X78856Y122067D01*
X78796Y122027D01*
X78744Y121971D01*
X78700Y121899D01*
X78664Y121811D01*
X78636Y121707D01*
X78616Y121587D01*
X78604Y121451D01*
X78600Y121299D01*
X77800D01*
X77796Y121451D01*
X77784Y121587D01*
X77764Y121707D01*
X77736Y121811D01*
X77700Y121899D01*
X77656Y121971D01*
X77604Y122027D01*
X77544Y122067D01*
X77476Y122091D01*
X77400Y122099D01*
X79000D01*
X78924Y122091D01*
D02*
G37*
G36*
X63024Y122102D02*
X62956Y122078D01*
X62896Y122037D01*
X62844Y121981D01*
X62800Y121908D01*
X62764Y121818D01*
X62736Y121713D01*
X62716Y121591D01*
X62704Y121453D01*
X62700Y121299D01*
X61900D01*
X61896Y121453D01*
X61884Y121591D01*
X61864Y121713D01*
X61836Y121818D01*
X61800Y121908D01*
X61756Y121981D01*
X61704Y122037D01*
X61644Y122078D01*
X61576Y122102D01*
X61500Y122111D01*
X63100D01*
X63024Y122102D01*
D02*
G37*
G36*
X71671Y122096D02*
X71544Y122050D01*
X71431Y121975D01*
X71334Y121869D01*
X71251Y121733D01*
X71184Y121566D01*
X71131Y121370D01*
X71094Y121143D01*
X71071Y120886D01*
X71064Y120599D01*
X69564D01*
X69556Y120886D01*
X69534Y121143D01*
X69496Y121370D01*
X69444Y121566D01*
X69376Y121733D01*
X69294Y121869D01*
X69196Y121975D01*
X69084Y122050D01*
X68956Y122096D01*
X68814Y122111D01*
X71814D01*
X71671Y122096D01*
D02*
G37*
G36*
X68666Y117842D02*
X67646D01*
X67648Y117853D01*
X67650Y117883D01*
X67656Y118846D01*
X68656D01*
X68666Y117842D01*
D02*
G37*
G36*
X56746Y118530D02*
X56784Y117998D01*
X56799Y117937D01*
X56815Y117890D01*
X56834Y117859D01*
X56854Y117842D01*
X55835D01*
X55856Y117859D01*
X55875Y117890D01*
X55891Y117937D01*
X55905Y117998D01*
X55918Y118075D01*
X55935Y118273D01*
X55944Y118530D01*
X55945Y118682D01*
X56745D01*
X56746Y118530D01*
D02*
G37*
G36*
X54777D02*
X54816Y117998D01*
X54830Y117937D01*
X54847Y117890D01*
X54865Y117859D01*
X54886Y117842D01*
X53867D01*
X53887Y117859D01*
X53906Y117890D01*
X53923Y117937D01*
X53937Y117998D01*
X53949Y118075D01*
X53966Y118273D01*
X53975Y118530D01*
X53976Y118682D01*
X54776D01*
X54777Y118530D01*
D02*
G37*
G36*
X52900Y118649D02*
X52917Y117842D01*
X51898D01*
X51937Y117865D01*
X51971Y117902D01*
X52001Y117953D01*
X52027Y118016D01*
X52049Y118094D01*
X52068Y118184D01*
X52082Y118289D01*
X52098Y118537D01*
X52100Y118682D01*
X52900Y118649D01*
D02*
G37*
G36*
X50949Y117842D02*
X49930D01*
X49931Y117853D01*
X49933Y117883D01*
X49939Y118846D01*
X50939D01*
X50949Y117842D01*
D02*
G37*
G36*
X48872Y118530D02*
X48910Y117998D01*
X48925Y117937D01*
X48941Y117890D01*
X48960Y117859D01*
X48981Y117842D01*
X47961D01*
X47982Y117859D01*
X48001Y117890D01*
X48017Y117937D01*
X48031Y117998D01*
X48043Y118075D01*
X48061Y118273D01*
X48070Y118530D01*
X48071Y118682D01*
X48871D01*
X48872Y118530D01*
D02*
G37*
G36*
X70672Y115954D02*
X70702Y115869D01*
X70753Y115794D01*
X70824Y115729D01*
X70915Y115674D01*
X71026Y115629D01*
X71158Y115594D01*
X71310Y115569D01*
X71482Y115554D01*
X71674Y115549D01*
Y114549D01*
X71482Y114544D01*
X71310Y114529D01*
X71158Y114504D01*
X71026Y114469D01*
X70915Y114424D01*
X70824Y114369D01*
X70753Y114304D01*
X70702Y114229D01*
X70672Y114144D01*
X70662Y114049D01*
Y116049D01*
X70672Y115954D01*
D02*
G37*
G36*
X5067Y114845D02*
X4982Y114815D01*
X4907Y114764D01*
X4842Y114694D01*
X4787Y114602D01*
X4742Y114491D01*
X4707Y114360D01*
X4682Y114208D01*
X4667Y114036D01*
X4662Y113844D01*
X3662D01*
X3657Y114036D01*
X3642Y114208D01*
X3617Y114360D01*
X3582Y114491D01*
X3537Y114602D01*
X3482Y114694D01*
X3417Y114764D01*
X3342Y114815D01*
X3257Y114845D01*
X3162Y114856D01*
X5162D01*
X5067Y114845D01*
D02*
G37*
G36*
X26455Y113957D02*
X26485Y113872D01*
X26536Y113797D01*
X26606Y113732D01*
X26697Y113677D01*
X26809Y113632D01*
X26940Y113597D01*
X27092Y113572D01*
X27264Y113557D01*
X27457Y113552D01*
Y112552D01*
X27264Y112547D01*
X27092Y112532D01*
X26940Y112507D01*
X26809Y112472D01*
X26697Y112427D01*
X26606Y112372D01*
X26536Y112307D01*
X26485Y112232D01*
X26455Y112147D01*
X26445Y112052D01*
Y114052D01*
X26455Y113957D01*
D02*
G37*
G36*
X22556Y112052D02*
X22545Y112147D01*
X22515Y112232D01*
X22464Y112307D01*
X22394Y112372D01*
X22302Y112427D01*
X22191Y112472D01*
X22060Y112507D01*
X21908Y112532D01*
X21736Y112547D01*
X21543Y112552D01*
Y113552D01*
X21736Y113557D01*
X21908Y113572D01*
X22060Y113597D01*
X22191Y113632D01*
X22302Y113677D01*
X22394Y113732D01*
X22464Y113797D01*
X22515Y113872D01*
X22545Y113957D01*
X22556Y114052D01*
Y112052D01*
D02*
G37*
G36*
X15577Y113957D02*
X15608Y113872D01*
X15657Y113797D01*
X15728Y113732D01*
X15818Y113677D01*
X15927Y113632D01*
X16058Y113597D01*
X16207Y113572D01*
X16377Y113557D01*
X16567Y113552D01*
Y112552D01*
X16377Y112547D01*
X16207Y112532D01*
X16058Y112507D01*
X15927Y112472D01*
X15818Y112427D01*
X15728Y112372D01*
X15657Y112307D01*
X15608Y112232D01*
X15577Y112147D01*
X15567Y112052D01*
Y114052D01*
X15577Y113957D01*
D02*
G37*
G36*
X62739Y112239D02*
X62721Y112208D01*
X62704Y112161D01*
X62690Y112100D01*
X62678Y112023D01*
X62660Y111825D01*
X62651Y111567D01*
X62650Y111416D01*
X61850D01*
X61849Y111567D01*
X61811Y112100D01*
X61797Y112161D01*
X61780Y112208D01*
X61762Y112239D01*
X61741Y112256D01*
X62760D01*
X62739Y112239D01*
D02*
G37*
G36*
X81984Y109825D02*
X81819Y109822D01*
X81660Y109808D01*
X81508Y109784D01*
X81363Y109749D01*
X81224Y109704D01*
X81092Y109648D01*
X80966Y109582D01*
X80847Y109506D01*
X80735Y109419D01*
X80629Y109322D01*
X79922Y110029D01*
X80019Y110135D01*
X80106Y110247D01*
X80182Y110366D01*
X80248Y110492D01*
X80304Y110624D01*
X80349Y110763D01*
X80384Y110908D01*
X80408Y111060D01*
X80422Y111219D01*
X80425Y111384D01*
X81984Y109825D01*
D02*
G37*
G36*
X78578Y109907D02*
X78609Y109905D01*
X79571Y109899D01*
Y108899D01*
X78567Y108890D01*
Y109909D01*
X78578Y109907D01*
D02*
G37*
G36*
X83518Y127783D02*
X83318Y127417D01*
X83318D01*
Y124752D01*
X86286D01*
Y124252D01*
X86786D01*
Y122111D01*
X87819D01*
X87677Y122096D01*
X87549Y122050D01*
X87436Y121975D01*
X87339Y121869D01*
X87256Y121733D01*
X87189Y121566D01*
X87137Y121370D01*
X87099Y121143D01*
X87094Y121087D01*
X88574D01*
Y108756D01*
X83760D01*
X83750Y108772D01*
X83515Y109556D01*
X84013Y110055D01*
X84375Y110928D01*
Y111872D01*
X84013Y112745D01*
X83345Y113413D01*
X82472Y113775D01*
X81528D01*
X80655Y113413D01*
X79987Y112745D01*
X79625Y111872D01*
Y111471D01*
X79610Y111402D01*
X79607Y111263D01*
X79598Y111160D01*
X79583Y111067D01*
X79563Y110984D01*
X79539Y110908D01*
X79510Y110840D01*
X79477Y110777D01*
X79443Y110725D01*
X78693D01*
X78471Y110769D01*
X74744D01*
X74438Y111508D01*
X75368Y112438D01*
X75437Y112484D01*
X77565Y114612D01*
X77611Y114681D01*
X79065Y116135D01*
X79330Y116532D01*
X79423Y117000D01*
Y121287D01*
X80968D01*
Y127217D01*
X80968D01*
Y127783D01*
X80968D01*
Y132774D01*
X83518D01*
Y127783D01*
D02*
G37*
G36*
X30174Y111451D02*
Y101245D01*
X29435Y100939D01*
X28585Y101789D01*
X28155Y102076D01*
X27648Y102177D01*
X27268D01*
Y103817D01*
X27468Y104183D01*
X27468D01*
Y106848D01*
X24500D01*
X21531D01*
Y104183D01*
X21531D01*
X21732Y103817D01*
Y101585D01*
X16379D01*
Y103028D01*
X9625D01*
Y104772D01*
X12324D01*
Y107740D01*
X12824D01*
Y108240D01*
X16579D01*
Y110709D01*
X16379D01*
Y111726D01*
X21732D01*
Y110513D01*
X21531D01*
Y107848D01*
X24500D01*
X27468D01*
Y110513D01*
X27268D01*
Y111726D01*
X29899D01*
X30174Y111451D01*
D02*
G37*
G36*
X10092Y107191D02*
X10086Y107200D01*
X10069Y107209D01*
X10041Y107216D01*
X10002Y107222D01*
X9951Y107228D01*
X9733Y107238D01*
X9531Y107240D01*
Y108240D01*
X9637Y108241D01*
X10041Y108264D01*
X10069Y108272D01*
X10086Y108280D01*
X10092Y108289D01*
Y107191D01*
D02*
G37*
G36*
X78578Y107939D02*
X78609Y107937D01*
X79571Y107931D01*
Y106931D01*
X78567Y106921D01*
Y107940D01*
X78578Y107939D01*
D02*
G37*
G36*
X5067Y102045D02*
X4982Y102015D01*
X4907Y101964D01*
X4842Y101894D01*
X4787Y101803D01*
X4742Y101691D01*
X4707Y101560D01*
X4682Y101408D01*
X4667Y101236D01*
X4662Y101043D01*
X3662D01*
X3657Y101236D01*
X3642Y101408D01*
X3617Y101560D01*
X3582Y101691D01*
X3537Y101803D01*
X3482Y101894D01*
X3417Y101964D01*
X3342Y102015D01*
X3257Y102045D01*
X3162Y102056D01*
X5162D01*
X5067Y102045D01*
D02*
G37*
G36*
X45641Y101989D02*
X45680Y101948D01*
X45732Y101911D01*
X45797Y101880D01*
X45875Y101853D01*
X45965Y101831D01*
X46068Y101814D01*
X46184Y101802D01*
X46454Y101793D01*
X46359Y100993D01*
X45614Y101015D01*
Y102035D01*
X45641Y101989D01*
D02*
G37*
G36*
X43570Y101898D02*
X43636Y101876D01*
X43729Y101857D01*
X43850Y101840D01*
X44170Y101813D01*
X44853Y101794D01*
X45134Y101793D01*
Y100993D01*
X44853Y100991D01*
X43636Y100909D01*
X43570Y100887D01*
X43530Y100862D01*
Y101923D01*
X43570Y101898D01*
D02*
G37*
G36*
X26455Y101757D02*
X26485Y101672D01*
X26536Y101597D01*
X26606Y101532D01*
X26697Y101477D01*
X26809Y101432D01*
X26940Y101397D01*
X27092Y101372D01*
X27264Y101357D01*
X27457Y101352D01*
Y100352D01*
X27264Y100347D01*
X27092Y100332D01*
X26940Y100307D01*
X26809Y100272D01*
X26697Y100227D01*
X26606Y100172D01*
X26536Y100107D01*
X26485Y100032D01*
X26455Y99947D01*
X26445Y99852D01*
Y101852D01*
X26455Y101757D01*
D02*
G37*
G36*
X22556Y99260D02*
X22545Y99355D01*
X22515Y99440D01*
X22464Y99515D01*
X22394Y99580D01*
X22302Y99635D01*
X22191Y99680D01*
X22060Y99715D01*
X21908Y99740D01*
X21736Y99755D01*
X21543Y99760D01*
Y100760D01*
X21736Y100765D01*
X21908Y100780D01*
X22060Y100805D01*
X22191Y100840D01*
X22302Y100885D01*
X22394Y100940D01*
X22464Y101005D01*
X22515Y101080D01*
X22545Y101165D01*
X22556Y101260D01*
Y99260D01*
D02*
G37*
G36*
X15577Y101165D02*
X15608Y101080D01*
X15657Y101005D01*
X15728Y100940D01*
X15818Y100885D01*
X15927Y100840D01*
X16058Y100805D01*
X16207Y100780D01*
X16377Y100765D01*
X16567Y100760D01*
Y99760D01*
X16377Y99755D01*
X16207Y99740D01*
X16058Y99715D01*
X15927Y99680D01*
X15818Y99635D01*
X15728Y99580D01*
X15657Y99515D01*
X15608Y99440D01*
X15577Y99355D01*
X15567Y99260D01*
Y101260D01*
X15577Y101165D01*
D02*
G37*
G36*
X78578Y100065D02*
X78609Y100063D01*
X79571Y100057D01*
Y99057D01*
X78567Y99047D01*
Y100066D01*
X78578Y100065D01*
D02*
G37*
G36*
X45631Y100046D02*
X45663Y100027D01*
X45709Y100010D01*
X45770Y99996D01*
X45847Y99984D01*
X46045Y99967D01*
X46303Y99958D01*
X46454Y99957D01*
Y99157D01*
X46303Y99156D01*
X45770Y99117D01*
X45709Y99103D01*
X45663Y99086D01*
X45631Y99068D01*
X45614Y99047D01*
Y100066D01*
X45631Y100046D01*
D02*
G37*
G36*
X83575Y98454D02*
X83456Y98569D01*
X83334Y98671D01*
X83209Y98761D01*
X83082Y98840D01*
X82952Y98906D01*
X82819Y98960D01*
X82684Y99002D01*
X82546Y99033D01*
X82405Y99051D01*
X82262Y99057D01*
Y100057D01*
X82405Y100063D01*
X82546Y100081D01*
X82684Y100111D01*
X82819Y100153D01*
X82952Y100207D01*
X83082Y100274D01*
X83209Y100352D01*
X83334Y100442D01*
X83456Y100545D01*
X83575Y100659D01*
Y98454D01*
D02*
G37*
G36*
X85205Y98511D02*
X85212Y98432D01*
X85802D01*
X85688Y98313D01*
X85585Y98191D01*
X85495Y98066D01*
X85417Y97939D01*
X85379Y97864D01*
X85380Y97861D01*
X85445Y97791D01*
X85520Y97741D01*
X85605Y97711D01*
X85700Y97701D01*
X85307D01*
X85296Y97676D01*
X85254Y97540D01*
X85224Y97402D01*
X85206Y97262D01*
X85200Y97119D01*
X84200D01*
X84194Y97262D01*
X84176Y97402D01*
X84146Y97540D01*
X84104Y97676D01*
X84093Y97701D01*
X83700D01*
X83795Y97711D01*
X83880Y97741D01*
X83955Y97791D01*
X84020Y97861D01*
X84021Y97864D01*
X83983Y97939D01*
X83905Y98066D01*
X83815Y98191D01*
X83712Y98313D01*
X83598Y98432D01*
X84188D01*
X84195Y98511D01*
X84200Y98701D01*
X85200D01*
X85205Y98511D01*
D02*
G37*
G36*
X40028Y89205D02*
X40017Y89206D01*
X39987Y89208D01*
X39024Y89214D01*
Y90214D01*
X40028Y90224D01*
Y89205D01*
D02*
G37*
G36*
Y87236D02*
X40017Y87238D01*
X39987Y87239D01*
X39024Y87246D01*
Y88246D01*
X40028Y88255D01*
Y87236D01*
D02*
G37*
G36*
X70672Y83001D02*
X70702Y82916D01*
X70753Y82841D01*
X70824Y82776D01*
X70915Y82721D01*
X71026Y82676D01*
X71158Y82641D01*
X71310Y82616D01*
X71482Y82601D01*
X71674Y82596D01*
Y81596D01*
X71482Y81591D01*
X71310Y81576D01*
X71158Y81551D01*
X71026Y81516D01*
X70915Y81471D01*
X70824Y81416D01*
X70753Y81351D01*
X70702Y81276D01*
X70672Y81191D01*
X70662Y81096D01*
Y83096D01*
X70672Y83001D01*
D02*
G37*
G36*
X68664Y79296D02*
X68662Y79275D01*
X68658Y79136D01*
X68656Y78644D01*
X67656D01*
X67646Y79303D01*
X68666D01*
X68664Y79296D01*
D02*
G37*
G36*
X10940Y78589D02*
X10617Y78904D01*
X9989Y79436D01*
X9683Y79652D01*
X9383Y79835D01*
X9089Y79984D01*
X8801Y80101D01*
X8519Y80184D01*
X8242Y80233D01*
X7971Y80250D01*
Y81750D01*
X8242Y81767D01*
X8519Y81817D01*
X8801Y81899D01*
X9089Y82016D01*
X9383Y82165D01*
X9683Y82348D01*
X9989Y82564D01*
X10300Y82813D01*
X10617Y83096D01*
X10940Y83411D01*
Y78589D01*
D02*
G37*
G36*
X58802Y79286D02*
X58784Y79255D01*
X58767Y79208D01*
X58753Y79147D01*
X58741Y79070D01*
X58723Y78872D01*
X58714Y78614D01*
X58713Y78463D01*
X57913D01*
X57912Y78614D01*
X57874Y79147D01*
X57860Y79208D01*
X57843Y79255D01*
X57825Y79286D01*
X57804Y79303D01*
X58823D01*
X58802Y79286D01*
D02*
G37*
G36*
X66695Y79292D02*
X66694Y79261D01*
X66687Y78299D01*
X65687D01*
X65678Y79303D01*
X66697D01*
X66695Y79292D01*
D02*
G37*
G36*
X64727D02*
X64725Y79261D01*
X64719Y78299D01*
X63719D01*
X63709Y79303D01*
X64728D01*
X64727Y79292D01*
D02*
G37*
G36*
X62758D02*
X62757Y79261D01*
X62750Y78299D01*
X61750D01*
X61741Y79303D01*
X62760D01*
X62758Y79292D01*
D02*
G37*
G36*
X60790D02*
X60788Y79261D01*
X60782Y78299D01*
X59782D01*
X59772Y79303D01*
X60791D01*
X60790Y79292D01*
D02*
G37*
G36*
X50947D02*
X50946Y79261D01*
X50939Y78299D01*
X49939D01*
X49930Y79303D01*
X50949D01*
X50947Y79292D01*
D02*
G37*
G36*
X40655Y75090D02*
X41006Y74794D01*
X41165Y74684D01*
X41312Y74600D01*
X41448Y74541D01*
X41572Y74507D01*
X41685Y74498D01*
X41786Y74515D01*
X41876Y74557D01*
X40178Y73450D01*
X40247Y73514D01*
X40284Y73594D01*
X40290Y73693D01*
X40265Y73808D01*
X40209Y73941D01*
X40121Y74091D01*
X40003Y74258D01*
X39853Y74443D01*
X39459Y74864D01*
X40462Y75276D01*
X40655Y75090D01*
D02*
G37*
G36*
X27281Y71900D02*
X27266Y72043D01*
X27221Y72170D01*
X27145Y72282D01*
X27039Y72380D01*
X26903Y72462D01*
X26737Y72530D01*
X26540Y72583D01*
X26313Y72620D01*
X26056Y72642D01*
X25769Y72650D01*
Y74150D01*
X26056Y74158D01*
X26313Y74180D01*
X26540Y74217D01*
X26737Y74270D01*
X26903Y74338D01*
X27039Y74420D01*
X27145Y74518D01*
X27221Y74630D01*
X27266Y74757D01*
X27281Y74900D01*
Y71900D01*
D02*
G37*
G36*
X85804Y71717D02*
X85818Y71568D01*
X85840Y71423D01*
X85871Y71282D01*
X85910Y71144D01*
X85959Y71010D01*
X86017Y70880D01*
X86083Y70754D01*
X86158Y70631D01*
X86242Y70512D01*
X84358D01*
X84442Y70631D01*
X84517Y70754D01*
X84583Y70880D01*
X84641Y71010D01*
X84689Y71144D01*
X84729Y71282D01*
X84760Y71423D01*
X84782Y71568D01*
X84796Y71717D01*
X84800Y71870D01*
X85800D01*
X85804Y71717D01*
D02*
G37*
G36*
X77704D02*
X77718Y71568D01*
X77740Y71423D01*
X77771Y71282D01*
X77811Y71144D01*
X77859Y71010D01*
X77917Y70880D01*
X77983Y70754D01*
X78058Y70631D01*
X78142Y70512D01*
X76258D01*
X76342Y70631D01*
X76417Y70754D01*
X76483Y70880D01*
X76541Y71010D01*
X76590Y71144D01*
X76629Y71282D01*
X76660Y71423D01*
X76682Y71568D01*
X76696Y71717D01*
X76700Y71870D01*
X77700D01*
X77704Y71717D01*
D02*
G37*
G36*
X53404D02*
X53418Y71568D01*
X53440Y71423D01*
X53471Y71282D01*
X53510Y71144D01*
X53559Y71010D01*
X53617Y70880D01*
X53683Y70754D01*
X53758Y70631D01*
X53842Y70512D01*
X51958D01*
X52042Y70631D01*
X52117Y70754D01*
X52183Y70880D01*
X52241Y71010D01*
X52289Y71144D01*
X52329Y71282D01*
X52360Y71423D01*
X52382Y71568D01*
X52396Y71717D01*
X52400Y71870D01*
X53400D01*
X53404Y71717D01*
D02*
G37*
G36*
X60027Y71344D02*
X60125Y71264D01*
X60223Y71193D01*
X60323Y71133D01*
X60425Y71082D01*
X60527Y71042D01*
X60631Y71012D01*
X60737Y70991D01*
X60843Y70981D01*
X60951Y70980D01*
X59820Y69849D01*
X59819Y69957D01*
X59809Y70063D01*
X59789Y70169D01*
X59758Y70273D01*
X59718Y70375D01*
X59667Y70477D01*
X59607Y70577D01*
X59536Y70675D01*
X59456Y70773D01*
X59366Y70869D01*
X59931Y71434D01*
X60027Y71344D01*
D02*
G37*
G36*
X68249Y68981D02*
X68182Y69042D01*
X68105Y69096D01*
X68017Y69144D01*
X67918Y69185D01*
X67808Y69220D01*
X67688Y69249D01*
X67557Y69271D01*
X67415Y69287D01*
X67100Y69300D01*
Y70300D01*
X67263Y70303D01*
X67557Y70329D01*
X67688Y70351D01*
X67808Y70380D01*
X67918Y70415D01*
X68017Y70456D01*
X68105Y70504D01*
X68182Y70558D01*
X68249Y70619D01*
Y68981D01*
D02*
G37*
G36*
X16183Y73096D02*
X16811Y72564D01*
X17117Y72348D01*
X17417Y72165D01*
X17711Y72016D01*
X17999Y71899D01*
X18281Y71816D01*
X18558Y71767D01*
X18829Y71750D01*
Y70250D01*
X18558Y70233D01*
X18281Y70183D01*
X17999Y70100D01*
X17711Y69984D01*
X17417Y69835D01*
X17117Y69652D01*
X16811Y69436D01*
X16500Y69187D01*
X16183Y68904D01*
X15860Y68589D01*
Y73411D01*
X16183Y73096D01*
D02*
G37*
G36*
X73738Y64917D02*
X73751Y64768D01*
X73773Y64623D01*
X73804Y64482D01*
X73844Y64344D01*
X73892Y64210D01*
X73950Y64080D01*
X74016Y63954D01*
X74091Y63831D01*
X74175Y63712D01*
X72291D01*
X72375Y63831D01*
X72450Y63954D01*
X72517Y64080D01*
X72574Y64210D01*
X72623Y64344D01*
X72663Y64482D01*
X72694Y64623D01*
X72716Y64768D01*
X72729Y64917D01*
X72733Y65070D01*
X73733D01*
X73738Y64917D01*
D02*
G37*
G36*
X65171D02*
X65184Y64768D01*
X65206Y64623D01*
X65237Y64482D01*
X65277Y64344D01*
X65326Y64210D01*
X65383Y64080D01*
X65450Y63954D01*
X65525Y63831D01*
X65609Y63712D01*
X63725D01*
X63809Y63831D01*
X63884Y63954D01*
X63950Y64080D01*
X64008Y64210D01*
X64056Y64344D01*
X64096Y64482D01*
X64127Y64623D01*
X64149Y64768D01*
X64162Y64917D01*
X64167Y65070D01*
X65167D01*
X65171Y64917D01*
D02*
G37*
G36*
X56604D02*
X56618Y64768D01*
X56640Y64623D01*
X56671Y64482D01*
X56710Y64344D01*
X56759Y64210D01*
X56817Y64080D01*
X56883Y63954D01*
X56958Y63831D01*
X57042Y63712D01*
X55158D01*
X55242Y63831D01*
X55317Y63954D01*
X55383Y64080D01*
X55441Y64210D01*
X55489Y64344D01*
X55529Y64482D01*
X55560Y64623D01*
X55582Y64768D01*
X55596Y64917D01*
X55600Y65070D01*
X56600D01*
X56604Y64917D01*
D02*
G37*
G36*
X82205Y64964D02*
X82220Y64819D01*
X82246Y64676D01*
X82281Y64537D01*
X82327Y64400D01*
X82383Y64266D01*
X82449Y64134D01*
X82525Y64005D01*
X82612Y63879D01*
X82708Y63755D01*
X80826Y63668D01*
X80897Y63780D01*
X80961Y63897D01*
X81017Y64018D01*
X81065Y64146D01*
X81107Y64278D01*
X81140Y64415D01*
X81166Y64558D01*
X81185Y64706D01*
X81196Y64859D01*
X81200Y65017D01*
X82200Y65111D01*
X82205Y64964D01*
D02*
G37*
G36*
X43093Y64205D02*
X43124Y64120D01*
X43174Y64045D01*
X43245Y63980D01*
X43336Y63925D01*
X43447Y63880D01*
X43579Y63845D01*
X43731Y63820D01*
X43903Y63805D01*
X44095Y63800D01*
Y62800D01*
X43903Y62795D01*
X43731Y62780D01*
X43579Y62755D01*
X43447Y62720D01*
X43336Y62675D01*
X43245Y62620D01*
X43174Y62555D01*
X43124Y62480D01*
X43093Y62395D01*
X43083Y62300D01*
Y64300D01*
X43093Y64205D01*
D02*
G37*
G36*
X10940Y58589D02*
X10617Y58904D01*
X9989Y59436D01*
X9683Y59652D01*
X9383Y59835D01*
X9089Y59984D01*
X8948Y60041D01*
X8890Y60010D01*
X8725Y59875D01*
X8590Y59710D01*
X8485Y59515D01*
X8410Y59290D01*
X8365Y59035D01*
X8350Y58750D01*
X6850Y61000D01*
X8350Y63250D01*
X8365Y62965D01*
X8410Y62710D01*
X8485Y62485D01*
X8590Y62290D01*
X8725Y62125D01*
X8890Y61990D01*
X8948Y61959D01*
X9089Y62016D01*
X9383Y62165D01*
X9683Y62348D01*
X9989Y62564D01*
X10300Y62813D01*
X10617Y63096D01*
X10940Y63411D01*
Y58589D01*
D02*
G37*
G36*
X27281Y61800D02*
X27266Y61942D01*
X27221Y62070D01*
X27145Y62182D01*
X27039Y62280D01*
X26903Y62362D01*
X26737Y62430D01*
X26540Y62483D01*
X26313Y62520D01*
X26056Y62542D01*
X25769Y62550D01*
Y64050D01*
X26056Y64057D01*
X26313Y64080D01*
X26540Y64117D01*
X26737Y64170D01*
X26903Y64237D01*
X27039Y64320D01*
X27145Y64417D01*
X27221Y64530D01*
X27266Y64657D01*
X27281Y64800D01*
Y61800D01*
D02*
G37*
G36*
X57900Y7976D02*
X55710D01*
X55602Y7986D01*
X55445Y8011D01*
X55356Y8035D01*
Y9361D01*
X48244D01*
Y6741D01*
X48148Y6716D01*
X47993Y6690D01*
X47887Y6680D01*
X46184D01*
X45801Y7480D01*
X46054Y7794D01*
X46569D01*
Y13373D01*
X46769Y14090D01*
X46769Y14442D01*
Y16755D01*
X40832D01*
Y14442D01*
X40832Y14090D01*
X41032Y13373D01*
Y7794D01*
X41546D01*
X41799Y7480D01*
X41416Y6680D01*
X39988D01*
X39225Y6730D01*
X39221Y6749D01*
Y12046D01*
X35681D01*
Y12246D01*
X34000D01*
Y8982D01*
X33000D01*
Y12246D01*
X31319D01*
Y12046D01*
X28667D01*
X28654Y15588D01*
X29219Y16154D01*
X31741D01*
Y21451D01*
X31745Y21470D01*
X31741Y21488D01*
Y22282D01*
X31361D01*
X31359Y22294D01*
X31340Y22563D01*
Y25125D01*
X31220Y25730D01*
X30877Y26243D01*
X30365Y26585D01*
X29760Y26705D01*
X28623D01*
Y28043D01*
X31744D01*
Y32488D01*
Y36933D01*
X28623D01*
Y41901D01*
X30262D01*
X30370Y41891D01*
X30526Y41865D01*
X30617Y41841D01*
Y39379D01*
X36154D01*
Y41860D01*
X36245Y41884D01*
X36401Y41910D01*
X36509Y41920D01*
X37944D01*
X38050Y41910D01*
X38204Y41884D01*
X38301Y41859D01*
Y40516D01*
X45413D01*
Y41860D01*
X45502Y41884D01*
X45659Y41910D01*
X45767Y41920D01*
X48150D01*
X48218Y41911D01*
X48303Y41896D01*
X48371Y41879D01*
X48423Y41861D01*
X48459Y41846D01*
X48481Y41833D01*
X48490Y41827D01*
X48529Y41792D01*
X48580Y41762D01*
X48855Y41487D01*
X49728Y41125D01*
X50672D01*
X51545Y41487D01*
X52213Y42155D01*
X52575Y43028D01*
Y43972D01*
X52213Y44845D01*
X51545Y45513D01*
X50672Y45875D01*
X49728D01*
X48855Y45513D01*
X48580Y45238D01*
X48529Y45208D01*
X48490Y45173D01*
X48481Y45167D01*
X48459Y45154D01*
X48423Y45139D01*
X48371Y45121D01*
X48303Y45104D01*
X48229Y45091D01*
X48119Y45080D01*
X45767D01*
X45659Y45090D01*
X45502Y45116D01*
X45413Y45140D01*
Y46446D01*
X38301D01*
Y45142D01*
X38204Y45116D01*
X38050Y45090D01*
X37944Y45080D01*
X36849D01*
X36354Y45675D01*
Y48341D01*
X33386D01*
Y49341D01*
X36354D01*
Y50580D01*
X36986D01*
Y52580D01*
X33486D01*
Y53164D01*
X35986D01*
X36298Y53227D01*
X36562Y53403D01*
X36681Y53580D01*
X36986D01*
Y54600D01*
X38301D01*
Y53114D01*
X45413D01*
Y54600D01*
X57900D01*
Y7976D01*
D02*
G37*
G36*
X34143Y52207D02*
X34166Y51950D01*
X34203Y51723D01*
X34235Y51604D01*
X34886D01*
X34743Y51589D01*
X34616Y51544D01*
X34503Y51468D01*
X34406Y51362D01*
X34364Y51293D01*
X34406Y51224D01*
X34503Y51118D01*
X34616Y51042D01*
X34743Y50997D01*
X34886Y50982D01*
X34235D01*
X34203Y50863D01*
X34166Y50637D01*
X34143Y50380D01*
X34136Y50092D01*
X32636D01*
X32628Y50380D01*
X32606Y50637D01*
X32568Y50863D01*
X32537Y50982D01*
X31886D01*
X32028Y50997D01*
X32156Y51042D01*
X32268Y51118D01*
X32366Y51224D01*
X32408Y51293D01*
X32366Y51362D01*
X32268Y51468D01*
X32156Y51544D01*
X32028Y51589D01*
X31886Y51604D01*
X32537D01*
X32568Y51723D01*
X32606Y51950D01*
X32628Y52207D01*
X32636Y52494D01*
X34136D01*
X34143Y52207D01*
D02*
G37*
G36*
X16183Y53096D02*
X16811Y52564D01*
X17117Y52348D01*
X17417Y52165D01*
X17711Y52016D01*
X17999Y51899D01*
X18281Y51816D01*
X18558Y51767D01*
X18829Y51750D01*
Y50250D01*
X18558Y50233D01*
X18281Y50183D01*
X17999Y50100D01*
X17711Y49984D01*
X17417Y49835D01*
X17117Y49652D01*
X16811Y49436D01*
X16500Y49187D01*
X16183Y48904D01*
X15860Y48589D01*
Y53411D01*
X16183Y53096D01*
D02*
G37*
G36*
X49075Y42398D02*
X49001Y42465D01*
X48917Y42524D01*
X48822Y42577D01*
X48717Y42623D01*
X48601Y42662D01*
X48476Y42694D01*
X48340Y42718D01*
X48194Y42736D01*
X48037Y42746D01*
X47870Y42750D01*
Y44250D01*
X48037Y44254D01*
X48340Y44282D01*
X48476Y44306D01*
X48601Y44338D01*
X48717Y44377D01*
X48822Y44423D01*
X48917Y44475D01*
X49001Y44535D01*
X49075Y44602D01*
Y42398D01*
D02*
G37*
G36*
X44604Y44857D02*
X44649Y44730D01*
X44725Y44618D01*
X44831Y44520D01*
X44967Y44438D01*
X45133Y44370D01*
X45330Y44317D01*
X45556Y44280D01*
X45813Y44258D01*
X46101Y44250D01*
Y42750D01*
X45813Y42742D01*
X45556Y42720D01*
X45330Y42682D01*
X45133Y42630D01*
X44967Y42562D01*
X44831Y42480D01*
X44725Y42382D01*
X44649Y42270D01*
X44604Y42143D01*
X44589Y42000D01*
Y45000D01*
X44604Y44857D01*
D02*
G37*
G36*
X39113Y42000D02*
X39098Y42143D01*
X39053Y42270D01*
X38978Y42382D01*
X38873Y42480D01*
X38738Y42562D01*
X38573Y42630D01*
X38378Y42682D01*
X38153Y42720D01*
X37898Y42742D01*
X37613Y42750D01*
Y44250D01*
X37898Y44258D01*
X38153Y44280D01*
X38378Y44317D01*
X38573Y44370D01*
X38738Y44438D01*
X38873Y44520D01*
X38978Y44618D01*
X39053Y44730D01*
X39098Y44857D01*
X39113Y45000D01*
Y42000D01*
D02*
G37*
G36*
X35357Y44451D02*
X35402Y44409D01*
X35477Y44371D01*
X35582Y44339D01*
X35717Y44312D01*
X35882Y44290D01*
X36302Y44260D01*
X36842Y44250D01*
Y42750D01*
X36555Y42742D01*
X36299Y42720D01*
X36072Y42682D01*
X35876Y42630D01*
X35710Y42562D01*
X35574Y42480D01*
X35468Y42382D01*
X35392Y42270D01*
X35346Y42143D01*
X35330Y42000D01*
X35342Y44498D01*
X35357Y44451D01*
D02*
G37*
G36*
X31441Y41981D02*
X31425Y42124D01*
X31380Y42251D01*
X31304Y42364D01*
X31198Y42461D01*
X31061Y42544D01*
X30895Y42611D01*
X30699Y42664D01*
X30472Y42701D01*
X30216Y42724D01*
X29929Y42731D01*
Y44231D01*
X30214Y44234D01*
X31054Y44298D01*
X31189Y44327D01*
X31294Y44362D01*
X31369Y44402D01*
X31414Y44447D01*
X31429Y44498D01*
X31441Y41981D01*
D02*
G37*
G36*
X10940Y38589D02*
X10617Y38904D01*
X9989Y39436D01*
X9683Y39652D01*
X9383Y39835D01*
X9089Y39984D01*
X8801Y40100D01*
X8519Y40183D01*
X8242Y40233D01*
X7971Y40250D01*
Y41750D01*
X8242Y41767D01*
X8519Y41816D01*
X8801Y41899D01*
X9089Y42016D01*
X9383Y42165D01*
X9683Y42348D01*
X9989Y42564D01*
X10300Y42813D01*
X10617Y43096D01*
X10940Y43411D01*
Y38589D01*
D02*
G37*
G36*
X64340Y29705D02*
X63808Y29077D01*
X63592Y28771D01*
X63409Y28471D01*
X63260Y28177D01*
X63144Y27889D01*
X63061Y27607D01*
X63011Y27330D01*
X62994Y27059D01*
X61494D01*
X61478Y27330D01*
X61428Y27607D01*
X61345Y27889D01*
X61228Y28177D01*
X61079Y28471D01*
X60896Y28771D01*
X60680Y29077D01*
X60431Y29388D01*
X60148Y29705D01*
X59833Y30028D01*
X64656D01*
X64340Y29705D01*
D02*
G37*
G36*
X30514Y22685D02*
X30548Y22205D01*
X30577Y22010D01*
X30615Y21845D01*
X30661Y21710D01*
X30715Y21605D01*
X30778Y21530D01*
X30849Y21485D01*
X30929Y21470D01*
X28591D01*
X28670Y21485D01*
X28742Y21530D01*
X28804Y21605D01*
X28859Y21710D01*
X28905Y21845D01*
X28943Y22010D01*
X28972Y22205D01*
X28993Y22430D01*
X29010Y22970D01*
X30510D01*
X30514Y22685D01*
D02*
G37*
G36*
X63002Y22344D02*
X63024Y22088D01*
X63062Y21861D01*
X63114Y21665D01*
X63182Y21498D01*
X63264Y21362D01*
X63362Y21256D01*
X63474Y21180D01*
X63602Y21135D01*
X63744Y21119D01*
X60812Y21131D01*
X60942Y21146D01*
X61058Y21191D01*
X61160Y21266D01*
X61248Y21371D01*
X61324Y21506D01*
X61385Y21671D01*
X61433Y21866D01*
X61467Y22091D01*
X61487Y22346D01*
X61494Y22631D01*
X62994D01*
X63002Y22344D01*
D02*
G37*
G36*
X45158Y8591D02*
X45030Y8546D01*
X44918Y8471D01*
X44820Y8366D01*
X44737Y8231D01*
X44670Y8066D01*
X44618Y7871D01*
X44580Y7646D01*
X44557Y7391D01*
X44550Y7106D01*
X43050D01*
X43042Y7391D01*
X43020Y7646D01*
X42983Y7871D01*
X42930Y8066D01*
X42862Y8231D01*
X42780Y8366D01*
X42682Y8471D01*
X42570Y8546D01*
X42443Y8591D01*
X42300Y8606D01*
X45300D01*
X45158Y8591D01*
D02*
G37*
G36*
X62031Y5305D02*
X62016Y5370D01*
X61971Y5428D01*
X61896Y5479D01*
X61791Y5523D01*
X61656Y5561D01*
X61491Y5591D01*
X61296Y5615D01*
X60816Y5642D01*
X60531Y5646D01*
Y7146D01*
X60818Y7153D01*
X61074Y7176D01*
X61301Y7213D01*
X61497Y7266D01*
X61663Y7333D01*
X61799Y7416D01*
X61905Y7513D01*
X61981Y7626D01*
X62027Y7753D01*
X62043Y7896D01*
X62031Y5305D01*
D02*
G37*
G36*
X30849Y6715D02*
X30778Y6670D01*
X30715Y6595D01*
X30661Y6490D01*
X30615Y6355D01*
X30577Y6190D01*
X30548Y5995D01*
X30527Y5770D01*
X30510Y5230D01*
X29010D01*
X29006Y5515D01*
X28972Y5995D01*
X28943Y6190D01*
X28905Y6355D01*
X28859Y6490D01*
X28804Y6595D01*
X28742Y6670D01*
X28670Y6715D01*
X28591Y6730D01*
X30929D01*
X30849Y6715D01*
D02*
G37*
G36*
X54547Y7753D02*
X54592Y7626D01*
X54668Y7513D01*
X54774Y7416D01*
X54910Y7333D01*
X55076Y7266D01*
X55273Y7213D01*
X55500Y7176D01*
X55757Y7153D01*
X56044Y7146D01*
Y5646D01*
X55757Y5638D01*
X55500Y5616D01*
X55273Y5578D01*
X55076Y5526D01*
X54910Y5458D01*
X54774Y5376D01*
X54668Y5278D01*
X54592Y5166D01*
X54547Y5038D01*
X54532Y4896D01*
Y7896D01*
X54547Y7753D01*
D02*
G37*
G36*
X38005Y7065D02*
X38050Y6810D01*
X38077Y6730D01*
X38409D01*
X38330Y6715D01*
X38258Y6670D01*
X38195Y6595D01*
X38158Y6523D01*
X38230Y6390D01*
X38365Y6225D01*
X38530Y6090D01*
X38725Y5985D01*
X38950Y5910D01*
X39205Y5865D01*
X39490Y5850D01*
X37240Y4350D01*
X34990Y5850D01*
X35275Y5865D01*
X35530Y5910D01*
X35755Y5985D01*
X35950Y6090D01*
X36115Y6225D01*
X36250Y6390D01*
X36322Y6523D01*
X36285Y6595D01*
X36222Y6670D01*
X36151Y6715D01*
X36071Y6730D01*
X36404D01*
X36430Y6810D01*
X36475Y7065D01*
X36490Y7350D01*
X37990D01*
X38005Y7065D01*
D02*
G37*
G36*
X49056Y4242D02*
X49041Y4263D01*
X48996Y4281D01*
X48921Y4297D01*
X48816Y4311D01*
X48516Y4333D01*
X47556Y4350D01*
Y5850D01*
X47841Y5858D01*
X48096Y5880D01*
X48321Y5917D01*
X48516Y5970D01*
X48681Y6038D01*
X48816Y6120D01*
X48921Y6217D01*
X48996Y6330D01*
X49041Y6458D01*
X49056Y6600D01*
Y4242D01*
D02*
G37*
%LPC*%
G36*
X52803Y196733D02*
X51685D01*
X50606Y196444D01*
X49638Y195885D01*
X48847Y195095D01*
X48289Y194127D01*
X47999Y193047D01*
Y191929D01*
X48289Y190850D01*
X48847Y189882D01*
X49638Y189091D01*
X50606Y188533D01*
X51685Y188243D01*
X52803D01*
X53883Y188533D01*
X54851Y189091D01*
X55641Y189882D01*
X56200Y190850D01*
X56489Y191929D01*
Y193047D01*
X56200Y194127D01*
X55641Y195095D01*
X54851Y195885D01*
X53883Y196444D01*
X52803Y196733D01*
D02*
G37*
G36*
X42803D02*
X41685D01*
X40606Y196444D01*
X39638Y195885D01*
X38847Y195095D01*
X38289Y194127D01*
X37999Y193047D01*
Y191929D01*
X38289Y190850D01*
X38847Y189882D01*
X39638Y189091D01*
X40606Y188533D01*
X41685Y188243D01*
X42803D01*
X43883Y188533D01*
X44851Y189091D01*
X45641Y189882D01*
X46200Y190850D01*
X46489Y191929D01*
Y193047D01*
X46200Y194127D01*
X45641Y195095D01*
X44851Y195885D01*
X43883Y196444D01*
X42803Y196733D01*
D02*
G37*
G36*
X89981Y168081D02*
X88300D01*
Y164530D01*
X88957D01*
Y165530D01*
X88972Y165387D01*
X89018Y165260D01*
X89093Y165147D01*
X89199Y165050D01*
X89335Y164967D01*
X89501Y164900D01*
X89672Y164854D01*
X89719Y164866D01*
X89835Y164904D01*
X89941Y164948D01*
X89981Y164970D01*
Y168081D01*
D02*
G37*
G36*
X87300D02*
X85619D01*
Y164530D01*
X87300D01*
Y168081D01*
D02*
G37*
G36*
X8642Y162990D02*
X6174D01*
Y160325D01*
X8642D01*
Y162990D01*
D02*
G37*
G36*
X88957Y163530D02*
X88300D01*
Y159979D01*
X89981D01*
Y163059D01*
X89904Y163103D01*
X89799Y163150D01*
X89684Y163190D01*
X89648Y163199D01*
X89501Y163160D01*
X89335Y163092D01*
X89199Y163010D01*
X89093Y162912D01*
X89018Y162800D01*
X88972Y162672D01*
X88957Y162530D01*
Y163280D01*
X88955Y163280D01*
X88957Y163397D01*
Y163530D01*
D02*
G37*
G36*
X87300D02*
X85619D01*
Y159979D01*
X87300D01*
Y163530D01*
D02*
G37*
G36*
X10643Y159452D02*
X8174D01*
Y156786D01*
X10643D01*
Y159452D01*
D02*
G37*
G36*
X7174D02*
X4705D01*
Y156786D01*
X7174D01*
Y159452D01*
D02*
G37*
G36*
X25690Y133509D02*
X23221D01*
Y130843D01*
X25690D01*
Y133509D01*
D02*
G37*
G36*
X22221D02*
X19753D01*
Y130843D01*
X22221D01*
Y133509D01*
D02*
G37*
G36*
X17642D02*
X15174D01*
Y130843D01*
X17642D01*
Y133509D01*
D02*
G37*
G36*
X14174D02*
X11705D01*
Y130843D01*
X14174D01*
Y133509D01*
D02*
G37*
G36*
X16579Y123509D02*
X13324D01*
Y121040D01*
X16579D01*
Y123509D01*
D02*
G37*
G36*
X12324D02*
X9068D01*
Y121040D01*
X12324D01*
Y123509D01*
D02*
G37*
G36*
X27468Y122713D02*
X25000D01*
Y120048D01*
X27468D01*
Y122713D01*
D02*
G37*
G36*
X24000D02*
X21531D01*
Y120048D01*
X24000D01*
Y122713D01*
D02*
G37*
G36*
X16579Y120040D02*
X13324D01*
Y117572D01*
X16579D01*
Y120040D01*
D02*
G37*
G36*
X12324D02*
X9068D01*
Y117572D01*
X12324D01*
Y120040D01*
D02*
G37*
G36*
X79614Y97088D02*
X72981D01*
Y97079D01*
X72971Y97083D01*
X72946Y97086D01*
X72921Y97088D01*
X71934D01*
X72005Y96731D01*
X72211Y96424D01*
X72194Y96399D01*
X72121Y96033D01*
Y95206D01*
X71849Y94875D01*
X70745D01*
X70721Y94878D01*
X70657Y94894D01*
X70582Y94919D01*
X70498Y94955D01*
X70403Y95003D01*
X70308Y95059D01*
X70058Y95233D01*
X69926Y95340D01*
X69910Y95348D01*
X69745Y95513D01*
X68872Y95875D01*
X67928D01*
X67055Y95513D01*
X66387Y94845D01*
X66025Y93972D01*
Y93028D01*
X66387Y92155D01*
X66957Y91584D01*
X66953Y91565D01*
X66286Y90897D01*
X65924Y90024D01*
Y89079D01*
X66286Y88206D01*
X66953Y87538D01*
X67826Y87177D01*
X68771D01*
X69644Y87538D01*
X70312Y88206D01*
X70674Y89079D01*
Y90024D01*
X71323Y90459D01*
X71849D01*
X72121Y90127D01*
Y89301D01*
X72194Y88935D01*
X72331Y88730D01*
X72194Y88525D01*
X72121Y88159D01*
Y87332D01*
X72194Y86966D01*
X72401Y86656D01*
X72711Y86449D01*
X73077Y86376D01*
X78471D01*
X78837Y86449D01*
X79147Y86656D01*
X79354Y86966D01*
X79427Y87332D01*
Y88159D01*
X79354Y88525D01*
X79217Y88730D01*
X79354Y88935D01*
X79427Y89301D01*
Y90127D01*
X79354Y90494D01*
X79217Y90698D01*
X79354Y90903D01*
X79427Y91269D01*
Y92096D01*
X79354Y92462D01*
X79217Y92667D01*
X79354Y92872D01*
X79427Y93238D01*
Y94065D01*
X79354Y94431D01*
X79217Y94635D01*
X79354Y94840D01*
X79427Y95206D01*
Y96033D01*
X79354Y96399D01*
X79338Y96424D01*
X79543Y96731D01*
X79614Y97088D01*
D02*
G37*
G36*
X87669Y88552D02*
X85200D01*
Y86911D01*
X85588D01*
X85512Y86902D01*
X85444Y86878D01*
X85384Y86838D01*
X85332Y86781D01*
X85288Y86708D01*
X85252Y86618D01*
X85224Y86513D01*
X85212Y86437D01*
X85216Y86407D01*
X85252Y86275D01*
X85301Y86142D01*
X85365Y86008D01*
X85435Y85887D01*
X87669D01*
Y88552D01*
D02*
G37*
G36*
X84200D02*
X81731D01*
Y85887D01*
X84148D01*
X84200Y85978D01*
Y86829D01*
X84192Y86838D01*
X84132Y86878D01*
X84064Y86902D01*
X83988Y86911D01*
X84200D01*
Y88552D01*
D02*
G37*
G36*
X36986Y58580D02*
X33986D01*
Y56580D01*
X36986D01*
Y58580D01*
D02*
G37*
G36*
X32986D02*
X29986D01*
Y56855D01*
X30038Y56860D01*
X30263Y56897D01*
X30458Y56948D01*
X30623Y57015D01*
X30758Y57096D01*
X30863Y57192D01*
X30938Y57303D01*
X30983Y57428D01*
X30998Y57568D01*
Y56580D01*
X32986D01*
Y58580D01*
D02*
G37*
G36*
X45613Y59245D02*
X42357D01*
Y56580D01*
X45613D01*
Y59245D01*
D02*
G37*
G36*
X41357D02*
X38101D01*
Y56580D01*
X41357D01*
Y59245D01*
D02*
G37*
%LPD*%
G36*
X72981Y93142D02*
X72964Y93162D01*
X72933Y93181D01*
X72886Y93198D01*
X72825Y93212D01*
X72748Y93224D01*
X72550Y93241D01*
X72292Y93250D01*
X72141Y93251D01*
Y94051D01*
X72292Y94052D01*
X72825Y94091D01*
X72886Y94105D01*
X72933Y94121D01*
X72964Y94140D01*
X72981Y94161D01*
Y93142D01*
D02*
G37*
G36*
X69568Y94581D02*
X69867Y94372D01*
X70012Y94287D01*
X70154Y94215D01*
X70293Y94156D01*
X70429Y94110D01*
X70563Y94077D01*
X70693Y94058D01*
X70820Y94051D01*
X70900Y93251D01*
X70765Y93244D01*
X70632Y93222D01*
X70501Y93185D01*
X70371Y93133D01*
X70243Y93066D01*
X70116Y92985D01*
X69991Y92888D01*
X69868Y92777D01*
X69746Y92651D01*
X69625Y92511D01*
X69414Y94705D01*
X69568Y94581D01*
D02*
G37*
G36*
X72981Y91173D02*
X72964Y91194D01*
X72933Y91212D01*
X72886Y91229D01*
X72825Y91243D01*
X72748Y91255D01*
X72550Y91273D01*
X72292Y91282D01*
X72141Y91283D01*
Y92083D01*
X72292Y92084D01*
X72825Y92122D01*
X72886Y92136D01*
X72933Y92153D01*
X72964Y92172D01*
X72981Y92192D01*
Y91173D01*
D02*
G37*
%LPC*%
G36*
X51143Y167844D02*
X48674D01*
Y165179D01*
X51143D01*
Y167844D01*
D02*
G37*
G36*
X47674D02*
X45206D01*
Y165179D01*
X47674D01*
Y167844D01*
D02*
G37*
G36*
X85786Y123752D02*
X83318D01*
Y121087D01*
X85544D01*
X85539Y121143D01*
X85501Y121370D01*
X85449Y121566D01*
X85382Y121733D01*
X85299Y121869D01*
X85202Y121975D01*
X85089Y122050D01*
X84961Y122096D01*
X84819Y122111D01*
X85786D01*
Y123752D01*
D02*
G37*
G36*
X16579Y107240D02*
X13324D01*
Y104772D01*
X16579D01*
Y107240D01*
D02*
G37*
G36*
X36689Y36933D02*
X32744D01*
Y32988D01*
X36689D01*
Y36933D01*
D02*
G37*
G36*
X52803Y36733D02*
X51685D01*
X50606Y36444D01*
X49638Y35885D01*
X48847Y35095D01*
X48289Y34127D01*
X47999Y33047D01*
Y31929D01*
X48289Y30850D01*
X48847Y29882D01*
X49638Y29091D01*
X50606Y28533D01*
X51685Y28243D01*
X52803D01*
X53883Y28533D01*
X54851Y29091D01*
X55641Y29882D01*
X56200Y30850D01*
X56489Y31929D01*
Y33047D01*
X56200Y34127D01*
X55641Y35095D01*
X54851Y35885D01*
X53883Y36444D01*
X52803Y36733D01*
D02*
G37*
G36*
X42803D02*
X41685D01*
X40606Y36444D01*
X39638Y35885D01*
X38847Y35095D01*
X38289Y34127D01*
X37999Y33047D01*
Y31929D01*
X38289Y30850D01*
X38847Y29882D01*
X39638Y29091D01*
X40606Y28533D01*
X41685Y28243D01*
X42803D01*
X43883Y28533D01*
X44851Y29091D01*
X45641Y29882D01*
X46200Y30850D01*
X46489Y31929D01*
Y33047D01*
X46200Y34127D01*
X45641Y35095D01*
X44851Y35885D01*
X43883Y36444D01*
X42803Y36733D01*
D02*
G37*
G36*
X36689Y31988D02*
X32744D01*
Y28043D01*
X36689D01*
Y31988D01*
D02*
G37*
G36*
X55556Y22160D02*
X52300D01*
Y19494D01*
X55556D01*
Y22160D01*
D02*
G37*
G36*
X51300D02*
X48044D01*
Y19494D01*
X51300D01*
Y22160D01*
D02*
G37*
G36*
X46769Y20421D02*
X44300D01*
Y17755D01*
X46769D01*
Y20421D01*
D02*
G37*
G36*
X43300D02*
X40832D01*
Y17755D01*
X43300D01*
Y20421D01*
D02*
G37*
G36*
X39221Y22282D02*
X35259D01*
Y16154D01*
X39221D01*
Y22282D01*
D02*
G37*
G36*
X55556Y18494D02*
X52300D01*
Y15829D01*
X55556D01*
Y18494D01*
D02*
G37*
G36*
X51300D02*
X48044D01*
Y15829D01*
X51300D01*
Y18494D01*
D02*
G37*
%LPD*%
D11*
X28931Y86100D02*
X41631Y73400D01*
X6600Y86100D02*
X28931D01*
X50000Y65800D02*
Y75354D01*
X36800Y83400D02*
X42000D01*
X52408Y78892D02*
X56100Y75200D01*
X50439Y77961D02*
X52900Y75500D01*
X56100Y63000D02*
Y75200D01*
X52408Y78892D02*
Y82096D01*
X52900Y69800D02*
Y75500D01*
X50439Y77961D02*
Y82096D01*
X47500Y63300D02*
X50000Y65800D01*
X4162Y88538D02*
X6600Y86100D01*
X87700Y138200D02*
Y142770D01*
X68300Y152500D02*
X84000D01*
X87800Y148700D01*
Y142770D02*
Y148700D01*
X87700Y138200D02*
X89900D01*
X75774Y107431D02*
X89900D01*
Y138200D01*
X9531Y107740D02*
X12824D01*
X7000Y109069D02*
Y110600D01*
X8202Y109069D02*
X9531Y107740D01*
X7000Y109069D02*
X8202D01*
X8300Y97800D02*
Y106425D01*
X7457Y107269D02*
X8300Y106425D01*
Y97800D02*
X9700Y96400D01*
X4162Y108438D02*
Y116800D01*
Y108438D02*
X5331Y107269D01*
X7457D01*
X23800Y96400D02*
X36800Y83400D01*
X9700Y96400D02*
X23800D01*
X41631Y63300D02*
X47500D01*
X4162Y88538D02*
Y104000D01*
X12824Y113060D02*
X12832Y113052D01*
X24500D01*
X35786Y89714D02*
X42821D01*
X31500Y94000D02*
X35786Y89714D01*
X31500Y94000D02*
Y112000D01*
X30448Y113052D02*
X31500Y112000D01*
X24500Y113052D02*
X30448D01*
X24500Y100852D02*
X27648D01*
X29500Y99000D01*
Y93400D02*
Y99000D01*
Y93400D02*
X35154Y87746D01*
X42821D01*
X23908Y100260D02*
X24500Y100852D01*
X12824Y100260D02*
X23908D01*
X70124Y82096D02*
X77104D01*
X85300Y69800D02*
Y73900D01*
X77104Y82096D02*
X85300Y73900D01*
X40074Y153355D02*
Y158183D01*
Y148526D02*
Y153355D01*
Y148526D02*
X50439Y138161D01*
Y115049D02*
Y138161D01*
X64667Y63000D02*
Y69642D01*
X62019Y72281D02*
X62028D01*
X64667Y69642D01*
X60282Y74018D02*
X62019Y72281D01*
X60282Y74018D02*
Y82096D01*
X62250Y74650D02*
Y82096D01*
Y74650D02*
X67100Y69800D01*
X69100D01*
X73233Y63000D02*
Y71067D01*
X71700Y72600D02*
X73233Y71067D01*
X67200Y72600D02*
X71700D01*
X64219Y75581D02*
X67200Y72600D01*
X64219Y75581D02*
Y82096D01*
X66187Y77213D02*
Y82096D01*
Y77213D02*
X68700Y74700D01*
X75100D01*
X77200Y72600D01*
Y69800D02*
Y72600D01*
X81700Y63100D02*
X81800Y63000D01*
X81700Y63100D02*
Y74800D01*
X79500Y77000D02*
X81700Y74800D01*
X70000Y77000D02*
X79500D01*
X69900Y76900D02*
X70000Y77000D01*
X68156Y78644D02*
X69900Y76900D01*
X68156Y78644D02*
Y82096D01*
X84700Y95548D02*
Y99557D01*
X75774D02*
X84700D01*
X82700Y134100D02*
Y142770D01*
X66500Y150700D02*
X68300Y152500D01*
X72800Y142770D02*
Y148900D01*
X71970Y143600D02*
X72800Y142770D01*
X66500Y143600D02*
X71970D01*
X61866Y137300D02*
X62766Y136400D01*
X59600Y137300D02*
X61866D01*
X79999Y109399D02*
X82000Y111400D01*
X75774Y109399D02*
X79999D01*
X66540Y136400D02*
X70314D01*
X62766D02*
X66540D01*
X68156Y115049D02*
Y120300D01*
X66540D02*
X68156D01*
X66540D02*
Y136400D01*
X70124Y115049D02*
X73867D01*
X75000Y116181D01*
Y121480D01*
X74932Y121548D02*
Y133739D01*
Y121548D02*
X75000Y121480D01*
X74932Y133739D02*
X75293Y134100D01*
X78200Y130748D02*
Y134100D01*
X86286Y130748D02*
Y134100D01*
X78200D02*
X82700D01*
X75293D02*
X78200D01*
X82700D02*
X86286D01*
X82700Y142770D02*
X82800D01*
X62300Y130748D02*
Y135934D01*
X62766Y136400D01*
X70314Y130748D02*
Y136400D01*
X77800D01*
Y142770D01*
X72800Y148900D02*
X72900D01*
X87700Y142770D02*
X87800D01*
D18*
X74314Y178848D02*
D03*
Y172352D02*
D03*
X86286Y130748D02*
D03*
Y124252D02*
D03*
X70314Y130748D02*
D03*
Y124252D02*
D03*
X22721Y134009D02*
D03*
Y140505D02*
D03*
X14674Y134009D02*
D03*
Y140505D02*
D03*
X62300Y130748D02*
D03*
Y124252D02*
D03*
X56174Y164679D02*
D03*
Y158183D02*
D03*
X5674Y163490D02*
D03*
Y169986D02*
D03*
X7674Y156286D02*
D03*
Y149790D02*
D03*
X31774Y164679D02*
D03*
Y158183D02*
D03*
X40074Y164679D02*
D03*
Y158183D02*
D03*
X48174Y164679D02*
D03*
Y158183D02*
D03*
X64174Y164679D02*
D03*
Y158183D02*
D03*
X78200Y124252D02*
D03*
Y130748D02*
D03*
X84700Y89052D02*
D03*
Y95548D02*
D03*
X86286Y172352D02*
D03*
Y178848D02*
D03*
X33386Y48841D02*
D03*
Y42344D02*
D03*
X43800Y17255D02*
D03*
Y10759D02*
D03*
X24500Y119548D02*
D03*
Y113052D02*
D03*
Y107348D02*
D03*
Y100852D02*
D03*
D19*
X72800Y142770D02*
D03*
X77800D02*
D03*
X82800D02*
D03*
X87800D02*
D03*
X72800Y164030D02*
D03*
X77800D02*
D03*
X82800D02*
D03*
X87800D02*
D03*
D20*
X75774Y109399D02*
D03*
Y107431D02*
D03*
Y105462D02*
D03*
Y103494D02*
D03*
Y101525D02*
D03*
Y99557D02*
D03*
Y97588D02*
D03*
Y95620D02*
D03*
Y93651D02*
D03*
Y91683D02*
D03*
Y89714D02*
D03*
Y87746D02*
D03*
X42821D02*
D03*
Y89714D02*
D03*
Y91683D02*
D03*
Y93651D02*
D03*
Y95620D02*
D03*
Y97588D02*
D03*
Y99557D02*
D03*
Y101525D02*
D03*
Y103494D02*
D03*
Y105462D02*
D03*
Y107431D02*
D03*
Y109399D02*
D03*
D21*
X48471Y115049D02*
D03*
X50439D02*
D03*
X52408D02*
D03*
X54376D02*
D03*
X56345D02*
D03*
X58313D02*
D03*
X60282D02*
D03*
X62250D02*
D03*
X64219D02*
D03*
X66187D02*
D03*
X68156D02*
D03*
X70124D02*
D03*
Y82096D02*
D03*
X68156D02*
D03*
X66187D02*
D03*
X64219D02*
D03*
X62250D02*
D03*
X60282D02*
D03*
X58313D02*
D03*
X56345D02*
D03*
X54376D02*
D03*
X52408D02*
D03*
X50439D02*
D03*
X48471D02*
D03*
D22*
X52900Y69800D02*
D03*
X56100Y63000D02*
D03*
X64667D02*
D03*
X73233D02*
D03*
X61000Y69800D02*
D03*
X69100D02*
D03*
X77200D02*
D03*
X85300D02*
D03*
X81800Y63000D02*
D03*
D23*
X41857Y43481D02*
D03*
Y56080D02*
D03*
X51800Y6396D02*
D03*
Y18994D02*
D03*
D24*
X29760Y19218D02*
D03*
X37240D02*
D03*
Y8982D02*
D03*
X33500D02*
D03*
X29760D02*
D03*
D25*
X87126Y34087D02*
D03*
X47226Y181000D02*
D03*
D26*
X12824Y100260D02*
D03*
Y107740D02*
D03*
X4162Y104000D02*
D03*
X12824Y113060D02*
D03*
Y120540D02*
D03*
X4162Y116800D02*
D03*
D45*
X86912Y182900D02*
G03*
X85853Y182461I0J-1497D01*
G01*
X27900Y196731D02*
Y203341D01*
X27599Y196430D02*
X27900Y196731D01*
X27599Y188546D02*
Y196430D01*
Y188546D02*
X27900Y188245D01*
Y187334D02*
Y188245D01*
X42000Y83354D02*
X50000Y75354D01*
X42000Y83354D02*
Y83400D01*
X21971Y169088D02*
X24482D01*
X27500Y164300D02*
Y166070D01*
X24482Y169088D02*
X27500Y166070D01*
X50500Y201900D02*
Y204900D01*
Y201900D02*
X66900D01*
Y188600D02*
Y201900D01*
X71700Y110500D02*
X74549Y113349D01*
X74572D02*
X76700Y115477D01*
X74549Y113349D02*
X74572D01*
X62900Y110500D02*
X71700D01*
X62250Y111150D02*
X62900Y110500D01*
X86912Y182900D02*
X89800D01*
X68600Y181700D02*
Y182461D01*
X69425Y90725D02*
X69549D01*
X68300Y89600D02*
X69425Y90725D01*
X69549D02*
X70507Y91683D01*
X68299Y89552D02*
X68300Y89553D01*
X70507Y91683D02*
X75774D01*
X68300Y89553D02*
Y89600D01*
X68600Y182461D02*
X85853D01*
X68551Y93651D02*
X75774D01*
X68400Y93500D02*
X68551Y93651D01*
X56424Y181224D02*
X62024Y175624D01*
X32000Y175600D02*
X32196D01*
X26400Y181200D02*
X32000Y175600D01*
X26400Y181200D02*
X26600Y181400D01*
X62196Y175600D02*
X62244Y175648D01*
Y181488D01*
X32196Y175600D02*
X32244Y175648D01*
Y181488D01*
X84788Y84212D02*
Y89052D01*
X69386Y97500D02*
X75753D01*
X49188Y97588D02*
X49200Y97600D01*
X42821Y97588D02*
X49188D01*
X48174Y143526D02*
Y158183D01*
X27500Y162200D02*
X28386Y161314D01*
X29308D01*
X31086D01*
X31774Y160626D01*
Y158183D02*
Y160626D01*
X27500Y162200D02*
Y164300D01*
X60600Y154000D02*
X63200D01*
X64174Y154974D02*
Y158183D01*
X63200Y154000D02*
X64174Y154974D01*
X56345Y115049D02*
Y149745D01*
X60600Y154000D01*
X56174Y153874D02*
Y158183D01*
X54376Y152076D02*
X56174Y153874D01*
X54376Y115049D02*
Y152076D01*
X52408Y115049D02*
X52500Y115141D01*
Y139200D01*
X48174Y143526D02*
X52500Y139200D01*
X48471Y115049D02*
Y136429D01*
X31774Y153126D02*
X48471Y136429D01*
X31774Y153126D02*
Y158183D01*
X43000Y101392D02*
X47000D01*
Y99557D02*
Y101392D01*
X42821Y99557D02*
X47000D01*
X58313Y72487D02*
Y82096D01*
Y72487D02*
X61000Y69800D01*
X82800Y142770D02*
Y146600D01*
X81600Y147800D02*
X82800Y146600D01*
X76300Y147800D02*
X81600D01*
X75300Y146800D02*
X76300Y147800D01*
X75300Y139000D02*
Y146800D01*
X74500Y138200D02*
X75300Y139000D01*
X63800Y138200D02*
X74500D01*
X59500Y142500D02*
X63800Y138200D01*
X59500Y142500D02*
Y146800D01*
X76700Y115500D02*
X78200Y117000D01*
X76700Y115477D02*
Y115500D01*
X78200Y117000D02*
Y124252D01*
X62250Y111150D02*
Y115049D01*
X60282D02*
X60433Y115200D01*
Y117652D01*
X60499Y117718D01*
Y118300D01*
X62300Y120101D01*
Y124252D01*
D46*
X63200Y15831D02*
D03*
Y6769D02*
D03*
D47*
X41631Y63300D02*
D03*
X32569D02*
D03*
X41631Y73400D02*
D03*
X32569D02*
D03*
D48*
X62196Y175600D02*
D03*
X32196D02*
D03*
X59500Y146800D02*
D03*
X59600Y137300D02*
D03*
X66500Y143600D02*
D03*
Y150700D02*
D03*
X29232Y198461D02*
D03*
X26772Y203382D02*
D03*
X90748Y95114D02*
D03*
Y85272D02*
D03*
X88287Y80350D02*
D03*
X90748Y75429D02*
D03*
Y65587D02*
D03*
X88287Y60665D02*
D03*
X90748Y55744D02*
D03*
X88287Y50823D02*
D03*
X90748Y45902D02*
D03*
Y26217D02*
D03*
X85827Y114799D02*
D03*
X83366Y80350D02*
D03*
X85827Y65587D02*
D03*
Y55744D02*
D03*
X83366Y50823D02*
D03*
X85827Y45902D02*
D03*
X83366Y40980D02*
D03*
X78445Y60665D02*
D03*
X80905Y55744D02*
D03*
X78445Y50823D02*
D03*
X80905Y45902D02*
D03*
X78445Y40980D02*
D03*
Y31138D02*
D03*
X75984Y55744D02*
D03*
X73524Y50823D02*
D03*
X75984Y45902D02*
D03*
X73524Y40980D02*
D03*
X75984Y36059D02*
D03*
X73524Y31138D02*
D03*
X66142Y203382D02*
D03*
X63681Y198461D02*
D03*
X61221Y203382D02*
D03*
X58760Y198461D02*
D03*
X61221Y104957D02*
D03*
X58760Y100035D02*
D03*
Y90193D02*
D03*
X56299Y203382D02*
D03*
X53839Y198461D02*
D03*
X56299Y104957D02*
D03*
X53839Y100035D02*
D03*
X56299Y95114D02*
D03*
X53839Y90193D02*
D03*
X51378Y203382D02*
D03*
X48917Y198461D02*
D03*
X51378Y144327D02*
D03*
Y104957D02*
D03*
X48917Y90193D02*
D03*
X46457Y203382D02*
D03*
X43996Y198461D02*
D03*
Y168933D02*
D03*
Y119720D02*
D03*
X41535Y203382D02*
D03*
X39075Y198461D02*
D03*
Y178776D02*
D03*
X41535Y134484D02*
D03*
Y114799D02*
D03*
X36614Y203382D02*
D03*
X34154Y198461D02*
D03*
X36614Y173854D02*
D03*
X31693Y203382D02*
D03*
X29232Y139406D02*
D03*
X31693Y134484D02*
D03*
X29232Y129563D02*
D03*
X31693Y124642D02*
D03*
X29232Y119720D02*
D03*
Y80350D02*
D03*
X19390Y119720D02*
D03*
Y109878D02*
D03*
Y80350D02*
D03*
Y40980D02*
D03*
Y31138D02*
D03*
X16929Y55744D02*
D03*
Y45902D02*
D03*
Y36059D02*
D03*
X14469Y31138D02*
D03*
X9547Y178776D02*
D03*
Y139406D02*
D03*
Y129563D02*
D03*
Y31138D02*
D03*
X4626Y178776D02*
D03*
Y139406D02*
D03*
X7087Y134484D02*
D03*
X4626Y129563D02*
D03*
X7087Y124642D02*
D03*
Y36059D02*
D03*
X4626Y31138D02*
D03*
X89600Y152500D02*
D03*
X84700Y99557D02*
D03*
X50200Y43500D02*
D03*
X68299Y89552D02*
D03*
X87900Y158500D02*
D03*
X48100Y169200D02*
D03*
X89900Y172200D02*
D03*
Y178700D02*
D03*
X68400Y93500D02*
D03*
X56424Y181224D02*
D03*
X26400Y181200D02*
D03*
X69374Y97488D02*
D03*
X84800Y84200D02*
D03*
X49200Y97600D02*
D03*
X60600Y154000D02*
D03*
X54376Y152076D02*
D03*
X48200Y153355D02*
D03*
X40074D02*
D03*
X91300Y164000D02*
D03*
X68600Y181700D02*
D03*
X72000Y120100D02*
D03*
X86319Y118893D02*
D03*
X82000Y111400D02*
D03*
X72900Y148900D02*
D03*
X27441Y56213D02*
D03*
X86902Y7587D02*
D03*
X74516D02*
D03*
Y19972D02*
D03*
X86902D02*
D03*
X89468Y13780D02*
D03*
X71949D02*
D03*
X80709Y5020D02*
D03*
Y22539D02*
D03*
X86902Y188689D02*
D03*
X74516D02*
D03*
Y201075D02*
D03*
X86902D02*
D03*
X89468Y194882D02*
D03*
X71949D02*
D03*
X80709Y186122D02*
D03*
Y203642D02*
D03*
X19972Y188689D02*
D03*
X7587D02*
D03*
Y201075D02*
D03*
X19972D02*
D03*
X22539Y194882D02*
D03*
X5020D02*
D03*
X13780Y186122D02*
D03*
Y203642D02*
D03*
X19972Y7587D02*
D03*
X7587D02*
D03*
Y19972D02*
D03*
X19972D02*
D03*
X22539Y13780D02*
D03*
X5020D02*
D03*
X13780Y5020D02*
D03*
Y22539D02*
D03*
D49*
X62244Y181488D02*
D03*
Y184488D02*
D03*
X32244Y181488D02*
D03*
Y184488D02*
D03*
X33486Y56080D02*
D03*
Y53080D02*
D03*
D50*
X26900Y22300D02*
X27000Y22200D01*
Y5200D02*
Y22200D01*
X43872Y5100D02*
X50504D01*
X37240D02*
X43872D01*
X43800Y5172D02*
X43872Y5100D01*
X43800Y5172D02*
Y10759D01*
X62826Y6396D02*
X63200Y6769D01*
X51800Y6396D02*
X62826D01*
X50504Y5100D02*
X51800Y6396D01*
X29760Y5100D02*
Y8982D01*
X37240Y5100D02*
Y8982D01*
X29760Y5100D02*
X37240D01*
X62244Y17993D02*
Y32488D01*
Y17993D02*
X63200D01*
Y15831D02*
Y17993D01*
X31774Y164679D02*
Y169700D01*
X40074D01*
Y172352D01*
Y164679D02*
Y169700D01*
X2050Y143000D02*
X14800D01*
Y140505D02*
Y143000D01*
X22721D01*
X27043Y43481D02*
X33386D01*
X22721Y143000D02*
X36000D01*
X39425Y101392D02*
X43000D01*
X26900Y169700D02*
X31774D01*
X26900D02*
Y173200D01*
X5674Y169986D02*
Y173200D01*
X2050D02*
X5674D01*
X2050Y143000D02*
Y173200D01*
X5674D02*
X16971D01*
Y169088D02*
Y173200D01*
X26900D01*
X86800Y155300D02*
X89600Y152500D01*
X72800Y155300D02*
X86800D01*
X41876Y43500D02*
X50200D01*
X33386Y42344D02*
X34541Y43500D01*
X41838D01*
X36000Y101400D02*
Y143000D01*
X22721Y140505D02*
Y143000D01*
X7674Y149088D02*
X16971D01*
X86286Y172352D02*
X89748D01*
X89900Y172200D01*
X86286Y178848D02*
X89752D01*
X89900Y178700D01*
X32244Y184488D02*
Y192488D01*
X62244Y184488D02*
Y192488D01*
X87800Y164030D02*
X91300D01*
X70314Y120100D02*
Y124252D01*
X86319Y118893D02*
Y124252D01*
X27441Y56080D02*
X33486D01*
X36000Y101400D02*
X39418D01*
X39425Y101392D01*
X14674Y140505D02*
X14800D01*
X91300Y164000D02*
Y164030D01*
X68600Y178848D02*
Y181700D01*
Y178848D02*
X74314D01*
X72800Y155300D02*
Y164030D01*
X77800Y169512D02*
X77832Y169545D01*
Y175159D01*
X77800Y175192D02*
X77832Y175159D01*
X77800Y176008D02*
X77832Y176041D01*
X77800Y175192D02*
Y176008D01*
X77832Y178848D02*
X86286D01*
X77800Y164030D02*
Y169512D01*
X77832Y176041D02*
Y178848D01*
X82800Y164030D02*
Y172352D01*
X86286D01*
X70314Y120100D02*
X72000D01*
X86286Y124252D02*
X86319D01*
X56174Y172352D02*
X64174D01*
Y164679D02*
Y172352D01*
X74314D01*
X40074D02*
X56174D01*
Y164679D02*
Y172352D01*
X72800Y164030D02*
Y170838D01*
X74314Y172352D01*
X7600Y41000D02*
X13400D01*
X7600D02*
Y61000D01*
X13400D01*
X7600D02*
Y81000D01*
X13400D01*
Y71000D02*
X23300D01*
Y73400D01*
X30807D01*
X13400Y51000D02*
X22400D01*
Y63300D01*
X30807D01*
X27441Y56080D02*
Y56213D01*
X33386Y48841D02*
Y53080D01*
X33486D01*
X27043Y25125D02*
Y43481D01*
Y25125D02*
X29760D01*
Y19218D02*
Y25125D01*
D51*
X13780Y194882D02*
D03*
X14028Y13780D02*
D03*
X80709D02*
D03*
Y194882D02*
D03*
D52*
X13400Y91000D02*
D03*
D53*
Y81000D02*
D03*
Y71000D02*
D03*
Y61000D02*
D03*
Y51000D02*
D03*
Y41000D02*
D03*
X62244Y192488D02*
D03*
X52244D02*
D03*
X42244D02*
D03*
Y32488D02*
D03*
X52244D02*
D03*
X62244D02*
D03*
D54*
X32244Y192488D02*
D03*
Y32488D02*
D03*
D55*
X21971Y159088D02*
D03*
X16971D02*
D03*
Y164088D02*
D03*
Y154088D02*
D03*
Y149088D02*
D03*
X21971Y154088D02*
D03*
Y149088D02*
D03*
Y164088D02*
D03*
Y169088D02*
D03*
D56*
X16971D02*
D03*
M02*
